<svg xmlns="http://www.w3.org/2000/svg" xmlns:xlink="http://www.w3.org/1999/xlink" width="1000" zoomAndPan="magnify" viewBox="0 0 750 198.749996" height="265" preserveAspectRatio="xMidYMid meet" version="1.0"><defs><g/><clipPath id="3f3e5bc624"><path d="M 0.472656 0 L 748.722656 0 L 748.722656 198.5 L 0.472656 198.5 Z M 0.472656 0 " clip-rule="nonzero"/></clipPath><clipPath id="e5defa97d5"><path d="M 67.886719 0 L 681.132812 0 C 718.367188 0 748.546875 30.183594 748.546875 67.414062 L 748.546875 131.085938 C 748.546875 168.316406 718.367188 198.5 681.132812 198.5 L 67.886719 198.5 C 30.652344 198.5 0.472656 168.316406 0.472656 131.085938 L 0.472656 67.414062 C 0.472656 30.183594 30.652344 0 67.886719 0 Z M 67.886719 0 " clip-rule="nonzero"/></clipPath><clipPath id="4d0c302646"><path d="M 0.472656 0 L 748.570312 0 L 748.570312 198.5 L 0.472656 198.5 Z M 0.472656 0 " clip-rule="nonzero"/></clipPath><clipPath id="4310b0c39a"><path d="M 67.886719 0 L 681.132812 0 C 718.367188 0 748.546875 30.183594 748.546875 67.414062 L 748.546875 131.085938 C 748.546875 168.316406 718.367188 198.5 681.132812 198.5 L 67.886719 198.5 C 30.652344 198.5 0.472656 168.316406 0.472656 131.085938 L 0.472656 67.414062 C 0.472656 30.183594 30.652344 0 67.886719 0 Z M 67.886719 0 " clip-rule="nonzero"/></clipPath><clipPath id="fba2b9eb36"><rect x="0" width="749" y="0" height="199"/></clipPath><clipPath id="0fe29a2fee"><rect x="0" width="245" y="0" height="89"/></clipPath><clipPath id="15b0eab51b"><path d="M 55.738281 28.59375 L 176.332031 28.59375 L 176.332031 170.042969 L 55.738281 170.042969 Z M 55.738281 28.59375 " clip-rule="nonzero"/></clipPath></defs><g clip-path="url(#3f3e5bc624)"><g clip-path="url(#e5defa97d5)"><g><g clip-path="url(#fba2b9eb36)"><g clip-path="url(#4d0c302646)"><g clip-path="url(#4310b0c39a)"><path fill="#000813" d="M 0.472656 0 L 748.722656 0 L 748.722656 198.5 L 0.472656 198.5 Z M 0.472656 0 " fill-opacity="1" fill-rule="nonzero"/></g></g></g></g></g></g><g transform="matrix(1, 0, 0, 1, 210, 45)"><g clip-path="url(#0fe29a2fee)"><g fill="#ffffff" fill-opacity="1"><g transform="translate(0.520642, 71.672244)"><g><path d="M 20.4375 0.75 C 17.738281 0.75 15.066406 0.289062 12.421875 -0.625 C 9.773438 -1.550781 7.488281 -3.023438 5.5625 -5.046875 C 3.644531 -7.066406 2.414062 -9.726562 1.875 -13.03125 L 14.21875 -13.03125 C 14.539062 -11.78125 15.113281 -10.851562 15.9375 -10.25 C 16.769531 -9.65625 17.609375 -9.269531 18.453125 -9.09375 C 19.296875 -8.914062 19.929688 -8.828125 20.359375 -8.828125 C 21.984375 -8.828125 23.289062 -9.019531 24.28125 -9.40625 C 25.28125 -9.800781 25.78125 -10.382812 25.78125 -11.15625 C 25.78125 -11.875 25.441406 -12.4375 24.765625 -12.84375 C 24.097656 -13.257812 22.890625 -13.59375 21.140625 -13.84375 L 15.421875 -14.75 C 11.722656 -15.425781 8.738281 -16.695312 6.46875 -18.5625 C 4.195312 -20.4375 3.039062 -23.109375 3 -26.578125 C 2.96875 -28.972656 3.628906 -31.140625 4.984375 -33.078125 C 6.347656 -35.023438 8.347656 -36.570312 10.984375 -37.71875 C 13.617188 -38.875 16.820312 -39.453125 20.59375 -39.453125 C 25.875 -39.453125 30.0625 -38.300781 33.15625 -36 C 36.25 -33.707031 37.796875 -30.59375 37.796875 -26.65625 L 25.9375 -26.65625 C 25.664062 -27.820312 25.003906 -28.6875 23.953125 -29.25 C 22.910156 -29.8125 21.726562 -30.09375 20.40625 -30.09375 C 19.050781 -30.09375 17.90625 -29.890625 16.96875 -29.484375 C 16.039062 -29.085938 15.578125 -28.515625 15.578125 -27.765625 C 15.578125 -27.097656 16.023438 -26.554688 16.921875 -26.140625 C 17.816406 -25.734375 19.300781 -25.351562 21.375 -25 L 26.34375 -24.109375 C 28.84375 -23.503906 30.859375 -22.691406 32.390625 -21.671875 C 33.929688 -20.648438 35.101562 -19.546875 35.90625 -18.359375 C 36.71875 -17.171875 37.273438 -16.007812 37.578125 -14.875 C 37.878906 -13.738281 38.03125 -12.773438 38.03125 -11.984375 C 38.03125 -9.210938 37.25 -6.882812 35.6875 -5 C 34.125 -3.113281 32.015625 -1.679688 29.359375 -0.703125 C 26.703125 0.265625 23.726562 0.75 20.4375 0.75 Z M 20.4375 0.75 "/></g></g></g><g fill="#ffffff" fill-opacity="1"><g transform="translate(40.605594, 71.672244)"><g><path d="M 16.359375 -16.015625 C 16.328125 -14.472656 16.5625 -13.210938 17.0625 -12.234375 C 17.5625 -11.265625 18.242188 -10.554688 19.109375 -10.109375 C 19.972656 -9.660156 20.925781 -9.4375 21.96875 -9.4375 C 23.289062 -9.4375 24.484375 -9.679688 25.546875 -10.171875 C 26.609375 -10.671875 27.4375 -11.671875 28.03125 -13.171875 L 40.90625 -13.171875 C 40.507812 -10.304688 39.375 -7.832031 37.5 -5.75 C 35.632812 -3.664062 33.359375 -2.0625 30.671875 -0.9375 C 27.992188 0.1875 25.21875 0.75 22.34375 0.75 C 18.320312 0.75 14.785156 -0.0664062 11.734375 -1.703125 C 8.679688 -3.335938 6.304688 -5.625 4.609375 -8.5625 C 2.910156 -11.507812 2.0625 -14.941406 2.0625 -18.859375 C 2.0625 -22.554688 2.835938 -25.960938 4.390625 -29.078125 C 5.953125 -32.203125 8.195312 -34.710938 11.125 -36.609375 C 14.0625 -38.503906 17.601562 -39.453125 21.75 -39.453125 C 25.96875 -39.453125 29.484375 -38.578125 32.296875 -36.828125 C 35.117188 -35.078125 37.234375 -32.6875 38.640625 -29.65625 C 40.054688 -26.625 40.765625 -23.203125 40.765625 -19.390625 L 40.765625 -16.015625 Z M 16.28125 -24.171875 L 27.328125 -24.171875 C 27.328125 -25.148438 27.113281 -26.054688 26.6875 -26.890625 C 26.257812 -27.722656 25.632812 -28.390625 24.8125 -28.890625 C 23.988281 -29.390625 22.96875 -29.640625 21.75 -29.640625 C 20.75 -29.640625 19.835938 -29.390625 19.015625 -28.890625 C 18.191406 -28.390625 17.53125 -27.722656 17.03125 -26.890625 C 16.53125 -26.054688 16.28125 -25.148438 16.28125 -24.171875 Z M 16.28125 -24.171875 "/></g></g></g><g fill="#ffffff" fill-opacity="1"><g transform="translate(83.572479, 71.672244)"><g><path d="M 21.375 -39.453125 C 25.019531 -39.453125 28.09375 -38.675781 30.59375 -37.125 C 33.101562 -35.582031 35.015625 -33.550781 36.328125 -31.03125 C 37.640625 -28.507812 38.316406 -25.800781 38.359375 -22.90625 L 26.578125 -22.90625 C 26.472656 -23.632812 26.257812 -24.445312 25.9375 -25.34375 C 25.613281 -26.238281 25.101562 -27.015625 24.40625 -27.671875 C 23.707031 -28.335938 22.734375 -28.671875 21.484375 -28.671875 C 19.609375 -28.671875 18.101562 -27.890625 16.96875 -26.328125 C 15.832031 -24.773438 15.265625 -22.4375 15.265625 -19.3125 C 15.265625 -16.144531 15.875 -13.679688 17.09375 -11.921875 C 18.320312 -10.160156 19.882812 -9.28125 21.78125 -9.28125 C 23.007812 -9.28125 23.960938 -9.644531 24.640625 -10.375 C 25.328125 -11.113281 25.828125 -11.929688 26.140625 -12.828125 C 26.453125 -13.734375 26.644531 -14.445312 26.71875 -14.96875 L 38.171875 -14.96875 C 38.171875 -12.226562 37.503906 -9.660156 36.171875 -7.265625 C 34.835938 -4.867188 32.921875 -2.929688 30.421875 -1.453125 C 27.929688 0.015625 24.914062 0.75 21.375 0.75 C 17.675781 0.75 14.351562 -0.0820312 11.40625 -1.75 C 8.46875 -3.425781 6.144531 -5.757812 4.4375 -8.75 C 2.726562 -11.75 1.875 -15.21875 1.875 -19.15625 C 1.875 -23.15625 2.722656 -26.675781 4.421875 -29.71875 C 6.117188 -32.757812 8.4375 -35.140625 11.375 -36.859375 C 14.320312 -38.585938 17.65625 -39.453125 21.375 -39.453125 Z M 21.375 -39.453125 "/></g></g></g><g fill="#ffffff" fill-opacity="1"><g transform="translate(123.620012, 71.672244)"><g><path d="M 18 0.75 C 16.425781 0.75 14.789062 0.484375 13.09375 -0.046875 C 11.40625 -0.585938 9.820312 -1.378906 8.34375 -2.421875 C 6.875 -3.472656 5.675781 -4.753906 4.75 -6.265625 C 3.832031 -7.773438 3.375 -9.503906 3.375 -11.453125 L 3.375 -38.703125 L 17.96875 -38.703125 L 17.96875 -13.46875 C 17.96875 -12.351562 18.378906 -11.410156 19.203125 -10.640625 C 20.023438 -9.878906 21.171875 -9.5 22.640625 -9.5 C 24.117188 -9.5 25.273438 -9.878906 26.109375 -10.640625 C 26.941406 -11.410156 27.359375 -12.351562 27.359375 -13.46875 L 27.359375 -38.703125 L 41.8125 -38.703125 L 41.8125 0 L 31.03125 0 L 29.3125 -7.9375 C 28.832031 -5.363281 27.929688 -3.457031 26.609375 -2.21875 C 25.285156 -0.988281 23.832031 -0.1875 22.25 0.1875 C 20.664062 0.5625 19.25 0.75 18 0.75 Z M 18 0.75 "/></g></g></g><g fill="#ffffff" fill-opacity="1"><g transform="translate(168.795125, 71.672244)"><g><path d="M 3.75 0 L 3.75 -38.703125 L 17.8125 -38.703125 L 17.8125 -28 C 18.414062 -30.070312 19.269531 -31.972656 20.375 -33.703125 C 21.488281 -35.441406 22.90625 -36.832031 24.625 -37.875 C 26.351562 -38.925781 28.410156 -39.453125 30.796875 -39.453125 C 30.972656 -39.453125 31.109375 -39.453125 31.203125 -39.453125 C 31.304688 -39.453125 31.359375 -39.453125 31.359375 -39.453125 L 31.359375 -25.671875 C 31.285156 -25.703125 31.21875 -25.71875 31.15625 -25.71875 C 31.09375 -25.71875 31 -25.726562 30.875 -25.75 C 28.15625 -26.019531 25.96875 -25.992188 24.3125 -25.671875 C 22.65625 -25.347656 21.390625 -24.816406 20.515625 -24.078125 C 19.640625 -23.347656 19.050781 -22.5 18.75 -21.53125 C 18.445312 -20.570312 18.296875 -19.582031 18.296875 -18.5625 L 18.296875 0 Z M 3.75 0 "/></g></g></g><g fill="#ffffff" fill-opacity="1"><g transform="translate(200.908019, 71.672244)"><g><path d="M 16.359375 -16.015625 C 16.328125 -14.472656 16.5625 -13.210938 17.0625 -12.234375 C 17.5625 -11.265625 18.242188 -10.554688 19.109375 -10.109375 C 19.972656 -9.660156 20.925781 -9.4375 21.96875 -9.4375 C 23.289062 -9.4375 24.484375 -9.679688 25.546875 -10.171875 C 26.609375 -10.671875 27.4375 -11.671875 28.03125 -13.171875 L 40.90625 -13.171875 C 40.507812 -10.304688 39.375 -7.832031 37.5 -5.75 C 35.632812 -3.664062 33.359375 -2.0625 30.671875 -0.9375 C 27.992188 0.1875 25.21875 0.75 22.34375 0.75 C 18.320312 0.75 14.785156 -0.0664062 11.734375 -1.703125 C 8.679688 -3.335938 6.304688 -5.625 4.609375 -8.5625 C 2.910156 -11.507812 2.0625 -14.941406 2.0625 -18.859375 C 2.0625 -22.554688 2.835938 -25.960938 4.390625 -29.078125 C 5.953125 -32.203125 8.195312 -34.710938 11.125 -36.609375 C 14.0625 -38.503906 17.601562 -39.453125 21.75 -39.453125 C 25.96875 -39.453125 29.484375 -38.578125 32.296875 -36.828125 C 35.117188 -35.078125 37.234375 -32.6875 38.640625 -29.65625 C 40.054688 -26.625 40.765625 -23.203125 40.765625 -19.390625 L 40.765625 -16.015625 Z M 16.28125 -24.171875 L 27.328125 -24.171875 C 27.328125 -25.148438 27.113281 -26.054688 26.6875 -26.890625 C 26.257812 -27.722656 25.632812 -28.390625 24.8125 -28.890625 C 23.988281 -29.390625 22.96875 -29.640625 21.75 -29.640625 C 20.75 -29.640625 19.835938 -29.390625 19.015625 -28.890625 C 18.191406 -28.390625 17.53125 -27.722656 17.03125 -26.890625 C 16.53125 -26.054688 16.28125 -25.148438 16.28125 -24.171875 Z M 16.28125 -24.171875 "/></g></g></g></g></g><g clip-path="url(#15b0eab51b)"><path fill="#ffffff" d="M 116.035156 28.59375 C 140.726562 28.59375 160.738281 48.628906 160.738281 73.335938 L 160.738281 78.285156 C 170.214844 85.5 176.332031 96.902344 176.332031 109.75 L 176.332031 130.5625 C 176.332031 152.390625 158.652344 170.101562 136.832031 170.101562 L 95.242188 170.101562 C 73.421875 170.101562 55.742188 152.390625 55.738281 130.5625 L 55.738281 109.75 C 55.738281 96.898438 61.859375 85.5 71.335938 78.28125 L 71.335938 73.335938 C 71.335938 48.628906 91.339844 28.59375 116.035156 28.59375 Z M 116.035156 28.59375 " fill-opacity="1" fill-rule="nonzero"/></g><path fill="#000813" d="M 116.035156 47.320312 C 130.386719 47.320312 142.027344 58.96875 142.027344 73.335938 L 142.027344 88.945312 C 142.027344 89.160156 142.027344 89.378906 142.019531 89.597656 C 150.992188 91.90625 157.621094 100.054688 157.621094 109.75 L 157.621094 130.5625 C 157.621094 142.054688 148.3125 151.375 136.832031 151.375 L 95.242188 151.375 C 83.761719 151.375 74.453125 142.054688 74.453125 130.5625 L 74.453125 109.75 C 74.453125 100.054688 81.082031 91.90625 90.054688 89.597656 C 90.046875 89.378906 90.046875 89.160156 90.046875 88.945312 L 90.046875 73.335938 C 90.046875 58.96875 101.679688 47.320312 116.035156 47.320312 Z M 95.242188 99.347656 C 89.503906 99.347656 84.847656 104.003906 84.847656 109.75 L 84.847656 130.5625 C 84.847656 136.308594 89.503906 140.964844 95.242188 140.964844 L 136.832031 140.964844 C 142.570312 140.964844 147.226562 136.308594 147.226562 130.5625 L 147.226562 109.75 C 147.226562 104.003906 142.570312 99.347656 136.832031 99.347656 Z M 116.035156 109.75 C 118.90625 109.75 121.238281 112.082031 121.238281 114.957031 L 121.238281 120.160156 C 121.238281 123.03125 118.90625 125.359375 116.035156 125.359375 C 113.167969 125.359375 110.835938 123.03125 110.835938 120.160156 L 110.835938 114.957031 C 110.835938 112.082031 113.167969 109.75 116.035156 109.75 Z M 116.035156 57.730469 C 107.425781 57.730469 100.441406 64.714844 100.441406 73.335938 L 100.441406 88.945312 L 131.632812 88.945312 L 131.632812 73.335938 C 131.632812 64.714844 124.648438 57.730469 116.035156 57.730469 Z M 116.035156 57.730469 " fill-opacity="1" fill-rule="nonzero"/></svg>