<svg xmlns="http://www.w3.org/2000/svg" xmlns:xlink="http://www.w3.org/1999/xlink" width="1000" zoomAndPan="magnify" viewBox="0 0 750 974.999993" height="1300" preserveAspectRatio="xMidYMid meet" version="1.0"><defs><g/><clipPath id="c2b29e186b"><path d="M 0 0 L 749.019531 0 L 749.019531 965 L 0 965 Z M 0 0 " clip-rule="nonzero"/></clipPath><clipPath id="dc6c69130d"><path d="M 67.5 0 L 681.519531 0 C 718.796875 0 749.019531 30.222656 749.019531 67.5 L 749.019531 897.0625 C 749.019531 934.339844 718.796875 964.5625 681.519531 964.5625 L 67.5 964.5625 C 30.222656 964.5625 0 934.339844 0 897.0625 L 0 67.5 C 0 30.222656 30.222656 0 67.5 0 Z M 67.5 0 " clip-rule="nonzero"/></clipPath><clipPath id="4b782bd2eb"><path d="M 0 0 L 749.019531 0 L 749.019531 964.800781 L 0 964.800781 Z M 0 0 " clip-rule="nonzero"/></clipPath><clipPath id="37ab0ba894"><path d="M 67.5 0 L 681.519531 0 C 718.796875 0 749.019531 30.222656 749.019531 67.5 L 749.019531 897.0625 C 749.019531 934.339844 718.796875 964.5625 681.519531 964.5625 L 67.5 964.5625 C 30.222656 964.5625 0 934.339844 0 897.0625 L 0 67.5 C 0 30.222656 30.222656 0 67.5 0 Z M 67.5 0 " clip-rule="nonzero"/></clipPath><clipPath id="be02f4f2fe"><rect x="0" width="750" y="0" height="965"/></clipPath><clipPath id="4d48ec4a49"><path d="M 0.980469 780.449219 L 750 780.449219 L 750 836.746094 L 0.980469 836.746094 Z M 0.980469 780.449219 " clip-rule="nonzero"/></clipPath><clipPath id="3c25f79fa7"><path d="M 0.980469 0.449219 L 750 0.449219 L 750 56.746094 L 0.980469 56.746094 Z M 0.980469 0.449219 " clip-rule="nonzero"/></clipPath><clipPath id="902f4fafaf"><rect x="0" width="750" y="0" height="57"/></clipPath><clipPath id="e71853049b"><path d="M 136.328125 146.851562 L 599.828125 146.851562 L 599.828125 690.136719 L 136.328125 690.136719 Z M 136.328125 146.851562 " clip-rule="nonzero"/></clipPath><clipPath id="07d0c2e3c6"><path d="M 267 44 L 321.519531 44 L 321.519531 100 L 267 100 Z M 267 44 " clip-rule="nonzero"/></clipPath><clipPath id="3b3bea47ce"><rect x="0" width="322" y="0" height="123"/></clipPath></defs><g clip-path="url(#c2b29e186b)"><g clip-path="url(#dc6c69130d)"><g transform="matrix(1, 0, 0, 1, 0, 0.000000000000064448)"><g clip-path="url(#be02f4f2fe)"><g clip-path="url(#4b782bd2eb)"><g clip-path="url(#37ab0ba894)"><path fill="#000813" d="M 0 0 L 749.019531 0 L 749.019531 965.53125 L 0 965.53125 Z M 0 0 " fill-opacity="1" fill-rule="nonzero"/></g></g></g></g></g></g><g clip-path="url(#4d48ec4a49)"><g transform="matrix(1, 0, 0, 1, 0, 780)"><g clip-path="url(#902f4fafaf)"><g clip-path="url(#3c25f79fa7)"><path fill="#986df8" d="M 0.980469 0.449219 L 750.007812 0.449219 L 750.007812 56.746094 L 0.980469 56.746094 Z M 0.980469 0.449219 " fill-opacity="1" fill-rule="nonzero"/></g></g></g></g><g clip-path="url(#e71853049b)"><path fill="#dfff03" d="M 368.078125 146.851562 C 462.96875 146.851562 539.890625 223.800781 539.890625 318.703125 L 539.890625 337.703125 C 576.304688 365.421875 599.828125 409.207031 599.828125 458.5625 L 599.828125 538.496094 C 599.828125 622.332031 531.875 690.359375 448.003906 690.359375 L 288.15625 690.359375 C 204.285156 690.359375 136.332031 622.332031 136.328125 538.496094 L 136.328125 458.5625 C 136.328125 409.203125 159.851562 365.417969 196.265625 337.699219 L 196.265625 318.703125 C 196.265625 223.808594 273.15625 146.855469 368.078125 146.851562 Z M 368.078125 146.851562 " fill-opacity="1" fill-rule="nonzero"/></g><path fill="#000813" d="M 368.078125 218.785156 C 423.238281 218.785156 467.96875 263.519531 467.96875 318.703125 L 467.96875 378.648438 C 467.96875 379.472656 467.96875 380.316406 467.949219 381.160156 C 502.433594 390.019531 527.902344 421.324219 527.902344 458.5625 L 527.902344 538.496094 C 527.902344 582.628906 492.128906 618.425781 448 618.425781 L 288.15625 618.425781 C 244.027344 618.425781 208.253906 582.628906 208.253906 538.496094 L 208.253906 458.5625 C 208.253906 421.320312 233.726562 390.019531 268.210938 381.160156 C 268.191406 380.316406 268.191406 379.472656 268.191406 378.648438 L 268.191406 318.703125 C 268.191406 263.519531 312.898438 218.785156 368.078125 218.785156 Z M 288.15625 418.605469 C 266.09375 418.605469 248.207031 436.496094 248.207031 458.558594 L 248.207031 538.492188 C 248.207031 560.558594 266.09375 578.449219 288.15625 578.449219 L 448 578.449219 C 470.066406 578.449219 487.953125 560.558594 487.953125 538.492188 L 487.953125 458.558594 C 487.953125 436.492188 470.066406 418.605469 448 418.605469 Z M 368.078125 458.5625 C 379.113281 458.5625 388.066406 467.515625 388.066406 478.550781 L 388.066406 498.539062 C 388.066406 509.570312 379.113281 518.507812 368.078125 518.507812 C 357.046875 518.507812 348.09375 509.570312 348.09375 498.539062 L 348.09375 478.550781 C 348.09375 467.515625 357.046875 458.5625 368.078125 458.5625 Z M 368.078125 258.761719 C 334.984375 258.761719 308.140625 285.585938 308.140625 318.703125 L 308.140625 378.648438 L 428.015625 378.648438 L 428.015625 318.703125 C 428.015625 285.585938 401.175781 258.761719 368.078125 258.761719 Z M 368.078125 258.761719 " fill-opacity="1" fill-rule="nonzero"/><g transform="matrix(1, 0, 0, 1, 212, 792)"><g clip-path="url(#3b3bea47ce)"><g fill="#ffffff" fill-opacity="1"><g transform="translate(1.081547, 98.933824)"><g><path d="M 28.421875 1.046875 C 24.671875 1.046875 20.957031 0.40625 17.28125 -0.875 C 13.601562 -2.164062 10.425781 -4.21875 7.75 -7.03125 C 5.082031 -9.84375 3.367188 -13.535156 2.609375 -18.109375 L 19.78125 -18.109375 C 20.226562 -16.378906 21.023438 -15.097656 22.171875 -14.265625 C 23.316406 -13.429688 24.476562 -12.890625 25.65625 -12.640625 C 26.84375 -12.398438 27.726562 -12.28125 28.3125 -12.28125 C 30.570312 -12.28125 32.394531 -12.550781 33.78125 -13.09375 C 35.164062 -13.632812 35.859375 -14.441406 35.859375 -15.515625 C 35.859375 -16.515625 35.390625 -17.300781 34.453125 -17.875 C 33.523438 -18.445312 31.84375 -18.910156 29.40625 -19.265625 L 21.453125 -20.515625 C 16.316406 -21.453125 12.164062 -23.21875 9 -25.8125 C 5.84375 -28.414062 4.234375 -32.128906 4.171875 -36.953125 C 4.128906 -40.285156 5.050781 -43.304688 6.9375 -46.015625 C 8.832031 -48.722656 11.609375 -50.875 15.265625 -52.46875 C 18.929688 -54.0625 23.382812 -54.859375 28.625 -54.859375 C 35.988281 -54.859375 41.820312 -53.257812 46.125 -50.0625 C 50.425781 -46.875 52.578125 -42.539062 52.578125 -37.0625 L 36.078125 -37.0625 C 35.691406 -38.695312 34.769531 -39.90625 33.3125 -40.6875 C 31.851562 -41.46875 30.207031 -41.859375 28.375 -41.859375 C 26.5 -41.859375 24.910156 -41.578125 23.609375 -41.015625 C 22.304688 -40.460938 21.65625 -39.664062 21.65625 -38.625 C 21.65625 -37.6875 22.28125 -36.929688 23.53125 -36.359375 C 24.78125 -35.785156 26.84375 -35.253906 29.71875 -34.765625 L 36.640625 -33.515625 C 40.117188 -32.691406 42.921875 -31.566406 45.046875 -30.140625 C 47.179688 -28.710938 48.8125 -27.175781 49.9375 -25.53125 C 51.070312 -23.882812 51.847656 -22.269531 52.265625 -20.6875 C 52.679688 -19.113281 52.890625 -17.769531 52.890625 -16.65625 C 52.890625 -12.800781 51.800781 -9.5625 49.625 -6.9375 C 47.457031 -4.320312 44.523438 -2.335938 40.828125 -0.984375 C 37.140625 0.367188 33.003906 1.046875 28.421875 1.046875 Z M 28.421875 1.046875 "/></g></g></g><g fill="#ffffff" fill-opacity="1"><g transform="translate(53.708962, 98.933824)"><g><path d="M 22.75 -22.28125 C 22.71875 -20.125 23.046875 -18.367188 23.734375 -17.015625 C 24.429688 -15.660156 25.378906 -14.671875 26.578125 -14.046875 C 27.773438 -13.429688 29.101562 -13.125 30.5625 -13.125 C 32.394531 -13.125 34.046875 -13.46875 35.515625 -14.15625 C 36.992188 -14.851562 38.148438 -16.242188 38.984375 -18.328125 L 56.890625 -18.328125 C 56.335938 -14.335938 54.757812 -10.890625 52.15625 -7.984375 C 49.550781 -5.085938 46.382812 -2.859375 42.65625 -1.296875 C 38.925781 0.265625 35.066406 1.046875 31.078125 1.046875 C 25.492188 1.046875 20.570312 -0.0859375 16.3125 -2.359375 C 12.0625 -4.640625 8.753906 -7.828125 6.390625 -11.921875 C 4.035156 -16.015625 2.859375 -20.785156 2.859375 -26.234375 C 2.859375 -31.367188 3.941406 -36.101562 6.109375 -40.4375 C 8.285156 -44.78125 11.410156 -48.269531 15.484375 -50.90625 C 19.566406 -53.539062 24.488281 -54.859375 30.25 -54.859375 C 36.113281 -54.859375 41.003906 -53.644531 44.921875 -51.21875 C 48.847656 -48.789062 51.789062 -45.46875 53.75 -41.25 C 55.707031 -37.03125 56.6875 -32.269531 56.6875 -26.96875 L 56.6875 -22.28125 Z M 22.640625 -33.625 L 38 -33.625 C 38 -34.976562 37.703125 -36.234375 37.109375 -37.390625 C 36.523438 -38.554688 35.660156 -39.488281 34.515625 -40.1875 C 33.367188 -40.882812 31.945312 -41.234375 30.25 -41.234375 C 28.851562 -41.234375 27.582031 -40.882812 26.4375 -40.1875 C 25.289062 -39.488281 24.367188 -38.554688 23.671875 -37.390625 C 22.984375 -36.234375 22.640625 -34.976562 22.640625 -33.625 Z M 22.640625 -33.625 "/></g></g></g><g fill="#ffffff" fill-opacity="1"><g transform="translate(110.344618, 98.933824)"><g><path d="M 29.71875 -54.859375 C 34.789062 -54.859375 39.066406 -53.78125 42.546875 -51.625 C 46.035156 -49.476562 48.691406 -46.648438 50.515625 -43.140625 C 52.335938 -39.640625 53.285156 -35.878906 53.359375 -31.859375 L 36.953125 -31.859375 C 36.816406 -32.859375 36.519531 -33.984375 36.0625 -35.234375 C 35.613281 -36.484375 34.90625 -37.566406 33.9375 -38.484375 C 32.96875 -39.410156 31.613281 -39.875 29.875 -39.875 C 27.269531 -39.875 25.175781 -38.785156 23.59375 -36.609375 C 22.019531 -34.441406 21.234375 -31.191406 21.234375 -26.859375 C 21.234375 -22.453125 22.082031 -19.023438 23.78125 -16.578125 C 25.488281 -14.128906 27.660156 -12.90625 30.296875 -12.90625 C 31.992188 -12.90625 33.316406 -13.414062 34.265625 -14.4375 C 35.222656 -15.46875 35.921875 -16.609375 36.359375 -17.859375 C 36.796875 -19.109375 37.066406 -20.097656 37.171875 -20.828125 L 53.09375 -20.828125 C 53.09375 -17.003906 52.164062 -13.425781 50.3125 -10.09375 C 48.457031 -6.757812 45.789062 -4.066406 42.3125 -2.015625 C 38.84375 0.0234375 34.644531 1.046875 29.71875 1.046875 C 24.582031 1.046875 19.96875 -0.113281 15.875 -2.4375 C 11.78125 -4.769531 8.546875 -8.015625 6.171875 -12.171875 C 3.796875 -16.335938 2.609375 -21.164062 2.609375 -26.65625 C 2.609375 -32.207031 3.785156 -37.097656 6.140625 -41.328125 C 8.503906 -45.566406 11.734375 -48.878906 15.828125 -51.265625 C 19.921875 -53.660156 24.550781 -54.859375 29.71875 -54.859375 Z M 29.71875 -54.859375 "/></g></g></g><g fill="#ffffff" fill-opacity="1"><g transform="translate(162.919967, 98.933824)"><g><path d="M 25.03125 1.046875 C 22.851562 1.046875 20.582031 0.671875 18.21875 -0.078125 C 15.851562 -0.828125 13.644531 -1.925781 11.59375 -3.375 C 9.550781 -4.832031 7.890625 -6.613281 6.609375 -8.71875 C 5.328125 -10.820312 4.6875 -13.222656 4.6875 -15.921875 L 4.6875 -53.828125 L 24.984375 -53.828125 L 24.984375 -18.734375 C 24.984375 -17.171875 25.554688 -15.859375 26.703125 -14.796875 C 27.847656 -13.742188 29.445312 -13.21875 31.5 -13.21875 C 33.539062 -13.21875 35.140625 -13.742188 36.296875 -14.796875 C 37.460938 -15.859375 38.046875 -17.171875 38.046875 -18.734375 L 38.046875 -53.828125 L 58.140625 -53.828125 L 58.140625 0 L 43.15625 0 L 40.765625 -11.03125 C 40.097656 -7.457031 38.84375 -4.8125 37 -3.09375 C 35.164062 -1.375 33.144531 -0.253906 30.9375 0.265625 C 28.738281 0.785156 26.769531 1.046875 25.03125 1.046875 Z M 25.03125 1.046875 "/></g></g></g><g fill="#ffffff" fill-opacity="1"><g transform="translate(222.626858, 98.933824)"><g><path d="M 5.203125 0 L 5.203125 -53.828125 L 24.78125 -53.828125 L 24.78125 -38.9375 C 25.613281 -41.8125 26.800781 -44.457031 28.34375 -46.875 C 29.882812 -49.289062 31.851562 -51.222656 34.25 -52.671875 C 36.644531 -54.128906 39.507812 -54.859375 42.84375 -54.859375 C 43.082031 -54.859375 43.269531 -54.859375 43.40625 -54.859375 C 43.550781 -54.859375 43.625 -54.859375 43.625 -54.859375 L 43.625 -35.703125 C 43.519531 -35.742188 43.421875 -35.765625 43.328125 -35.765625 C 43.242188 -35.765625 43.113281 -35.78125 42.9375 -35.8125 C 39.15625 -36.195312 36.109375 -36.160156 33.796875 -35.703125 C 31.492188 -35.253906 29.734375 -34.519531 28.515625 -33.5 C 27.304688 -32.476562 26.492188 -31.296875 26.078125 -29.953125 C 25.660156 -28.617188 25.453125 -27.238281 25.453125 -25.8125 L 25.453125 0 Z M 5.203125 0 "/></g></g></g><g clip-path="url(#07d0c2e3c6)"><g fill="#ffffff" fill-opacity="1"><g transform="translate(264.166595, 98.933824)"><g><path d="M 22.75 -22.28125 C 22.71875 -20.125 23.046875 -18.367188 23.734375 -17.015625 C 24.429688 -15.660156 25.378906 -14.671875 26.578125 -14.046875 C 27.773438 -13.429688 29.101562 -13.125 30.5625 -13.125 C 32.394531 -13.125 34.046875 -13.46875 35.515625 -14.15625 C 36.992188 -14.851562 38.148438 -16.242188 38.984375 -18.328125 L 56.890625 -18.328125 C 56.335938 -14.335938 54.757812 -10.890625 52.15625 -7.984375 C 49.550781 -5.085938 46.382812 -2.859375 42.65625 -1.296875 C 38.925781 0.265625 35.066406 1.046875 31.078125 1.046875 C 25.492188 1.046875 20.570312 -0.0859375 16.3125 -2.359375 C 12.0625 -4.640625 8.753906 -7.828125 6.390625 -11.921875 C 4.035156 -16.015625 2.859375 -20.785156 2.859375 -26.234375 C 2.859375 -31.367188 3.941406 -36.101562 6.109375 -40.4375 C 8.285156 -44.78125 11.410156 -48.269531 15.484375 -50.90625 C 19.566406 -53.539062 24.488281 -54.859375 30.25 -54.859375 C 36.113281 -54.859375 41.003906 -53.644531 44.921875 -51.21875 C 48.847656 -48.789062 51.789062 -45.46875 53.75 -41.25 C 55.707031 -37.03125 56.6875 -32.269531 56.6875 -26.96875 L 56.6875 -22.28125 Z M 22.640625 -33.625 L 38 -33.625 C 38 -34.976562 37.703125 -36.234375 37.109375 -37.390625 C 36.523438 -38.554688 35.660156 -39.488281 34.515625 -40.1875 C 33.367188 -40.882812 31.945312 -41.234375 30.25 -41.234375 C 28.851562 -41.234375 27.582031 -40.882812 26.4375 -40.1875 C 25.289062 -39.488281 24.367188 -38.554688 23.671875 -37.390625 C 22.984375 -36.234375 22.640625 -34.976562 22.640625 -33.625 Z M 22.640625 -33.625 "/></g></g></g></g></g></g></svg>