<svg width="1000" height="810" viewBox="0 0 1000 810" fill="none" xmlns="http://www.w3.org/2000/svg">
<g clip-path="url(#clip0_320_64)">
<path d="M477.891 233.829C452.556 167.325 470.654 88.3608 527.075 40.8266L528.751 39.433L530.465 38.0453C603.254 -20.1707 706.328 -7.83987 766.161 59.0424L767.934 61.0238L965.616 301.067L969.145 306.32C971.242 309.44 973.302 312.702 975.304 316.101L983.392 330.903L990.608 349.023C996.221 365.126 999.884 383.113 1000.18 402.755C1000.5 423.648 996.967 443.202 990.74 461.068L984.495 478.159L975.412 493.829C972.824 498.17 970.087 502.362 967.222 506.395L964.538 510.172L769.624 746.853L769.622 746.851C712.97 815.746 602.662 833.922 526.583 768.678L526.528 768.631L526.473 768.583C472.673 722.341 451.923 643.819 477.788 576.101L170.931 576.101C76.4241 576.101 -0.204888 499.472 -0.205096 404.965C-0.2051 310.459 76.4239 233.829 170.931 233.829L477.891 233.829Z" fill="#DFFF03"/>
<path d="M861.446 378.507L669.478 145.403C653.569 127.62 628.128 125.906 611.416 139.618C594.704 153.33 591.919 180.968 605.631 197.68L742.323 363.513L171.136 363.513C148.426 363.513 130 381.939 130 404.649C130 427.359 148.426 445.785 171.136 445.785L742.323 445.785L605.631 611.618C591.919 628.33 595.026 655.593 611.416 669.68C628.342 684.196 655.82 680.607 669.478 663.895L861.446 430.791C873.926 413.223 872.855 395.486 861.446 378.507Z" fill="#000813"/>
</g>
<defs>
<clipPath id="clip0_320_64">
<rect width="1000" height="809" fill="white" transform="translate(0 0.488281)"/>
</clipPath>
</defs>
</svg>
