<svg width="1000" height="1075" viewBox="0 0 1000 1075" fill="none" xmlns="http://www.w3.org/2000/svg">
<g clip-path="url(#clip0_320_76)">
<path d="M500 0.685547C586.761 0.685547 671.321 23.3001 745.723 65.417C815.785 26.0576 906.049 41.3338 958.879 105.429L958.994 105.567C1009.55 167.072 1009.38 253.536 963.633 314.431C997.815 399.231 1008.32 492.56 992.776 584.216C978.245 669.914 941.741 749.528 887.811 815.779C934.174 889.057 917.505 985.947 848.637 1039.42L848.635 1039.42C778.489 1093.93 678.177 1084.77 619.037 1018.54L616.069 1015.22L596.964 990.626C532.956 1003.29 467.054 1003.29 403.047 990.627L383.942 1015.22L380.976 1018.54C321.836 1084.77 221.525 1093.93 151.379 1039.42C151.359 1039.41 151.341 1039.39 151.321 1039.38C151.29 1039.35 151.258 1039.33 151.226 1039.3C82.4835 985.806 65.8747 889.006 112.199 815.784C58.2672 749.533 21.7585 669.922 7.22364 584.223C-8.32139 492.564 2.18398 399.232 36.3662 314.431C9.8722 279.168 -1.33034 235.333 3.7461 192.736C3.7461 192.736 10.1707 134.316 41.4987 100.424C72.8266 66.5309 117.56 52.7549 117.56 52.7549C129.562 48.7009 142.085 45.9707 154.924 44.6914L155.183 44.665L155.443 44.6406C189.907 41.3464 224.349 48.6967 254.244 65.4375C328.653 23.3088 413.221 0.685608 500 0.685547Z" fill="#DFFF03"/>
<path d="M500.204 130.82C592.413 130.82 681.274 165.369 749.306 227.662L803.771 182.89C820.418 169.207 845.046 171.601 858.767 188.248C872.45 204.895 870.055 229.523 853.408 243.244H853.37L800.844 286.04C858.235 366.009 881.267 465.587 864.81 562.619C848.357 659.655 793.815 746.119 713.278 802.712L777.51 884.427C788.951 901.416 785.264 924.333 769.111 936.876C752.958 949.457 729.849 947.367 716.205 932.088L645.17 840.643C552.581 880.132 447.836 880.132 355.251 840.643L284.216 932.088C270.571 947.366 247.463 949.457 231.309 936.876C215.156 924.334 211.47 901.416 222.91 884.427L287.142 802.712H287.13C206.595 746.114 152.054 659.651 135.597 562.619C119.14 465.584 142.173 366.007 199.563 286.04L147.001 243.244C130.353 229.524 127.959 204.895 141.641 188.248C148.255 180.267 157.718 175.212 168.017 174.186C178.355 173.197 188.618 176.314 196.637 182.89H196.599L251.101 227.662C319.142 165.369 407.995 130.82 500.204 130.82ZM500.206 209.193C422.854 209.421 348.784 240.28 294.091 294.935C239.399 349.636 208.575 423.746 208.309 501.09C208.309 578.471 239.058 652.739 293.788 707.469C348.557 762.199 422.786 792.985 500.206 792.985C577.626 792.985 651.856 762.199 706.624 707.469C761.354 652.739 792.101 578.472 792.101 501.09C792.101 423.67 761.354 349.402 706.624 294.672C651.855 239.942 577.626 209.193 500.206 209.193ZM488.544 288.967C510.017 288.967 527.462 306.374 527.463 327.886V477.706H636.426C657.938 477.706 675.346 495.151 675.346 516.625C675.346 538.137 657.938 555.544 636.426 555.544H488.544C478.206 555.544 468.324 551.439 461.026 544.142C453.729 536.844 449.624 526.963 449.624 516.625V327.886C449.624 306.374 467.032 288.967 488.544 288.967Z" fill="#000813"/>
</g>
<defs>
<clipPath id="clip0_320_76">
<rect width="1000" height="1074" fill="white" transform="translate(0 0.820312)"/>
</clipPath>
</defs>
</svg>
