<svg width="1000" height="1018" viewBox="0 0 1000 1018" fill="none" xmlns="http://www.w3.org/2000/svg">
<g clip-path="url(#clip0_278_179)">
<path d="M435.961 10.7941C543.165 -25.7449 656.144 33.9797 691.326 137.2C704.68 176.378 705.174 216.326 695.391 252.968C759.65 282.692 814.883 329.947 854.228 389.736C940.02 409.046 1004.32 485.858 1004.32 577.4V658.785C1004.32 727.805 967.767 788.454 913.006 822.395C893.497 933.421 797.11 1017.68 680.594 1018.42L679.056 1018.42H317.342C199.236 1018.42 101.494 932.605 82.9532 819.819C30.4425 785.439 -4.32129 726.093 -4.32129 658.785V577.4L-4.31738 576.157C-3.74357 485.939 59.2815 410.251 143.605 390.237C183.473 329.446 239.748 281.565 305.244 251.833C278.41 149.062 337.328 44.4104 435.961 10.7941Z" fill="#DFFF03"/>
<path d="M474.673 124.33C517.163 109.847 563.26 133.373 577.743 175.867C592.226 218.357 568.7 264.454 526.206 278.937V337.716H535.249C643.763 337.716 740.515 404.614 779.406 505.008H811.975C851.749 505.008 884.321 537.578 884.321 577.351V658.737C884.321 698.511 851.752 731.08 811.979 731.08H796.612V780.815C796.612 845.916 744.157 898.373 679.056 898.373H317.342C252.241 898.373 199.785 845.917 199.785 780.815V731.08H188.021C148.248 731.08 115.679 698.511 115.679 658.737V577.351C115.679 537.578 148.248 505.009 188.021 505.009H218.753C257.646 404.619 354.396 337.717 462.91 337.717H471.953V278.055C448.464 269.012 431.26 250.926 423.136 227.4C408.653 184.91 432.179 138.813 474.673 124.33ZM462.025 391.973C347.19 391.973 254.04 485.123 254.04 599.958V780.814C254.04 816.067 282.087 844.115 317.34 844.115H335.426V771.772C335.426 726.558 371.597 690.387 416.812 690.387H579.582C624.796 690.387 660.968 726.558 660.968 771.772V844.115H679.054C714.306 844.115 742.354 816.067 742.354 780.814V599.958C742.354 485.123 649.203 391.973 534.368 391.973H462.025ZM416.812 744.643C401.446 744.643 389.683 756.407 389.683 771.772V844.115H471.068V744.643H416.812ZM525.325 844.115H606.711V771.772C606.711 756.407 594.948 744.643 579.582 744.643H525.325V844.115ZM188.019 559.265C178.057 559.265 169.933 567.389 169.933 577.35V658.736C169.933 668.697 178.057 676.822 188.019 676.822H199.781V599.958C199.781 586.394 201.582 572.83 203.384 559.265H188.019ZM793.891 559.265C795.692 572.83 796.61 586.394 796.61 599.958V676.822H811.977C821.938 676.822 830.062 668.698 830.062 658.736V577.35C830.062 567.389 821.938 559.265 811.977 559.265H793.891ZM400.525 473.355C445.74 473.355 481.911 509.527 481.911 554.741C481.911 599.955 445.74 636.127 400.525 636.127C355.311 636.127 319.14 599.955 319.14 554.741C319.14 509.527 355.311 473.355 400.525 473.355ZM599.468 473.355C644.682 473.356 680.853 509.527 680.853 554.741C680.852 599.955 644.682 636.127 599.468 636.127C554.254 636.127 518.082 599.955 518.082 554.741C518.082 509.527 554.254 473.355 599.468 473.355ZM400.525 527.612C385.16 527.612 373.396 539.375 373.396 554.741C373.397 570.107 385.16 581.869 400.525 581.869C415.891 581.869 427.654 570.107 427.654 554.741C427.654 539.375 415.891 527.612 400.525 527.612ZM599.468 527.612C584.102 527.612 572.339 539.375 572.339 554.741C572.339 570.107 584.102 581.869 599.468 581.869C614.833 581.869 626.596 570.106 626.596 554.741C626.596 539.376 614.833 527.612 599.468 527.612ZM499.996 174.944C484.631 174.944 472.868 186.708 472.868 202.073C472.868 217.438 484.631 229.201 499.996 229.201C515.362 229.201 527.125 217.439 527.125 202.073C527.125 186.707 515.362 174.944 499.996 174.944Z" fill="#000813"/>
</g>
<defs>
<clipPath id="clip0_278_179">
<rect width="1000" height="1018" fill="white"/>
</clipPath>
</defs>
</svg>
