<svg width="1000" height="1186" viewBox="0 0 1000 1186" fill="none" xmlns="http://www.w3.org/2000/svg">
<g clip-path="url(#clip0_320_18)">
<path d="M602.087 18.4523C608.246 21.639 614.252 25.2478 620.064 29.281C620.12 29.3198 620.177 29.3575 620.233 29.3964L620.232 29.3974C678.292 69.7661 703.222 142.833 682.662 209.955L682.608 210.132L682.553 210.308C679.005 221.776 677.288 234.678 679.557 247.164C680.407 247.704 681.256 248.246 682.104 248.79C700.021 239.277 719.929 233.034 741.033 230.819C753.259 229.532 765.383 229.644 777.22 231.049L788.685 232.903L800.783 235.643C842.98 247.178 879.494 275.559 900.846 315.369L901.572 316.74L901.587 316.769C921.508 354.798 938.792 394.262 953.271 434.675L993.222 611.314C1012.22 733.795 991.799 852.338 925.35 955.172L923.722 957.692L921.978 960.133C892.865 1000.9 794.881 1123.32 626.746 1168.21C603.107 1175.86 589.085 1178.47 560.529 1182.53C538.156 1183.96 525.427 1185.82 496.592 1184.95C494.095 1184.93 492.012 1184.86 490.551 1184.8C489.747 1184.76 489.073 1184.72 488.633 1184.7C488.256 1184.68 487.823 1184.65 487.802 1184.65L487.634 1184.64L487.465 1184.63C416.125 1180.25 272.488 1156.62 153.327 1039.77C8.67319 897.967 -34.0623 685.095 26.9697 489.081C36.0425 456.033 47.4064 422.183 60.441 389.413L60.474 389.328L60.5079 389.244C77.3384 347.104 110.126 315.412 149.896 299.253L165 294.425L183.313 289.687C194.711 287.709 206.432 286.924 218.307 287.43L219.133 287.465L219.958 287.511C222.057 287.628 224.146 287.784 226.225 287.98C230.534 278.606 235.058 269.331 239.794 260.164L239.834 260.085C285.223 172.385 350.408 94.3718 428.84 34.0077L428.861 33.9913L428.883 33.9757C459.469 10.4554 496.463 -0.778499 533.195 0.462769L570.28 6.03842L602.087 18.4523Z" fill="#DFFF03"/>
<path d="M868.94 624.795C863.833 591.6 856.502 558.445 847.277 526.197C832.367 474.551 812.187 424.221 787.229 376.574C780.968 364.631 768.119 357.67 754.527 359.112C741.101 360.513 729.898 370.068 726.274 383.082C721.578 399.968 713.835 415.412 703.292 428.963C702.88 429.498 702.468 430.034 702.015 430.528C689.948 418.09 677.262 406.311 664.083 395.273C645.838 380.034 626.357 365.949 606.176 353.428C590.732 343.831 570.304 326.822 560.708 300.339L558.978 295.438C542.791 246.51 550.164 201.329 559.225 172.048C563.426 158.333 558.319 143.466 546.499 135.269C534.72 127.073 518.987 127.444 507.579 136.216C444.112 185.062 391.189 248.41 354.488 319.325C323.228 379.826 303.335 446.384 296.169 514.253C285.75 507.375 275.124 498.232 265.734 486.288C255.149 472.78 247.406 457.376 242.752 440.448C239.004 426.816 226.937 417.097 212.811 416.313C198.313 415.695 185.629 423.933 180.398 437.029C168.783 466.229 158.734 496.336 150.868 525.331C101.569 681.216 137.112 842.995 243.7 947.481C331.425 1033.52 439.039 1052.22 495.383 1055.68C496.083 1055.72 496.742 1055.76 497.442 1055.76C680.551 1055.76 787.63 926.023 816.92 885.009C864.984 810.628 883.517 718.211 869.02 624.754L868.94 624.795ZM638.671 911.156C626.151 928.701 579.2 985.66 500.204 986.113C474.998 984.384 428.294 975.982 390.815 939.203C347.57 896.783 331.261 831.871 346.952 765.774C360.255 776.4 375.865 784.431 392.544 789.25C402.264 792.051 413.013 790.156 421.251 784.061C429.488 777.924 434.389 768.328 434.554 758.073C435.13 717.794 445.179 677.597 463.713 641.926C469.19 631.301 475.41 621.086 482.328 611.285C483.152 614.415 484.099 617.586 485.17 620.757L486.57 624.835C494.972 647.981 511.364 667.585 533.934 681.588C543.406 687.478 552.467 694.026 560.992 701.152C571.289 709.801 581.008 719.438 589.74 729.775C601.107 743.242 621.042 745.467 635.127 734.594C637.516 732.74 639.822 730.846 642.005 728.828C644.517 735.953 646.823 743.119 648.883 750.368C653.578 766.719 657.285 783.44 659.838 800.078C666.099 840.852 658.273 880.76 638.669 911.196L638.671 911.156ZM762.388 847.977C754.398 859.18 738.748 878.99 715.931 900.282C727.505 865.851 730.841 828.084 724.951 789.987C721.945 770.589 717.62 751.067 712.184 732.08C703.37 701.644 691.509 672.032 676.888 644.15C670.586 632.206 657.407 625.245 644.186 626.729C630.76 628.17 619.558 637.684 615.933 650.698C615.15 653.581 614.121 656.382 612.926 659.059C609.714 656.176 606.501 653.334 603.206 650.575C592.416 641.514 580.719 633.113 568.569 625.575C561.691 621.292 552.589 613.796 547.646 600.122C539.656 575.823 543.322 553.13 547.894 538.385C552.094 524.629 546.987 509.803 535.126 501.647C523.347 493.492 507.655 493.863 496.247 502.636C458.44 531.795 426.933 569.479 405.063 611.697C390.772 639.25 380.517 668.945 374.545 699.463C371.498 694.603 369.191 689.208 367.585 683.442C363.796 669.81 351.77 660.132 337.643 659.348C322.982 658.69 310.503 666.927 305.272 680.023C298.476 697.033 292.546 714.702 288.057 731.34C269.688 789.412 271.047 848.847 289.951 900.732C289.869 900.649 289.827 900.649 289.745 900.567C201.031 813.542 171.827 677.425 213.964 544.103C215.076 539.943 216.27 535.783 217.465 531.624C242.752 561.854 277.843 584.505 317.01 595.79C326.853 598.673 337.438 596.696 345.758 590.601C353.995 584.464 358.896 574.868 359.06 564.613C360.131 490.109 378.788 415.855 413.013 349.748C431.959 313.051 455.928 278.662 483.77 247.814C484.799 269.436 488.588 292.582 496.496 316.593L498.596 322.688C511.363 357.943 536.528 388.008 571.411 409.59C588.916 420.462 605.842 432.653 621.657 445.915C640.891 461.977 658.931 479.935 675.239 499.25C686.606 512.676 706.541 514.86 720.626 504.028C733.558 494.02 745.131 482.446 755.139 469.597C755.715 468.856 756.333 468.073 756.91 467.332C767.33 492.537 776.391 518.319 783.886 544.513C792.37 574.043 799.083 604.438 803.779 634.874C815.763 712.385 800.731 788.534 762.346 848.01L762.388 847.977Z" fill="#000813"/>
</g>
<defs>
<clipPath id="clip0_320_18">
<rect width="1000" height="1185" fill="white" transform="translate(0 0.271484)"/>
</clipPath>
</defs>
</svg>
