<svg width="1000" height="973" viewBox="0 0 1000 973" fill="none" xmlns="http://www.w3.org/2000/svg">
<g clip-path="url(#clip0_463_127)">
<path d="M945.186 566.393C979.688 598.356 1000 643.632 1000 691.859V801.494C1000 896.004 923.414 972.589 828.905 972.589H171.095C76.5855 972.589 9.9138e-05 896.004 0 801.494V691.741C0.0752845 643.592 20.3968 598.426 54.8176 566.519V499.826L54.8186 499.654C55.204 415.315 79.3968 332.81 124.71 261.621C164.851 198.562 220.085 146.725 285.177 110.663C309.837 45.1622 372.926 0.0824138 445.098 3.6273e-05H554.819C627.213 -0.0467665 690.348 45.2026 715.009 110.764C780.022 146.821 835.191 198.619 875.293 261.619L876.351 263.29C920.984 334.095 944.802 415.973 945.185 499.654L945.186 499.825V566.393Z" fill="#DFFF03"/>
<path d="M876.873 608.828L870.021 604.867V499.997C869.699 429.816 849.571 361.186 811.884 301.983C774.197 242.776 720.503 195.453 657.066 165.475L650.749 162.477L649.518 155.358C641.809 109.052 601.766 75.1117 554.818 75.1651H445.183C398.288 75.2186 358.3 109.105 350.645 155.358L349.414 162.477L342.99 165.475H342.936C279.5 195.453 225.806 242.776 188.118 301.983C150.431 361.19 130.302 429.819 129.981 499.997V604.975L123.129 608.937C93.5252 626.067 75.2175 657.652 75.1641 691.859V801.494C75.1641 854.491 118.097 897.424 171.095 897.424H828.904C881.901 897.424 924.834 854.491 924.834 801.494V691.859C924.834 657.598 906.53 625.959 876.873 608.828ZM650.751 579.493L651.822 576.87C668.631 536.506 668.631 491.057 651.822 450.64L650.751 448.071V253.318L672.7 269.913C745.397 323.98 788.117 409.368 787.794 499.995V595.926H650.751V579.493ZM431.481 157.385H568.525V362.95L550.591 357.062C517.723 346.355 482.283 346.355 449.415 357.062L431.481 362.95V157.385ZM500.003 431.472C533.247 431.472 563.225 451.493 575.966 482.221C588.707 512.949 581.641 548.333 558.14 571.835C534.639 595.335 499.253 602.402 468.525 589.661C437.798 576.921 417.777 546.942 417.777 513.698C417.777 468.303 454.607 431.472 500.003 431.472ZM212.212 499.994C211.997 409.47 254.663 324.194 327.306 270.172L349.255 253.309V448.061L348.184 450.684V450.631C331.375 491.048 331.375 536.497 348.184 576.86L349.255 579.483V595.918H212.212V499.994ZM842.612 815.194H157.394V678.151H842.612V815.194Z" fill="#000813"/>
</g>
<defs>
<clipPath id="clip0_463_127">
<rect width="1000" height="972.59" fill="white"/>
</clipPath>
</defs>
</svg>
