<svg width="1000" height="1001" viewBox="0 0 1000 1001" fill="none" xmlns="http://www.w3.org/2000/svg">
<g clip-path="url(#clip0_320_106)">
<path d="M15.0635 171.15L15.0773 168.938C16.2622 75.4499 92.4223 0.333984 185.881 0.333984L188.425 0.33793C403.766 0.996668 606.633 85.2744 759.518 237.014L761.321 238.81L761.372 238.859L761.421 238.909C914.983 392.606 1000 597.236 1000 814.341C1000 908.344 924.308 983.969 831.273 985.145L829.072 985.159C792.047 985.159 757.817 973.399 729.873 953.431C701.911 973.406 667.664 985.157 630.654 985.157C593.585 985.157 559.317 973.368 531.355 953.356C503.381 973.322 469.146 985.058 432.206 985.058C393.739 985.058 358.257 972.364 329.715 950.936C294.747 981.654 248.944 1000.33 198.864 1000.33C143.895 1000.33 94.1568 978.2 58.1467 942.19C22.5681 906.611 -0.688811 856.517 0.0155668 800.065C0.343604 753.149 17.0314 706.882 49.1179 670.37C27.7722 641.862 15.0635 606.299 15.0635 568.027L15.0773 565.814C15.5361 529.618 27.2355 496.178 46.8245 468.783C27.0005 440.954 15.0635 406.649 15.0635 369.531L15.0773 367.318C15.5358 331.137 27.2254 297.709 46.7998 270.321C26.8556 242.367 15.0635 208.015 15.0635 171.15Z" fill="#DFFF03"/>
<path d="M198.605 724.091C241.404 723.833 276.322 758.751 276.544 801.438L276.248 801.734C276.248 844.162 241.366 879.118 198.864 879.118C177.076 879.118 157.877 870.5 143.858 856.48C129.654 842.276 120.924 822.966 121.22 801.475C121.22 780.835 129.061 761.229 143.599 746.729C158.359 731.932 177.964 724.091 198.605 724.091ZM185.882 121.546C370.768 121.546 544.615 193.711 675.675 324.581C806.62 455.641 878.789 629.494 878.789 814.341C878.789 841.789 856.521 863.947 829.073 863.947C801.626 863.947 779.469 841.714 779.469 814.341C779.469 487.052 513.173 220.681 185.807 220.681C172.195 220.681 159.766 215.169 150.777 206.18C141.863 197.303 136.277 184.874 136.277 171.15C136.277 143.703 158.51 121.546 185.882 121.546ZM185.882 319.926C458.542 319.926 680.298 541.794 680.261 814.339C680.261 841.787 658.103 863.945 630.656 863.945C603.208 863.944 581.051 841.712 581.051 814.339C581.051 596.434 403.723 419.172 185.807 419.172C172.195 419.172 159.766 413.661 150.777 404.672C141.863 395.684 136.277 383.254 136.277 369.531C136.277 342.083 158.51 319.926 185.882 319.926ZM185.882 518.422C349.158 518.422 481.924 651.298 481.813 814.242C481.812 841.689 459.58 863.846 432.207 863.846C404.76 863.846 382.603 841.688 382.603 814.242C382.707 705.817 294.45 617.668 185.918 617.557C172.195 617.557 159.766 612.045 150.777 603.056C141.863 594.179 136.277 581.75 136.277 568.026C136.277 540.579 158.51 518.422 185.882 518.422Z" fill="#000813"/>
</g>
<defs>
<clipPath id="clip0_320_106">
<rect width="1000" height="1000" fill="white" transform="translate(0 0.333984)"/>
</clipPath>
</defs>
</svg>
