<svg width="1000" height="1001" viewBox="0 0 1000 1001" fill="none" xmlns="http://www.w3.org/2000/svg">
<g clip-path="url(#clip0_320_426)">
<path d="M1000 240.253C1000 292.954 975.46 339.833 937.182 370.188C975.454 400.567 1000 447.492 1000 500.153C1000 552.854 975.46 599.733 937.182 630.088C975.454 660.467 1000 707.393 1000 760.054C1000 845.218 935.92 915.182 853.33 924.774L849.794 925.185L838.042 925.895H673.583C629.931 971.594 568.382 1000.15 500 1000.15C431.618 1000.15 370.074 971.595 326.423 925.894H165.842C74.2478 925.894 0 851.646 0 760.052C0.000119226 714.695 18.1777 673.649 47.6466 643.739C18.0088 604.078 0.343061 554.948 0.00580136 501.704L0.000966894 500.151L0.00580136 498.598C0.34304 445.357 18.006 396.232 47.6388 356.574C18.6437 327.114 0.576816 286.865 0.0135365 242.396L0 240.252L0.0116027 238.259C1.0025 153.999 64.7253 85.0489 146.67 75.5314L150.206 75.1214L161.958 74.4108H474.931C518.584 28.7122 580.133 0.15625 648.515 0.15625L650.978 0.168823C718.372 0.845415 778.964 29.2605 822.091 74.4117H834.158C925.752 74.4117 1000 148.66 1000 240.253Z" fill="#DFFF03"/>
<path d="M500 648.668C548.702 648.668 590.096 679.937 605.237 723.474L607.065 723.184L611.387 722.923H834.159C854.666 722.923 871.287 739.544 871.287 760.052C871.287 779.08 856.958 794.773 838.48 796.919L834.158 797.18H611.387C609.298 797.18 607.239 797.006 605.237 796.658C590.095 840.168 548.703 871.435 500 871.435C451.297 871.435 409.904 840.166 394.763 796.628L392.935 796.919L388.613 797.18H165.841C145.334 797.18 128.713 780.559 128.713 760.051C128.713 741.022 143.042 725.33 161.52 723.184L165.842 722.923H388.613C390.702 722.923 392.761 723.097 394.763 723.445C409.905 679.935 451.297 648.668 500 648.668ZM500 722.925C479.492 722.925 462.871 739.546 462.871 760.054C462.871 780.561 479.492 797.182 500 797.182C520.508 797.182 537.129 780.561 537.129 760.054C537.129 739.546 520.508 722.925 500 722.925ZM240.1 388.767C288.802 388.767 330.196 420.036 345.337 463.574L347.165 463.284L351.487 463.023H834.159C854.666 463.023 871.287 479.644 871.287 500.152C871.287 519.18 856.958 534.873 838.48 537.019L834.158 537.28H351.486C349.398 537.28 347.338 537.106 345.337 536.758C330.195 580.268 288.803 611.535 240.1 611.535C178.576 611.535 128.714 561.673 128.714 500.149C128.714 438.625 178.576 388.767 240.1 388.767ZM240.1 463.025C219.592 463.025 202.971 479.646 202.971 500.153C202.971 520.661 219.592 537.282 240.1 537.282C260.607 537.282 277.228 520.661 277.228 500.153C277.228 479.646 260.607 463.025 240.1 463.025ZM648.515 128.867C697.217 128.867 738.611 160.136 753.752 203.674L755.579 203.384L759.901 203.123H834.159C854.666 203.123 871.287 219.744 871.287 240.251C871.287 259.28 856.958 274.973 838.48 277.119L834.158 277.38H759.901C757.813 277.38 755.753 277.206 753.752 276.858C738.61 320.368 697.217 351.635 648.514 351.635C599.811 351.635 558.418 320.366 543.277 276.828L541.45 277.118L537.128 277.379H165.841C145.334 277.379 128.713 260.758 128.713 240.25C128.713 221.222 143.042 205.529 161.52 203.383L165.842 203.122H537.128C539.216 203.122 541.276 203.296 543.277 203.644C558.419 160.134 599.811 128.867 648.515 128.867ZM648.515 203.124C628.007 203.124 611.386 219.745 611.386 240.253C611.386 260.761 628.007 277.382 648.515 277.382C669.022 277.382 685.643 260.761 685.643 240.253C685.643 219.745 669.022 203.124 648.515 203.124Z" fill="#000813"/>
</g>
<defs>
<clipPath id="clip0_320_426">
<rect width="1000" height="1000" fill="white" transform="translate(0 0.15625)"/>
</clipPath>
</defs>
</svg>
