<svg width="1000" height="1131" viewBox="0 0 1000 1131" fill="none" xmlns="http://www.w3.org/2000/svg">
<g clip-path="url(#clip0_463_123)">
<path d="M1000 304.005C1000 336.392 985.432 366.878 960.706 387.277L960.707 387.279C960.67 387.309 960.633 387.339 960.596 387.369C960.577 387.384 960.559 387.4 960.541 387.415L960.54 387.414C940.966 403.524 916.654 411.964 892.04 411.964C884.245 411.964 877.244 411.078 871.41 409.956L871.136 409.904L870.864 409.849L784.355 392.546C797.038 425.919 803.999 462.127 803.999 500.001V973.298C803.999 1060.13 733.497 1130.63 646.672 1130.63H353.361C266.533 1130.63 196.033 1060.12 196.033 973.298V500.001C196.033 451.493 207.453 405.719 227.688 365.134C224.473 370.38 221.666 375.96 219.316 381.84L219.312 381.851L219.307 381.862L208.282 409.424L208.253 409.5L208.222 409.574C191.262 451.712 150.78 477.293 108.036 477.293C94.2424 477.293 80.7226 474.64 68.0277 469.588L67.9964 469.575L67.964 469.562C12.4479 447.411 -14.3661 384.488 7.74739 329.202L7.74837 329.201L18.7737 301.639L18.7766 301.63L18.7805 301.621C68.231 178.086 186.465 98.0003 319.554 98.0003H343.869C371.921 40.038 431.321 9.53172e-05 499.956 0C552.533 0 599.689 23.4979 631.488 60.548C643.981 51.2402 658.646 44.5329 674.779 41.3169L870.78 2.11565L870.87 2.098L870.959 2.07938C891.743 -2.02494 913.07 0.0602112 932.379 7.85771L940.447 8.03908L960.545 24.5545C985.327 44.9184 1000 75.4073 1000 107.962V304.005Z" fill="#DFFF03"/>
<path d="M912.651 82.7247C905.137 76.518 895.255 74.0272 885.537 75.9463L689.536 115.146C674.265 118.168 663.28 131.602 663.28 147.16V173.293H597.947C597.947 119.27 553.97 75.293 499.947 75.293C445.924 75.293 401.946 119.27 401.946 173.293H319.545C217.256 173.293 126.691 234.625 88.6717 329.602L77.6465 357.165C70.9499 373.907 79.0757 392.935 95.8583 399.632C99.86 401.224 103.943 402 108.027 402C120.972 402 133.222 394.241 138.366 381.461L149.391 353.899C177.362 283.91 244.206 238.671 319.582 238.671H401.984V293.715C324.85 330.505 271.317 409.026 271.317 500.001V973.298C271.317 1018.54 308.108 1055.33 353.352 1055.33H646.663C691.906 1055.33 728.698 1018.54 728.698 973.298V500.001C728.698 409.025 675.165 330.5 598.031 293.715V238.671H663.364V264.805C663.364 280.403 674.389 293.796 689.62 296.818L885.62 336.018C887.744 336.427 889.908 336.672 892.031 336.672C899.504 336.672 906.854 334.099 912.734 329.24C920.288 323.033 924.698 313.764 924.698 304.004V107.962C924.698 98.162 920.288 88.9338 912.734 82.7266L912.651 82.7247ZM663.286 793.961H336.618V663.294H663.286V793.961ZM646.584 989.962H353.273C344.086 989.962 336.572 982.489 336.572 973.26V859.298H663.24V973.26C663.24 982.448 655.767 989.962 646.538 989.962H646.584ZM663.286 499.96V597.96H336.618V499.96C336.618 409.881 409.873 336.626 499.952 336.626C590.031 336.626 663.286 409.881 663.286 499.96ZM467.285 271.293V173.293C467.285 155.285 481.903 140.626 499.952 140.626C518.001 140.626 532.619 155.285 532.619 173.293V271.293H467.285ZM859.286 264.106L728.619 237.973V173.946L859.286 147.813V264.148V264.106Z" fill="#000813"/>
</g>
<defs>
<clipPath id="clip0_463_123">
<rect width="1000" height="1130.63" fill="white"/>
</clipPath>
</defs>
</svg>
