<svg width="1000" height="1001" viewBox="0 0 1000 1001" fill="none" xmlns="http://www.w3.org/2000/svg">
<g clip-path="url(#clip0_320_122)">
<path d="M1000 500.015C1000 574.604 948.652 637.214 879.382 654.426C880.343 655.428 881.286 656.446 882.212 657.48C939.444 720.126 937.343 816.893 877.286 877.092C877.218 877.161 877.15 877.23 877.081 877.298C815.897 938.334 716.938 939.508 654.42 879.361C637.22 948.648 574.602 1000.01 500 1000.01C425.412 1000.01 362.802 948.668 345.589 879.399C345.547 879.439 345.505 879.48 345.463 879.52C316.095 908.198 276.844 924.3 235.977 924.694L235.978 924.696C235.915 924.697 235.853 924.695 235.791 924.696C235.71 924.697 235.63 924.699 235.55 924.7L235.549 924.697C192.757 925.03 151.873 908.092 121.902 878.12C91.9305 848.148 74.9917 807.263 75.3255 764.472H75.3235C75.3239 764.426 75.3252 764.38 75.3255 764.334C75.3263 764.238 75.3255 764.142 75.3265 764.047H75.3295C75.7238 723.12 91.8714 683.812 120.631 654.429C51.9919 637.38 0.946284 575.757 0.0128235 502.07L0 500.015L0.0128235 497.958C0.946565 424.276 51.9865 362.654 120.62 345.601C119.605 344.544 118.611 343.469 117.638 342.379C60.5724 279.728 62.7244 183.088 122.724 122.945L122.929 122.739C184.11 61.7066 283.06 60.5303 345.579 120.666C362.779 51.3787 425.398 0.0136719 500 0.0136719L502.056 0.0264954C575.74 0.959876 637.362 52.0025 654.413 120.639C655.469 119.626 656.539 118.636 657.624 117.668C719.776 61.04 815.392 62.7023 875.633 121.317L877.076 122.738L877.282 122.944C938.315 184.125 939.491 283.077 879.353 345.595C948.638 362.797 1000 425.415 1000 500.015Z" fill="#DFFF03"/>
<path d="M462.111 159.116C462.111 138.201 479.085 121.227 500.001 121.227C520.916 121.227 537.89 138.201 537.89 159.116V234.859C537.89 255.775 520.916 272.749 500.001 272.749C479.085 272.749 462.111 255.775 462.111 234.859V159.116ZM462.111 765.17C462.111 744.254 479.085 727.28 500.001 727.28C520.916 727.28 537.89 744.254 537.89 765.17V840.913C537.89 861.828 520.916 878.802 500.001 878.802C479.085 878.802 462.111 861.828 462.111 840.913V765.17ZM500.001 689.391C432.354 689.391 369.823 653.312 335.979 594.721C302.137 536.13 302.137 463.898 335.979 405.309C369.82 346.717 432.357 310.64 500.001 310.64C567.644 310.64 630.178 346.718 664.023 405.309C697.864 463.901 697.864 536.132 664.023 594.721C630.181 653.313 567.644 689.391 500.001 689.391ZM500.001 613.648C562.747 613.648 613.633 562.761 613.633 500.015C613.633 437.269 562.747 386.383 500.001 386.383C437.255 386.383 386.368 437.269 386.368 500.015C386.368 562.761 437.255 613.648 500.001 613.648ZM159.103 537.905C138.187 537.905 121.213 520.931 121.213 500.015C121.213 479.1 138.187 462.126 159.103 462.126H234.846C255.761 462.126 272.735 479.1 272.735 500.015C272.735 520.931 255.761 537.905 234.846 537.905H159.103ZM765.156 537.905C744.24 537.905 727.266 520.931 727.266 500.015C727.266 479.1 744.24 462.126 765.156 462.126H840.899C861.815 462.126 878.789 479.1 878.789 500.015C878.789 520.931 861.815 537.905 840.899 537.905H765.156ZM738.381 208.16V208.089C753.224 193.743 776.839 193.956 791.469 208.551C806.064 223.181 806.276 246.795 791.93 261.638L732.025 321.543C717.182 335.889 693.567 335.677 678.938 321.082C664.343 306.451 664.13 282.838 678.476 267.994L738.31 208.125L738.381 208.16ZM261.624 791.951C254.593 799.266 244.899 803.42 234.707 803.491C224.551 803.598 214.786 799.585 207.613 792.411C200.44 785.238 196.427 775.473 196.533 765.317C196.604 755.125 200.759 745.431 208.074 738.4L267.979 678.495C275.01 671.18 284.704 667.025 294.896 666.955C305.052 666.848 314.817 670.861 321.99 678.034C329.163 685.207 333.176 694.973 333.07 705.129C332.999 715.32 328.844 725.014 321.529 732.045L261.695 791.915L261.624 791.951ZM208.075 261.677V261.641C193.729 246.798 193.941 223.183 208.536 208.554C223.167 193.959 246.781 193.746 261.624 208.092L321.529 267.997C335.875 282.841 335.662 306.455 321.067 321.085C306.437 335.68 282.823 335.893 267.98 321.546L208.11 261.712L208.075 261.677ZM791.938 738.398C806.284 753.241 806.071 776.855 791.476 791.485C776.846 806.08 753.232 806.293 738.389 791.947L678.483 732.041C664.137 717.198 664.35 693.583 678.945 678.954C693.576 664.359 717.189 664.146 732.032 678.492L791.902 738.327L791.938 738.398Z" fill="#000813"/>
</g>
<defs>
<clipPath id="clip0_320_122">
<rect width="1000" height="1000" fill="white" transform="translate(0 0.0136719)"/>
</clipPath>
</defs>
</svg>
