<svg width="1000" height="991" viewBox="0 0 1000 991" fill="none" xmlns="http://www.w3.org/2000/svg">
<g clip-path="url(#clip0_334_399)">
<path d="M462.489 0.646484C475.589 0.646491 488.198 2.74762 500 6.62793C511.802 2.74746 524.411 0.646484 537.512 0.646484H837.49C878.997 0.646542 918.995 17.0266 948.626 46.5781L948.628 46.5762C948.7 46.6474 948.77 46.7207 948.841 46.792C948.912 46.8635 948.985 46.9332 949.057 47.0049L949.055 47.0068C978.6 76.6282 994.996 116.629 994.996 158.152L994.961 458.145C994.96 471.238 992.859 483.842 988.981 495.638C992.863 507.442 994.965 520.054 994.965 533.157V830.244C994.988 831.205 995 832.169 995 833.136C995 874.659 978.602 914.659 949.058 944.28L949.061 944.283C948.975 944.37 948.887 944.454 948.801 944.54C948.744 944.597 948.689 944.654 948.632 944.711L948.63 944.709C919.014 974.245 879.018 990.646 837.489 990.646H162.511C120.987 990.646 80.9862 974.249 51.3652 944.704L51.3633 944.706C51.3104 944.653 51.2588 944.6 51.2061 944.547C51.1161 944.457 51.0244 944.369 50.9346 944.278L50.9375 944.275C21.4011 914.659 5.00011 874.664 5 833.136V158.157C5 116.634 21.3967 76.6328 50.9414 47.0117L50.9395 47.0098C51.0072 46.9417 51.0767 46.8746 51.1445 46.8066C51.2194 46.7318 51.2931 46.6557 51.3682 46.5811L51.3701 46.583C80.9862 17.0464 120.982 0.646498 162.511 0.646484H462.489Z" fill="#DFFF03"/>
<path d="M799.979 533.157H874.965V833.136H875C875 843.085 871.063 852.612 863.996 859.643C856.965 866.709 847.438 870.646 837.489 870.646H162.511C152.562 870.646 143.035 866.709 136.004 859.643C128.938 852.611 125 843.085 125 833.136V158.157C125 148.208 128.937 138.681 136.004 131.65C143.035 124.584 152.562 120.646 162.511 120.646H462.489V195.667H200.022V795.624H799.978L799.979 533.157ZM837.49 120.646H537.512V195.667H746.962L473.488 469.141L526.501 522.155L799.976 248.681V458.131H874.961L874.996 158.153C874.996 148.204 871.059 138.677 863.992 131.646C856.961 124.58 847.439 120.646 837.49 120.646Z" fill="#000813"/>
</g>
<defs>
<clipPath id="clip0_334_399">
<rect width="1000" height="990" fill="white" transform="translate(0 0.646484)"/>
</clipPath>
</defs>
</svg>
