<svg width="1000" height="1166" viewBox="0 0 1000 1166" fill="none" xmlns="http://www.w3.org/2000/svg">
<g clip-path="url(#clip0_320_48)">
<path d="M1000.11 846.555C1000.11 936.912 927.579 1014.25 833.103 1014.25L666.155 1014.25C657.784 1097.15 588.521 1165.05 499.995 1165.05C411.47 1165.05 342.205 1097.15 333.833 1014.25L166.898 1014.26C72.4208 1014.26 -0.114258 936.914 -0.114258 846.558V544.989C-0.114258 393.586 120.477 266.22 274.338 264.222L275.204 264.213L277.111 264.201L277.932 264.198L369.973 264.197V167.952C369.973 77.5955 442.507 0.253981 536.984 0.253906H796.078C854.623 0.253906 907.935 30.8947 937.992 79.5352L938.698 80.6875L939.391 81.8408C968.522 130.718 970.927 191.062 945.887 242.083L902.159 331.178C962.36 383.098 1000.11 460.292 1000.11 544.983V846.555Z" fill="#DFFF03"/>
<path d="M352.072 544.889C352.072 503.508 318.676 469.494 278.048 469.494C237.419 469.494 204.024 503.508 204.024 544.889V808.762H352.072V544.889ZM574.11 280.957H699.302L736.312 205.55H574.11V280.957ZM426.095 808.76H499.848C499.935 808.76 500.022 808.757 500.109 808.757C500.196 808.757 500.282 808.759 500.369 808.759L796.204 808.757V544.885C796.204 503.504 762.809 469.49 722.181 469.49L574.11 469.491V582.526C574.11 603.345 557.54 620.223 537.099 620.224C516.658 620.224 500.087 603.346 500.087 582.526V469.491L406.165 469.492C418.831 491.698 426.095 517.461 426.095 544.889V808.76ZM870.229 846.455C870.229 867.275 853.658 884.153 833.217 884.153L537.121 884.155V997.257C537.121 1018.08 520.55 1034.95 500.109 1034.95C479.668 1034.95 463.097 1018.08 463.097 997.257V884.155L167.012 884.156C146.571 884.156 130 867.278 130 846.458V544.889C130 462.517 195.502 395.159 276.14 394.111L278.048 394.099L500.087 394.097V167.852C500.087 147.032 516.658 130.154 537.099 130.154H796.193C809.019 130.154 820.932 136.919 827.676 148.032C834.42 159.145 835.034 173.022 829.299 184.708L755.286 335.51C749.017 348.283 736.2 356.352 722.18 356.352H574.11V394.095L722.18 394.094C803.69 394.094 870.229 461.864 870.229 544.885V846.455Z" fill="#000813"/>
</g>
<defs>
<clipPath id="clip0_320_48">
<rect width="1000" height="1165" fill="white" transform="translate(0 0.154297)"/>
</clipPath>
</defs>
</svg>
