<svg width="1000" height="1070" viewBox="0 0 1000 1070" fill="none" xmlns="http://www.w3.org/2000/svg">
<g clip-path="url(#clip0_463_106)">
<path d="M1000 500.169C1000 566.12 946.511 619.609 880.56 619.609H834.802C819.087 658.655 798.645 690.381 782.295 716.324L782.287 716.337C760.93 750.211 744.857 776.39 734.431 808.721L734.432 808.722C732.63 814.327 730.439 819.725 727.899 824.893C731.56 836.356 733.538 848.57 733.538 861.246C733.538 891.927 721.96 919.91 702.938 941.067C703.174 944.129 703.294 947.223 703.294 950.345C703.294 1016.3 649.805 1069.79 583.854 1069.79H416.151C350.716 1069.79 297.548 1017.13 296.721 951.889L296.711 950.345L296.721 948.802C296.754 946.205 296.87 943.628 297.066 941.073C278.36 920.271 266.851 892.868 266.47 862.789L266.461 861.246L266.47 859.703C266.624 847.613 268.576 835.955 272.069 824.985C269.517 819.808 267.318 814.402 265.508 808.79L265.477 808.699C255.109 776.419 239.041 750.3 217.629 716.336C201.263 690.392 180.816 658.666 165.102 619.612H119.44C54.0047 619.611 0.836304 566.954 0.00976562 501.714L0 500.171L0.00976562 498.628C0.65964 447.331 33.6707 403.813 79.5607 387.555C47.6103 350.146 41.0308 295.247 66.95 250.288L66.9511 250.284C92.9732 205.15 143.914 183.508 192.273 192.5C183.3 144.152 204.942 93.232 250.064 67.2169L250.066 67.2158C295.034 41.2916 349.946 47.8781 387.356 79.8438C403.756 33.4582 448.004 0.214055 499.997 0.213867C551.99 0.213867 596.236 33.459 612.637 79.8449C650.047 47.8759 704.962 41.29 749.929 67.2147C795.055 93.2304 816.696 144.153 807.721 192.501C855.602 183.596 906.014 204.723 932.266 248.95L933.047 250.284L933.048 250.287C958.967 295.245 952.388 350.144 920.439 387.553C966.789 403.974 1000 448.203 1000 500.169Z" fill="#DFFF03"/>
<path d="M211.315 369.666C205.187 369.666 198.97 368.123 193.283 364.816L152.37 341.23C135.089 331.267 129.18 309.18 139.144 291.897C149.107 274.615 171.195 268.707 188.477 278.67L229.39 302.257C246.672 312.22 252.58 334.307 242.617 351.59C235.915 363.184 223.791 369.666 211.315 369.666ZM499.996 202.968C519.923 202.968 536.103 186.788 536.103 166.861V119.643C536.103 99.7161 519.923 83.5361 499.996 83.5361C480.069 83.5361 463.889 99.7161 463.889 119.643V166.861C463.889 186.788 480.069 202.968 499.996 202.968ZM166.7 464.053H119.439C99.512 464.053 83.332 480.233 83.332 500.16C83.332 520.087 99.512 536.267 119.439 536.267H166.7C186.628 536.267 202.808 520.087 202.808 500.16C202.808 480.233 186.628 464.053 166.7 464.053ZM302.046 229.558C308.747 241.152 320.871 247.634 333.347 247.634C339.475 247.634 345.692 246.047 351.379 242.785C368.661 232.821 374.569 210.734 364.605 193.451L341.019 152.626C331.056 135.345 308.969 129.436 291.686 139.4C274.404 149.364 268.496 171.451 278.46 188.733L302.046 229.558ZM847.625 341.23C864.906 331.267 870.815 309.179 860.851 291.897C850.887 274.615 828.8 268.707 811.518 278.67L770.605 302.256C753.323 312.22 747.415 334.307 757.378 351.59C764.08 363.184 776.204 369.666 788.68 369.666C794.808 369.666 801.025 368.123 806.712 364.816L847.625 341.23ZM648.614 242.783C654.301 246.046 660.517 247.633 666.646 247.633C679.123 247.633 691.246 241.152 697.947 229.557L721.533 188.732C731.497 171.451 725.589 149.362 708.307 139.399C691.025 129.435 668.937 135.343 658.973 152.625L635.387 193.45C625.424 210.731 631.331 232.82 648.614 242.783ZM880.558 464.051H833.297C813.37 464.051 797.19 480.231 797.19 500.158C797.19 520.085 813.37 536.265 833.297 536.265H880.558C900.485 536.265 916.665 520.085 916.665 500.158C916.665 480.231 900.485 464.051 880.558 464.051ZM775.984 494.868C775.984 570.037 743.36 621.794 711.793 671.882C690.807 705.168 669.161 739.556 655.098 783.202C650.292 798.148 636.405 808.244 620.709 808.244H379.205C363.511 808.244 349.623 798.104 344.817 783.202C330.797 739.556 309.106 705.168 288.122 671.882C256.555 621.843 223.931 570.086 223.931 494.868C223.931 342.639 347.775 218.794 500.005 218.794C652.234 218.794 775.984 342.639 775.984 494.868ZM703.77 494.868C703.77 382.491 612.377 291.049 499.996 291.049C387.662 291.049 296.177 382.486 296.177 494.868C296.177 549.183 319.587 586.305 349.257 633.351C367.862 662.845 388.495 695.602 404.63 736.03H595.436C611.528 695.603 632.204 662.845 650.765 633.395C680.391 586.354 703.801 549.233 703.801 494.912L703.77 494.868ZM614.097 825.127H385.899C365.972 825.127 349.792 841.307 349.792 861.235C349.792 881.162 365.972 897.342 385.899 897.342H614.097C634.024 897.342 650.204 881.162 650.204 861.235C650.204 841.307 634.024 825.127 614.097 825.127ZM583.853 914.227H416.15C396.223 914.227 380.043 930.407 380.043 950.334C380.043 970.261 396.223 986.441 416.15 986.441H583.853C603.78 986.441 619.96 970.261 619.96 950.334C619.96 930.407 603.78 914.227 583.853 914.227Z" fill="#000813"/>
</g>
<defs>
<clipPath id="clip0_463_106">
<rect width="1000" height="1069.57" fill="white"/>
</clipPath>
</defs>
</svg>
