<svg width="1000" height="1136" viewBox="0 0 1000 1136" fill="none" xmlns="http://www.w3.org/2000/svg">
<g clip-path="url(#clip0_320_14)">
<path d="M702.395 0.489258L704.316 0.495059C867.423 1.53336 999.991 134.732 999.991 298.086L999.983 300.36C999.623 347.993 987.964 392.902 967.707 432.6C988.297 473.022 1000 518.817 1000 567.358C1000 615.994 988.252 661.872 967.586 702.353C988.252 742.833 1000 788.711 1000 837.346C1000 1001.65 866.217 1135.44 701.91 1135.44H298.132C133.829 1135.44 0.0425415 1001.65 0.0425415 837.346L0.0512085 835.069C0.411827 787.28 12.1128 742.2 32.4557 702.352C11.7904 661.872 0.0425415 615.994 0.0425415 567.358L0.0512085 565.085C0.410347 517.412 12.055 472.435 32.3058 432.658C11.7125 392.316 0.000130711 346.588 0 298.086C0 134.1 133.602 0.489258 297.597 0.489258H702.395Z" fill="#DFFF03"/>
<path d="M702.395 129.176C795.297 129.176 871.279 205.153 871.279 298.06C871.279 352.821 844.856 401.631 804.123 432.468C844.875 463.461 871.287 512.437 871.287 567.332C871.287 622.302 844.801 671.339 803.951 702.326C844.8 733.313 871.287 782.35 871.287 837.32C871.287 930.536 795.13 1006.7 701.91 1006.7H298.132C204.916 1006.7 128.755 930.536 128.755 837.32C128.756 782.35 155.241 733.312 196.09 702.326C155.242 671.339 128.755 622.303 128.755 567.332C128.756 512.453 155.153 463.487 195.887 432.492C155.144 401.663 128.713 352.852 128.713 298.06C128.713 205.158 204.69 129.176 297.597 129.176H702.395ZM714.686 736.228C710.467 736.545 706.207 736.709 701.91 736.709H298.132C293.916 736.709 289.735 736.55 285.594 736.244C234.692 742.269 196.271 784.623 196.271 837.369C196.271 894.365 241.134 939.23 298.132 939.23L701.91 939.185C758.907 939.185 803.771 894.321 803.771 837.324C803.771 784.661 765.47 742.356 714.686 736.228ZM297.148 769.845C306.238 769.755 315.014 773.337 321.461 779.83C327.908 786.277 331.445 795.098 331.266 804.232V871.751C331.266 890.377 316.132 905.466 297.506 905.466C278.88 905.466 263.747 890.377 263.747 871.751V804.232C263.568 795.232 267.016 786.546 273.284 780.099C279.551 773.651 288.149 769.934 297.148 769.845ZM566.914 786.771C576.048 786.637 584.824 790.175 591.316 796.577C597.808 803.025 601.39 811.8 601.301 820.934V854.783C601.301 873.454 586.167 888.543 567.541 888.543C548.87 888.543 533.782 873.454 533.782 854.783V820.066C534.021 801.881 548.667 787.124 566.914 786.771ZM701.899 786.771C711.033 786.637 719.853 790.175 726.301 796.577C732.793 803.025 736.375 811.8 736.286 820.934V854.783C736.286 873.454 721.152 888.543 702.526 888.543C683.9 888.543 668.767 873.454 668.767 854.783V820.934C668.588 802.353 683.363 787.129 701.899 786.771ZM714.644 466.235C710.598 466.527 706.513 466.679 702.395 466.679H297.597C293.489 466.679 289.414 466.528 285.378 466.237C234.583 472.357 196.271 514.664 196.271 567.336C196.271 619.987 234.554 662.282 285.321 668.426C289.551 668.107 293.823 667.944 298.132 667.944H701.91C706.218 667.944 710.49 668.107 714.719 668.426C765.487 662.283 803.771 619.988 803.771 567.336C803.771 514.658 765.45 472.345 714.644 466.235ZM293.655 500.081C303.326 498.961 312.997 502.05 320.206 508.632C327.414 515.169 331.444 524.482 331.265 534.198V601.717C331.265 620.344 316.131 635.477 297.505 635.477C278.879 635.477 263.746 620.343 263.746 601.717V534.198C263.433 516.825 276.373 502.051 293.655 500.081ZM566.911 516.778C576.089 516.599 584.91 520.181 591.402 526.629C597.894 533.121 601.431 541.986 601.297 551.12V584.79C601.297 603.416 586.163 618.505 567.537 618.505C548.867 618.504 533.778 603.416 533.778 584.79V551.12C533.599 542.209 537.002 533.524 543.226 527.076C549.449 520.629 557.956 516.912 566.911 516.778ZM701.904 516.778C711.083 516.599 719.903 520.181 726.396 526.629C732.888 533.121 736.47 541.986 736.291 551.12V584.79C736.291 603.416 721.157 618.505 702.531 618.505C683.905 618.504 668.772 603.416 668.772 584.79V551.12C668.593 542.209 671.995 533.524 678.219 527.076C684.443 520.629 692.949 516.912 701.904 516.778ZM297.643 196.695C241.002 196.695 196.274 241.38 196.274 298.064C196.274 350.469 234.468 392.425 285.027 398.46C289.353 398.126 293.723 397.955 298.132 397.955H701.91C706.316 397.955 710.683 398.126 715.007 398.46C765.535 392.423 803.764 350.468 803.764 298.064C803.764 241.424 759.079 196.695 702.395 196.695H297.643ZM297.152 230.055C306.197 229.965 314.972 233.501 321.375 239.949C327.778 246.352 331.36 255.128 331.27 264.172V331.691C331.27 350.317 316.136 365.45 297.51 365.45C278.884 365.45 263.751 350.317 263.751 331.691V264.172C263.661 255.218 267.109 246.621 273.377 240.219C279.646 233.816 288.198 230.144 297.152 230.055ZM563.649 246.976C573.32 245.902 582.991 248.991 590.2 255.528C597.183 261.861 601.183 270.799 601.304 280.226V314.765C601.304 333.391 586.17 348.524 567.544 348.524C548.873 348.524 533.785 333.391 533.785 314.765V281.139C533.472 263.766 546.411 248.991 563.649 246.976ZM698.68 246.976C708.35 245.902 718.022 248.991 725.23 255.528C732.439 262.065 736.469 271.379 736.29 281.139V314.765C736.29 333.391 721.156 348.524 702.53 348.524C683.904 348.524 668.771 333.391 668.771 314.765V281.139C668.458 263.766 681.397 248.991 698.68 246.976Z" fill="#000813"/>
</g>
<defs>
<clipPath id="clip0_320_14">
<rect width="1000" height="1135" fill="white" transform="translate(0 0.462891)"/>
</clipPath>
</defs>
</svg>
