<svg width="1000" height="1143" viewBox="0 0 1000 1143" fill="none" xmlns="http://www.w3.org/2000/svg">
<g clip-path="url(#clip0_320_120)">
<path d="M294.91 18.4997C430.658 -6.12034 569.761 -5.18207 705.089 21.1433L708.285 21.7697L708.505 21.8141C774.936 35.0666 827.923 82.9054 848.865 145.37C924.53 163.87 983.525 228.607 990.531 309.595L990.699 311.665L990.71 311.813C995.741 379.75 998.897 437.875 999.802 483.88C999.81 484.304 999.815 484.729 999.819 485.154C1000.89 553.725 997.178 622.344 988.664 690.42C988.616 690.801 988.566 691.181 988.515 691.561C987.585 700.382 985.96 708.378 984.098 715.362C983.72 716.779 983.315 718.188 982.886 719.59C967.297 772.917 938.492 821.368 901.881 866.728C901.864 866.749 901.847 866.77 901.83 866.791C866.218 910.852 821.226 954.867 769.527 997.987C699.61 1056.8 627.925 1101.44 595.749 1118.33C594.944 1118.78 594.134 1119.22 593.316 1119.65C565.136 1134.5 533.613 1142.45 501.363 1142.49L501.364 1142.49C501.304 1142.49 501.245 1142.49 501.185 1142.49L501.126 1142.49H501.02C470.951 1142.52 441.333 1135.66 414.421 1122.52C413.46 1122.08 412.503 1121.62 411.551 1121.14C382.06 1106.51 305.983 1060.09 232.073 997.801C180.586 954.873 135.792 910.932 100.374 867.105C100.318 867.036 100.262 866.968 100.207 866.899C65.7091 824.019 38.2079 778.597 22.1006 728.734C21.8975 728.105 21.6995 727.475 21.5067 726.843C19.3649 719.822 17.7537 712.794 16.6219 705.85C1.10689 623.591 -0.686459 536.02 0.178173 479.477C0.183711 478.72 0.193963 477.963 0.213684 477.207C1.52838 426.758 5.14028 369.844 10.8858 308.243L77.3336 314.441C77.3339 314.438 77.3343 314.436 77.3346 314.433L10.8878 308.225C18.3492 228.36 76.3759 164.658 150.544 145.635C171.04 80.7659 225.93 31.1037 294.755 18.5283L294.91 18.4997ZM15.6917 699.309C15.7095 699.459 15.7271 699.608 15.745 699.755C15.727 699.606 15.7092 699.457 15.6917 699.309ZM15.4619 697.214C15.5065 697.66 15.5538 698.095 15.601 698.519C15.5529 698.084 15.5055 697.649 15.4619 697.214Z" fill="#DFFF03"/>
<path d="M316.542 137.767C438.402 115.666 563.32 116.684 684.792 140.684C712.622 146.236 733.67 169.076 736.903 197.257V197.292C737.675 204.495 738.624 211.311 739.784 218.269C742.665 233.939 759.25 251.157 775.448 255.023C787.536 257.764 800.046 260.012 813.609 261.875C843.898 266.092 867.581 290.899 869.83 320.766C874.784 387.664 877.771 443.359 878.614 486.262V486.403C879.633 549.551 876.225 612.727 868.389 675.377L868.354 675.412C868.249 676.325 868.073 677.099 868.073 677.661C867.932 679.839 867.541 682.024 866.979 684.132L866.943 684.203C857.245 718.25 837.848 753.072 807.559 790.599C778.223 826.896 739.325 865.338 691.889 904.903C624.636 961.543 556.679 1002.44 536.791 1012.35V1012.42C525.793 1018.22 513.565 1021.28 501.126 1021.28H501.021C488.617 1021.31 476.39 1018.29 465.427 1012.49V1012.56C445.466 1002.66 377.439 961.791 310.185 905.114C262.851 865.692 223.954 827.18 194.649 790.918C166.434 755.847 147.739 723.345 137.444 691.475C136.812 689.402 136.354 687.258 136.073 685.114V685.15C136.038 684.799 135.933 684.377 135.827 683.885C122.404 613.047 120.542 534.337 121.385 480.717V480.364C122.615 433.175 126.023 379.025 131.575 319.501C134.316 290.161 157.894 265.88 187.621 261.663C200.727 259.836 212.85 257.623 224.692 254.953C240.89 251.052 257.475 233.975 260.356 218.163C261.691 210.574 262.676 202.984 263.449 195.043C266.47 166.265 288.08 142.968 316.542 137.767ZM670.428 206.045C557.95 183.978 442.378 183.1 329.586 203.374L329.621 203.41C328.708 212.369 327.548 220.908 326.107 229.552V229.868C318.588 272.102 282.326 310.086 239.879 320.1H239.598C226.14 323.122 212.471 325.652 197.819 327.69C192.548 384.864 189.315 436.728 188.191 481.915C187.418 532.442 189.175 606.231 201.473 671.447L201.825 673.414C209.767 696.605 224.454 721.413 246.662 748.961C273.227 781.817 309.067 817.096 353.13 853.991C419.716 910.106 484.019 947.282 494.42 952.553C495.087 952.834 495.72 953.15 496.352 953.466C497.793 954.274 499.41 954.696 501.061 954.731C502.713 954.731 504.329 954.274 505.77 953.466H505.734C506.402 953.15 507.034 952.834 507.667 952.553C518.065 947.282 582.37 909.999 648.921 853.919C693.156 817.019 728.997 781.67 755.596 748.781C779.314 719.406 794.529 693.158 801.978 668.561C802.048 667.929 802.189 667.366 802.189 666.804L802.196 666.809C809.645 607.35 812.879 547.443 811.825 487.532C810.981 446.279 808.135 392.589 803.321 327.865C788.141 325.756 774.086 323.191 760.277 319.994H760.03C717.653 309.948 681.391 272.069 673.661 229.833V229.518C672.396 221.717 671.307 214.021 670.428 206.045ZM491.854 255.202C532.542 255.237 573.197 257.732 613.57 262.652C623.76 288.163 638.905 311.424 658.125 331.031C681.738 355.206 710.868 373.336 742.984 383.878C745.408 423.937 746.877 458.579 747.474 487.392C748.458 546.635 745.471 605.915 738.513 664.771L738.479 664.736C732.962 679.564 722.209 696.922 706.397 716.459C682.647 745.696 649.125 778.269 606.819 812.881L606.574 813.091C573.126 840.498 537.883 865.623 501.058 888.322C464.302 865.692 429.058 840.604 395.642 813.266L395.395 813.055C353.058 778.477 319.607 745.869 295.854 716.635C280.709 697.906 270.167 681.18 264.474 666.668C255.69 617.158 251.439 551.766 252.458 481.49C253.231 451.554 254.847 418.875 257.307 383.738C289.353 373.231 318.341 355.135 341.883 331.03C361.596 310.931 377.057 287.002 387.247 260.754C421.016 257.17 454.925 255.343 488.868 255.238V255.202H491.854ZM533.412 785.605C543.321 778.226 553.652 770.179 564.194 761.5L564.404 761.325L564.579 761.184C602.53 730.192 633.663 700.185 654.605 674.394C661.737 665.962 667.993 656.825 673.369 647.127C679.131 594.486 681.589 541.504 680.746 488.516H680.781C680.394 471.018 679.691 451.025 678.637 428.782C653.373 415.324 630.359 398.071 610.4 377.621C594.939 361.809 581.445 344.24 570.201 325.23H570.167C557.939 324.211 545.711 323.438 533.412 322.876V785.605ZM466.621 322.344C454.64 322.66 442.621 323.187 430.605 323.995C404.636 368.344 366.828 404.606 321.464 428.746H321.429C320.445 447.72 319.671 465.817 319.25 482.858C318.406 544.881 321.815 602.752 328.948 647.131C334.325 656.864 340.649 666.07 347.852 674.609L347.818 674.573C368.76 700.365 399.823 730.337 437.701 761.329L438.192 761.751C447.926 769.762 457.449 777.212 466.62 784.099L466.621 322.344ZM868.073 672.777C868.142 673.96 868.143 675.178 868.075 676.396H868.143C868.213 675.202 868.178 673.972 868.073 672.777ZM150.514 653.591C145.244 657.106 141.097 662.095 138.638 667.928C141.132 662.13 145.244 657.14 150.514 653.591ZM859.429 652.679C860.261 653.577 861.053 654.53 861.786 655.529C861.066 654.533 860.292 653.572 859.464 652.679V652.643L859.429 652.679Z" fill="#000813"/>
</g>
<defs>
<clipPath id="clip0_320_120">
<rect width="1000" height="1141.8" fill="white" transform="translate(0 0.693359)"/>
</clipPath>
</defs>
</svg>
