<svg width="1000" height="993" viewBox="0 0 1000 993" fill="none" xmlns="http://www.w3.org/2000/svg">
<g clip-path="url(#clip0_320_52)">
<path d="M176.195 864.614C176.237 864.651 176.266 864.676 176.276 864.685C176.27 864.68 176.256 864.667 176.228 864.642C176.219 864.635 176.208 864.625 176.195 864.614ZM996.296 496.048C996.296 538.428 990.825 580.307 980.306 620.707C951.103 708.431 928.73 753.645 872.651 823.557C861.861 835.813 850.426 847.575 838.369 858.779L838.368 858.778C798.363 896.233 752.964 926.384 704.054 948.493L698.504 955.876L696.77 951.715C635.281 978.322 568.469 992.344 500 992.344C431.49 992.344 364.642 978.298 303.123 951.654L301.418 955.741L295.96 948.486C246.79 926.256 201.163 895.904 160.994 858.178C60.8985 764.85 3.70508 633.068 3.70508 496.048L3.71576 492.842C5.25044 251.145 180.157 50.0686 410.148 7.89355C450.467 2.17185 473.349 0.621163 514.512 -0.0351562C781.617 7.66095 996.296 227.104 996.296 496.048Z" fill="#DFFF03"/>
<path d="M500 142.189C695.237 142.189 854.049 301.001 854.049 496.238C854.049 594.081 813.055 688.309 741.538 754.767C675.972 816.34 590.169 850.287 500 850.287C409.829 850.287 323.998 816.311 258.373 754.679C186.978 688.307 145.951 594.081 145.951 496.238C145.951 301.001 304.763 142.189 500 142.189ZM587.838 833.627C587.045 833.833 586.251 834.039 585.457 834.239C586.251 834.039 587.045 833.833 587.838 833.627ZM622.31 822.715C622.139 822.779 621.966 822.842 621.794 822.906C622.6 822.605 623.406 822.303 624.21 821.996L622.31 822.715ZM652.154 809.882C650.956 810.465 649.755 811.041 648.551 811.61C649.755 811.041 650.956 810.465 652.154 809.882ZM344.169 808.048C344.37 808.149 344.572 808.249 344.774 808.349C343.966 807.946 343.159 807.54 342.354 807.13L344.169 808.048ZM661.846 804.969C661.067 805.38 660.287 805.788 659.505 806.192C660.287 805.788 661.067 805.38 661.846 804.969ZM669.095 801.04C668.649 801.289 668.202 801.537 667.754 801.784C668.202 801.537 668.649 801.289 669.095 801.04ZM328.791 799.834C329.456 800.211 330.121 800.586 330.788 800.958C330.121 800.586 329.456 800.211 328.791 799.834ZM675.463 797.403H675.464H675.463ZM320.185 794.791C320.67 795.085 321.155 795.378 321.641 795.669C321.155 795.378 320.67 795.085 320.185 794.791ZM492.407 794.92C494.377 794.97 496.35 795.002 498.326 795.013C496.35 795.002 494.377 794.97 492.407 794.92ZM483.642 794.569C486.12 794.705 488.603 794.809 491.09 794.883C488.603 794.809 486.12 794.705 483.642 794.569ZM480.663 794.391C481.572 794.45 482.481 794.505 483.391 794.555C482.481 794.505 481.572 794.45 480.663 794.391ZM475.718 794.028C477.163 794.146 478.61 794.254 480.06 794.351C478.61 794.254 477.163 794.146 475.718 794.028ZM469.099 793.413C470.033 793.51 470.968 793.604 471.904 793.693C470.968 793.604 470.033 793.51 469.099 793.413ZM462.547 792.656C463.479 792.774 464.411 792.889 465.344 792.998C464.411 792.889 463.479 792.774 462.547 792.656ZM689.344 788.827C687.727 789.879 686.101 790.917 684.468 791.942C686.101 790.917 687.727 789.879 689.344 788.827ZM454.171 791.473C455.183 791.631 456.196 791.783 457.211 791.931C456.196 791.783 455.183 791.631 454.171 791.473ZM446.311 790.139C447.217 790.305 448.123 790.467 449.031 790.625C448.123 790.467 447.217 790.305 446.311 790.139ZM441.283 789.17C442.298 789.374 443.314 789.574 444.332 789.768C443.314 789.574 442.298 789.374 441.283 789.17ZM500 576.405C410.843 576.405 334.659 636.419 312.737 721.272C365.271 765.275 430.964 789.547 500 789.547C568.998 789.547 634.752 765.245 687.262 721.272C665.344 636.421 589.156 576.405 500 576.405ZM307.191 786.525C308.212 787.207 309.237 787.882 310.265 788.553C309.237 787.882 308.212 787.207 307.191 786.525ZM704.503 778.376C702.89 779.552 701.268 780.714 699.637 781.861C701.268 780.714 702.89 779.552 704.503 778.376ZM713.785 771.364C712.101 772.681 710.405 773.982 708.699 775.266C710.405 773.982 712.101 772.681 713.785 771.364ZM283.277 769.028C284.052 769.647 284.828 770.264 285.608 770.876C284.828 770.264 284.052 769.647 283.277 769.028ZM716.772 769.003C716.375 769.32 715.978 769.636 715.581 769.952C715.978 769.636 716.375 769.32 716.772 769.003ZM723.907 763.143C722.661 764.194 721.409 765.235 720.151 766.267C720.878 765.671 721.604 765.072 722.327 764.469C722.855 764.029 723.382 763.586 723.908 763.143H723.907ZM269.76 757.659C269.909 757.791 270.06 757.922 270.21 758.054C269.543 757.466 268.877 756.876 268.214 756.282L269.76 757.659ZM744.325 744.547H744.326H744.325ZM250.838 739.71C252.224 741.123 253.624 742.523 255.036 743.913C253.624 742.523 252.224 741.123 250.838 739.71ZM756.333 732.177C755.751 732.808 755.165 733.437 754.578 734.064C755.165 733.437 755.751 732.808 756.333 732.177ZM318.095 732.618C317.245 731.959 316.398 731.295 315.555 730.627C316.398 731.295 317.245 731.959 318.095 732.618ZM762.785 724.991C762.356 725.482 761.926 725.972 761.494 726.461C762.42 725.413 763.339 724.36 764.25 723.302L762.785 724.991ZM235.769 723.321C236.64 724.332 237.517 725.337 238.4 726.338C237.517 725.337 236.64 724.332 235.769 723.321ZM691.465 715.847C691.768 716.926 692.066 718.008 692.351 719.095C692.066 718.008 691.768 716.926 691.465 715.847ZM774.177 711.232H774.178H774.177ZM220.946 704.866C221.574 705.706 222.206 706.543 222.843 707.378C222.206 706.543 221.574 705.706 220.946 704.866ZM784.821 696.937C783.966 698.15 783.102 699.357 782.231 700.559L783.532 698.753C783.964 698.149 784.393 697.543 784.821 696.937ZM206.95 684.718C207.451 685.496 207.955 686.273 208.462 687.047C207.955 686.273 207.451 685.496 206.95 684.718ZM266.336 681.588L267.322 682.821C266.723 682.076 266.128 681.328 265.537 680.577C265.803 680.915 266.069 681.252 266.336 681.588ZM261.619 675.496C262.795 677.055 263.987 678.603 265.194 680.14C263.987 678.603 262.795 677.055 261.619 675.496ZM801.596 670.735H801.597H801.596ZM497.787 202.905C337.04 204.08 206.657 335.187 206.657 496.206C206.657 559.948 227.949 621.636 265.758 671.897C291.04 611.279 338.305 563.253 397.407 537.271C365.42 508.897 345.138 467.575 345.138 421.511C345.138 336.107 414.595 266.65 499.999 266.65C585.402 266.65 654.861 336.105 654.861 421.511C654.861 467.575 634.58 508.924 602.592 537.275C661.69 563.275 708.956 611.274 734.21 671.891C772.044 621.575 793.31 559.917 793.31 496.238C793.31 334.492 661.746 202.928 500 202.928H497.812L497.787 202.905ZM252.576 662.839C253.705 664.508 254.849 666.167 256.012 667.813C254.849 666.167 253.705 664.508 252.576 662.839ZM725.166 664.917C725.464 665.561 725.76 666.207 726.054 666.855C725.76 666.207 725.464 665.561 725.166 664.917ZM250.605 659.888C250.073 659.081 249.544 658.271 249.02 657.459C249.544 658.271 250.073 659.081 250.605 659.888ZM189.128 653.618C189.718 654.781 190.313 655.941 190.915 657.098C190.313 655.941 189.718 654.781 189.128 653.618ZM815.95 643.183L815.951 643.182L815.95 643.183ZM819.595 635.089C819.3 635.767 819.003 636.445 818.704 637.121C819.303 635.768 819.893 634.412 820.475 633.051L819.595 635.089ZM705.782 630.526C706.36 631.386 706.934 632.249 707.502 633.116C706.934 632.249 706.36 631.386 705.782 630.526ZM367.164 621.58V621.581V621.58ZM223.21 607.921C223.945 609.722 224.697 611.515 225.467 613.301C224.697 611.515 223.945 609.722 223.21 607.921ZM382.998 608.788V608.789V608.788ZM216.697 590.418C217.652 593.251 218.649 596.068 219.687 598.87C218.649 596.068 217.652 593.251 216.697 590.418ZM670.463 588.823H670.464H670.463ZM162.376 582.622C162.707 583.91 163.046 585.197 163.392 586.481C163.046 585.197 162.707 583.91 162.376 582.622ZM427.811 584.363V584.364V584.363ZM655.974 576.148C656.806 576.821 657.633 577.499 658.456 578.182C657.633 577.499 656.806 576.821 655.974 576.148ZM211.264 572.437C211.775 574.345 212.305 576.247 212.854 578.143C212.305 576.247 211.775 574.345 211.264 572.437ZM350.346 571.195V571.197V571.195ZM515.057 571.493C516.923 571.631 518.782 571.797 520.634 571.987C518.782 571.797 516.923 571.631 515.057 571.493ZM507.279 571.065C508.438 571.107 509.594 571.157 510.749 571.218C509.594 571.157 508.438 571.107 507.279 571.065ZM502.173 570.945C503.402 570.958 504.628 570.984 505.851 571.019C504.628 570.984 503.402 570.958 502.173 570.945ZM209.281 564.625C209.387 565.065 209.494 565.506 209.601 565.946C209.494 565.506 209.387 565.065 209.281 564.625ZM635.185 561.067H635.186H635.185ZM208.257 560.196C208.321 560.486 208.388 560.776 208.453 561.067C208.388 560.776 208.321 560.486 208.257 560.196ZM842.891 558.693H842.892H842.891ZM628.367 556.799C629.286 557.353 630.201 557.914 631.112 558.48C630.201 557.914 629.286 557.353 628.367 556.799ZM207.245 555.479C207.32 555.842 207.396 556.204 207.472 556.567C207.396 556.204 207.32 555.842 207.245 555.479ZM618.578 551.196V551.195V551.196ZM205.763 547.768C205.832 548.155 205.903 548.542 205.973 548.929C205.903 548.542 205.832 548.155 205.763 547.768ZM602.649 543.289C603.634 543.734 604.615 544.185 605.593 544.643C604.615 544.185 603.634 543.734 602.649 543.289ZM205.256 544.852C204.919 542.846 204.602 540.835 204.306 538.82C204.602 540.835 204.919 542.846 205.256 544.852ZM397.35 543.286C395.873 543.953 394.403 544.634 392.942 545.329C394.403 544.634 395.873 543.953 397.35 543.286ZM407.813 538.848C406.805 539.248 405.8 539.655 404.799 540.068C405.8 539.655 406.805 539.248 407.813 538.848ZM595.378 536.263C594.326 537.139 593.262 538.001 592.186 538.848C593.262 538.001 594.326 537.139 595.378 536.263ZM203.847 535.573C203.7 534.488 203.559 533.402 203.424 532.315C203.559 533.402 203.7 534.488 203.847 535.573ZM403.045 534.932C403.283 535.135 403.524 535.335 403.763 535.538C403.524 535.335 403.283 535.135 403.045 534.932ZM596.24 535.538C596.478 535.336 596.717 535.137 596.955 534.934C596.717 535.137 596.478 535.336 596.24 535.538ZM597.728 534.264C597.988 534.038 598.25 533.814 598.508 533.586C598.25 533.814 597.988 534.038 597.728 534.264ZM401.494 533.584C401.753 533.812 402.014 534.037 402.275 534.263C402.014 534.037 401.753 533.812 401.494 533.584ZM599.254 532.922C599.514 532.69 599.775 532.46 600.033 532.227C599.775 532.46 599.514 532.69 599.254 532.922ZM600.688 531.628C600.987 531.355 601.286 531.083 601.582 530.808C601.286 531.083 600.987 531.355 600.688 531.628ZM602.084 530.336C602.408 530.032 602.733 529.728 603.055 529.421C602.733 529.728 602.408 530.032 602.084 530.336ZM396.95 529.419C397.125 529.586 397.302 529.752 397.478 529.918C397.302 529.752 397.125 529.586 396.95 529.419ZM603.895 528.61C604.098 528.413 604.302 528.217 604.504 528.019C604.302 528.217 604.098 528.413 603.895 528.61ZM395.497 528.014C395.698 528.211 395.901 528.405 396.103 528.601C395.901 528.405 395.698 528.211 395.497 528.014ZM605.211 527.318C605.479 527.052 605.749 526.787 606.015 526.519C605.749 526.787 605.479 527.052 605.211 527.318ZM202.285 521.528C202.419 523.081 202.567 524.632 202.727 526.18C202.567 524.632 202.419 523.081 202.285 521.528ZM394.032 526.557C394.219 526.746 394.408 526.931 394.596 527.118C394.408 526.931 394.219 526.746 394.032 526.557ZM606.611 525.912C606.893 525.625 607.174 525.338 607.453 525.049C607.174 525.338 606.893 525.625 606.611 525.912ZM392.594 525.088C392.795 525.297 392.999 525.503 393.202 525.71C392.999 525.503 392.795 525.297 392.594 525.088ZM607.975 524.503C608.272 524.192 608.569 523.881 608.864 523.568C608.569 523.881 608.272 524.192 607.975 524.503ZM391.142 523.562C391.375 523.811 391.61 524.057 391.845 524.304C391.61 524.057 391.375 523.811 391.142 523.562ZM609.465 522.92C609.728 522.637 609.992 522.354 610.253 522.068C609.992 522.354 609.728 522.637 609.465 522.92ZM389.792 522.108C390.006 522.341 390.221 522.573 390.436 522.805C390.221 522.573 390.006 522.341 389.792 522.108ZM610.889 521.367C611.15 521.078 611.412 520.788 611.672 520.497C611.412 520.788 611.15 521.078 610.889 521.367ZM501.546 521.123C501.032 521.131 500.516 521.137 500 521.137C500.516 521.137 501.032 521.131 501.546 521.123ZM496.901 521.086C497.504 521.105 498.109 521.12 498.714 521.128C498.109 521.12 497.504 521.105 496.901 521.086ZM388.4 520.565C388.56 520.745 388.722 520.924 388.884 521.104C388.722 520.924 388.56 520.745 388.4 520.565ZM491.493 520.774C492.282 520.841 493.073 520.9 493.866 520.949C493.073 520.9 492.282 520.841 491.493 520.774ZM202.137 519.768C201.804 515.65 201.558 511.519 201.4 507.377C201.558 511.519 201.804 515.65 202.137 519.768ZM488.675 520.497C489.485 520.589 490.298 520.671 491.114 520.743C490.298 520.671 489.485 520.589 488.675 520.497ZM612.212 519.88C612.468 519.589 612.725 519.299 612.979 519.006C612.725 519.299 612.468 519.589 612.212 519.88ZM387.031 519.005C387.239 519.246 387.449 519.485 387.659 519.724C387.449 519.485 387.239 519.246 387.031 519.005ZM480.397 519.199C481.077 519.335 481.758 519.465 482.442 519.587C481.758 519.465 481.077 519.335 480.397 519.199ZM477.828 518.649C478.562 518.816 479.298 518.977 480.037 519.128C479.298 518.977 478.562 518.816 477.828 518.649ZM385.667 517.407C385.9 517.684 386.135 517.959 386.369 518.233C386.135 517.959 385.9 517.684 385.667 517.407ZM613.802 518.044C613.963 517.855 614.124 517.667 614.284 517.477C614.124 517.667 613.963 517.855 613.802 518.044ZM384.362 515.836C384.6 516.127 384.842 516.417 385.083 516.706C384.842 516.417 384.6 516.127 384.362 515.836ZM614.973 516.653C615.194 516.386 615.416 516.119 615.636 515.851C615.416 516.119 615.194 516.386 614.973 516.653ZM500 327.421C448.09 327.421 405.877 369.633 405.877 421.543C405.877 473.453 448.09 515.666 500 515.666C551.91 515.666 594.123 473.453 594.123 421.543C594.123 369.633 551.91 327.421 500 327.421ZM383.076 514.243C383.291 514.514 383.509 514.782 383.726 515.051C383.509 514.782 383.291 514.514 383.076 514.243ZM616.285 515.051C616.5 514.785 616.715 514.519 616.928 514.252C616.715 514.52 616.5 514.785 616.285 515.051ZM381.781 512.594C382.018 512.9 382.257 513.204 382.496 513.508C382.257 513.204 382.018 512.9 381.781 512.594ZM617.536 513.48C617.754 513.203 617.972 512.926 618.188 512.647C617.972 512.926 617.754 513.203 617.536 513.48ZM618.822 511.822C619.032 511.547 619.241 511.271 619.45 510.994C619.241 511.271 619.032 511.547 618.822 511.822ZM380.59 511.035C380.774 511.279 380.961 511.522 381.146 511.765C380.961 511.522 380.774 511.279 380.59 511.035ZM620.101 510.121C620.271 509.891 620.442 509.662 620.611 509.431C620.442 509.662 620.271 509.891 620.101 510.121ZM379.398 509.43C379.531 509.611 379.664 509.791 379.798 509.971C379.664 509.791 379.531 509.611 379.398 509.43ZM378.139 507.686C378.311 507.927 378.484 508.168 378.658 508.408C378.484 508.168 378.311 507.927 378.139 507.686ZM621.461 508.258C621.598 508.068 621.735 507.877 621.871 507.686C621.735 507.877 621.598 508.068 621.461 508.258ZM622.466 506.838C622.672 506.545 622.877 506.252 623.081 505.957C622.877 506.252 622.672 506.545 622.466 506.838ZM376.986 506.042C377.139 506.263 377.293 506.482 377.447 506.702C377.293 506.482 377.139 506.263 376.986 506.042ZM623.594 505.207C623.801 504.902 624.009 504.596 624.215 504.29C624.009 504.596 623.801 504.902 623.594 505.207ZM375.795 504.291C375.958 504.533 376.121 504.775 376.285 505.016C376.121 504.775 375.958 504.533 375.795 504.291ZM201.203 499.402C201.222 501.139 201.258 502.873 201.308 504.606C201.258 502.869 201.222 501.131 201.203 499.39V499.402ZM374.642 502.545C374.835 502.841 375.029 503.136 375.223 503.431C375.029 503.136 374.835 502.841 374.642 502.545ZM624.786 503.431C624.978 503.14 625.17 502.849 625.36 502.557C625.17 502.849 624.978 503.14 624.786 503.431ZM625.925 501.678C626.092 501.418 626.258 501.158 626.423 500.897C626.258 501.158 626.092 501.418 625.925 501.678ZM373.574 500.881C373.731 501.128 373.888 501.374 374.046 501.621C373.888 501.374 373.731 501.128 373.574 500.881ZM627.066 499.867C627.219 499.621 627.373 499.375 627.525 499.128C627.373 499.375 627.219 499.621 627.066 499.867ZM372.521 499.188C372.646 499.392 372.772 499.595 372.898 499.799C372.772 499.595 372.646 499.392 372.521 499.188ZM628.108 498.163C628.272 497.891 628.436 497.619 628.598 497.346C628.436 497.619 628.272 497.891 628.108 498.163ZM371.442 497.401C371.567 497.611 371.692 497.821 371.818 498.03C371.692 497.821 371.567 497.611 371.442 497.401ZM629.158 496.396C629.333 496.096 629.507 495.795 629.68 495.493C629.507 495.795 629.333 496.096 629.158 496.396ZM370.345 495.527C370.487 495.772 370.629 496.017 370.772 496.262C370.629 496.017 370.487 495.772 370.345 495.527ZM201.338 486.588H201.339H201.338ZM630.136 494.692C630.322 494.364 630.508 494.035 630.691 493.706C630.508 494.035 630.322 494.364 630.136 494.692ZM369.307 493.691C369.486 494.013 369.667 494.334 369.848 494.655C369.667 494.334 369.486 494.013 369.307 493.691ZM368.323 491.892C368.482 492.189 368.643 492.484 368.804 492.779C368.643 492.484 368.482 492.189 368.323 491.892ZM631.202 492.779C631.361 492.489 631.518 492.199 631.675 491.907C631.518 492.199 631.361 492.489 631.202 492.779ZM632.143 491.03C632.317 490.702 632.49 490.373 632.661 490.044C632.49 490.373 632.317 490.702 632.143 491.03ZM367.353 490.061C367.516 490.374 367.681 490.687 367.846 490.999C367.681 490.687 367.516 490.374 367.353 490.061ZM633.099 489.196C633.268 488.866 633.436 488.535 633.603 488.203C633.436 488.535 633.268 488.866 633.099 489.196ZM366.418 488.235C366.572 488.541 366.727 488.847 366.883 489.152C366.727 488.847 366.572 488.541 366.418 488.235ZM634.07 487.267C634.231 486.941 634.391 486.614 634.55 486.287C634.391 486.614 634.231 486.941 634.07 487.267ZM365.452 486.279C365.61 486.605 365.77 486.93 365.93 487.255C365.77 486.93 365.61 486.605 365.452 486.279ZM634.929 485.498C635.101 485.137 635.271 484.776 635.441 484.414C635.271 484.776 635.101 485.137 634.929 485.498ZM364.585 484.459C364.741 484.793 364.898 485.127 365.057 485.46C364.898 485.127 364.741 484.793 364.585 484.459ZM635.849 483.535C636.004 483.198 636.157 482.86 636.31 482.522C636.157 482.86 636.004 483.198 635.849 483.535ZM363.734 482.61C363.865 482.899 363.996 483.189 364.128 483.477C363.996 483.189 363.865 482.899 363.734 482.61ZM201.678 478.947H201.679H201.678ZM636.66 481.739C636.826 481.366 636.989 480.992 637.152 480.617C636.989 480.992 636.826 481.366 636.66 481.739ZM362.862 480.642C363.005 480.97 363.149 481.299 363.294 481.627C363.149 481.299 363.005 480.97 362.862 480.642ZM637.495 479.822C637.673 479.405 637.849 478.987 638.023 478.569C637.849 478.987 637.673 479.405 637.495 479.822ZM362.033 478.696C362.187 479.065 362.343 479.434 362.5 479.802C362.343 479.434 362.187 479.065 362.033 478.696ZM638.296 477.909C638.454 477.525 638.608 477.141 638.763 476.755C638.608 477.141 638.454 477.525 638.296 477.909ZM361.266 476.821C361.401 477.157 361.536 477.492 361.673 477.827C361.536 477.492 361.401 477.157 361.266 476.821ZM639.129 475.836C639.261 475.501 639.391 475.164 639.521 474.827C639.391 475.164 639.261 475.501 639.129 475.836ZM360.551 475.009C360.651 475.269 360.753 475.528 360.854 475.787C360.753 475.528 360.651 475.269 360.551 475.009ZM202.209 471.357C202.104 472.617 202.009 473.88 201.92 475.145L202.059 473.249C202.107 472.618 202.157 471.987 202.209 471.357ZM639.842 473.984C639.976 473.631 640.108 473.277 640.239 472.922C640.108 473.277 639.976 473.631 639.842 473.984ZM359.733 472.84C359.862 473.188 359.99 473.537 360.121 473.884C359.99 473.537 359.862 473.188 359.733 472.84ZM640.59 471.961C640.704 471.645 640.816 471.328 640.928 471.012C640.816 471.328 640.704 471.645 640.59 471.961ZM359.037 470.907C359.156 471.245 359.275 471.583 359.397 471.92C359.275 471.583 359.156 471.245 359.037 470.907ZM358.348 468.911C358.469 469.271 358.591 469.63 358.715 469.989C358.591 469.63 358.469 469.271 358.348 468.911ZM641.287 469.989C641.407 469.642 641.523 469.294 641.641 468.946C641.523 469.294 641.407 469.642 641.287 469.989ZM641.938 468.059C642.07 467.658 642.201 467.255 642.33 466.852C642.201 467.255 642.07 467.658 641.938 468.059ZM357.719 467C357.833 467.353 357.946 467.706 358.062 468.058C357.946 467.706 357.833 467.353 357.719 467ZM642.584 466.049C642.711 465.646 642.836 465.241 642.959 464.836C642.836 465.241 642.711 465.646 642.584 466.049ZM357.13 465.127C357.213 465.398 357.296 465.668 357.38 465.938C357.296 465.668 357.213 465.398 357.13 465.127ZM643.184 464.098C643.321 463.64 643.455 463.18 643.587 462.72C643.455 463.18 643.321 463.64 643.184 464.098ZM356.513 463.062C356.598 463.353 356.682 463.645 356.768 463.936C356.682 463.645 356.598 463.353 356.513 463.062ZM643.788 462.018C643.906 461.601 644.022 461.183 644.137 460.764C644.022 461.183 643.906 461.601 643.788 462.018ZM355.948 461.068C356.026 461.353 356.103 461.638 356.184 461.923C356.103 461.638 356.026 461.353 355.948 461.068ZM644.355 459.961C644.462 459.56 644.566 459.158 644.67 458.756C644.566 459.158 644.462 459.56 644.355 459.961ZM355.375 458.929C355.455 459.238 355.534 459.546 355.616 459.854C355.534 459.546 355.455 459.238 355.375 458.929ZM644.875 457.958C644.989 457.508 645.099 457.058 645.208 456.606C645.099 457.058 644.989 457.508 644.875 457.958ZM354.859 456.887C354.938 457.211 355.017 457.535 355.098 457.858C355.017 457.535 354.938 457.211 354.859 456.887ZM645.379 455.903C645.492 455.428 645.601 454.951 645.71 454.474C645.601 454.951 645.492 455.428 645.379 455.903ZM354.356 454.765C354.436 455.115 354.515 455.464 354.598 455.812C354.515 455.464 354.436 455.115 354.356 454.765ZM645.87 453.763C645.955 453.381 646.036 452.998 646.118 452.615C646.036 452.998 645.955 453.381 645.87 453.763ZM353.888 452.647C353.967 453.014 354.044 453.38 354.125 453.745C354.044 453.38 353.967 453.014 353.888 452.647ZM204.355 452.616L204.356 452.615L204.355 452.616ZM646.312 451.703C646.389 451.334 646.461 450.964 646.535 450.594C646.461 450.964 646.389 451.334 646.312 451.703ZM353.467 450.606C353.535 450.945 353.601 451.285 353.67 451.623C353.601 451.285 353.535 450.945 353.467 450.606ZM353.045 448.398C353.117 448.789 353.187 449.181 353.262 449.571C353.187 449.181 353.117 448.789 353.045 448.398ZM646.749 449.505C646.817 449.148 646.881 448.791 646.947 448.433C646.881 448.791 646.817 449.148 646.749 449.505ZM206.897 437.885C206.535 439.711 206.19 441.543 205.861 443.381C206.19 441.543 206.535 439.711 206.897 437.885ZM647.114 447.517C647.19 447.086 647.263 446.654 647.336 446.222C647.263 446.654 647.19 447.086 647.114 447.517ZM352.665 446.232C352.731 446.626 352.797 447.02 352.866 447.413C352.797 447.02 352.731 446.626 352.665 446.232ZM647.474 445.402C647.549 444.939 647.619 444.476 647.69 444.012C647.619 444.476 647.549 444.939 647.474 445.402ZM352.283 443.842C352.361 444.358 352.44 444.872 352.523 445.385C352.44 444.872 352.361 444.358 352.283 443.842ZM352.037 442.14C352.09 442.521 352.141 442.901 352.197 443.28C352.141 442.901 352.09 442.521 352.037 442.14ZM647.81 443.222C647.882 442.735 647.948 442.246 648.015 441.758C647.948 442.246 647.882 442.735 647.81 443.222ZM648.095 441.178C648.159 440.69 648.22 440.202 648.28 439.714C648.22 440.202 648.159 440.69 648.095 441.178ZM351.719 439.714C351.774 440.164 351.829 440.614 351.888 441.063C351.829 440.614 351.774 440.164 351.719 439.714ZM598.042 439.114C597.932 439.73 597.815 440.343 597.694 440.954C597.815 440.343 597.932 439.73 598.042 439.114ZM648.37 438.973C648.42 438.551 648.465 438.129 648.511 437.706C648.465 438.129 648.42 438.551 648.37 438.973ZM351.487 437.713C351.533 438.133 351.578 438.552 351.627 438.97C351.578 438.552 351.533 438.133 351.487 437.713ZM648.604 436.854C648.654 436.373 648.698 435.892 648.743 435.409C648.698 435.892 648.654 436.373 648.604 436.854ZM351.25 435.349C351.297 435.851 351.342 436.352 351.393 436.853C351.342 436.352 351.297 435.851 351.25 435.349ZM351.013 432.54C351.065 433.248 351.123 433.955 351.185 434.66C351.123 433.955 351.065 433.248 351.013 432.54ZM648.985 432.541C649.032 431.9 649.074 431.257 649.113 430.614C649.074 431.257 649.032 431.9 648.985 432.541ZM599.205 430.388C599.081 431.793 598.925 433.19 598.743 434.578C598.925 433.19 599.081 431.793 599.205 430.388ZM209.272 427.003C209.129 427.604 208.989 428.205 208.85 428.807C209.128 427.603 209.414 426.402 209.707 425.204L209.272 427.003ZM400.796 430.398C400.839 430.883 400.886 431.366 400.936 431.849C400.886 431.366 400.839 430.883 400.796 430.398ZM649.195 413.851C649.324 416.388 649.39 418.942 649.39 421.511C649.39 424.471 649.302 427.412 649.131 430.329C649.259 428.144 649.341 425.947 649.374 423.738L649.39 421.511C649.39 418.942 649.324 416.388 649.195 413.851ZM599.379 428.098C599.338 428.723 599.291 429.346 599.239 429.967C599.291 429.346 599.338 428.723 599.379 428.098ZM400.693 429.151C400.686 429.047 400.68 428.943 400.672 428.839C400.68 428.943 400.686 429.047 400.693 429.151ZM350.698 426.602C350.69 426.387 350.681 426.172 350.674 425.957L350.673 425.922C350.68 426.149 350.69 426.376 350.698 426.602ZM599.577 419.812C599.587 420.388 599.594 420.965 599.594 421.543L599.585 420.257C599.583 420.109 599.579 419.96 599.577 419.812ZM218.106 397.014C216.28 402.189 214.592 407.428 213.048 412.728C213.734 410.373 214.449 408.029 215.192 405.698C215.377 405.115 215.565 404.533 215.754 403.951C216.51 401.626 217.294 399.314 218.106 397.014ZM648.798 408.165C648.886 409.162 648.964 410.162 649.033 411.164C648.964 410.162 648.886 409.162 648.798 408.165ZM648.725 407.389C648.692 407.035 648.659 406.681 648.624 406.328C648.659 406.681 648.692 407.035 648.725 407.389ZM648.471 404.9C648.454 404.75 648.439 404.599 648.422 404.449C648.439 404.599 648.454 404.75 648.471 404.9ZM648.212 402.709C648.207 402.671 648.203 402.633 648.198 402.595C648.203 402.633 648.207 402.671 648.212 402.709ZM648.055 401.52C648.019 401.25 647.984 400.979 647.946 400.709C647.984 400.979 648.019 401.25 648.055 401.52ZM647.825 399.88C647.775 399.536 647.726 399.193 647.674 398.85C647.726 399.193 647.775 399.536 647.825 399.88ZM647.519 397.872C647.473 397.586 647.429 397.3 647.382 397.014C647.429 397.3 647.473 397.586 647.519 397.872ZM647.12 395.486C647.106 395.405 647.092 395.324 647.077 395.243C647.092 395.324 647.106 395.405 647.12 395.486ZM646.905 394.303C646.841 393.957 646.778 393.611 646.712 393.265C646.778 393.611 646.841 393.957 646.905 394.303ZM646.507 392.229C646.463 392.012 646.421 391.794 646.376 391.577C646.421 391.794 646.463 392.012 646.507 392.229ZM646.166 390.573C646.108 390.298 646.051 390.024 645.992 389.75C646.051 390.024 646.108 390.298 646.166 390.573ZM778.691 388.482H778.69H778.691ZM223.301 383.371C222.42 385.522 221.565 387.687 220.733 389.863C221.565 387.687 222.42 385.522 223.301 383.371ZM645.738 388.613C645.685 388.376 645.633 388.138 645.578 387.901C645.633 388.138 645.685 388.376 645.738 388.613ZM645.379 387.06C645.304 386.742 645.229 386.424 645.152 386.107C645.229 386.424 645.304 386.742 645.379 387.06ZM644.956 385.32C644.868 384.964 644.779 384.609 644.688 384.254C644.779 384.609 644.868 384.964 644.956 385.32ZM644.38 383.086C644.34 382.936 644.301 382.786 644.261 382.637C644.301 382.786 644.34 382.936 644.38 383.086ZM643.984 381.632C643.904 381.344 643.826 381.056 643.745 380.769C643.826 381.056 643.904 381.344 643.984 381.632ZM643.448 379.743C643.379 379.508 643.311 379.272 643.241 379.038C643.311 379.272 643.379 379.508 643.448 379.743ZM642.982 378.177C642.894 377.889 642.807 377.6 642.718 377.312C642.807 377.6 642.894 377.889 642.982 378.177ZM642.463 376.505C642.354 376.16 642.245 375.816 642.133 375.472C642.245 375.816 642.354 376.16 642.463 376.505ZM233.917 360.293C232.266 363.513 230.672 366.768 229.135 370.054C230.672 366.768 232.266 363.513 233.917 360.293ZM641.937 374.878C641.823 374.534 641.71 374.19 641.595 373.847C641.71 374.19 641.823 374.534 641.937 374.878ZM641.226 372.769C641.146 372.539 641.067 372.309 640.987 372.079C641.067 372.309 641.146 372.539 641.226 372.769ZM640.737 371.377C640.61 371.023 640.483 370.67 640.354 370.317C640.483 370.67 640.61 371.023 640.737 371.377ZM640.124 369.697C639.997 369.353 639.869 369.008 639.739 368.665C639.869 369.008 639.997 369.353 640.124 369.697ZM639.418 367.832C639.31 367.553 639.203 367.275 639.094 366.997C639.203 367.275 639.31 367.553 639.418 367.832ZM638.765 366.169C638.643 365.865 638.522 365.561 638.399 365.259C638.522 365.561 638.643 365.865 638.765 366.169ZM638.003 364.303C637.914 364.088 637.824 363.873 637.734 363.658C637.824 363.873 637.914 364.088 638.003 364.303ZM419.501 362.948V362.949V362.948ZM637.336 362.727C637.23 362.48 637.125 362.232 637.018 361.986C637.125 362.232 637.23 362.48 637.336 362.727ZM636.557 360.945C636.473 360.754 636.388 360.563 636.302 360.373C636.388 360.563 636.473 360.754 636.557 360.945ZM635.891 359.47C635.762 359.189 635.634 358.907 635.503 358.626C635.634 358.907 635.762 359.189 635.891 359.47ZM635.071 357.711C634.969 357.496 634.868 357.281 634.765 357.067C634.868 357.281 634.969 357.496 635.071 357.711ZM634.306 356.121C634.197 355.897 634.087 355.674 633.977 355.45C634.087 355.673 634.197 355.897 634.306 356.121ZM633.464 354.426C633.37 354.239 633.276 354.053 633.181 353.867C633.276 354.053 633.37 354.239 633.464 354.426ZM632.599 352.739C632.511 352.57 632.423 352.401 632.335 352.232C632.423 352.401 632.511 352.57 632.599 352.739ZM631.755 351.142C631.67 350.982 631.584 350.822 631.498 350.662C631.584 350.822 631.67 350.982 631.755 351.142ZM241.728 346.033H241.729H241.728ZM432.184 348.656V348.657V348.656ZM631.032 349.809C630.881 349.535 630.731 349.262 630.579 348.989C630.731 349.262 630.881 349.535 631.032 349.809ZM630.178 348.276C630.017 347.991 629.856 347.705 629.693 347.421C629.856 347.705 630.017 347.991 630.178 348.276ZM629.307 346.755C629.135 346.458 628.962 346.161 628.788 345.865C628.962 346.161 629.135 346.458 629.307 346.755ZM371.338 345.647C371.644 345.13 371.953 344.615 372.265 344.102V344.101C371.953 344.614 371.644 345.13 371.338 345.647ZM628.359 345.145C628.208 344.892 628.057 344.639 627.904 344.386C628.057 344.639 628.208 344.892 628.359 345.145ZM627.372 343.514C627.239 343.298 627.106 343.082 626.972 342.867C627.106 343.082 627.239 343.298 627.372 343.514ZM441.406 341.044V341.045V341.044ZM626.429 342C626.274 341.755 626.119 341.51 625.963 341.265C626.119 341.51 626.274 341.755 626.429 342ZM625.511 340.563C625.349 340.313 625.188 340.064 625.024 339.815C625.188 340.064 625.349 340.313 625.511 340.563ZM246.389 338.318C246.071 338.827 245.755 339.338 245.439 339.849L246.39 338.318C246.709 337.809 247.028 337.3 247.349 336.793L246.389 338.318ZM624.47 338.977C624.322 338.755 624.174 338.533 624.025 338.312C624.174 338.533 624.322 338.755 624.47 338.977ZM623.535 337.588C623.361 337.333 623.188 337.079 623.012 336.825C623.188 337.079 623.361 337.333 623.535 337.588ZM622.479 336.06C622.323 335.837 622.166 335.614 622.009 335.391C622.166 335.614 622.323 335.837 622.479 336.06ZM621.501 334.679C621.296 334.391 621.089 334.105 620.882 333.819C621.089 334.105 621.296 334.391 621.501 334.679ZM380.323 332.181C379.917 332.724 379.516 333.271 379.117 333.819C379.516 333.271 379.917 332.724 380.323 332.181ZM256.377 323.352C255.682 324.328 254.994 325.31 254.311 326.295C254.994 325.31 255.682 324.328 256.377 323.352ZM620.459 333.242C620.231 332.932 620.003 332.623 619.773 332.315C620.003 332.623 620.231 332.932 620.459 333.242ZM455.769 332.314V332.315V332.314ZM619.463 331.902C619.228 331.59 618.992 331.278 618.754 330.967C618.992 331.278 619.228 331.59 619.463 331.902ZM461.264 329.786V329.787V329.786ZM618.322 330.405C618.104 330.123 617.885 329.841 617.665 329.56C617.885 329.841 618.104 330.123 618.322 330.405ZM617.269 329.057C617.03 328.754 616.79 328.452 616.549 328.151C616.79 328.452 617.03 328.754 617.269 329.057ZM468.085 327.189C466.929 327.581 465.782 327.994 464.645 328.427C466.161 327.85 467.694 327.309 469.245 326.804L468.085 327.189ZM616.095 327.589C615.882 327.327 615.67 327.065 615.456 326.804C615.67 327.065 615.882 327.327 616.095 327.589ZM473.944 325.403V325.405V325.403ZM614.853 326.077C614.685 325.875 614.517 325.673 614.347 325.472C614.517 325.673 614.685 325.875 614.853 326.077ZM613.769 324.789C613.559 324.542 613.348 324.296 613.137 324.051C613.348 324.296 613.559 324.542 613.769 324.789ZM492.346 322.241C491.925 322.273 491.505 322.308 491.085 322.345C491.924 322.27 492.767 322.206 493.612 322.152L492.346 322.241ZM612.645 323.484C612.428 323.235 612.21 322.986 611.991 322.738C612.21 322.986 612.428 323.235 612.645 323.484ZM509.905 322.438C510.35 322.482 510.793 322.529 511.236 322.579C510.793 322.529 510.35 322.482 509.905 322.438ZM611.404 322.077C611.188 321.836 610.972 321.595 610.755 321.356C610.972 321.595 611.188 321.836 611.404 322.077ZM501.285 321.957C501.891 321.965 502.495 321.979 503.098 321.998C502.495 321.979 501.891 321.965 501.285 321.957ZM498.714 321.957C499.142 321.952 499.571 321.95 500 321.95C499.571 321.95 499.142 321.952 498.714 321.957ZM610.292 320.847C610.054 320.586 609.814 320.326 609.573 320.066C609.814 320.326 610.054 320.586 610.292 320.847ZM259.542 318.988H259.543H259.542ZM608.993 319.443C608.797 319.234 608.6 319.024 608.403 318.816C608.6 319.024 608.797 319.234 608.993 319.443ZM738.271 316.143C738.994 317.098 739.712 318.057 740.423 319.02C739.712 318.057 738.994 317.098 738.271 316.143ZM607.753 318.135C607.564 317.938 607.375 317.742 607.185 317.546C607.375 317.742 607.564 317.938 607.753 318.135ZM606.507 316.853C606.289 316.63 606.069 316.408 605.849 316.187C606.069 316.408 606.289 316.63 606.507 316.853ZM605.36 315.697C605.105 315.443 604.849 315.189 604.592 314.937C604.849 315.189 605.105 315.443 605.36 315.697ZM604.021 314.38C603.788 314.154 603.555 313.929 603.321 313.705C603.555 313.929 603.788 314.154 604.021 314.38ZM734.979 311.879V311.878V311.879ZM264.986 311.847H264.988H264.986ZM602.722 313.133C602.515 312.938 602.309 312.743 602.102 312.549C602.309 312.743 602.515 312.938 602.722 313.133ZM601.345 311.845C601.147 311.662 600.949 311.479 600.75 311.297C600.949 311.479 601.147 311.662 601.345 311.845ZM600.138 310.741C599.892 310.518 599.646 310.296 599.398 310.075C599.646 310.296 599.892 310.518 600.138 310.741ZM598.741 309.492C598.537 309.311 598.331 309.131 598.126 308.952C598.331 309.131 598.537 309.311 598.741 309.492ZM597.363 308.29C597.162 308.117 596.96 307.944 596.758 307.772C596.96 307.944 597.162 308.117 597.363 308.29ZM596.077 307.195C595.789 306.953 595.499 306.712 595.21 306.472C595.499 306.712 595.789 306.953 596.077 307.195ZM594.806 306.136C594.507 305.891 594.207 305.647 593.907 305.403C594.207 305.647 594.507 305.891 594.806 306.136ZM270.638 304.875H270.639H270.638ZM593.29 304.906C593.034 304.701 592.776 304.496 592.518 304.292C592.776 304.496 593.034 304.701 593.29 304.906ZM591.968 303.858C591.674 303.628 591.378 303.399 591.083 303.171C591.378 303.399 591.674 303.628 591.968 303.858ZM590.514 302.733C590.243 302.526 589.971 302.321 589.698 302.115C589.971 302.321 590.243 302.526 590.514 302.733ZM280.1 294.086C278.076 296.286 276.085 298.516 274.127 300.775C274.91 299.871 275.699 298.973 276.493 298.078C276.89 297.631 277.288 297.185 277.687 296.74C278.486 295.851 279.291 294.966 280.1 294.086ZM589.069 301.643C588.785 301.432 588.5 301.222 588.215 301.013C588.5 301.222 588.785 301.432 589.069 301.643ZM587.693 300.63C587.401 300.417 587.108 300.207 586.814 299.996C587.108 300.207 587.401 300.417 587.693 300.63ZM586.123 299.504C585.879 299.331 585.634 299.16 585.389 298.989C585.634 299.16 585.879 299.331 586.123 299.504ZM584.734 298.532C584.421 298.316 584.106 298.101 583.791 297.887C584.106 298.101 584.421 298.316 584.734 298.532ZM583.279 297.54C582.967 297.33 582.654 297.121 582.341 296.914C582.654 297.121 582.967 297.33 583.279 297.54ZM581.722 296.504C581.468 296.337 581.213 296.172 580.957 296.006C581.213 296.172 581.468 296.337 581.722 296.504ZM580.219 295.531C579.888 295.319 579.556 295.109 579.223 294.9C579.556 295.109 579.888 295.319 580.219 295.531ZM578.782 294.624C578.427 294.403 578.071 294.184 577.715 293.966C578.071 294.184 578.427 294.403 578.782 294.624ZM577.192 293.647C576.921 293.483 576.649 293.32 576.377 293.158C576.649 293.32 576.921 293.483 577.192 293.647ZM575.599 292.695C575.335 292.539 575.07 292.385 574.805 292.231C575.07 292.385 575.335 292.539 575.599 292.695ZM574.071 291.807C573.792 291.647 573.511 291.488 573.23 291.329C573.511 291.488 573.792 291.647 574.071 291.807ZM572.509 290.924C572.196 290.75 571.881 290.576 571.567 290.404C571.881 290.576 572.196 290.75 572.509 290.924ZM570.97 290.078C570.669 289.915 570.367 289.753 570.064 289.592C570.367 289.753 570.669 289.915 570.97 290.078ZM569.329 289.201C569.029 289.043 568.727 288.887 568.425 288.731C568.727 288.887 569.029 289.043 569.329 289.201ZM287.523 286.3C286.683 287.15 285.849 288.005 285.019 288.865C285.434 288.435 285.85 288.006 286.268 287.579C286.685 287.151 287.104 286.725 287.525 286.3H287.523ZM567.764 288.39C567.449 288.229 567.134 288.071 566.818 287.912C567.134 288.071 567.449 288.229 567.764 288.39ZM566.151 287.579C565.83 287.419 565.507 287.261 565.184 287.104C565.507 287.261 565.83 287.419 566.151 287.579ZM564.517 286.78C564.14 286.599 563.761 286.42 563.381 286.242C563.761 286.42 564.14 286.599 564.517 286.78ZM562.942 286.035C562.57 285.861 562.196 285.69 561.822 285.52C562.196 285.69 562.57 285.861 562.942 286.035ZM561.273 285.268C560.95 285.123 560.626 284.979 560.302 284.836C560.626 284.979 560.95 285.123 561.273 285.268ZM559.555 284.505C559.243 284.369 558.93 284.236 558.617 284.102C558.93 284.236 559.243 284.369 559.555 284.505ZM557.951 283.817C557.61 283.673 557.268 283.532 556.926 283.391C557.268 283.532 557.61 283.673 557.951 283.817ZM556.241 283.108C555.915 282.975 555.589 282.844 555.262 282.713C555.589 282.844 555.915 282.975 556.241 283.108ZM554.567 282.437C554.271 282.32 553.974 282.206 553.677 282.092C553.974 282.206 554.271 282.32 554.567 282.437ZM552.806 281.756C552.547 281.658 552.288 281.562 552.029 281.465C552.288 281.562 552.547 281.658 552.806 281.756ZM551.137 281.135C550.782 281.006 550.427 280.878 550.072 280.752C550.427 280.878 550.782 281.006 551.137 281.135ZM549.487 280.543C549.059 280.393 548.63 280.244 548.2 280.098C548.63 280.244 549.059 280.393 549.487 280.543ZM547.783 279.954C547.41 279.828 547.037 279.706 546.663 279.583C547.037 279.706 547.41 279.828 547.783 279.954ZM545.956 279.35C545.638 279.246 545.318 279.146 544.999 279.045C545.318 279.146 545.638 279.246 545.956 279.35ZM544.261 278.811C543.821 278.674 543.379 278.541 542.938 278.408C543.379 278.541 543.821 278.674 544.261 278.811ZM542.56 278.294C542.177 278.18 541.793 278.069 541.409 277.958C541.793 278.069 542.177 278.18 542.56 278.294ZM540.7 277.754C540.432 277.678 540.163 277.605 539.893 277.53C540.163 277.605 540.432 277.678 540.7 277.754ZM538.913 277.26C538.627 277.182 538.341 277.107 538.055 277.032C538.341 277.107 538.627 277.182 538.913 277.26ZM537.185 276.803C536.78 276.699 536.374 276.599 535.968 276.499C536.374 276.599 536.78 276.699 537.185 276.803ZM535.425 276.363C535.012 276.262 534.598 276.165 534.184 276.068C534.598 276.165 535.012 276.262 535.425 276.363ZM299.17 275.129C298.727 275.531 298.287 275.935 297.847 276.34L299.171 275.129C299.613 274.727 300.056 274.326 300.501 273.927L299.17 275.129ZM533.614 275.933C533.274 275.855 532.933 275.78 532.592 275.704C532.933 275.78 533.274 275.855 533.614 275.933ZM468.109 275.546C469.318 275.282 470.533 275.033 471.753 274.799C470.533 275.033 469.318 275.282 468.109 275.546ZM531.767 275.52C531.456 275.452 531.143 275.387 530.831 275.321C531.143 275.387 531.456 275.452 531.767 275.52ZM526.908 274.55C527.935 274.737 528.958 274.933 529.977 275.142C528.958 274.933 527.935 274.737 526.908 274.55ZM526.32 274.442C525.971 274.38 525.621 274.321 525.271 274.261C525.621 274.321 525.971 274.38 526.32 274.442ZM524.499 274.129C524.127 274.067 523.755 274.008 523.382 273.949C523.755 274.008 524.127 274.067 524.499 274.129ZM522.661 273.835C522.269 273.775 521.877 273.72 521.484 273.663C521.877 273.72 522.269 273.775 522.661 273.835ZM520.806 273.563C520.308 273.494 519.808 273.428 519.309 273.364C519.808 273.428 520.308 273.494 520.806 273.563ZM518.982 273.32C518.457 273.253 517.931 273.191 517.405 273.13C517.931 273.191 518.457 273.253 518.982 273.32ZM517.111 273.093C516.578 273.032 516.045 272.977 515.511 272.921C516.045 272.977 516.578 273.032 517.111 273.093ZM512.117 272.609C513.159 272.693 514.198 272.786 515.234 272.891C514.198 272.786 513.159 272.693 512.117 272.609ZM511.002 272.523C510.063 272.454 509.121 272.394 508.178 272.343C509.121 272.394 510.063 272.454 511.002 272.523ZM494.232 272.231H494.233H494.232ZM506.763 272.274C505.157 272.202 503.546 272.153 501.928 272.133L503.849 272.17C504.823 272.195 505.794 272.23 506.763 272.274ZM305.895 269.195H305.896H305.895ZM691.331 266.909H691.332H691.331ZM325.651 253.664C324.679 254.364 323.712 255.071 322.748 255.783C324.193 254.715 325.648 253.66 327.112 252.618L325.651 253.664ZM681.523 259.056C682.473 259.784 683.418 260.519 684.359 261.259C683.418 260.519 682.473 259.784 681.523 259.056ZM677.218 255.815C678.181 256.526 679.14 257.244 680.095 257.967C679.14 257.244 678.181 256.526 677.218 255.815ZM674.316 253.696H674.315H674.316ZM339.035 244.556C338.025 245.205 337.019 245.859 336.017 246.519C337.019 245.859 338.025 245.205 339.035 244.556ZM343.609 241.679H343.61H343.609ZM354.494 235.281C353.969 235.575 353.446 235.871 352.922 236.168C353.969 235.574 355.019 234.986 356.074 234.404L354.494 235.281ZM370.539 226.93H370.54H370.539ZM609.455 218.212V218.213V218.212ZM393.912 216.861H393.913H393.912ZM400.774 214.345H400.775H400.774ZM409.458 211.431H409.459H409.458ZM558.321 203.17V203.169V203.17ZM447.14 202.1H447.142H447.14ZM534.263 199.41V199.409V199.41ZM465.702 199.378H465.703H465.702ZM480.804 198.032H480.805H480.804ZM339.6 747.84C339.954 748.068 340.308 748.295 340.663 748.522C340.308 748.295 339.954 748.068 339.6 747.84ZM691.234 715.022C691.313 715.297 691.388 715.572 691.465 715.847C691.388 715.572 691.313 715.297 691.234 715.022ZM686.684 701.039C686.907 701.649 687.128 702.261 687.346 702.874C687.128 702.261 686.907 701.649 686.684 701.039ZM247.912 655.723C248.28 656.302 248.648 656.882 249.02 657.459C248.648 656.882 248.28 656.302 247.912 655.723ZM512.036 571.293C511.607 571.267 511.178 571.241 510.749 571.218C511.178 571.241 511.607 571.267 512.036 571.293ZM206.997 554.261C207.079 554.667 207.161 555.073 207.245 555.479C207.161 555.073 207.079 554.667 206.997 554.261ZM205.533 546.466C205.608 546.9 205.685 547.334 205.763 547.768C205.685 547.334 205.608 546.9 205.533 546.466ZM203.25 530.889C203.307 531.365 203.365 531.84 203.424 532.315C203.365 531.84 203.307 531.365 203.25 530.889ZM202.907 527.887C202.918 527.985 202.929 528.084 202.94 528.183C202.929 528.084 202.918 527.985 202.907 527.887ZM202.285 521.528C202.269 521.355 202.255 521.182 202.241 521.008C202.255 521.182 202.269 521.355 202.285 521.528ZM202.151 519.93C202.147 519.876 202.141 519.822 202.137 519.768C202.141 519.822 202.147 519.876 202.151 519.93ZM508.898 520.742C509.267 520.71 509.636 520.673 510.004 520.637C509.636 520.673 509.267 520.71 508.898 520.742ZM519.971 519.126C520.333 519.052 520.694 518.976 521.055 518.898C520.694 518.976 520.333 519.052 519.971 519.126ZM595.635 449.383C595.708 449.131 595.781 448.88 595.853 448.628C595.781 448.88 595.708 449.131 595.635 449.383ZM402.672 442.725C402.732 442.999 402.793 443.274 402.855 443.548C402.793 443.274 402.732 442.999 402.672 442.725ZM596.915 444.532C596.966 444.315 597.019 444.099 597.069 443.882C597.019 444.099 596.966 444.315 596.915 444.532ZM401.746 437.885C401.78 438.091 401.816 438.296 401.852 438.502C401.816 438.296 401.78 438.091 401.746 437.885ZM401.948 439.063C402.005 439.382 402.064 439.701 402.124 440.019C402.064 439.701 402.005 439.382 401.948 439.063ZM598.364 437.196C598.394 437.003 598.425 436.811 598.455 436.618C598.425 436.811 598.394 437.003 598.364 437.196ZM350.921 431.154C350.951 431.617 350.979 432.079 351.013 432.54C350.979 432.079 350.951 431.617 350.921 431.154ZM648.818 434.612C648.858 434.159 648.893 433.705 648.928 433.251C648.893 433.705 648.858 434.159 648.818 434.612ZM649.177 413.53C649.15 413.019 649.122 412.508 649.09 411.998C649.122 412.508 649.15 413.019 649.177 413.53ZM350.698 426.602C350.715 427.117 350.732 427.63 350.754 428.143C350.732 427.63 350.715 427.117 350.698 426.602ZM598.041 403.965C597.987 403.662 597.93 403.359 597.873 403.057C597.93 403.359 597.987 403.662 598.041 403.965Z" fill="#000813"/>
</g>
<defs>
<clipPath id="clip0_320_52">
<rect width="1000" height="992" fill="white" transform="translate(0 0.154297)"/>
</clipPath>
</defs>
</svg>
