<svg width="1000" height="640" viewBox="0 0 1000 640" fill="none" xmlns="http://www.w3.org/2000/svg">
<g clip-path="url(#clip0_262_357)">
<path d="M386.398 9.66282C421.493 3.51603 459.335 0 500.001 0C540.676 3.1466e-05 578.523 3.52013 613.625 9.66952L689.312 29.767L747.94 49.8944C890.889 112.27 961.973 212.779 972.234 228.198C1009.25 283.828 1009.25 356.166 972.241 411.791L972.234 411.785C961.791 427.482 890.707 527.797 747.973 590.088L684.726 612.885L613.625 630.333C578.523 636.482 540.675 639.996 500.001 639.996C459.314 639.996 421.458 636.479 386.351 630.326L311.268 610.919L252.049 590.102C108.962 527.668 37.9945 427.101 28.103 412.381L27.9289 412.126L27.7615 411.865C-9.25375 356.238 -9.2539 283.832 27.7615 228.205C38.2214 212.484 109.315 112.19 252.029 49.9078L317.82 25.1807L386.398 9.66282Z" fill="#DFFF03"/>
<path d="M858.067 304.179C853.531 297.358 743.892 137.141 500 137.141C256.109 137.141 146.469 297.349 141.934 304.179C135.541 313.786 135.541 326.286 141.934 335.893C146.47 342.643 256.109 502.858 500 502.858C743.892 502.858 853.532 342.65 858.067 335.82C864.459 326.213 864.459 313.785 858.067 304.179ZM500 419.999C444.859 419.999 399.997 375.143 399.997 319.996C399.997 264.849 444.853 219.993 500 219.993C555.147 219.993 600.004 264.849 600.004 319.996C600.004 375.143 555.147 419.999 500 419.999ZM202.002 319.996C226.466 291.71 287.322 233.925 390.361 207.787C361.147 236.358 342.861 276 342.861 319.996C342.861 363.992 361.147 403.637 390.361 432.205C287.322 406.062 226.468 348.277 202.002 319.996ZM609.64 432.205C638.854 403.634 657.139 363.992 657.139 319.996C657.139 276 638.854 236.354 609.64 207.787C712.679 233.93 773.533 291.715 797.999 319.996C773.535 348.282 712.679 406.067 609.64 432.205Z" fill="#000813"/>
</g>
<defs>
<clipPath id="clip0_262_357">
<rect width="1000" height="640" fill="white"/>
</clipPath>
</defs>
</svg>
