<svg width="1000" height="881" viewBox="0 0 1000 881" fill="none" xmlns="http://www.w3.org/2000/svg">
<g clip-path="url(#clip0_463_147)">
<path d="M425.994 198.83C389.58 202.487 356.417 222.161 335.872 252.897L246.032 387.657V123.015C246.032 55.0668 190.964 0 123.015 0C55.067 0.000251903 0.000249678 55.067 0 123.015V757.936C0 825.885 55.0668 880.952 123.015 880.953H876.985C944.933 880.952 1000 825.885 1000 757.936C1000 689.988 944.933 634.921 876.985 634.921H379.147L459.519 513.878L511.582 565.941C534.437 589.47 565.611 602.717 598.048 603.169L600.674 603.206L603.298 603.077C637.842 601.381 669.927 585.217 691.861 558.835L691.86 558.834L890.213 320.813L890.228 320.794L890.242 320.777C933.482 268.831 926.581 192.055 875.559 148.484L874.345 147.461L873.113 146.449C820.797 104.018 744.12 111.636 701.067 163.32L588.843 297.983L525.189 234.329C499.152 208.243 462.823 195.271 426.305 198.8L425.994 198.83Z" fill="#DFFF03"/>
<path d="M162.697 123.017V718.255H876.983C898.908 718.255 916.665 736.012 916.665 757.937C916.665 779.862 898.908 797.62 876.983 797.62H123.015C101.089 797.62 83.332 779.862 83.332 757.937V123.017C83.332 101.091 101.089 83.334 123.015 83.334C144.94 83.334 162.697 101.091 162.697 123.017ZM314.684 581.353L446.43 382.94L571.034 507.544C578.375 515.282 588.543 519.696 599.209 519.845C610.32 519.299 620.687 514.091 627.78 505.559L826.193 267.464C840.231 250.599 837.899 225.549 821.034 211.512C804.169 197.476 779.119 199.806 765.082 216.671L594.441 421.433L466.263 293.255C457.88 284.823 446.125 280.606 434.319 281.747C422.464 282.938 411.75 289.337 405.152 299.208L246.422 537.303C239.875 546.033 237.196 557.045 239.031 567.808C240.817 578.572 247.018 588.097 256.095 594.147C265.123 600.199 276.283 602.282 286.949 599.852C297.564 597.421 306.741 590.725 312.296 581.35L314.684 581.353Z" fill="#000813"/>
</g>
<defs>
<clipPath id="clip0_463_147">
<rect width="1000" height="880.95" fill="white"/>
</clipPath>
</defs>
</svg>
