<svg width="1000" height="1254" viewBox="0 0 1000 1254" fill="none" xmlns="http://www.w3.org/2000/svg">
<g clip-path="url(#clip0_320_121)">
<path d="M1000 500.491C1000 684.638 900.494 845.352 752.523 932.09V1081.29C752.523 1126.41 734.745 1170.12 702.446 1202.48L702.448 1202.49C702.376 1202.56 702.302 1202.63 702.23 1202.7C702.151 1202.78 702.073 1202.86 701.995 1202.94L701.993 1202.94C669.63 1235.23 625.934 1253.01 580.807 1253.01H419.193C374.072 1253.01 330.37 1235.23 298.001 1202.93L298 1202.93C297.925 1202.86 297.85 1202.78 297.775 1202.71C297.699 1202.63 297.623 1202.56 297.548 1202.48L297.549 1202.48C265.259 1170.12 247.477 1126.42 247.477 1081.29V932.091C99.5038 845.352 0 684.638 0 500.491C0.000256429 224.352 223.868 0.494141 500.003 0.494141L503.236 0.504005C777.885 2.24364 1000 225.433 1000 500.491Z" fill="#DFFF03"/>
<path d="M500.004 112.611C709.197 112.612 878.788 282.203 878.789 491.396C878.789 654.42 775.808 793.41 631.312 846.793V1072.2C631.312 1085.58 626.009 1098.46 616.515 1107.91C607.07 1117.4 594.192 1122.7 580.808 1122.7H419.194C405.811 1122.7 392.931 1117.4 383.487 1107.91C373.993 1098.46 368.69 1085.58 368.69 1072.2V846.793C224.191 793.408 121.213 654.42 121.213 491.396C121.213 282.203 290.81 112.611 500.004 112.611ZM550.503 866.849C533.989 869.071 517.118 870.182 499.998 870.182C482.877 870.182 466.009 869.071 449.495 866.849V1041.9H550.503V866.849ZM499.998 193.418C335.449 193.419 202.02 326.847 202.02 491.396C202.02 655.945 335.449 789.375 499.998 789.375C664.547 789.375 797.977 655.945 797.977 491.396C797.976 326.847 664.547 193.418 499.998 193.418ZM557.112 377.117C572.92 361.359 598.475 361.359 614.283 377.117C630.041 392.925 630.041 418.48 614.283 434.288L557.112 491.409L614.233 548.53H614.283C630.041 564.339 630.041 589.893 614.283 605.701C598.475 621.459 572.92 621.459 557.112 605.701L499.991 548.53L442.87 605.651V605.701C427.061 621.459 401.507 621.459 385.699 605.701C369.941 589.893 369.941 564.338 385.699 548.53L442.82 491.409L385.699 434.288C378.123 426.712 373.881 416.41 373.881 405.703C373.881 394.997 378.124 384.692 385.7 377.117C393.275 369.541 403.579 365.299 414.285 365.299C424.992 365.299 435.295 369.541 442.87 377.117L499.991 434.288L557.112 377.167V377.117Z" fill="#000813"/>
</g>
<defs>
<clipPath id="clip0_320_121">
<rect width="1000" height="1252.52" fill="white" transform="translate(0 0.494141)"/>
</clipPath>
</defs>
</svg>
