<svg width="1000" height="1261" viewBox="0 0 1000 1261" fill="none" xmlns="http://www.w3.org/2000/svg">
<g clip-path="url(#clip0_262_310)">
<path d="M499.63 0.234375L500.465 0.241699C562.058 0.683698 620.512 24.2105 664.742 61.495C709.706 99.3989 749.143 160.055 750.62 237.381L750.642 238.817V350.256L751.008 350.264C796.131 350.784 845.879 363.931 889.042 392.43C934.433 422.4 979.111 474.731 988.733 549.976L989.942 559.454V726.507L989.693 733.245L989.942 738.87V741.097C1017.59 879.417 988.537 1015.32 899.062 1115.29L899.055 1115.28C825.245 1197.77 724.898 1241.83 621.389 1255.52L613.851 1256.77L605.613 1257.37C586.734 1259.3 567.791 1260.25 548.923 1260.25C452.122 1260.25 358.685 1225.66 283.277 1166.89L223.456 1109.52L185.614 1062.02C125.253 971.768 96.8956 857.552 121.343 734.102C84.9042 626.481 47.913 517.541 12.1083 410.016C-12.9867 339.572 4.98532 272.032 29.2106 227.179C54.6636 180.053 97.9925 135.969 156.258 112.589L161.107 110.641L166.08 109.037C201.285 97.6839 249.031 92.5534 297.64 101.178C308.632 86.7032 320.783 73.9738 333.28 63.1576C376.453 25.7905 435.119 0.488632 498.788 0.234375H499.63Z" fill="#DFFF03"/>
<path d="M499.388 150.236C450.326 150.432 400.403 190.589 400.012 239.3C398.098 305.863 396.067 372.662 394.074 439.302L332.081 289.3C307.433 247.659 251.846 238.988 212.12 251.8C168.603 269.261 139.267 322.426 153.838 360.861C194.308 482.423 236.261 605.665 277.55 727.747C213.057 934.2 373.254 1110.25 548.924 1110.25C644.863 1110.25 731.226 1077.91 787.287 1015.25C842.561 953.492 864.827 862.589 839.944 757.127V569.004C834.084 523.184 786.545 500.683 749.278 500.253C726.739 500.41 706.309 512.715 691.934 527.129C675.175 509.277 649.824 500.487 629.941 499.94C620.019 499.823 608.69 503.3 600.643 506.19V240.247C599.667 189.074 548.491 150.588 499.388 150.236ZM499.388 210.237C519.545 211.097 536.381 220.628 541.147 238.988C540.6 364.459 540.834 492.391 540.834 599.933C511.146 597.98 477.201 607.433 459.817 630.558C413.606 698.293 368.019 768.1 322.395 836.811C320.52 805.522 324.817 771.888 337.044 736.81C339.27 730.638 339.387 723.685 337.356 717.434L210.244 341.489C207.275 328.403 218.604 314.77 231.104 308.677C249.424 302.661 267.002 303.091 278.76 316.802L392.472 591.496C397.824 603.84 412.16 611.496 425.363 609.074C438.528 606.613 449.231 594.308 449.817 580.871C453.02 467.349 456.653 353.757 459.778 240.246C464.231 221.3 480.676 210.636 499.348 210.245L499.388 210.237ZM628.06 560.242C641.576 560.477 656.538 567.43 660.483 579.304V760.247C657.631 775.325 644.115 780.559 630.56 780.247C621.42 780.013 613.958 775.95 607.201 772.122L615.287 760.56C637.631 717.356 627.201 663.762 600.639 629.618V577.117C606.42 565.984 617.044 560.594 628.06 560.242ZM749.902 560.242C763.964 560.086 775.41 567.899 779.199 580.242L780.137 720.245C777.285 735.323 764.043 740.87 750.214 740.245C734.394 739.229 721.737 733.292 720.292 720.245V582.433C723.026 568.291 738.027 560.203 749.902 560.242ZM556.109 665.864C573.336 684.106 576.89 705.981 569.507 722.427C534.819 770.435 500.756 820.358 466.696 869.309C459.899 879.074 459.704 893.02 466.227 902.981C472.751 912.942 485.602 918.293 497.244 915.872C543.26 906.419 582.206 907.552 612.515 930.873C644.704 957.592 651.696 996.146 657.399 1031.49C625.367 1043.56 588.843 1050.24 548.957 1050.24C463.214 1050.24 379.305 997.353 342.074 915.552L503.167 672.109C521.487 657.578 537.464 655.937 556.136 665.859L556.109 665.864ZM712.521 792.426C724.358 797.465 737.053 800.238 750.217 800.238C762.717 800.238 774.944 797.621 786.35 793.051C800.062 872.583 781.077 932.073 742.717 974.933C733.967 984.738 724.045 993.761 713.107 1001.81C705.021 955.675 682.013 909.073 648.927 883.057C619.356 860.322 585.723 852.548 552.011 851.494L573.183 821.182C589.864 833.565 609.668 840.244 630.528 840.244C666.076 839.815 696.974 822.9 712.482 792.432L712.521 792.426Z" fill="#000813"/>
</g>
<defs>
<clipPath id="clip0_262_310">
<rect width="1000" height="1260" fill="white" transform="translate(0 0.234375)"/>
</clipPath>
</defs>
</svg>
