<svg width="1000" height="1000" viewBox="0 0 1000 1000" fill="none" xmlns="http://www.w3.org/2000/svg">
<g clip-path="url(#clip0_463_110)">
<path d="M1000 500.256C1000 607.555 999.628 628.661 997.771 670.688C997.974 673.644 998.012 676.642 997.874 679.673C995.494 731.729 987 770.541 973.429 805.759C973.414 805.8 973.4 805.841 973.385 805.882L973.252 806.23C973.204 806.356 973.153 806.482 973.105 806.608C958.695 844.519 936.296 878.89 907.421 907.382C878.884 936.314 844.475 958.709 806.566 973.092C806.505 973.116 806.445 973.141 806.385 973.164L805.983 973.318C805.939 973.335 805.894 973.351 805.849 973.368C770.583 986.997 731.737 995.494 679.672 997.874C676.639 998.012 673.638 997.974 670.68 997.77C628.669 999.626 607.566 1000 500.256 1000C392.876 1000 371.827 999.626 329.762 997.767C326.807 997.971 323.828 998.01 320.839 997.874C268.871 995.498 230.1 987.027 194.925 973.493C194.848 973.464 194.77 973.437 194.693 973.408C156.466 959.008 121.818 936.494 93.1307 907.423C64.1061 878.795 41.6555 844.254 27.2759 806.193L27.2426 806.104L27.2415 806.105L26.3136 803.683C26.2678 803.563 26.2221 803.444 26.1769 803.324C13.2765 769.165 5.21207 731.56 2.75259 682.04L2.63925 679.672C2.6391 679.669 2.63839 679.665 2.63824 679.662C0.483439 632.434 0 616.624 0 500.256C0 384.118 0.512304 368.141 2.62306 321.244C2.62851 321.109 2.6341 320.974 2.64026 320.84C5.02518 268.727 13.5641 229.905 27.0897 194.736L27.1414 194.598L27.788 192.897C42.0619 155.77 64.0118 122.075 92.1976 94.0141L92.3575 93.8542L93.1489 93.071C121.717 64.1238 156.168 41.7236 194.122 27.3518L194.524 27.197C229.813 13.5418 268.674 5.03099 320.77 2.6433C320.796 2.64206 320.823 2.63945 320.85 2.63824C368.079 0.483424 383.917 0 500.256 0C609.166 0 630.078 0.446348 671.325 2.26785C671.338 2.26839 671.351 2.26832 671.363 2.26886L679.548 2.63419L679.547 2.6352C679.584 2.63683 679.62 2.63757 679.657 2.63925C731.78 5.02328 770.603 13.5638 805.77 27.0877C805.826 27.109 805.883 27.1281 805.939 27.1494L806.255 27.2699C806.335 27.3002 806.413 27.3334 806.493 27.364C843.47 41.4003 877.082 63.0335 905.16 90.8618L906.499 92.1976L906.659 92.3575L907.472 93.1803C936.368 121.714 958.771 156.141 973.158 194.115L973.31 194.509C986.975 229.818 995.49 268.701 997.874 320.84C998.01 323.828 997.971 326.807 997.767 329.762C999.626 371.823 1000 392.913 1000 500.256Z" fill="#DFFF03"/>
<path d="M854.921 500.256C854.921 386.207 854.493 372.588 852.438 327.44C850.508 285.341 843.462 262.252 837.423 246.738C837.416 246.721 837.409 246.703 837.402 246.686C829.47 226.209 819.855 211.421 804.473 196.033L803.031 194.61C788.16 180.078 773.688 170.805 753.84 163.114C753.808 163.102 753.777 163.089 753.745 163.077C738.224 157.009 715.134 150 673.061 148.072C669.355 147.904 665.869 147.747 662.528 147.601H337.969C334.631 147.747 331.15 147.903 327.449 148.071C285.553 149.991 262.489 156.978 246.993 162.989C246.836 163.05 246.678 163.109 246.52 163.168C227.503 170.218 210.292 181.409 196.134 195.933C196.05 196.019 195.966 196.105 195.881 196.19C180.619 211.514 171.029 226.241 163.114 246.668C163.102 246.699 163.089 246.732 163.076 246.764C157.009 262.282 149.999 285.381 148.07 327.451C147.902 331.144 147.745 334.619 147.599 337.949V662.541C147.746 665.879 147.902 669.361 148.071 673.062L148.126 674.191L163.393 754.589C170.432 773.296 181.481 790.238 195.77 804.22C195.946 804.391 196.119 804.565 196.291 804.74C209.974 818.727 226.493 829.611 244.729 836.666L246.5 837.337L247.009 837.531C262.511 843.57 285.587 850.522 327.461 852.441C372.602 854.495 386.185 854.922 500.255 854.922C614.332 854.922 627.923 854.495 673.071 852.44C714.961 850.519 738.022 843.534 753.517 837.524L753.991 837.344C772.936 830.322 790.09 819.188 804.216 804.743L804.742 804.218C819.178 790.094 830.309 772.947 837.336 754.01C837.399 753.84 837.464 753.671 837.53 753.501C843.569 737.999 850.52 714.924 852.439 673.05C854.494 627.91 854.921 614.296 854.921 500.256ZM647.303 500.256C647.303 461.257 631.81 423.855 604.234 396.278C576.657 368.701 539.254 353.209 500.255 353.209C480.944 353.209 461.823 357.012 443.982 364.402C426.142 371.791 409.931 382.623 396.276 396.278C382.622 409.933 371.791 426.143 364.401 443.984C357.011 461.824 353.208 480.946 353.208 500.256C353.208 519.567 357.011 538.689 364.401 556.529C371.791 574.37 382.622 590.581 396.276 604.235C409.931 617.89 426.142 628.721 443.982 636.111C461.823 643.5 480.944 647.304 500.255 647.304C539.254 647.304 576.657 631.812 604.234 604.235C631.81 576.658 647.303 539.256 647.303 500.256ZM715.23 500.256C715.23 557.271 692.581 611.95 652.265 652.266C611.95 692.581 557.269 715.231 500.255 715.231C443.24 715.231 388.56 692.581 348.245 652.266C307.929 611.95 285.28 557.271 285.28 500.256C285.28 443.241 307.929 388.562 348.245 348.246C388.56 307.931 443.24 285.282 500.255 285.282C557.269 285.282 611.95 307.931 652.265 348.246C692.581 388.562 715.23 443.241 715.23 500.256ZM922.278 500.256C922.278 614.567 921.853 629.41 919.728 676.1L920.233 676.123C918.178 721.071 911.053 751.609 900.75 778.221L900.751 778.222L900.619 778.57L900.617 778.569C890.117 806.379 873.696 831.573 852.487 852.402L852.485 852.403L852.457 852.43L852.43 852.458L852.428 852.461C831.581 873.698 806.378 890.105 778.592 900.581L778.593 900.582L778.191 900.736L778.19 900.735C751.587 911.059 721.056 918.18 676.122 920.235L676.099 919.729C629.418 921.853 614.584 922.28 500.255 922.28C385.914 922.28 371.101 921.853 324.41 919.729L324.387 920.235C279.522 918.183 249.016 911.079 222.44 900.808L222.093 900.677H222.09C194.222 890.179 168.976 873.734 148.109 852.488L148.108 852.487L148.077 852.455L148.051 852.431L148.05 852.43C126.816 831.584 110.407 806.384 99.9307 778.601L99.8457 778.376L98.8833 775.865C89.0411 749.804 82.2717 719.753 80.277 676.123L80.276 676.12C78.2024 630.672 77.7187 616.255 77.7187 500.256C77.7188 384.267 78.232 369.835 80.277 324.418L80.2781 324.393C82.3313 279.526 89.4656 248.99 99.7152 222.407L99.8346 222.092L100.33 220.787C110.679 193.869 126.593 169.439 147.03 149.092L148.022 148.111L148.055 148.079L148.082 148.051C168.928 126.816 194.128 110.409 221.911 99.9332L222.313 99.7794C248.918 89.454 279.45 82.3329 324.387 80.2785L324.39 80.2775C369.839 78.2039 384.284 77.7202 500.255 77.7202C608.993 77.7202 628.465 78.1709 667.895 79.9122L676.08 80.2775L676.105 80.2785C721.054 82.3344 751.622 89.4891 778.24 99.7683L778.241 99.7673L778.557 99.8877L778.556 99.8887C805.935 110.224 830.779 126.3 851.419 147.032L852.401 148.024L852.459 148.082C873.667 168.91 890.087 194.105 900.579 221.915L900.73 222.309C911.057 248.915 918.179 279.448 920.233 324.389L919.727 324.411C921.852 371.093 922.278 385.954 922.278 500.256ZM778.77 276.441C778.77 290.255 773.283 303.505 763.514 313.274C753.746 323.042 740.497 328.53 726.682 328.53C712.868 328.53 699.618 323.042 689.85 313.274C680.082 303.505 674.594 290.256 674.594 276.441C674.594 262.627 680.082 249.378 689.85 239.61C699.618 229.841 712.868 224.353 726.682 224.353C740.497 224.353 753.746 229.841 763.514 239.61C773.283 249.378 778.77 262.627 778.77 276.441Z" fill="#000813"/>
</g>
<defs>
<clipPath id="clip0_463_110">
<rect width="1000" height="1000" fill="white"/>
</clipPath>
</defs>
</svg>
