<svg width="1000" height="1410" viewBox="0 0 1000 1410" fill="none" xmlns="http://www.w3.org/2000/svg">
<g clip-path="url(#clip0_320_96)">
<path d="M999.068 1156.07L999.063 1157.71C998.185 1296.13 886.099 1408.21 747.681 1409.09L746.045 1409.09H253.954C114.784 1409.09 1.81749 1296.67 0.936523 1157.71L0.931641 1156.07V253.905C0.931896 114.19 114.238 0.882885 253.954 0.882812H746.045L747.681 0.887695C886.644 1.76796 999.067 114.735 999.068 253.905V1156.07Z" fill="#DFFF03"/>
<path d="M746.978 130.488C814.896 130.488 870 185.592 870 253.511V1155.68C870 1223.6 814.896 1278.7 746.978 1278.7H254.887C186.968 1278.7 131.864 1223.6 131.864 1155.68V253.511C131.864 185.592 186.968 130.488 254.887 130.488H746.978ZM213.879 1032.66V1155.68C213.879 1166.54 218.185 1177 225.874 1184.69C233.563 1192.38 244.02 1196.68 254.887 1196.68H746.977C757.844 1196.68 768.301 1192.38 775.989 1184.69C783.678 1177 787.984 1166.54 787.984 1155.68V1032.66H213.879ZM471.821 1086.38C481.509 1076.8 495.349 1072.64 508.728 1075.31C511.444 1075.67 514.059 1076.54 516.52 1077.77C519.031 1078.59 521.389 1079.82 523.49 1081.46L530.052 1086.38C537.382 1094.02 541.586 1104.12 541.944 1114.68C541.996 1125.59 537.741 1136.05 530.052 1143.79L523.49 1148.71C521.389 1150.35 519.031 1151.58 516.52 1152.4C514.059 1153.63 511.444 1154.51 508.728 1154.86L500.937 1155.69H492.734L485.354 1153.22C482.739 1152.3 480.278 1151.07 477.972 1149.53L471.821 1144.61C464.081 1136.92 459.673 1126.42 459.673 1115.5C459.673 1104.58 464.081 1094.07 471.821 1086.38ZM254.887 212.503C232.23 212.503 213.879 230.854 213.879 253.511V950.646H787.984V253.511C787.984 242.644 783.678 232.187 775.989 224.499C768.3 216.81 757.843 212.504 746.977 212.504L254.887 212.503ZM582.946 294.511C605.603 294.511 623.954 312.861 623.954 335.519C623.954 358.176 605.603 376.526 582.946 376.526H418.916C396.259 376.526 377.909 358.176 377.909 335.519C377.909 312.862 396.259 294.511 418.916 294.511H582.946Z" fill="#000813"/>
</g>
<defs>
<clipPath id="clip0_320_96">
<rect width="1000" height="1409" fill="white" transform="translate(0 0.488281)"/>
</clipPath>
</defs>
</svg>
