<svg width="1000" height="884" viewBox="0 0 1000 884" fill="none" xmlns="http://www.w3.org/2000/svg">
<g clip-path="url(#clip0_463_135)">
<path d="M500 0C544.313 0 582.663 25.4708 601.212 62.576C679.841 68.4407 758.261 81.1619 835.337 101.469C890.188 115.902 925.008 168.237 919.026 222.994L967.027 308.502L967.036 308.517C988.635 347.011 1000 390.561 1000 434.629V440.613C1000 499.55 975.555 556.27 932.933 596.774L932.917 596.79L932.9 596.806C892.629 635.034 840.074 655.944 784.795 655.944C781.453 655.944 777.532 655.886 773.259 655.661L773.234 655.66L773.209 655.658C705.394 652.048 647.993 617.204 611.556 566.393V591.8L639.595 615.462L639.621 615.485L639.647 615.507C688.485 656.789 706.223 723.312 684.262 783.474L684.255 783.494L684.248 783.513C662.276 843.613 605.781 883.138 541.739 883.138H457.285C393.838 883.138 337.545 844.258 315.231 784.718C292.903 725.211 309.628 658.804 357.606 617.018L357.614 617.012L385.334 592.874V572.679C378.724 581.209 371.45 589.271 363.551 596.777L363.535 596.794L363.519 596.809C323.246 635.039 270.689 655.946 215.412 655.946C212.1 655.946 208.171 655.89 203.877 655.664L203.852 655.663L203.827 655.661C86.2694 649.404 0 549.289 0 434.837L0.00868056 432.759C0.36414 389.124 11.9078 346.123 33.3095 308.184L33.3171 308.168L33.3257 308.154L81.0482 223.635C74.7228 168.65 109.594 115.961 164.66 101.47L164.671 101.467C241.727 81.2 320.142 68.4589 398.785 62.5825C417.332 25.4758 455.682 0.000511699 500 0Z" fill="#DFFF03"/>
<path d="M498.422 248.132C481.974 248.132 468.666 261.441 468.666 277.888V630.811L412.335 679.86C390.615 698.777 383.123 728.449 393.252 755.443C403.338 782.395 428.49 799.805 457.284 799.805H541.738C570.783 799.805 596.019 782.144 605.98 754.899C615.94 727.612 608.03 697.898 585.849 679.149L528.221 630.518V277.883C528.221 261.436 514.91 248.132 498.422 248.132ZM550.065 734.486C549.103 737.122 546.885 740.303 541.737 740.303H457.282C452.176 740.303 449.958 737.164 448.954 734.528C447.991 731.933 447.615 728.082 451.465 724.734L498.757 683.553L547.471 724.65C551.364 727.956 551.028 731.807 550.065 734.486Z" fill="#000813"/>
<path d="M652.714 434.835C652.714 508.325 707.58 568.714 777.637 572.443C780.022 572.568 782.408 572.61 784.793 572.61C818.735 572.61 850.75 559.887 875.526 536.367C901.641 511.55 916.665 476.646 916.665 440.613V434.628C916.665 404.831 908.965 375.325 894.359 349.295L827.942 230.982C831.248 227.467 834.052 223.407 835.35 218.427C839.535 202.523 830.035 186.243 814.131 182.059C721.055 157.534 625.514 144.769 529.754 142.468V113.088C529.754 96.6406 516.446 83.333 499.999 83.333C483.552 83.333 470.243 96.6417 470.243 113.088V142.468C374.489 144.77 278.948 157.576 185.867 182.059C169.963 186.244 160.463 202.524 164.648 218.427C165.987 223.574 168.959 227.718 172.432 231.275L105.89 349.127C91.1585 375.241 83.332 404.913 83.332 434.837C83.332 508.327 138.199 568.717 208.255 572.445C210.641 572.571 213.026 572.613 215.412 572.613C249.353 572.613 281.368 559.89 306.145 536.37C332.26 511.552 347.284 476.691 347.284 440.615V434.631C347.284 404.791 339.541 375.286 324.977 349.297L256.343 226.924C417.007 192.899 583.574 192.941 744.196 227.05L675.309 349.048C660.494 375.205 652.714 404.869 652.714 434.835ZM780.733 512.97C744.951 511.087 715.822 479.448 712.81 441.196H857.028C856.861 461.034 848.909 479.49 834.512 493.175C819.99 506.987 800.653 514.225 780.733 512.97ZM215.537 275.927L271.282 375.281L159.451 375.323L215.537 275.927ZM265.172 493.171C250.607 507.024 231.44 514.222 211.394 512.967C173.603 510.958 142.884 475.93 142.884 434.831H287.767V440.607C287.725 460.695 279.736 479.361 265.172 493.171ZM784.92 275.927L842.423 378.42C843.009 379.466 843.428 380.596 843.972 381.684H725.488C726.074 380.596 726.492 379.424 727.078 378.378L784.92 275.927Z" fill="#000813"/>
</g>
<defs>
<clipPath id="clip0_463_135">
<rect width="1000" height="883.14" fill="white"/>
</clipPath>
</defs>
</svg>
