<svg width="1000" height="993" viewBox="0 0 1000 993" fill="none" xmlns="http://www.w3.org/2000/svg">
<g clip-path="url(#clip0_320_113)">
<path d="M517.373 23.4873C564.349 -7.19517 625.044 -7.19774 672.023 23.4883L673.14 24.2252L937.028 200.151C976.364 226.376 1000 270.526 1000 317.814V548.728C1000 596.008 976.371 640.165 937.026 666.394L483.744 968.57C436.245 1000.23 374.364 1000.24 326.861 968.568L62.9715 792.642C23.6347 766.417 0.000400408 722.266 0 674.98V444.062L0.00394571 442.954C0.370652 396.09 23.9409 352.421 62.9735 326.4L516.256 24.2232L517.373 23.4873Z" fill="#DFFF03"/>
<path d="M583.492 125.08C590.278 120.557 599.118 120.556 605.904 125.08L869.792 301.007C875.413 304.753 878.789 311.061 878.789 317.815V548.729C878.789 555.484 875.413 561.792 869.792 565.539L416.51 867.715C409.724 872.238 400.884 872.238 394.098 867.715L130.209 691.788C124.589 688.042 121.213 681.734 121.213 674.98V444.065C121.213 437.311 124.589 431.003 130.209 427.256L583.492 125.08ZM184.319 652.023L373.751 778.272L373.712 677.467L184.319 551.218V652.023ZM436.857 677.467V778.272L815.644 525.734V424.929L436.857 677.467ZM178.145 471.17L405.304 622.648L821.894 344.92L594.698 193.481L178.145 471.17ZM357.959 527.946C357.959 485.85 452.656 485.85 452.656 527.946C452.656 570.041 357.96 570.041 357.959 527.946ZM263.258 464.844C263.258 422.749 357.955 422.749 357.955 464.844C357.955 506.902 263.259 506.902 263.258 464.844ZM452.648 464.844C452.648 422.749 547.345 422.749 547.345 464.844C547.345 506.902 452.649 506.902 452.648 464.844ZM357.959 401.701C357.959 359.605 452.656 359.605 452.656 401.701C452.656 443.796 357.96 443.796 357.959 401.701ZM547.349 401.701C547.349 359.605 642.046 359.605 642.046 401.701C642.046 443.796 547.35 443.796 547.349 401.701ZM452.648 338.558C452.648 296.462 547.345 296.462 547.345 338.558C547.345 380.653 452.649 380.653 452.648 338.558ZM642.05 338.558C642.05 296.462 736.747 296.462 736.747 338.558C736.746 380.653 642.051 380.653 642.05 338.558ZM547.349 275.454C547.349 233.359 642.046 233.359 642.046 275.454C642.046 317.512 547.35 317.512 547.349 275.454Z" fill="#000813"/>
</g>
<defs>
<clipPath id="clip0_320_113">
<rect width="1000" height="991.84" fill="white" transform="translate(0 0.474609)"/>
</clipPath>
</defs>
</svg>
