<svg width="1000" height="1183" viewBox="0 0 1000 1183" fill="none" xmlns="http://www.w3.org/2000/svg">
<g clip-path="url(#clip0_262_365)">
<path d="M486.67 0.580078L490.872 0.630867C533.387 1.70895 571.843 19.0783 600.258 46.7152C660.046 18.421 733.198 28.8019 782.97 76.7249L785.954 79.6643L786.253 79.9754C849.035 143.979 848.52 247.166 784.037 310.384L784.043 310.391L722.951 370.328L722.945 370.321C719.576 373.63 716.093 376.752 712.52 379.705C717.843 398.748 721.078 419.365 721.078 441.425V441.641C721.078 441.706 721.072 441.773 721.072 441.838C721.072 441.975 721.078 442.113 721.078 442.251L721.053 446.307H774.939C846.859 446.307 913.282 480.113 955.747 537.594L957.753 540.349L958.255 541.047L960.394 544.12L960.991 544.983L961.575 545.853C1000.82 604.217 1010.71 677.912 987.966 744.748L986.004 750.506L906.044 928.793L906.006 928.863C855.944 1040.3 745.815 1112.86 623.92 1115.1L618.104 1115.15H450.368C420.768 1156.07 372.632 1182.7 318.261 1182.7H162.994C73.0279 1182.7 0.045197 1109.79 0.0383356 1019.76L0.000244141 541.708C0.000244141 451.699 72.9523 378.763 162.943 378.759H259.702C256.526 376.085 253.431 373.267 250.42 370.309L189.334 310.378C124.884 247.184 124.314 144.008 187.106 79.9818L187.125 79.9691C236.992 29.1394 312.067 17.8799 373.068 46.7089C402.417 18.1651 442.486 0.580078 486.67 0.580078ZM716.38 407.587C716.37 407.552 716.364 407.515 716.355 407.48C716.226 407.012 716.096 406.586 715.987 406.203C716.104 406.612 716.239 407.076 716.38 407.587Z" fill="#DFFF03"/>
<path d="M446.445 327.773C472.378 305.997 508.689 307.931 532.729 332.299C559.898 359.833 591.059 397.091 591.059 441.425C591.059 441.589 590.977 441.714 590.977 441.838C590.977 442.001 591.059 442.127 591.059 442.25C591.059 505.028 580.725 534.586 563.354 576.326H774.94C805.854 576.326 833.972 590.815 852.043 616.049L853.687 618.411C870.314 643.135 874.53 674.501 864.88 702.853L787.408 875.585C757.522 942.112 691.089 985.13 618.104 985.13H351.191V1019.75C351.191 1037.94 336.456 1052.68 318.261 1052.68H162.994C144.799 1052.68 130.057 1037.94 130.057 1019.75L130.019 541.707C130.019 523.513 144.755 508.778 162.949 508.777H318.223C331.023 508.778 341.847 516.309 347.28 527.01C351.026 523.305 354.942 519.311 358.441 515.894C383.302 491.65 403.062 472.098 419.857 434.023L421.419 412.571C421.83 407.22 421.832 401.993 421.832 396.972C421.914 376.391 421.994 348.19 446.445 327.773ZM195.924 986.825H285.331V574.644H195.924V986.825ZM488.282 381.006C487.788 385.123 487.749 392.119 487.749 397.182C487.708 403.686 487.665 410.398 487.171 417.313C488.775 478.481 436.291 532.368 404.513 562.994C391.176 576.002 377.34 589.505 362.974 606.875L351.204 621.077V919.276H618.117C665.207 919.275 708.058 891.569 727.363 848.636L803.68 678.792L803.692 678.786C805.709 672.323 804.265 662.361 798.544 654.375C792.986 646.638 784.385 642.193 774.959 642.193H514.013C503.063 642.193 492.768 636.714 486.676 627.616C480.544 618.478 479.352 606.913 483.508 596.787L497.995 561.921C517.219 516.109 525.205 497.13 525.205 442.219C525.205 420.154 499.767 392.738 488.282 381.006ZM646.882 170.569C659.808 157.851 680.593 158.014 693.436 171.02C706.156 183.987 705.994 204.861 692.986 217.581L631.893 277.517C625.513 283.814 617.156 286.945 608.842 286.945C600.321 286.945 591.802 283.646 585.339 277.06C572.62 264.093 572.783 243.226 585.79 230.506L646.882 170.569ZM279.935 171.02C292.696 158.012 313.569 157.843 326.495 170.563L387.581 230.5C400.589 243.22 400.757 264.093 388.038 277.06C381.575 283.647 373.05 286.939 364.529 286.939C356.214 286.939 347.858 283.809 341.478 277.511L280.392 217.574C267.384 204.854 267.217 183.987 279.935 171.02ZM486.663 130.599C504.857 130.599 519.592 145.335 519.593 163.529V254.009C519.593 272.203 504.858 286.938 486.663 286.939C468.509 286.939 453.733 272.163 453.733 254.009V163.529C453.734 145.334 468.469 130.599 486.663 130.599Z" fill="#000813"/>
</g>
<defs>
<clipPath id="clip0_262_365">
<rect width="1000" height="1182" fill="white" transform="translate(0 0.580078)"/>
</clipPath>
</defs>
</svg>
