<svg width="1000" height="1106" viewBox="0 0 1000 1106" fill="none" xmlns="http://www.w3.org/2000/svg">
<g clip-path="url(#clip0_463_119)">
<path d="M496.412 0.000976562L496.745 0.00347842C653.288 1.08937 786.8 54.6494 879.4 168.574C923.964 223.397 955.324 287.877 974.742 359.454L1000 452.562L840.783 495.042C871.138 523.616 895.795 557.655 912.83 596.696L913.579 598.43L913.586 598.444C955.745 696.78 958.57 853.715 835.416 976.753L835.418 976.755C744.851 1067.24 634.887 1104.72 496.745 1105.68L496.412 1105.68H495.211L494.88 1105.68C338.468 1104.6 205.418 1050.7 114.721 935.408L114.72 935.407C36.0728 835.428 1.21968 703.706 0.0137602 554.157L0.0100074 553.837L0 552.84L0.0100074 551.844L0.0137602 551.523C1.21977 401.972 36.0732 270.254 114.72 170.275C205.418 54.9782 338.469 1.08701 494.877 0.00347842L495.21 0.000976562H496.412Z" fill="#DFFF03"/>
<path d="M718.556 519.631C714.621 517.745 710.624 515.93 706.575 514.192C699.524 384.265 628.53 309.883 509.322 309.121C508.782 309.118 508.245 309.118 507.705 309.118C436.403 309.118 377.103 339.553 340.604 394.935L406.164 439.908C433.431 398.54 476.222 389.721 507.736 389.721C508.1 389.721 508.466 389.721 508.826 389.724C548.077 389.975 577.695 401.387 596.865 423.642C610.816 439.844 620.146 462.234 624.766 490.491C589.966 484.576 552.33 482.757 512.097 485.064C398.76 491.593 325.897 557.693 330.791 649.542C333.274 696.132 356.485 736.214 396.144 762.397C429.676 784.531 472.862 795.356 517.746 792.905C577.019 789.656 623.519 767.041 655.959 725.689C680.596 694.286 696.179 653.591 703.059 602.314C731.307 619.362 752.242 641.796 763.804 668.764C783.464 714.608 784.611 789.941 723.142 851.357C669.287 905.161 604.549 928.437 506.713 929.156C398.186 928.351 316.109 893.547 262.744 825.707C212.773 762.183 186.948 670.43 185.984 552.993C186.948 435.555 212.773 343.801 262.744 280.277C316.109 212.438 398.185 177.634 506.711 176.828C616.026 177.64 699.533 212.612 754.94 280.778C782.108 314.206 802.592 356.244 816.095 405.258L892.922 384.76C876.555 324.429 850.8 272.441 815.752 229.325C744.72 141.933 640.834 97.1531 506.979 96.2246H506.444C372.861 97.1499 270.138 142.1 201.129 229.826C139.721 307.891 108.044 416.513 106.98 552.672L106.977 552.993L106.98 553.314C108.044 689.471 139.721 798.096 201.129 876.161C270.138 963.884 372.861 1008.84 506.444 1009.76H506.979C625.741 1008.94 709.454 977.844 778.416 908.944C868.642 818.803 865.925 705.815 836.188 636.453C814.853 586.713 774.177 546.313 718.556 519.631ZM513.503 712.419C463.829 715.217 412.223 692.921 409.679 645.165C407.793 609.756 434.878 570.245 516.551 565.539C525.904 564.999 535.082 564.735 544.099 564.735C573.765 564.735 601.518 567.617 626.75 573.133C617.339 690.665 562.136 709.75 513.503 712.419Z" fill="#000813"/>
</g>
<defs>
<clipPath id="clip0_463_119">
<rect width="1000" height="1105.68" fill="white"/>
</clipPath>
</defs>
</svg>
