<svg width="1000" height="996" viewBox="0 0 1000 996" fill="none" xmlns="http://www.w3.org/2000/svg">
<g clip-path="url(#clip0_255_199)">
<path d="M141.218 880.835C141.815 880.844 142.272 881.372 142.195 881.964L127.398 996.102H1C0.447737 996.102 0 995.654 0 995.102V878.803L141.218 880.835ZM439.127 881.019C439.354 909.595 462.589 932.691 491.219 932.691C519.687 932.691 542.82 909.856 543.304 881.503L567.222 881.615C567.191 881.785 557.252 936.678 500 955.115V996.102H499.999V955.115C488.441 958.837 474.956 961.077 459.234 961.077C365.673 961.077 348.252 880.875 348.191 880.597L439.127 881.019ZM1000 995.102C1000 995.654 999.552 996.102 999 996.102H872.601L857.805 881.964C857.728 881.372 858.185 880.844 858.782 880.835L1000 878.803V995.102ZM682.334 881.02C682.562 909.596 705.796 932.691 734.426 932.691C762.893 932.69 786.026 909.856 786.511 881.504L810.428 881.615C810.384 881.856 796.023 961.077 702.441 961.077C608.881 961.077 591.459 880.878 591.398 880.597L682.334 881.02ZM999 1.02075C999.552 1.02075 1000 1.46847 1000 2.02075V802.397L873.674 746.89C873.439 746.787 873.252 746.597 873.153 746.361L686.062 298.675C685.802 298.052 685.011 297.861 684.495 298.296L500.355 453.595C500.13 453.785 500 454.065 500 454.36V880.596H499.999V454.36C499.999 454.065 499.869 453.785 499.645 453.595L315.505 298.296C314.989 297.861 314.198 298.052 313.938 298.675L126.846 746.36C126.747 746.596 126.56 746.786 126.325 746.889L0 802.396V2.02075C0 1.46849 0.447743 1.02078 1 1.02075H999Z" fill="#DFFF03"/>
</g>
<defs>
<clipPath id="clip0_255_199">
<rect width="1000" height="995" fill="white" transform="translate(0 0.979004)"/>
</clipPath>
</defs>
</svg>
