<svg width="1000" height="1131" viewBox="0 0 1000 1131" fill="none" xmlns="http://www.w3.org/2000/svg">
<g clip-path="url(#clip0_360_617)">
<path d="M620.817 0.585938C621.334 0.150667 622.124 0.34171 622.385 0.964844L745.585 295.763C745.684 295.999 745.87 296.19 746.104 296.293L936.197 379.818C937.18 380.251 936.883 381.718 935.81 381.734L736.675 384.599C736.031 384.608 735.564 385.215 735.719 385.84L752.04 451.611H1000V1130.52H767.752C767.744 1130.52 767.735 1130.52 767.727 1130.52H561.84C561.829 1130.52 561.817 1130.52 561.806 1130.52H533.134C533.125 1130.52 533.117 1130.52 533.108 1130.52H327.222C327.21 1130.52 327.199 1130.52 327.188 1130.52H0V451.611H247.959L264.28 385.84C264.435 385.215 263.968 384.608 263.324 384.599L64.1895 381.733C63.1154 381.718 62.8182 380.25 63.8018 379.817L253.895 296.293C254.129 296.19 254.315 295.999 254.414 295.763L377.614 0.964844C377.875 0.34168 378.665 0.150584 379.182 0.585938L499.354 101.936C499.727 102.249 500.272 102.249 500.645 101.936L620.817 0.585938ZM400.391 383.808C400.433 384.002 411.93 436.903 473.649 436.903C535.392 436.903 544.864 384.632 544.892 384.479L529.111 384.405C528.792 403.111 513.532 418.176 494.751 418.176C475.863 418.176 460.535 402.939 460.386 384.086L400.391 383.808ZM560.844 383.808C560.886 384.002 572.383 436.903 634.103 436.903C695.845 436.903 705.317 384.632 705.345 384.479L689.564 384.405C689.246 403.111 673.986 418.176 655.204 418.176C636.316 418.176 620.988 402.939 620.839 384.086L560.844 383.808Z" fill="white"/>
</g>
<defs>
<clipPath id="clip0_360_617">
<rect width="1000" height="1130.17" fill="white" transform="translate(0 0.349609)"/>
</clipPath>
</defs>
</svg>
