<svg width="1000" height="1131" viewBox="0 0 1000 1131" fill="none" xmlns="http://www.w3.org/2000/svg">
<g clip-path="url(#clip0_360_461)">
<path d="M620.817 0.584961C621.334 0.150081 622.124 0.341032 622.385 0.963867L745.584 295.764C745.683 296 745.869 296.19 746.104 296.293L936.197 379.818C937.18 380.251 936.883 381.717 935.81 381.733L736.674 384.6C736.03 384.609 735.563 385.216 735.718 385.841L752.04 451.612H1000V1130.52H767.739C767.735 1130.52 767.731 1130.52 767.727 1130.52H561.841C561.835 1130.52 561.829 1130.52 561.823 1130.52H533.121C533.117 1130.52 533.113 1130.52 533.108 1130.52H327.223C327.217 1130.52 327.211 1130.52 327.205 1130.52H0V451.612H247.958L264.28 385.84C264.435 385.215 263.968 384.608 263.324 384.599L64.1895 381.733C63.1155 381.718 62.8184 380.251 63.8018 379.818L253.895 296.292C254.129 296.189 254.315 295.999 254.414 295.763L377.613 0.963867C377.874 0.340984 378.664 0.150028 379.181 0.584961L499.354 101.937C499.727 102.25 500.272 102.251 500.645 101.937L620.817 0.584961ZM400.391 383.808C400.422 383.955 411.902 436.903 473.649 436.903C535.418 436.903 544.872 384.587 544.892 384.479L529.111 384.405C528.793 403.111 513.533 418.177 494.751 418.177C475.863 418.177 460.535 402.939 460.386 384.086L400.391 383.808ZM560.844 383.808C560.875 383.955 572.355 436.903 634.103 436.903C695.871 436.903 705.325 384.587 705.345 384.479L689.564 384.405C689.246 403.111 673.986 418.177 655.204 418.177C636.316 418.177 620.988 402.939 620.839 384.086L560.844 383.808Z" fill="#986DF8"/>
</g>
<defs>
<clipPath id="clip0_360_461">
<rect width="1000" height="1130.17" fill="white" transform="translate(0 0.349609)"/>
</clipPath>
</defs>
</svg>
