<svg width="1000" height="1131" viewBox="0 0 1000 1131" fill="none" xmlns="http://www.w3.org/2000/svg">
<g clip-path="url(#clip0_360_113)">
<path d="M377.613 0.962891C377.874 0.340165 378.664 0.149085 379.181 0.583984L499.354 101.936C499.726 102.25 500.271 102.25 500.644 101.936L620.817 0.584961C621.334 0.150172 622.124 0.341105 622.385 0.963867L745.583 295.763C745.682 295.999 745.869 296.189 746.104 296.292L936.197 379.818C937.181 380.251 936.883 381.718 935.809 381.733L736.674 384.599C736.03 384.608 735.563 385.214 735.718 385.839L752.04 451.611H1000V1130.52H533.121C533.117 1130.52 533.112 1130.52 533.107 1130.52H327.221C327.214 1130.52 327.207 1130.52 327.2 1130.52H0V451.611H247.958L264.28 385.838C264.435 385.213 263.968 384.607 263.324 384.598L64.1895 381.732C63.1154 381.717 62.8183 380.25 63.8018 379.817L253.894 296.292C254.128 296.189 254.315 295.999 254.414 295.763L377.613 0.962891ZM400.39 383.808C400.425 383.973 411.912 436.903 473.648 436.903C535.37 436.903 544.857 384.667 544.891 384.479L529.111 384.405C528.793 403.111 513.532 418.176 494.751 418.176C475.863 418.176 460.535 402.939 460.386 384.086L400.39 383.808ZM560.843 383.808C560.878 383.973 572.365 436.903 634.102 436.903C695.823 436.903 705.31 384.667 705.344 384.479L689.564 384.405C689.246 403.111 673.986 418.176 655.204 418.176C636.316 418.176 620.988 402.939 620.839 384.086L560.843 383.808Z" fill="#000813"/>
</g>
<defs>
<clipPath id="clip0_360_113">
<rect width="1000" height="1130.17" fill="white" transform="translate(0 0.349609)"/>
</clipPath>
</defs>
</svg>
