<svg width="1000" height="1131" viewBox="0 0 1000 1131" fill="none" xmlns="http://www.w3.org/2000/svg">
<g clip-path="url(#clip0_360_539)">
<path d="M620.816 0.584961C621.333 0.149568 622.123 0.340863 622.384 0.963867L745.583 295.764C745.682 296 745.869 296.19 746.104 296.293L936.196 379.818C937.179 380.251 936.882 381.718 935.808 381.733L736.674 384.599C736.03 384.608 735.563 385.214 735.718 385.839L752.04 451.611H1000V1130.52H767.738C767.734 1130.52 767.73 1130.52 767.726 1130.52H561.839C561.833 1130.52 561.828 1130.52 561.822 1130.52H533.12C533.116 1130.52 533.112 1130.52 533.107 1130.52H327.221C327.215 1130.52 327.21 1130.52 327.204 1130.52H0V451.611H247.958L264.28 385.839C264.435 385.214 263.967 384.608 263.323 384.599L64.1885 381.732C63.1147 381.717 62.8178 380.25 63.8008 379.817L253.894 296.292C254.128 296.189 254.315 295.999 254.414 295.763L377.613 0.963867C377.874 0.34076 378.664 0.149705 379.181 0.584961L499.354 101.936C499.726 102.249 500.27 102.249 500.643 101.936L620.816 0.584961ZM400.39 383.808C400.429 383.991 411.923 436.903 473.648 436.903C535.361 436.903 544.854 384.683 544.891 384.479L529.111 384.405C528.792 403.111 513.532 418.176 494.751 418.176C475.863 418.176 460.535 402.939 460.386 384.086L400.39 383.808ZM560.843 383.808C560.882 383.991 572.376 436.903 634.102 436.903C695.814 436.903 705.307 384.683 705.344 384.479L689.564 384.405C689.245 403.111 673.985 418.176 655.204 418.176C636.316 418.176 620.988 402.939 620.839 384.086L560.843 383.808Z" fill="#DFFF03"/>
</g>
<defs>
<clipPath id="clip0_360_539">
<rect width="1000" height="1130.17" fill="white" transform="translate(0 0.349609)"/>
</clipPath>
</defs>
</svg>
