<svg width="1000" height="1266" viewBox="0 0 1000 1266" fill="none" xmlns="http://www.w3.org/2000/svg">
<g clip-path="url(#clip0_255_213)">
<path d="M141.218 879.835C141.815 879.844 142.272 880.372 142.195 880.964L127.398 995.102H1C0.447737 995.102 0 994.654 0 994.102V877.803L141.218 879.835ZM439.127 880.019C439.354 908.595 462.589 931.691 491.219 931.691C519.687 931.691 542.82 908.856 543.304 880.503L567.222 880.615C567.191 880.785 557.252 935.678 500 954.115V995.102H499.999V954.115C488.441 957.837 474.956 960.077 459.234 960.077C365.673 960.077 348.252 879.875 348.191 879.597L439.127 880.019ZM1000 994.102C1000 994.654 999.552 995.102 999 995.102H872.601L857.805 880.964C857.728 880.372 858.185 879.844 858.782 879.835L1000 877.803V994.102ZM682.334 880.02C682.562 908.596 705.796 931.691 734.426 931.691C762.893 931.69 786.026 908.856 786.511 880.504L810.428 880.615C810.384 880.856 796.023 960.077 702.441 960.077C608.881 960.077 591.459 879.878 591.398 879.597L682.334 880.02ZM999 0.020752C999.552 0.020752 1000 0.468467 1000 1.02075V801.397L873.674 745.89C873.439 745.787 873.252 745.597 873.153 745.361L686.062 297.675C685.802 297.052 685.011 296.861 684.495 297.296L500.355 452.595C500.13 452.785 500 453.065 500 453.36V879.596H499.999V453.36C499.999 453.065 499.869 452.785 499.645 452.595L315.505 297.296C314.989 296.861 314.198 297.052 313.938 297.675L126.846 745.36C126.747 745.596 126.56 745.786 126.325 745.889L0 801.396V1.02075C0 0.468488 0.447743 0.020785 1 0.020752H999Z" fill="#986DF8"/>
<path d="M942.546 1227.2C930.059 1227.2 918.838 1224.37 908.883 1218.72C898.928 1213.06 891.039 1205.18 885.218 1195.05C879.481 1184.93 876.613 1173.2 876.613 1159.87C876.613 1146.37 879.481 1134.48 885.218 1124.18C890.955 1113.89 898.801 1105.83 908.757 1100.01C918.712 1094.19 929.975 1091.28 942.546 1091.28C954.863 1091.28 965.24 1093.9 973.677 1099.13C982.198 1104.36 988.652 1111.23 993.04 1119.75C997.511 1128.28 999.831 1137.43 1000 1147.22H960.136C959.799 1144.77 959.082 1142.03 957.985 1138.99C956.888 1135.95 955.159 1133.34 952.796 1131.14C950.434 1128.87 947.144 1127.73 942.925 1127.73C936.598 1127.73 931.493 1130.38 927.613 1135.7C923.816 1140.93 921.918 1148.82 921.918 1159.36C921.918 1170.08 923.985 1178.43 928.119 1184.42C932.253 1190.33 937.526 1193.28 943.938 1193.28C948.072 1193.28 951.278 1192.06 953.556 1189.61C955.918 1187.08 957.605 1184.3 958.618 1181.26C959.714 1178.22 960.389 1175.82 960.642 1174.04H999.367C999.367 1183.33 997.089 1192.01 992.533 1200.11C988.062 1208.21 981.608 1214.75 973.171 1219.73C964.734 1224.71 954.526 1227.2 942.546 1227.2Z" fill="#986DF8"/>
<path d="M817.094 1224.67V1093.81H863.918V1224.67H817.094ZM817.094 1083.18V1041.67H863.918V1083.18H817.094Z" fill="#986DF8"/>
<path d="M786.429 1227.45C774.364 1227.45 764.915 1226.18 758.081 1223.65C751.332 1221.04 746.439 1217.66 743.402 1213.53C740.364 1209.39 738.466 1204.84 737.707 1199.86C737.032 1194.88 736.694 1189.99 736.694 1185.18V1036.61H784.91V1178.6C784.91 1181.72 785.712 1184.67 787.315 1187.46C788.918 1190.24 793.052 1192.1 799.717 1193.03L805.032 1193.53V1223.4C802.079 1224.5 799.042 1225.42 795.92 1226.18C792.799 1227.03 789.635 1227.45 786.429 1227.45Z" fill="#986DF8"/>
<path d="M667.815 1227.19C662.5 1227.19 657.733 1226.52 653.515 1225.17C649.296 1223.82 645.542 1221.88 642.252 1219.35C639.046 1216.82 636.261 1213.74 633.899 1210.11C631.621 1206.48 629.723 1202.39 628.204 1197.84L622.383 1224.66H587.582V1036.61H636.936V1108.74C638.961 1105.37 641.366 1102.58 644.15 1100.39C646.934 1098.11 649.929 1096.34 653.135 1095.08C656.425 1093.73 659.758 1092.76 663.132 1092.17C666.507 1091.57 669.84 1091.28 673.13 1091.28C689.244 1091.28 701.731 1097.31 710.589 1109.38C719.532 1121.36 724.004 1137.68 724.004 1158.35C724.004 1172.27 721.81 1184.38 717.423 1194.67C713.12 1204.96 706.793 1212.98 698.44 1218.72C690.088 1224.37 679.879 1227.19 667.815 1227.19ZM656.172 1192.77C661.74 1192.77 666.507 1190.28 670.472 1185.31C674.438 1180.24 676.42 1171.26 676.42 1158.35C676.42 1146.2 674.438 1137.77 670.472 1133.04C666.507 1128.32 661.74 1125.95 656.172 1125.95C652.376 1125.95 649.001 1127.05 646.048 1129.24C643.18 1131.35 640.944 1134.81 639.341 1139.62C637.738 1144.35 636.936 1150.59 636.936 1158.35C636.936 1171.26 638.708 1180.24 642.252 1185.31C645.795 1190.28 650.435 1192.77 656.172 1192.77Z" fill="#986DF8"/>
<path d="M489.404 1227.2C484.089 1227.2 478.563 1226.31 472.826 1224.54C467.089 1222.68 461.731 1219.98 456.754 1216.44C451.776 1212.89 447.726 1208.59 444.605 1203.53C441.483 1198.38 439.922 1192.52 439.922 1185.94V1093.81H489.277V1179.11C489.277 1182.9 490.669 1186.11 493.453 1188.72C496.238 1191.25 500.118 1192.52 505.096 1192.52C510.074 1192.52 513.955 1191.25 516.739 1188.72C519.607 1186.11 521.042 1182.9 521.042 1179.11V1093.81H569.89V1224.66H533.444L527.622 1197.84C526.019 1206.53 522.982 1212.98 518.511 1217.2C514.039 1221.33 509.104 1224.03 503.704 1225.3C498.389 1226.56 493.622 1227.2 489.404 1227.2Z" fill="#986DF8"/>
<path d="M293.806 1265.41V1093.81H343.288V1109C345.734 1105.62 348.518 1102.8 351.64 1100.52C354.846 1098.24 358.178 1096.43 361.637 1095.08C365.097 1093.73 368.556 1092.76 372.015 1092.17C375.474 1091.58 378.722 1091.28 381.759 1091.28C390.871 1091.28 399.054 1093.68 406.31 1098.49C413.566 1103.3 419.303 1110.73 423.521 1120.77C427.739 1130.72 429.848 1143.42 429.848 1158.86C429.848 1175.48 427.317 1188.81 422.255 1198.85C417.278 1208.8 410.697 1216.02 402.513 1220.49C394.414 1224.96 385.724 1227.2 376.444 1227.2C373.744 1227.2 370.876 1226.86 367.838 1226.18C364.886 1225.51 361.891 1224.45 358.853 1223.02C355.9 1221.5 353.074 1219.6 350.374 1217.33C347.675 1214.96 345.228 1212.09 343.034 1208.72V1265.41H293.806ZM363.536 1192.01C369.02 1192.01 373.829 1189.44 377.963 1184.3C382.181 1179.06 384.29 1170.59 384.29 1158.86C384.29 1148.23 382.181 1140.09 377.963 1134.43C373.829 1128.78 369.02 1125.96 363.536 1125.96C356.365 1125.96 351.134 1129.25 347.843 1135.83C344.637 1142.32 343.034 1150 343.034 1158.86C343.034 1164.17 343.752 1169.4 345.186 1174.55C346.62 1179.61 348.814 1183.79 351.767 1187.08C354.804 1190.37 358.727 1192.01 363.536 1192.01Z" fill="#986DF8"/>
<path d="M147.659 1224.67V1093.81H196.381V1111.91C198.237 1109.13 200.6 1106.3 203.468 1103.43C206.337 1100.56 210.049 1098.16 214.605 1096.22C219.161 1094.28 224.855 1093.31 231.689 1093.31C239.366 1093.31 246.664 1094.78 253.582 1097.74C260.585 1100.69 266.28 1105.41 270.667 1111.91C275.138 1118.41 277.374 1126.97 277.374 1137.6V1224.67H228.019V1144.31C228.019 1140 226.416 1136.71 223.21 1134.44C220.004 1132.16 216.545 1131.02 212.833 1131.02C210.471 1131.02 208.024 1131.53 205.493 1132.54C203.046 1133.55 200.979 1135.07 199.292 1137.09C197.689 1139.03 196.888 1141.44 196.888 1144.31V1224.67H147.659Z" fill="#986DF8"/>
<path d="M49.4814 1227.2C44.1663 1227.2 38.6402 1226.31 32.9033 1224.54C27.1663 1222.68 21.809 1219.98 16.8313 1216.44C11.8536 1212.89 7.80398 1208.59 4.68239 1203.53C1.56079 1198.38 0 1192.52 0 1185.94V1093.81H49.3549V1179.11C49.3549 1182.9 50.7469 1186.11 53.5311 1188.72C56.3152 1191.25 60.1961 1192.52 65.1738 1192.52C70.1514 1192.52 74.0323 1191.25 76.8165 1188.72C79.6849 1186.11 81.1192 1182.9 81.1192 1179.11V1093.81H129.968V1224.66H93.5212L87.6998 1197.84C86.0969 1206.53 83.0596 1212.98 78.5882 1217.2C74.1167 1221.33 69.1812 1224.03 63.7817 1225.3C58.4666 1226.56 53.6998 1227.2 49.4814 1227.2Z" fill="#986DF8"/>
</g>
<defs>
<clipPath id="clip0_255_213">
<rect width="1000" height="1265" fill="white" transform="translate(0 0.020752)"/>
</clipPath>
</defs>
</svg>
