<svg width="1000" height="1120" viewBox="0 0 1000 1120" fill="none" xmlns="http://www.w3.org/2000/svg">
<g clip-path="url(#clip0_360_524)">
<path d="M584.363 0.655762C584.88 0.220936 585.67 0.411952 585.931 1.03467L705.324 286.726C705.423 286.963 705.609 287.152 705.844 287.255L889.957 368.154C890.94 368.586 890.643 370.053 889.569 370.069L696.731 372.843C696.088 372.853 695.621 373.459 695.775 374.083L713.044 443.672C713.157 444.127 713.57 444.442 714.038 444.431L801.814 442.363C802.559 442.346 803.061 443.12 802.74 443.792L745.527 563.85C745.312 564.302 745.464 564.844 745.884 565.118L833.898 622.539C834.249 622.768 834.706 622.754 835.042 622.503L929.751 551.936C930.239 551.573 930.936 551.726 931.227 552.26L1000.04 678.732C1000.28 679.174 1000.16 679.725 999.749 680.02L844.383 792.332C844.092 792.541 843.712 792.58 843.386 792.432L787.41 767.154C786.634 766.804 785.803 767.522 786.037 768.34L842.906 967.18C843.089 967.819 842.61 968.455 841.945 968.456H638.104C637.551 968.456 637.104 968.903 637.104 969.456V1005.88C637.104 1006.15 637.213 1006.41 637.406 1006.6L727.401 1094.13C728.045 1094.76 727.602 1095.85 726.704 1095.85H527.25C526.698 1095.85 526.25 1095.4 526.25 1094.85V969.456C526.25 968.904 525.802 968.456 525.25 968.456H394.885C394.45 968.456 394.064 968.737 393.932 969.152L381.862 1007.04C381.78 1007.3 381.806 1007.58 381.933 1007.82L441.114 1118.54C441.537 1119.33 440.784 1120.23 439.929 1119.96L354.556 1092.76L249.885 1059.42C249.359 1059.25 249.068 1058.69 249.235 1058.16L277.397 969.758C277.602 969.114 277.122 968.456 276.445 968.456H92.6426C91.9736 968.455 91.4935 967.811 91.6846 967.169L164.611 722.522C164.833 721.777 164.156 721.073 163.403 721.267L124.929 731.179C124.429 731.308 124.109 731.796 124.19 732.305L134.729 798.338C134.814 798.875 134.456 799.382 133.922 799.48L11.8818 821.97C11.2892 822.079 10.7354 821.643 10.7021 821.042L-0.158203 622.738C-0.18324 622.277 0.109457 621.859 0.550781 621.726L188.307 564.976C188.892 564.799 189.183 564.142 188.92 563.589L131.832 443.792C131.512 443.12 132.014 442.345 132.759 442.363L220.533 444.431C221.001 444.442 221.415 444.127 221.527 443.672L238.797 374.083C238.951 373.459 238.484 372.853 237.841 372.843L45.0029 370.069C43.929 370.053 43.632 368.586 44.6152 368.154L228.728 287.255C228.962 287.152 229.148 286.963 229.247 286.726L348.641 1.03467C348.901 0.411939 349.692 0.220951 350.208 0.655762L466.641 98.8521C467.013 99.1661 467.558 99.1661 467.931 98.8521L584.363 0.655762ZM370.727 372.066C370.741 372.131 381.839 423.531 441.734 423.531C501.614 423.531 510.772 372.809 510.788 372.717L495.491 372.646C495.182 390.776 480.392 405.378 462.188 405.378C443.879 405.378 429.023 390.609 428.878 372.335L370.727 372.066ZM526.25 372.066C526.264 372.131 537.363 423.531 597.258 423.531C657.137 423.531 666.295 372.809 666.312 372.717L651.015 372.646C650.705 390.776 635.915 405.378 617.711 405.378C599.403 405.378 584.546 390.609 584.401 372.335L526.25 372.066Z" fill="#DFFF03"/>
</g>
<defs>
<clipPath id="clip0_360_524">
<rect width="1000" height="1119.59" fill="white" transform="translate(0 0.419922)"/>
</clipPath>
</defs>
</svg>
