<svg width="1000" height="1120" viewBox="0 0 1000 1120" fill="none" xmlns="http://www.w3.org/2000/svg">
<g clip-path="url(#clip0_360_446)">
<path d="M584.364 0.657227C584.881 0.221836 585.671 0.412169 585.932 1.03516L705.324 286.727C705.423 286.963 705.609 287.154 705.844 287.257L889.957 368.154C890.94 368.587 890.643 370.054 889.569 370.069L696.731 372.844C696.088 372.853 695.62 373.46 695.775 374.085L713.044 443.673C713.157 444.127 713.57 444.443 714.038 444.432L801.815 442.363C802.56 442.346 803.062 443.12 802.741 443.793L745.527 563.851C745.312 564.303 745.464 564.845 745.884 565.118L833.898 622.539C834.249 622.768 834.706 622.754 835.042 622.504L929.752 551.938C930.24 551.574 930.937 551.727 931.228 552.262L1000.04 678.732C1000.28 679.174 1000.16 679.727 999.749 680.021L844.384 792.333C844.094 792.543 843.713 792.582 843.387 792.435L787.411 767.154C786.635 766.804 785.804 767.522 786.038 768.341L842.907 967.181C843.09 967.819 842.61 968.456 841.946 968.456H638.104C637.551 968.456 637.104 968.904 637.104 969.456V1005.88C637.104 1006.15 637.213 1006.41 637.406 1006.6L727.401 1094.13C728.044 1094.76 727.602 1095.85 726.704 1095.85H527.251C526.699 1095.85 526.251 1095.4 526.251 1094.85V969.456C526.251 968.904 525.803 968.456 525.251 968.456H394.887C394.451 968.456 394.066 968.738 393.934 969.152L381.863 1007.04C381.782 1007.3 381.807 1007.58 381.934 1007.82L441.115 1118.54C441.538 1119.33 440.785 1120.23 439.93 1119.96L354.556 1092.76L249.885 1059.42C249.359 1059.25 249.068 1058.69 249.235 1058.16L277.397 969.76C277.603 969.115 277.122 968.456 276.445 968.456H92.6426C91.9737 968.456 91.4937 967.811 91.6846 967.17L164.611 722.523C164.834 721.778 164.157 721.075 163.403 721.27L124.93 731.18C124.43 731.308 124.11 731.796 124.191 732.306L134.729 798.341C134.815 798.877 134.457 799.383 133.923 799.481L11.8828 821.971C11.2902 822.08 10.7363 821.644 10.7031 821.042L-0.158203 622.738C-0.183343 622.278 0.109429 621.86 0.550781 621.727L188.308 564.978C188.893 564.8 189.184 564.142 188.921 563.59L131.832 443.793C131.512 443.12 132.014 442.346 132.759 442.363L220.534 444.432C221.002 444.443 221.415 444.127 221.528 443.673L238.797 374.085C238.952 373.46 238.485 372.853 237.841 372.844L45.0039 370.069C43.93 370.053 43.633 368.587 44.6162 368.154L228.729 287.257C228.963 287.154 229.149 286.963 229.248 286.727L348.642 1.03516C348.902 0.412137 349.693 0.221827 350.209 0.657227L466.642 98.8525C467.014 99.1664 467.559 99.1665 467.932 98.8525L584.364 0.657227ZM370.728 372.066C370.759 372.213 381.888 423.531 441.735 423.531C501.583 423.531 510.763 372.861 510.789 372.718L495.492 372.646C495.183 390.777 480.392 405.379 462.188 405.379C443.88 405.379 429.023 390.61 428.878 372.336L370.728 372.066ZM526.251 372.066C526.283 372.213 537.411 423.531 597.259 423.531C657.107 423.531 666.287 372.861 666.312 372.718L651.016 372.646C650.706 390.777 635.915 405.379 617.711 405.379C599.403 405.379 584.546 390.61 584.401 372.336L526.251 372.066Z" fill="#986DF8"/>
</g>
<defs>
<clipPath id="clip0_360_446">
<rect width="1000" height="1119.59" fill="white" transform="translate(0 0.419922)"/>
</clipPath>
</defs>
</svg>
