<svg width="1000" height="1120" viewBox="0 0 1000 1120" fill="none" xmlns="http://www.w3.org/2000/svg">
<g clip-path="url(#clip0_360_97)">
<path d="M584.364 0.65625C584.881 0.221349 585.671 0.412204 585.932 1.03516L705.324 286.728C705.423 286.964 705.609 287.154 705.844 287.257L889.957 368.154C890.94 368.587 890.643 370.053 889.569 370.069L696.731 372.845C696.088 372.854 695.621 373.46 695.775 374.085L713.044 443.673C713.157 444.127 713.57 444.443 714.038 444.432L801.815 442.364C802.56 442.347 803.062 443.121 802.741 443.794L745.527 563.852C745.312 564.304 745.464 564.845 745.884 565.119L833.898 622.54C834.249 622.769 834.706 622.755 835.042 622.505L929.752 551.938C930.24 551.574 930.937 551.727 931.228 552.262L1000.04 678.732C1000.28 679.174 1000.16 679.726 999.749 680.021L844.384 792.333C844.094 792.543 843.713 792.581 843.387 792.434L787.411 767.155C786.635 766.805 785.804 767.523 786.038 768.342L842.906 967.182C843.089 967.82 842.609 968.457 841.945 968.457H638.104C637.551 968.457 637.104 968.905 637.104 969.457V1005.88C637.104 1006.15 637.213 1006.41 637.406 1006.6L727.401 1094.13C728.044 1094.76 727.601 1095.85 726.704 1095.85H527.251C526.699 1095.85 526.251 1095.4 526.251 1094.85V969.457C526.251 968.905 525.803 968.458 525.251 968.457H394.886C394.45 968.457 394.065 968.739 393.933 969.153L381.863 1007.04C381.781 1007.3 381.806 1007.58 381.934 1007.82L441.115 1118.54C441.538 1119.33 440.785 1120.23 439.93 1119.96L354.556 1092.76L249.885 1059.42C249.359 1059.25 249.068 1058.69 249.235 1058.16L277.397 969.76C277.603 969.115 277.122 968.458 276.445 968.457H92.6426C91.9736 968.457 91.4935 967.812 91.6846 967.171L164.611 722.523C164.834 721.778 164.156 721.075 163.403 721.269L124.93 731.18C124.43 731.308 124.11 731.796 124.191 732.306L134.729 798.34C134.814 798.876 134.456 799.383 133.922 799.481L11.8828 821.971C11.2902 822.08 10.7364 821.644 10.7031 821.042L-0.158203 622.739C-0.183425 622.279 0.109333 621.861 0.550781 621.728L188.308 564.978C188.893 564.8 189.184 564.143 188.921 563.591L131.832 443.794C131.511 443.121 132.014 442.347 132.759 442.364L220.534 444.432C221.002 444.442 221.416 444.127 221.528 443.673L238.797 374.085C238.952 373.46 238.484 372.854 237.841 372.845L45.0039 370.069C43.93 370.053 43.6329 368.587 44.6162 368.154L228.729 287.257C228.963 287.154 229.149 286.964 229.248 286.728L348.642 1.03516C348.902 0.412144 349.693 0.221192 350.209 0.65625L466.642 98.8535C467.014 99.1673 467.559 99.1675 467.932 98.8535L584.364 0.65625ZM370.728 372.067C370.779 372.303 381.94 423.532 441.735 423.532C501.562 423.532 510.757 372.897 510.789 372.719L495.491 372.647C495.181 390.777 480.391 405.379 462.188 405.379C443.88 405.379 429.023 390.61 428.878 372.337L370.728 372.067ZM526.251 372.067C526.302 372.303 537.463 423.532 597.259 423.532C657.086 423.532 666.28 372.897 666.312 372.719L651.015 372.647C650.705 390.777 635.915 405.379 617.711 405.379C599.403 405.379 584.547 390.61 584.401 372.337L526.251 372.067Z" fill="#000813"/>
</g>
<defs>
<clipPath id="clip0_360_97">
<rect width="1000" height="1119.59" fill="white" transform="translate(0 0.419922)"/>
</clipPath>
</defs>
</svg>
