<svg width="1000" height="1120" viewBox="0 0 1000 1120" fill="none" xmlns="http://www.w3.org/2000/svg">
<g clip-path="url(#clip0_360_602)">
<path d="M584.364 0.655273C584.88 0.220264 585.671 0.411412 585.932 1.03418L705.325 286.726C705.424 286.962 705.61 287.153 705.845 287.256L889.957 368.152C890.941 368.585 890.643 370.053 889.569 370.068L696.731 372.843C696.088 372.852 695.621 373.459 695.775 374.084L713.045 443.673C713.158 444.127 713.571 444.443 714.039 444.432L801.815 442.362C802.56 442.345 803.061 443.12 802.741 443.793L745.528 563.85C745.313 564.302 745.465 564.843 745.885 565.117L833.899 622.539C834.25 622.768 834.707 622.753 835.043 622.503L929.752 551.937C930.24 551.573 930.937 551.726 931.228 552.26L1000.04 678.731C1000.28 679.173 1000.16 679.725 999.749 680.02L844.384 792.332C844.093 792.542 843.713 792.58 843.387 792.433L787.411 767.153C786.635 766.803 785.804 767.521 786.038 768.34L842.907 967.18C843.09 967.818 842.611 968.455 841.946 968.455H638.104C637.551 968.455 637.104 968.903 637.104 969.455V1005.88C637.104 1006.15 637.213 1006.41 637.406 1006.6L727.402 1094.13C728.046 1094.76 727.603 1095.85 726.705 1095.85H527.251C526.699 1095.85 526.251 1095.4 526.251 1094.85V969.455C526.251 968.903 525.803 968.455 525.251 968.455H394.886C394.451 968.455 394.065 968.737 393.933 969.151L381.863 1007.04C381.781 1007.3 381.807 1007.58 381.934 1007.82L441.115 1118.54C441.538 1119.33 440.785 1120.23 439.93 1119.96L354.556 1092.76L249.885 1059.42C249.359 1059.25 249.068 1058.69 249.235 1058.16L277.397 969.759C277.603 969.114 277.122 968.455 276.445 968.455H92.6426C91.9737 968.455 91.4938 967.811 91.6846 967.17L164.611 722.521C164.833 721.776 164.156 721.074 163.403 721.268L124.93 731.179C124.43 731.307 124.11 731.795 124.191 732.305L134.729 798.339C134.815 798.875 134.457 799.381 133.923 799.479L11.8828 821.97C11.29 822.079 10.7361 821.643 10.7031 821.041L-0.158203 622.737C-0.183009 622.277 0.109611 621.859 0.550781 621.726L188.308 564.977C188.893 564.799 189.184 564.141 188.921 563.589L131.832 443.793C131.512 443.12 132.014 442.345 132.759 442.362L220.534 444.432C221.002 444.443 221.415 444.127 221.528 443.673L238.797 374.084C238.952 373.459 238.484 372.852 237.841 372.843L45.0039 370.068C43.9299 370.053 43.6327 368.585 44.6162 368.152L228.729 287.256C228.963 287.153 229.149 286.962 229.248 286.726L348.642 1.03418C348.902 0.411421 349.693 0.220257 350.209 0.655273L466.642 98.8516C467.014 99.1657 467.559 99.1657 467.932 98.8516L584.364 0.655273ZM370.728 372.065C370.734 372.095 381.819 423.53 441.735 423.53C501.659 423.53 510.786 372.733 510.789 372.717L495.492 372.646C495.183 390.776 480.392 405.379 462.188 405.379C443.879 405.379 429.022 390.609 428.878 372.335L370.728 372.065ZM526.251 372.065C526.257 372.095 537.343 423.53 597.259 423.53C657.182 423.53 666.31 372.733 666.312 372.717L651.016 372.646C650.706 390.776 635.915 405.379 617.711 405.379C599.403 405.379 584.546 390.609 584.401 372.335L526.251 372.065Z" fill="white"/>
</g>
<defs>
<clipPath id="clip0_360_602">
<rect width="1000" height="1119.59" fill="white" transform="translate(0 0.419922)"/>
</clipPath>
</defs>
</svg>
