<svg width="65" height="65" viewBox="0 0 65 65" fill="none" xmlns="http://www.w3.org/2000/svg">
<g clip-path="url(#clip0_355_127)">
<path d="M9.13965 56.5055C9.17741 56.5064 9.20669 56.5403 9.20215 56.5778L8.25488 63.8874H0.15918C0.123927 63.8874 0.0949172 63.8591 0.0947266 63.8239V56.3747L9.13965 56.5055ZM28.2188 56.5153C28.2324 58.346 29.7209 59.8254 31.5547 59.8258C33.3784 59.8258 34.8594 58.363 34.8896 56.5465L36.4229 56.5544C36.4229 56.5544 35.7891 60.0753 32.1182 61.2585V63.8874H32.1172V61.2594C31.377 61.4978 30.5138 61.6442 29.5068 61.6442C23.5362 61.6441 22.4073 56.5438 22.3955 56.4899L28.2188 56.5153ZM64.1396 63.8239C64.1395 63.8591 64.1104 63.8874 64.0752 63.8874H55.9805L55.0342 56.5778C55.0296 56.5401 55.0586 56.5061 55.0967 56.5055L64.1396 56.3747V63.8239ZM43.7939 56.5163C43.8081 58.3466 45.2973 59.8256 47.1309 59.8258C48.9545 59.8258 50.4346 58.3629 50.4648 56.5465L52 56.5544C52 56.5544 51.086 61.6439 45.084 61.6442C39.1099 61.6441 37.9822 56.5381 37.9717 56.4899L43.7939 56.5163ZM64.0752 0.157867C64.1106 0.157867 64.1396 0.18695 64.1396 0.222321V51.4801L56.0498 47.9264C56.035 47.9198 56.0229 47.9081 56.0166 47.8932L44.0352 19.2204C44.0184 19.1811 43.9675 19.1689 43.9346 19.196L32.1406 29.1422C32.1265 29.1542 32.1184 29.1725 32.1182 29.1911V56.4899H32.1172V29.1911C32.117 29.1725 32.1089 29.1542 32.0947 29.1422L20.3018 19.196C20.2689 19.1689 20.2191 19.1814 20.2021 19.2204L8.21875 47.8932C8.21241 47.9081 8.2003 47.9198 8.18555 47.9264L0.0947266 51.4801V0.222321C0.0947266 0.18695 0.123809 0.157867 0.15918 0.157867H64.0752Z" fill="white"/>
</g>
<defs>
<clipPath id="clip0_355_127">
<rect width="64.0452" height="64.0452" fill="white" transform="translate(0.0947266)"/>
</clipPath>
</defs>
</svg>
