<svg width="65" height="65" viewBox="0 0 65 65" fill="none" xmlns="http://www.w3.org/2000/svg">
<g clip-path="url(#clip0_355_106)">
<path d="M40.9053 15.0086C40.9817 14.9443 41.0988 14.9723 41.1377 15.0643L50.1846 36.7108C50.1993 36.7457 50.227 36.7736 50.2617 36.7889L63.9561 42.8065C64.1018 42.8707 64.0577 43.0883 63.8984 43.0907L49.6113 43.2967C49.5228 43.298 49.4547 43.376 49.4658 43.4637L50.1709 48.9022C50.1824 48.991 50.113 49.0702 50.0234 49.0702H14.0205C13.931 49.0702 13.8615 48.991 13.873 48.9022L14.5781 43.4637C14.5892 43.3761 14.522 43.2982 14.4336 43.2967L0.146484 43.0907C-0.0129233 43.0884 -0.0570168 42.8707 0.0888672 42.8065L13.7832 36.7889C13.8179 36.7736 13.8456 36.7457 13.8604 36.7108L22.9062 15.0643C22.945 14.9722 23.0622 14.9443 23.1387 15.0086L31.9268 22.4198C31.982 22.4663 32.0629 22.4663 32.1182 22.4198L40.9053 15.0086ZM24.625 43.287C24.6308 43.3138 25.485 47.2074 30.0342 47.2079C34.5719 47.2079 35.2864 43.3832 35.2949 43.3368L34.1279 43.3309C34.1044 44.712 32.9795 45.825 31.5928 45.825C30.1982 45.8249 29.0677 44.6994 29.0566 43.3075L24.625 43.287ZM36.4727 43.287C36.4785 43.3138 37.3325 47.2075 41.8818 47.2079C46.4205 47.2079 47.1343 43.3818 47.1426 43.3368L45.9756 43.3309C45.952 44.712 44.8271 45.825 43.4404 45.825C42.0458 45.825 40.9154 44.6995 40.9043 43.3075L36.4727 43.287Z" fill="#000813"/>
</g>
<defs>
<clipPath id="clip0_355_106">
<rect width="64.0452" height="64.0452" fill="white"/>
</clipPath>
</defs>
</svg>
