<svg width="65" height="65" viewBox="0 0 65 65" fill="none" xmlns="http://www.w3.org/2000/svg">
<g clip-path="url(#clip0_355_117)">
<path d="M40.9551 15.0086C41.0316 14.9443 41.1487 14.9722 41.1875 15.0643L50.2334 36.7098C50.2481 36.745 50.2766 36.7736 50.3115 36.7889L64.0059 42.8055C64.1517 42.8697 64.1075 43.0882 63.9482 43.0907L49.6611 43.2957C49.5725 43.297 49.5043 43.3758 49.5156 43.4637L50.2207 48.9022C50.2321 48.9909 50.1627 49.0691 50.0732 49.0692H14.0693C13.9799 49.0691 13.9105 48.9909 13.9219 48.9022L14.627 43.4637C14.6383 43.3759 14.5709 43.2972 14.4824 43.2957L0.195312 43.0907C0.0358677 43.0884 -0.00829521 42.8697 0.137695 42.8055L13.832 36.7889C13.8669 36.7736 13.8945 36.7449 13.9092 36.7098L22.9551 15.0643C22.9939 14.9721 23.1119 14.9441 23.1885 15.0086L31.9756 22.4198C32.0308 22.4662 32.1117 22.4661 32.167 22.4198L40.9551 15.0086ZM24.6738 43.286C24.6769 43.3 25.5257 47.2058 30.083 47.2059C34.627 47.2057 35.3362 43.3716 35.3428 43.3358L34.1748 43.3299C34.1515 44.7113 33.0266 45.8241 31.6396 45.8241C30.2452 45.8237 29.1143 44.6984 29.1035 43.3065L24.6738 43.286ZM36.5225 43.286C36.5259 43.3017 37.3753 47.2058 41.9316 47.2059C46.476 47.2057 47.185 43.371 47.1914 43.3358L46.0244 43.3299C46.0011 44.7112 44.877 45.8239 43.4902 45.8241C42.0956 45.8239 40.964 44.6986 40.9531 43.3065L36.5225 43.286Z" fill="#986DF8"/>
</g>
<defs>
<clipPath id="clip0_355_117">
<rect width="64.0452" height="64.0452" fill="white" transform="translate(0.0488281)"/>
</clipPath>
</defs>
</svg>
