<svg width="65" height="65" viewBox="0 0 65 65" fill="none" xmlns="http://www.w3.org/2000/svg">
<g clip-path="url(#clip0_355_165)">
<path d="M9.14062 56.5055C9.17847 56.5066 9.20801 56.5401 9.20312 56.5778L8.25586 63.8874H0.15918C0.123927 63.8874 0.0949172 63.8591 0.0947266 63.8239V56.3747L9.14062 56.5055ZM64.1396 63.8239C64.1395 63.8591 64.1104 63.8874 64.0752 63.8874H55.9814L55.0342 56.5778C55.0293 56.5398 55.0584 56.5061 55.0967 56.5055L64.1396 56.3747V63.8239ZM28.2197 56.5163C28.2338 58.3467 29.7219 59.8257 31.5557 59.8258C33.3789 59.8256 34.8599 58.3635 34.8906 56.5475L36.4229 56.5553C36.4195 56.5738 35.498 61.6439 29.5068 61.6442C23.5263 61.6439 22.4035 56.5267 22.3955 56.4899L28.2197 56.5163ZM43.7949 56.5163C43.809 58.3468 45.298 59.8258 47.1318 59.8258C48.955 59.8255 50.4352 58.3634 50.4658 56.5475L52 56.5553C51.9972 56.5707 51.077 61.6439 45.084 61.6442C39.103 61.6442 37.9806 56.5267 37.9727 56.4899L43.7949 56.5163ZM64.0752 0.157867C64.1106 0.157867 64.1396 0.18695 64.1396 0.222321V51.4801L56.0498 47.9264C56.0349 47.9198 56.0229 47.9072 56.0166 47.8922L44.0352 19.2213C44.0185 19.1816 43.9676 19.1695 43.9346 19.1969L32.1592 29.1276C32.1355 29.1473 32.1009 29.1473 32.0771 29.1276L20.3018 19.1969C20.2687 19.1695 20.2189 19.1818 20.2021 19.2213L8.21973 47.8922C8.21343 47.9073 8.2014 47.9198 8.18652 47.9264L0.0947266 51.4811V0.222321C0.0947266 0.18695 0.123809 0.157867 0.15918 0.157867H64.0752Z" fill="#986DF8"/>
</g>
<defs>
<clipPath id="clip0_355_165">
<rect width="64.0452" height="64.0452" fill="white" transform="translate(0.192383)"/>
</clipPath>
</defs>
</svg>
