<svg width="1000" height="533" viewBox="0 0 1000 533" fill="none" xmlns="http://www.w3.org/2000/svg">
<g clip-path="url(#clip0_255_101)">
<path d="M638.7 1.52546C639.896 0.516718 641.728 0.959512 642.332 2.40339L783.581 340.38C783.81 340.929 784.242 341.369 784.787 341.608L998.614 435.56C1000.89 436.561 1000.2 439.962 997.715 439.998L774.632 443.213C773.248 443.233 772.19 444.455 772.368 445.828L783.376 530.745C783.555 532.132 782.475 533.36 781.077 533.36H218.916C217.518 533.36 216.438 532.132 216.618 530.745L227.626 445.828C227.803 444.455 226.745 443.233 225.361 443.213L2.28475 439.998C-0.204564 439.962 -0.89307 436.561 1.38632 435.56L215.213 341.608C215.758 341.369 216.19 340.929 216.42 340.38L357.661 2.40339C358.264 0.959541 360.096 0.516537 361.293 1.52546L498.506 117.243C499.369 117.971 500.631 117.971 501.494 117.243L638.7 1.52546ZM384.53 443.062C384.538 443.101 397.726 504.274 468.989 504.274C540.275 504.274 551.124 443.836 551.124 443.836L532.933 443.751C532.565 465.316 514.973 482.684 493.321 482.685C471.545 482.685 453.875 465.118 453.702 443.383L384.53 443.062ZM569.512 443.062C569.529 443.139 582.73 504.274 653.971 504.274C725.257 504.274 736.105 443.836 736.105 443.836L717.914 443.751C717.545 465.315 699.954 482.684 678.301 482.685C656.526 482.685 638.855 465.118 638.682 443.383L569.512 443.062Z" fill="#000813"/>
</g>
<defs>
<clipPath id="clip0_255_101">
<rect width="1000" height="532" fill="white" transform="translate(0 0.979004)"/>
</clipPath>
</defs>
</svg>
