<svg xmlns="http://www.w3.org/2000/svg" xmlns:xlink="http://www.w3.org/1999/xlink" width="1000" zoomAndPan="magnify" viewBox="0 0 750 198.749996" height="265" preserveAspectRatio="xMidYMid meet" version="1.0"><defs><g/><clipPath id="71d8086694"><path d="M 0.472656 0 L 748.722656 0 L 748.722656 198.5 L 0.472656 198.5 Z M 0.472656 0 " clip-rule="nonzero"/></clipPath><clipPath id="e5c3494ec0"><path d="M 67.886719 0 L 681.132812 0 C 718.367188 0 748.546875 30.183594 748.546875 67.414062 L 748.546875 131.085938 C 748.546875 168.316406 718.367188 198.5 681.132812 198.5 L 67.886719 198.5 C 30.652344 198.5 0.472656 168.316406 0.472656 131.085938 L 0.472656 67.414062 C 0.472656 30.183594 30.652344 0 67.886719 0 Z M 67.886719 0 " clip-rule="nonzero"/></clipPath><clipPath id="7db9fee466"><path d="M 0.472656 0 L 748.570312 0 L 748.570312 198.5 L 0.472656 198.5 Z M 0.472656 0 " clip-rule="nonzero"/></clipPath><clipPath id="30811f42f4"><path d="M 67.886719 0 L 681.132812 0 C 718.367188 0 748.546875 30.183594 748.546875 67.414062 L 748.546875 131.085938 C 748.546875 168.316406 718.367188 198.5 681.132812 198.5 L 67.886719 198.5 C 30.652344 198.5 0.472656 168.316406 0.472656 131.085938 L 0.472656 67.414062 C 0.472656 30.183594 30.652344 0 67.886719 0 Z M 67.886719 0 " clip-rule="nonzero"/></clipPath><clipPath id="bd746aa038"><rect x="0" width="749" y="0" height="199"/></clipPath><clipPath id="fea68ce30d"><rect x="0" width="203" y="0" height="89"/></clipPath><clipPath id="ea26347f8c"><path d="M 54.039062 50.113281 L 178 50.113281 L 178 129.390625 L 54.039062 129.390625 Z M 54.039062 50.113281 " clip-rule="nonzero"/></clipPath></defs><g clip-path="url(#71d8086694)"><g clip-path="url(#e5c3494ec0)"><g><g clip-path="url(#bd746aa038)"><g clip-path="url(#7db9fee466)"><g clip-path="url(#30811f42f4)"><path fill="#ffffff" d="M 0.472656 0 L 748.722656 0 L 748.722656 198.5 L 0.472656 198.5 Z M 0.472656 0 " fill-opacity="1" fill-rule="nonzero"/></g></g></g></g></g></g><g transform="matrix(1, 0, 0, 1, 210, 45)"><g clip-path="url(#fea68ce30d)"><g fill="#986df8" fill-opacity="1"><g transform="translate(0.520642, 71.672244)"><g><path d="M 20.4375 0.75 C 17.738281 0.75 15.066406 0.289062 12.421875 -0.625 C 9.773438 -1.550781 7.488281 -3.023438 5.5625 -5.046875 C 3.644531 -7.066406 2.414062 -9.726562 1.875 -13.03125 L 14.21875 -13.03125 C 14.539062 -11.78125 15.113281 -10.851562 15.9375 -10.25 C 16.769531 -9.65625 17.609375 -9.269531 18.453125 -9.09375 C 19.296875 -8.914062 19.929688 -8.828125 20.359375 -8.828125 C 21.984375 -8.828125 23.289062 -9.019531 24.28125 -9.40625 C 25.28125 -9.800781 25.78125 -10.382812 25.78125 -11.15625 C 25.78125 -11.875 25.441406 -12.4375 24.765625 -12.84375 C 24.097656 -13.257812 22.890625 -13.59375 21.140625 -13.84375 L 15.421875 -14.75 C 11.722656 -15.425781 8.738281 -16.695312 6.46875 -18.5625 C 4.195312 -20.4375 3.039062 -23.109375 3 -26.578125 C 2.96875 -28.972656 3.628906 -31.140625 4.984375 -33.078125 C 6.347656 -35.023438 8.347656 -36.570312 10.984375 -37.71875 C 13.617188 -38.875 16.820312 -39.453125 20.59375 -39.453125 C 25.875 -39.453125 30.0625 -38.300781 33.15625 -36 C 36.25 -33.707031 37.796875 -30.59375 37.796875 -26.65625 L 25.9375 -26.65625 C 25.664062 -27.820312 25.003906 -28.6875 23.953125 -29.25 C 22.910156 -29.8125 21.726562 -30.09375 20.40625 -30.09375 C 19.050781 -30.09375 17.90625 -29.890625 16.96875 -29.484375 C 16.039062 -29.085938 15.578125 -28.515625 15.578125 -27.765625 C 15.578125 -27.097656 16.023438 -26.554688 16.921875 -26.140625 C 17.816406 -25.734375 19.300781 -25.351562 21.375 -25 L 26.34375 -24.109375 C 28.84375 -23.503906 30.859375 -22.691406 32.390625 -21.671875 C 33.929688 -20.648438 35.101562 -19.546875 35.90625 -18.359375 C 36.71875 -17.171875 37.273438 -16.007812 37.578125 -14.875 C 37.878906 -13.738281 38.03125 -12.773438 38.03125 -11.984375 C 38.03125 -9.210938 37.25 -6.882812 35.6875 -5 C 34.125 -3.113281 32.015625 -1.679688 29.359375 -0.703125 C 26.703125 0.265625 23.726562 0.75 20.4375 0.75 Z M 20.4375 0.75 "/></g></g></g><g fill="#986df8" fill-opacity="1"><g transform="translate(40.605594, 71.672244)"><g><path d="M 21.375 -39.453125 C 25.019531 -39.453125 28.09375 -38.675781 30.59375 -37.125 C 33.101562 -35.582031 35.015625 -33.550781 36.328125 -31.03125 C 37.640625 -28.507812 38.316406 -25.800781 38.359375 -22.90625 L 26.578125 -22.90625 C 26.472656 -23.632812 26.257812 -24.445312 25.9375 -25.34375 C 25.613281 -26.238281 25.101562 -27.015625 24.40625 -27.671875 C 23.707031 -28.335938 22.734375 -28.671875 21.484375 -28.671875 C 19.609375 -28.671875 18.101562 -27.890625 16.96875 -26.328125 C 15.832031 -24.773438 15.265625 -22.4375 15.265625 -19.3125 C 15.265625 -16.144531 15.875 -13.679688 17.09375 -11.921875 C 18.320312 -10.160156 19.882812 -9.28125 21.78125 -9.28125 C 23.007812 -9.28125 23.960938 -9.644531 24.640625 -10.375 C 25.328125 -11.113281 25.828125 -11.929688 26.140625 -12.828125 C 26.453125 -13.734375 26.644531 -14.445312 26.71875 -14.96875 L 38.171875 -14.96875 C 38.171875 -12.226562 37.503906 -9.660156 36.171875 -7.265625 C 34.835938 -4.867188 32.921875 -2.929688 30.421875 -1.453125 C 27.929688 0.015625 24.914062 0.75 21.375 0.75 C 17.675781 0.75 14.351562 -0.0820312 11.40625 -1.75 C 8.46875 -3.425781 6.144531 -5.757812 4.4375 -8.75 C 2.726562 -11.75 1.875 -15.21875 1.875 -19.15625 C 1.875 -23.15625 2.722656 -26.675781 4.421875 -29.71875 C 6.117188 -32.757812 8.4375 -35.140625 11.375 -36.859375 C 14.320312 -38.585938 17.65625 -39.453125 21.375 -39.453125 Z M 21.375 -39.453125 "/></g></g></g><g fill="#986df8" fill-opacity="1"><g transform="translate(81.027404, 71.672244)"><g><path d="M 21.484375 0.75 C 17.492188 0.75 14.03125 -0.0976562 11.09375 -1.796875 C 8.164062 -3.492188 5.894531 -5.832031 4.28125 -8.8125 C 2.675781 -11.789062 1.875 -15.21875 1.875 -19.09375 C 1.875 -23.15625 2.710938 -26.710938 4.390625 -29.765625 C 6.078125 -32.828125 8.398438 -35.207031 11.359375 -36.90625 C 14.316406 -38.601562 17.71875 -39.453125 21.5625 -39.453125 C 25.601562 -39.453125 29.085938 -38.570312 32.015625 -36.8125 C 34.953125 -35.050781 37.210938 -32.632812 38.796875 -29.5625 C 40.378906 -26.5 41.171875 -23.007812 41.171875 -19.09375 C 41.171875 -15.25 40.363281 -11.832031 38.75 -8.84375 C 37.144531 -5.863281 34.867188 -3.519531 31.921875 -1.8125 C 28.984375 -0.101562 25.503906 0.75 21.484375 0.75 Z M 21.5625 -9.8125 C 23.101562 -9.8125 24.265625 -10.335938 25.046875 -11.390625 C 25.835938 -12.453125 26.363281 -13.742188 26.625 -15.265625 C 26.894531 -16.785156 27.03125 -18.234375 27.03125 -19.609375 C 27.03125 -21.003906 26.894531 -22.429688 26.625 -23.890625 C 26.363281 -25.359375 25.835938 -26.582031 25.046875 -27.5625 C 24.265625 -28.550781 23.101562 -29.046875 21.5625 -29.046875 C 19.988281 -29.046875 18.804688 -28.550781 18.015625 -27.5625 C 17.234375 -26.582031 16.703125 -25.359375 16.421875 -23.890625 C 16.148438 -22.429688 16.015625 -21.003906 16.015625 -19.609375 C 16.015625 -18.234375 16.148438 -16.785156 16.421875 -15.265625 C 16.703125 -13.742188 17.234375 -12.453125 18.015625 -11.390625 C 18.804688 -10.335938 19.988281 -9.8125 21.5625 -9.8125 Z M 21.5625 -9.8125 "/></g></g></g><g fill="#986df8" fill-opacity="1"><g transform="translate(123.694861, 71.672244)"><g><path d="M 18 0.75 C 16.425781 0.75 14.789062 0.484375 13.09375 -0.046875 C 11.40625 -0.585938 9.820312 -1.378906 8.34375 -2.421875 C 6.875 -3.472656 5.675781 -4.753906 4.75 -6.265625 C 3.832031 -7.773438 3.375 -9.503906 3.375 -11.453125 L 3.375 -38.703125 L 17.96875 -38.703125 L 17.96875 -13.46875 C 17.96875 -12.351562 18.378906 -11.410156 19.203125 -10.640625 C 20.023438 -9.878906 21.171875 -9.5 22.640625 -9.5 C 24.117188 -9.5 25.273438 -9.878906 26.109375 -10.640625 C 26.941406 -11.410156 27.359375 -12.351562 27.359375 -13.46875 L 27.359375 -38.703125 L 41.8125 -38.703125 L 41.8125 0 L 31.03125 0 L 29.3125 -7.9375 C 28.832031 -5.363281 27.929688 -3.457031 26.609375 -2.21875 C 25.285156 -0.988281 23.832031 -0.1875 22.25 0.1875 C 20.664062 0.5625 19.25 0.75 18 0.75 Z M 18 0.75 "/></g></g></g><g fill="#986df8" fill-opacity="1"><g transform="translate(168.869973, 71.672244)"><g><path d="M 30.390625 -28.828125 L 21.9375 -28.828125 L 22.015625 -11.296875 C 22.015625 -10.722656 22.117188 -10.285156 22.328125 -9.984375 C 22.535156 -9.691406 22.8125 -9.488281 23.15625 -9.375 C 23.507812 -9.257812 23.898438 -9.203125 24.328125 -9.203125 L 30.390625 -9.203125 L 30.390625 -0.59375 C 29.867188 -0.34375 29.03125 -0.0820312 27.875 0.1875 C 26.726562 0.457031 25 0.59375 22.6875 0.59375 C 18.613281 0.59375 15.472656 0.0859375 13.265625 -0.921875 C 11.054688 -1.929688 9.523438 -3.28125 8.671875 -4.96875 C 7.828125 -6.664062 7.40625 -8.550781 7.40625 -10.625 L 7.40625 -28.828125 L 1.125 -28.828125 L 1.125 -38.703125 L 7.9375 -38.703125 L 11.671875 -50.75 L 21.9375 -50.75 L 21.9375 -38.78125 L 30.390625 -38.78125 Z M 30.390625 -28.828125 "/></g></g></g></g></g><path fill="#000813" d="M 129.144531 65.058594 C 129.253906 64.964844 129.425781 65.003906 129.484375 65.140625 L 142.65625 96.585938 C 142.675781 96.636719 142.71875 96.679688 142.769531 96.703125 L 162.707031 105.441406 C 162.921875 105.535156 162.855469 105.851562 162.625 105.855469 L 141.820312 106.15625 C 141.691406 106.15625 141.59375 106.269531 141.609375 106.398438 L 142.636719 114.300781 C 142.652344 114.429688 142.550781 114.542969 142.421875 114.542969 L 89.996094 114.542969 C 89.867188 114.542969 89.765625 114.429688 89.78125 114.300781 L 90.808594 106.398438 C 90.824219 106.269531 90.726562 106.15625 90.597656 106.15625 L 69.792969 105.855469 C 69.5625 105.851562 69.496094 105.535156 69.710938 105.441406 L 89.652344 96.703125 C 89.703125 96.679688 89.742188 96.636719 89.761719 96.585938 L 102.933594 65.140625 C 102.992188 65.003906 103.160156 64.964844 103.273438 65.058594 L 116.070312 75.824219 C 116.148438 75.894531 116.269531 75.894531 116.347656 75.824219 Z M 105.441406 106.140625 C 105.445312 106.164062 106.683594 111.835938 113.316406 111.835938 C 119.953125 111.835938 120.972656 106.230469 120.976562 106.214844 L 119.28125 106.207031 C 119.246094 108.210938 117.605469 109.828125 115.585938 109.828125 C 113.554688 109.828125 111.90625 108.195312 111.890625 106.171875 Z M 122.691406 106.140625 C 122.695312 106.164062 123.933594 111.835938 130.566406 111.835938 C 137.203125 111.835938 138.222656 106.230469 138.226562 106.214844 L 136.53125 106.207031 C 136.496094 108.210938 134.855469 109.828125 132.835938 109.828125 C 130.804688 109.828125 129.160156 108.195312 129.140625 106.171875 Z M 122.691406 106.140625 " fill-opacity="1" fill-rule="nonzero"/><g clip-path="url(#ea26347f8c)"><path fill="#986df8" d="M 89.167969 59.398438 C 93.082031 50.058594 104.890625 47.148438 112.707031 53.523438 L 112.890625 53.675781 L 112.894531 53.675781 L 116.207031 56.46875 L 119.523438 53.675781 C 127.273438 47.15625 139.117188 49.9375 143.15625 59.179688 L 143.25 59.398438 L 154.152344 85.433594 L 168.710938 91.8125 C 183.59375 98.339844 179.109375 120.507812 162.839844 120.742188 L 156.082031 120.839844 C 153.664062 125.878906 148.503906 129.429688 142.421875 129.429688 L 89.996094 129.429688 C 83.910156 129.429688 78.753906 125.878906 76.332031 120.839844 L 69.578125 120.742188 C 53.308594 120.507812 48.824219 98.339844 63.707031 91.8125 L 78.261719 85.433594 Z M 129.484375 65.140625 C 129.425781 65.003906 129.253906 64.964844 129.144531 65.058594 L 116.347656 75.824219 L 116.207031 75.660156 L 116.210938 75.660156 L 116.347656 75.824219 L 116.332031 75.835938 C 116.257812 75.886719 116.160156 75.886719 116.085938 75.835938 L 116.070312 75.824219 L 103.273438 65.058594 C 103.160156 64.964844 102.992188 65.003906 102.933594 65.140625 L 89.761719 96.585938 C 89.742188 96.636719 89.703125 96.679688 89.652344 96.699219 L 69.710938 105.441406 C 69.496094 105.535156 69.5625 105.851562 69.792969 105.855469 L 90.597656 106.15625 C 90.726562 106.15625 90.824219 106.269531 90.808594 106.398438 L 89.78125 114.300781 C 89.765625 114.421875 89.851562 114.527344 89.972656 114.542969 L 142.421875 114.542969 C 142.550781 114.542969 142.652344 114.429688 142.636719 114.300781 L 141.609375 106.398438 C 141.59375 106.269531 141.691406 106.15625 141.820312 106.15625 L 162.625 105.855469 C 162.855469 105.851562 162.921875 105.535156 162.707031 105.441406 L 142.769531 96.699219 C 142.714844 96.679688 142.675781 96.636719 142.65625 96.585938 Z M 111.890625 106.171875 C 111.90625 108.191406 113.554688 109.828125 115.585938 109.828125 C 117.605469 109.828125 119.246094 108.210938 119.28125 106.207031 L 120.976562 106.214844 C 120.972656 106.234375 119.953125 111.835938 113.316406 111.835938 C 106.683594 111.835938 105.445312 106.167969 105.441406 106.140625 Z M 129.140625 106.171875 C 129.160156 108.191406 130.804688 109.828125 132.835938 109.828125 C 134.855469 109.828125 136.496094 108.210938 136.53125 106.207031 L 138.226562 106.214844 C 138.222656 106.234375 137.203125 111.835938 130.566406 111.835938 C 123.9375 111.835938 122.699219 106.167969 122.691406 106.140625 Z M 129.140625 106.171875 " fill-opacity="1" fill-rule="nonzero"/></g></svg>