<svg xmlns="http://www.w3.org/2000/svg" xmlns:xlink="http://www.w3.org/1999/xlink" width="1000" zoomAndPan="magnify" viewBox="0 0 750 974.999993" height="1300" preserveAspectRatio="xMidYMid meet" version="1.0"><defs><g/><clipPath id="e8729adde0"><path d="M 0 0 L 749.019531 0 L 749.019531 965 L 0 965 Z M 0 0 " clip-rule="nonzero"/></clipPath><clipPath id="401ce2d678"><path d="M 67.5 0 L 681.519531 0 C 718.796875 0 749.019531 30.222656 749.019531 67.5 L 749.019531 897.0625 C 749.019531 934.339844 718.796875 964.5625 681.519531 964.5625 L 67.5 964.5625 C 30.222656 964.5625 0 934.339844 0 897.0625 L 0 67.5 C 0 30.222656 30.222656 0 67.5 0 Z M 67.5 0 " clip-rule="nonzero"/></clipPath><clipPath id="41a6121144"><path d="M 0 0 L 749.019531 0 L 749.019531 964.800781 L 0 964.800781 Z M 0 0 " clip-rule="nonzero"/></clipPath><clipPath id="bd54eea14b"><path d="M 67.5 0 L 681.519531 0 C 718.796875 0 749.019531 30.222656 749.019531 67.5 L 749.019531 897.0625 C 749.019531 934.339844 718.796875 964.5625 681.519531 964.5625 L 67.5 964.5625 C 30.222656 964.5625 0 934.339844 0 897.0625 L 0 67.5 C 0 30.222656 30.222656 0 67.5 0 Z M 67.5 0 " clip-rule="nonzero"/></clipPath><clipPath id="d11531e82f"><rect x="0" width="750" y="0" height="965"/></clipPath><clipPath id="02bf20b3f7"><path d="M 59 214.726562 L 691 214.726562 L 691 622.085938 L 59 622.085938 Z M 59 214.726562 " clip-rule="nonzero"/></clipPath><clipPath id="370c4b9130"><rect x="0" width="266" y="0" height="123"/></clipPath></defs><g clip-path="url(#e8729adde0)"><g clip-path="url(#401ce2d678)"><g transform="matrix(1, 0, 0, 1, 0, 0.000000000000064448)"><g clip-path="url(#d11531e82f)"><g clip-path="url(#41a6121144)"><g clip-path="url(#bd54eea14b)"><path fill="#000813" d="M 0 0 L 749.019531 0 L 749.019531 965.53125 L 0 965.53125 Z M 0 0 " fill-opacity="1" fill-rule="nonzero"/></g></g></g></g></g></g><path fill="#000813" d="M 440.96875 291.511719 C 441.539062 291.027344 442.414062 291.238281 442.703125 291.929688 L 510.238281 453.523438 C 510.347656 453.785156 510.554688 453.996094 510.816406 454.113281 L 613.050781 499.03125 C 614.140625 499.511719 613.8125 501.136719 612.621094 501.152344 L 505.960938 502.691406 C 505.296875 502.699219 504.792969 503.285156 504.878906 503.941406 L 510.140625 544.542969 C 510.226562 545.203125 509.710938 545.792969 509.042969 545.792969 L 240.257812 545.792969 C 239.589844 545.792969 239.074219 545.203125 239.160156 544.542969 L 244.421875 503.941406 C 244.507812 503.285156 244.003906 502.699219 243.339844 502.691406 L 136.683594 501.152344 C 135.492188 501.136719 135.164062 499.511719 136.253906 499.03125 L 238.488281 454.113281 C 238.75 453.996094 238.953125 453.785156 239.0625 453.523438 L 306.597656 291.929688 C 306.886719 291.238281 307.761719 291.027344 308.332031 291.511719 L 373.9375 346.839844 C 374.351562 347.183594 374.953125 347.183594 375.367188 346.839844 Z M 319.441406 502.617188 C 319.46875 502.738281 325.8125 531.886719 359.824219 531.886719 C 393.851562 531.886719 399.078125 503.085938 399.09375 502.988281 L 390.398438 502.949219 C 390.21875 513.257812 381.808594 521.5625 371.457031 521.5625 C 361.046875 521.5625 352.597656 513.164062 352.515625 502.773438 Z M 407.886719 502.617188 C 407.914062 502.742188 414.257812 531.886719 448.269531 531.886719 C 482.292969 531.886719 487.519531 503.085938 487.539062 502.988281 L 478.839844 502.949219 C 478.664062 513.257812 470.253906 521.5625 459.902344 521.5625 C 449.488281 521.5625 441.039062 513.164062 440.957031 502.773438 Z M 407.886719 502.617188 " fill-opacity="1" fill-rule="nonzero"/><g clip-path="url(#02bf20b3f7)"><path fill="#ffffff" d="M 236.015625 262.425781 C 256.074219 214.4375 316.625 199.480469 356.703125 232.242188 L 357.644531 233.027344 L 357.648438 233.03125 L 374.648438 247.367188 L 391.644531 233.03125 L 391.648438 233.03125 C 431.386719 199.515625 492.105469 213.816406 512.804688 261.300781 L 513.285156 262.429688 L 513.289062 262.429688 L 569.191406 396.203125 L 643.824219 428.992188 L 643.828125 428.996094 C 720.132812 462.53125 697.132812 576.433594 613.730469 577.644531 L 613.722656 577.644531 L 579.082031 578.144531 C 566.667969 604.039062 540.230469 622.289062 509.046875 622.292969 L 240.257812 622.292969 C 209.066406 622.292969 182.628906 604.039062 170.214844 578.144531 L 135.578125 577.644531 C 52.164062 576.441406 29.171875 462.523438 105.480469 428.992188 L 180.105469 396.203125 L 236.011719 262.429688 Z M 442.703125 291.929688 C 442.414062 291.238281 441.539062 291.027344 440.964844 291.511719 L 375.363281 346.835938 L 374.648438 345.988281 L 374.652344 345.988281 L 375.363281 346.835938 L 375.285156 346.898438 C 374.90625 347.164062 374.398438 347.164062 374.015625 346.898438 L 373.9375 346.835938 L 308.332031 291.511719 C 307.757812 291.027344 306.882812 291.238281 306.59375 291.929688 L 239.0625 453.523438 C 238.953125 453.785156 238.746094 453.996094 238.488281 454.109375 L 136.253906 499.03125 C 135.164062 499.511719 135.492188 501.136719 136.683594 501.152344 L 243.339844 502.691406 C 244 502.699219 244.507812 503.285156 244.421875 503.941406 L 239.160156 544.542969 C 239.078125 545.164062 239.527344 545.71875 240.132812 545.785156 L 240.257812 545.792969 L 509.039062 545.792969 C 509.707031 545.792969 510.226562 545.203125 510.140625 544.542969 L 504.875 503.941406 C 504.792969 503.285156 505.296875 502.699219 505.960938 502.691406 L 612.621094 501.152344 C 613.808594 501.136719 614.140625 499.511719 613.050781 499.03125 L 510.816406 454.109375 C 510.554688 453.996094 510.347656 453.785156 510.238281 453.523438 Z M 352.515625 502.773438 C 352.597656 513.164062 361.046875 521.5625 371.457031 521.5625 C 381.808594 521.5625 390.21875 513.257812 390.398438 502.949219 L 399.09375 502.988281 C 399.074219 503.105469 393.835938 531.886719 359.824219 531.886719 C 325.820312 531.886719 319.472656 502.757812 319.441406 502.617188 Z M 440.957031 502.773438 C 441.039062 513.164062 449.488281 521.5625 459.902344 521.5625 C 470.253906 521.5625 478.664062 513.257812 478.839844 502.949219 L 487.535156 502.988281 C 487.515625 503.105469 482.28125 531.886719 448.265625 531.886719 C 414.265625 531.886719 407.914062 502.757812 407.886719 502.617188 Z M 440.957031 502.773438 " fill-opacity="1" fill-rule="nonzero"/></g><g transform="matrix(1, 0, 0, 1, 240, 792)"><g clip-path="url(#370c4b9130)"><g fill="#ffffff" fill-opacity="1"><g transform="translate(0.712039, 98.933824)"><g><path d="M 28.421875 1.046875 C 24.671875 1.046875 20.957031 0.40625 17.28125 -0.875 C 13.601562 -2.164062 10.425781 -4.21875 7.75 -7.03125 C 5.082031 -9.84375 3.367188 -13.535156 2.609375 -18.109375 L 19.78125 -18.109375 C 20.226562 -16.378906 21.023438 -15.097656 22.171875 -14.265625 C 23.316406 -13.429688 24.476562 -12.890625 25.65625 -12.640625 C 26.84375 -12.398438 27.726562 -12.28125 28.3125 -12.28125 C 30.570312 -12.28125 32.394531 -12.550781 33.78125 -13.09375 C 35.164062 -13.632812 35.859375 -14.441406 35.859375 -15.515625 C 35.859375 -16.515625 35.390625 -17.300781 34.453125 -17.875 C 33.523438 -18.445312 31.84375 -18.910156 29.40625 -19.265625 L 21.453125 -20.515625 C 16.316406 -21.453125 12.164062 -23.21875 9 -25.8125 C 5.84375 -28.414062 4.234375 -32.128906 4.171875 -36.953125 C 4.128906 -40.285156 5.050781 -43.304688 6.9375 -46.015625 C 8.832031 -48.722656 11.609375 -50.875 15.265625 -52.46875 C 18.929688 -54.0625 23.382812 -54.859375 28.625 -54.859375 C 35.988281 -54.859375 41.820312 -53.257812 46.125 -50.0625 C 50.425781 -46.875 52.578125 -42.539062 52.578125 -37.0625 L 36.078125 -37.0625 C 35.691406 -38.695312 34.769531 -39.90625 33.3125 -40.6875 C 31.851562 -41.46875 30.207031 -41.859375 28.375 -41.859375 C 26.5 -41.859375 24.910156 -41.578125 23.609375 -41.015625 C 22.304688 -40.460938 21.65625 -39.664062 21.65625 -38.625 C 21.65625 -37.6875 22.28125 -36.929688 23.53125 -36.359375 C 24.78125 -35.785156 26.84375 -35.253906 29.71875 -34.765625 L 36.640625 -33.515625 C 40.117188 -32.691406 42.921875 -31.566406 45.046875 -30.140625 C 47.179688 -28.710938 48.8125 -27.175781 49.9375 -25.53125 C 51.070312 -23.882812 51.847656 -22.269531 52.265625 -20.6875 C 52.679688 -19.113281 52.890625 -17.769531 52.890625 -16.65625 C 52.890625 -12.800781 51.800781 -9.5625 49.625 -6.9375 C 47.457031 -4.320312 44.523438 -2.335938 40.828125 -0.984375 C 37.140625 0.367188 33.003906 1.046875 28.421875 1.046875 Z M 28.421875 1.046875 "/></g></g></g><g fill="#ffffff" fill-opacity="1"><g transform="translate(53.339455, 98.933824)"><g><path d="M 29.71875 -54.859375 C 34.789062 -54.859375 39.066406 -53.78125 42.546875 -51.625 C 46.035156 -49.476562 48.691406 -46.648438 50.515625 -43.140625 C 52.335938 -39.640625 53.285156 -35.878906 53.359375 -31.859375 L 36.953125 -31.859375 C 36.816406 -32.859375 36.519531 -33.984375 36.0625 -35.234375 C 35.613281 -36.484375 34.90625 -37.566406 33.9375 -38.484375 C 32.96875 -39.410156 31.613281 -39.875 29.875 -39.875 C 27.269531 -39.875 25.175781 -38.785156 23.59375 -36.609375 C 22.019531 -34.441406 21.234375 -31.191406 21.234375 -26.859375 C 21.234375 -22.453125 22.082031 -19.023438 23.78125 -16.578125 C 25.488281 -14.128906 27.660156 -12.90625 30.296875 -12.90625 C 31.992188 -12.90625 33.316406 -13.414062 34.265625 -14.4375 C 35.222656 -15.46875 35.921875 -16.609375 36.359375 -17.859375 C 36.796875 -19.109375 37.066406 -20.097656 37.171875 -20.828125 L 53.09375 -20.828125 C 53.09375 -17.003906 52.164062 -13.425781 50.3125 -10.09375 C 48.457031 -6.757812 45.789062 -4.066406 42.3125 -2.015625 C 38.84375 0.0234375 34.644531 1.046875 29.71875 1.046875 C 24.582031 1.046875 19.96875 -0.113281 15.875 -2.4375 C 11.78125 -4.769531 8.546875 -8.015625 6.171875 -12.171875 C 3.796875 -16.335938 2.609375 -21.164062 2.609375 -26.65625 C 2.609375 -32.207031 3.785156 -37.097656 6.140625 -41.328125 C 8.503906 -45.566406 11.734375 -48.878906 15.828125 -51.265625 C 19.921875 -53.660156 24.550781 -54.859375 29.71875 -54.859375 Z M 29.71875 -54.859375 "/></g></g></g><g fill="#ffffff" fill-opacity="1"><g transform="translate(106.435367, 98.933824)"><g><path d="M 29.875 1.046875 C 24.320312 1.046875 19.503906 -0.128906 15.421875 -2.484375 C 11.347656 -4.847656 8.191406 -8.101562 5.953125 -12.25 C 3.722656 -16.40625 2.609375 -21.171875 2.609375 -26.546875 C 2.609375 -32.203125 3.773438 -37.15625 6.109375 -41.40625 C 8.453125 -45.65625 11.679688 -48.957031 15.796875 -51.3125 C 19.910156 -53.675781 24.640625 -54.859375 29.984375 -54.859375 C 35.609375 -54.859375 40.457031 -53.632812 44.53125 -51.1875 C 48.613281 -48.75 51.753906 -45.394531 53.953125 -41.125 C 56.160156 -36.851562 57.265625 -31.992188 57.265625 -26.546875 C 57.265625 -21.203125 56.144531 -16.457031 53.90625 -12.3125 C 51.664062 -8.164062 48.5 -4.898438 44.40625 -2.515625 C 40.3125 -0.140625 35.46875 1.046875 29.875 1.046875 Z M 29.984375 -13.640625 C 32.128906 -13.640625 33.75 -14.375 34.84375 -15.84375 C 35.9375 -17.320312 36.664062 -19.117188 37.03125 -21.234375 C 37.394531 -23.347656 37.578125 -25.363281 37.578125 -27.28125 C 37.578125 -29.21875 37.394531 -31.203125 37.03125 -33.234375 C 36.664062 -35.265625 35.9375 -36.960938 34.84375 -38.328125 C 33.75 -39.703125 32.128906 -40.390625 29.984375 -40.390625 C 27.796875 -40.390625 26.15625 -39.703125 25.0625 -38.328125 C 23.96875 -36.960938 23.226562 -35.265625 22.84375 -33.234375 C 22.46875 -31.203125 22.28125 -29.21875 22.28125 -27.28125 C 22.28125 -25.363281 22.46875 -23.347656 22.84375 -21.234375 C 23.226562 -19.117188 23.96875 -17.320312 25.0625 -15.84375 C 26.15625 -14.375 27.796875 -13.640625 29.984375 -13.640625 Z M 29.984375 -13.640625 "/></g></g></g><g fill="#ffffff" fill-opacity="1"><g transform="translate(162.654568, 98.933824)"><g><path d="M 25.03125 1.046875 C 22.851562 1.046875 20.582031 0.671875 18.21875 -0.078125 C 15.851562 -0.828125 13.644531 -1.925781 11.59375 -3.375 C 9.550781 -4.832031 7.890625 -6.613281 6.609375 -8.71875 C 5.328125 -10.820312 4.6875 -13.222656 4.6875 -15.921875 L 4.6875 -53.828125 L 24.984375 -53.828125 L 24.984375 -18.734375 C 24.984375 -17.171875 25.554688 -15.859375 26.703125 -14.796875 C 27.847656 -13.742188 29.445312 -13.21875 31.5 -13.21875 C 33.539062 -13.21875 35.140625 -13.742188 36.296875 -14.796875 C 37.460938 -15.859375 38.046875 -17.171875 38.046875 -18.734375 L 38.046875 -53.828125 L 58.140625 -53.828125 L 58.140625 0 L 43.15625 0 L 40.765625 -11.03125 C 40.097656 -7.457031 38.84375 -4.8125 37 -3.09375 C 35.164062 -1.375 33.144531 -0.253906 30.9375 0.265625 C 28.738281 0.785156 26.769531 1.046875 25.03125 1.046875 Z M 25.03125 1.046875 "/></g></g></g><g fill="#ffffff" fill-opacity="1"><g transform="translate(222.361458, 98.933824)"><g><path d="M 42.265625 -40.078125 L 30.5 -40.078125 L 30.609375 -15.71875 C 30.609375 -14.914062 30.753906 -14.304688 31.046875 -13.890625 C 31.347656 -13.484375 31.738281 -13.203125 32.21875 -13.046875 C 32.707031 -12.890625 33.242188 -12.8125 33.828125 -12.8125 L 42.265625 -12.8125 L 42.265625 -0.828125 C 41.535156 -0.484375 40.375 -0.125 38.78125 0.25 C 37.1875 0.632812 34.773438 0.828125 31.546875 0.828125 C 25.890625 0.828125 21.523438 0.125 18.453125 -1.28125 C 15.378906 -2.6875 13.253906 -4.566406 12.078125 -6.921875 C 10.898438 -9.285156 10.3125 -11.90625 10.3125 -14.78125 L 10.3125 -40.078125 L 1.5625 -40.078125 L 1.5625 -53.828125 L 11.03125 -53.828125 L 16.234375 -70.59375 L 30.5 -70.59375 L 30.5 -53.921875 L 42.265625 -53.921875 Z M 42.265625 -40.078125 "/></g></g></g></g></g></svg>