<svg xmlns="http://www.w3.org/2000/svg" xmlns:xlink="http://www.w3.org/1999/xlink" width="1000" zoomAndPan="magnify" viewBox="0 0 750 198.749996" height="265" preserveAspectRatio="xMidYMid meet" version="1.0"><defs><g/><clipPath id="78c785bb6b"><path d="M 0.472656 0 L 748.722656 0 L 748.722656 198.5 L 0.472656 198.5 Z M 0.472656 0 " clip-rule="nonzero"/></clipPath><clipPath id="db30515970"><path d="M 67.886719 0 L 681.132812 0 C 718.367188 0 748.546875 30.183594 748.546875 67.414062 L 748.546875 131.085938 C 748.546875 168.316406 718.367188 198.5 681.132812 198.5 L 67.886719 198.5 C 30.652344 198.5 0.472656 168.316406 0.472656 131.085938 L 0.472656 67.414062 C 0.472656 30.183594 30.652344 0 67.886719 0 Z M 67.886719 0 " clip-rule="nonzero"/></clipPath><clipPath id="296cb3aaa3"><path d="M 0.472656 0 L 748.570312 0 L 748.570312 198.5 L 0.472656 198.5 Z M 0.472656 0 " clip-rule="nonzero"/></clipPath><clipPath id="5b6f088fd6"><path d="M 67.886719 0 L 681.132812 0 C 718.367188 0 748.546875 30.183594 748.546875 67.414062 L 748.546875 131.085938 C 748.546875 168.316406 718.367188 198.5 681.132812 198.5 L 67.886719 198.5 C 30.652344 198.5 0.472656 168.316406 0.472656 131.085938 L 0.472656 67.414062 C 0.472656 30.183594 30.652344 0 67.886719 0 Z M 67.886719 0 " clip-rule="nonzero"/></clipPath><clipPath id="264f55a3b7"><rect x="0" width="749" y="0" height="199"/></clipPath><clipPath id="aee41182e0"><path d="M 177.277344 0 L 214.535156 0 L 214.535156 198.5 L 177.277344 198.5 Z M 177.277344 0 " clip-rule="nonzero"/></clipPath><clipPath id="a30040430e"><path d="M 0.277344 0 L 37.535156 0 L 37.535156 198.5 L 0.277344 198.5 Z M 0.277344 0 " clip-rule="nonzero"/></clipPath><clipPath id="dd0a70c35e"><rect x="0" width="38" y="0" height="199"/></clipPath><clipPath id="30dbc382ff"><rect x="0" width="203" y="0" height="89"/></clipPath><clipPath id="a3b3ff213a"><path d="M 57 57.71875 L 177 57.71875 L 177 134.75 L 57 134.75 Z M 57 57.71875 " clip-rule="nonzero"/></clipPath></defs><g clip-path="url(#78c785bb6b)"><g clip-path="url(#db30515970)"><g><g clip-path="url(#264f55a3b7)"><g clip-path="url(#296cb3aaa3)"><g clip-path="url(#5b6f088fd6)"><path fill="#986df8" d="M 0.472656 0 L 748.722656 0 L 748.722656 198.5 L 0.472656 198.5 Z M 0.472656 0 " fill-opacity="1" fill-rule="nonzero"/></g></g></g></g></g></g><g clip-path="url(#aee41182e0)"><g transform="matrix(1, 0, 0, 1, 177, 0)"><g clip-path="url(#dd0a70c35e)"><g clip-path="url(#a30040430e)"><path fill="#dfff03" d="M 37.535156 0 L 37.535156 198.511719 L 0.277344 198.511719 L 0.277344 0 Z M 37.535156 0 " fill-opacity="1" fill-rule="nonzero"/></g></g></g></g><g transform="matrix(1, 0, 0, 1, 210, 45)"><g clip-path="url(#30dbc382ff)"><g fill="#000813" fill-opacity="1"><g transform="translate(0.520642, 71.672244)"><g><path d="M 20.4375 0.75 C 17.738281 0.75 15.066406 0.289062 12.421875 -0.625 C 9.773438 -1.550781 7.488281 -3.023438 5.5625 -5.046875 C 3.644531 -7.066406 2.414062 -9.726562 1.875 -13.03125 L 14.21875 -13.03125 C 14.539062 -11.78125 15.113281 -10.851562 15.9375 -10.25 C 16.769531 -9.65625 17.609375 -9.269531 18.453125 -9.09375 C 19.296875 -8.914062 19.929688 -8.828125 20.359375 -8.828125 C 21.984375 -8.828125 23.289062 -9.019531 24.28125 -9.40625 C 25.28125 -9.800781 25.78125 -10.382812 25.78125 -11.15625 C 25.78125 -11.875 25.441406 -12.4375 24.765625 -12.84375 C 24.097656 -13.257812 22.890625 -13.59375 21.140625 -13.84375 L 15.421875 -14.75 C 11.722656 -15.425781 8.738281 -16.695312 6.46875 -18.5625 C 4.195312 -20.4375 3.039062 -23.109375 3 -26.578125 C 2.96875 -28.972656 3.628906 -31.140625 4.984375 -33.078125 C 6.347656 -35.023438 8.347656 -36.570312 10.984375 -37.71875 C 13.617188 -38.875 16.820312 -39.453125 20.59375 -39.453125 C 25.875 -39.453125 30.0625 -38.300781 33.15625 -36 C 36.25 -33.707031 37.796875 -30.59375 37.796875 -26.65625 L 25.9375 -26.65625 C 25.664062 -27.820312 25.003906 -28.6875 23.953125 -29.25 C 22.910156 -29.8125 21.726562 -30.09375 20.40625 -30.09375 C 19.050781 -30.09375 17.90625 -29.890625 16.96875 -29.484375 C 16.039062 -29.085938 15.578125 -28.515625 15.578125 -27.765625 C 15.578125 -27.097656 16.023438 -26.554688 16.921875 -26.140625 C 17.816406 -25.734375 19.300781 -25.351562 21.375 -25 L 26.34375 -24.109375 C 28.84375 -23.503906 30.859375 -22.691406 32.390625 -21.671875 C 33.929688 -20.648438 35.101562 -19.546875 35.90625 -18.359375 C 36.71875 -17.171875 37.273438 -16.007812 37.578125 -14.875 C 37.878906 -13.738281 38.03125 -12.773438 38.03125 -11.984375 C 38.03125 -9.210938 37.25 -6.882812 35.6875 -5 C 34.125 -3.113281 32.015625 -1.679688 29.359375 -0.703125 C 26.703125 0.265625 23.726562 0.75 20.4375 0.75 Z M 20.4375 0.75 "/></g></g></g><g fill="#000813" fill-opacity="1"><g transform="translate(40.605594, 71.672244)"><g><path d="M 21.375 -39.453125 C 25.019531 -39.453125 28.09375 -38.675781 30.59375 -37.125 C 33.101562 -35.582031 35.015625 -33.550781 36.328125 -31.03125 C 37.640625 -28.507812 38.316406 -25.800781 38.359375 -22.90625 L 26.578125 -22.90625 C 26.472656 -23.632812 26.257812 -24.445312 25.9375 -25.34375 C 25.613281 -26.238281 25.101562 -27.015625 24.40625 -27.671875 C 23.707031 -28.335938 22.734375 -28.671875 21.484375 -28.671875 C 19.609375 -28.671875 18.101562 -27.890625 16.96875 -26.328125 C 15.832031 -24.773438 15.265625 -22.4375 15.265625 -19.3125 C 15.265625 -16.144531 15.875 -13.679688 17.09375 -11.921875 C 18.320312 -10.160156 19.882812 -9.28125 21.78125 -9.28125 C 23.007812 -9.28125 23.960938 -9.644531 24.640625 -10.375 C 25.328125 -11.113281 25.828125 -11.929688 26.140625 -12.828125 C 26.453125 -13.734375 26.644531 -14.445312 26.71875 -14.96875 L 38.171875 -14.96875 C 38.171875 -12.226562 37.503906 -9.660156 36.171875 -7.265625 C 34.835938 -4.867188 32.921875 -2.929688 30.421875 -1.453125 C 27.929688 0.015625 24.914062 0.75 21.375 0.75 C 17.675781 0.75 14.351562 -0.0820312 11.40625 -1.75 C 8.46875 -3.425781 6.144531 -5.757812 4.4375 -8.75 C 2.726562 -11.75 1.875 -15.21875 1.875 -19.15625 C 1.875 -23.15625 2.722656 -26.675781 4.421875 -29.71875 C 6.117188 -32.757812 8.4375 -35.140625 11.375 -36.859375 C 14.320312 -38.585938 17.65625 -39.453125 21.375 -39.453125 Z M 21.375 -39.453125 "/></g></g></g><g fill="#000813" fill-opacity="1"><g transform="translate(81.027404, 71.672244)"><g><path d="M 21.484375 0.75 C 17.492188 0.75 14.03125 -0.0976562 11.09375 -1.796875 C 8.164062 -3.492188 5.894531 -5.832031 4.28125 -8.8125 C 2.675781 -11.789062 1.875 -15.21875 1.875 -19.09375 C 1.875 -23.15625 2.710938 -26.710938 4.390625 -29.765625 C 6.078125 -32.828125 8.398438 -35.207031 11.359375 -36.90625 C 14.316406 -38.601562 17.71875 -39.453125 21.5625 -39.453125 C 25.601562 -39.453125 29.085938 -38.570312 32.015625 -36.8125 C 34.953125 -35.050781 37.210938 -32.632812 38.796875 -29.5625 C 40.378906 -26.5 41.171875 -23.007812 41.171875 -19.09375 C 41.171875 -15.25 40.363281 -11.832031 38.75 -8.84375 C 37.144531 -5.863281 34.867188 -3.519531 31.921875 -1.8125 C 28.984375 -0.101562 25.503906 0.75 21.484375 0.75 Z M 21.5625 -9.8125 C 23.101562 -9.8125 24.265625 -10.335938 25.046875 -11.390625 C 25.835938 -12.453125 26.363281 -13.742188 26.625 -15.265625 C 26.894531 -16.785156 27.03125 -18.234375 27.03125 -19.609375 C 27.03125 -21.003906 26.894531 -22.429688 26.625 -23.890625 C 26.363281 -25.359375 25.835938 -26.582031 25.046875 -27.5625 C 24.265625 -28.550781 23.101562 -29.046875 21.5625 -29.046875 C 19.988281 -29.046875 18.804688 -28.550781 18.015625 -27.5625 C 17.234375 -26.582031 16.703125 -25.359375 16.421875 -23.890625 C 16.148438 -22.429688 16.015625 -21.003906 16.015625 -19.609375 C 16.015625 -18.234375 16.148438 -16.785156 16.421875 -15.265625 C 16.703125 -13.742188 17.234375 -12.453125 18.015625 -11.390625 C 18.804688 -10.335938 19.988281 -9.8125 21.5625 -9.8125 Z M 21.5625 -9.8125 "/></g></g></g><g fill="#000813" fill-opacity="1"><g transform="translate(123.694861, 71.672244)"><g><path d="M 18 0.75 C 16.425781 0.75 14.789062 0.484375 13.09375 -0.046875 C 11.40625 -0.585938 9.820312 -1.378906 8.34375 -2.421875 C 6.875 -3.472656 5.675781 -4.753906 4.75 -6.265625 C 3.832031 -7.773438 3.375 -9.503906 3.375 -11.453125 L 3.375 -38.703125 L 17.96875 -38.703125 L 17.96875 -13.46875 C 17.96875 -12.351562 18.378906 -11.410156 19.203125 -10.640625 C 20.023438 -9.878906 21.171875 -9.5 22.640625 -9.5 C 24.117188 -9.5 25.273438 -9.878906 26.109375 -10.640625 C 26.941406 -11.410156 27.359375 -12.351562 27.359375 -13.46875 L 27.359375 -38.703125 L 41.8125 -38.703125 L 41.8125 0 L 31.03125 0 L 29.3125 -7.9375 C 28.832031 -5.363281 27.929688 -3.457031 26.609375 -2.21875 C 25.285156 -0.988281 23.832031 -0.1875 22.25 0.1875 C 20.664062 0.5625 19.25 0.75 18 0.75 Z M 18 0.75 "/></g></g></g><g fill="#000813" fill-opacity="1"><g transform="translate(168.869973, 71.672244)"><g><path d="M 30.390625 -28.828125 L 21.9375 -28.828125 L 22.015625 -11.296875 C 22.015625 -10.722656 22.117188 -10.285156 22.328125 -9.984375 C 22.535156 -9.691406 22.8125 -9.488281 23.15625 -9.375 C 23.507812 -9.257812 23.898438 -9.203125 24.328125 -9.203125 L 30.390625 -9.203125 L 30.390625 -0.59375 C 29.867188 -0.34375 29.03125 -0.0820312 27.875 0.1875 C 26.726562 0.457031 25 0.59375 22.6875 0.59375 C 18.613281 0.59375 15.472656 0.0859375 13.265625 -0.921875 C 11.054688 -1.929688 9.523438 -3.28125 8.671875 -4.96875 C 7.828125 -6.664062 7.40625 -8.550781 7.40625 -10.625 L 7.40625 -28.828125 L 1.125 -28.828125 L 1.125 -38.703125 L 7.9375 -38.703125 L 11.671875 -50.75 L 21.9375 -50.75 L 21.9375 -38.78125 L 30.390625 -38.78125 Z M 30.390625 -28.828125 "/></g></g></g></g></g><path fill="#000813" d="M 129.796875 72.238281 C 129.90625 72.144531 130.070312 72.1875 130.125 72.316406 L 142.902344 102.875 C 142.921875 102.925781 142.960938 102.964844 143.011719 102.984375 L 162.351562 111.480469 C 162.558594 111.570312 162.496094 111.878906 162.269531 111.882812 L 142.09375 112.171875 C 141.96875 112.171875 141.871094 112.285156 141.886719 112.40625 L 142.882812 120.085938 C 142.898438 120.210938 142.800781 120.324219 142.675781 120.324219 L 91.832031 120.324219 C 91.703125 120.324219 91.605469 120.210938 91.621094 120.085938 L 92.617188 112.40625 C 92.632812 112.285156 92.539062 112.171875 92.414062 112.171875 L 72.238281 111.882812 C 72.011719 111.878906 71.949219 111.570312 72.15625 111.480469 L 91.496094 102.984375 C 91.542969 102.964844 91.582031 102.925781 91.605469 102.875 L 104.378906 72.316406 C 104.433594 72.1875 104.601562 72.144531 104.707031 72.238281 L 117.117188 82.699219 C 117.195312 82.765625 117.308594 82.765625 117.386719 82.699219 Z M 106.808594 112.15625 C 106.816406 112.179688 108.015625 117.691406 114.449219 117.691406 C 120.886719 117.691406 121.875 112.246094 121.878906 112.226562 L 120.230469 112.21875 C 120.199219 114.171875 118.609375 115.742188 116.648438 115.742188 C 114.679688 115.742188 113.082031 114.152344 113.066406 112.1875 Z M 123.539062 112.15625 C 123.546875 112.183594 124.746094 117.691406 131.179688 117.691406 C 137.617188 117.691406 138.605469 112.246094 138.609375 112.226562 L 136.960938 112.21875 C 136.929688 114.171875 135.339844 115.742188 133.378906 115.742188 C 131.410156 115.742188 129.8125 114.152344 129.796875 112.1875 Z M 123.539062 112.15625 " fill-opacity="1" fill-rule="nonzero"/><g clip-path="url(#a3b3ff213a)"><path fill="#dfff03" d="M 91.027344 66.738281 C 94.824219 57.664062 106.277344 54.835938 113.859375 61.03125 L 114.035156 61.179688 L 114.039062 61.179688 L 117.253906 63.890625 L 120.46875 61.179688 C 127.984375 54.839844 139.472656 57.546875 143.386719 66.523438 L 143.480469 66.738281 L 154.054688 92.035156 L 168.171875 98.234375 C 182.605469 104.578125 178.257812 126.117188 162.480469 126.347656 L 162.476562 126.347656 L 155.925781 126.441406 C 153.578125 131.335938 148.574219 134.789062 142.675781 134.789062 L 91.832031 134.789062 C 85.929688 134.789062 80.929688 131.335938 78.582031 126.441406 L 72.027344 126.347656 C 56.25 126.117188 51.898438 104.574219 66.335938 98.234375 L 80.453125 92.035156 Z M 130.125 72.316406 C 130.070312 72.1875 129.90625 72.144531 129.796875 72.238281 L 117.386719 82.699219 L 117.253906 82.539062 L 117.386719 82.699219 L 117.375 82.710938 C 117.300781 82.761719 117.207031 82.761719 117.132812 82.710938 L 117.117188 82.699219 L 104.707031 72.238281 C 104.601562 72.144531 104.433594 72.1875 104.378906 72.316406 L 91.605469 102.875 C 91.582031 102.925781 91.542969 102.964844 91.496094 102.984375 L 72.15625 111.480469 C 71.949219 111.570312 72.011719 111.878906 72.238281 111.882812 L 92.414062 112.171875 C 92.539062 112.171875 92.632812 112.285156 92.617188 112.40625 L 91.621094 120.085938 C 91.609375 120.203125 91.691406 120.308594 91.808594 120.320312 L 91.832031 120.324219 L 142.675781 120.324219 C 142.800781 120.324219 142.898438 120.210938 142.882812 120.085938 L 141.886719 112.40625 C 141.871094 112.285156 141.96875 112.171875 142.09375 112.171875 L 162.269531 111.882812 C 162.496094 111.878906 162.558594 111.570312 162.351562 111.480469 L 143.011719 102.984375 C 142.960938 102.964844 142.921875 102.925781 142.902344 102.875 Z M 113.066406 112.1875 C 113.082031 114.152344 114.679688 115.742188 116.648438 115.742188 C 118.605469 115.742188 120.199219 114.171875 120.230469 112.21875 L 121.878906 112.226562 C 121.875 112.25 120.882812 117.691406 114.449219 117.691406 C 108.015625 117.691406 106.816406 112.183594 106.808594 112.15625 Z M 129.796875 112.1875 C 129.8125 114.152344 131.410156 115.742188 133.378906 115.742188 C 135.339844 115.742188 136.929688 114.171875 136.960938 112.21875 L 138.609375 112.226562 C 138.605469 112.25 137.613281 117.691406 131.179688 117.691406 C 124.746094 117.691406 123.546875 112.183594 123.539062 112.15625 Z M 129.796875 112.1875 " fill-opacity="1" fill-rule="nonzero"/></g></svg>