<svg xmlns="http://www.w3.org/2000/svg" xmlns:xlink="http://www.w3.org/1999/xlink" width="1000" zoomAndPan="magnify" viewBox="0 0 750 198.749996" height="265" preserveAspectRatio="xMidYMid meet" version="1.0"><defs><g/><clipPath id="3aab2620c4"><path d="M 0.472656 0 L 748.722656 0 L 748.722656 198.5 L 0.472656 198.5 Z M 0.472656 0 " clip-rule="nonzero"/></clipPath><clipPath id="164c256835"><path d="M 67.886719 0 L 681.132812 0 C 718.367188 0 748.546875 30.183594 748.546875 67.414062 L 748.546875 131.085938 C 748.546875 168.316406 718.367188 198.5 681.132812 198.5 L 67.886719 198.5 C 30.652344 198.5 0.472656 168.316406 0.472656 131.085938 L 0.472656 67.414062 C 0.472656 30.183594 30.652344 0 67.886719 0 Z M 67.886719 0 " clip-rule="nonzero"/></clipPath><clipPath id="adcdafe9ed"><path d="M 0.472656 0 L 748.570312 0 L 748.570312 198.5 L 0.472656 198.5 Z M 0.472656 0 " clip-rule="nonzero"/></clipPath><clipPath id="399670fcc4"><path d="M 67.886719 0 L 681.132812 0 C 718.367188 0 748.546875 30.183594 748.546875 67.414062 L 748.546875 131.085938 C 748.546875 168.316406 718.367188 198.5 681.132812 198.5 L 67.886719 198.5 C 30.652344 198.5 0.472656 168.316406 0.472656 131.085938 L 0.472656 67.414062 C 0.472656 30.183594 30.652344 0 67.886719 0 Z M 67.886719 0 " clip-rule="nonzero"/></clipPath><clipPath id="8989340256"><rect x="0" width="749" y="0" height="199"/></clipPath><clipPath id="3a655679e4"><path d="M 30.542969 27.449219 L 171.363281 27.449219 L 171.363281 168.128906 L 30.542969 168.128906 Z M 30.542969 27.449219 " clip-rule="nonzero"/></clipPath></defs><g clip-path="url(#3aab2620c4)"><g clip-path="url(#164c256835)"><g><g clip-path="url(#8989340256)"><g clip-path="url(#adcdafe9ed)"><g clip-path="url(#399670fcc4)"><path fill="#986df8" d="M 0.472656 0 L 748.722656 0 L 748.722656 198.5 L 0.472656 198.5 Z M 0.472656 0 " fill-opacity="1" fill-rule="nonzero"/></g></g></g></g></g></g><g fill="#000813" fill-opacity="1"><g transform="translate(215.070583, 123.349577)"><g><path d="M 15.265625 -14.953125 C 15.242188 -13.503906 15.460938 -12.328125 15.921875 -11.421875 C 16.390625 -10.515625 17.023438 -9.847656 17.828125 -9.421875 C 18.628906 -9.003906 19.519531 -8.796875 20.5 -8.796875 C 21.738281 -8.796875 22.851562 -9.03125 23.84375 -9.5 C 24.832031 -9.96875 25.601562 -10.898438 26.15625 -12.296875 L 38.171875 -12.296875 C 37.804688 -9.617188 36.75 -7.304688 35 -5.359375 C 33.25 -3.410156 31.125 -1.910156 28.625 -0.859375 C 26.125 0.179688 23.535156 0.703125 20.859375 0.703125 C 17.109375 0.703125 13.804688 -0.0546875 10.953125 -1.578125 C 8.097656 -3.109375 5.878906 -5.25 4.296875 -8 C 2.710938 -10.75 1.921875 -13.953125 1.921875 -17.609375 C 1.921875 -21.054688 2.644531 -24.234375 4.09375 -27.140625 C 5.550781 -30.046875 7.648438 -32.382812 10.390625 -34.15625 C 13.128906 -35.925781 16.429688 -36.8125 20.296875 -36.8125 C 24.234375 -36.8125 27.515625 -35.992188 30.140625 -34.359375 C 32.773438 -32.734375 34.75 -30.503906 36.0625 -27.671875 C 37.375 -24.847656 38.03125 -21.65625 38.03125 -18.09375 L 38.03125 -14.953125 Z M 15.1875 -22.5625 L 25.5 -22.5625 C 25.5 -23.46875 25.300781 -24.3125 24.90625 -25.09375 C 24.507812 -25.875 23.925781 -26.5 23.15625 -26.96875 C 22.382812 -27.4375 21.429688 -27.671875 20.296875 -27.671875 C 19.359375 -27.671875 18.503906 -27.4375 17.734375 -26.96875 C 16.972656 -26.5 16.359375 -25.875 15.890625 -25.09375 C 15.421875 -24.3125 15.1875 -23.46875 15.1875 -22.5625 Z M 15.1875 -22.5625 "/></g></g></g><g fill="#000813" fill-opacity="1"><g transform="translate(252.027055, 123.349577)"><g><path d="M 42.1875 0 L 28.21875 0 L 21.3125 -9.578125 L 14.328125 0 L 0.34375 0 L 14.1875 -18.859375 L 1.609375 -36.125 L 15.578125 -36.125 L 21.375 -28.296875 L 27.109375 -36.125 L 41.078125 -36.125 L 28.359375 -18.859375 Z M 42.1875 0 "/></g></g></g><g fill="#000813" fill-opacity="1"><g transform="translate(294.572565, 123.349577)"><g><path d="M 3.5 11.25 L 3.5 -36.125 L 17.15625 -36.125 L 17.15625 -31.921875 C 17.820312 -32.859375 18.59375 -33.640625 19.46875 -34.265625 C 20.34375 -34.890625 21.253906 -35.390625 22.203125 -35.765625 C 23.160156 -36.140625 24.117188 -36.40625 25.078125 -36.5625 C 26.035156 -36.726562 26.929688 -36.8125 27.765625 -36.8125 C 30.285156 -36.8125 32.546875 -36.144531 34.546875 -34.8125 C 36.546875 -33.488281 38.128906 -31.445312 39.296875 -28.6875 C 40.460938 -25.9375 41.046875 -22.425781 41.046875 -18.15625 C 41.046875 -13.570312 40.351562 -9.898438 38.96875 -7.140625 C 37.582031 -4.378906 35.765625 -2.378906 33.515625 -1.140625 C 31.265625 0.0859375 28.859375 0.703125 26.296875 0.703125 C 25.554688 0.703125 24.769531 0.609375 23.9375 0.421875 C 23.113281 0.234375 22.285156 -0.0625 21.453125 -0.46875 C 20.628906 -0.875 19.84375 -1.394531 19.09375 -2.03125 C 18.351562 -2.675781 17.679688 -3.46875 17.078125 -4.40625 L 17.078125 11.25 Z M 22.734375 -9.015625 C 24.253906 -9.015625 25.585938 -9.726562 26.734375 -11.15625 C 27.890625 -12.59375 28.46875 -14.925781 28.46875 -18.15625 C 28.46875 -21.09375 27.890625 -23.34375 26.734375 -24.90625 C 25.585938 -26.46875 24.253906 -27.25 22.734375 -27.25 C 20.753906 -27.25 19.316406 -26.34375 18.421875 -24.53125 C 17.523438 -22.726562 17.078125 -20.601562 17.078125 -18.15625 C 17.078125 -16.695312 17.273438 -15.257812 17.671875 -13.84375 C 18.066406 -12.4375 18.675781 -11.28125 19.5 -10.375 C 20.332031 -9.46875 21.410156 -9.015625 22.734375 -9.015625 Z M 22.734375 -9.015625 "/></g></g></g><g fill="#000813" fill-opacity="1"><g transform="translate(337.362592, 123.349577)"><g><path d="M 20.046875 0.703125 C 16.316406 0.703125 13.082031 -0.0859375 10.34375 -1.671875 C 7.613281 -3.253906 5.5 -5.4375 4 -8.21875 C 2.5 -11.007812 1.75 -14.207031 1.75 -17.8125 C 1.75 -21.601562 2.535156 -24.925781 4.109375 -27.78125 C 5.679688 -30.632812 7.84375 -32.851562 10.59375 -34.4375 C 13.351562 -36.019531 16.53125 -36.8125 20.125 -36.8125 C 23.894531 -36.8125 27.144531 -35.988281 29.875 -34.34375 C 32.613281 -32.707031 34.722656 -30.457031 36.203125 -27.59375 C 37.679688 -24.726562 38.421875 -21.46875 38.421875 -17.8125 C 38.421875 -14.226562 37.671875 -11.046875 36.171875 -8.265625 C 34.671875 -5.484375 32.546875 -3.289062 29.796875 -1.6875 C 27.046875 -0.09375 23.796875 0.703125 20.046875 0.703125 Z M 20.125 -9.15625 C 21.5625 -9.15625 22.644531 -9.648438 23.375 -10.640625 C 24.113281 -11.628906 24.601562 -12.832031 24.84375 -14.25 C 25.09375 -15.664062 25.21875 -17.015625 25.21875 -18.296875 C 25.21875 -19.609375 25.09375 -20.941406 24.84375 -22.296875 C 24.601562 -23.660156 24.113281 -24.800781 23.375 -25.71875 C 22.644531 -26.644531 21.5625 -27.109375 20.125 -27.109375 C 18.65625 -27.109375 17.550781 -26.644531 16.8125 -25.71875 C 16.082031 -24.800781 15.585938 -23.660156 15.328125 -22.296875 C 15.078125 -20.941406 14.953125 -19.609375 14.953125 -18.296875 C 14.953125 -17.015625 15.078125 -15.664062 15.328125 -14.25 C 15.585938 -12.832031 16.082031 -11.628906 16.8125 -10.640625 C 17.550781 -9.648438 18.65625 -9.15625 20.125 -9.15625 Z M 20.125 -9.15625 "/></g></g></g><g fill="#000813" fill-opacity="1"><g transform="translate(377.532825, 123.349577)"><g><path d="M 19.078125 0.703125 C 16.554688 0.703125 14.0625 0.269531 11.59375 -0.59375 C 9.125 -1.457031 6.992188 -2.832031 5.203125 -4.71875 C 3.410156 -6.601562 2.257812 -9.082031 1.75 -12.15625 L 13.265625 -12.15625 C 13.578125 -10.988281 14.113281 -10.125 14.875 -9.5625 C 15.644531 -9.007812 16.425781 -8.648438 17.21875 -8.484375 C 18.007812 -8.328125 18.601562 -8.25 19 -8.25 C 20.507812 -8.25 21.726562 -8.425781 22.65625 -8.78125 C 23.59375 -9.144531 24.0625 -9.6875 24.0625 -10.40625 C 24.0625 -11.082031 23.75 -11.613281 23.125 -12 C 22.5 -12.382812 21.367188 -12.691406 19.734375 -12.921875 L 14.390625 -13.765625 C 10.941406 -14.390625 8.15625 -15.570312 6.03125 -17.3125 C 3.914062 -19.0625 2.835938 -21.554688 2.796875 -24.796875 C 2.773438 -27.035156 3.394531 -29.0625 4.65625 -30.875 C 5.925781 -32.695312 7.789062 -34.140625 10.25 -35.203125 C 12.707031 -36.273438 15.695312 -36.8125 19.21875 -36.8125 C 24.144531 -36.8125 28.050781 -35.738281 30.9375 -33.59375 C 33.832031 -31.457031 35.28125 -28.550781 35.28125 -24.875 L 24.203125 -24.875 C 23.953125 -25.96875 23.335938 -26.773438 22.359375 -27.296875 C 21.378906 -27.816406 20.269531 -28.078125 19.03125 -28.078125 C 17.78125 -28.078125 16.71875 -27.890625 15.84375 -27.515625 C 14.96875 -27.148438 14.53125 -26.617188 14.53125 -25.921875 C 14.53125 -25.285156 14.945312 -24.773438 15.78125 -24.390625 C 16.625 -24.015625 18.007812 -23.660156 19.9375 -23.328125 L 24.59375 -22.5 C 26.914062 -21.9375 28.789062 -21.175781 30.21875 -20.21875 C 31.65625 -19.269531 32.753906 -18.238281 33.515625 -17.125 C 34.273438 -16.019531 34.789062 -14.9375 35.0625 -13.875 C 35.34375 -12.820312 35.484375 -11.921875 35.484375 -11.171875 C 35.484375 -8.585938 34.753906 -6.414062 33.296875 -4.65625 C 31.847656 -2.90625 29.882812 -1.570312 27.40625 -0.65625 C 24.925781 0.25 22.148438 0.703125 19.078125 0.703125 Z M 19.078125 0.703125 "/></g></g></g><g fill="#000813" fill-opacity="1"><g transform="translate(414.943548, 123.349577)"><g><path d="M 16.796875 0.703125 C 15.328125 0.703125 13.800781 0.453125 12.21875 -0.046875 C 10.632812 -0.546875 9.15625 -1.285156 7.78125 -2.265625 C 6.414062 -3.242188 5.300781 -4.4375 4.4375 -5.84375 C 3.570312 -7.257812 3.140625 -8.875 3.140625 -10.6875 L 3.140625 -36.125 L 16.765625 -36.125 L 16.765625 -12.578125 C 16.765625 -11.523438 17.148438 -10.644531 17.921875 -9.9375 C 18.691406 -9.226562 19.757812 -8.875 21.125 -8.875 C 22.5 -8.875 23.578125 -9.226562 24.359375 -9.9375 C 25.140625 -10.644531 25.53125 -11.523438 25.53125 -12.578125 L 25.53125 -36.125 L 39.015625 -36.125 L 39.015625 0 L 28.953125 0 L 27.34375 -7.40625 C 26.90625 -5.007812 26.066406 -3.234375 24.828125 -2.078125 C 23.597656 -0.921875 22.242188 -0.171875 20.765625 0.171875 C 19.285156 0.523438 17.960938 0.703125 16.796875 0.703125 Z M 16.796875 0.703125 "/></g></g></g><g fill="#000813" fill-opacity="1"><g transform="translate(457.104814, 123.349577)"><g><path d="M 3.5 0 L 3.5 -36.125 L 16.625 -36.125 L 16.625 -26.125 C 17.1875 -28.0625 17.984375 -29.835938 19.015625 -31.453125 C 20.054688 -33.066406 21.378906 -34.363281 22.984375 -35.34375 C 24.585938 -36.320312 26.507812 -36.8125 28.75 -36.8125 C 28.90625 -36.8125 29.03125 -36.8125 29.125 -36.8125 C 29.21875 -36.8125 29.265625 -36.8125 29.265625 -36.8125 L 29.265625 -23.96875 C 29.203125 -23.988281 29.140625 -24 29.078125 -24 C 29.015625 -24 28.925781 -24.007812 28.8125 -24.03125 C 26.28125 -24.289062 24.238281 -24.265625 22.6875 -23.953125 C 21.132812 -23.648438 19.953125 -23.15625 19.140625 -22.46875 C 18.328125 -21.789062 17.78125 -21 17.5 -20.09375 C 17.21875 -19.195312 17.078125 -18.273438 17.078125 -17.328125 L 17.078125 0 Z M 3.5 0 "/></g></g></g><g fill="#000813" fill-opacity="1"><g transform="translate(487.07533, 123.349577)"><g><path d="M 15.265625 -14.953125 C 15.242188 -13.503906 15.460938 -12.328125 15.921875 -11.421875 C 16.390625 -10.515625 17.023438 -9.847656 17.828125 -9.421875 C 18.628906 -9.003906 19.519531 -8.796875 20.5 -8.796875 C 21.738281 -8.796875 22.851562 -9.03125 23.84375 -9.5 C 24.832031 -9.96875 25.601562 -10.898438 26.15625 -12.296875 L 38.171875 -12.296875 C 37.804688 -9.617188 36.75 -7.304688 35 -5.359375 C 33.25 -3.410156 31.125 -1.910156 28.625 -0.859375 C 26.125 0.179688 23.535156 0.703125 20.859375 0.703125 C 17.109375 0.703125 13.804688 -0.0546875 10.953125 -1.578125 C 8.097656 -3.109375 5.878906 -5.25 4.296875 -8 C 2.710938 -10.75 1.921875 -13.953125 1.921875 -17.609375 C 1.921875 -21.054688 2.644531 -24.234375 4.09375 -27.140625 C 5.550781 -30.046875 7.648438 -32.382812 10.390625 -34.15625 C 13.128906 -35.925781 16.429688 -36.8125 20.296875 -36.8125 C 24.234375 -36.8125 27.515625 -35.992188 30.140625 -34.359375 C 32.773438 -32.734375 34.75 -30.503906 36.0625 -27.671875 C 37.375 -24.847656 38.03125 -21.65625 38.03125 -18.09375 L 38.03125 -14.953125 Z M 15.1875 -22.5625 L 25.5 -22.5625 C 25.5 -23.46875 25.300781 -24.3125 24.90625 -25.09375 C 24.507812 -25.875 23.925781 -26.5 23.15625 -26.96875 C 22.382812 -27.4375 21.429688 -27.671875 20.296875 -27.671875 C 19.359375 -27.671875 18.503906 -27.4375 17.734375 -26.96875 C 16.972656 -26.5 16.359375 -25.875 15.890625 -25.09375 C 15.421875 -24.3125 15.1875 -23.46875 15.1875 -22.5625 Z M 15.1875 -22.5625 "/></g></g></g><g fill="#000813" fill-opacity="1"><g transform="translate(527.175705, 123.349577)"><g/></g></g><g fill="#000813" fill-opacity="1"><g transform="translate(540.833573, 123.349577)"><g><path d="M 14.390625 0.703125 C 12.128906 0.703125 10.050781 0.257812 8.15625 -0.625 C 6.257812 -1.507812 4.742188 -2.804688 3.609375 -4.515625 C 2.484375 -6.234375 1.921875 -8.335938 1.921875 -10.828125 C 1.921875 -14.742188 3.472656 -17.78125 6.578125 -19.9375 C 9.691406 -22.101562 14.53125 -23.1875 21.09375 -23.1875 L 23.890625 -23.1875 L 23.890625 -24.734375 C 23.890625 -25.898438 23.566406 -26.75 22.921875 -27.28125 C 22.285156 -27.8125 21.28125 -28.054688 19.90625 -28.015625 C 18.976562 -27.992188 17.953125 -27.769531 16.828125 -27.34375 C 15.710938 -26.925781 14.878906 -26.101562 14.328125 -24.875 L 3.3125 -24.875 C 3.457031 -27.707031 4.304688 -30.003906 5.859375 -31.765625 C 7.421875 -33.523438 9.484375 -34.804688 12.046875 -35.609375 C 14.609375 -36.410156 17.4375 -36.8125 20.53125 -36.8125 C 24.726562 -36.8125 28.015625 -36.332031 30.390625 -35.375 C 32.765625 -34.425781 34.441406 -33.109375 35.421875 -31.421875 C 36.398438 -29.734375 36.890625 -27.78125 36.890625 -25.5625 L 36.890625 0 L 25.640625 0 L 24.453125 -5.734375 C 23.378906 -3.285156 22.050781 -1.597656 20.46875 -0.671875 C 18.882812 0.242188 16.859375 0.703125 14.390625 0.703125 Z M 19.171875 -7.890625 C 19.828125 -7.890625 20.4375 -8.003906 21 -8.234375 C 21.570312 -8.472656 22.066406 -8.796875 22.484375 -9.203125 C 22.910156 -9.609375 23.242188 -10.066406 23.484375 -10.578125 C 23.734375 -11.097656 23.867188 -11.644531 23.890625 -12.21875 L 23.890625 -16.765625 L 21.71875 -16.765625 C 21 -16.765625 20.082031 -16.628906 18.96875 -16.359375 C 17.851562 -16.097656 16.859375 -15.640625 15.984375 -14.984375 C 15.109375 -14.328125 14.671875 -13.40625 14.671875 -12.21875 C 14.671875 -10.875 15.128906 -9.816406 16.046875 -9.046875 C 16.972656 -8.273438 18.015625 -7.890625 19.171875 -7.890625 Z M 19.171875 -7.890625 "/></g></g></g><g fill="#000813" fill-opacity="1"><g transform="translate(581.143523, 123.349577)"><g><path d="M 16.796875 0.703125 C 15.328125 0.703125 13.800781 0.453125 12.21875 -0.046875 C 10.632812 -0.546875 9.15625 -1.285156 7.78125 -2.265625 C 6.414062 -3.242188 5.300781 -4.4375 4.4375 -5.84375 C 3.570312 -7.257812 3.140625 -8.875 3.140625 -10.6875 L 3.140625 -36.125 L 16.765625 -36.125 L 16.765625 -12.578125 C 16.765625 -11.523438 17.148438 -10.644531 17.921875 -9.9375 C 18.691406 -9.226562 19.757812 -8.875 21.125 -8.875 C 22.5 -8.875 23.578125 -9.226562 24.359375 -9.9375 C 25.140625 -10.644531 25.53125 -11.523438 25.53125 -12.578125 L 25.53125 -36.125 L 39.015625 -36.125 L 39.015625 0 L 28.953125 0 L 27.34375 -7.40625 C 26.90625 -5.007812 26.066406 -3.234375 24.828125 -2.078125 C 23.597656 -0.921875 22.242188 -0.171875 20.765625 0.171875 C 19.285156 0.523438 17.960938 0.703125 16.796875 0.703125 Z M 16.796875 0.703125 "/></g></g></g><g fill="#000813" fill-opacity="1"><g transform="translate(623.304767, 123.349577)"><g><path d="M 17.25 0.703125 C 12.269531 0.703125 8.441406 -1.023438 5.765625 -4.484375 C 3.085938 -7.941406 1.75 -12.546875 1.75 -18.296875 C 1.75 -22.097656 2.300781 -25.382812 3.40625 -28.15625 C 4.507812 -30.925781 6.109375 -33.0625 8.203125 -34.5625 C 10.304688 -36.0625 12.832031 -36.8125 15.78125 -36.8125 C 16.695312 -36.8125 17.617188 -36.726562 18.546875 -36.5625 C 19.472656 -36.40625 20.382812 -36.144531 21.28125 -35.78125 C 22.1875 -35.425781 23.019531 -34.9375 23.78125 -34.3125 C 24.550781 -33.695312 25.21875 -32.925781 25.78125 -32 L 25.78125 -51.90625 L 39.40625 -51.90625 L 39.40625 0 L 29.796875 0 L 28.1875 -7.40625 C 27.769531 -6.144531 27.238281 -5.015625 26.59375 -4.015625 C 25.957031 -3.015625 25.191406 -2.164062 24.296875 -1.46875 C 23.398438 -0.769531 22.367188 -0.234375 21.203125 0.140625 C 20.035156 0.515625 18.71875 0.703125 17.25 0.703125 Z M 20.46875 -8.796875 C 22.050781 -8.796875 23.332031 -9.488281 24.3125 -10.875 C 25.289062 -12.257812 25.78125 -14.734375 25.78125 -18.296875 C 25.78125 -20.441406 25.554688 -22.171875 25.109375 -23.484375 C 24.671875 -24.804688 24.054688 -25.765625 23.265625 -26.359375 C 22.472656 -26.953125 21.539062 -27.25 20.46875 -27.25 C 18.925781 -27.25 17.609375 -26.59375 16.515625 -25.28125 C 15.421875 -23.976562 14.875 -21.648438 14.875 -18.296875 C 14.875 -14.734375 15.421875 -12.257812 16.515625 -10.875 C 17.609375 -9.488281 18.925781 -8.796875 20.46875 -8.796875 Z M 20.46875 -8.796875 "/></g></g></g><g fill="#000813" fill-opacity="1"><g transform="translate(666.199616, 123.349577)"><g><path d="M 16.765625 -36.125 L 16.765625 0 L 3.84375 0 L 3.84375 -36.125 Z M 16.765625 -50.515625 L 16.765625 -39.046875 L 3.84375 -39.046875 L 3.84375 -50.515625 Z M 16.765625 -50.515625 "/></g></g></g><g fill="#000813" fill-opacity="1"><g transform="translate(686.808716, 123.349577)"><g><path d="M 28.359375 -26.890625 L 20.46875 -26.890625 L 20.53125 -10.546875 C 20.53125 -10.015625 20.628906 -9.609375 20.828125 -9.328125 C 21.023438 -9.046875 21.285156 -8.851562 21.609375 -8.75 C 21.941406 -8.644531 22.304688 -8.59375 22.703125 -8.59375 L 28.359375 -8.59375 L 28.359375 -0.5625 C 27.867188 -0.320312 27.085938 -0.078125 26.015625 0.171875 C 24.953125 0.429688 23.335938 0.5625 21.171875 0.5625 C 17.367188 0.5625 14.4375 0.09375 12.375 -0.84375 C 10.320312 -1.789062 8.898438 -3.054688 8.109375 -4.640625 C 7.316406 -6.222656 6.921875 -7.984375 6.921875 -9.921875 L 6.921875 -26.890625 L 1.046875 -26.890625 L 1.046875 -36.125 L 7.40625 -36.125 L 10.890625 -47.359375 L 20.46875 -47.359375 L 20.46875 -36.1875 L 28.359375 -36.1875 Z M 28.359375 -26.890625 "/></g></g></g><g clip-path="url(#3a655679e4)"><path fill="#000813" d="M 100.953125 27.449219 C 113.183594 27.449219 125.253906 30.628906 135.867188 36.691406 C 146.234375 42.609375 154.957031 51.113281 161.148438 61.277344 C 161.769531 62.285156 162.347656 63.289062 162.882812 64.277344 C 162.925781 64.359375 162.972656 64.445312 163.015625 64.527344 C 168.480469 74.726562 171.363281 86.203125 171.363281 97.789062 L 171.363281 97.984375 C 171.363281 98.007812 171.363281 98.027344 171.363281 98.050781 C 171.269531 122.878906 157.902344 146.011719 136.460938 158.542969 C 136.457031 158.542969 136.457031 158.542969 136.453125 158.546875 C 125.703125 164.824219 113.421875 168.132812 100.953125 168.132812 C 88.480469 168.132812 76.199219 164.828125 65.453125 158.546875 C 44.007812 146.027344 30.636719 122.902344 30.542969 98.070312 C 30.542969 98.046875 30.542969 98.027344 30.542969 98.003906 L 30.542969 97.789062 C 30.542969 86.105469 33.472656 74.53125 39.035156 64.273438 C 39.058594 64.226562 39.085938 64.179688 39.113281 64.132812 C 39.621094 63.214844 40.160156 62.273438 40.734375 61.328125 L 40.746094 61.308594 C 46.941406 51.121094 55.667969 42.613281 66.042969 36.691406 C 76.652344 30.628906 88.722656 27.449219 100.953125 27.449219 Z M 100.953125 27.449219 " fill-opacity="1" fill-rule="nonzero"/></g><path fill="#986df8" d="M 134.296875 77.59375 C 130.859375 71.945312 126.007812 67.230469 120.28125 63.960938 C 119.339844 63.417969 118.222656 63.277344 117.164062 63.5625 C 116.109375 63.851562 115.214844 64.546875 114.683594 65.488281 L 104.1875 83.855469 C 102.0625 83.382812 99.839844 83.371094 97.714844 83.84375 L 87.230469 65.488281 C 86.6875 64.546875 85.796875 63.851562 84.75 63.5625 C 83.691406 63.277344 82.574219 63.417969 81.628906 63.964844 C 75.90625 67.230469 71.054688 71.945312 67.597656 77.625 C 67.277344 78.15625 66.972656 78.679688 66.664062 79.230469 C 63.597656 84.917969 61.976562 91.335938 61.976562 97.789062 L 61.976562 97.921875 C 61.976562 99.011719 62.40625 100.054688 63.1875 100.824219 C 63.957031 101.59375 65 102.023438 66.078125 102.023438 L 66.089844 102.023438 L 87.21875 101.941406 C 87.867188 104.042969 88.976562 105.980469 90.484375 107.585938 L 79.84375 125.816406 C 78.707031 127.765625 79.363281 130.277344 81.3125 131.421875 C 87.242188 134.898438 94.042969 136.730469 100.957031 136.730469 C 107.859375 136.730469 114.660156 134.898438 120.601562 131.421875 C 122.558594 130.285156 123.214844 127.773438 122.078125 125.816406 L 111.429688 107.585938 C 112.925781 105.980469 114.046875 104.050781 114.683594 101.941406 L 135.8125 102.023438 L 135.824219 102.023438 C 136.910156 102.023438 137.945312 101.59375 138.714844 100.824219 C 139.484375 100.054688 139.925781 99.011719 139.925781 97.921875 L 139.925781 97.789062 C 139.925781 91.335938 138.304688 84.917969 135.21875 79.222656 C 134.941406 78.679688 134.625 78.15625 134.296875 77.59375 Z M 104.003906 92.441406 C 105.921875 93.539062 107.113281 95.578125 107.113281 97.820312 C 107.089844 99.996094 105.933594 102.011719 104.042969 103.109375 C 102.179688 104.207031 99.738281 104.214844 97.847656 103.109375 C 95.960938 101.992188 94.8125 100.015625 94.800781 97.789062 C 94.800781 95.640625 95.929688 93.640625 97.765625 92.535156 C 97.777344 92.523438 97.789062 92.523438 97.796875 92.511719 C 97.839844 92.492188 97.878906 92.472656 97.921875 92.441406 C 99.777344 91.386719 102.148438 91.394531 104.003906 92.441406 Z M 73.886719 83.136719 C 74.132812 82.695312 74.386719 82.253906 74.625 81.855469 C 76.625 78.566406 79.230469 75.675781 82.277344 73.351562 L 90.574219 87.882812 C 90.542969 87.910156 90.523438 87.953125 90.492188 87.984375 C 90.144531 88.351562 89.816406 88.742188 89.519531 89.140625 C 89.476562 89.191406 89.445312 89.242188 89.417969 89.285156 C 89.109375 89.707031 88.8125 90.144531 88.554688 90.597656 C 88.542969 90.617188 88.535156 90.628906 88.535156 90.648438 C 88.277344 91.089844 88.050781 91.539062 87.847656 92.011719 C 87.816406 92.074219 87.785156 92.132812 87.765625 92.207031 C 87.570312 92.65625 87.40625 93.117188 87.261719 93.589844 C 87.242188 93.640625 87.222656 93.691406 87.199219 93.753906 L 70.449219 93.816406 C 70.910156 90.085938 72.070312 86.496094 73.886719 83.136719 Z M 89.128906 126.175781 L 97.5625 111.738281 C 97.613281 111.746094 97.671875 111.757812 97.726562 111.769531 C 98.207031 111.878906 98.6875 111.960938 99.171875 112.023438 C 99.234375 112.035156 99.292969 112.035156 99.355469 112.042969 C 99.890625 112.097656 100.421875 112.136719 100.957031 112.136719 C 101.488281 112.136719 102.011719 112.097656 102.535156 112.042969 C 102.609375 112.035156 102.667969 112.035156 102.742188 112.023438 C 103.234375 111.960938 103.714844 111.871094 104.199219 111.769531 C 104.25 111.757812 104.300781 111.746094 104.351562 111.738281 L 112.785156 126.175781 C 105.316406 129.28125 96.574219 129.273438 89.128906 126.175781 Z M 114.734375 93.742188 C 114.722656 93.699219 114.703125 93.671875 114.691406 93.628906 C 114.539062 93.125 114.363281 92.644531 114.167969 92.164062 C 114.15625 92.132812 114.136719 92.09375 114.117188 92.0625 C 113.902344 91.570312 113.664062 91.085938 113.398438 90.617188 L 113.390625 90.605469 C 113.121094 90.144531 112.824219 89.703125 112.515625 89.273438 C 112.484375 89.234375 112.457031 89.179688 112.414062 89.140625 C 112.105469 88.730469 111.777344 88.351562 111.429688 87.972656 C 111.398438 87.941406 111.378906 87.910156 111.347656 87.878906 L 119.636719 73.359375 C 122.671875 75.683594 125.277344 78.566406 127.269531 81.835938 C 127.523438 82.265625 127.789062 82.707031 128.027344 83.136719 C 129.851562 86.507812 131.011719 90.082031 131.484375 93.8125 Z M 147.867188 72.386719 C 147.457031 71.628906 147.023438 70.878906 146.574219 70.152344 C 141.875 62.433594 135.25 55.980469 127.398438 51.5 C 119.386719 46.917969 110.238281 44.5 100.953125 44.5 C 91.671875 44.5 82.519531 46.917969 74.507812 51.5 C 66.660156 55.980469 60.035156 62.433594 55.335938 70.160156 C 54.894531 70.890625 54.464844 71.636719 54.042969 72.394531 C 49.835938 80.152344 47.613281 88.9375 47.613281 97.789062 L 47.613281 98.003906 C 47.683594 116.789062 57.828125 134.34375 74.066406 143.824219 C 82.179688 148.566406 91.484375 151.078125 100.953125 151.078125 C 110.410156 151.078125 119.714844 148.566406 127.839844 143.824219 C 144.078125 134.332031 154.222656 116.769531 154.296875 97.984375 L 154.296875 97.789062 C 154.296875 88.9375 152.070312 80.15625 147.863281 72.386719 Z M 146.089844 97.964844 C 146.03125 113.847656 137.445312 128.707031 123.695312 136.742188 C 116.824219 140.757812 108.964844 142.878906 100.957031 142.878906 C 92.945312 142.878906 85.074219 140.757812 78.214844 136.742188 C 64.46875 128.71875 55.882812 113.859375 55.820312 97.984375 L 55.820312 97.789062 C 55.820312 90.296875 57.695312 82.859375 61.257812 76.300781 C 61.605469 75.652344 61.976562 75.027344 62.355469 74.402344 C 66.335938 67.867188 71.945312 62.402344 78.59375 58.601562 C 85.363281 54.746094 93.097656 52.699219 100.953125 52.699219 C 108.8125 52.699219 116.546875 54.746094 123.316406 58.613281 C 129.964844 62.414062 135.574219 67.875 139.554688 74.402344 C 139.933594 75.027344 140.292969 75.652344 140.640625 76.289062 C 144.210938 82.867188 146.089844 90.296875 146.089844 97.789062 Z M 146.089844 97.964844 " fill-opacity="1" fill-rule="nonzero"/></svg>