<svg xmlns="http://www.w3.org/2000/svg" xmlns:xlink="http://www.w3.org/1999/xlink" width="1000" zoomAndPan="magnify" viewBox="0 0 750 198.749996" height="265" preserveAspectRatio="xMidYMid meet" version="1.0"><defs><g/><clipPath id="87a537a6b1"><path d="M 32.707031 30.980469 L 169.03125 30.980469 L 169.03125 167.175781 L 32.707031 167.175781 Z M 32.707031 30.980469 " clip-rule="nonzero"/></clipPath></defs><g fill="#000813" fill-opacity="1"><g transform="translate(215.070583, 123.349577)"><g><path d="M 15.265625 -14.953125 C 15.242188 -13.503906 15.460938 -12.328125 15.921875 -11.421875 C 16.390625 -10.515625 17.023438 -9.847656 17.828125 -9.421875 C 18.628906 -9.003906 19.519531 -8.796875 20.5 -8.796875 C 21.738281 -8.796875 22.851562 -9.03125 23.84375 -9.5 C 24.832031 -9.96875 25.601562 -10.898438 26.15625 -12.296875 L 38.171875 -12.296875 C 37.804688 -9.617188 36.75 -7.304688 35 -5.359375 C 33.25 -3.410156 31.125 -1.910156 28.625 -0.859375 C 26.125 0.179688 23.535156 0.703125 20.859375 0.703125 C 17.109375 0.703125 13.804688 -0.0546875 10.953125 -1.578125 C 8.097656 -3.109375 5.878906 -5.25 4.296875 -8 C 2.710938 -10.75 1.921875 -13.953125 1.921875 -17.609375 C 1.921875 -21.054688 2.644531 -24.234375 4.09375 -27.140625 C 5.550781 -30.046875 7.648438 -32.382812 10.390625 -34.15625 C 13.128906 -35.925781 16.429688 -36.8125 20.296875 -36.8125 C 24.234375 -36.8125 27.515625 -35.992188 30.140625 -34.359375 C 32.773438 -32.734375 34.75 -30.503906 36.0625 -27.671875 C 37.375 -24.847656 38.03125 -21.65625 38.03125 -18.09375 L 38.03125 -14.953125 Z M 15.1875 -22.5625 L 25.5 -22.5625 C 25.5 -23.46875 25.300781 -24.3125 24.90625 -25.09375 C 24.507812 -25.875 23.925781 -26.5 23.15625 -26.96875 C 22.382812 -27.4375 21.429688 -27.671875 20.296875 -27.671875 C 19.359375 -27.671875 18.503906 -27.4375 17.734375 -26.96875 C 16.972656 -26.5 16.359375 -25.875 15.890625 -25.09375 C 15.421875 -24.3125 15.1875 -23.46875 15.1875 -22.5625 Z M 15.1875 -22.5625 "/></g></g></g><g fill="#000813" fill-opacity="1"><g transform="translate(252.027055, 123.349577)"><g><path d="M 42.1875 0 L 28.21875 0 L 21.3125 -9.578125 L 14.328125 0 L 0.34375 0 L 14.1875 -18.859375 L 1.609375 -36.125 L 15.578125 -36.125 L 21.375 -28.296875 L 27.109375 -36.125 L 41.078125 -36.125 L 28.359375 -18.859375 Z M 42.1875 0 "/></g></g></g><g fill="#000813" fill-opacity="1"><g transform="translate(294.572565, 123.349577)"><g><path d="M 3.5 11.25 L 3.5 -36.125 L 17.15625 -36.125 L 17.15625 -31.921875 C 17.820312 -32.859375 18.59375 -33.640625 19.46875 -34.265625 C 20.34375 -34.890625 21.253906 -35.390625 22.203125 -35.765625 C 23.160156 -36.140625 24.117188 -36.40625 25.078125 -36.5625 C 26.035156 -36.726562 26.929688 -36.8125 27.765625 -36.8125 C 30.285156 -36.8125 32.546875 -36.144531 34.546875 -34.8125 C 36.546875 -33.488281 38.128906 -31.445312 39.296875 -28.6875 C 40.460938 -25.9375 41.046875 -22.425781 41.046875 -18.15625 C 41.046875 -13.570312 40.351562 -9.898438 38.96875 -7.140625 C 37.582031 -4.378906 35.765625 -2.378906 33.515625 -1.140625 C 31.265625 0.0859375 28.859375 0.703125 26.296875 0.703125 C 25.554688 0.703125 24.769531 0.609375 23.9375 0.421875 C 23.113281 0.234375 22.285156 -0.0625 21.453125 -0.46875 C 20.628906 -0.875 19.84375 -1.394531 19.09375 -2.03125 C 18.351562 -2.675781 17.679688 -3.46875 17.078125 -4.40625 L 17.078125 11.25 Z M 22.734375 -9.015625 C 24.253906 -9.015625 25.585938 -9.726562 26.734375 -11.15625 C 27.890625 -12.59375 28.46875 -14.925781 28.46875 -18.15625 C 28.46875 -21.09375 27.890625 -23.34375 26.734375 -24.90625 C 25.585938 -26.46875 24.253906 -27.25 22.734375 -27.25 C 20.753906 -27.25 19.316406 -26.34375 18.421875 -24.53125 C 17.523438 -22.726562 17.078125 -20.601562 17.078125 -18.15625 C 17.078125 -16.695312 17.273438 -15.257812 17.671875 -13.84375 C 18.066406 -12.4375 18.675781 -11.28125 19.5 -10.375 C 20.332031 -9.46875 21.410156 -9.015625 22.734375 -9.015625 Z M 22.734375 -9.015625 "/></g></g></g><g fill="#000813" fill-opacity="1"><g transform="translate(337.362592, 123.349577)"><g><path d="M 20.046875 0.703125 C 16.316406 0.703125 13.082031 -0.0859375 10.34375 -1.671875 C 7.613281 -3.253906 5.5 -5.4375 4 -8.21875 C 2.5 -11.007812 1.75 -14.207031 1.75 -17.8125 C 1.75 -21.601562 2.535156 -24.925781 4.109375 -27.78125 C 5.679688 -30.632812 7.84375 -32.851562 10.59375 -34.4375 C 13.351562 -36.019531 16.53125 -36.8125 20.125 -36.8125 C 23.894531 -36.8125 27.144531 -35.988281 29.875 -34.34375 C 32.613281 -32.707031 34.722656 -30.457031 36.203125 -27.59375 C 37.679688 -24.726562 38.421875 -21.46875 38.421875 -17.8125 C 38.421875 -14.226562 37.671875 -11.046875 36.171875 -8.265625 C 34.671875 -5.484375 32.546875 -3.289062 29.796875 -1.6875 C 27.046875 -0.09375 23.796875 0.703125 20.046875 0.703125 Z M 20.125 -9.15625 C 21.5625 -9.15625 22.644531 -9.648438 23.375 -10.640625 C 24.113281 -11.628906 24.601562 -12.832031 24.84375 -14.25 C 25.09375 -15.664062 25.21875 -17.015625 25.21875 -18.296875 C 25.21875 -19.609375 25.09375 -20.941406 24.84375 -22.296875 C 24.601562 -23.660156 24.113281 -24.800781 23.375 -25.71875 C 22.644531 -26.644531 21.5625 -27.109375 20.125 -27.109375 C 18.65625 -27.109375 17.550781 -26.644531 16.8125 -25.71875 C 16.082031 -24.800781 15.585938 -23.660156 15.328125 -22.296875 C 15.078125 -20.941406 14.953125 -19.609375 14.953125 -18.296875 C 14.953125 -17.015625 15.078125 -15.664062 15.328125 -14.25 C 15.585938 -12.832031 16.082031 -11.628906 16.8125 -10.640625 C 17.550781 -9.648438 18.65625 -9.15625 20.125 -9.15625 Z M 20.125 -9.15625 "/></g></g></g><g fill="#000813" fill-opacity="1"><g transform="translate(377.532825, 123.349577)"><g><path d="M 19.078125 0.703125 C 16.554688 0.703125 14.0625 0.269531 11.59375 -0.59375 C 9.125 -1.457031 6.992188 -2.832031 5.203125 -4.71875 C 3.410156 -6.601562 2.257812 -9.082031 1.75 -12.15625 L 13.265625 -12.15625 C 13.578125 -10.988281 14.113281 -10.125 14.875 -9.5625 C 15.644531 -9.007812 16.425781 -8.648438 17.21875 -8.484375 C 18.007812 -8.328125 18.601562 -8.25 19 -8.25 C 20.507812 -8.25 21.726562 -8.425781 22.65625 -8.78125 C 23.59375 -9.144531 24.0625 -9.6875 24.0625 -10.40625 C 24.0625 -11.082031 23.75 -11.613281 23.125 -12 C 22.5 -12.382812 21.367188 -12.691406 19.734375 -12.921875 L 14.390625 -13.765625 C 10.941406 -14.390625 8.15625 -15.570312 6.03125 -17.3125 C 3.914062 -19.0625 2.835938 -21.554688 2.796875 -24.796875 C 2.773438 -27.035156 3.394531 -29.0625 4.65625 -30.875 C 5.925781 -32.695312 7.789062 -34.140625 10.25 -35.203125 C 12.707031 -36.273438 15.695312 -36.8125 19.21875 -36.8125 C 24.144531 -36.8125 28.050781 -35.738281 30.9375 -33.59375 C 33.832031 -31.457031 35.28125 -28.550781 35.28125 -24.875 L 24.203125 -24.875 C 23.953125 -25.96875 23.335938 -26.773438 22.359375 -27.296875 C 21.378906 -27.816406 20.269531 -28.078125 19.03125 -28.078125 C 17.78125 -28.078125 16.71875 -27.890625 15.84375 -27.515625 C 14.96875 -27.148438 14.53125 -26.617188 14.53125 -25.921875 C 14.53125 -25.285156 14.945312 -24.773438 15.78125 -24.390625 C 16.625 -24.015625 18.007812 -23.660156 19.9375 -23.328125 L 24.59375 -22.5 C 26.914062 -21.9375 28.789062 -21.175781 30.21875 -20.21875 C 31.65625 -19.269531 32.753906 -18.238281 33.515625 -17.125 C 34.273438 -16.019531 34.789062 -14.9375 35.0625 -13.875 C 35.34375 -12.820312 35.484375 -11.921875 35.484375 -11.171875 C 35.484375 -8.585938 34.753906 -6.414062 33.296875 -4.65625 C 31.847656 -2.90625 29.882812 -1.570312 27.40625 -0.65625 C 24.925781 0.25 22.148438 0.703125 19.078125 0.703125 Z M 19.078125 0.703125 "/></g></g></g><g fill="#000813" fill-opacity="1"><g transform="translate(414.943548, 123.349577)"><g><path d="M 16.796875 0.703125 C 15.328125 0.703125 13.800781 0.453125 12.21875 -0.046875 C 10.632812 -0.546875 9.15625 -1.285156 7.78125 -2.265625 C 6.414062 -3.242188 5.300781 -4.4375 4.4375 -5.84375 C 3.570312 -7.257812 3.140625 -8.875 3.140625 -10.6875 L 3.140625 -36.125 L 16.765625 -36.125 L 16.765625 -12.578125 C 16.765625 -11.523438 17.148438 -10.644531 17.921875 -9.9375 C 18.691406 -9.226562 19.757812 -8.875 21.125 -8.875 C 22.5 -8.875 23.578125 -9.226562 24.359375 -9.9375 C 25.140625 -10.644531 25.53125 -11.523438 25.53125 -12.578125 L 25.53125 -36.125 L 39.015625 -36.125 L 39.015625 0 L 28.953125 0 L 27.34375 -7.40625 C 26.90625 -5.007812 26.066406 -3.234375 24.828125 -2.078125 C 23.597656 -0.921875 22.242188 -0.171875 20.765625 0.171875 C 19.285156 0.523438 17.960938 0.703125 16.796875 0.703125 Z M 16.796875 0.703125 "/></g></g></g><g fill="#000813" fill-opacity="1"><g transform="translate(457.104814, 123.349577)"><g><path d="M 3.5 0 L 3.5 -36.125 L 16.625 -36.125 L 16.625 -26.125 C 17.1875 -28.0625 17.984375 -29.835938 19.015625 -31.453125 C 20.054688 -33.066406 21.378906 -34.363281 22.984375 -35.34375 C 24.585938 -36.320312 26.507812 -36.8125 28.75 -36.8125 C 28.90625 -36.8125 29.03125 -36.8125 29.125 -36.8125 C 29.21875 -36.8125 29.265625 -36.8125 29.265625 -36.8125 L 29.265625 -23.96875 C 29.203125 -23.988281 29.140625 -24 29.078125 -24 C 29.015625 -24 28.925781 -24.007812 28.8125 -24.03125 C 26.28125 -24.289062 24.238281 -24.265625 22.6875 -23.953125 C 21.132812 -23.648438 19.953125 -23.15625 19.140625 -22.46875 C 18.328125 -21.789062 17.78125 -21 17.5 -20.09375 C 17.21875 -19.195312 17.078125 -18.273438 17.078125 -17.328125 L 17.078125 0 Z M 3.5 0 "/></g></g></g><g fill="#000813" fill-opacity="1"><g transform="translate(487.07533, 123.349577)"><g><path d="M 15.265625 -14.953125 C 15.242188 -13.503906 15.460938 -12.328125 15.921875 -11.421875 C 16.390625 -10.515625 17.023438 -9.847656 17.828125 -9.421875 C 18.628906 -9.003906 19.519531 -8.796875 20.5 -8.796875 C 21.738281 -8.796875 22.851562 -9.03125 23.84375 -9.5 C 24.832031 -9.96875 25.601562 -10.898438 26.15625 -12.296875 L 38.171875 -12.296875 C 37.804688 -9.617188 36.75 -7.304688 35 -5.359375 C 33.25 -3.410156 31.125 -1.910156 28.625 -0.859375 C 26.125 0.179688 23.535156 0.703125 20.859375 0.703125 C 17.109375 0.703125 13.804688 -0.0546875 10.953125 -1.578125 C 8.097656 -3.109375 5.878906 -5.25 4.296875 -8 C 2.710938 -10.75 1.921875 -13.953125 1.921875 -17.609375 C 1.921875 -21.054688 2.644531 -24.234375 4.09375 -27.140625 C 5.550781 -30.046875 7.648438 -32.382812 10.390625 -34.15625 C 13.128906 -35.925781 16.429688 -36.8125 20.296875 -36.8125 C 24.234375 -36.8125 27.515625 -35.992188 30.140625 -34.359375 C 32.773438 -32.734375 34.75 -30.503906 36.0625 -27.671875 C 37.375 -24.847656 38.03125 -21.65625 38.03125 -18.09375 L 38.03125 -14.953125 Z M 15.1875 -22.5625 L 25.5 -22.5625 C 25.5 -23.46875 25.300781 -24.3125 24.90625 -25.09375 C 24.507812 -25.875 23.925781 -26.5 23.15625 -26.96875 C 22.382812 -27.4375 21.429688 -27.671875 20.296875 -27.671875 C 19.359375 -27.671875 18.503906 -27.4375 17.734375 -26.96875 C 16.972656 -26.5 16.359375 -25.875 15.890625 -25.09375 C 15.421875 -24.3125 15.1875 -23.46875 15.1875 -22.5625 Z M 15.1875 -22.5625 "/></g></g></g><g fill="#000813" fill-opacity="1"><g transform="translate(527.175705, 123.349577)"><g/></g></g><g fill="#000813" fill-opacity="1"><g transform="translate(540.833573, 123.349577)"><g><path d="M 14.390625 0.703125 C 12.128906 0.703125 10.050781 0.257812 8.15625 -0.625 C 6.257812 -1.507812 4.742188 -2.804688 3.609375 -4.515625 C 2.484375 -6.234375 1.921875 -8.335938 1.921875 -10.828125 C 1.921875 -14.742188 3.472656 -17.78125 6.578125 -19.9375 C 9.691406 -22.101562 14.53125 -23.1875 21.09375 -23.1875 L 23.890625 -23.1875 L 23.890625 -24.734375 C 23.890625 -25.898438 23.566406 -26.75 22.921875 -27.28125 C 22.285156 -27.8125 21.28125 -28.054688 19.90625 -28.015625 C 18.976562 -27.992188 17.953125 -27.769531 16.828125 -27.34375 C 15.710938 -26.925781 14.878906 -26.101562 14.328125 -24.875 L 3.3125 -24.875 C 3.457031 -27.707031 4.304688 -30.003906 5.859375 -31.765625 C 7.421875 -33.523438 9.484375 -34.804688 12.046875 -35.609375 C 14.609375 -36.410156 17.4375 -36.8125 20.53125 -36.8125 C 24.726562 -36.8125 28.015625 -36.332031 30.390625 -35.375 C 32.765625 -34.425781 34.441406 -33.109375 35.421875 -31.421875 C 36.398438 -29.734375 36.890625 -27.78125 36.890625 -25.5625 L 36.890625 0 L 25.640625 0 L 24.453125 -5.734375 C 23.378906 -3.285156 22.050781 -1.597656 20.46875 -0.671875 C 18.882812 0.242188 16.859375 0.703125 14.390625 0.703125 Z M 19.171875 -7.890625 C 19.828125 -7.890625 20.4375 -8.003906 21 -8.234375 C 21.570312 -8.472656 22.066406 -8.796875 22.484375 -9.203125 C 22.910156 -9.609375 23.242188 -10.066406 23.484375 -10.578125 C 23.734375 -11.097656 23.867188 -11.644531 23.890625 -12.21875 L 23.890625 -16.765625 L 21.71875 -16.765625 C 21 -16.765625 20.082031 -16.628906 18.96875 -16.359375 C 17.851562 -16.097656 16.859375 -15.640625 15.984375 -14.984375 C 15.109375 -14.328125 14.671875 -13.40625 14.671875 -12.21875 C 14.671875 -10.875 15.128906 -9.816406 16.046875 -9.046875 C 16.972656 -8.273438 18.015625 -7.890625 19.171875 -7.890625 Z M 19.171875 -7.890625 "/></g></g></g><g fill="#000813" fill-opacity="1"><g transform="translate(581.143523, 123.349577)"><g><path d="M 16.796875 0.703125 C 15.328125 0.703125 13.800781 0.453125 12.21875 -0.046875 C 10.632812 -0.546875 9.15625 -1.285156 7.78125 -2.265625 C 6.414062 -3.242188 5.300781 -4.4375 4.4375 -5.84375 C 3.570312 -7.257812 3.140625 -8.875 3.140625 -10.6875 L 3.140625 -36.125 L 16.765625 -36.125 L 16.765625 -12.578125 C 16.765625 -11.523438 17.148438 -10.644531 17.921875 -9.9375 C 18.691406 -9.226562 19.757812 -8.875 21.125 -8.875 C 22.5 -8.875 23.578125 -9.226562 24.359375 -9.9375 C 25.140625 -10.644531 25.53125 -11.523438 25.53125 -12.578125 L 25.53125 -36.125 L 39.015625 -36.125 L 39.015625 0 L 28.953125 0 L 27.34375 -7.40625 C 26.90625 -5.007812 26.066406 -3.234375 24.828125 -2.078125 C 23.597656 -0.921875 22.242188 -0.171875 20.765625 0.171875 C 19.285156 0.523438 17.960938 0.703125 16.796875 0.703125 Z M 16.796875 0.703125 "/></g></g></g><g fill="#000813" fill-opacity="1"><g transform="translate(623.304767, 123.349577)"><g><path d="M 17.25 0.703125 C 12.269531 0.703125 8.441406 -1.023438 5.765625 -4.484375 C 3.085938 -7.941406 1.75 -12.546875 1.75 -18.296875 C 1.75 -22.097656 2.300781 -25.382812 3.40625 -28.15625 C 4.507812 -30.925781 6.109375 -33.0625 8.203125 -34.5625 C 10.304688 -36.0625 12.832031 -36.8125 15.78125 -36.8125 C 16.695312 -36.8125 17.617188 -36.726562 18.546875 -36.5625 C 19.472656 -36.40625 20.382812 -36.144531 21.28125 -35.78125 C 22.1875 -35.425781 23.019531 -34.9375 23.78125 -34.3125 C 24.550781 -33.695312 25.21875 -32.925781 25.78125 -32 L 25.78125 -51.90625 L 39.40625 -51.90625 L 39.40625 0 L 29.796875 0 L 28.1875 -7.40625 C 27.769531 -6.144531 27.238281 -5.015625 26.59375 -4.015625 C 25.957031 -3.015625 25.191406 -2.164062 24.296875 -1.46875 C 23.398438 -0.769531 22.367188 -0.234375 21.203125 0.140625 C 20.035156 0.515625 18.71875 0.703125 17.25 0.703125 Z M 20.46875 -8.796875 C 22.050781 -8.796875 23.332031 -9.488281 24.3125 -10.875 C 25.289062 -12.257812 25.78125 -14.734375 25.78125 -18.296875 C 25.78125 -20.441406 25.554688 -22.171875 25.109375 -23.484375 C 24.671875 -24.804688 24.054688 -25.765625 23.265625 -26.359375 C 22.472656 -26.953125 21.539062 -27.25 20.46875 -27.25 C 18.925781 -27.25 17.609375 -26.59375 16.515625 -25.28125 C 15.421875 -23.976562 14.875 -21.648438 14.875 -18.296875 C 14.875 -14.734375 15.421875 -12.257812 16.515625 -10.875 C 17.609375 -9.488281 18.925781 -8.796875 20.46875 -8.796875 Z M 20.46875 -8.796875 "/></g></g></g><g fill="#000813" fill-opacity="1"><g transform="translate(666.199616, 123.349577)"><g><path d="M 16.765625 -36.125 L 16.765625 0 L 3.84375 0 L 3.84375 -36.125 Z M 16.765625 -50.515625 L 16.765625 -39.046875 L 3.84375 -39.046875 L 3.84375 -50.515625 Z M 16.765625 -50.515625 "/></g></g></g><g fill="#000813" fill-opacity="1"><g transform="translate(686.808716, 123.349577)"><g><path d="M 28.359375 -26.890625 L 20.46875 -26.890625 L 20.53125 -10.546875 C 20.53125 -10.015625 20.628906 -9.609375 20.828125 -9.328125 C 21.023438 -9.046875 21.285156 -8.851562 21.609375 -8.75 C 21.941406 -8.644531 22.304688 -8.59375 22.703125 -8.59375 L 28.359375 -8.59375 L 28.359375 -0.5625 C 27.867188 -0.320312 27.085938 -0.078125 26.015625 0.171875 C 24.953125 0.429688 23.335938 0.5625 21.171875 0.5625 C 17.367188 0.5625 14.4375 0.09375 12.375 -0.84375 C 10.320312 -1.789062 8.898438 -3.054688 8.109375 -4.640625 C 7.316406 -6.222656 6.921875 -7.984375 6.921875 -9.921875 L 6.921875 -26.890625 L 1.046875 -26.890625 L 1.046875 -36.125 L 7.40625 -36.125 L 10.890625 -47.359375 L 20.46875 -47.359375 L 20.46875 -36.1875 L 28.359375 -36.1875 Z M 28.359375 -26.890625 "/></g></g></g><g clip-path="url(#87a537a6b1)"><path fill="#000813" d="M 100.871094 30.980469 C 112.707031 30.980469 124.394531 34.0625 134.664062 39.929688 C 144.703125 45.65625 153.144531 53.890625 159.140625 63.730469 C 159.742188 64.707031 160.300781 65.679688 160.816406 66.632812 C 160.859375 66.714844 160.902344 66.796875 160.945312 66.878906 C 166.238281 76.75 169.03125 87.859375 169.03125 99.078125 L 169.03125 99.265625 C 169.03125 99.289062 169.03125 99.308594 169.03125 99.328125 C 168.9375 123.367188 155.996094 145.761719 135.238281 157.890625 C 135.238281 157.890625 135.238281 157.894531 135.234375 157.894531 C 124.828125 163.972656 112.941406 167.175781 100.867188 167.175781 C 88.796875 167.175781 76.90625 163.976562 66.503906 157.894531 C 45.746094 145.773438 32.800781 123.386719 32.707031 99.347656 C 32.707031 99.328125 32.707031 99.308594 32.707031 99.285156 L 32.707031 99.078125 C 32.707031 87.769531 35.546875 76.5625 40.929688 66.632812 C 40.953125 66.585938 40.980469 66.539062 41.003906 66.492188 C 41.496094 65.609375 42.019531 64.695312 42.574219 63.78125 L 42.585938 63.761719 C 48.585938 53.898438 57.03125 45.660156 67.074219 39.929688 C 77.34375 34.0625 89.03125 30.980469 100.871094 30.980469 Z M 100.871094 30.980469 " fill-opacity="1" fill-rule="nonzero"/></g><path fill="#dfff03" d="M 133.144531 79.527344 C 129.820312 74.058594 125.121094 69.496094 119.582031 66.332031 C 118.667969 65.804688 117.585938 65.664062 116.5625 65.945312 C 115.539062 66.222656 114.675781 66.894531 114.160156 67.808594 L 104 85.585938 C 101.945312 85.128906 99.789062 85.121094 97.734375 85.578125 L 87.585938 67.808594 C 87.058594 66.894531 86.195312 66.222656 85.183594 65.945312 C 84.160156 65.664062 83.078125 65.804688 82.164062 66.332031 C 76.621094 69.496094 71.925781 74.058594 68.578125 79.554688 C 68.269531 80.070312 67.972656 80.578125 67.675781 81.113281 C 64.707031 86.617188 63.136719 92.828125 63.136719 99.078125 L 63.136719 99.207031 C 63.136719 100.257812 63.554688 101.269531 64.308594 102.015625 C 65.054688 102.757812 66.066406 103.175781 67.109375 103.175781 L 67.117188 103.175781 L 87.574219 103.097656 C 88.199219 105.128906 89.273438 107.003906 90.734375 108.5625 L 80.4375 126.210938 C 79.332031 128.097656 79.96875 130.527344 81.855469 131.636719 C 87.59375 135 94.179688 136.777344 100.871094 136.777344 C 107.554688 136.777344 114.140625 135 119.886719 131.636719 C 121.785156 130.535156 122.421875 128.105469 121.316406 126.210938 L 111.011719 108.5625 C 112.460938 107.003906 113.542969 105.140625 114.160156 103.097656 L 134.613281 103.175781 L 134.625 103.175781 C 135.675781 103.175781 136.679688 102.757812 137.425781 102.015625 C 138.167969 101.269531 138.597656 100.257812 138.597656 99.207031 L 138.597656 99.078125 C 138.597656 92.828125 137.027344 86.617188 134.039062 81.101562 C 133.769531 80.578125 133.464844 80.070312 133.144531 79.527344 Z M 103.820312 93.902344 C 105.679688 94.960938 106.832031 96.9375 106.832031 99.109375 C 106.8125 101.210938 105.6875 103.167969 103.863281 104.226562 C 102.054688 105.289062 99.691406 105.300781 97.863281 104.226562 C 96.035156 103.148438 94.925781 101.230469 94.914062 99.078125 C 94.914062 96.996094 96.007812 95.0625 97.785156 93.988281 C 97.792969 93.980469 97.804688 93.980469 97.8125 93.96875 C 97.855469 93.949219 97.894531 93.929688 97.933594 93.902344 C 99.730469 92.878906 102.023438 92.886719 103.820312 93.902344 Z M 74.667969 84.890625 C 74.90625 84.464844 75.152344 84.039062 75.382812 83.652344 C 77.316406 80.46875 79.839844 77.671875 82.789062 75.417969 L 90.824219 89.484375 C 90.792969 89.515625 90.773438 89.554688 90.742188 89.585938 C 90.40625 89.941406 90.089844 90.320312 89.800781 90.707031 C 89.761719 90.753906 89.730469 90.804688 89.699219 90.84375 C 89.402344 91.25 89.113281 91.679688 88.867188 92.113281 C 88.855469 92.132812 88.847656 92.144531 88.847656 92.164062 C 88.597656 92.589844 88.378906 93.027344 88.179688 93.484375 C 88.152344 93.542969 88.121094 93.601562 88.101562 93.671875 C 87.914062 94.109375 87.753906 94.554688 87.617188 95.011719 C 87.59375 95.0625 87.574219 95.109375 87.554688 95.171875 L 71.339844 95.230469 C 71.785156 91.617188 72.910156 88.144531 74.667969 84.890625 Z M 89.421875 126.558594 L 97.585938 112.582031 C 97.632812 112.589844 97.695312 112.601562 97.742188 112.609375 C 98.210938 112.71875 98.675781 112.796875 99.144531 112.859375 C 99.203125 112.867188 99.261719 112.867188 99.324219 112.878906 C 99.839844 112.925781 100.355469 112.96875 100.871094 112.96875 C 101.386719 112.96875 101.894531 112.925781 102.402344 112.878906 C 102.46875 112.867188 102.53125 112.867188 102.597656 112.859375 C 103.078125 112.796875 103.542969 112.710938 104.007812 112.609375 C 104.058594 112.601562 104.109375 112.589844 104.160156 112.582031 L 112.320312 126.558594 C 105.09375 129.566406 96.632812 129.554688 89.421875 126.558594 Z M 114.207031 95.160156 C 114.199219 95.121094 114.179688 95.089844 114.167969 95.050781 C 114.019531 94.5625 113.851562 94.097656 113.660156 93.632812 C 113.652344 93.601562 113.632812 93.5625 113.613281 93.53125 C 113.402344 93.054688 113.175781 92.589844 112.917969 92.132812 L 112.90625 92.125 C 112.648438 91.675781 112.359375 91.25 112.0625 90.832031 C 112.03125 90.792969 112.003906 90.746094 111.964844 90.703125 C 111.664062 90.308594 111.347656 89.941406 111.011719 89.574219 C 110.980469 89.542969 110.960938 89.515625 110.929688 89.484375 L 118.953125 75.425781 C 121.894531 77.679688 124.414062 80.464844 126.34375 83.632812 C 126.589844 84.046875 126.847656 84.476562 127.078125 84.890625 C 128.84375 88.15625 129.96875 91.617188 130.421875 95.230469 Z M 146.28125 74.484375 C 145.882812 73.75 145.46875 73.027344 145.03125 72.320312 C 140.484375 64.851562 134.066406 58.601562 126.46875 54.265625 C 118.714844 49.832031 109.859375 47.488281 100.871094 47.488281 C 91.882812 47.488281 83.027344 49.832031 75.269531 54.265625 C 67.671875 58.601562 61.257812 64.851562 56.710938 72.332031 C 56.28125 73.035156 55.867188 73.761719 55.457031 74.496094 C 51.386719 82.003906 49.234375 90.507812 49.234375 99.078125 L 49.234375 99.285156 C 49.300781 117.46875 59.121094 134.464844 74.839844 143.640625 C 82.695312 148.234375 91.703125 150.667969 100.871094 150.667969 C 110.023438 150.667969 119.03125 148.234375 126.898438 143.640625 C 142.617188 134.457031 152.4375 117.453125 152.503906 99.265625 L 152.503906 99.078125 C 152.503906 90.507812 150.351562 82.003906 146.28125 74.484375 Z M 144.5625 99.246094 C 144.503906 114.625 136.191406 129.007812 122.886719 136.785156 C 116.234375 140.675781 108.625 142.730469 100.871094 142.730469 C 93.117188 142.730469 85.5 140.675781 78.855469 136.785156 C 65.550781 129.019531 57.238281 114.632812 57.179688 99.265625 L 57.179688 99.078125 C 57.179688 91.824219 58.996094 84.621094 62.441406 78.273438 C 62.777344 77.648438 63.136719 77.042969 63.503906 76.4375 C 67.355469 70.109375 72.789062 64.820312 79.222656 61.140625 C 85.777344 57.410156 93.265625 55.425781 100.871094 55.425781 C 108.476562 55.425781 115.964844 57.410156 122.519531 61.148438 C 128.953125 64.832031 134.382812 70.117188 138.238281 76.4375 C 138.605469 77.042969 138.953125 77.648438 139.289062 78.261719 C 142.746094 84.632812 144.5625 91.824219 144.5625 99.078125 Z M 144.5625 99.246094 " fill-opacity="1" fill-rule="nonzero"/></svg>