<svg width="1000" height="936" viewBox="0 0 1000 936" fill="none" xmlns="http://www.w3.org/2000/svg">
<g clip-path="url(#clip0_262_528)">
<path d="M225.72 0.341389L225.713 0.347949C247.019 0.375978 276.143 5.26387 304.338 23.9609C311.479 28.6967 318.491 34.3597 325.091 40.8769C337.169 37.2702 350.432 35.1444 364.832 35.1442H825.861C923.215 35.1453 993.059 111.485 999.613 197.385L1000 202.494L999.967 763.196C999.964 858.931 923.236 935.649 827.501 935.649H525.676V869.316H525.649C525.629 935.651 525.596 935.649 525.545 935.649H524.607C524.246 935.646 523.878 935.641 523.505 935.635C522.757 935.623 521.983 935.603 521.183 935.576C519.586 935.523 517.865 935.438 516.034 935.308C512.418 935.049 508.129 934.598 503.335 933.799C494.384 932.307 480.395 929.072 464.781 921.264C454.205 915.976 441.89 908.033 430.175 896.491C421.553 898.191 412.485 899.14 402.994 899.14H200.657C89.9818 899.14 0 809.158 0 698.483V200.966C0 90.2906 89.982 0.308594 200.657 0.308594H200.847L225.72 0.341389Z" fill="#000813"/>
<path fill-rule="evenodd" clip-rule="evenodd" d="M560.519 617.24L631.847 545.912L709.787 623.852C728.013 642.078 761.211 633.787 766.179 600.623C766.179 593.977 764.534 587.365 759.532 584.041L660.046 484.556C628.528 456.361 603.655 484.556 603.655 484.556L532.327 555.884L447.74 471.297H446.096L477.615 589.043L504.166 615.594C532.326 647.078 560.519 617.24 560.519 617.24ZM825.859 169.469H364.835C361.511 169.469 359.867 172.793 359.867 174.437L374.805 232.472C374.805 234.117 376.449 235.796 379.772 235.796H792.697C794.341 235.796 797.665 237.44 797.665 240.763V729.988C797.665 731.633 796.021 734.956 792.697 734.956L509.097 734.991C507.453 734.991 505.774 736.635 507.453 738.314L524.035 799.673C524.035 801.317 525.679 801.317 525.679 801.317H827.503C849.052 801.317 865.634 784.735 865.634 763.187L865.669 207.602C864.025 186.053 847.443 169.469 825.859 169.469ZM631.849 335.288C631.849 317.062 616.912 302.125 598.686 302.125C580.46 302.125 565.524 317.063 565.524 335.288C565.524 353.513 580.461 368.451 598.686 368.451C616.912 368.486 631.849 353.548 631.849 335.288ZM240.435 620.536C252.049 637.118 275.277 638.762 288.535 623.859L349.894 562.5V560.856L329.989 492.85C329.989 492.85 328.345 491.206 328.345 492.85L243.758 577.437C233.823 589.051 230.5 607.277 240.435 620.536ZM391.378 703.478C391.378 701.834 389.734 700.155 386.411 700.155H233.82C215.594 700.155 200.657 685.217 200.657 666.992V242.452C200.657 220.903 218.883 202.642 240.466 202.642C243.79 202.642 247.113 199.319 247.113 194.351L232.175 139.639C232.175 136.316 228.852 134.672 225.529 134.672L200.657 134.637C164.171 134.637 134.331 164.476 134.331 200.962V698.48C134.331 734.966 164.171 764.806 200.657 764.806H402.995C406.319 764.806 407.963 761.483 407.963 758.159L391.378 703.478Z" fill="#986DF8"/>
</g>
<defs>
<clipPath id="clip0_262_528">
<rect width="1000" height="935" fill="white" transform="translate(0 0.308594)"/>
</clipPath>
</defs>
</svg>
