<svg width="1000" height="1001" viewBox="0 0 1000 1001" fill="none" xmlns="http://www.w3.org/2000/svg">
<g clip-path="url(#clip0_344_705)">
<path d="M361.24 4.80657C433.386 -8.17423 507.596 11.5044 563.829 58.5559C606.589 94.3325 635.627 143.147 647.05 196.748C723.902 216.027 784.396 276.505 803.698 353.347C869.557 367.267 927.102 407.474 962.768 464.887L963.643 466.306L963.657 466.331L963.672 466.354C1000.79 527.076 1009.99 600.873 988.838 668.871C967.69 736.877 918.278 792.419 853.287 821.386C837.222 828.546 820.591 833.907 803.681 837.475C780.114 931.141 695.34 1000.47 594.354 1000.47H468.18C446.118 1000.47 424.662 995.701 405.114 986.832C385.485 995.732 363.992 1000.47 342.009 1000.47H215.835C96.605 1000.47 5.01422e-05 903.836 0 784.631V406.11C0.000183506 305.018 69.4766 220.172 163.292 196.709C167.403 177.413 173.848 158.487 182.634 140.36L183.448 138.699C218.104 68.5342 283.967 18.8668 361.004 4.84898L361.123 4.82827L361.24 4.80657Z" fill="#000813"/>
<path d="M215.836 879.261H342.009C351.405 879.261 360.338 875.072 366.314 867.833C372.32 860.594 374.754 851.045 372.998 841.803C367.977 820.549 359.845 800.188 348.879 781.304C342.656 769.167 340.592 755.305 343.026 741.875C348.016 716.338 367.947 696.316 393.513 691.264C411.903 687.814 430.909 692.742 445.325 704.694C459.742 716.615 468.12 734.358 468.182 753.087C468.213 761.989 466.303 770.769 462.575 778.87L456.815 790.791C448.252 806.716 441.721 823.628 437.346 841.186C435.375 850.489 437.716 860.161 443.692 867.555C449.668 874.948 458.663 879.26 468.182 879.26H594.355C646.629 879.26 688.985 836.905 688.985 784.63V704.913L699.859 710.026C732.85 725.213 770.77 725.459 803.944 710.673C837.118 695.887 862.317 667.547 873.098 632.862C883.88 598.208 879.198 560.565 860.253 529.573C841.309 498.615 809.919 477.299 774.156 471.076C746.401 466.209 717.846 470.799 693.018 484.106L688.983 486.17V406.113C688.983 353.839 646.627 311.483 594.353 311.483H514.635C516.422 307.848 518.147 304.213 519.841 300.609C527.388 284.252 531.3 266.417 531.269 248.396C531.3 211 514.727 175.514 486.049 151.519C457.37 127.522 419.512 117.481 382.705 124.103C343.091 131.311 309.268 157.002 291.71 193.227C274.152 229.453 274.922 271.901 293.836 307.445C294.452 308.801 295.191 310.125 295.9 311.481H215.843C163.568 311.481 121.213 353.836 121.213 406.111V784.63C121.213 836.905 163.562 879.261 215.836 879.261ZM184.293 406.111C184.293 388.677 198.401 374.568 215.836 374.568H342.009C351.405 374.568 360.338 370.379 366.314 363.14C372.32 355.901 374.754 346.352 372.998 337.11C367.977 315.856 359.845 295.495 348.879 276.611C342.656 264.474 340.592 250.612 343.026 237.182C348.016 211.645 367.947 191.623 393.513 186.571C411.903 183.121 430.909 188.049 445.325 200.001C459.742 211.922 468.12 229.665 468.182 248.394C468.213 257.296 466.303 266.076 462.575 274.177L456.815 286.098C448.252 302.023 441.721 318.935 437.346 336.493C435.375 345.796 437.716 355.468 443.692 362.862C449.668 370.255 458.663 374.567 468.182 374.567H594.355C602.734 374.567 610.742 377.894 616.657 383.809C622.571 389.723 625.898 397.732 625.898 406.111V532.284C625.898 541.679 630.087 550.581 637.296 556.557C644.534 562.564 654.053 564.997 663.264 563.273C684.518 558.221 704.942 550.088 723.855 539.153C735.992 532.961 749.823 530.897 763.284 533.239C788.882 538.136 808.936 558.097 813.988 583.695C817.438 602.27 812.417 621.431 800.249 635.908C781.952 657.255 751.856 664.094 726.135 652.789L714.214 647.028C698.258 638.526 681.346 631.996 663.819 627.529C654.547 625.619 644.875 627.991 637.512 633.967C630.15 639.974 625.899 648.968 625.899 658.456V784.63C625.899 793.008 622.572 801.017 616.658 806.932C610.743 812.846 602.734 816.173 594.356 816.173H514.638C516.424 812.538 518.149 808.903 519.844 805.299C527.391 788.942 531.303 771.107 531.272 753.086C531.303 715.69 514.73 680.204 486.051 656.209C457.373 632.212 419.515 622.171 382.708 628.793C343.094 636.001 309.271 661.692 291.713 697.917C274.154 734.143 274.925 776.591 293.838 812.135C294.454 813.491 295.194 814.815 295.902 816.171H215.845C198.411 816.171 184.302 802.062 184.302 784.627L184.293 406.111Z" fill="#986DF8"/>
</g>
<defs>
<clipPath id="clip0_344_705">
<rect width="1000" height="999.58" fill="white" transform="translate(0 0.894531)"/>
</clipPath>
</defs>
</svg>
