<svg width="1000" height="1001" viewBox="0 0 1000 1001" fill="none" xmlns="http://www.w3.org/2000/svg">
<g clip-path="url(#clip0_348_571)">
<path d="M1000 805.508L999.996 806.722C999.678 858.103 979.128 907.308 942.774 943.661C906.135 980.301 856.44 1000.89 804.621 1000.89H195.379C143.56 1000.89 93.8651 980.301 57.2256 943.661C20.5863 907.022 0 857.327 0 805.508L0 196.265L0.00372024 195.052C0.322488 143.671 20.8724 94.4655 57.2256 58.1124C93.865 21.473 143.559 0.886719 195.379 0.886719L804.621 0.886719C856.441 0.886719 906.135 21.473 942.774 58.1124C979.414 94.7518 1000 144.446 1000 196.265V805.508Z" fill="#000813"/>
<path d="M804.62 115.174C826.127 115.174 846.754 123.717 861.962 138.925C877.17 154.133 885.713 174.76 885.713 196.267V805.509C885.713 827.016 877.17 847.643 861.962 862.851C846.754 878.058 826.127 886.602 804.62 886.602H195.378C173.871 886.602 153.244 878.058 138.036 862.851C122.828 847.643 114.285 827.016 114.285 805.509V196.267C114.285 174.76 122.828 154.133 138.036 138.925C153.244 123.717 173.871 115.174 195.378 115.174H804.62ZM195.378 172.316C189.026 172.316 182.934 174.84 178.442 179.331C173.951 183.822 171.428 189.915 171.428 196.267V805.509C171.428 811.861 173.951 817.953 178.442 822.444C182.934 826.936 189.026 829.459 195.378 829.459H804.62C810.972 829.459 817.064 826.936 821.556 822.444C826.047 817.953 828.57 811.861 828.57 805.509V196.267C828.57 189.915 826.047 183.822 821.556 179.331C817.064 174.84 810.972 172.316 804.62 172.316H195.378ZM393.333 441.278V692.26H314.9V441.278H393.333ZM550.601 444.648C564.528 437.547 580.073 434.222 595.687 435.004C643.373 435.004 691.373 464.338 691.373 539.789L690.746 692.26H612.314V557.828C612.314 518.299 593.804 502.612 568.863 502.612H565.883C552.224 503.888 539.619 510.501 530.808 521.016C521.996 531.53 517.689 545.098 518.823 558.77V692.26H440.392V441.278H514.117V475.475H516.313C524.851 462.379 536.673 451.75 550.601 444.648ZM355.528 309.513C361.461 309.554 367.328 310.763 372.793 313.071C378.258 315.38 383.216 318.743 387.382 322.967C391.548 327.191 394.841 332.195 397.073 337.691C399.305 343.188 400.433 349.071 400.392 355.004V356.415C400.249 362.348 398.939 368.195 396.536 373.622C394.133 379.049 390.684 383.949 386.387 388.042C382.089 392.135 377.027 395.342 371.49 397.479C365.953 399.615 360.049 400.64 354.116 400.494C342.052 400.494 330.481 395.701 321.95 387.17C313.419 378.639 308.626 367.069 308.626 355.004C308.626 342.939 313.419 331.368 321.95 322.837C330.481 314.306 342.052 309.513 354.116 309.513H355.528Z" fill="#986DF8"/>
</g>
<defs>
<clipPath id="clip0_348_571">
<rect width="1000" height="1000" fill="white" transform="translate(0 0.886719)"/>
</clipPath>
</defs>
</svg>
