<svg width="1000" height="943" viewBox="0 0 1000 943" fill="none" xmlns="http://www.w3.org/2000/svg">
<g clip-path="url(#clip0_347_309)">
<path d="M995 398.647C995 435.19 982.452 468.804 961.435 495.421C982.453 522.038 995 555.653 995 592.196C995 628.739 982.453 662.353 961.436 688.97C982.454 715.586 995 749.201 995 785.744C995 872.053 925.019 942.035 838.71 942.035H161.29C74.9813 942.035 5 872.053 5 785.744C5.00006 749.201 17.5464 715.586 38.5645 688.97C17.9345 662.844 5.46574 629.977 5.0127 594.216L5 592.196L5.0127 590.176C5.46585 554.414 17.9349 521.546 38.5654 495.421C17.5475 468.804 5 435.19 5 398.647C5.00005 354.182 23.5745 314.05 53.3867 285.589V253.486C53.3867 253.233 53.388 252.98 53.3896 252.727C53.734 198.348 75.7364 146.5 114.256 108.467L162.344 60.377C200.707 22.0134 252.77 0.421875 307.066 0.421875L308.338 0.425781C341.976 0.634685 374.72 9.12869 403.84 24.7559C433.327 8.93141 466.53 0.421918 500.614 0.421875C534.699 0.421875 567.902 8.93169 597.389 24.7559C626.876 8.93151 660.079 0.421875 694.163 0.421875L695.435 0.425781C748.849 0.75749 800.01 21.9766 837.983 59.4814L838.885 60.377L887.272 108.765L888.155 109.656C925.813 148.11 946.753 199.821 946.612 253.486L946.613 285.589C976.426 314.05 995 354.182 995 398.647Z" fill="#000813"/>
<path d="M161.29 749.454C141.256 749.454 125 765.71 125 785.744C125 805.779 141.256 822.035 161.29 822.035H838.71C858.744 822.035 875 805.779 875 785.744C875 765.71 858.744 749.454 838.71 749.454H826.613V628.486H838.71C858.744 628.486 875 612.231 875 592.196C875 572.161 858.744 555.906 838.71 555.906H826.613V434.938H838.71C858.744 434.938 875 418.682 875 398.648C875 378.613 858.744 362.357 838.71 362.357H826.613V253.486C826.755 231.135 818.06 209.588 802.419 193.617L754.032 145.23C738.155 129.353 716.607 120.422 694.163 120.422C671.718 120.422 650.171 129.353 634.294 145.23L596.774 182.135L560.484 145.23C544.607 129.353 523.059 120.422 500.615 120.422C478.17 120.422 456.622 129.353 440.745 145.23L403.226 182.135L366.935 145.23C351.058 129.353 329.51 120.422 307.066 120.422C284.622 120.422 263.074 129.353 247.197 145.23L198.81 193.617C182.697 209.4 173.53 230.946 173.387 253.486V362.357H161.29C141.256 362.357 125 378.613 125 398.648C125 418.682 141.256 434.938 161.29 434.938H173.387V555.906H161.29C141.256 555.906 125 572.161 125 592.196C125 612.231 141.256 628.486 161.29 628.486H173.387V749.454H161.29ZM633.065 248.527L693.548 188.043L754.032 248.527V362.36H633.065V248.527ZM633.065 434.938H754.032V555.906H633.065V434.938ZM633.065 628.486H754.032V749.454H633.065V628.486ZM439.516 248.527L500 188.043L560.484 248.527V362.36H439.516V248.527ZM439.516 434.938H560.484V555.906H439.516V434.938ZM439.516 628.486H560.484V749.454H439.516V628.486ZM245.968 248.527L306.452 188.043L366.935 248.527V362.36H245.968V248.527ZM245.968 434.938H366.935V555.906H245.968V434.938ZM245.968 628.486H366.935V749.454H245.968V628.486Z" fill="#986DF8"/>
</g>
<defs>
<clipPath id="clip0_347_309">
<rect width="1000" height="941.61" fill="white" transform="translate(0 0.421875)"/>
</clipPath>
</defs>
</svg>
