<svg width="1000" height="857" viewBox="0 0 1000 857" fill="none" xmlns="http://www.w3.org/2000/svg">
<g clip-path="url(#clip0_347_313)">
<path d="M840.929 0.617188C881.989 0.617188 921.445 16.8923 950.58 46.0225L950.582 46.0234C979.814 75.2518 996 114.785 996 155.719V326.168C996 367.235 979.719 406.69 950.592 435.821C943.577 442.837 935.947 449.119 927.826 454.615V701.167C927.826 742.103 911.639 781.629 882.42 810.852C853.192 840.083 813.658 856.271 772.724 856.271H227.276C186.332 856.271 146.808 840.077 117.591 810.863C88.3539 781.63 72.1738 742.094 72.1738 701.167V454.615C64.0562 449.121 56.4302 442.842 49.4189 435.832C20.2727 406.689 4 367.224 4 326.168V155.719L4.0127 153.718C5.084 69.1312 73.9436 0.617188 159.071 0.617188H840.929Z" fill="#000813"/>
<path d="M840.929 120.617C850.238 120.617 859.154 124.302 865.734 130.882C872.316 137.462 876 146.411 876 155.72V326.168C876 335.478 872.314 344.393 865.734 350.974C859.156 357.552 850.241 361.271 840.929 361.271H807.826V701.167C807.826 710.475 804.142 719.424 797.562 726.005C790.981 732.586 782.032 736.271 772.724 736.271H227.276C217.968 736.271 209.02 732.585 202.438 726.005C195.857 719.424 192.174 710.476 192.174 701.167V361.271H159.071C149.759 361.271 140.844 357.552 134.266 350.974C127.685 344.394 124 335.478 124 326.168V155.72C124 136.344 139.693 120.617 159.071 120.617H840.929ZM262.347 666.098H737.653V361.271H262.347V666.098ZM636.37 427.443C655.749 427.443 671.441 443.17 671.441 462.546C671.441 481.923 655.748 497.617 636.37 497.617H363.614C344.237 497.617 328.543 481.923 328.543 462.546C328.543 443.17 344.236 427.443 363.614 427.443H636.37ZM156.562 360.178C157.114 360.219 157.668 360.247 158.224 360.261L157.38 360.229C157.107 360.215 156.834 360.198 156.562 360.178ZM194.174 291.065H805.826V190.79H194.174V291.065Z" fill="#986DF8"/>
</g>
<defs>
<clipPath id="clip0_347_313">
<rect width="1000" height="855.65" fill="white" transform="translate(0 0.617188)"/>
</clipPath>
</defs>
</svg>
