<svg width="1000" height="1000" viewBox="0 0 1000 1000" fill="none" xmlns="http://www.w3.org/2000/svg">
<g clip-path="url(#clip0_278_570)">
<path d="M391.841 0C430.747 0 467.346 8.75572 500.001 24.1167C532.655 8.75624 569.253 0 608.159 0C608.398 0 608.637 0.000399796 608.876 0.00188184L610.696 0.0131729L611.45 0.0207002C731.76 1.55116 832.272 86.0834 858.266 198.916C897.877 233.561 926.924 280.269 939.352 333.775C942.836 348.667 944.943 363.745 945.694 378.838C978.729 427.05 998.737 485.244 999.943 548.067L999.975 550.027L999.982 550.796L999.998 553.347C1000 553.589 1000 553.831 1000 554.073C1000 635.212 968.162 711.29 914.179 767.965C889.966 899.311 775.118 999.118 637.031 999.994L635.199 1000C586.187 1000 540.138 987.5 500.01 965.66C460.5 987.164 415.254 999.604 367.097 999.991C366.947 999.992 366.797 999.993 366.647 999.993L365.278 999.999C365.12 1000 364.96 1000 364.801 1000C226.002 1000 110.317 900.042 85.8766 768.266C32.9049 712.702 0 637.287 0 554.078L0.00564551 552.139C0.394588 489.158 19.7186 428.967 54.5177 378.454C55.2263 363.965 57.1864 349.207 60.5961 334.329C60.6068 334.282 60.6182 334.235 60.629 334.189C73.2851 279.263 102.73 233.069 141.686 199.126C167.842 85.161 270.012 0.000761606 391.841 0ZM917.768 698.233C917.77 698.251 917.773 698.282 917.778 698.319C917.778 698.324 917.779 698.328 917.78 698.333C917.779 698.324 917.778 698.315 917.777 698.307C917.773 698.272 917.769 698.243 917.767 698.226L917.765 698.21C917.765 698.215 917.766 698.223 917.768 698.233Z" fill="#000813"/>
<path d="M609.979 115.63C686.889 116.609 749.181 179.504 749.181 256.641C749.181 259.156 749.106 261.677 748.948 264.214C787.712 282.452 816.964 317.631 826.772 360.107C831.181 378.956 831.535 398.315 827.962 417.097C862.203 451.774 883.687 499.171 884.364 551.521L884.38 554.072C884.38 617.165 853.516 675.784 802.99 712.166C802.992 712.185 802.995 712.203 802.997 712.222C803.105 713.244 803.225 714.464 803.254 715.758L803.261 716.316C803.261 809.002 727.882 884.379 635.198 884.379C579.776 884.379 530.601 857.39 500.001 815.964C469.649 857.079 421.033 883.934 366.17 884.374L364.801 884.379C272.116 884.379 196.738 809 196.738 716.316C196.738 714.989 196.819 713.606 196.912 712.336C147.749 676.907 115.62 619.201 115.62 554.077C115.62 502.085 136.068 453.289 172.195 417.025C168.878 398.667 168.881 379.414 173.294 360.155L173.296 360.149C183.431 316.164 213.33 282.115 251.295 264.408C251.042 261.903 250.818 259.227 250.818 256.641C250.819 178.897 314.096 115.62 391.84 115.619C435.473 115.619 474.177 135.807 500 166.952C525.823 135.808 564.527 115.619 608.159 115.619L609.979 115.63ZM608.121 181.347C566.944 181.347 533.354 214.615 532.831 255.67L532.826 256.641V575.294H547.653C572.417 575.294 594.67 561.534 605.751 539.374L605.753 539.369C613.877 523.164 633.588 516.529 649.835 524.707L650.59 525.095C666.258 533.452 672.506 552.805 664.539 568.778L664.535 568.784C642.254 613.347 597.411 641.023 547.62 641.023H532.793V716.317C532.793 772.724 578.689 818.653 635.128 818.653C691.566 818.653 737.462 772.724 737.462 716.317C737.462 693.947 730.398 672.736 717 654.924L716.996 654.919C706.112 640.421 709.024 619.801 723.532 608.909C737.821 598.149 757.982 600.866 769.017 614.765L769.535 615.436L769.542 615.444C775.543 623.437 780.453 631.908 784.701 640.563C806.026 617.161 818.548 586.556 818.548 554.08V548.958C815.847 480.008 758.87 424.704 689.273 424.704C674.558 424.704 660.026 427.193 645.99 432.055L645.989 432.055C628.978 438.046 610.132 428.95 604.144 411.847L603.872 411.032C598.469 394.125 607.489 375.886 624.347 369.984L624.353 369.982C645.317 362.67 667.157 358.975 689.239 358.975C715.128 358.975 739.766 364.198 762.344 373.407C755.263 345.484 733.4 324.446 704.738 318.237L704.731 318.236C695.864 316.307 688.173 310.802 683.523 302.983C678.851 295.183 677.626 285.828 680.085 277.1L680.087 277.09L680.091 277.079C682.422 268.919 683.415 262.477 683.415 256.641C683.415 215.141 649.621 181.347 608.121 181.347ZM391.872 181.35C352.205 181.35 319.578 212.226 316.773 251.194C324.543 251.464 332.443 252.293 340.425 253.975L342.435 254.416L342.445 254.418C360.114 258.486 371.161 276.146 367.093 293.814C363.025 311.482 345.366 322.529 327.698 318.461H327.694C287.361 309.146 246.755 334.471 237.441 374.899V374.901C229.937 407.427 244.267 440.403 273.141 457.065L273.146 457.068C288.831 466.142 294.258 486.226 285.177 501.964C279.277 512.205 268.709 518.025 257.739 518.379L256.677 518.396C251.101 518.396 245.46 516.998 240.279 513.999C225.704 505.588 213.409 494.799 203.182 482.587C189.161 503.454 181.415 528.118 181.414 554.045C181.415 625.356 239.477 683.419 310.789 683.419C328.661 683.419 343.193 697.67 343.643 715.434L343.653 716.282C343.653 734.439 328.945 749.147 310.789 749.147C295.541 749.147 280.749 747.282 266.553 743.926C278.645 786.954 318.074 818.615 364.873 818.616C419.98 818.616 465.037 774.828 467.132 720.253V372.356C447.378 376.017 430.415 388.211 421.246 406.549L421.242 406.556L421.239 406.563C415.543 417.876 404.229 424.499 392.401 424.703L391.838 424.708C386.903 424.708 381.876 423.596 377.148 421.211C360.938 413.077 354.367 393.367 362.458 377.144L362.461 377.138C382.923 336.248 422.378 309.855 467.167 305.741V256.645C467.167 215.469 433.899 181.878 392.844 181.355L391.872 181.35ZM260.429 584.912C302.482 542.824 370.582 542.253 413.309 583.205H413.38L415.085 584.911C427.905 597.732 427.905 618.555 415.085 631.375C408.672 637.787 400.241 640.991 391.838 640.991C383.423 640.991 375.035 637.781 368.602 631.388L368.595 631.381L368.589 631.375C351.6 614.386 323.918 614.381 306.891 631.379L306.89 631.378C294.071 644.192 273.256 644.194 260.437 631.38C247.566 618.551 247.619 597.724 260.429 584.912Z" fill="#986DF8"/>
</g>
<defs>
<clipPath id="clip0_278_570">
<rect width="1000" height="1000" fill="white"/>
</clipPath>
</defs>
</svg>
