<svg width="1000" height="1004" viewBox="0 0 1000 1004" fill="none" xmlns="http://www.w3.org/2000/svg">
<g clip-path="url(#clip0_262_520)">
<path d="M655.137 4.71706C750.621 -6.81353 849.988 26.6843 919.352 102.013C1033.8 226.302 1024.27 417.91 904.549 532.194C948.999 577.005 963.623 643.506 946.119 702.198L946.092 702.278C926.633 767.377 871.601 812.323 808.386 821.676C799.733 882.477 758.519 936.564 695.674 958.535C632.078 980.765 563.926 963.547 518.871 918.758L518.724 918.912L516.252 921.391L513.652 923.731C396.546 1029.41 216.929 1030.35 99.7808 923.071L99.6342 922.931L99.4809 922.791C-23.9866 809.035 -35.1183 614.5 80.6456 488.784L82.3318 486.952L84.0847 485.185L84.5179 484.752C41.3279 442.113 22.3387 377.599 41.1686 314.674C60.753 249.132 116.397 203.994 180.161 195.063C188.507 132.288 231.277 75.2878 297.206 54.3915C360.185 34.4333 426.765 52.9795 470.629 97.6875L483.26 85.0573L485.326 83.1511C533.087 39.1726 590.798 13.5212 650.238 5.37023L655.137 0.271484V4.71706Z" fill="#000813"/>
<path d="M277.499 482.775C290.261 470.939 311.196 470.938 323.921 482.775C337.57 495.537 338.459 517.361 325.734 531.01L229.291 628.373C189.267 668.395 189.266 733.019 229.291 773.044C269.312 813.068 333.937 813.068 373.962 773.044L470.438 676.568C483.2 664.73 504.141 664.73 516.867 676.568C530.515 689.33 531.404 711.153 518.68 724.802L422.203 821.279C356.657 880.428 256.556 880.434 191.967 821.285C122.829 757.585 117.356 649.306 181.056 580.131L277.499 482.775ZM604.199 692.064C621.474 686.589 640.599 695.692 646.961 713.892L671.562 784.881C677.923 803.08 668.819 822.201 650.62 828.563C632.421 834.925 613.301 825.827 606.938 807.629L582.371 734.827C576.898 717.552 585.999 698.426 604.199 692.064ZM678.807 617.455C684.245 600.18 703.37 589.235 721.57 594.708L794.372 619.268C812.572 625.631 820.745 643.836 815.307 662.071C809.867 680.269 790.743 690.255 772.544 683.892L699.748 659.332C682.437 652.933 674.257 634.731 678.807 617.455ZM566.874 386.292C580.524 372.643 601.459 372.643 615.109 386.292C627.835 399.942 627.835 420.877 615.109 434.527L422.203 628.366C409.442 640.203 388.5 640.203 375.775 628.366C362.127 615.605 361.238 593.781 373.962 580.131L566.874 386.292ZM577.785 182.449C646.963 118.75 755.233 124.183 818.932 193.36C882.631 262.537 877.194 370.807 808.022 434.507L711.579 530.99L709.766 532.803C696.117 545.563 674.257 544.638 661.531 530.99C648.77 517.34 649.694 495.474 663.344 482.749L759.78 386.246C799.806 346.224 799.806 281.6 759.78 241.575C719.758 201.55 655.134 201.55 615.109 241.575L518.633 338.051V338.038C517.745 338.961 517.743 339.883 516.82 339.884C503.17 352.645 481.304 351.721 468.579 338.071C455.82 324.421 456.743 302.561 470.392 289.836L577.785 182.449ZM171.945 352.634C177.383 334.435 196.509 324.445 214.708 330.806L287.51 354.487C305.708 359.925 315.698 379.045 309.338 397.243C303.9 415.442 284.774 425.432 266.575 419.071L193.773 394.51C176.498 389.036 166.471 370.834 171.945 352.634ZM338.444 183.396C355.719 177.921 374.844 187.024 381.207 205.224L405.774 278.019C405.774 278.943 406.694 279.834 406.694 280.758C412.168 298.958 402.146 318.047 383.946 323.521C365.746 328.996 346.658 318.967 341.183 300.767L316.623 226.159C311.148 208.884 321.17 188.871 338.444 183.396Z" fill="#986DF8"/>
</g>
<defs>
<clipPath id="clip0_262_520">
<rect width="1000" height="1003" fill="white" transform="translate(0 0.271484)"/>
</clipPath>
</defs>
</svg>
