<svg width="1000" height="1000" viewBox="0 0 1000 1000" fill="none" xmlns="http://www.w3.org/2000/svg">
<g clip-path="url(#clip0_278_550)">
<path d="M370.864 29.9878C452.322 -9.9971 547.687 -9.99607 629.145 29.9917C642.789 36.6896 655.784 44.3853 668.052 52.9715C689.918 41.179 714.937 34.4843 741.519 34.4843H775.999C816.557 34.4846 855.389 50.3892 884.258 78.5475L885.625 79.8979L886.981 81.2716C915.264 110.264 931.017 149.118 931.017 189.503C931.017 204.912 928.723 220.095 924.317 234.59C972.825 288.257 999.949 358.166 1000 430.929V707.093C999.945 784.626 969.146 858.947 914.447 913.794C914.352 913.89 914.257 913.988 914.161 914.085C859.316 968.984 784.894 999.907 707.253 1000.01C707.172 1000.01 707.09 1000.01 707.009 1000.01H292.917C215.213 999.954 140.73 969.022 85.8459 914.092C85.7868 914.032 85.7287 913.972 85.6697 913.913C30.8924 859.055 0.0549482 784.678 0 707.093V430.929C0.0514786 358.173 27.1705 288.275 75.6623 234.612C71.3267 220.338 68.9918 205.193 68.9917 189.504C68.9917 103.894 138.41 34.4843 224.011 34.4843H258.491C284.387 34.4845 309.578 40.9705 331.922 52.988C344.2 44.3931 357.207 36.6908 370.864 29.9878ZM71.0013 201.298C71.0075 201.379 71.0123 201.44 71.0149 201.472C71.0154 201.479 71.0164 201.485 71.0168 201.49C71.017 201.492 71.0168 201.496 71.0168 201.496L71.0188 201.517C71.0183 201.511 71.0174 201.498 71.0168 201.49C71.0165 201.486 71.0163 201.481 71.0158 201.475C71.0131 201.441 71.006 201.353 70.9975 201.242C70.999 201.262 71 201.28 71.0013 201.298ZM71.0158 201.475C71.0157 201.473 71.0151 201.471 71.0149 201.469C71.0125 201.438 71.0075 201.378 71.0013 201.298C71.0075 201.378 71.0132 201.441 71.0158 201.475ZM70.8155 198.552C70.8178 198.591 70.82 198.624 70.8213 198.644V198.64C70.8192 198.607 70.813 198.505 70.8048 198.366C70.8094 198.445 70.8128 198.508 70.8155 198.552ZM71.0178 201.506C71.0174 201.502 71.0173 201.496 71.0168 201.49C71.0168 201.49 71.017 201.486 71.0168 201.484C71.0175 201.493 71.0175 201.503 71.0178 201.506Z" fill="#000813"/>
<path d="M423.273 136.771C471.673 113.011 528.327 113.011 576.727 136.771C624.745 160.343 659.239 204.667 670.294 256.93H707.001C753.146 256.995 797.399 275.336 830.008 307.973L831.527 309.511C863.212 341.991 881.018 385.583 881.05 431.014V707.01C881.017 753.157 862.643 797.407 830.007 830.016L830.008 830.017C797.407 862.65 753.156 881.024 707.009 881.059V881.06H293.001C246.854 881.027 202.601 862.653 169.992 830.017V830.016C137.357 797.413 118.983 753.16 118.95 707.01V431.014C118.983 384.866 137.356 340.614 169.992 307.973L171.529 306.454C203.979 274.768 247.571 256.994 292.999 256.93H329.706C340.765 204.665 375.259 160.337 423.273 136.771ZM500.005 191.06C443.713 191.06 398.06 236.713 398.06 293.005C398.06 302.57 394.274 311.732 387.513 318.493C380.752 325.253 371.559 329.074 361.992 329.074H293.004L291.687 329.083C236.001 329.85 191.122 375.166 191.057 431.02V707.01C191.121 763.303 236.71 808.891 293.004 808.957H707.007C763.299 808.893 808.886 763.304 808.953 707.012V431.02C808.889 375.166 764.009 329.852 708.324 329.083L707.007 329.074H638.018C618.107 329.073 601.949 312.916 601.949 293.005C601.949 236.713 556.297 191.06 500.005 191.06ZM500.005 394.956C546.149 394.956 590.438 413.298 623.073 445.935C655.706 478.571 674.05 522.858 674.05 569.002V569.003C674.018 615.15 655.644 659.402 623.009 692.043C590.405 724.679 546.15 743.022 500 743.087L496.234 743.092L496.287 743.037C451.485 742.081 408.695 723.861 376.938 692.102L376.937 692.101C344.302 659.433 325.96 615.179 325.96 569.002C325.96 522.855 344.301 478.569 376.938 445.935C409.575 413.301 453.861 394.956 500.005 394.956ZM189.499 431.019V707.012C189.502 709.514 189.596 711.995 189.773 714.452C189.596 711.995 189.503 709.514 189.5 707.012V431.019C189.501 430.81 189.504 430.602 189.505 430.394C189.504 430.602 189.5 430.81 189.499 431.019ZM618.844 693.934C617.812 694.917 616.769 695.886 615.716 696.841L617.288 695.398C617.809 694.914 618.328 694.425 618.844 693.934ZM621.906 690.943C621.401 691.449 620.894 691.95 620.383 692.449C620.894 691.95 621.402 691.449 621.907 690.943C622.412 690.438 622.914 689.93 623.412 689.419L621.906 690.943ZM627.642 684.923L627.805 684.745C627.889 684.653 627.97 684.558 628.054 684.466C627.916 684.618 627.78 684.771 627.642 684.923ZM629.021 683.385C629.089 683.308 629.159 683.232 629.227 683.155C629.268 683.108 629.308 683.061 629.349 683.014C629.24 683.138 629.13 683.262 629.021 683.385ZM630.628 681.55C630.56 681.629 630.489 681.707 630.421 681.786C630.489 681.707 630.56 681.629 630.628 681.55ZM631.817 680.151C631.88 680.076 631.945 680.003 632.007 679.928C632.147 679.762 632.285 679.593 632.425 679.426C632.223 679.668 632.02 679.91 631.817 680.151ZM632.836 678.932C633.045 678.679 633.253 678.425 633.461 678.17C633.253 678.425 633.045 678.679 632.836 678.932ZM633.804 677.75C634.035 677.466 634.264 677.182 634.493 676.897C634.264 677.182 634.035 677.466 633.804 677.75ZM500.003 467.054C458.78 467.055 421.603 491.904 405.832 530.005V530.006C390.031 568.108 398.76 611.944 427.909 641.092C457.058 670.242 500.927 678.971 539.029 663.202L539.919 662.828C577.486 646.82 601.948 609.932 601.948 568.998L601.939 567.682C601.172 512.027 555.857 467.119 500.003 467.054ZM644.614 662.91C643.847 664.09 643.064 665.262 642.267 666.425L643.452 664.673C643.843 664.088 644.23 663.5 644.614 662.91ZM427.505 642.883C428.001 643.371 428.502 643.852 429.007 644.328L428.254 643.609C428.003 643.369 427.754 643.127 427.505 642.883H427.505ZM655.825 642.847L655.904 642.683C655.952 642.581 655.998 642.477 656.046 642.375C655.972 642.532 655.899 642.69 655.825 642.847ZM656.601 641.185C656.664 641.049 656.73 640.913 656.793 640.776C656.838 640.677 656.881 640.578 656.926 640.479C656.818 640.715 656.71 640.95 656.601 641.185ZM660.336 632.473C659.4 634.833 658.412 637.172 657.373 639.488C657.468 639.278 657.564 639.069 657.658 638.858C658.511 636.935 659.329 634.997 660.112 633.044C660.188 632.855 660.26 632.663 660.336 632.473ZM660.779 631.347C660.813 631.26 660.849 631.174 660.882 631.087C660.946 630.923 661.006 630.758 661.069 630.593C660.973 630.845 660.876 631.096 660.779 631.347ZM661.48 629.513C661.559 629.303 661.637 629.092 661.715 628.882C661.637 629.092 661.559 629.303 661.48 629.513ZM662.603 626.432C662.472 626.801 662.341 627.169 662.208 627.537C662.341 627.169 662.472 626.801 662.603 626.432ZM662.94 625.47C663.034 625.2 663.127 624.93 663.219 624.659C663.127 624.93 663.034 625.2 662.94 625.47ZM663.56 623.655C663.615 623.491 663.671 623.329 663.725 623.166C663.767 623.039 663.807 622.913 663.848 622.786C663.753 623.076 663.657 623.365 663.56 623.655ZM672.155 579.681C672.055 581.277 671.933 582.87 671.789 584.458C671.933 582.87 672.055 581.278 672.155 579.682V579.681ZM672.434 573.369C672.398 574.766 672.345 576.16 672.275 577.553L672.37 575.42C672.396 574.737 672.416 574.053 672.434 573.369ZM672.439 573.146C672.454 572.544 672.466 571.941 672.474 571.338C672.466 571.941 672.453 572.544 672.439 573.146ZM672.493 569.002C672.492 569.64 672.488 570.277 672.48 570.914C672.488 570.277 672.493 569.64 672.494 569.002C672.494 568.303 672.489 567.604 672.48 566.905C672.489 567.604 672.493 568.303 672.493 569.002ZM624.961 450.101C625.437 450.602 625.911 451.105 626.38 451.61C625.426 450.583 624.458 449.566 623.477 448.56L624.961 450.101ZM189.527 428.886C189.522 429.098 189.516 429.311 189.513 429.523C189.516 429.311 189.522 429.098 189.527 428.886ZM189.568 427.376C189.561 427.583 189.554 427.791 189.548 427.998C189.554 427.791 189.561 427.583 189.568 427.376ZM189.631 425.886C189.623 426.045 189.617 426.204 189.61 426.363C189.617 426.204 189.623 426.045 189.631 425.886ZM191.784 409.403C191.74 409.609 191.695 409.816 191.652 410.023C191.695 409.816 191.74 409.609 191.784 409.403ZM192.079 408.057C192.045 408.209 192.011 408.362 191.977 408.514C192.011 408.362 192.045 408.209 192.079 408.057ZM192.425 406.582C192.395 406.706 192.366 406.83 192.337 406.955C192.366 406.83 192.395 406.706 192.425 406.582ZM194.564 399.038C194.545 399.098 194.526 399.159 194.507 399.219C194.539 399.12 194.57 399.02 194.603 398.921L194.564 399.038ZM196.256 394.245C196.466 393.694 196.68 393.146 196.899 392.6C196.68 393.146 196.466 393.694 196.256 394.245ZM197.239 391.763C197.15 391.979 197.061 392.195 196.974 392.412C197.061 392.195 197.15 391.979 197.239 391.763ZM197.605 390.884C197.51 391.108 197.415 391.334 197.322 391.559C197.415 391.334 197.51 391.108 197.605 390.884ZM198.161 389.587C198.004 389.946 197.849 390.307 197.696 390.668C197.849 390.307 198.004 389.947 198.161 389.588V389.587ZM199.198 387.296C199.021 387.676 198.846 388.056 198.673 388.438L199.199 387.296C199.376 386.917 199.555 386.538 199.737 386.162L199.198 387.296ZM799.422 384.444C799.367 384.335 799.312 384.226 799.256 384.117C799.312 384.226 799.367 384.335 799.422 384.444ZM798.845 383.318C798.774 383.182 798.704 383.046 798.633 382.911C798.704 383.046 798.774 383.182 798.845 383.318ZM798.16 382.025C798.118 381.946 798.076 381.867 798.033 381.788C798.076 381.867 798.118 381.946 798.16 382.025ZM202.952 380.034C202.87 380.179 202.786 380.324 202.704 380.47C202.786 380.324 202.87 380.179 202.952 380.034ZM203.701 378.736C203.61 378.891 203.519 379.045 203.429 379.201C203.519 379.045 203.61 378.891 203.701 378.736ZM204.442 377.492C204.344 377.653 204.248 377.815 204.151 377.976C204.248 377.815 204.344 377.653 204.442 377.492ZM207.911 372.144C207.438 372.826 206.974 373.514 206.517 374.208L207.208 373.172C207.441 372.828 207.675 372.485 207.911 372.144ZM786.884 365.255C787.397 365.878 787.904 366.508 788.404 367.143L787.63 366.17C787.383 365.864 787.134 365.559 786.884 365.255ZM786.003 364.202C785.75 363.904 785.497 363.607 785.241 363.311C785.497 363.607 785.75 363.904 786.003 364.202ZM215.619 362.343C215.059 362.974 214.507 363.611 213.962 364.254C214.507 363.611 215.059 362.974 215.619 362.343ZM216.216 361.677C216.096 361.81 215.976 361.942 215.858 362.074C215.976 361.942 216.096 361.81 216.216 361.677ZM216.811 361.024C216.712 361.132 216.613 361.239 216.515 361.347C216.613 361.239 216.712 361.132 216.811 361.024ZM217.528 360.252C217.41 360.377 217.293 360.504 217.175 360.63C217.293 360.504 217.41 360.377 217.528 360.252ZM218.155 359.589C218.046 359.703 217.938 359.817 217.83 359.931C217.938 359.817 218.046 359.703 218.155 359.589ZM218.895 358.821C218.759 358.96 218.624 359.101 218.489 359.241C218.624 359.101 218.759 358.96 218.895 358.821ZM219.72 357.985C219.498 358.208 219.276 358.432 219.056 358.657C219.276 358.432 219.498 358.208 219.72 357.985ZM778.39 356.127C778.989 356.698 779.582 357.276 780.167 357.861L779.284 356.987C778.988 356.699 778.69 356.412 778.39 356.127ZM220.687 357.026C220.996 356.724 221.307 356.424 221.62 356.126C222.301 355.477 222.989 354.837 223.687 354.207C222.668 355.127 221.668 356.067 220.687 357.026ZM224.879 353.148C224.72 353.287 224.562 353.426 224.404 353.565C224.562 353.426 224.72 353.287 224.879 353.148ZM225.6 352.523C225.445 352.656 225.291 352.789 225.137 352.923C225.291 352.789 225.445 352.656 225.6 352.523ZM226.411 351.833C226.223 351.991 226.035 352.149 225.849 352.309C226.035 352.149 226.223 351.991 226.411 351.833ZM227.115 351.245C226.92 351.406 226.726 351.568 226.533 351.73C226.726 351.568 226.92 351.406 227.115 351.245ZM232.567 347.031C230.743 348.347 228.964 349.72 227.232 351.148C228.964 349.72 230.743 348.347 232.567 347.031ZM236.785 344.145C236.364 344.418 235.944 344.694 235.527 344.973C235.944 344.694 236.364 344.418 236.785 344.145ZM238.29 343.186C237.837 343.469 237.386 343.756 236.938 344.046C237.386 343.756 237.837 343.469 238.29 343.186ZM762.063 343.405C761.929 343.321 761.794 343.237 761.659 343.153C761.794 343.237 761.929 343.321 762.063 343.405ZM760.672 342.545C760.408 342.384 760.144 342.224 759.879 342.065C760.144 342.224 760.408 342.384 760.672 342.545ZM759.708 341.964C759.336 341.743 758.962 341.524 758.587 341.307C758.962 341.524 759.336 341.743 759.708 341.964ZM245.064 339.305C244.922 339.379 244.78 339.453 244.638 339.528C244.78 339.453 244.922 339.379 245.064 339.305ZM246.125 338.755C245.96 338.839 245.796 338.925 245.632 339.009C245.796 338.925 245.96 338.839 246.125 338.755ZM248.145 337.753C247.58 338.025 247.019 338.304 246.46 338.586C246.646 338.492 246.832 338.398 247.018 338.306C247.393 338.119 247.768 337.936 248.145 337.754V337.753ZM280.154 328.32C279.976 328.343 279.798 328.365 279.62 328.388C279.798 328.365 279.976 328.343 280.154 328.32ZM281.12 328.203C281.02 328.215 280.921 328.227 280.821 328.239C280.972 328.221 281.123 328.203 281.274 328.186L281.12 328.203ZM287.493 327.667C287.158 327.685 286.823 327.705 286.489 327.726C286.823 327.705 287.158 327.685 287.493 327.667ZM290.258 327.556C289.438 327.578 288.62 327.61 287.805 327.651C288.203 327.631 288.602 327.613 289.001 327.597C289.419 327.581 289.838 327.567 290.258 327.556ZM291.4 327.532C291.097 327.536 290.794 327.542 290.491 327.55C290.794 327.542 291.097 327.536 291.4 327.532ZM293.001 327.517C292.607 327.517 292.213 327.52 291.819 327.525C292.213 327.52 292.607 327.517 293.002 327.517H293.001ZM362.849 327.506L363.649 327.477C363.662 327.477 363.674 327.475 363.687 327.474C363.408 327.488 363.128 327.499 362.849 327.506ZM386.411 317.393L386.991 316.799C386.997 316.793 387.002 316.786 387.008 316.78C386.812 316.986 386.613 317.191 386.411 317.393ZM164.906 315.594C164.452 316.098 164.001 316.604 163.554 317.113C164.001 316.604 164.452 316.098 164.906 315.594ZM166.328 314.035C165.985 314.407 165.644 314.781 165.305 315.155C165.644 314.781 165.985 314.407 166.328 314.035ZM168.05 312.194C167.584 312.685 167.121 313.179 166.661 313.674C167.121 313.179 167.584 312.685 168.05 312.194ZM603.599 295.545C603.602 295.586 603.605 295.627 603.609 295.668C603.605 295.627 603.602 295.586 603.599 295.545ZM603.55 294.753C603.552 294.809 603.556 294.864 603.559 294.919C603.554 294.828 603.549 294.736 603.545 294.645L603.55 294.753ZM396.512 291.665C396.507 292.111 396.503 292.558 396.503 293.005C396.503 293.291 396.5 293.577 396.493 293.862L396.504 293.005C396.504 292.559 396.507 292.113 396.512 291.667V291.665ZM396.579 289.004C396.564 289.417 396.55 289.83 396.539 290.243C396.55 289.83 396.564 289.417 396.579 289.005V289.004ZM286.583 258.614C285.902 258.641 285.221 258.671 284.541 258.705C285.931 258.635 287.324 258.582 288.72 258.546L286.583 258.614ZM416.329 232.084C416.084 232.419 415.842 232.755 415.602 233.093L416.33 232.084C416.574 231.749 416.82 231.415 417.068 231.083L416.329 232.084ZM258.49 153.435C268.057 153.435 277.251 157.255 284.011 164.015C290.773 170.776 294.559 179.938 294.559 189.504C294.559 199.069 290.772 208.23 284.011 214.992C277.251 221.752 268.058 225.572 258.49 225.572H224.011C204.101 225.572 187.942 209.414 187.942 189.504C187.942 169.593 204.101 153.435 224.011 153.435H258.49ZM775.998 153.435C785.565 153.435 794.759 157.255 801.519 164.015C808.281 170.776 812.067 179.938 812.067 189.504C812.067 199.069 808.28 208.23 801.519 214.992C794.767 221.744 785.586 225.562 776.03 225.571V225.572H741.519C721.609 225.572 705.451 209.414 705.451 189.504C705.451 169.593 721.609 153.435 741.519 153.435H775.998ZM427.607 219.046C427.385 219.263 427.164 219.482 426.944 219.701C427.164 219.482 427.385 219.263 427.607 219.046ZM429.437 217.297C428.878 217.818 428.326 218.345 427.779 218.878C428.326 218.345 428.878 217.818 429.437 217.297ZM430.1 216.685C429.96 216.813 429.82 216.942 429.681 217.071C429.82 216.942 429.96 216.813 430.1 216.685ZM430.816 216.034C430.663 216.172 430.51 216.31 430.358 216.448C430.51 216.31 430.663 216.172 430.816 216.034ZM431.693 215.254C431.45 215.468 431.207 215.683 430.966 215.9C431.208 215.683 431.45 215.468 431.693 215.254ZM433.44 213.751C433.079 214.055 432.72 214.362 432.363 214.67C432.72 214.362 433.079 214.055 433.44 213.751ZM434.589 212.799C434.278 213.054 433.968 213.311 433.659 213.57C433.968 213.311 434.278 213.054 434.589 212.799ZM435.792 211.833C435.424 212.124 435.058 212.418 434.694 212.715C435.058 212.418 435.424 212.124 435.792 211.833ZM437.091 210.819C436.731 211.095 436.375 211.374 436.019 211.654C436.375 211.374 436.731 211.095 437.091 210.819ZM449.48 202.657C449.189 202.821 448.898 202.985 448.608 203.152C448.898 202.986 449.189 202.82 449.48 202.657ZM450.549 202.067C450.297 202.204 450.046 202.343 449.795 202.483C450.046 202.343 450.297 202.204 450.549 202.067ZM451.556 201.525C451.331 201.645 451.106 201.765 450.882 201.886C451.106 201.765 451.331 201.645 451.556 201.525ZM452.485 201.037C452.305 201.13 452.126 201.224 451.946 201.318C452.126 201.224 452.305 201.13 452.485 201.037ZM453.33 200.604C453.154 200.693 452.977 200.783 452.801 200.874C452.977 200.783 453.154 200.693 453.33 200.604ZM454.181 200.177C454.12 200.207 454.059 200.239 453.998 200.269C454.059 200.239 454.12 200.207 454.181 200.177ZM467.348 194.765C467.238 194.801 467.127 194.838 467.017 194.875C467.127 194.838 467.238 194.801 467.348 194.765ZM468.728 194.316C468.643 194.343 468.558 194.371 468.473 194.398C468.558 194.371 468.643 194.343 468.728 194.316ZM470.413 193.799C470.26 193.844 470.108 193.89 469.955 193.936C470.108 193.89 470.26 193.844 470.413 193.799ZM189.591 192.044C189.594 192.081 189.597 192.119 189.6 192.156C189.597 192.119 189.594 192.081 189.591 192.044ZM189.542 191.252C189.545 191.307 189.549 191.362 189.552 191.417C189.547 191.323 189.542 191.229 189.537 191.135L189.542 191.252ZM484.524 190.655C484.388 190.675 484.253 190.695 484.117 190.716C484.253 190.695 484.388 190.675 484.524 190.655ZM485.532 190.507C485.429 190.522 485.327 190.537 485.224 190.552C485.376 190.53 485.529 190.508 485.682 190.487L485.532 190.507ZM293.001 189.504C293.001 189.68 292.998 189.855 292.995 190.031L293.002 189.504C293.002 189.226 292.998 188.949 292.991 188.673C292.998 188.949 293.001 189.226 293.001 189.504ZM810.509 189.504C810.509 189.68 810.506 189.855 810.503 190.031L810.51 189.504C810.51 189.226 810.506 188.949 810.5 188.673C810.506 188.949 810.509 189.226 810.509 189.504ZM493.584 189.7C493.468 189.707 493.352 189.714 493.236 189.721C493.352 189.714 493.468 189.707 493.584 189.7ZM506.226 189.688C506.088 189.68 505.95 189.674 505.811 189.666C505.95 189.674 506.088 189.68 506.226 189.688ZM494.792 189.632C494.679 189.638 494.566 189.645 494.454 189.651C494.566 189.645 494.679 189.638 494.792 189.632ZM504.749 189.612C504.598 189.605 504.447 189.599 504.297 189.593C504.447 189.599 504.598 189.605 504.749 189.612ZM503.313 189.558C503.138 189.552 502.962 189.545 502.786 189.54C502.962 189.545 503.138 189.552 503.313 189.558ZM196.209 394.37C196.098 394.664 195.987 394.958 195.879 395.252C195.988 394.958 196.097 394.664 196.209 394.37ZM196.209 394.37C196.223 394.333 196.237 394.296 196.251 394.258C196.253 394.254 196.255 394.249 196.256 394.245C196.24 394.286 196.225 394.328 196.209 394.37ZM786.775 365.125C786.547 364.848 786.316 364.574 786.085 364.3C786.316 364.574 786.547 364.848 786.775 365.125ZM224.359 353.607C224.134 353.806 223.91 354.006 223.687 354.207C223.91 354.006 224.134 353.806 224.359 353.607ZM220.687 357.026C220.443 357.264 220.202 357.505 219.96 357.745C220.202 357.505 220.443 357.264 220.687 357.026ZM233.95 346.052C233.526 346.347 233.106 346.645 232.687 346.946C233.105 346.645 233.527 346.347 233.95 346.052ZM233.95 346.052C233.971 346.037 233.992 346.021 234.014 346.006C233.992 346.021 233.971 346.037 233.95 346.052ZM169.587 310.598L168.126 312.115C168.1 312.141 168.075 312.168 168.05 312.194C168.559 311.659 169.071 311.127 169.587 310.598ZM396.535 290.454C396.525 290.858 396.518 291.261 396.512 291.665C396.518 291.261 396.525 290.858 396.535 290.454ZM432.189 214.821C432.023 214.965 431.858 215.109 431.693 215.254C431.858 215.109 432.023 214.965 432.189 214.821Z" fill="#986DF8"/>
</g>
<defs>
<clipPath id="clip0_278_550">
<rect width="1000" height="1000" fill="white"/>
</clipPath>
</defs>
</svg>
