<svg width="1000" height="1106" viewBox="0 0 1000 1106" fill="none" xmlns="http://www.w3.org/2000/svg">
<g clip-path="url(#clip0_348_585)">
<path d="M108.806 978.313C108.839 978.348 108.872 978.382 108.903 978.415C108.859 978.368 108.813 978.319 108.766 978.27C108.78 978.284 108.792 978.299 108.806 978.313ZM804.116 705.98C802.72 925.901 624.366 1104.26 404.66 1105.65L402.063 1105.66C285.722 1105.66 180.95 1055.75 107.945 977.399C107.906 977.357 107.865 977.315 107.826 977.272C41.7536 906.192 0.645738 810.754 0.00744048 705.86L0 703.38C0 489.803 166.902 314.653 377.438 302.134L377.492 142.994C377.492 142.527 377.495 142.06 377.501 141.593L377.51 140.855L377.538 139.363C379.52 62.1295 442.687 0.185547 520.349 0.185547L623.421 0.185547C623.454 0.185547 623.487 0.186449 623.52 0.186477C623.553 0.186449 623.587 0.185547 623.62 0.185547L661.272 0.185547L663.118 0.197638C741.165 1.18613 804.129 64.761 804.129 143.043C804.129 156.178 808.715 167.807 816.57 177.06L817.172 177.757C825.087 186.783 834.973 192.54 845.065 194.816L846.127 195.048C846.232 195.07 846.337 195.093 846.443 195.116C849.628 195.809 853.138 196.228 857.143 196.228C936.042 196.228 999.999 260.189 1000 339.084V479.929C1000 558.21 937.036 621.785 858.989 622.774L857.143 622.786C839.239 622.786 821.547 621.791 804.124 619.861V703.38L804.116 705.98Z" fill="#000813"/>
<path d="M618.568 114.471V171.614H544.768L544.589 707.766C544.588 708.106 544.582 708.446 544.57 708.786C541.766 787.239 477.754 850.337 399.32 850.338C350.494 850.338 307.772 825.865 281.342 789.319L313.797 765.394L281.475 789.048C264.192 764.976 253.863 735.362 253.863 703.189C253.863 622.149 319.062 556.23 399.322 556.23C401.457 556.23 403.577 556.285 405.681 556.385V472.631C403.566 472.563 401.447 472.527 399.322 472.527C399.788 472.527 399.344 472.531 397.042 472.659C396.05 472.714 394.921 472.782 393.716 472.853L393.718 472.902C393.237 472.912 392.756 472.923 392.276 472.937C391.718 472.97 391.15 473.003 390.577 473.037C388.25 473.177 385.841 473.321 383.883 473.43C382.864 473.487 381.392 473.567 380.084 473.612C263.213 483.24 170.883 582.538 170.883 703.38C170.883 763.961 194.125 819.134 232.228 860.531L233.211 861.589C274.975 906.282 334.046 934.233 399.32 934.233C525.138 934.232 627.754 830.739 627.754 703.38V416.929C627.754 406.214 633.691 396.4 643.133 391.508C652.576 386.617 663.935 387.471 672.556 393.719C715.342 424.73 766.427 444.878 821.763 450.042V365.834C815.583 365.03 809.499 363.967 803.514 362.656C803.475 362.648 803.437 362.639 803.398 362.631C803.386 362.628 803.373 362.626 803.361 362.624C755.296 352.307 713.298 326.086 682.387 290.296C654.154 257.616 635.224 216.665 629.547 171.614H618.765V114.471H656.059C671.688 114.471 684.358 127.263 684.358 143.042C684.358 184.346 699.142 222.107 723.856 251.348L725.041 252.734L725.043 252.738C747.982 279.299 778.76 298.551 813.581 306.389L815.242 306.755L815.395 306.787C826.423 309.21 837.967 310.513 850.063 310.513C865.692 310.513 878.362 323.305 878.362 339.085V479.928C878.362 495.708 865.692 508.5 850.063 508.5C790.39 508.5 734.002 493.802 684.352 467.873V703.38C684.352 862.28 556.414 991.375 399.32 991.375C317.054 991.375 242.805 955.811 190.82 899.487C190.812 899.478 190.804 899.47 190.796 899.461C143.398 847.98 114.285 779.063 114.285 703.38C114.285 547.731 237.008 420.659 389.772 415.845C391.248 415.758 392.679 415.672 393.926 415.603C395.401 415.521 397.821 415.384 399.322 415.384C412.695 415.384 425.461 416.459 437.726 418.113C451.782 420.008 462.279 432.115 462.279 446.432V590.322C462.279 599.402 458.003 607.943 450.761 613.328C443.519 618.712 434.173 620.301 425.584 617.607C416.973 614.906 408.136 613.373 399.322 613.373C350.366 613.373 310.461 653.663 310.461 703.189C310.461 722.788 316.707 740.756 327.301 755.511L327.085 755.668C343.603 778.478 369.805 793.195 399.32 793.195C446.937 793.195 486.057 754.885 487.99 707.16L488.179 143.033L488.188 142.295C488.581 126.86 501.097 114.471 516.478 114.471H618.568Z" fill="#986DF8"/>
</g>
<defs>
<clipPath id="clip0_348_585">
<rect width="1000" height="1105.48" fill="white" transform="translate(0 0.185547)"/>
</clipPath>
</defs>
</svg>
