<svg width="1000" height="969" viewBox="0 0 1000 969" fill="none" xmlns="http://www.w3.org/2000/svg">
<g clip-path="url(#clip0_320_901)">
<path d="M884.14 555.708C927.971 585.661 956.743 636.035 956.743 693.119C956.742 732.394 943.121 768.492 920.349 796.948C921.785 844.63 902.802 892.575 864.253 926.646L864.255 926.647C799.026 984.328 701.689 981.269 640.029 923.027C600.681 951.54 552.304 968.352 500.003 968.353C416.006 968.353 342.125 924.994 299.525 859.438C228.759 854.237 191.653 867.627 115.855 830.521C72.032 800.569 43.264 750.202 43.2634 693.12C43.2634 636.039 72.031 585.669 115.855 555.716V475.297C115.855 432.503 122.894 391.243 135.877 352.685L84.9645 294.981C24.0201 226.064 30.6967 120.901 99.5388 60.1602L99.5397 60.1592C166.353 1.21024 267.501 5.52038 329.001 69.1494C359.218 27.499 408.283 0.414432 463.681 0.414062H536.316L538.466 0.427734C623.097 1.50073 692.472 65.7794 701.579 148.232C811.134 215.899 884.14 337.072 884.14 475.297V555.708Z" fill="#000813"/>
<path d="M463.686 729.408C463.686 749.455 479.955 765.69 500.002 765.69C520.049 765.69 536.318 749.455 536.318 729.408H608.915C608.915 789.548 560.142 838.321 500.002 838.321C439.862 838.321 391.088 789.548 391.088 729.408H463.686ZM185.548 157.609C200.592 144.336 223.531 145.765 236.771 160.809L340 277.8C383.686 242.36 439.362 221.123 499.998 221.123C640.357 221.123 754.141 334.907 754.141 475.266V656.771H790.428C810.475 656.772 826.744 673.041 826.744 693.088C826.743 713.135 810.475 729.403 790.428 729.403H754.141V729.407H738.485L781.337 777.973C794.611 793.017 793.182 815.957 778.138 829.23C763.128 842.504 740.189 841.04 726.915 826.03L641.663 729.407H245.856V729.403H209.58C189.534 729.403 173.264 713.135 173.264 693.088C173.264 673.041 189.533 656.771 209.58 656.771H245.856V475.266C245.856 421.856 262.332 372.294 290.479 331.385L182.349 208.833C169.076 193.823 170.504 170.883 185.548 157.609ZM499.998 293.755C457.78 293.755 418.936 308.159 388.108 332.32L674.393 656.771H681.509V475.266C681.509 374.996 600.267 293.755 499.998 293.755ZM340.656 388.254C326.523 414.087 318.489 443.735 318.489 475.266V656.771H577.575L340.656 388.254ZM536.315 130.383C556.362 130.383 572.596 146.618 572.596 166.665C572.596 186.712 556.362 202.98 536.315 202.98H463.683C443.636 202.98 427.401 186.712 427.401 166.665C427.401 146.618 443.636 130.383 463.683 130.383H536.315Z" fill="#986DF8"/>
</g>
<defs>
<clipPath id="clip0_320_901">
<rect width="1000" height="968" fill="white" transform="translate(0 0.382812)"/>
</clipPath>
</defs>
</svg>
