<svg width="1000" height="640" viewBox="0 0 1000 640" fill="none" xmlns="http://www.w3.org/2000/svg">
<g clip-path="url(#clip0_347_301)">
<path d="M604.024 121.177C604.922 120.42 606.296 120.752 606.749 121.835L712.685 375.316C712.857 375.728 713.181 376.058 713.59 376.237L873.959 446.7C875.668 447.451 875.152 450.002 873.285 450.029L705.974 452.44C704.935 452.455 704.142 453.371 704.275 454.401L712.53 518.089C712.665 519.128 711.855 520.051 710.807 520.051H289.187C288.139 520.051 287.329 519.128 287.464 518.089L295.72 454.401C295.853 453.371 295.06 452.455 294.021 452.44L126.715 450.029C124.848 450.002 124.331 447.451 126.041 446.7L286.41 376.237C286.818 376.058 287.142 375.728 287.314 375.316L393.246 121.835C393.699 120.752 395.072 120.42 395.97 121.177L498.88 207.965C499.527 208.51 500.473 208.51 501.12 207.965L604.024 121.177ZM413.396 452.327C413.438 452.517 423.387 498.237 476.74 498.237C530.115 498.237 538.314 453.059 538.341 452.908L524.699 452.845C524.422 469.017 511.228 482.043 494.989 482.043C478.658 482.043 465.405 468.869 465.275 452.568L413.396 452.327ZM552.132 452.327C552.174 452.523 562.125 498.237 615.476 498.237C668.85 498.237 677.049 453.059 677.076 452.908L663.435 452.845C663.158 469.017 649.963 482.043 633.725 482.043C617.393 482.043 604.14 468.869 604.01 452.568L552.132 452.327Z" fill="#986DF8"/>
<path d="M282.53 75.5509C313.997 0.277679 408.979 -23.187 471.844 28.2072L473.323 29.4357L473.331 29.4425L499.996 51.9308L526.658 29.4445L526.66 29.4425C588.995 -23.1274 684.242 -0.698746 716.711 73.7892L717.467 75.5588L717.468 75.5617L805.163 285.4L922.229 336.836L922.238 336.84C1041.93 389.442 1005.85 568.115 875.027 570.016H875.014L820.678 570.798C801.205 611.418 759.734 640.046 710.814 640.05H289.185C240.259 640.049 198.787 611.418 179.313 570.798L124.984 570.016H124.981C-5.86323 568.127 -41.9317 389.43 77.7686 336.836L194.831 285.401L282.524 75.5627L282.53 75.5509ZM606.748 121.834C606.295 120.751 604.921 120.419 604.023 121.176L501.119 207.964L499.998 206.635H499.999L501.119 207.964L500.994 208.06C500.397 208.477 499.601 208.477 499.004 208.06L498.879 207.964L395.969 121.176C395.071 120.419 393.698 120.751 393.245 121.834L287.313 375.316C287.141 375.727 286.817 376.057 286.409 376.236L126.04 446.699C124.331 447.451 124.847 450.002 126.714 450.028L294.021 452.44C295.059 452.455 295.852 453.371 295.719 454.401L287.463 518.088C287.337 519.063 288.041 519.934 288.993 520.039L289.187 520.05H710.806C711.854 520.05 712.664 519.128 712.529 518.088L704.274 454.401C704.141 453.371 704.934 452.455 705.973 452.44L873.284 450.028C875.151 450.001 875.667 447.451 873.958 446.699L713.589 376.236C713.18 376.057 712.856 375.727 712.684 375.316L606.748 121.834ZM465.274 452.568C465.405 468.868 478.657 482.042 494.988 482.042C511.227 482.042 524.421 469.017 524.698 452.844L538.34 452.907C538.307 453.088 530.096 498.236 476.739 498.236C423.401 498.236 413.442 452.543 413.396 452.326L465.274 452.568ZM604.009 452.568C604.139 468.868 617.392 482.042 633.724 482.042C649.962 482.042 663.157 469.017 663.434 452.844L677.075 452.907C677.043 453.088 668.832 498.236 615.475 498.236C562.14 498.236 552.179 452.548 552.131 452.326L604.009 452.568Z" fill="#000813"/>
</g>
<defs>
<clipPath id="clip0_347_301">
<rect width="1000" height="639" fill="white" transform="translate(0 0.728516)"/>
</clipPath>
</defs>
</svg>
