<svg width="1000" height="886" viewBox="0 0 1000 886" fill="none" xmlns="http://www.w3.org/2000/svg">
<g clip-path="url(#clip0_278_526)">
<path d="M500 69.1357C473.498 28.047 427.324 0.843936 374.789 0.84375H315.474L314.79 0.845703C215.663 1.41057 128.465 66.7192 100.148 161.842H100.146L1.04492 492.18C0.589394 493.698 0.164516 495.226 -0.230469 496.761L-0.615234 498.299C-2.13301 504.539 -3.2367 510.844 -3.93066 517.178C-4.79634 522.986 -5.24414 528.916 -5.24414 534.932V689.033C-5.24414 741.364 15.5705 791.442 52.4746 828.347L52.4756 828.346C89.5466 865.453 139.729 886.066 191.823 886.066H345.905C398.048 886.066 448.278 865.416 485.36 828.241L485.359 828.24C490.562 823.029 495.444 817.556 499.993 811.852C504.58 817.607 509.507 823.129 514.761 828.383C551.707 865.329 601.837 886.102 654.109 886.103H808.176L809.4 886.099C861.229 885.777 910.867 865.041 947.525 828.383C984.475 791.433 1005.24 741.3 1005.24 689.033V534.932C1005.24 528.75 1004.77 522.653 1003.85 516.681C1003.13 510.312 1002.01 504.17 1000.58 498.299C1000.21 496.761 999.803 495.231 999.368 493.71L998.923 492.191L899.858 161.854H899.856C871.545 66.7177 784.34 1.41117 685.212 0.845703C684.984 0.844402 684.755 0.84375 684.527 0.84375H625.211C572.676 0.844151 526.502 28.0469 500 69.1357Z" fill="#000813"/>
<path d="M374.789 120.844C390.752 120.844 403.681 133.772 403.681 149.735C403.681 165.662 390.752 178.627 374.789 178.627H316.571C295.264 178.518 276.448 192.495 270.417 212.936L270.381 212.899L178.252 520.059C252.899 514.786 327.769 526.126 397.507 553.212C412.856 558.666 423.04 573.22 422.932 589.472V592.577C472.08 571.269 527.881 571.27 577.033 592.577V589.472C576.925 573.22 587.146 558.665 602.458 553.212C672.192 526.128 747.056 514.787 821.701 520.058L729.584 212.936C723.552 192.495 704.737 178.519 683.43 178.627H625.212C609.249 178.627 596.32 165.662 596.32 149.735C596.32 133.772 609.249 120.844 625.212 120.844H684.527C730.955 121.109 771.765 151.747 784.916 196.323L883.98 526.661C884.628 529.322 884.915 532.054 884.775 534.787L885.244 534.932V689.033C885.244 709.474 877.119 729.084 862.673 743.53C848.227 757.976 828.616 766.102 808.176 766.103H654.109C633.669 766.102 614.059 757.976 599.613 743.53C585.167 729.084 577.041 709.474 577.041 689.033V659.563L565.701 651.979C525.107 628.252 474.907 628.252 434.314 651.979H434.351L422.975 659.563V689.033C422.975 709.474 414.848 729.048 400.402 743.494C385.956 757.976 366.346 766.066 345.905 766.066H191.824C171.384 766.066 151.774 757.976 137.328 743.494C122.882 729.048 114.756 709.474 114.756 689.033V534.932L115.226 534.823C115.081 532.079 115.334 529.334 115.984 526.661L215.085 196.323C228.239 151.748 269.05 121.108 315.474 120.844H374.789ZM252.261 708.281H306.722L365.191 649.848V603.224C363.061 602.537 361.185 602.174 359.055 601.488L252.261 708.281ZM714.53 708.28H768.991L827.461 649.811V595.35L714.53 708.28ZM745.3 577.942C722.476 580.723 699.903 585.094 677.692 591.017H677.729L634.861 633.885L634.826 688.342L745.3 577.942ZM172.592 633.885L172.56 688.341L279.131 581.807C262.915 578.954 246.555 577.112 230.123 576.354L172.592 633.885Z" fill="#986DF8"/>
</g>
<defs>
<clipPath id="clip0_278_526">
<rect width="1000" height="885" fill="white" transform="translate(0 0.84375)"/>
</clipPath>
</defs>
</svg>
