<svg width="1000" height="1002" viewBox="0 0 1000 1002" fill="none" xmlns="http://www.w3.org/2000/svg">
<g clip-path="url(#clip0_320_960)">
<path d="M398.442 0.171875C178.378 0.171989 0.000114455 178.55 0 398.614C0 618.623 178.365 797.056 398.442 797.057C418.574 797.057 438.374 795.553 457.733 792.656C465.738 806.23 475.571 819.028 487.234 830.693L586.812 930.301C681.338 1024.76 834.534 1024.74 929.055 930.311L929.088 930.278C1023.25 836.136 1023.66 683.628 930.159 589.018L929.055 587.908L829.571 488.383L828.697 487.513C817.484 476.441 805.236 467.045 792.27 459.319C795.307 439.51 796.885 419.236 796.885 398.614C796.884 178.537 618.451 0.171875 398.442 0.171875Z" fill="#000813"/>
<path d="M398.442 128.867C547.378 128.867 668.172 249.618 668.172 398.597C668.172 457.113 649.524 511.284 617.851 555.493L646.382 584.006L651.01 579.379C675.177 555.213 714.392 555.213 738.558 579.379L838.084 678.946C882.355 723.176 882.355 794.975 838.084 839.237C793.813 883.467 722.055 883.467 677.793 839.237L578.261 739.675C554.095 715.509 554.095 676.335 578.261 652.128L583.837 646.551L555.321 618.017C511.115 649.683 456.951 668.326 398.442 668.326C249.464 668.326 128.713 547.533 128.713 398.597C128.713 249.618 249.464 128.867 398.442 128.867ZM659.55 695.901L740.299 776.692C750.04 786.433 765.833 786.433 775.533 776.692C785.274 766.95 785.274 751.199 775.533 741.457L694.784 660.667L659.55 695.901ZM398.442 217.326C298.335 217.326 217.172 298.49 217.172 398.597C217.172 498.704 298.335 579.867 398.442 579.867C498.549 579.867 579.713 498.704 579.713 398.597C579.713 298.49 498.549 217.326 398.442 217.326Z" fill="#986DF8"/>
</g>
<defs>
<clipPath id="clip0_320_960">
<rect width="1000" height="1001" fill="white" transform="translate(0 0.15625)"/>
</clipPath>
</defs>
</svg>
