<svg width="1000" height="974" viewBox="0 0 1000 974" fill="none" xmlns="http://www.w3.org/2000/svg">
<g clip-path="url(#clip0_320_922)">
<path d="M550.987 0.619141L552.582 0.626953C620.009 1.26266 680.545 42.1389 706.372 104.429L706.371 104.43C727.173 154.601 722.163 210.594 695.148 255.548H780.408C806.539 255.548 832.186 260.218 856.237 269.088L891.666 286.145L923.156 308.405C927.028 311.728 930.795 315.194 934.447 318.802L935.413 319.762C939.368 323.716 943.156 327.807 946.773 332.022L966.621 361.099L986.029 398.775C994.938 422.873 999.629 448.578 999.629 474.769V637.254C1000.65 722.891 937.707 795.919 852.805 807.506L849.719 807.928L846.616 808.2C802.424 812.087 758.068 798.41 723.617 769.454L566.898 926.199L565.785 927.26C500.422 989.612 397.615 989.612 332.252 927.26L331.065 926.128L329.906 924.966C274.301 869.174 265.938 784.077 304.817 719.469H219.592C192.917 719.469 167.356 714.705 143.712 705.983L99.1346 684.615L76.8478 666.641C68.3792 659.369 60.4719 651.463 53.2003 642.994L27.4871 604.701L13.8576 576.13C5.13578 552.486 0.371246 526.924 0.371246 500.248V337.727C-0.633944 252.106 62.3057 179.096 147.195 167.511L150.281 167.089L153.384 166.816C197.578 162.929 241.934 176.608 276.384 205.563L432.02 49.9043L432.028 49.8965C463.53 18.3953 506.286 0.619141 550.987 0.619141Z" fill="#000813"/>
<path d="M780.049 385.751C803.698 385.751 826.402 395.161 843.131 411.89C859.86 428.619 869.27 451.322 869.27 474.972V638.475C869.768 658.789 854.931 676.165 834.867 678.903C824.112 679.849 813.458 676.264 805.542 668.945C797.476 661.775 792.847 651.469 792.797 640.665V516.245L475.695 833.398C460.559 847.837 436.76 847.837 421.624 833.398C406.737 818.462 406.737 794.265 421.624 779.328L738.625 462.226H616.544C596.23 462.724 578.855 447.886 576.117 427.822C575.021 417.019 578.556 406.264 585.874 398.248C593.143 390.232 603.5 385.701 614.354 385.751H780.049ZM550.627 130.822C566.061 130.822 580.002 140.134 585.926 154.423C591.851 168.712 588.565 185.141 577.662 196.095L260.507 513.197H382.738C403.052 512.699 420.427 527.537 423.165 547.602C424.261 558.405 420.726 569.159 413.408 577.175C406.139 585.191 395.782 589.722 384.928 589.672H219.233C169.942 589.672 130.012 549.742 130.012 500.451V336.948C129.514 316.634 144.351 299.258 164.416 296.52C175.17 295.574 185.824 299.159 193.741 306.478C201.806 313.648 206.439 323.954 206.489 334.758V459.179L523.592 142.024C530.762 134.855 540.471 130.822 550.627 130.822Z" fill="#986DF8"/>
</g>
<defs>
<clipPath id="clip0_320_922">
<rect width="1000" height="973" fill="white" transform="translate(0 0.822266)"/>
</clipPath>
</defs>
</svg>
