<svg width="1000" height="1001" viewBox="0 0 1000 1001" fill="none" xmlns="http://www.w3.org/2000/svg">
<g clip-path="url(#clip0_344_717)">
<path d="M500.007 0.134766C586.853 0.134766 672.571 22.7431 747.921 65.8476L747.922 65.8466C821.539 107.896 883.484 168.339 927.454 240.594C931.871 247.757 935.969 254.904 939.76 261.918C940.081 262.512 940.396 263.11 940.707 263.709C979.528 336.201 1000 417.773 1000 500.141V501.525C1000 501.677 1000 501.829 999.999 501.982C999.333 678.484 904.39 842.91 752.132 931.978C752.12 931.985 752.109 931.992 752.097 931.999C675.745 976.629 588.549 1000.14 500 1000.14C411.433 1000.14 324.231 976.656 247.915 932.004C95.6257 843.008 0.67508 678.638 0.000986427 502.128C0.000397547 501.973 2.93456e-07 501.819 0 501.665V500.135C0 417.091 20.8101 334.82 60.3013 261.905C60.4857 261.564 60.6719 261.225 60.8596 260.886C64.4643 254.38 68.3083 247.687 72.383 240.959L72.4698 240.816C116.458 168.41 178.436 107.923 252.089 65.8486C327.44 22.7459 413.155 0.134814 500.007 0.134766Z" fill="#000813"/>
<path d="M736.767 356.572C712.364 316.435 677.909 282.927 637.261 259.686C630.559 255.825 622.619 254.806 615.116 256.845C607.613 258.885 601.276 263.838 597.488 270.54L522.969 401.076C507.89 397.726 492.083 397.653 477.004 401.004L402.558 270.542C398.697 263.84 392.359 258.887 384.93 256.847C377.427 254.807 369.487 255.827 362.785 259.688C322.138 282.925 287.683 316.433 263.13 356.788C260.872 360.576 258.687 364.291 256.501 368.225C234.722 408.653 223.212 454.254 223.212 500.141V501.088C223.212 508.81 226.271 516.24 231.808 521.702C237.271 527.166 244.701 530.225 252.349 530.225H252.422L402.483 529.642C407.072 544.576 414.939 558.343 425.647 569.779L350.108 699.365C342.022 713.205 346.684 731.051 360.525 739.21C402.628 763.904 450.924 776.943 500.021 776.943C549.045 776.943 597.345 763.904 639.518 739.21C653.431 731.124 658.093 713.278 650.007 699.365L574.395 569.779C585.03 558.343 592.97 544.648 597.487 529.642L747.547 530.225H747.62C755.342 530.225 762.699 527.166 768.162 521.702C773.625 516.239 776.758 508.809 776.758 501.088V500.141C776.758 454.249 765.248 408.649 743.323 368.15C741.356 364.29 739.098 360.578 736.767 356.572ZM521.662 462.12C535.283 469.914 543.734 484.41 543.734 500.363C543.588 515.806 535.356 530.156 521.954 537.95C508.696 545.744 491.36 545.817 477.955 537.95C464.552 530.01 456.394 515.951 456.321 500.144C456.321 484.847 464.334 470.642 477.373 462.775C477.446 462.702 477.518 462.702 477.591 462.629C477.883 462.484 478.174 462.338 478.465 462.12C491.65 454.617 508.478 454.69 521.662 462.12ZM307.788 395.977C309.536 392.845 311.357 389.712 313.032 386.872C327.237 363.489 345.739 342.947 367.374 326.411L426.304 429.702C426.086 429.921 425.94 430.212 425.721 430.431C423.245 433.053 420.914 435.821 418.801 438.662C418.51 439.026 418.291 439.391 418.073 439.682C415.887 442.669 413.775 445.801 411.954 449.006C411.881 449.152 411.808 449.225 411.808 449.37C409.987 452.503 408.385 455.708 406.928 459.059C406.709 459.496 406.491 459.933 406.345 460.443C404.961 463.648 403.795 466.926 402.776 470.277C402.63 470.641 402.484 471.005 402.339 471.442L283.383 471.879C286.661 445.364 294.894 419.87 307.788 395.977ZM416.03 701.916L475.908 599.278C476.272 599.351 476.709 599.423 477.073 599.496C480.497 600.298 483.921 600.88 487.345 601.317C487.782 601.39 488.219 601.39 488.656 601.463C492.444 601.827 496.232 602.119 500.02 602.119C503.808 602.119 507.523 601.827 511.238 601.463C511.748 601.39 512.185 601.39 512.695 601.317C516.191 600.88 519.615 600.225 523.039 599.496C523.403 599.423 523.767 599.351 524.131 599.278L584.009 701.916C530.979 723.988 468.916 723.916 416.03 701.916ZM597.848 471.362C597.775 471.07 597.63 470.852 597.557 470.56C596.464 466.991 595.226 463.567 593.842 460.144C593.769 459.925 593.623 459.634 593.478 459.415C591.948 455.919 590.272 452.495 588.378 449.144L588.306 449.071C586.412 445.793 584.299 442.661 582.114 439.602C581.895 439.31 581.677 438.946 581.385 438.655C579.2 435.741 576.869 433.046 574.392 430.35C574.174 430.132 574.028 429.913 573.81 429.695L632.668 326.478C654.229 343.013 672.732 363.483 686.863 386.72C688.684 389.779 690.578 392.911 692.254 395.971C705.22 419.936 713.451 445.359 716.802 471.874L597.848 471.362ZM833.13 319.557C830.216 314.167 827.157 308.85 823.952 303.678C790.59 248.826 743.532 202.932 687.803 171.1C630.911 138.538 565.938 121.348 500.008 121.348C434.078 121.348 369.108 138.539 312.213 171.1C256.487 202.933 209.435 248.824 176.064 303.752C172.932 308.924 169.872 314.242 166.886 319.632C137.02 374.775 121.213 437.198 121.213 500.136V501.665C121.723 635.185 193.765 759.968 309.073 827.353C366.693 861.08 432.765 878.926 500.001 878.926C567.163 878.926 633.232 861.079 690.929 827.353C806.239 759.899 878.285 635.045 878.789 501.525V500.141C878.789 437.204 862.982 374.78 833.116 319.563L833.13 319.557ZM820.528 501.376C820.091 614.28 759.121 719.912 661.507 777.012C612.701 805.567 556.901 820.646 500.015 820.646C443.129 820.646 387.251 805.567 338.523 777.012C240.91 719.975 179.941 614.355 179.502 501.516V500.131C179.502 446.883 192.833 393.996 218.109 347.376C220.586 342.787 223.208 338.344 225.904 333.9C254.167 287.426 294.013 248.6 341.214 221.574C389.29 194.185 444.216 179.616 500.011 179.616C555.806 179.616 610.733 194.185 658.808 221.647C706.011 248.671 745.856 287.497 774.118 333.898C776.813 338.342 779.363 342.785 781.839 347.302C807.19 394.067 820.519 446.882 820.519 500.131L820.528 501.376Z" fill="#986DF8"/>
</g>
<defs>
<clipPath id="clip0_344_717">
<rect width="1000" height="1000" fill="white" transform="translate(0 0.134766)"/>
</clipPath>
</defs>
</svg>
