<svg width="1000" height="1173" viewBox="0 0 1000 1173" fill="none" xmlns="http://www.w3.org/2000/svg">
<g clip-path="url(#clip0_262_510)">
<path d="M499.996 0.925781C704.725 0.925781 870.684 166.918 870.684 371.651V412.635C949.249 472.433 999.999 566.884 1000 673.359V845.795C999.999 1026.65 853.387 1173.4 672.433 1173.4H327.567C146.611 1173.4 0.00143911 1026.65 0 845.795V673.359C0.000656858 566.88 50.7487 472.424 129.316 412.628V371.651C129.316 166.94 295.206 0.927493 499.996 0.925781Z" fill="#000813"/>
<path d="M500 156.102C619.008 156.102 715.508 252.6 715.508 371.651V500.965C715.508 502.743 715.509 504.562 715.468 506.38C789.865 525.498 844.821 593.025 844.821 673.36V845.792C844.821 941 767.637 1018.22 672.43 1018.22H327.567C232.36 1018.22 155.176 940.999 155.176 845.792V673.36C155.176 593.021 210.135 525.495 284.531 506.38C284.49 504.562 284.491 502.743 284.491 500.965V371.651C284.491 252.601 380.948 156.102 500 156.102ZM327.568 587.16C279.964 587.16 241.373 625.753 241.373 673.355V845.787C241.373 893.391 279.965 931.982 327.568 931.982H672.431C720.035 931.982 758.626 893.39 758.626 845.787V673.355C758.626 625.752 720.034 587.16 672.431 587.16H327.568ZM500.001 673.358C523.803 673.358 543.12 692.675 543.12 716.477V759.595C543.12 783.397 523.803 802.673 500.001 802.673C476.2 802.673 456.883 783.397 456.883 759.595V716.477C456.883 692.675 476.2 673.358 500.001 673.358ZM500 242.338C428.595 242.338 370.686 300.206 370.686 371.651V500.965H629.313V371.651C629.313 300.206 571.404 242.338 500 242.338Z" fill="#986DF8"/>
</g>
<defs>
<clipPath id="clip0_262_510">
<rect width="1000" height="1172" fill="white" transform="translate(0 0.925781)"/>
</clipPath>
</defs>
</svg>
