<svg width="1000" height="990" viewBox="0 0 1000 990" fill="none" xmlns="http://www.w3.org/2000/svg">
<g clip-path="url(#clip0_347_280)">
<path d="M346.633 10.6689C346.66 10.6652 346.687 10.6616 346.712 10.6582C348.343 10.4305 350.023 10.1982 351.738 9.9668C352.109 9.91671 352.442 9.87331 352.599 9.85254C352.806 9.82537 352.82 9.82324 352.82 9.82324C354.236 9.63369 355.794 9.42604 357.408 9.2168C357.684 9.18095 357.936 9.14929 358.096 9.12891C358.288 9.10437 358.357 9.09561 358.432 9.08594L363.087 8.49512C363.375 8.45927 363.634 8.4283 363.766 8.41211C363.849 8.40202 363.888 8.39695 363.931 8.3916C363.965 8.38754 363.979 8.38574 363.979 8.38574C365.48 8.20027 367.115 8.00042 368.806 7.79883C369.015 7.77399 369.196 7.75201 369.331 7.73633C369.461 7.72125 369.577 7.7077 369.634 7.70117C369.67 7.69705 369.685 7.69537 369.703 7.69336H369.708C371.243 7.51165 372.795 7.33092 374.36 7.15234C374.902 7.09049 375.548 7.01766 375.835 6.98535C377.067 6.84642 378.488 6.6873 379.957 6.52734C380.39 6.48017 380.785 6.4376 381.044 6.41016C381.352 6.3775 381.474 6.36497 381.608 6.35059C382.839 6.21838 384.281 6.06336 385.769 5.90918C386.162 5.86854 386.516 5.8332 386.712 5.81348C386.959 5.78858 387.013 5.78267 387.065 5.77734C388.325 5.64835 389.737 5.5045 391.198 5.36035C392.026 5.27866 393.172 5.17033 393.5 5.13867C394.475 5.0445 395.689 4.92725 396.928 4.81152C397.554 4.75298 398.648 4.6538 398.77 4.64258C399.906 4.53839 401.26 4.41489 402.653 4.29199C403.352 4.23034 404.142 4.162 404.548 4.12695C405.72 4.0256 406.947 3.92016 408.207 3.81543L413.811 3.36328C414.617 3.30045 415.669 3.22255 416.027 3.19531C417.126 3.11175 418.393 3.01505 419.702 2.91992L421.438 2.7959C422.633 2.71096 423.974 2.61724 425.363 2.52344C426.007 2.47991 426.794 2.42773 427.12 2.40625C428.389 2.32257 429.725 2.23609 431.099 2.15039C431.728 2.11121 432.405 2.07096 432.802 2.04688C433.955 1.97673 435.252 1.89827 436.594 1.82129L438.746 1.70117C439.82 1.64162 441.059 1.57365 442.34 1.50684C443.163 1.4639 443.994 1.42227 444.586 1.39258C445.59 1.34223 446.633 1.29076 447.7 1.24023C448.681 1.19378 449.63 1.15109 450.473 1.11328C451.401 1.07171 452.481 1.02342 453.597 0.976562C454.398 0.942893 455.187 0.911508 455.806 0.886719C456.974 0.840016 458.15 0.794638 459.336 0.750977C460.068 0.724019 460.778 0.699204 461.449 0.675781L464.997 0.557617C465.832 0.531135 466.64 0.506063 467.34 0.485352C468.406 0.453767 469.469 0.423808 470.527 0.395508C471.382 0.372655 472.209 0.351872 472.978 0.333008C473.995 0.308076 475.131 0.280189 476.306 0.254883C477.176 0.23616 478.029 0.220183 478.708 0.207031C479.813 0.185617 480.902 0.1669 481.966 0.149414C482.637 0.138379 483.405 0.125711 484.199 0.114258C485.415 0.0967151 486.641 0.0810966 487.875 0.0673828C488.593 0.0593978 489.296 0.0521759 489.865 0.046875C490.995 0.0363417 492.12 0.027547 493.241 0.0205078L495.869 0.00683594C496.952 0.00259415 498.002 0.00106663 498.9 0H501.541C502.442 0.00107235 503.459 0.00276892 504.512 0.00683594C505.39 0.01023 506.248 0.0144336 507.074 0.0195312C508.23 0.0266634 509.431 0.0353115 510.661 0.046875C511.258 0.0524894 511.87 0.0585663 512.491 0.0654297C513.802 0.0799193 515.078 0.0976839 516.291 0.115234C516.788 0.122432 517.547 0.132639 518.278 0.144531C519.531 0.164912 520.75 0.18735 521.908 0.209961C522.595 0.22337 523.293 0.237811 523.999 0.25293C525.146 0.277496 526.29 0.304102 527.429 0.332031C528.296 0.35326 529.138 0.375137 529.935 0.396484C530.919 0.422799 531.893 0.450221 532.855 0.478516C533.706 0.503511 534.633 0.530961 535.593 0.561523C536.699 0.596765 537.767 0.633898 538.721 0.666992C539.393 0.69029 540.26 0.719589 541.138 0.751953C542.369 0.797313 543.566 0.844937 544.706 0.890625C545.104 0.906595 545.942 0.938573 546.663 0.96875C547.893 1.02023 549.081 1.07354 550.138 1.12109C550.923 1.15639 551.768 1.19508 552.641 1.23633C553.717 1.28714 554.763 1.33884 555.759 1.38867C556.485 1.42503 557.301 1.46564 558.146 1.50977C559.248 1.56732 560.33 1.62554 561.383 1.68359C562.202 1.72878 563.084 1.77864 563.996 1.83105C565.16 1.89799 566.285 1.96522 567.28 2.02539C567.788 2.05609 568.608 2.1049 569.385 2.15332C570.652 2.23239 571.89 2.31312 573.084 2.3916L575.182 2.53027C576.354 2.60953 577.502 2.69095 578.422 2.75586L578.421 2.75684C579.013 2.79862 580.036 2.86859 580.981 2.9375C582.135 3.02163 583.278 3.10854 584.152 3.1748C584.656 3.21301 585.623 3.28552 586.483 3.35254C587.793 3.45458 589.059 3.55689 590.209 3.65039C590.585 3.68098 591.415 3.74736 592.117 3.80566C593.469 3.91789 594.779 4.0316 595.893 4.12793C595.983 4.13569 597.155 4.23534 597.786 4.29102C599.198 4.41554 600.562 4.54002 601.796 4.65332L602.386 4.70703C602.64 4.73005 602.998 4.76241 603.388 4.79883C604.741 4.92504 606.079 5.05476 607.108 5.1543C607.249 5.16793 608.486 5.28636 609.197 5.35645C610.584 5.49319 611.932 5.63081 613.06 5.74609C613.207 5.76111 613.339 5.77434 613.65 5.80566C613.914 5.83225 614.305 5.87172 614.732 5.91602C616.153 6.06333 617.526 6.21003 618.754 6.3418C618.902 6.35776 619.848 6.45833 620.428 6.52148C621.861 6.67741 623.244 6.83211 624.467 6.96973C624.639 6.98915 624.788 7.0062 625.091 7.04004C625.352 7.06929 625.713 7.10957 626.105 7.1543C627.534 7.31731 628.927 7.48148 630.071 7.61621C630.199 7.63125 630.317 7.64422 630.631 7.68066C630.892 7.71107 631.3 7.7591 631.748 7.8125C633.345 8.00303 634.894 8.19277 636.345 8.37207C636.393 8.37792 636.44 8.38347 636.627 8.40625C636.776 8.42453 637.037 8.45626 637.326 8.49219C638.79 8.67437 640.205 8.85463 641.491 9.01953C641.64 9.03866 641.773 9.05552 642.074 9.09375C642.33 9.12633 642.704 9.17363 643.112 9.22656C644.768 9.44145 646.391 9.65666 647.967 9.86816C647.991 9.87147 648.017 9.87564 648.144 9.89258C648.244 9.90593 648.428 9.92969 648.631 9.95703C650.302 10.1825 651.922 10.4073 653.435 10.6182C653.451 10.6203 653.472 10.6228 653.503 10.627L654.343 10.7422L659.157 11.4297C659.175 11.4323 659.192 11.4347 659.225 11.4395C659.229 11.4399 659.232 11.4409 659.236 11.4414L659.972 11.5459L664.222 12.1719C668.47 12.8062 672.713 13.4652 676.951 14.1484C678.13 14.3384 679.314 14.5356 680.505 14.7314C681.409 14.8656 682.314 15.0078 683.219 15.1631L685.545 15.5625L686.12 15.6631C695.384 17.3003 704.565 19.2951 713.643 21.6406C717.059 22.5233 720.445 23.4521 723.8 24.4238C724.856 24.7298 725.984 25.0608 727.164 25.415L727.163 25.416C741.715 29.7851 755.947 35.0567 769.777 41.1895C771.905 42.1332 774.024 43.0972 776.132 44.0811L776.131 44.082C782.463 47.0378 788.703 50.1727 794.841 53.4824C795.791 53.995 796.82 54.5556 797.903 55.1533C826.522 70.9438 853.021 90.6214 876.596 113.755L878.869 116.004L878.976 116.111C902.254 139.418 922.114 165.656 938.127 194.027L938.981 195.55C939.832 197.074 940.67 198.603 941.498 200.138L941.499 200.139C946.469 209.355 951.038 218.785 955.192 228.402C956.121 230.553 957.022 232.699 957.899 234.842C959.22 238.069 960.497 241.323 961.729 244.603C963.37 248.969 964.926 253.368 966.397 257.796C968.972 265.545 971.289 273.396 973.341 281.337C973.638 282.489 973.925 283.625 974.203 284.744L974.725 286.879C975.93 291.864 977.03 296.88 978.023 301.924C978.263 303.142 978.484 304.303 978.686 305.389C979.009 307.116 979.321 308.852 979.621 310.596L979.916 312.343L979.929 312.427C980.631 316.652 981.309 320.886 981.964 325.13L982.61 329.376C982.893 331.258 983.172 333.145 983.446 335.035C991.1 387.802 994.989 441.132 994.999 494.555L994.998 498.835C994.952 520.237 994.292 541.625 993.019 562.974C992.795 566.743 992.551 570.502 992.29 574.25C990.436 600.83 987.633 627.341 983.884 653.729C983.391 657.195 982.887 660.614 982.378 663.976C981.76 668.05 981.116 672.156 980.443 676.287C980.397 676.571 980.35 676.855 980.302 677.139L979.904 679.472C979.871 679.663 979.838 679.854 979.804 680.045C978.99 684.69 978.09 689.283 977.111 693.821C977.052 694.094 977.002 694.326 976.978 694.433C976.972 694.461 976.966 694.489 976.962 694.507C976.957 694.528 976.955 694.54 976.953 694.551C976.948 694.572 976.949 694.564 976.954 694.544C976.026 698.803 975.016 703.075 973.92 707.355L973.921 707.356C973.82 707.749 973.733 708.08 973.698 708.216C973.688 708.252 973.678 708.29 973.673 708.311C973.666 708.336 973.663 708.348 973.661 708.357C973.656 708.376 973.662 708.351 973.674 708.306C973.479 709.056 973.246 709.951 972.987 710.922C972.897 711.258 972.82 711.542 972.79 711.653C972.782 711.683 972.773 711.715 972.768 711.73C972.763 711.75 972.76 711.76 972.759 711.766C972.761 711.758 972.767 711.738 972.774 711.711C972.598 712.364 972.358 713.252 972.087 714.229C971.943 714.746 971.819 715.183 971.772 715.349C971.732 715.49 971.741 715.459 971.725 715.513L971.13 717.615C971.051 717.888 970.984 718.119 970.957 718.213C970.949 718.238 970.941 718.264 970.937 718.278C970.932 718.295 970.93 718.304 970.928 718.311C970.925 718.323 970.929 718.306 970.938 718.274C970.732 718.986 970.465 719.904 970.165 720.911C970.062 721.257 969.973 721.55 969.935 721.674C969.925 721.707 969.915 721.741 969.909 721.761C969.902 721.783 969.899 721.796 969.896 721.805L969.117 724.361C969.046 724.592 968.985 724.789 968.954 724.889C968.946 724.915 968.937 724.94 968.931 724.959C968.925 724.98 968.921 724.992 968.917 725.005C968.914 725.014 968.913 725.02 968.912 725.023C968.671 725.797 968.402 726.654 968.11 727.567C967.94 728.099 967.773 728.619 967.711 728.811C967.474 729.544 967.234 730.276 966.993 731.007C966.908 731.264 966.833 731.488 966.786 731.63C966.7 731.886 966.74 731.766 966.693 731.907C966.468 732.584 966.201 733.383 965.906 734.249C965.79 734.59 965.682 734.901 965.613 735.103C965.331 735.923 965.059 736.703 964.803 737.432L964.283 738.903C964.155 739.261 963.888 740.015 963.598 740.813C963.406 741.345 963.201 741.901 963.154 742.029C962.989 742.479 962.715 743.228 962.41 744.046C962.196 744.618 961.98 745.19 961.912 745.37C961.672 746.006 961.421 746.663 961.162 747.338L960.699 748.535L959.894 750.593C959.764 750.922 959.651 751.206 959.582 751.378C959.474 751.648 959.502 751.58 959.457 751.692C959.169 752.413 958.875 753.144 958.574 753.883C958.442 754.207 958.327 754.487 958.256 754.661C958.137 754.949 958.177 754.852 958.12 754.99L957.304 756.962L956.692 758.416C956.587 758.664 956.28 759.393 955.966 760.127C955.73 760.675 955.514 761.175 955.342 761.573C955.113 762.099 954.85 762.702 954.563 763.353L953.938 764.765L953.132 766.563C952.879 767.123 952.613 767.703 952.549 767.844L951.698 769.695L951.059 771.063C950.861 771.487 950.548 772.153 950.201 772.884C949.933 773.447 949.669 773.998 949.572 774.199C949.318 774.728 949.04 775.304 948.744 775.911C948.589 776.23 948.329 776.764 948.043 777.346C947.802 777.834 947.526 778.394 947.225 778.996L946.516 780.409L945.594 782.225C945.538 782.333 945.571 782.269 945.429 782.546C945.338 782.725 945.185 783.026 945.006 783.373C944.594 784.171 944.214 784.897 943.911 785.477C943.869 785.556 943.893 785.509 943.787 785.713C943.718 785.845 943.603 786.065 943.469 786.32L942.321 788.477L941.726 789.581L940.673 791.517C940.443 791.935 940.23 792.322 940.042 792.662C939.726 793.233 939.378 793.858 939.008 794.519C938.791 794.906 938.564 795.307 938.331 795.72C937.954 796.386 937.607 796.993 937.328 797.48C937.045 797.974 936.782 798.427 936.561 798.809L936.562 798.81L935.615 800.435C935.523 800.592 935.162 801.21 934.809 801.806L934.808 801.805C934.423 802.456 934.068 803.051 933.776 803.538C933.593 803.844 933.338 804.268 933.056 804.733L933.057 804.734C932.648 805.412 932.254 806.054 932.081 806.336L931.128 807.888L930.315 809.193L929.327 810.769C928.925 811.405 928.552 811.99 928.345 812.312C928.152 812.616 927.85 813.088 927.515 813.606L926.464 815.228C926.288 815.497 925.969 815.986 925.622 816.514C925.216 817.13 924.845 817.688 924.564 818.109C924.405 818.349 924.056 818.871 923.686 819.421C923.206 820.136 922.765 820.784 922.475 821.21C922.331 821.422 922.484 821.198 922.254 821.536C922.143 821.699 921.971 821.949 921.773 822.237L921.774 822.238L920.553 824.004C920.444 824.161 920.121 824.627 919.792 825.097C919.314 825.779 918.877 826.395 918.579 826.815L917.736 828.001L916.432 829.811L915.759 830.738C915.164 831.553 914.616 832.294 914.283 832.744C914.276 832.754 914.266 832.767 914.253 832.785C914.237 832.806 914.214 832.838 914.189 832.871C914.098 832.995 913.898 833.266 913.661 833.584C913.09 834.351 912.539 835.079 912.302 835.394C912.308 835.386 912.303 835.393 912.272 835.434C912.269 835.438 912.173 835.566 912.134 835.618C912.016 835.774 911.791 836.073 911.527 836.421C911.084 837.004 910.68 837.531 910.396 837.899C910.32 837.999 910.365 837.942 910.138 838.237C909.988 838.433 909.729 838.77 909.427 839.16C909.144 839.524 908.898 839.84 908.734 840.05C908.271 840.642 908.742 840.039 908.399 840.478C908.284 840.625 907.76 841.296 907.26 841.929C906.631 842.724 906.05 843.45 905.566 844.052L905.627 843.977C905.627 843.977 905.601 844.009 905.591 844.021C905.538 844.087 905.369 844.3 905.166 844.552C904.578 845.281 904.02 845.963 903.758 846.285C903.659 846.405 903.72 846.33 903.493 846.609C903.349 846.786 903.113 847.074 902.839 847.408C902.296 848.068 901.766 848.704 901.561 848.95C901.435 849.102 901.535 848.982 901.295 849.271C901.157 849.436 900.939 849.699 900.686 850L900.685 849.999C899.966 850.857 899.305 851.637 898.767 852.268L898.727 852.314C898.678 852.373 898.56 852.511 898.422 852.673C897.823 853.373 897.263 854.021 896.771 854.587L896.769 854.589C896.765 854.594 896.761 854.6 896.753 854.609C896.746 854.617 896.735 854.628 896.724 854.64C896.697 854.671 896.671 854.703 896.644 854.734C896.604 854.781 896.554 854.839 896.5 854.901L896.099 855.362C895.511 856.036 894.916 856.71 894.732 856.918C894.649 857.012 894.697 856.958 894.468 857.218C894.317 857.389 894.062 857.679 893.763 858.015C892.441 859.501 891.174 860.897 889.993 862.184C889.991 862.186 889.978 862.2 889.943 862.238C889.927 862.256 889.822 862.371 889.761 862.437C889.61 862.602 889.329 862.909 888.999 863.266C885.871 866.646 882.653 869.992 879.346 873.3L879.347 873.301C868.488 884.176 856.988 894.3 844.934 903.634C843.975 904.377 843.042 905.091 842.143 905.773C835.386 910.901 828.477 915.766 821.439 920.366L821.438 920.365C820.077 921.255 818.758 922.105 817.492 922.909L817.491 922.91C811.174 926.923 804.699 930.763 798.069 934.415C795.525 935.816 793.054 937.135 790.679 938.372L790.678 938.373C786.948 940.317 783.136 942.221 779.243 944.077C777.675 944.825 776.214 945.506 774.934 946.096C771.732 947.571 768.512 948.998 765.278 950.375L765.277 950.374C759.858 952.682 754.378 954.86 748.843 956.904L748.842 956.905C745.854 958.008 742.817 959.084 739.731 960.131L739.732 960.132C738.004 960.718 736.303 961.279 734.635 961.817L734.635 961.818C734.58 961.836 733.879 962.061 733.277 962.253L733.278 962.254C730.23 963.224 727.183 964.149 724.139 965.03L721.096 965.896C720.546 966.051 720.041 966.189 719.622 966.305L719.623 966.306C714.13 967.819 708.586 969.208 702.996 970.467L700.596 970.999L699.234 971.293C693.738 972.47 688.152 973.534 682.483 974.471L682.482 974.47C678.952 975.055 675.465 975.615 672.033 976.151C671.445 976.243 670.871 976.332 670.398 976.405C665.075 977.229 659.702 978.023 654.285 978.78C652.095 979.086 649.955 979.378 647.889 979.654C643.837 980.197 639.767 980.721 635.682 981.223L631.593 981.717C630.51 981.846 629.439 981.972 628.385 982.094L625.277 982.449C623.588 982.641 621.899 982.828 620.209 983.012L615.138 983.551C613.995 983.67 612.854 983.787 611.714 983.902L608.297 984.241C604.868 984.577 601.422 984.897 597.963 985.203L597.964 985.204C594.879 985.477 591.792 985.737 588.703 985.984L585.613 986.228C559.133 988.273 532.562 989.374 505.959 989.512C504.068 989.522 502.156 989.527 500.227 989.527C494.705 989.552 489.188 989.538 483.677 989.481C428.398 988.916 373.198 984.262 318.5 975.472C318.359 975.449 318.217 975.427 318.076 975.403C317.987 975.389 317.903 975.373 317.825 975.36C315.937 975.049 314.184 974.742 312.642 974.464C310.167 974.018 307.66 973.541 305.125 973.028C305.179 973.039 305.213 973.045 305.206 973.044C305.173 973.037 305.192 973.042 305.096 973.022C304.982 973 304.67 972.938 304.303 972.862C303.825 972.765 303.413 972.678 303.153 972.624C302.711 972.531 302.881 972.566 302.657 972.52C302.355 972.456 302.619 972.512 302.08 972.399C301.785 972.338 301.322 972.24 300.79 972.126C300.229 972.006 299.749 971.899 299.477 971.839C299.072 971.749 299.146 971.765 299.028 971.739C299.021 971.738 299.011 971.736 298.999 971.733C298.971 971.727 298.942 971.72 298.894 971.71C298.852 971.701 298.793 971.688 298.73 971.675L297.476 971.397C296.495 971.177 295.512 970.948 295.209 970.878C295.203 970.877 295.191 970.873 295.173 970.869C295.15 970.864 295.128 970.859 295.092 970.851C295.059 970.843 295.015 970.833 294.969 970.822C294.795 970.782 294.455 970.704 294.057 970.61C293.584 970.499 293.172 970.401 292.897 970.335C291.944 970.106 293.09 970.381 292.334 970.199C292.143 970.153 292.263 970.182 291.819 970.076C291.539 970.009 291.079 969.898 290.547 969.768C289.591 969.533 288.713 969.311 288.219 969.187C288.221 969.187 288.224 969.188 288.224 969.188C288.212 969.184 288.198 969.181 288.174 969.175C288.152 969.169 288.119 969.161 288.086 969.152C287.961 969.121 287.69 969.053 287.372 968.972L284.957 968.345C284.973 968.349 285.003 968.357 284.921 968.336C284.868 968.322 284.739 968.289 284.587 968.249C284.429 968.208 284.211 968.151 283.955 968.083C283.024 967.836 282.079 967.576 281.813 967.504C281.719 967.478 281.775 967.494 281.469 967.411C281.263 967.355 280.904 967.258 280.486 967.143C280.037 967.018 279.645 966.908 279.383 966.834C278.015 966.449 280.021 967.013 278.839 966.681C278.737 966.652 277.813 966.394 277.002 966.161C276.607 966.048 276.266 965.949 276.055 965.887C275.705 965.785 275.823 965.818 275.655 965.77C275.497 965.723 274.591 965.461 273.757 965.213C272.887 964.954 271.965 964.673 271.776 964.615C271.78 964.616 271.767 964.613 271.715 964.597C271.696 964.591 271.556 964.549 271.48 964.526C271.284 964.467 270.917 964.355 270.489 964.224C269.682 963.975 268.854 963.715 268.638 963.647L267.086 963.158L265.146 962.533C265.023 962.493 265.097 962.517 264.786 962.416C264.585 962.351 264.251 962.243 263.864 962.115C263.027 961.84 262.207 961.564 261.916 961.467C261.867 961.45 261.118 961.201 260.484 960.985C259.79 960.749 259.161 960.532 258.729 960.383C258.536 960.316 257.874 960.088 257.221 959.859C256.379 959.564 255.585 959.28 255.219 959.149C255.216 959.148 254.532 958.905 253.984 958.707C253.341 958.475 252.743 958.257 252.215 958.062C251.807 957.913 251.227 957.699 250.588 957.461C249.902 957.206 249.282 956.972 248.823 956.798C248.64 956.729 248.065 956.511 247.491 956.291C246.736 956.002 246.051 955.735 245.614 955.564L244.092 954.969C243.42 954.704 242.813 954.46 242.403 954.296C242.195 954.213 241.611 953.979 241.017 953.738C240.276 953.438 239.595 953.159 239.02 952.922C238.854 952.853 238.328 952.637 237.804 952.419C237.051 952.105 236.369 951.817 235.86 951.602C235.759 951.559 235.155 951.303 234.603 951.067L232.762 950.272C232.3 950.072 231.807 949.857 231.29 949.63C230.601 949.327 229.977 949.048 229.553 948.859C228.69 948.475 230.141 949.122 229.136 948.674C228.934 948.584 228.634 948.45 228.29 948.295C227.555 947.964 226.87 947.652 226.258 947.371L225.101 946.839C224.404 946.517 223.763 946.217 223.218 945.961C222.936 945.829 222.454 945.602 221.93 945.354C221.281 945.046 220.634 944.737 219.987 944.426C219.723 944.299 219.336 944.112 218.91 943.905C218.211 943.566 217.553 943.243 216.951 942.946L215.558 942.255C215.124 942.038 214.59 941.772 214.007 941.478C213.472 941.208 212.977 940.956 212.552 940.739C212.071 940.494 211.441 940.172 210.749 939.814C210.25 939.557 209.799 939.321 209.481 939.155C208.935 938.87 208.358 938.567 207.757 938.249C207.24 937.976 206.746 937.713 206.279 937.463C205.865 937.241 205.381 936.981 204.857 936.698L203.186 935.789C202.702 935.524 202.195 935.245 201.668 934.953C201.161 934.672 200.692 934.411 200.282 934.182C199.826 933.927 199.257 933.606 198.633 933.253C198.111 932.958 197.636 932.687 197.25 932.466C196.758 932.184 196.188 931.857 195.573 931.501L194.34 930.782C193.948 930.553 193.303 930.176 192.6 929.76L191.167 928.905C190.715 928.635 190.226 928.341 189.711 928.029C189.106 927.663 188.537 927.316 188.271 927.153C188.046 927.015 187.352 926.592 186.658 926.163C186.121 925.831 185.631 925.525 185.343 925.345C184.791 925 184.243 924.657 183.7 924.313C183.21 924.004 182.731 923.698 182.556 923.587C182.045 923.261 181.376 922.834 180.641 922.359C180.418 922.215 180.224 922.089 180.096 922.006C179.724 921.764 180.11 922.015 179.833 921.835C179.315 921.498 178.569 921.012 177.749 920.472C177.415 920.251 177.13 920.062 176.988 919.968C176.95 919.942 176.914 919.918 176.888 919.9L176.803 919.844C176.523 919.658 175.755 919.149 174.974 918.624C174.617 918.384 174.306 918.173 174.098 918.032C173.295 917.486 174.325 918.186 173.671 917.741C173.24 917.449 172.709 917.087 172.129 916.688C171.678 916.379 171.263 916.091 170.907 915.845C170.512 915.571 169.892 915.142 169.215 914.667L167.965 913.784C167.672 913.577 167.095 913.169 166.477 912.728C165.872 912.295 165.24 911.837 165.096 911.732C164.953 911.63 164.231 911.109 163.558 910.618C162.956 910.178 162.29 909.685 162.195 909.615C162.089 909.537 161.41 909.037 160.795 908.579C160.13 908.084 159.447 907.568 159.272 907.437C159.045 907.266 159.278 907.441 158.91 907.164C158.728 907.027 158.447 906.815 158.125 906.57L156.497 905.324C156.509 905.333 156.503 905.33 156.458 905.295C156.434 905.277 156.412 905.259 156.374 905.23C156.34 905.204 156.293 905.169 156.245 905.132C156.064 904.993 155.711 904.723 155.3 904.404C154.61 903.87 153.835 903.259 153.743 903.188C153.668 903.129 153.091 902.677 152.578 902.271C151.878 901.718 151.196 901.171 150.948 900.973C150.953 900.977 150.944 900.969 150.9 900.935C150.89 900.926 150.762 900.825 150.701 900.776C150.534 900.643 150.22 900.392 149.853 900.097C149.166 899.542 148.429 898.939 148.293 898.828C148.199 898.751 148.253 898.796 147.97 898.565C147.781 898.412 147.456 898.146 147.079 897.836C146.734 897.552 146.441 897.309 146.289 897.183C146.248 897.149 146.21 897.117 146.181 897.093C146.15 897.066 146.13 897.051 146.11 897.034C146.071 897.002 146.067 896.997 146.076 897.005C145.716 896.706 145.047 896.153 144.329 895.55C143.959 895.239 143.648 894.975 143.523 894.869C143.49 894.841 143.454 894.811 143.436 894.796L143.45 894.807C143.366 894.736 142.508 894.014 141.766 893.379C141.099 892.808 140.358 892.164 140.261 892.08C140.218 892.043 139.587 891.499 139.055 891.034C138.49 890.542 137.86 889.985 137.781 889.915C137.423 889.6 137.882 890.004 137.375 889.558C137.175 889.382 136.873 889.115 136.526 888.807C136.159 888.48 135.845 888.198 135.665 888.036C135.395 887.793 135.446 887.838 135.36 887.762C134.12 886.649 132.731 885.39 131.255 884.024C130.448 883.278 129.678 882.558 128.954 881.876C126.35 879.424 123.754 876.907 121.172 874.324L121.171 874.325C67.7129 820.873 32.4154 752.057 20.0799 677.61C8.14156 605.919 3.29182 533.343 5.53011 460.926C5.82455 451.399 6.24105 441.873 6.78109 432.351C6.99758 428.533 7.2335 424.725 7.48812 420.928C7.87086 415.22 8.29806 409.512 8.76937 403.806C8.92702 401.897 9.08944 399.995 9.2557 398.102C10.0896 388.603 11.0453 379.105 12.1258 369.612C12.3455 367.682 12.5684 365.782 12.7899 363.922C14.8163 346.9 17.2384 329.91 20.0565 312.967C20.4443 310.621 20.8518 308.297 21.2782 305.998C21.7068 303.687 22.1584 301.376 22.6336 299.065C23.5833 294.449 24.6209 289.862 25.744 285.31C26.0116 284.225 26.2982 283.083 26.6034 281.896C27.1871 279.624 27.7937 277.358 28.4217 275.098C28.7251 274.006 29.0439 272.876 29.3787 271.715C34.2496 254.824 40.3345 238.35 47.5672 222.418C49.0094 219.241 50.5013 216.074 52.0448 212.921C57.896 200.966 64.398 189.361 71.5106 178.151C75.622 171.672 79.9663 165.276 84.5487 158.984C92.8171 147.632 101.765 136.737 111.359 126.362C113.756 123.77 116.194 121.208 118.675 118.679L118.676 118.68C119.516 117.823 120.33 117.002 121.107 116.225C131.131 106.186 141.7 96.785 152.749 88.0566C155.133 86.1732 157.449 84.3966 159.665 82.7314C163.834 79.5985 168.13 76.5082 172.555 73.4775C174.505 72.1427 176.448 70.8399 178.383 69.5693C180.325 68.294 182.291 67.0293 184.281 65.7773C185.251 65.1668 186.244 64.5486 187.257 63.9248C195.218 59.0224 203.358 54.436 211.658 50.1738C213.728 49.1107 215.815 48.0647 217.917 47.0361L220.277 45.8916C225.795 43.2411 231.385 40.7277 237.044 38.3555C238.158 37.8885 239.239 37.4426 240.281 37.0176C242.438 36.1378 244.61 35.2758 246.795 34.4336C247.901 34.0071 248.994 33.5928 250.071 33.1895C263.201 28.2734 276.639 24.1116 290.317 20.7383C291.454 20.4579 292.596 20.1828 293.741 19.9121L296.747 19.2148C303.722 17.6291 310.753 16.2497 317.829 15.0771C323.475 14.137 329.132 13.2385 334.799 12.3848L335.268 12.3145C335.382 12.2977 335.484 12.2828 335.527 12.2764L335.413 12.2939C337.009 12.0544 338.664 11.8087 340.356 11.5625C340.741 11.5066 341.093 11.456 341.339 11.4209C341.626 11.3799 341.756 11.3612 341.904 11.3398C343.204 11.1527 344.646 10.9465 346.139 10.7373L346.633 10.6689ZM317.386 975.287C317.446 975.297 317.521 975.31 317.606 975.324C317.679 975.336 317.752 975.348 317.825 975.36C317.573 975.319 317.373 975.286 317.261 975.267L317.386 975.287ZM659.163 11.4297C659.179 11.432 659.205 11.4358 659.237 11.4404C659.21 11.4366 659.184 11.4335 659.157 11.4297C659.157 11.4297 659.161 11.4294 659.163 11.4297ZM346.712 10.6582C346.692 10.661 346.67 10.664 346.648 10.667C346.739 10.6544 346.808 10.6447 346.845 10.6396C346.849 10.639 346.854 10.6392 346.858 10.6387C346.809 10.6455 346.761 10.6514 346.712 10.6582ZM653.482 10.624C653.467 10.6219 653.451 10.6203 653.435 10.6182C653.409 10.6146 653.4 10.6126 653.39 10.6113C653.396 10.6121 653.431 10.6168 653.482 10.624Z" fill="#000813"/>
<path d="M501.399 120.001C502.282 120.002 503.165 120.004 504.048 120.007C504.81 120.01 505.572 120.014 506.334 120.019C507.401 120.025 508.467 120.033 509.533 120.043C510.077 120.048 510.621 120.054 511.165 120.06C512.295 120.072 513.425 120.087 514.555 120.104C515.146 120.112 515.737 120.12 516.327 120.13C517.407 120.148 518.486 120.168 519.566 120.189C520.187 120.201 520.808 120.213 521.43 120.227C522.45 120.249 523.47 120.272 524.49 120.297C525.236 120.315 525.981 120.335 526.726 120.355C527.594 120.378 528.462 120.402 529.33 120.428C530.144 120.452 530.958 120.476 531.772 120.502C532.702 120.532 533.632 120.564 534.563 120.596C535.281 120.621 536 120.646 536.718 120.672C537.779 120.711 538.84 120.753 539.901 120.795C540.482 120.818 541.064 120.841 541.646 120.865C542.679 120.909 543.713 120.955 544.746 121.001C545.49 121.035 546.235 121.069 546.979 121.104C547.906 121.148 548.832 121.193 549.759 121.239C550.469 121.275 551.179 121.311 551.889 121.348C552.851 121.398 553.813 121.45 554.776 121.503C555.553 121.546 556.33 121.589 557.107 121.634C558.083 121.69 559.059 121.749 560.035 121.808C560.661 121.846 561.287 121.883 561.912 121.922C563.012 121.991 564.112 122.062 565.212 122.134C565.836 122.175 566.46 122.216 567.084 122.258C568.047 122.323 569.01 122.391 569.973 122.459C570.734 122.513 571.495 122.566 572.256 122.621C573.199 122.69 574.142 122.762 575.084 122.833C575.777 122.886 576.47 122.937 577.163 122.991C578.271 123.078 579.379 123.167 580.487 123.257C581.054 123.303 581.621 123.349 582.189 123.396C583.312 123.489 584.434 123.586 585.557 123.683C586.12 123.731 586.683 123.779 587.245 123.828C588.438 123.933 589.63 124.042 590.822 124.152C591.295 124.195 591.769 124.237 592.242 124.281C593.348 124.385 594.454 124.492 595.56 124.599C596.181 124.659 596.802 124.717 597.423 124.779C598.572 124.892 599.72 125.009 600.868 125.126C601.365 125.177 601.863 125.226 602.36 125.278C603.555 125.402 604.751 125.529 605.947 125.657C606.445 125.711 606.943 125.763 607.441 125.818C608.641 125.948 609.842 126.083 611.042 126.218C611.529 126.273 612.017 126.326 612.504 126.382C613.683 126.517 614.862 126.655 616.041 126.794C616.54 126.853 617.038 126.91 617.536 126.969C618.904 127.132 620.27 127.299 621.637 127.468C621.929 127.504 622.22 127.539 622.512 127.575C623.751 127.729 624.989 127.887 626.227 128.046C626.709 128.108 627.19 128.168 627.672 128.231C629.116 128.418 630.559 128.609 632.002 128.803C632.199 128.829 632.397 128.855 632.594 128.882C634.037 129.077 635.479 129.276 636.921 129.477C637.177 129.512 637.433 129.546 637.689 129.582C639.144 129.786 640.599 129.995 642.054 130.205C642.273 130.237 642.492 130.267 642.71 130.299C647.762 131.033 652.81 131.807 657.853 132.62C659.536 132.892 661.22 133.167 662.903 133.447L662.911 133.434L665.238 133.833C671.432 134.928 677.566 136.261 683.625 137.826C685.898 138.413 688.159 139.034 690.41 139.686C691.161 139.903 691.91 140.123 692.657 140.348C702.379 143.266 711.888 146.79 721.132 150.889C722.554 151.519 723.97 152.164 725.379 152.821C729.608 154.795 733.778 156.891 737.885 159.106C738.569 159.475 739.252 159.846 739.933 160.222C759.679 171.117 777.922 184.784 794.071 200.912C809.642 216.503 822.92 234.047 833.623 253.011C834.388 254.365 835.139 255.727 835.877 257.096C839.199 263.256 842.253 269.559 845.03 275.988C845.647 277.416 846.25 278.851 846.839 280.291C847.723 282.452 848.577 284.626 849.399 286.814C850.494 289.73 851.534 292.669 852.518 295.629C854.239 300.809 855.787 306.055 857.156 311.357C857.352 312.114 857.544 312.873 857.733 313.633C858.675 317.432 859.526 321.258 860.284 325.111C860.436 325.881 860.583 326.653 860.728 327.425C861.016 328.97 861.29 330.519 861.549 332.072C862.385 337.111 863.184 342.157 863.943 347.208C864.196 348.892 864.444 350.576 864.689 352.261C871.532 399.44 874.999 447.082 874.999 494.757C875.034 515.14 874.444 535.509 873.233 555.836C873.033 559.193 872.815 562.548 872.581 565.903C870.926 589.631 868.424 613.296 865.077 636.851C864.644 639.902 864.194 642.95 863.733 645.997C863.177 649.663 862.603 653.327 862.006 656.987L861.609 659.32C861.068 662.405 860.466 665.475 859.808 668.529C859.773 668.69 859.737 668.851 859.702 669.012C859.077 671.882 858.402 674.737 857.675 677.575C857.621 677.787 857.565 677.999 857.51 678.21C857.359 678.793 857.206 679.376 857.051 679.958C857.004 680.134 856.956 680.31 856.908 680.486C856.757 681.047 856.605 681.609 856.449 682.169C856.376 682.433 856.3 682.697 856.226 682.961C856.088 683.452 855.951 683.942 855.81 684.432C855.768 684.579 855.724 684.725 855.682 684.872C855.512 685.46 855.34 686.048 855.165 686.634C855.108 686.825 855.05 687.016 854.992 687.207C854.819 687.785 854.643 688.363 854.465 688.94C854.419 689.087 854.373 689.235 854.327 689.382C854.151 689.949 853.973 690.516 853.792 691.082C853.704 691.359 853.614 691.636 853.525 691.913C853.366 692.403 853.207 692.892 853.045 693.381C852.979 693.582 852.912 693.782 852.845 693.983C852.671 694.505 852.496 695.026 852.319 695.547C852.254 695.737 852.189 695.927 852.123 696.117C851.945 696.637 851.764 697.156 851.582 697.674C851.467 698.002 851.35 698.33 851.234 698.657C851.082 699.083 850.931 699.509 850.777 699.934C850.678 700.205 850.579 700.476 850.48 700.746C850.315 701.196 850.15 701.645 849.983 702.094C849.872 702.389 849.761 702.684 849.65 702.979C849.484 703.418 849.317 703.856 849.149 704.294C849.046 704.561 848.943 704.827 848.839 705.094C848.661 705.553 848.483 706.011 848.302 706.469C848.205 706.714 848.107 706.959 848.009 707.203C847.814 707.692 847.617 708.18 847.419 708.667C847.319 708.914 847.217 709.161 847.115 709.407C846.935 709.847 846.754 710.286 846.571 710.725C846.435 711.049 846.298 711.373 846.161 711.696C846 712.078 845.839 712.459 845.676 712.84C845.538 713.162 845.399 713.484 845.259 713.806C845.087 714.203 844.914 714.599 844.74 714.995C844.601 715.31 844.461 715.624 844.322 715.939C844.143 716.34 843.963 716.741 843.782 717.141C843.653 717.426 843.523 717.711 843.393 717.996C843.204 718.409 843.015 718.822 842.824 719.234C842.683 719.539 842.54 719.843 842.398 720.148C842.207 720.554 842.017 720.96 841.824 721.364C841.685 721.658 841.544 721.951 841.404 722.243C841.22 722.625 841.036 723.006 840.851 723.387C840.695 723.707 840.539 724.027 840.382 724.346C840.201 724.714 840.019 725.081 839.836 725.448C839.679 725.764 839.521 726.078 839.363 726.393C839.158 726.798 838.952 727.202 838.745 727.606C838.615 727.862 838.485 728.118 838.353 728.373C838.111 728.843 837.866 729.311 837.621 729.779C837.523 729.967 837.425 730.155 837.325 730.343C837.072 730.824 836.816 731.304 836.559 731.783C836.427 732.03 836.294 732.276 836.161 732.522C835.928 732.953 835.693 733.384 835.457 733.815C835.317 734.07 835.176 734.325 835.035 734.58C834.806 734.994 834.576 735.408 834.345 735.82C834.195 736.088 834.044 736.356 833.893 736.623C833.67 737.016 833.446 737.408 833.222 737.8C833.052 738.096 832.881 738.392 832.71 738.688C832.5 739.05 832.289 739.412 832.077 739.774C831.898 740.079 831.72 740.385 831.539 740.69C831.31 741.076 831.08 741.462 830.849 741.848C830.689 742.114 830.529 742.381 830.368 742.647C830.152 743.004 829.934 743.361 829.716 743.717C829.504 744.063 829.293 744.409 829.079 744.754C828.899 745.045 828.718 745.336 828.536 745.626C828.317 745.977 828.097 746.329 827.876 746.679C827.659 747.023 827.439 747.367 827.22 747.71C827.036 747.999 826.851 748.287 826.665 748.575C826.432 748.937 826.198 749.298 825.963 749.658C825.776 749.945 825.589 750.232 825.401 750.518C825.166 750.874 824.93 751.229 824.694 751.584C824.499 751.877 824.304 752.169 824.108 752.461C823.839 752.86 823.569 753.258 823.298 753.655C823.142 753.885 822.986 754.114 822.829 754.343C822.559 754.737 822.287 755.13 822.014 755.523C821.845 755.766 821.675 756.01 821.505 756.253C821.236 756.637 820.966 757.019 820.695 757.402C820.507 757.666 820.32 757.93 820.131 758.194C819.842 758.598 819.551 759 819.26 759.403C819.11 759.609 818.96 759.816 818.81 760.023C818.483 760.471 818.153 760.917 817.823 761.362C817.685 761.55 817.547 761.737 817.408 761.924C817.107 762.328 816.804 762.731 816.5 763.133C816.328 763.362 816.156 763.591 815.983 763.82C815.732 764.15 815.479 764.479 815.227 764.808C815.011 765.089 814.796 765.371 814.579 765.651C814.351 765.945 814.121 766.237 813.892 766.53C813.639 766.854 813.386 767.178 813.131 767.5C812.756 767.975 812.378 768.447 811.999 768.919C811.91 769.03 811.821 769.142 811.732 769.253C811.42 769.64 811.105 770.026 810.79 770.411C810.586 770.662 810.382 770.913 810.177 771.162C809.894 771.507 809.608 771.85 809.323 772.193C809.128 772.426 808.934 772.661 808.739 772.894C808.313 773.401 807.885 773.906 807.455 774.409C807.378 774.499 807.302 774.59 807.225 774.68C806.831 775.141 806.434 775.6 806.036 776.058C805.915 776.198 805.795 776.338 805.673 776.478C805.37 776.825 805.064 777.171 804.759 777.517C804.543 777.761 804.328 778.007 804.112 778.25C803.28 779.185 802.438 780.113 801.591 781.036C801.37 781.277 801.149 781.52 800.927 781.76C798.81 784.047 796.646 786.298 794.436 788.509C787.189 795.766 779.515 802.523 771.469 808.753C770.85 809.232 770.229 809.708 769.606 810.181C765.108 813.593 760.497 816.841 755.782 819.923C754.907 820.495 754.028 821.061 753.146 821.621C748.9 824.318 744.575 826.883 740.173 829.308C738.538 830.209 736.891 831.088 735.236 831.95C732.711 833.265 730.165 834.538 727.595 835.763C726.638 836.219 725.678 836.667 724.715 837.111C722.579 838.095 720.428 839.048 718.263 839.97C714.639 841.513 710.977 842.968 707.278 844.334C705.258 845.08 703.229 845.799 701.189 846.491C700.056 846.876 698.92 847.251 697.781 847.618C697.479 847.716 697.177 847.814 696.874 847.91C694.177 848.769 691.462 849.58 688.732 850.345C688.403 850.437 688.075 850.528 687.746 850.618C683.542 851.777 679.301 852.824 675.027 853.756C674.723 853.822 674.419 853.887 674.115 853.952C670.405 854.747 666.671 855.457 662.914 856.078C659.784 856.598 656.65 857.1 653.515 857.59C653.028 857.666 652.542 857.741 652.055 857.817C647.264 858.558 642.468 859.266 637.667 859.938C635.764 860.204 633.861 860.463 631.956 860.718C627.111 861.367 622.261 861.982 617.407 862.56C615.529 862.783 613.65 863 611.77 863.213C608.755 863.555 605.738 863.882 602.72 864.196C600.685 864.408 598.65 864.613 596.613 864.813C593.541 865.113 590.467 865.4 587.392 865.672C583.72 865.997 580.046 866.301 576.371 866.585C552.74 868.411 529.044 869.392 505.336 869.515C503.633 869.524 501.931 869.529 500.228 869.529C495.119 869.554 490.012 869.541 484.905 869.488C435.543 868.983 386.298 864.829 337.541 856.993C337.486 856.984 337.43 856.974 337.374 856.965C336.219 856.774 335.066 856.573 333.915 856.365C332.238 856.063 330.565 855.744 328.898 855.407C328.715 855.37 328.532 855.334 328.349 855.297C327.982 855.222 327.616 855.144 327.25 855.068C326.835 854.981 326.419 854.895 326.004 854.806C325.612 854.722 325.22 854.633 324.828 854.547C324.483 854.471 324.137 854.397 323.792 854.32C323.287 854.206 322.783 854.089 322.279 853.972C322.022 853.913 321.766 853.854 321.51 853.794C321.126 853.704 320.743 853.611 320.36 853.519C319.962 853.423 319.564 853.329 319.166 853.232C318.648 853.104 318.13 852.974 317.613 852.843C317.424 852.795 317.235 852.748 317.047 852.7C316.451 852.548 315.855 852.392 315.26 852.236C315.095 852.192 314.93 852.15 314.766 852.107C314.289 851.98 313.812 851.85 313.336 851.72C313.041 851.64 312.745 851.56 312.45 851.479C312.083 851.377 311.717 851.273 311.351 851.17C310.942 851.055 310.533 850.941 310.124 850.823C309.824 850.737 309.525 850.649 309.225 850.562C308.802 850.439 308.379 850.316 307.957 850.191C307.516 850.059 307.075 849.925 306.635 849.791C306.349 849.704 306.062 849.618 305.776 849.53C305.363 849.403 304.951 849.274 304.539 849.145C304.194 849.036 303.848 848.928 303.503 848.819C303.071 848.681 302.64 848.541 302.208 848.401C301.923 848.308 301.637 848.216 301.352 848.122C300.918 847.979 300.484 847.834 300.051 847.689C299.732 847.582 299.413 847.476 299.095 847.367C298.704 847.234 298.313 847.1 297.923 846.965C297.587 846.849 297.251 846.733 296.915 846.615C296.469 846.459 296.024 846.3 295.578 846.141C295.304 846.043 295.029 845.945 294.754 845.846C294.36 845.703 293.966 845.56 293.572 845.415C293.21 845.282 292.847 845.149 292.486 845.014C292.092 844.867 291.699 844.719 291.307 844.57C291.01 844.458 290.713 844.346 290.417 844.233C289.999 844.072 289.581 843.91 289.163 843.747C288.824 843.615 288.485 843.482 288.147 843.349C287.77 843.2 287.394 843.05 287.019 842.9C286.71 842.776 286.401 842.652 286.093 842.528C285.648 842.347 285.203 842.165 284.759 841.982C284.488 841.87 284.217 841.758 283.947 841.646C283.513 841.465 283.081 841.283 282.649 841.1C282.369 840.981 282.088 840.863 281.809 840.743C281.398 840.568 280.988 840.39 280.578 840.212C280.25 840.07 279.922 839.926 279.595 839.782C279.208 839.612 278.821 839.44 278.435 839.268C278.153 839.142 277.872 839.017 277.591 838.891C277.138 838.687 276.685 838.481 276.234 838.274C275.976 838.156 275.718 838.037 275.461 837.918C275.041 837.724 274.621 837.528 274.202 837.331C273.915 837.197 273.628 837.062 273.342 836.926C272.909 836.721 272.476 836.514 272.044 836.306C271.804 836.19 271.564 836.075 271.324 835.958C270.888 835.746 270.451 835.532 270.016 835.318C269.705 835.164 269.395 835.01 269.085 834.856C268.739 834.683 268.393 834.51 268.048 834.336C267.724 834.173 267.4 834.008 267.076 833.843C266.674 833.638 266.272 833.432 265.871 833.225C265.589 833.079 265.307 832.932 265.025 832.784C264.64 832.584 264.256 832.382 263.872 832.179C263.543 832.005 263.214 831.829 262.885 831.654C262.568 831.484 262.251 831.314 261.935 831.143C261.562 830.941 261.19 830.739 260.819 830.535C260.48 830.35 260.142 830.164 259.804 829.977C259.495 829.806 259.186 829.634 258.878 829.461C258.51 829.255 258.143 829.049 257.776 828.841C257.467 828.666 257.159 828.491 256.852 828.315C256.478 828.101 256.104 827.886 255.732 827.67C255.456 827.511 255.182 827.35 254.907 827.19C254.52 826.963 254.132 826.736 253.745 826.507C253.425 826.318 253.106 826.127 252.787 825.936C252.463 825.741 252.138 825.547 251.815 825.351C251.493 825.156 251.173 824.961 250.853 824.765C250.493 824.545 250.133 824.325 249.775 824.104C249.481 823.922 249.188 823.74 248.896 823.557C248.529 823.328 248.163 823.098 247.798 822.867C247.543 822.706 247.289 822.544 247.034 822.382C246.607 822.11 246.18 821.837 245.754 821.562C245.574 821.445 245.394 821.328 245.214 821.211C244.749 820.909 244.284 820.606 243.822 820.301C243.61 820.162 243.4 820.021 243.19 819.881C242.782 819.61 242.374 819.34 241.968 819.067C241.677 818.871 241.387 818.673 241.097 818.476C240.753 818.242 240.409 818.008 240.067 817.773C239.794 817.585 239.522 817.397 239.25 817.209C238.873 816.948 238.495 816.686 238.119 816.422C237.84 816.226 237.563 816.029 237.284 815.832C236.953 815.597 236.621 815.363 236.29 815.126C235.982 814.906 235.675 814.683 235.367 814.461C235.025 814.214 234.682 813.966 234.34 813.717C234.036 813.495 233.733 813.271 233.43 813.047C233.118 812.817 232.805 812.587 232.493 812.355C232.154 812.101 231.815 811.846 231.477 811.591C231.221 811.398 230.965 811.206 230.71 811.013C230.347 810.737 229.984 810.458 229.622 810.18C229.356 809.975 229.088 809.772 228.822 809.566C228.475 809.296 228.129 809.024 227.782 808.752C227.523 808.549 227.263 808.345 227.004 808.141C226.64 807.853 226.278 807.563 225.915 807.273C225.672 807.078 225.427 806.884 225.184 806.688C224.835 806.407 224.489 806.123 224.142 805.84C223.871 805.619 223.6 805.4 223.33 805.178C223.106 804.994 222.884 804.807 222.66 804.622C222.271 804.299 221.881 803.976 221.493 803.651C221.297 803.486 221.102 803.319 220.906 803.154C220.531 802.836 220.155 802.52 219.781 802.2C219.445 801.912 219.111 801.622 218.776 801.332C218.507 801.1 218.238 800.868 217.97 800.634C217.686 800.386 217.403 800.136 217.119 799.886C216.84 799.639 216.559 799.394 216.28 799.146C216.02 798.914 215.762 798.68 215.502 798.447C214.582 797.622 213.667 796.791 212.759 795.951C212.245 795.475 211.732 794.997 211.222 794.516C209.465 792.861 207.73 791.179 206.02 789.469C170.291 753.744 146.684 707.721 138.449 657.901C127.802 593.96 123.476 529.228 125.473 464.634C125.736 456.135 126.107 447.638 126.589 439.146C126.782 435.749 126.992 432.353 127.22 428.957C127.561 423.864 127.942 418.773 128.363 413.685C128.503 411.989 128.647 410.293 128.796 408.597C129.54 400.118 130.393 391.647 131.357 383.185C131.549 381.492 131.747 379.8 131.948 378.109C133.761 362.884 135.928 347.69 138.449 332.539C138.707 330.982 138.98 329.429 139.267 327.88C139.554 326.331 139.856 324.786 140.173 323.245C140.807 320.163 141.501 317.098 142.252 314.051C142.44 313.289 142.631 312.528 142.826 311.769C143.217 310.25 143.622 308.735 144.041 307.226C144.251 306.471 144.464 305.717 144.681 304.965C147.935 293.68 152.001 282.672 156.835 272.023C157.802 269.893 158.799 267.777 159.827 265.677C163.73 257.703 168.074 249.948 172.835 242.444C175.599 238.087 178.502 233.815 181.546 229.636C187.071 222.051 193.05 214.77 199.463 207.835C201.066 206.101 202.697 204.389 204.354 202.699C204.906 202.136 205.462 201.576 206.02 201.018C212.709 194.319 219.763 188.045 227.137 182.22C228.662 181.015 230.202 179.832 231.754 178.666C234.58 176.543 237.448 174.481 240.36 172.487C241.649 171.604 242.946 170.734 244.251 169.877C245.556 169.02 246.869 168.176 248.19 167.345C248.85 166.929 249.513 166.517 250.177 166.108C255.491 162.835 260.929 159.771 266.478 156.922C267.865 156.21 269.259 155.511 270.659 154.825C274.861 152.769 279.123 150.835 283.441 149.025C284.16 148.723 284.882 148.425 285.605 148.13C287.05 147.541 288.501 146.965 289.957 146.404C290.686 146.123 291.416 145.845 292.148 145.572C300.924 142.286 309.906 139.504 319.05 137.249C319.812 137.061 320.575 136.877 321.339 136.697C326.689 135.432 332.092 134.348 337.541 133.447C342.581 132.608 347.626 131.808 352.676 131.047C352.859 131.02 353.041 130.993 353.224 130.966C354.693 130.746 356.162 130.528 357.632 130.314C358.092 130.247 358.553 130.182 359.013 130.115C360.272 129.934 361.53 129.754 362.789 129.577C362.915 129.56 363.041 129.543 363.167 129.526C364.706 129.311 366.244 129.098 367.783 128.891C368.105 128.847 368.427 128.806 368.748 128.763C370.112 128.58 371.476 128.399 372.84 128.222C373.145 128.182 373.449 128.144 373.754 128.105C375.138 127.927 376.521 127.751 377.905 127.578C378.171 127.545 378.436 127.513 378.701 127.481C380.136 127.303 381.571 127.127 383.007 126.956C383.236 126.929 383.466 126.903 383.696 126.876C385.117 126.708 386.538 126.542 387.96 126.38C388.399 126.33 388.837 126.281 389.276 126.232C390.501 126.094 391.726 125.956 392.951 125.822C393.442 125.769 393.934 125.718 394.425 125.665C395.662 125.532 396.899 125.4 398.136 125.272C398.521 125.232 398.907 125.194 399.292 125.155C400.521 125.029 401.749 124.904 402.978 124.782C403.662 124.715 404.347 124.65 405.031 124.584C406.05 124.486 407.069 124.387 408.088 124.292C408.636 124.241 409.184 124.192 409.732 124.142C410.886 124.036 412.041 123.93 413.196 123.828C413.759 123.779 414.322 123.731 414.885 123.682C415.973 123.588 417.061 123.495 418.149 123.405C418.858 123.346 419.567 123.289 420.277 123.232C421.234 123.154 422.19 123.076 423.148 123.001C423.806 122.95 424.465 122.901 425.124 122.851C426.217 122.768 427.309 122.685 428.402 122.606C428.918 122.568 429.434 122.532 429.95 122.495C431.117 122.412 432.284 122.33 433.451 122.251C433.973 122.216 434.496 122.182 435.018 122.148C436.201 122.07 437.384 121.993 438.568 121.919C439.074 121.888 439.58 121.857 440.086 121.826C441.213 121.758 442.341 121.69 443.468 121.625C444.108 121.588 444.748 121.554 445.388 121.519C446.456 121.46 447.525 121.401 448.593 121.345C449.261 121.31 449.929 121.277 450.597 121.243C451.523 121.197 452.448 121.151 453.374 121.108C454.199 121.069 455.023 121.031 455.848 120.994C456.777 120.953 457.705 120.911 458.634 120.872C459.291 120.845 459.948 120.818 460.605 120.792C461.654 120.75 462.704 120.71 463.753 120.671C464.381 120.648 465.01 120.626 465.638 120.604C466.693 120.567 467.748 120.531 468.803 120.497C469.499 120.475 470.196 120.454 470.892 120.434C471.84 120.406 472.788 120.379 473.736 120.354C474.464 120.334 475.193 120.316 475.922 120.298C476.911 120.274 477.901 120.25 478.89 120.229C479.604 120.213 480.318 120.2 481.032 120.186C482.001 120.167 482.969 120.15 483.938 120.134C484.602 120.123 485.266 120.112 485.93 120.103C487.023 120.087 488.116 120.073 489.209 120.061C489.801 120.054 490.392 120.049 490.984 120.043C491.988 120.034 492.991 120.026 493.995 120.02C494.777 120.015 495.558 120.01 496.339 120.007C497.24 120.004 498.142 120.002 499.043 120.001C499.828 120 500.613 120 501.399 120.001ZM500.161 213.225C494.005 213.225 487.849 213.288 481.694 213.415C477.077 213.51 472.461 213.641 467.846 213.808C464.769 213.919 461.693 214.046 458.617 214.189C451.017 214.541 443.42 214.991 435.828 215.537C432.668 215.765 429.508 216.009 426.349 216.27C424.814 216.397 423.279 216.528 421.744 216.662C418.675 216.932 415.607 217.217 412.54 217.519C398.739 218.875 384.961 220.552 371.218 222.55C369.691 222.772 368.165 222.999 366.639 223.229C362.061 223.919 357.486 224.644 352.916 225.405C351.145 225.696 349.385 226.019 347.637 226.371C347.088 226.482 346.54 226.595 345.993 226.711C299.861 236.545 261.881 267.604 242.599 309.268C242.27 309.978 241.946 310.692 241.628 311.408C241.397 311.93 241.168 312.454 240.943 312.979C240.038 315.084 239.18 317.214 238.37 319.369C237.458 321.798 236.609 324.259 235.822 326.747C235.445 327.937 235.083 329.133 234.736 330.335C234.575 330.891 234.418 331.449 234.264 332.008C234.025 332.873 233.792 333.741 233.569 334.613C233.556 334.664 233.544 334.715 233.53 334.766C232.941 337.073 232.405 339.402 231.925 341.752C231.802 342.352 231.685 342.953 231.57 343.556C231.315 344.884 231.077 346.218 230.858 347.558L230.109 352.131C228.991 359.065 227.958 366.008 227.004 372.959C226.734 374.926 226.47 376.893 226.213 378.861C226.057 380.057 225.904 381.253 225.753 382.449C225.704 382.842 225.653 383.235 225.604 383.627C225.076 387.846 224.581 392.068 224.114 396.292C215.864 470.887 217.008 546.235 227.547 620.591C227.916 623.192 228.294 625.793 228.686 628.392C228.725 628.651 228.766 628.909 228.805 629.168C229.458 633.476 230.141 637.781 230.858 642.081C231.421 645.509 232.1 648.895 232.891 652.237C233.004 652.715 233.119 653.192 233.237 653.667C234.53 658.899 236.097 664.019 237.924 669.011C238.09 669.465 238.259 669.918 238.429 670.369C240.303 675.338 242.433 680.177 244.806 684.87C245.022 685.297 245.239 685.723 245.458 686.147C259.077 712.452 280.32 734.09 306.321 748.197C306.74 748.425 307.16 748.651 307.582 748.874C308.848 749.545 310.124 750.198 311.411 750.833C311.84 751.045 312.271 751.254 312.702 751.462C321.331 755.615 330.431 758.96 339.906 761.402C340.854 761.646 341.805 761.881 342.76 762.107C346.102 762.897 349.489 763.577 352.916 764.14C365.085 766.13 377.291 767.865 389.527 769.347C391.056 769.532 392.586 769.714 394.116 769.891C410.95 771.841 427.837 773.312 444.757 774.305C447.834 774.485 450.912 774.65 453.99 774.799C463.226 775.246 472.47 775.551 481.72 775.714C487.886 775.823 494.055 775.869 500.225 775.852C501.768 775.852 503.31 775.847 504.853 775.839C509.479 775.815 514.105 775.756 518.73 775.66C520.272 775.629 521.813 775.593 523.355 775.553C529.52 775.394 535.682 775.172 541.841 774.886C577.254 773.242 612.548 769.502 647.533 763.682C659.108 761.715 670.408 758.421 681.158 753.846V753.801L566.513 639.154C563.747 640.651 560.948 642.061 558.122 643.387C557.062 643.885 555.996 644.369 554.928 644.843C554.77 644.913 554.612 644.983 554.454 645.053C554.253 645.141 554.051 645.228 553.85 645.316C553.65 645.402 553.451 645.49 553.251 645.576C553.124 645.631 552.997 645.685 552.869 645.739C552.582 645.862 552.295 645.984 552.008 646.105C551.917 646.143 551.826 646.181 551.736 646.219C551.419 646.352 551.101 646.483 550.783 646.613C550.609 646.685 550.434 646.756 550.259 646.827C550.03 646.92 549.802 647.014 549.572 647.106C548.936 647.361 548.299 647.611 547.66 647.859C547.455 647.938 547.25 648.016 547.045 648.095C546.995 648.114 546.944 648.134 546.894 648.154C546.518 648.297 546.142 648.438 545.766 648.578C545.76 648.581 545.754 648.584 545.748 648.586C545.363 648.73 544.977 648.871 544.591 649.012C544.329 649.107 544.067 649.201 543.805 649.295C543.657 649.348 543.51 649.401 543.363 649.453C543.123 649.538 542.883 649.622 542.644 649.706C542.463 649.769 542.283 649.833 542.103 649.896C541.805 649.999 541.507 650.1 541.209 650.201C541.116 650.233 541.022 650.265 540.929 650.297C540.661 650.388 540.392 650.476 540.123 650.565C539.935 650.627 539.748 650.69 539.56 650.752C539.398 650.805 539.237 650.857 539.075 650.909C538.812 650.995 538.548 651.08 538.284 651.164C538.079 651.23 537.872 651.294 537.666 651.359C537.477 651.418 537.288 651.478 537.098 651.537C536.805 651.628 536.512 651.718 536.219 651.807C536.094 651.845 535.97 651.883 535.845 651.921C535.633 651.985 535.42 652.048 535.207 652.112C534.962 652.184 534.717 652.258 534.472 652.329C534.248 652.395 534.023 652.458 533.798 652.523C533.65 652.565 533.502 652.609 533.354 652.652C533.036 652.742 532.718 652.831 532.4 652.919C532.287 652.95 532.175 652.982 532.063 653.013C531.828 653.078 531.592 653.141 531.357 653.204C531.136 653.264 530.915 653.325 530.694 653.384C530.535 653.426 530.376 653.467 530.218 653.509C529.942 653.582 529.665 653.654 529.389 653.725C529.26 653.758 529.131 653.791 529.002 653.823C528.698 653.901 528.394 653.978 528.089 654.054C527.991 654.078 527.892 654.103 527.794 654.127C527.481 654.205 527.167 654.281 526.853 654.357C526.66 654.403 526.466 654.449 526.273 654.494C526.058 654.545 525.844 654.596 525.629 654.646C525.439 654.69 525.25 654.733 525.06 654.777C524.787 654.839 524.514 654.902 524.24 654.963C524.115 654.991 523.989 655.018 523.863 655.046C523.598 655.105 523.333 655.163 523.068 655.22C522.823 655.273 522.577 655.324 522.332 655.376C522.143 655.416 521.953 655.456 521.763 655.495C521.568 655.536 521.373 655.576 521.178 655.615C520.939 655.664 520.7 655.712 520.46 655.76C520.244 655.803 520.028 655.845 519.812 655.887C519.61 655.926 519.408 655.966 519.205 656.004C518.969 656.049 518.733 656.093 518.496 656.137C518.313 656.171 518.129 656.206 517.946 656.239C517.696 656.285 517.446 656.33 517.196 656.374C516.999 656.409 516.802 656.444 516.606 656.478C516.366 656.519 516.125 656.56 515.885 656.601C515.717 656.629 515.55 656.658 515.382 656.686C515.112 656.731 514.842 656.774 514.572 656.818C514.394 656.846 514.215 656.875 514.036 656.904C513.828 656.936 513.62 656.968 513.411 657C513.181 657.036 512.951 657.071 512.721 657.106C512.493 657.14 512.265 657.173 512.037 657.206C511.853 657.233 511.669 657.26 511.485 657.286C511.189 657.328 510.893 657.368 510.598 657.408C510.477 657.425 510.357 657.441 510.237 657.457C509.962 657.494 509.688 657.53 509.414 657.566C509.226 657.59 509.038 657.613 508.85 657.637C508.636 657.664 508.422 657.69 508.208 657.716C507.958 657.746 507.708 657.776 507.457 657.805C507.329 657.82 507.201 657.834 507.072 657.849C506.758 657.885 506.444 657.92 506.129 657.954C506.008 657.967 505.887 657.981 505.766 657.993C505.459 658.026 505.151 658.057 504.844 658.088C504.673 658.105 504.502 658.122 504.33 658.139C504.121 658.159 503.911 658.179 503.701 658.198C503.443 658.223 503.184 658.246 502.925 658.269C502.726 658.286 502.527 658.304 502.327 658.32C502.105 658.339 501.883 658.357 501.661 658.375C501.466 658.391 501.27 658.406 501.074 658.421C500.838 658.439 500.601 658.458 500.364 658.475C500.15 658.49 499.935 658.505 499.721 658.52C499.481 658.536 499.24 658.552 499 658.568C498.843 658.578 498.686 658.588 498.529 658.598C498.226 658.616 497.924 658.634 497.622 658.651C497.495 658.658 497.368 658.665 497.241 658.672C496.919 658.689 496.596 658.706 496.274 658.721C496.169 658.726 496.064 658.731 495.959 658.736C495.669 658.749 495.379 658.761 495.089 658.773C494.902 658.78 494.715 658.787 494.529 658.794C494.29 658.803 494.051 658.812 493.812 658.82C493.641 658.825 493.471 658.83 493.301 658.835C492.965 658.845 492.629 658.854 492.293 658.862C492.24 658.863 492.187 658.864 492.134 658.865C491.756 658.874 491.378 658.881 491 658.887C490.933 658.888 490.865 658.889 490.798 658.89C490.491 658.894 490.185 658.897 489.878 658.9C489.672 658.901 489.467 658.903 489.261 658.904C489.072 658.905 488.884 658.905 488.696 658.905C488.455 658.906 488.214 658.906 487.973 658.905C487.745 658.905 487.517 658.903 487.289 658.902C487.1 658.9 486.911 658.899 486.722 658.897C486.493 658.894 486.264 658.891 486.034 658.888C485.798 658.884 485.561 658.88 485.324 658.875C485.129 658.871 484.934 658.868 484.739 658.863C484.524 658.859 484.308 658.854 484.092 658.848C483.862 658.842 483.632 658.834 483.403 658.827C483.196 658.821 482.99 658.815 482.784 658.808C482.548 658.8 482.311 658.791 482.074 658.781C481.869 658.773 481.663 658.765 481.457 658.756C481.252 658.747 481.048 658.738 480.843 658.729C480.614 658.718 480.385 658.707 480.155 658.695C479.922 658.684 479.688 658.671 479.454 658.658C479.29 658.649 479.125 658.64 478.96 658.63C478.642 658.612 478.324 658.593 478.006 658.572C477.935 658.568 477.863 658.563 477.792 658.559C477.442 658.536 477.091 658.512 476.74 658.487C476.62 658.478 476.5 658.469 476.38 658.46C476.113 658.44 475.846 658.42 475.578 658.399C475.379 658.383 475.18 658.367 474.981 658.351C474.736 658.331 474.49 658.31 474.245 658.288C474.072 658.273 473.899 658.258 473.726 658.242C473.45 658.218 473.174 658.192 472.899 658.166C472.75 658.152 472.6 658.137 472.451 658.122C472.18 658.096 471.908 658.068 471.636 658.04C471.459 658.022 471.283 658.003 471.107 657.985C470.87 657.959 470.633 657.935 470.397 657.908C470.167 657.883 469.938 657.857 469.709 657.83C469.515 657.808 469.32 657.786 469.125 657.763C468.882 657.734 468.639 657.704 468.396 657.674C468.195 657.649 467.995 657.624 467.794 657.599C467.604 657.575 467.415 657.55 467.225 657.526C466.964 657.492 466.703 657.457 466.443 657.422C466.283 657.401 466.124 657.379 465.965 657.357C465.682 657.317 465.399 657.277 465.116 657.237C464.972 657.216 464.828 657.195 464.684 657.174C464.408 657.134 464.133 657.093 463.858 657.051C463.714 657.029 463.571 657.007 463.427 656.985C463.115 656.936 462.803 656.888 462.491 656.838C462.368 656.818 462.244 656.798 462.12 656.778C461.852 656.734 461.584 656.69 461.317 656.645C461.151 656.617 460.986 656.589 460.821 656.561C460.51 656.508 460.199 656.455 459.888 656.4C459.809 656.386 459.731 656.372 459.653 656.358C459.332 656.301 459.012 656.243 458.693 656.184C458.541 656.156 458.391 656.127 458.239 656.099C457.952 656.045 457.664 655.991 457.377 655.936C457.247 655.911 457.117 655.884 456.987 655.859C456.693 655.801 456.4 655.744 456.107 655.685C455.984 655.66 455.861 655.635 455.738 655.611C455.416 655.545 455.093 655.478 454.771 655.41C454.662 655.388 454.553 655.364 454.445 655.341C454.165 655.282 453.885 655.223 453.606 655.162C453.441 655.127 453.277 655.09 453.113 655.054C452.808 654.987 452.503 654.919 452.198 654.85C452.118 654.831 452.037 654.813 451.956 654.794C451.649 654.724 451.341 654.653 451.033 654.581C450.868 654.542 450.703 654.503 450.537 654.464C450.25 654.396 449.962 654.327 449.675 654.257C449.572 654.232 449.469 654.206 449.365 654.181C449.073 654.109 448.78 654.037 448.488 653.963C448.273 653.909 448.059 653.855 447.845 653.8C447.645 653.749 447.445 653.698 447.245 653.646C447.019 653.587 446.793 653.528 446.567 653.468C446.37 653.416 446.174 653.364 445.978 653.312C445.736 653.247 445.495 653.181 445.253 653.115C445.064 653.064 444.875 653.012 444.687 652.96C444.533 652.918 444.38 652.874 444.227 652.831C443.51 652.63 442.793 652.426 442.078 652.215C441.997 652.191 441.916 652.167 441.835 652.143C441.108 651.927 440.383 651.706 439.658 651.481C439.47 651.422 439.281 651.362 439.092 651.303C438.823 651.218 438.555 651.132 438.286 651.046C438.208 651.021 438.129 650.995 438.05 650.97C437.752 650.874 437.455 650.778 437.157 650.68C436.979 650.621 436.8 650.561 436.621 650.501C435.97 650.284 435.319 650.064 434.669 649.838C434.486 649.775 434.303 649.71 434.12 649.646C433.462 649.415 432.805 649.18 432.15 648.941C431.975 648.877 431.8 648.811 431.625 648.746C431.36 648.648 431.094 648.55 430.829 648.45C430.648 648.382 430.467 648.314 430.286 648.245C430.093 648.172 429.9 648.099 429.707 648.025C429.436 647.92 429.165 647.816 428.894 647.71C428.738 647.649 428.581 647.589 428.425 647.528C428.277 647.469 428.129 647.41 427.982 647.352C427.319 647.089 426.657 646.821 425.997 646.549C425.825 646.478 425.653 646.407 425.482 646.335C424.418 645.893 423.359 645.439 422.303 644.974C422.132 644.899 421.963 644.822 421.792 644.746C421.553 644.64 421.313 644.534 421.074 644.426C420.92 644.356 420.767 644.286 420.613 644.216C420.389 644.114 420.164 644.013 419.941 643.91L419.826 643.858C419.727 643.812 419.628 643.765 419.529 643.719C414.407 641.346 409.38 638.696 404.471 635.769C354.834 606.124 324.502 552.553 324.548 494.773C324.548 491.941 324.799 489.168 325.28 486.475C325.374 485.946 325.48 485.42 325.592 484.898C326.12 482.434 326.84 480.042 327.738 477.739C327.998 477.071 328.274 476.41 328.565 475.756C329.221 474.277 329.95 472.838 330.75 471.445C331.126 470.791 331.517 470.147 331.923 469.514C333.953 466.346 336.354 463.439 339.066 460.854C339.879 460.078 340.721 459.332 341.588 458.616C342.175 458.133 342.773 457.663 343.383 457.207C345.534 455.602 347.828 454.178 350.241 452.956C352.206 451.962 354.249 451.099 356.362 450.385C357.087 450.14 357.821 449.912 358.563 449.701C359.304 449.491 360.053 449.299 360.809 449.124C361.889 448.875 362.983 448.664 364.09 448.491C364.92 448.362 365.758 448.253 366.602 448.167C367.373 448.089 368.149 448.03 368.931 447.989C369.148 447.978 369.365 447.968 369.582 447.96C369.979 447.945 370.378 447.935 370.778 447.93C370.983 447.927 371.189 447.926 371.395 447.926L372.001 447.93C377.447 447.999 382.667 448.994 387.511 450.766C388.229 451.028 388.938 451.309 389.639 451.605C394.894 453.826 399.658 456.977 403.724 460.854C404.266 461.371 404.797 461.9 405.314 462.443C411.517 468.949 415.864 477.242 417.511 486.475C417.58 486.859 417.643 487.245 417.702 487.633C417.91 488.991 418.059 490.368 418.147 491.762C418.159 491.961 418.171 492.16 418.181 492.36C418.221 493.159 418.241 493.963 418.241 494.773L418.254 496.103C418.301 498.574 418.479 501.022 418.779 503.44C421.668 526.737 436.071 547.191 457.262 557.709C457.899 558.025 458.541 558.334 459.191 558.632C459.907 558.961 460.63 559.278 461.361 559.584C461.444 559.619 461.527 559.656 461.611 559.691C462.656 560.124 463.709 560.527 464.767 560.907C464.945 560.971 465.122 561.037 465.3 561.1C465.961 561.331 466.624 561.55 467.288 561.761C492.135 569.643 519.544 563.105 538.194 544.455C558.277 524.371 564.316 494.132 553.428 467.872C542.54 441.613 516.921 424.503 488.511 424.503C487.712 424.503 486.917 424.482 486.128 424.443C486.123 424.442 486.117 424.442 486.112 424.442C485.336 424.403 484.565 424.345 483.8 424.269C483.778 424.267 483.756 424.264 483.734 424.262C483.614 424.25 483.495 424.235 483.376 424.222C483.103 424.192 482.831 424.163 482.56 424.129C482.275 424.093 481.991 424.052 481.708 424.011C481.612 423.997 481.515 423.985 481.419 423.97C481.205 423.937 480.991 423.901 480.778 423.865C480.594 423.835 480.41 423.806 480.227 423.774C480.116 423.754 480.007 423.732 479.897 423.711C479.631 423.662 479.366 423.613 479.102 423.559C478.925 423.523 478.75 423.482 478.574 423.445C478.368 423.4 478.162 423.358 477.957 423.311C477.803 423.275 477.65 423.236 477.496 423.199C477.277 423.147 477.058 423.096 476.84 423.04C476.673 422.997 476.507 422.95 476.34 422.905C476.132 422.85 475.923 422.795 475.716 422.737C475.495 422.674 475.276 422.608 475.057 422.542C474.922 422.502 474.788 422.463 474.654 422.422C474.402 422.344 474.152 422.263 473.903 422.181C473.784 422.142 473.666 422.105 473.548 422.066C473.349 421.999 473.151 421.928 472.953 421.859C472.788 421.8 472.621 421.744 472.456 421.684C472.265 421.614 472.076 421.541 471.886 421.469C471.722 421.407 471.558 421.346 471.396 421.282C471.192 421.202 470.989 421.118 470.786 421.035C470.64 420.976 470.493 420.918 470.347 420.857C470.163 420.779 469.98 420.698 469.797 420.618C469.627 420.544 469.457 420.472 469.288 420.396C469.081 420.302 468.876 420.206 468.67 420.11C468.545 420.051 468.419 419.994 468.294 419.935C468.071 419.828 467.851 419.718 467.63 419.608C467.509 419.548 467.388 419.489 467.268 419.428C467.082 419.334 466.899 419.236 466.715 419.139C466.559 419.057 466.403 418.976 466.248 418.893C466.078 418.801 465.91 418.706 465.741 418.613C465.587 418.526 465.431 418.441 465.278 418.353C465.076 418.238 464.877 418.119 464.677 418.001C464.558 417.931 464.438 417.862 464.32 417.79C464.118 417.669 463.919 417.544 463.719 417.419C463.599 417.344 463.479 417.27 463.36 417.195C463.152 417.062 462.946 416.927 462.74 416.791C462.637 416.723 462.533 416.656 462.43 416.587C462.235 416.456 462.042 416.322 461.849 416.189C461.726 416.103 461.602 416.018 461.48 415.932C461.292 415.799 461.106 415.664 460.92 415.529C460.81 415.448 460.699 415.369 460.59 415.287C460.395 415.143 460.203 414.995 460.011 414.848C459.909 414.77 459.807 414.692 459.705 414.613C459.529 414.476 459.355 414.336 459.181 414.197C459.055 414.095 458.929 413.995 458.804 413.893C458.648 413.765 458.494 413.634 458.34 413.504C458.212 413.396 458.082 413.289 457.955 413.18C457.788 413.036 457.623 412.889 457.457 412.742C457.336 412.635 457.214 412.529 457.094 412.42C456.972 412.309 456.851 412.197 456.73 412.085C456.574 411.941 456.418 411.797 456.264 411.651C456.125 411.519 455.988 411.385 455.851 411.251C455.732 411.136 455.613 411.021 455.495 410.905C455.352 410.763 455.212 410.619 455.071 410.475C454.943 410.345 454.815 410.215 454.689 410.083C454.543 409.932 454.4 409.779 454.257 409.625C454.149 409.509 454.04 409.394 453.933 409.277C453.8 409.131 453.669 408.984 453.537 408.837C453.423 408.709 453.308 408.58 453.195 408.45C453.036 408.269 452.88 408.085 452.724 407.901C452.651 407.815 452.578 407.729 452.506 407.643C452.342 407.446 452.181 407.247 452.02 407.048C451.935 406.943 451.85 406.839 451.767 406.734C451.641 406.574 451.517 406.413 451.393 406.252C451.286 406.114 451.179 405.976 451.074 405.837C450.957 405.681 450.841 405.524 450.726 405.366C450.616 405.217 450.507 405.068 450.399 404.917C450.295 404.772 450.192 404.625 450.09 404.479C449.98 404.322 449.87 404.165 449.762 404.006C449.647 403.838 449.535 403.668 449.423 403.498C449.332 403.361 449.241 403.224 449.152 403.086C449.027 402.894 448.906 402.7 448.784 402.506C448.711 402.39 448.638 402.274 448.566 402.156C448.452 401.972 448.341 401.785 448.23 401.599C448.141 401.449 448.051 401.3 447.964 401.15C447.872 400.99 447.781 400.83 447.691 400.669C447.594 400.498 447.498 400.328 447.404 400.155C447.312 399.988 447.223 399.82 447.133 399.652C447.052 399.5 446.972 399.349 446.893 399.197C446.797 399.012 446.704 398.827 446.611 398.641C446.53 398.48 446.449 398.318 446.37 398.155C446.287 397.985 446.205 397.813 446.124 397.641C446.048 397.48 445.972 397.319 445.898 397.156C445.811 396.967 445.726 396.777 445.642 396.586C445.57 396.424 445.499 396.261 445.429 396.098C445.356 395.927 445.285 395.756 445.214 395.584C445.139 395.402 445.064 395.22 444.99 395.037C444.923 394.869 444.858 394.699 444.792 394.53C444.72 394.344 444.65 394.157 444.58 393.97C444.511 393.782 444.443 393.594 444.376 393.405C444.323 393.256 444.269 393.107 444.217 392.957C444.138 392.729 444.062 392.5 443.987 392.27C443.943 392.138 443.901 392.005 443.859 391.872C443.785 391.641 443.714 391.408 443.644 391.175C443.603 391.04 443.562 390.905 443.523 390.77C443.46 390.556 443.4 390.341 443.341 390.125C443.295 389.958 443.25 389.79 443.205 389.621C443.151 389.415 443.099 389.208 443.047 389C443.007 388.838 442.967 388.676 442.928 388.513C442.881 388.314 442.835 388.114 442.79 387.913C442.748 387.726 442.708 387.537 442.668 387.349C442.628 387.156 442.589 386.962 442.551 386.768C442.516 386.589 442.481 386.409 442.447 386.23C442.41 386.026 442.374 385.823 442.339 385.618C442.309 385.442 442.28 385.265 442.252 385.088C442.217 384.867 442.183 384.645 442.151 384.423C442.127 384.26 442.104 384.097 442.082 383.934C442.055 383.73 442.03 383.527 442.005 383.322C441.98 383.114 441.956 382.904 441.934 382.695C441.757 381.039 441.664 379.359 441.664 377.656C441.664 371.588 442.815 365.79 444.911 360.47C445.13 359.915 445.362 359.367 445.601 358.823C446.889 355.889 448.466 353.111 450.302 350.529C450.737 349.916 451.186 349.315 451.65 348.725C453.272 346.66 455.063 344.736 457.004 342.972C457.38 342.63 457.764 342.297 458.151 341.968C459.191 341.083 460.268 340.239 461.383 339.447C463.257 338.114 465.234 336.918 467.299 335.869C469.619 334.691 472.049 333.698 474.572 332.914C475.172 332.728 475.778 332.556 476.388 332.394C476.897 332.258 477.409 332.127 477.925 332.008C480.414 331.434 482.979 331.059 485.603 330.899C485.967 330.876 486.332 330.858 486.698 330.844C487.096 330.829 487.494 330.819 487.894 330.814C488.099 330.811 488.305 330.81 488.511 330.81L489.864 330.815C491.217 330.826 492.567 330.854 493.914 330.899C494.363 330.913 494.812 330.93 495.261 330.948C501.541 331.207 507.761 331.823 513.895 332.783C515.647 333.058 517.393 333.361 519.131 333.692C520.434 333.939 521.733 334.203 523.028 334.482C524.322 334.76 525.612 335.054 526.898 335.363C530.325 336.189 533.719 337.125 537.073 338.165C537.912 338.425 538.749 338.692 539.582 338.965C540.416 339.239 541.248 339.518 542.076 339.805C542.905 340.092 543.731 340.385 544.555 340.685C545.79 341.134 547.019 341.598 548.241 342.076C548.649 342.236 549.057 342.397 549.463 342.56C551.088 343.211 552.702 343.887 554.304 344.589C555.906 345.291 557.496 346.018 559.073 346.771C561.835 348.087 564.558 349.48 567.24 350.948C568.39 351.578 569.532 352.221 570.666 352.877C572.178 353.752 573.676 354.652 575.159 355.575C575.53 355.806 575.901 356.038 576.27 356.272C577.008 356.739 577.742 357.213 578.473 357.693C579.569 358.412 580.657 359.144 581.736 359.889C582.455 360.386 583.171 360.888 583.882 361.397C585.661 362.668 587.416 363.976 589.145 365.319C590.182 366.124 591.21 366.943 592.229 367.775C595.623 370.545 598.912 373.456 602.086 376.501C603.039 377.415 603.981 378.341 604.912 379.279C605.533 379.904 606.149 380.534 606.76 381.17C607.983 382.442 609.187 383.734 610.37 385.048C612.146 387.019 613.877 389.037 615.562 391.1C619.492 395.913 623.171 400.975 626.57 406.272C627.055 407.029 627.535 407.79 628.009 408.557C628.483 409.323 628.951 410.094 629.413 410.869C629.644 411.257 629.873 411.645 630.101 412.034C630.556 412.813 631.004 413.594 631.445 414.378C632.768 416.731 634.029 419.108 635.228 421.509C636.826 424.709 638.312 427.95 639.689 431.225C640.033 432.044 640.37 432.865 640.7 433.689C640.866 434.1 641.029 434.512 641.191 434.925C641.676 436.163 642.145 437.405 642.599 438.652C643.053 439.898 643.491 441.149 643.913 442.405C644.195 443.241 644.471 444.08 644.739 444.92C645.14 446.18 645.526 447.445 645.897 448.712C646.144 449.557 646.383 450.404 646.616 451.252C646.733 451.676 646.848 452.101 646.961 452.526C647.187 453.375 647.407 454.227 647.619 455.079C647.726 455.506 647.83 455.932 647.933 456.36C648.549 458.921 649.102 461.494 649.593 464.076C650.084 466.659 650.512 469.251 650.878 471.851C651 472.717 651.116 473.584 651.224 474.452C651.278 474.886 651.33 475.321 651.38 475.755C651.734 478.795 652.003 481.844 652.186 484.897C652.212 485.333 652.236 485.769 652.259 486.205C652.373 488.387 652.443 490.571 652.469 492.755C652.48 493.629 652.483 494.502 652.48 495.376C652.473 497.123 652.439 498.871 652.376 500.617C652.336 501.729 652.283 502.84 652.221 503.951C652.185 504.586 652.148 505.221 652.105 505.856C651.259 518.322 648.987 530.72 645.286 542.798C644.751 544.544 644.186 546.284 643.591 548.016C640.669 556.524 637.028 564.853 632.661 572.911L751.792 691.538C760.621 676.258 766.66 659.514 769.588 642.084C776.879 597.503 780.756 552.419 781.251 507.226C781.297 503.076 781.315 498.924 781.304 494.773C781.317 490.145 781.295 485.518 781.237 480.893C780.676 436.179 776.806 391.577 769.592 347.464C759.646 286.879 713.423 239.017 653.801 226.589C653.548 226.536 653.294 226.483 653.04 226.432C651.186 226.055 649.319 225.713 647.44 225.405C598.673 217.285 549.414 213.225 500.161 213.225Z" fill="#986DF8"/>
</g>
<defs>
<clipPath id="clip0_347_280">
<rect width="1000" height="989.54" fill="white"/>
</clipPath>
</defs>
</svg>
