<svg width="1000" height="788" viewBox="0 0 1000 788" fill="none" xmlns="http://www.w3.org/2000/svg">
<g clip-path="url(#clip0_348_562)">
<path d="M500.004 787.586C500.001 787.586 499.997 787.587 499.994 787.587H499.494C499.437 787.587 499.374 787.586 499.345 787.586H499.204C498.801 787.586 498.082 787.585 497.168 787.583C495.406 787.58 492.871 787.572 489.659 787.557C483.223 787.526 474.029 787.466 462.849 787.346C440.548 787.108 410.062 786.63 377.619 785.665C345.408 784.708 310.103 783.238 278.516 780.933C250.94 778.92 213.743 775.534 184.891 767.806C104.381 746.258 41.3484 683.234 19.7877 602.731C19.751 602.594 19.7146 602.457 19.6784 602.32L19.2897 600.846C19.2543 600.712 19.219 600.578 19.1841 600.443C7.86168 556.881 3.86809 501.505 2.05217 466.466C1.0239 446.626 0.514323 428.839 0.260108 416.019C0.132182 409.568 0.0682483 404.299 0.0351748 400.572C0.0188338 398.73 0.00927517 397.235 0.00462826 396.133L0.000925652 394.911C0.000888497 394.902 0.00113649 394.841 0.000925652 394.781C0.000707472 394.719 0.000155252 394.594 0 394.441L0 393.98C0.000155251 393.827 0.000707472 393.702 0.000925652 393.64L0.000925652 393.58C0.00120418 393.444 0.00204139 392.902 0.00462826 392.288C0.00927515 391.186 0.0188336 389.691 0.0351748 387.849C0.0682482 384.122 0.132181 378.853 0.260108 372.402C0.514324 359.582 1.02389 341.796 2.05217 321.955C3.88603 286.57 7.95887 229.821 19.7886 185.691C41.308 105.342 104.138 42.4104 184.42 20.742C184.553 20.706 184.685 20.6683 184.817 20.6328C213.685 12.89 250.927 9.5024 278.516 7.4885C310.103 5.18284 345.407 3.71314 377.619 2.75564C410.061 1.79127 440.547 1.31326 462.849 1.07465C474.029 0.955036 483.223 0.894734 489.659 0.864531C492.871 0.849461 495.406 0.841582 497.168 0.837687C498.082 0.835668 498.801 0.835343 499.204 0.83491C499.235 0.834877 499.269 0.835087 499.345 0.83491C499.374 0.83484 499.437 0.834102 499.494 0.833984H499.994L500.004 0.83491L500.505 0.833984C500.562 0.834101 500.624 0.83484 500.653 0.83491C500.728 0.835087 500.763 0.834877 500.793 0.83491C501.196 0.835343 501.915 0.835668 502.829 0.837687C504.591 0.841582 507.126 0.849459 510.339 0.864531C516.775 0.894734 525.969 0.955037 537.149 1.07465C559.451 1.31326 589.937 1.79127 622.38 2.75564C654.592 3.71314 689.896 5.18284 721.482 7.4885C749.071 9.50231 786.314 12.8895 815.183 20.6328C815.506 20.7196 815.83 20.8088 816.153 20.8984C894.916 42.3726 956.798 103.592 979.184 181.979L979.708 183.843L979.822 184.258L980.085 185.223C980.136 185.411 980.187 185.601 980.237 185.789C992.005 229.837 996.082 286.53 997.924 321.924C998.956 341.755 999.471 359.533 999.73 372.344C999.86 378.772 999.928 384.034 999.963 387.781C999.981 389.675 999.99 391.172 999.994 392.218C999.997 392.791 999.998 393.235 999.999 393.507V393.643C999.999 393.695 1000 393.791 1000 393.906V394.441C1000 394.594 999.999 394.719 999.999 394.781C999.999 394.841 999.999 394.902 999.999 394.911L999.995 396.133C999.991 397.235 999.981 398.73 999.965 400.572C999.932 404.299 999.868 409.568 999.74 416.019C999.486 428.839 998.976 446.625 997.948 466.466C996.113 501.861 992.039 558.616 980.207 602.746L980.206 602.745C958.641 683.246 895.607 746.262 815.107 767.808C814.788 767.893 814.47 767.976 814.151 768.059C785.438 775.607 748.756 778.942 721.483 780.933C689.896 783.238 654.591 784.708 622.38 785.665C589.937 786.63 559.451 787.108 537.149 787.346C525.969 787.466 516.775 787.526 510.339 787.557C507.126 787.572 504.591 787.58 502.829 787.583C501.915 787.585 501.196 787.586 500.793 787.586C500.763 787.586 500.728 787.586 500.653 787.586C500.624 787.586 500.562 787.587 500.505 787.587L500.004 787.586Z" fill="#000813"/>
<path d="M513.201 145.384C513.201 176.189 513.201 176.189 513.2 176.189H512.574C512.149 176.19 511.511 176.192 510.675 176.193C509.002 176.197 506.53 176.203 503.359 176.218C497.016 176.247 487.875 176.305 476.722 176.42C454.403 176.651 424.085 177.113 392.026 178.034C359.916 178.957 326.315 180.334 297.352 182.378C267.491 184.486 245.242 187.146 234.229 190.002C234.223 190.003 234.218 190.005 234.213 190.006C213.562 195.351 197.279 211.094 191.751 231.063C191.75 231.068 191.749 231.074 191.748 231.079C185.034 255.283 181.269 295.073 179.342 331.03C178.403 348.547 177.932 364.402 177.696 375.879C177.579 381.61 177.521 386.232 177.492 389.404C177.478 390.99 177.47 392.213 177.467 393.028C177.465 393.435 177.463 393.742 177.463 393.94V394.48C177.463 394.679 177.465 394.985 177.467 395.393C177.47 396.208 177.478 397.431 177.492 399.017C177.521 402.189 177.579 406.812 177.696 412.543C177.932 424.02 178.403 439.874 179.342 457.391C181.239 492.787 184.916 531.896 191.435 556.197L191.748 557.343L191.751 557.358C197.193 577.015 213.055 592.577 233.247 598.156L234.212 598.414L234.229 598.418C245.242 601.274 267.491 603.934 297.352 606.042C326.315 608.086 359.916 609.464 392.026 610.387C424.085 611.308 454.403 611.77 476.722 612.001C487.875 612.116 497.016 612.174 503.359 612.203C506.53 612.218 509.002 612.224 510.675 612.228C511.511 612.229 512.149 612.231 512.574 612.231H513.2C513.201 612.231 513.201 612.232 513.201 643.037C513.201 673.299 513.199 673.833 513.196 673.843H513.018C512.901 673.843 512.73 673.842 512.506 673.842C512.057 673.841 511.395 673.841 510.534 673.839C508.812 673.835 506.287 673.828 503.061 673.813C496.607 673.784 487.337 673.725 476.04 673.608C453.459 673.375 422.717 672.908 390.134 671.972C357.602 671.037 322.977 669.627 292.713 667.49C263.355 665.418 235.382 662.503 217.738 657.93C175.091 646.893 141.627 614.54 130.206 573.305L129.804 571.831C121.426 540.663 117.596 495.765 115.71 460.579C114.727 442.245 114.237 425.712 113.992 413.765C113.87 407.784 113.808 402.935 113.777 399.563C113.762 397.878 113.754 396.56 113.75 395.653C113.748 395.2 113.748 394.85 113.747 394.607C113.747 394.487 113.746 394.392 113.746 394.326V394.216L145.604 394.211C114.044 394.211 113.749 394.208 113.746 394.205V394.096C113.746 394.029 113.747 393.934 113.747 393.813C113.748 393.571 113.748 393.22 113.75 392.768C113.754 391.861 113.762 390.544 113.777 388.858C113.808 385.487 113.87 380.637 113.992 374.656C114.237 362.709 114.727 346.176 115.71 327.842C117.626 292.098 121.548 246.332 130.206 215.118C141.626 173.888 175.082 141.538 217.722 130.495V130.494C235.365 125.918 263.347 123.004 292.714 120.931C322.978 118.795 357.602 117.385 390.134 116.45C422.717 115.514 453.459 115.046 476.04 114.812C487.337 114.696 496.607 114.637 503.061 114.607C506.287 114.593 508.812 114.586 510.534 114.582C511.395 114.58 512.057 114.58 512.506 114.579C512.73 114.579 512.901 114.578 513.018 114.578H513.196C513.199 114.583 513.201 114.986 513.201 145.384ZM513.896 114.579C514.345 114.58 515.006 114.58 515.867 114.582C517.59 114.586 520.115 114.593 523.342 114.607C529.796 114.637 539.065 114.696 550.362 114.812C572.943 115.046 603.687 115.514 636.271 116.45C668.803 117.385 703.426 118.795 733.69 120.931C763.057 123.003 791.039 125.918 808.682 130.494L808.681 130.495C850.991 141.452 884.264 173.389 895.931 214.169L896.203 215.134L896.207 215.147C904.826 246.342 908.746 292.091 910.67 327.835C911.656 346.167 912.153 362.698 912.403 374.645C912.528 380.624 912.592 385.472 912.625 388.843C912.641 390.528 912.65 391.847 912.654 392.753C912.656 393.206 912.658 393.556 912.658 393.798V394.189C912.638 394.192 911.854 394.195 880.8 394.211L912.658 394.216V394.607C912.658 394.85 912.657 395.2 912.655 395.653C912.651 396.56 912.642 397.878 912.627 399.563C912.596 402.935 912.536 407.784 912.413 413.765C912.168 425.712 911.677 442.245 910.694 460.579C908.779 496.316 904.857 542.073 896.202 573.287C884.786 614.532 851.316 646.892 808.665 657.931L808.664 657.93C791.02 662.503 763.048 665.418 733.691 667.49C703.427 669.627 668.803 671.037 636.271 671.972C603.687 672.908 572.943 673.375 550.362 673.608C539.065 673.725 529.796 673.784 523.342 673.813C520.115 673.828 517.59 673.835 515.867 673.839C515.006 673.841 514.345 673.841 513.896 673.842C513.673 673.842 513.501 673.843 513.385 673.843H513.206C513.203 673.832 513.201 673.269 513.201 643.037C513.201 612.555 513.2 612.235 513.201 612.231H513.828C514.253 612.231 514.89 612.229 515.727 612.228C517.4 612.224 519.871 612.218 523.042 612.203C529.386 612.174 538.527 612.116 549.681 612.001C572 611.77 602.318 611.308 634.377 610.387C666.487 609.464 700.089 608.086 729.052 606.042C758.912 603.934 781.162 601.274 792.175 598.418L792.191 598.414C812.843 593.069 829.126 577.326 834.652 557.359L834.656 557.343C841.37 533.138 845.135 493.348 847.062 457.391C848.001 439.874 848.473 424.02 848.708 412.543C848.826 406.812 848.884 402.189 848.913 399.017C848.928 397.431 848.934 396.208 848.938 395.393C848.939 394.985 848.941 394.679 848.941 394.48V394.173C848.941 394.127 848.941 394.054 848.94 393.955C848.94 393.756 848.939 393.45 848.938 393.043C848.934 392.227 848.925 391.005 848.91 389.419C848.88 386.246 848.819 381.623 848.699 375.891C848.459 364.412 847.983 348.556 847.04 331.037C845.105 295.086 841.342 255.288 834.652 231.063L834.385 230.13C828.615 210.607 812.52 195.268 792.19 190.006C792.185 190.005 792.18 190.003 792.175 190.002C781.162 187.146 758.912 184.486 729.052 182.378C700.089 180.334 666.487 178.957 634.377 178.034C602.318 177.113 572 176.651 549.681 176.42C538.527 176.305 529.386 176.247 523.042 176.218C519.871 176.203 517.4 176.197 515.727 176.193C514.89 176.192 514.253 176.19 513.828 176.189H513.201C513.2 176.184 513.201 175.791 513.201 145.384C513.201 114.977 513.203 114.583 513.206 114.578H513.385C513.501 114.578 513.673 114.579 513.896 114.579ZM423.683 260.918C433.539 255.415 445.683 255.416 455.54 260.918L646.542 367.542C656.399 373.045 662.472 383.215 662.472 394.221C662.471 405.226 656.399 415.397 646.542 420.899L455.54 527.521C445.683 533.024 433.539 533.024 423.683 527.521C413.826 522.019 407.754 511.848 407.754 500.843V287.597C407.754 276.591 413.826 266.421 423.683 260.918ZM471.471 447.488L566.893 394.221L471.471 340.952V447.488ZM912.658 394.211H880.8L912.658 394.194C912.658 394.2 912.658 394.206 912.658 394.211Z" fill="#986DF8"/>
</g>
<defs>
<clipPath id="clip0_348_562">
<rect width="1000" height="786.75" fill="white" transform="translate(0 0.833984)"/>
</clipPath>
</defs>
</svg>
