<svg width="1000" height="1084" viewBox="0 0 1000 1084" fill="none" xmlns="http://www.w3.org/2000/svg">
<g clip-path="url(#clip0_320_892)">
<path d="M747.498 0.891113C841.384 0.891113 917.513 77.0211 917.514 170.905V396.737C968.16 442.864 1000 509.35 1000 583.418V913.402C1000 1007.29 923.871 1083.42 829.985 1083.42H170.015C76.1296 1083.42 0 1007.29 0 913.402V583.418C0 509.354 31.8385 442.866 82.4867 396.737V170.905L82.5002 168.709C83.6771 75.8393 159.345 0.892426 252.499 0.891113H747.498Z" fill="#000813"/>
<path d="M747.498 129.406C770.276 129.406 788.761 147.892 788.761 170.669V466.47C836.829 483.449 871.248 529.273 871.248 583.181V913.165C871.248 935.943 852.762 954.428 829.985 954.428H170.015C147.237 954.428 128.752 935.943 128.752 913.165V583.181C128.752 529.274 163.169 483.447 211.239 466.47V170.669C211.239 147.892 229.723 129.407 252.501 129.406H747.498ZM252.501 541.917C229.723 541.917 211.239 560.402 211.239 583.18V871.901H788.761V583.18C788.761 560.402 770.276 541.917 747.498 541.917H252.501ZM293.764 459.43H706.236V211.932H293.764V459.43ZM417.517 253.158C440.294 253.158 458.741 271.644 458.741 294.421V335.684C458.741 358.462 440.294 376.909 417.517 376.909H376.253C353.476 376.909 334.99 358.462 334.99 335.684V294.421C334.99 271.643 353.476 253.158 376.253 253.158H417.517ZM623.751 253.158C646.529 253.158 665.014 271.643 665.014 294.421V335.684C665.014 358.462 646.529 376.909 623.751 376.909H582.489C559.711 376.909 541.264 358.462 541.264 335.684V294.421C541.265 271.643 559.711 253.158 582.489 253.158H623.751Z" fill="#986DF8"/>
</g>
<defs>
<clipPath id="clip0_320_892">
<rect width="1000" height="1083" fill="white" transform="translate(0 0.654297)"/>
</clipPath>
</defs>
</svg>
