<svg width="1000" height="1001" viewBox="0 0 1000 1001" fill="none" xmlns="http://www.w3.org/2000/svg">
<g clip-path="url(#clip0_344_697)">
<path d="M404.383 54.4256C448.606 10.1314 512.609 -8.52423 573.927 5.45875C573.975 5.46965 574.022 5.48208 574.07 5.49304L671.713 27.4812L671.712 27.4822C736.21 42.0017 787.692 90.2205 806.548 153.357L806.988 154.851L807.227 155.688L807.515 156.711L807.782 157.674C810.482 167.576 812.315 177.58 813.313 187.588C824.266 188.68 835.213 190.773 846.027 193.907C846.042 193.912 846.059 193.917 846.075 193.921C846.117 193.933 846.159 193.945 846.201 193.957C908.624 212.082 956.418 261.91 972.289 324.433L972.659 325.914L972.916 326.989L973.159 328.022H973.157C973.247 328.403 973.338 328.785 973.424 329.168L995.512 427.302L995.667 427.996L995.88 428.972L996.069 429.848C1008.79 490.127 990.174 552.643 946.822 596.161C946.705 596.278 946.59 596.397 946.473 596.514L799.536 743.45C799.434 743.552 799.332 743.654 799.23 743.755C734.95 807.576 638.759 822.364 559.638 784.882C554.089 794.46 547.416 803.59 539.604 812.081L539.603 812.08L538.127 813.686C537.591 814.268 537.048 814.842 536.503 815.412L441.418 918.772C441.36 918.834 441.301 918.896 441.243 918.959C394.538 969.855 329.148 999.281 260.374 1000.81C257.229 1000.9 254.603 1000.89 254.199 1000.89H254.113C149.328 1000.82 55.38 936.469 17.3652 838.931C17.3608 838.92 17.3558 838.909 17.3515 838.898C-20.6374 741.34 4.98823 630.429 82.1166 559.483L214.393 437.76C178.976 359.319 194.255 265.001 257.144 201.663L257.446 201.36L257.452 201.354L257.561 201.247L404.383 54.4256Z" fill="#000813"/>
<path fill-rule="evenodd" clip-rule="evenodd" d="M489.062 139.997C504.11 124.878 525.886 118.539 546.696 123.284L546.695 123.285L644.799 145.378C666.921 150.355 684.568 166.993 690.868 188.759L691.156 189.782C697.016 211.272 690.887 234.272 675.128 250.07L587.763 337.434L663.439 413.112L750.805 325.747C766.852 309.74 790.328 303.668 812.107 310.004C833.541 316.204 849.96 333.405 855.25 354.999L855.493 356.032L855.496 356.041L877.584 454.174L877.798 455.15C882.128 475.663 875.753 496.993 860.871 511.806L860.872 511.807L713.935 658.744C681.892 690.558 631.43 694.112 595.23 667.181L595.222 667.173L595.212 667.167L520.052 610.708C512.923 605.377 508.183 597.444 506.883 588.596L506.882 588.586L506.88 588.577C505.62 579.759 507.927 570.777 513.294 563.642C518.624 556.507 526.6 551.756 535.471 550.53L536.303 550.422C544.904 549.419 553.516 551.794 560.418 556.99L635.571 613.41C644.953 620.428 658.09 619.519 666.454 611.214L671.478 606.225L811.42 466.282L791.918 379.696L707.402 464.178L707.4 464.181C683.103 488.439 643.76 488.439 619.462 464.181L536.683 381.402L536.679 381.396C512.46 357.099 512.46 317.761 536.679 293.464L536.683 293.459L621.2 208.942L534.612 189.441L389.653 334.4C381.585 342.554 380.513 355.262 386.957 364.631L428.309 419.733L428.758 420.334C447.585 445.848 444.105 481.465 420.692 502.912L420.691 502.911L208.703 697.957L208.702 697.956C195.327 710.267 187.544 727.467 187.145 745.666C186.782 763.827 193.834 781.355 206.672 794.192L207.278 794.79C220.06 807.251 237.327 814.079 255.207 813.719C273.404 813.318 290.599 805.534 302.908 792.161L401.061 685.467L401.067 685.462C413.658 671.822 434.906 670.932 448.559 683.493L448.565 683.499C462.204 696.09 463.095 717.338 450.534 730.991L449.049 732.605H449.014L352.344 837.686L352.343 837.685C327.763 864.636 293.134 880.229 256.653 880.88C255.654 880.919 254.637 880.918 253.738 880.918H253.736C198.582 880.88 149.11 847.006 129.091 795.641C109.072 744.233 122.59 685.847 163.187 648.518L371.857 456.497L333.695 405.647L333.689 405.638C306.758 369.438 310.31 318.974 342.125 286.933L342.131 286.927L342.138 286.921L489.062 139.997ZM322.853 370.616C322.892 370.782 322.931 370.949 322.971 371.115C322.91 370.86 322.851 370.604 322.793 370.349L322.853 370.616Z" fill="#986DF8"/>
<path d="M267.929 693.124C278.185 693.124 288.014 697.076 295.414 704.081L296.124 704.768L296.131 704.776L296.139 704.785C307.495 716.181 310.935 733.306 304.759 748.196C298.586 763.114 284.069 772.803 267.929 772.803C251.821 772.802 237.305 763.11 231.134 748.192L231.135 748.191C224.961 733.303 228.402 716.18 239.756 704.785L239.772 704.768C247.245 697.336 257.376 693.124 267.929 693.124Z" fill="#986DF8"/>
<path d="M482.26 616.447C490.475 616.447 498.855 619.181 505.244 624.863C511.726 630.626 515.859 639.163 515.859 650.055C515.859 660.948 511.726 669.485 505.244 675.248C498.855 680.93 490.476 683.664 482.26 683.665C474.044 683.665 465.665 680.93 459.275 675.248C452.793 669.485 448.66 660.948 448.66 650.055C448.66 639.163 452.794 630.626 459.275 624.863C465.665 619.181 474.044 616.447 482.26 616.447Z" fill="#986DF8"/>
</g>
<defs>
<clipPath id="clip0_344_697">
<rect width="1000" height="1000" fill="white" transform="translate(0 0.894531)"/>
</clipPath>
</defs>
</svg>
