<svg width="1000" height="789" viewBox="0 0 1000 789" fill="none" xmlns="http://www.w3.org/2000/svg">
<g clip-path="url(#clip0_320_942)">
<path d="M754.606 0.404297C890.197 0.404355 1000 110.362 1000 245.839V542.852C1000 678.326 890.198 788.286 754.606 788.286H245.394C109.803 788.286 0 678.328 0 542.852V245.839C9.54881e-05 110.364 109.802 0.404336 245.394 0.404297H754.606Z" fill="#000813"/>
<path fill-rule="evenodd" clip-rule="evenodd" d="M128.713 245.778C128.713 181.331 180.947 129.057 245.394 129.057H754.606C819.053 129.057 871.287 181.33 871.287 245.778V542.792C871.287 607.239 819.053 659.513 754.606 659.513H245.394C180.947 659.513 128.713 607.24 128.713 542.792V245.778ZM192.364 341.256V542.792C192.364 572.111 216.114 595.861 245.394 595.861H754.606C783.886 595.861 807.636 572.111 807.636 542.792V341.256H192.364ZM807.636 277.604H192.364V245.778C192.364 216.459 216.114 192.709 245.394 192.709H754.606C783.886 192.709 807.636 216.459 807.636 245.778V277.604ZM538.904 479.14C538.904 438.125 572.161 404.906 613.138 404.906C628.932 404.906 643.571 409.799 655.586 418.194C667.6 409.799 682.24 404.906 698.034 404.906C739.049 404.906 772.268 438.124 772.268 479.14C772.268 520.155 739.05 553.414 698.034 553.414C682.24 553.414 667.6 548.481 655.586 540.087C643.571 548.481 628.932 553.414 613.138 553.414C572.163 553.414 538.904 520.156 538.904 479.14ZM623.759 479.14C623.759 473.292 619.025 468.558 613.137 468.558C607.289 468.558 602.554 473.292 602.554 479.14C602.554 485.028 607.288 489.762 613.137 489.762C619.025 489.762 623.759 485.028 623.759 479.14ZM687.41 479.14C687.41 485.028 692.184 489.762 698.033 489.762C703.881 489.762 708.615 485.028 708.615 479.14C708.615 473.292 703.881 468.558 698.033 468.558C692.185 468.558 687.41 473.292 687.41 479.14Z" fill="#986DF8"/>
</g>
<defs>
<clipPath id="clip0_320_942">
<rect width="1000" height="788" fill="white" transform="translate(0 0.34375)"/>
</clipPath>
</defs>
</svg>
