<svg width="1000" height="890" viewBox="0 0 1000 890" fill="none" xmlns="http://www.w3.org/2000/svg">
<g clip-path="url(#clip0_348_567)">
<path d="M874.003 175.888C874.003 195.944 870.632 215.212 864.431 233.16C902.28 249.035 934.971 275.131 958.836 308.534L959.991 310.166L960.143 310.382L960.293 310.6L960.844 311.393L960.988 311.6L961.131 311.808C984.536 345.853 997.938 385.775 999.814 427.047L999.895 429.014V429.016C999.93 429.955 999.957 430.96 999.974 432.022V432.024C1000.62 473.756 989.443 514.822 967.73 550.473C963.411 557.565 958.709 564.384 953.656 570.904C939.651 670.91 876.624 749.522 803.801 800.257C721.118 857.86 614.681 889.217 503.704 889.703L501.081 889.709C389.16 889.709 281.694 858.314 198.36 800.257C126.044 749.875 63.3864 672.001 48.8041 572.986C30.1145 549.742 16.3027 522.938 8.22934 494.177L8.22841 494.176C-0.436803 463.305 -2.28415 430.921 2.80988 399.27L3.05448 397.786C8.2797 366.671 20.1035 337.03 37.7346 310.858C55.6462 284.268 79.1257 261.889 106.548 245.274L107.836 244.5C134.927 228.336 165.169 218.151 196.536 214.638C221.582 211.833 246.871 213.338 271.315 219.032C300.891 207.119 330.976 198.258 358.979 191.67L363.099 190.714C375.272 187.926 387.503 185.459 399.68 183.303L413.384 117.529L413.843 115.449L414.008 114.75C422.374 79.0588 444.157 47.8967 474.917 27.7845L474.919 27.7827C506.169 7.35181 544.159 -0.0243706 580.751 7.19671L582.492 7.55199L625.429 16.581C647.707 6.31795 672.527 0.564453 698.68 0.564453C795.508 0.564453 874.003 79.0596 874.003 175.888Z" fill="#000813"/>
<path d="M698.679 114.85C732.389 114.85 759.717 142.177 759.717 175.888C759.717 209.598 732.389 236.926 698.679 236.926C671.631 236.926 648.693 219.333 640.682 194.966L575.226 181.202L552.926 288.242C613.239 294.577 671.464 314.213 723.365 345.795C734.187 339.213 746.146 334.574 758.705 332.157C778.949 328.262 799.889 330.306 818.998 338.043C838.107 345.779 854.571 358.878 866.403 375.76L866.954 376.554C878.443 393.265 884.944 412.908 885.685 433.189C885.692 433.389 885.698 433.59 885.701 433.79C886.013 453.957 880.612 473.801 870.121 491.027C862.96 502.784 853.628 512.993 842.682 521.145C842.619 524.178 842.479 527.209 842.264 530.237C841.842 601.784 799.975 663.635 738.471 706.484C676.548 749.624 592.531 775.423 501.08 775.423C409.629 775.423 325.612 749.625 263.689 706.484C202.185 663.635 160.317 601.784 159.894 530.237C159.693 527.39 159.558 524.539 159.49 521.688C152.261 516.581 145.673 510.581 139.892 503.813L139.891 503.814C129.829 492.034 122.448 478.206 118.261 463.29C114.074 448.374 113.181 432.725 115.643 417.43C118.105 402.134 123.864 387.557 132.519 374.708C141.174 361.859 152.52 351.046 165.77 343.017C179.02 334.989 193.857 329.938 209.254 328.214C224.65 326.49 240.237 328.135 254.934 333.033C262.436 335.534 269.615 338.853 276.346 342.914C308.424 324.926 346.971 311.901 385.15 302.919C422.355 294.166 460.653 288.919 494.828 286.939L525.123 141.525L525.277 140.831C526.95 133.693 531.307 127.46 537.459 123.438C543.808 119.286 551.549 117.83 558.974 119.391L650.347 138.605C661.51 124.156 679.007 114.85 698.679 114.85ZM518.172 343.232C483 343.803 439.846 348.755 398.236 358.544C356.078 368.462 317.658 382.845 290.83 401.039C279.758 408.548 264.958 407.369 255.214 398.202C249.965 393.262 243.704 389.523 236.866 387.244C230.028 384.965 222.776 384.2 215.613 385.002C208.674 385.779 201.978 388.009 195.962 391.543L195.382 391.889C189.217 395.624 183.938 400.656 179.911 406.634C175.884 412.611 173.205 419.394 172.059 426.51C170.914 433.626 171.33 440.907 173.278 447.846C175.165 454.569 178.447 460.818 182.906 466.184L183.341 466.701L183.783 467.211C188.386 472.455 194.044 476.673 200.389 479.588C211.257 484.582 217.866 495.815 216.949 507.74C216.457 514.135 216.457 520.56 216.949 526.954C217.005 527.683 217.033 528.414 217.033 529.145C217.033 577.248 245.028 623.84 296.354 659.598C347.574 695.282 419.868 718.28 501.08 718.28C582.293 718.28 654.586 695.282 705.806 659.598C757.132 623.84 785.127 577.248 785.127 529.145C785.127 528.414 785.156 527.683 785.212 526.954C785.703 520.56 785.703 514.135 785.212 507.74C784.319 496.134 790.558 485.146 800.982 479.965C809.385 475.789 816.435 469.319 821.316 461.304C826.141 453.381 828.651 444.267 828.567 434.994C828.167 425.509 825.061 416.335 819.61 408.558C814.105 400.703 806.444 394.609 797.554 391.009C788.663 387.41 778.921 386.459 769.502 388.271C760.083 390.084 751.389 394.582 744.469 401.223C734.733 410.568 719.784 411.826 708.623 404.24C652.339 365.979 586.203 344.797 518.172 343.232ZM377.3 562.205C384.392 561.857 391.361 564.067 396.95 568.414L396.984 568.44C397.002 568.454 397.02 568.468 397.038 568.482L397.18 568.592C426.429 589.951 462.05 600.767 498.231 599.278L498.888 599.258C499.545 599.246 500.202 599.256 500.858 599.29C536.913 601.124 572.532 590.763 601.977 569.886C607.394 565.072 614.371 562.366 621.631 562.277H622.38L623.121 562.296C626.823 562.434 630.472 563.253 633.883 564.717C637.11 566.101 640.072 568.039 642.634 570.445C648.809 576.243 652.092 584.483 651.598 592.938C651.104 601.394 646.883 609.195 640.076 614.235C599.673 644.147 550.268 659.402 500.01 657.463C450.102 659.39 401.035 644.361 360.788 614.861C353.263 609.345 348.905 600.501 349.115 591.173L349.116 591.117L349.144 590.359C349.505 583.008 352.587 576.056 357.791 570.852L358.283 570.371C363.427 565.459 370.174 562.556 377.294 562.206L377.3 562.205ZM371.807 412.283C401.421 412.283 425.429 436.291 425.429 465.905C425.429 495.52 401.421 519.528 371.807 519.528C342.192 519.528 318.184 495.52 318.184 465.905C318.184 436.29 342.192 412.283 371.807 412.283ZM637.64 412.283C667.255 412.283 691.263 436.291 691.263 465.905C691.263 495.52 667.255 519.528 637.64 519.528C608.025 519.528 584.017 495.52 584.017 465.905C584.017 436.29 608.025 412.283 637.64 412.283Z" fill="#986DF8"/>
</g>
<defs>
<clipPath id="clip0_348_567">
<rect width="1000" height="889.14" fill="white" transform="translate(0 0.564453)"/>
</clipPath>
</defs>
</svg>
