<svg width="1000" height="1000" viewBox="0 0 1000 1000" fill="none" xmlns="http://www.w3.org/2000/svg">
<g clip-path="url(#clip0_320_898)">
<path d="M499.603 0.238317C631.501 -0.185761 758.055 51.8077 851.564 144.577L853.767 146.776L853.853 146.862L853.939 146.948L856.316 149.345L856.503 149.535C963.947 258.784 1014.51 410.282 996.387 560.065L993.586 581.741L988.209 607.981C986.618 615.173 984.866 622.351 982.948 629.508L982.947 629.507C937.101 800.736 804.057 934.749 633.409 981.954L633.149 982.026L629.889 982.912L629.653 982.977L629.416 983.041C456.879 1029.28 272.769 979.946 146.476 853.653C53.3793 760.634 0.825366 634.682 0.00960784 503.254L-4.19659e-05 500.148C-0.0109336 460.288 4.74435 420.927 13.942 382.822L26.1578 338.128L42.2372 298.986C66.9818 242.69 102.13 190.913 146.444 146.603L148.649 144.412C211.108 82.7282 288.122 39.1412 371.557 16.9846C421.184 7.3865 448.73 -0.265381 499.603 0.238317ZM883.006 180.237C882.976 180.202 882.953 180.175 882.942 180.162L882.938 180.158C882.947 180.168 882.974 180.2 883.006 180.237Z" fill="#000813"/>
<path d="M500.016 129.135C598.605 128.818 693.192 167.99 762.728 237.842L764.916 240.049C857.138 333.82 892.961 469.492 858.87 596.693C824.813 723.929 725.96 823.51 599.161 858.585L596.161 859.401C467.96 893.761 331.152 857.1 237.311 763.259C167.596 693.623 128.459 599.103 128.459 500.587C128.423 402.035 167.594 307.555 237.275 237.879C306.956 168.203 401.466 129.102 500.016 129.136V129.135ZM509.986 807.578C510.78 807.552 511.573 807.525 512.365 807.494C511.573 807.525 510.78 807.552 509.986 807.578ZM500.092 194.359C418.905 194.394 341.05 226.652 283.639 284.064C226.227 341.476 193.968 419.358 193.968 500.554C193.968 581.749 226.227 659.631 283.639 717.042C341.05 774.454 418.899 806.713 500.092 806.748C581.287 806.783 659.17 774.525 716.617 717.148L717.958 715.798C774.566 658.483 806.357 581.154 806.357 500.556C806.357 419.959 774.566 342.623 717.958 285.309L716.617 283.959C659.169 226.582 581.283 194.324 500.092 194.359ZM717.315 717.847L718.662 716.492C718.801 716.351 718.94 716.208 719.079 716.067C718.494 716.662 717.906 717.256 717.315 717.847ZM519.182 371.547C530.315 366.386 543.408 367.917 553.08 375.545H553.081L679.568 474.928L681.848 476.719L681.574 476.717C688.127 482.855 691.91 491.462 691.91 500.551C691.91 510.559 687.324 519.984 679.501 526.171L679.498 526.173L553.01 625.556L553.008 625.558C543.184 633.235 529.828 634.692 518.616 629.232C507.408 623.773 500.273 612.418 500.273 599.934V545.926L398.818 625.641L398.816 625.643C388.992 633.32 375.636 634.777 364.424 629.317C353.215 623.858 346.081 612.503 346.081 600.019V401.253C346.045 388.733 353.18 377.342 364.461 371.883L364.989 371.632C376.123 366.471 389.216 368.001 398.888 375.63L500.273 455.289V401.168C500.238 388.649 507.373 377.257 518.653 371.798L519.182 371.547ZM365.87 628.901C366.184 629.04 366.499 629.172 366.815 629.3C366.501 629.173 366.188 629.042 365.877 628.904L365.87 628.901ZM454.039 500.636L410.313 534.975L454.04 500.636L410.313 466.297L454.039 500.636ZM564.505 534.89V534.891L608.231 500.552L608.23 500.551L564.505 534.89ZM411.301 532.943L452.439 500.636L411.301 468.328V532.943ZM565.493 532.857L606.631 500.551L565.493 468.244V532.857ZM129.475 505.171C129.476 505.236 129.477 505.301 129.478 505.366C129.467 504.54 129.459 503.715 129.454 502.889L129.475 505.171ZM690.728 497.067C690.724 497.026 690.721 496.985 690.717 496.944C690.709 496.875 690.698 496.807 690.69 496.738C690.703 496.848 690.716 496.957 690.728 497.067ZM690.626 496.242C690.613 496.145 690.6 496.048 690.586 495.951C690.6 496.048 690.613 496.145 690.626 496.242ZM683.436 480.108C683.616 480.322 683.794 480.536 683.969 480.753C683.794 480.536 683.616 480.321 683.436 480.108ZM683.343 479.999C683.194 479.824 683.042 479.65 682.889 479.478C683.042 479.651 683.194 479.824 683.343 479.999ZM682.75 479.323C682.572 479.126 682.392 478.931 682.209 478.738C682.393 478.931 682.572 479.126 682.75 479.323ZM784.925 263.634C784.912 263.619 784.899 263.603 784.886 263.587C784.824 263.512 784.761 263.438 784.698 263.363C784.774 263.454 784.85 263.544 784.925 263.634ZM783.196 261.572C783.102 261.46 783.008 261.348 782.914 261.236C782.875 261.19 782.835 261.145 782.796 261.099C782.93 261.257 783.063 261.414 783.196 261.572ZM318.035 253.198C317.313 253.73 316.593 254.264 315.875 254.803H315.876C316.593 254.265 317.313 253.73 318.035 253.198ZM770.636 247.439C772.042 248.942 773.435 250.456 774.813 251.979L772.735 249.702C772.039 248.945 771.339 248.191 770.636 247.439ZM227.04 249.987C226.558 250.51 226.079 251.035 225.601 251.561C226.079 251.035 226.558 250.51 227.04 249.987ZM236.35 240.21C235.342 241.23 234.341 242.256 233.347 243.287C234.874 241.705 236.416 240.135 237.974 238.578L236.35 240.21ZM336.023 240.914C334.963 241.583 333.908 242.259 332.856 242.942L334.437 241.923C334.965 241.585 335.493 241.248 336.023 240.914ZM449.157 197.641C448.983 197.67 448.809 197.701 448.635 197.731C449.428 197.596 450.222 197.463 451.016 197.334L449.157 197.641Z" fill="#986DF8"/>
</g>
<defs>
<clipPath id="clip0_320_898">
<rect width="1000" height="999" fill="white" transform="translate(0 0.654297)"/>
</clipPath>
</defs>
</svg>
