<svg width="1000" height="813" viewBox="0 0 1000 813" fill="none" xmlns="http://www.w3.org/2000/svg">
<g clip-path="url(#clip0_278_558)">
<path d="M815.575 0L817.8 0.0136071C863.735 0.567645 907.534 18.26 940.887 49.0884L942.493 50.5901L943.139 51.2063L943.711 51.7554L944.565 52.5854C944.566 52.5869 944.567 52.5889 944.569 52.5903L944.57 52.5893L945.102 53.1113L945.963 53.9636L946.271 54.2717C979.943 88.1505 999.386 133.96 999.986 182.13C999.99 182.435 999.994 182.74 999.995 183.044L999.999 183.851C1000 184.043 1000 184.234 1000 184.426V628.37L999.985 630.666C999.386 678.828 979.947 724.643 946.269 758.526L945.729 759.066C911.852 792.737 866.04 812.182 817.871 812.781L815.575 812.796H184.426C135.779 812.796 89.3734 793.555 55.0289 759.808C54.8088 759.594 54.5893 759.378 54.3709 759.162C54.3376 759.129 54.3031 759.097 54.2698 759.064L54.2708 759.063C54.0902 758.883 53.9088 758.705 53.7294 758.524C19.5207 724.106 3.31703e-05 677.373 0 628.37V184.426L0.014579 182.13C0.613974 133.968 20.0531 88.1527 53.7313 54.2698L54.2727 53.7313C54.306 53.6982 54.3395 53.6653 54.3728 53.6322C54.5899 53.4171 54.8082 53.2032 55.0269 52.9898C89.3691 19.2447 135.775 1.03674e-06 184.426 0H815.575Z" fill="#000813"/>
<path d="M815.575 119.432C832.258 119.432 848.301 125.882 860.389 137.325L860.961 137.874L860.979 137.893L861.512 138.414L861.563 138.465C873.509 150.485 880.354 166.694 880.565 183.62L880.569 184.427V628.37C880.569 645.587 873.7 662.121 861.563 674.332L861.536 674.358C849.326 686.495 832.792 693.366 815.575 693.366H184.426C167.209 693.366 150.675 686.496 138.464 674.358L138.437 674.332C126.301 662.121 119.431 645.588 119.431 628.37V184.427C119.431 167.21 126.3 150.676 138.437 138.465L138.464 138.439C150.675 126.302 167.209 119.432 184.426 119.432H815.575ZM871.124 651.368H871.125H871.124ZM185.236 627.56H814.764V265.467H185.236V627.56ZM530.281 369.683C543.123 356.916 563.951 356.939 576.764 369.752C589.572 382.56 589.599 403.379 576.845 416.221C576.818 416.249 576.791 416.278 576.763 416.306L546.523 446.515L576.763 476.724C576.786 476.747 576.809 476.772 576.832 476.796C589.599 489.637 589.577 510.465 576.764 523.278C563.946 536.096 543.106 536.113 530.266 523.331C530.247 523.313 530.229 523.296 530.21 523.277L500.001 493.037L469.792 523.277C469.774 523.296 469.754 523.313 469.736 523.331C456.896 536.114 436.056 536.096 423.238 523.278C410.425 510.465 410.402 489.637 423.17 476.796C423.192 476.772 423.215 476.747 423.239 476.724L453.476 446.515L423.239 416.306C423.211 416.278 423.185 416.249 423.158 416.221C410.403 403.379 410.429 382.561 423.238 369.752C436.05 356.939 456.879 356.916 469.72 369.683C469.744 369.706 469.769 369.729 469.792 369.753L500.001 399.99L530.21 369.753L530.281 369.683ZM559.314 526.109C559.287 526.115 559.261 526.122 559.234 526.128C559.281 526.118 559.328 526.106 559.375 526.095C559.355 526.1 559.334 526.104 559.314 526.109ZM559.905 525.972C559.891 525.975 559.876 525.98 559.862 525.983C559.886 525.977 559.911 525.97 559.935 525.964C559.925 525.966 559.915 525.969 559.905 525.972ZM560.488 525.823C560.465 525.829 560.441 525.834 560.417 525.84C560.441 525.834 560.465 525.829 560.489 525.823C560.697 525.767 560.904 525.708 561.111 525.647L560.488 525.823ZM185.236 199.663H814.764V185.237H185.236V199.663Z" fill="#986DF8"/>
</g>
<defs>
<clipPath id="clip0_278_558">
<rect width="1000" height="813" fill="white"/>
</clipPath>
</defs>
</svg>
