<svg width="1000" height="1001" viewBox="0 0 1000 1001" fill="none" xmlns="http://www.w3.org/2000/svg">
<g clip-path="url(#clip0_320_889)">
<path d="M743.483 0.910156C885.242 0.910231 999.994 115.671 999.994 257.424V626.491C999.994 759.589 898.815 868.847 769.196 881.732C750.332 950.567 687.517 1000.89 612.558 1000.91L612.559 1000.91L387.478 1000.94C313.662 1000.94 249.846 951.182 230.794 881.729C100.879 868.781 0.00593882 758.828 0.00585938 626.491V257.424C0.00592538 115.642 114.818 0.910218 256.517 0.910156H743.483Z" fill="#000813"/>
<path d="M803.818 551.771V257.442C803.818 224.137 776.8 197.119 743.494 197.119H256.523C223.217 197.119 196.199 224.137 196.199 257.442V551.771H803.818ZM803.818 626.507V619.317H196.201V626.507C196.201 659.812 223.219 686.379 256.524 686.83L500.01 686.798H743.496C776.802 686.346 803.818 659.812 803.818 626.507ZM871.299 257.44V626.507C871.299 697.179 814.135 754.308 743.498 754.308H533.77V804.701H612.535C631.429 804.701 646.291 820.016 646.291 838.457C646.291 857.351 631.428 872.214 612.535 872.214L500.012 872.246H387.488C369.046 872.246 353.732 857.382 353.732 838.49C353.732 820.047 369.047 804.733 387.488 804.733H466.254V754.308H256.526C185.853 754.308 128.725 696.693 128.725 626.507V257.44C128.725 186.767 185.888 129.639 256.526 129.639H743.498C814.17 129.639 871.299 186.77 871.299 257.44Z" fill="#986DF8"/>
</g>
<defs>
<clipPath id="clip0_320_889">
<rect width="1000" height="1000" fill="white" transform="translate(0 0.925781)"/>
</clipPath>
</defs>
</svg>
