<svg width="1000" height="1284" viewBox="0 0 1000 1284" fill="none" xmlns="http://www.w3.org/2000/svg">
<g clip-path="url(#clip0_360_570)">
<path d="M392.42 237.74L510.904 61.4971C511.323 60.8747 512.225 60.837 512.693 61.4229L613.771 187.926C614.108 188.348 614.702 188.465 615.176 188.204L756.918 109.919C757.575 109.556 758.394 109.936 758.543 110.671L823.913 433.432C823.97 433.711 824.132 433.958 824.365 434.121L999.521 556.547C1000.5 557.231 999.858 558.765 998.685 558.55L797.166 521.539C796.463 521.41 795.823 521.969 795.856 522.684L799.452 598.776C799.477 599.296 799.859 599.729 800.371 599.818L892.276 615.827C893.092 615.969 893.47 616.921 892.976 617.585L808.127 731.373C807.974 731.578 807.897 731.83 807.908 732.085L810.535 793.422C810.539 793.503 810.551 793.584 810.572 793.662L874.185 1031C874.28 1031.36 874.191 1031.74 873.947 1032.02L824.769 1088.19C824.585 1088.4 824.487 1088.67 824.494 1088.95L826.569 1171.99C826.587 1172.7 825.941 1173.25 825.243 1173.11L636.772 1135.68C636.086 1135.55 635.446 1136.07 635.446 1136.77L635.445 1187.94C635.446 1188.24 635.567 1188.52 635.782 1188.73L731.424 1281.76C732.138 1282.45 731.646 1283.66 730.649 1283.66H518.629C518.016 1283.66 517.518 1283.17 517.518 1282.55V1112.92C517.518 1112.39 517.144 1111.93 516.624 1111.83L424.946 1093.62C424.345 1093.5 423.76 1093.89 423.641 1094.49L408.511 1170.69C408.453 1170.99 408.515 1171.29 408.685 1171.54L484.378 1281.41C484.943 1282.23 484.225 1283.32 483.247 1283.13L392.421 1265.09V1283.66H0V0H392.421L392.42 237.74ZM619.4 485.434C619.406 485.743 620.467 541.463 682.83 553.847C745.221 566.236 765.319 515.37 765.412 515.133L749.469 511.89C745.389 530.743 726.93 542.914 707.936 539.143C688.833 535.349 676.391 516.862 680.024 497.765L619.4 485.434ZM458.941 450.311C458.942 450.571 459.225 506.343 521.443 519.572C583.621 532.792 604.416 482.278 604.539 481.977L588.641 478.519C584.307 497.315 565.685 509.235 546.743 505.208C527.694 501.157 515.503 482.504 519.394 463.458L458.941 450.311Z" fill="white"/>
</g>
<defs>
<clipPath id="clip0_360_570">
<rect width="1000" height="1283.66" fill="white"/>
</clipPath>
</defs>
</svg>
