<svg width="1000" height="1284" viewBox="0 0 1000 1284" fill="none" xmlns="http://www.w3.org/2000/svg">
<g clip-path="url(#clip0_360_78)">
<path d="M392.42 237.739L510.904 61.4961C511.323 60.8741 512.225 60.8364 512.693 61.4219L613.771 187.925C614.108 188.348 614.702 188.465 615.176 188.203L756.918 109.918C757.574 109.556 758.394 109.935 758.543 110.67L823.913 433.431C823.97 433.71 824.132 433.957 824.365 434.12L999.521 556.546C1000.5 557.23 999.858 558.764 998.685 558.549L797.166 521.538C796.463 521.409 795.823 521.968 795.856 522.683L799.452 598.775C799.477 599.295 799.859 599.728 800.371 599.817L892.276 615.826C893.092 615.968 893.47 616.92 892.976 617.584L808.127 731.372C807.974 731.577 807.897 731.829 807.908 732.084L810.535 793.421C810.539 793.502 810.551 793.583 810.572 793.661L874.185 1031C874.28 1031.36 874.191 1031.74 873.947 1032.02L824.769 1088.19C824.585 1088.4 824.487 1088.67 824.494 1088.95L826.569 1171.99C826.587 1172.7 825.941 1173.25 825.243 1173.11L636.772 1135.68C636.086 1135.55 635.447 1136.07 635.446 1136.77L635.445 1187.94C635.445 1188.24 635.567 1188.52 635.782 1188.73L731.424 1281.76C732.138 1282.45 731.646 1283.66 730.649 1283.66H518.629C518.016 1283.66 517.518 1283.17 517.518 1282.55V1112.91C517.517 1112.38 517.143 1111.93 516.624 1111.82L424.946 1093.62C424.345 1093.5 423.76 1093.89 423.641 1094.49L408.511 1170.69C408.452 1170.98 408.515 1171.29 408.685 1171.54L484.378 1281.41C484.943 1282.23 484.225 1283.32 483.247 1283.13L392.421 1265.09V1283.66H0V0H392.421L392.42 237.739ZM619.4 485.433C619.405 485.677 620.43 541.455 682.83 553.846C745.264 566.243 765.346 515.299 765.412 515.132L749.47 511.889C745.39 530.743 726.931 542.914 707.936 539.143C688.833 535.349 676.391 516.861 680.025 497.764L619.4 485.433ZM458.941 450.31C458.942 450.488 459.179 506.333 521.443 519.571C583.653 532.798 604.436 482.226 604.539 481.976L588.641 478.518C584.307 497.314 565.685 509.235 546.743 505.208C527.693 501.157 515.502 482.503 519.394 463.457L458.941 450.31Z" fill="#000813"/>
</g>
<defs>
<clipPath id="clip0_360_78">
<rect width="1000" height="1283.66" fill="white"/>
</clipPath>
</defs>
</svg>
