<svg width="1000" height="1153" viewBox="0 0 1000 1153" fill="none" xmlns="http://www.w3.org/2000/svg">
<g clip-path="url(#clip0_348_550)">
<path d="M486.094 19.6693C525.368 -3.00434 573.15 -5.71205 614.804 12.5237L615.787 12.958L615.789 12.959C658.684 32.1236 689.395 71.1435 697.969 117.293L698.167 118.385L702.276 141.501C741.132 119.961 787.929 117.679 828.82 135.581L829.803 136.015L829.805 136.016C872.7 155.181 903.411 194.201 911.985 240.35L912.183 241.442L997.788 722.975L998.021 724.318C1007.5 780.711 982.414 837.338 934.282 868.216L933.131 868.946L515.808 1131.12C475.418 1156.49 425.029 1160.03 381.489 1140.56L381.488 1140.56C337.947 1121.08 306.998 1081.16 298.988 1034.14L295.208 1011.95C256.015 1033.75 208.677 1035.93 167.473 1017.5L167.472 1017.5C123.931 998.025 92.9815 958.104 84.9716 911.083L2.0343 424.197C-7.72912 366.88 18.2204 309.37 67.642 278.76L482.296 21.9405C482.806 21.625 483.317 21.3132 483.832 21.0058L484.592 20.551L486.094 19.6693Z" fill="#000813"/>
<path d="M543.233 118.647C551.148 114.077 560.794 113.563 569.17 117.305C577.817 121.169 583.988 129.066 585.646 138.391L619.209 327.183L756.488 242.158L757.249 241.704C765.164 237.134 774.81 236.62 783.186 240.362C791.833 244.226 798.004 252.123 799.662 261.448L885.268 742.981C887.304 754.438 882.19 765.985 872.336 772.175L455.013 1034.35C446.935 1039.42 436.858 1040.13 428.149 1036.23C419.441 1032.34 413.251 1024.35 411.649 1014.95L379.201 824.465L240.997 911.289C232.919 916.363 222.842 917.071 214.133 913.177C205.425 909.282 199.235 901.297 197.633 891.893L114.696 405.008C112.743 393.546 117.933 382.044 127.818 375.921L542.472 119.101L543.233 118.647ZM629.972 387.73L671.252 619.924C673.288 631.381 668.174 642.928 658.32 649.118L431.563 791.57L460.803 963.225L825.638 734.029L750.773 312.913L629.972 387.73ZM174.256 414.372L246.787 840.168L368.818 763.506L328.712 528.065C326.759 516.603 331.949 505.101 341.834 498.978L566.927 359.564L536.757 189.856L174.256 414.372ZM388.272 537.429L421.18 730.611L611.622 610.972L577.691 420.112L388.272 537.429Z" fill="#DFFF03"/>
</g>
<defs>
<clipPath id="clip0_348_550">
<rect width="1000" height="1152.47" fill="white" transform="translate(0 0.533203)"/>
</clipPath>
</defs>
</svg>
