<svg width="1000" height="1077" viewBox="0 0 1000 1077" fill="none" xmlns="http://www.w3.org/2000/svg">
<g clip-path="url(#clip0_344_462)">
<path d="M886.37 185.207C886.37 223.883 874.357 260.422 851.795 290.062C873.86 316.456 888.234 349.709 891.166 386.587L891.167 386.596L893.129 411.304L923.368 441.429C972.71 490.491 1000.18 557.206 999.999 626.538L999.998 626.537C999.689 767.967 887.031 882.924 746.584 887.063C747.111 892.192 747.416 897.387 747.482 902.64L747.496 904.86C747.496 999.717 670.639 1076.57 575.782 1076.57H424.276C329.419 1076.57 252.562 999.717 252.562 904.86L252.576 902.64C252.643 897.389 252.946 892.196 253.474 887.069C151.031 884.119 59.328 821.387 19.8892 726.095C-20.4276 628.76 1.65079 516.67 76.1223 441.987L106.644 411.232L110.798 359.881L110.819 359.639C119.102 262.097 163.599 171.221 235.462 104.844L237.151 103.292C308.867 37.8247 402.345 1.36232 499.412 0.866719L499.722 0.864746H500.032C544.083 0.865061 584.25 17.4433 614.642 44.6995C645.862 22.8131 681.715 13.5058 714.656 13.5058C753.1 13.5058 795.51 26.1804 829.893 56.7349C866.509 89.2739 886.37 135.475 886.37 185.207Z" fill="#000813"/>
<path d="M575.78 854.358C603.694 854.358 626.282 876.946 626.282 904.86C626.282 932.774 603.694 955.362 575.78 955.362H424.274C396.36 955.362 373.772 932.774 373.772 904.86C373.772 876.946 396.36 854.358 424.274 854.358H575.78ZM500.028 122.077C527.942 122.077 550.53 144.665 550.53 172.579C550.53 200.492 527.942 223.081 500.028 223.081C412.387 223.434 339.494 290.652 332.096 377.996L327.066 442.011C323.465 486.397 304.231 528.071 272.766 559.536L233.607 598.843C222.559 609.891 219.255 626.562 225.222 641.061C231.238 655.511 245.344 664.98 261.027 664.98H739.016C754.7 665.029 768.904 655.61 774.921 641.111C780.938 626.61 777.633 609.94 766.537 598.843V598.794L727.279 559.536C695.617 528.17 676.135 486.545 672.338 442.159L669.329 404.282C667.11 376.368 687.923 351.955 715.787 349.736C743.701 347.467 768.114 368.281 770.333 396.194L773.342 434.071C775.019 454.538 783.995 473.773 798.592 488.223L837.9 527.382C864.187 553.52 878.883 589.128 878.785 626.216C878.646 703.346 816.155 765.82 739.02 765.967H261.031C204.469 765.967 153.473 731.938 131.872 679.711C110.22 627.439 122.156 567.319 162.153 527.371L201.163 488.064C215.811 473.613 224.787 454.428 226.415 433.911L231.593 369.896C237.314 302.533 268.047 239.75 317.703 193.884C367.36 148.019 432.412 122.422 500.028 122.077ZM664.152 185.207C664.152 117.888 765.155 117.888 765.156 185.207C765.156 252.526 664.152 252.526 664.152 185.207Z" fill="#DFFF03"/>
</g>
<defs>
<clipPath id="clip0_344_462">
<rect width="1000" height="1075.71" fill="white" transform="translate(0 0.864746)"/>
</clipPath>
</defs>
</svg>
