<svg width="1000" height="1023" viewBox="0 0 1000 1023" fill="none" xmlns="http://www.w3.org/2000/svg">
<g clip-path="url(#clip0_278_474)">
<path d="M831.244 114.748C831.256 114.749 831.266 114.748 831.275 114.748C831.345 114.751 831.416 114.755 831.487 114.757C831.52 114.759 831.552 114.759 831.583 114.76C831.477 114.756 831.364 114.751 831.246 114.747L831.244 114.748ZM910.855 788.068C910.035 917.606 804.817 1022.31 675.088 1022.32H324.983C195.319 1022.31 90.0388 917.636 89.2181 788.069L89.2136 786.543V439.307C36.5707 409.846 0.829745 353.844 0.0145321 289.505L0 287.256C0 191.077 77.9408 113.137 174.118 113.137H221.305C253.895 46.4201 322.42 0.496094 401.602 0.496094H598.4L600.884 0.511744C652.172 1.14649 701.471 21.4083 738.418 57.4451L740.196 59.2013L740.198 59.2035C756.069 75.0748 769.007 93.3331 778.659 113.137H825.884L828.136 113.151C923.277 114.358 1000 191.832 1000 287.256L999.985 289.504C999.171 353.812 963.463 409.794 910.859 439.267V786.543L910.855 788.068Z" fill="#000813"/>
<path d="M736.74 361.048C757.055 361.048 773.497 377.488 773.497 397.804V786.545C773.497 840.921 729.463 884.955 675.087 884.955H324.984C270.643 884.955 226.575 840.922 226.575 786.545V397.804C226.576 377.487 243.051 361.048 263.332 361.048C273.092 361.048 282.428 364.888 289.323 371.818H289.322C296.212 378.709 300.089 388.041 300.089 397.804V786.545C300.089 800.323 311.239 811.442 324.984 811.442H675.087C688.832 811.442 699.984 800.323 699.984 786.545V397.804C699.984 377.487 716.46 361.048 736.74 361.048ZM771.97 397.804V786.545C771.97 786.963 771.968 787.381 771.962 787.798L771.971 786.545V397.804C771.971 397.516 771.966 397.228 771.959 396.942C771.966 397.228 771.97 397.516 771.97 397.804ZM403.116 449.128C423.431 449.128 439.873 465.568 439.873 485.884V731.598C439.873 751.914 423.431 768.355 403.116 768.355C382.8 768.355 366.36 751.914 366.36 731.598V485.884C366.36 465.568 382.8 449.128 403.116 449.128ZM500 449.128C520.316 449.128 536.757 465.568 536.757 485.884V731.598C536.757 751.914 520.316 768.355 500 768.355C479.684 768.355 463.244 751.914 463.244 731.598V485.884C463.244 465.568 479.685 449.128 500 449.128ZM596.883 449.128C617.199 449.128 633.64 465.568 633.64 485.884V731.598C633.64 751.914 617.199 768.355 596.883 768.355C576.568 768.355 560.127 751.914 560.127 731.598V485.884C560.127 465.568 576.568 449.128 596.883 449.128ZM411.926 765.721C411.363 765.865 410.794 765.997 410.221 766.114L411.077 765.928C411.361 765.863 411.644 765.793 411.926 765.721ZM508.81 765.721V765.722V765.721ZM613.683 762.579C613.434 762.715 613.182 762.849 612.929 762.978C613.436 762.719 613.935 762.447 614.427 762.165L613.683 762.579ZM771.956 396.82C771.948 396.554 771.939 396.289 771.926 396.025C771.939 396.289 771.948 396.554 771.956 396.82ZM771.255 390.7C771.604 392.409 771.83 394.164 771.922 395.955C771.907 395.666 771.89 395.378 771.869 395.091C771.755 393.599 771.549 392.133 771.256 390.699L771.255 390.7ZM770.636 388.153C770.546 387.837 770.45 387.523 770.352 387.21C770.45 387.523 770.546 387.837 770.636 388.153ZM770.241 386.868C770.201 386.745 770.163 386.621 770.121 386.499C770.094 386.417 770.064 386.336 770.035 386.254C770.106 386.458 770.174 386.662 770.241 386.868ZM769.925 385.938C769.895 385.853 769.866 385.768 769.835 385.684C769.771 385.508 769.703 385.334 769.636 385.16C769.735 385.418 769.831 385.677 769.925 385.938ZM769.578 385.009C769.457 384.699 769.334 384.39 769.205 384.084C769.334 384.39 769.457 384.699 769.578 385.009ZM288.24 372.895C288.651 373.306 289.051 373.728 289.44 374.157C289.246 373.943 289.05 373.73 288.851 373.521C288.65 373.31 288.447 373.101 288.241 372.895C288.034 372.687 287.825 372.483 287.614 372.281L288.24 372.895ZM283.589 368.97C283.321 368.781 283.05 368.597 282.778 368.417C283.05 368.597 283.321 368.781 283.589 368.97ZM282.512 368.243C282.392 368.166 282.274 368.087 282.154 368.011C282.073 367.959 281.99 367.91 281.908 367.859C282.111 367.985 282.312 368.113 282.512 368.243ZM281.68 367.718C281.593 367.665 281.508 367.61 281.421 367.558C281.286 367.477 281.149 367.4 281.013 367.321C281.236 367.451 281.459 367.583 281.68 367.718ZM280.778 367.185C280.495 367.023 280.21 366.864 279.923 366.711C280.21 366.864 280.495 367.023 280.778 367.185ZM598.399 137.859C615.143 137.86 631.221 144.487 643.068 156.334C654.915 168.18 661.579 184.257 661.579 201.038V250.5H825.882C846.197 250.5 862.638 266.942 862.638 287.257C862.638 307.537 846.198 324.013 825.882 324.013H174.119C153.803 324.013 137.362 307.537 137.362 287.257C137.362 266.941 153.803 250.5 174.119 250.5H338.422V201.038C338.422 166.134 366.733 137.859 401.602 137.859H598.399ZM861.112 287.257C861.112 287.767 861.098 288.275 861.077 288.78C861.085 288.575 861.096 288.371 861.101 288.166L861.112 287.257ZM171.737 252.107C171.926 252.095 172.115 252.082 172.305 252.073L172.318 252.072C172.124 252.081 171.93 252.094 171.737 252.107ZM826.973 252.045C826.913 252.043 826.852 252.04 826.792 252.038L826.652 252.036C826.759 252.038 826.866 252.041 826.973 252.045ZM410.409 252.027H410.41V209.846H410.409V252.027ZM411.936 250.5H588.066V211.373H411.936V250.5ZM350.903 165.95V165.951C351.044 165.748 351.187 165.546 351.33 165.344V165.343C351.187 165.544 351.044 165.747 350.903 165.95Z" fill="#DFFF03"/>
</g>
<defs>
<clipPath id="clip0_278_474">
<rect width="1000" height="1022" fill="white" transform="translate(0 0.496094)"/>
</clipPath>
</defs>
</svg>
