<svg width="1000" height="1075" viewBox="0 0 1000 1075" fill="none" xmlns="http://www.w3.org/2000/svg">
<g clip-path="url(#clip0_347_248)">
<path d="M870 370.91C870 167.136 703.774 0.910164 500 0.910156C296.226 0.910156 130 167.136 130 370.91V433.274C56.6586 464.012 5.00002 536.548 5 620.91V870.91C5 983.018 96.2256 1074.24 208.333 1074.24H791.667C903.774 1074.24 995 983.018 995 870.91V620.91C995 536.091 942.781 463.226 868.807 432.778C869.609 426.007 870 419.254 870 412.577V370.91Z" fill="#000813"/>
<path d="M791.667 537.576H333.333V370.909C333.333 279.243 408.333 204.243 500 204.243C591.667 204.243 666.667 279.243 666.667 370.909V412.576C666.667 437.576 683.333 454.243 708.333 454.243C733.333 454.243 750 437.576 750 412.576V370.909C750 233.409 637.5 120.909 500 120.909C362.5 120.909 250 233.409 250 370.909V537.576H208.333C162.5 537.576 125 575.076 125 620.909V870.909C125 916.743 162.5 954.243 208.333 954.243H791.667C837.5 954.243 875 916.743 875 870.909V620.909C875 575.076 837.5 537.576 791.667 537.576ZM208.333 870.909V620.909H791.667V870.909H208.333Z" fill="#DFFF03"/>
</g>
<defs>
<clipPath id="clip0_347_248">
<rect width="1000" height="1073.33" fill="white" transform="translate(0 0.910156)"/>
</clipPath>
</defs>
</svg>
