<svg width="1000" height="1001" viewBox="0 0 1000 1001" fill="none" xmlns="http://www.w3.org/2000/svg">
<g clip-path="url(#clip0_344_454)">
<path d="M500 0.724609C776.146 0.724609 1000 224.579 1000 500.725C1000 776.87 776.146 1000.72 500 1000.72C223.854 1000.72 0 776.87 0 500.725C0 224.579 223.854 0.724609 500 0.724609Z" fill="#000813"/>
<path fill-rule="evenodd" clip-rule="evenodd" d="M500.001 795.351C662.718 795.351 794.627 663.442 794.627 500.724C794.627 338.007 662.718 206.098 500.001 206.098C337.284 206.098 205.375 338.007 205.375 500.724C205.375 663.442 337.284 795.351 500.001 795.351ZM500.001 879.512C709.203 879.512 878.789 709.926 878.789 500.724C878.789 291.522 709.203 121.937 500.001 121.937C290.799 121.937 121.213 291.522 121.213 500.724C121.213 709.926 290.799 879.512 500.001 879.512ZM495.069 353.431C462.911 353.431 436.87 379.473 436.87 411.63V426.111C436.87 449.352 418.009 468.212 394.769 468.212C371.528 468.212 352.707 449.352 352.707 426.111V411.63C352.707 332.992 416.43 269.226 495.071 269.226H497.122C566.685 269.226 625.678 320.284 635.698 389.095C645.049 453.45 608.868 515.832 548.301 539.58L538.831 543.289C533.741 545.301 530.388 550.233 530.388 555.679V563.846C530.388 587.087 511.566 605.947 488.326 605.947C465.086 605.947 446.225 587.087 446.225 563.846V555.679C446.225 515.59 470.767 479.606 508.054 464.967L517.524 461.218C541.671 451.749 556.113 426.891 552.404 401.204C548.379 373.782 524.862 353.421 497.124 353.421L495.069 353.431ZM489.466 648.017C512.706 648.017 531.567 666.878 531.567 690.118C531.567 713.359 512.706 732.219 489.466 732.219C466.225 732.219 447.404 713.359 447.404 690.118C447.404 666.878 466.225 648.017 489.466 648.017Z" fill="#DFFF03"/>
</g>
<defs>
<clipPath id="clip0_344_454">
<rect width="1000" height="1000" fill="white" transform="translate(0 0.724609)"/>
</clipPath>
</defs>
</svg>
