<svg width="1000" height="1000" viewBox="0 0 1000 1000" fill="none" xmlns="http://www.w3.org/2000/svg">
<g clip-path="url(#clip0_278_510)">
<path d="M146.411 146.452C52.6742 240.233 0 367.385 0 500L0.00972248 503.107C0.825764 634.599 53.4066 760.503 146.412 853.55L146.451 853.589C240.232 947.326 367.385 1000 500 1000C632.614 1000 759.77 947.326 853.55 853.588L853.589 853.549C946.594 760.5 999.174 634.6 999.99 503.107L1000 500C1000 367.386 947.326 240.23 853.588 146.45L853.549 146.411L851.345 144.221C757.78 51.8538 631.579 2.2875e-06 500 0C367.385 0 240.23 52.6743 146.45 146.412L146.411 146.452Z" fill="#000813"/>
<path d="M500 119.473C600.928 119.473 697.704 159.559 769.091 230.912C840.443 302.296 880.53 399.075 880.53 500.003C880.53 600.931 840.444 697.707 769.091 769.094C697.707 840.446 600.928 880.533 500 880.533C399.072 880.533 302.296 840.446 230.909 769.094C159.557 697.71 119.47 600.931 119.47 500.003C119.47 399.075 159.556 302.298 230.909 230.912C302.293 159.56 399.072 119.473 500 119.473ZM500 188.65C417.421 188.65 338.23 221.44 279.845 279.848C221.434 338.226 188.648 417.424 188.648 500.003C188.648 582.582 221.437 661.773 279.845 720.158C338.223 778.569 417.421 811.355 500 811.355C582.579 811.355 661.77 778.566 720.155 720.158C778.566 661.78 811.352 582.582 811.352 500.003C811.352 417.43 778.563 338.233 720.155 279.848C661.777 221.437 582.579 188.65 500 188.65ZM653.827 361.581C663.232 361.776 672.119 365.798 678.509 372.705C685.06 379.192 688.757 388.046 688.757 397.257C688.757 406.467 685.06 415.322 678.509 421.808L473.016 627.299C466.562 633.688 457.87 637.289 448.789 637.353C439.61 637.386 430.756 633.785 424.238 627.299L320.454 523.516C313.903 517.029 310.205 508.175 310.205 498.964C310.205 489.754 313.902 480.899 320.454 474.413C333.946 460.986 355.741 460.986 369.233 474.413L447.751 552.932L628.692 371.667C635.34 365.018 644.422 361.386 653.827 361.581Z" fill="#DFFF03"/>
</g>
<defs>
<clipPath id="clip0_278_510">
<rect width="1000" height="1000" fill="white"/>
</clipPath>
</defs>
</svg>
