<svg width="1000" height="1000" viewBox="0 0 1000 1000" fill="none" xmlns="http://www.w3.org/2000/svg">
<g clip-path="url(#clip0_344_608)">
<path d="M500 -0.00585938C631.579 -0.00585938 757.78 51.8475 851.344 144.215L853.549 146.405L853.589 146.444C947.326 240.224 1000 367.38 1000 499.994V500.112C999.872 632.679 947.117 759.719 853.455 853.421C853.443 853.434 853.43 853.447 853.417 853.46C759.718 947.114 632.687 999.871 500.111 1000C499.5 1000 498.889 999.997 498.279 999.988C366.285 999.535 239.827 946.915 146.451 853.584C146.438 853.571 146.424 853.557 146.411 853.544C53.4061 760.497 0.825797 634.593 0.00986427 503.101L0 499.994C0 367.379 52.6733 240.227 146.41 146.445C146.423 146.432 146.437 146.419 146.45 146.406C240.23 52.668 367.386 -0.00585367 500 -0.00585938Z" fill="#000813"/>
<path d="M500.001 121.207C600.467 121.207 696.8 161.11 767.86 232.136C838.885 303.193 878.789 399.529 878.789 499.995C878.692 600.428 838.724 696.703 767.728 767.73C696.703 838.722 600.434 878.691 499.993 878.791L500.001 878.783C399.535 878.783 303.201 838.88 232.142 767.854C161.116 696.797 121.213 600.461 121.213 499.995C121.213 399.529 161.115 303.196 232.142 232.136C303.199 161.11 399.535 121.207 500.001 121.207ZM500.001 190.069C417.806 190.069 338.972 222.708 280.854 280.848C222.71 338.959 190.074 417.794 190.074 499.995C190.074 582.196 222.714 661.024 280.854 719.141C338.965 777.285 417.8 809.921 500.001 809.921C582.202 809.921 661.03 777.282 719.147 719.141C777.291 661.031 809.927 582.196 809.927 499.995C809.83 417.832 777.16 339.056 719.049 280.947C660.938 222.838 582.169 190.168 500.001 190.069ZM606.832 293.541C615.936 291.797 625.363 293.799 632.982 299.093C690.996 337.447 729.605 398.981 738.903 467.908C748.2 536.802 727.248 606.375 681.47 658.741C635.691 711.073 569.54 741.096 500.001 741.064C430.461 741.096 364.311 711.073 318.533 658.741C272.754 606.376 251.801 536.803 261.099 467.908C270.397 398.982 309.009 337.45 367.02 299.093C374.639 293.799 384.066 291.798 393.17 293.541C402.306 295.284 410.313 300.643 415.414 308.359C420.547 316.107 422.322 325.598 420.353 334.638C418.383 343.71 412.864 351.62 404.986 356.527C363.566 383.936 335.995 427.907 329.345 477.142C322.727 526.375 337.674 576.062 370.377 613.476C403.081 650.861 450.313 672.331 500.001 672.331C549.689 672.331 596.921 650.861 629.624 613.476C662.328 576.06 677.276 526.375 670.658 477.142C664.007 427.91 636.437 383.941 595.016 356.527C587.139 351.62 581.618 343.71 579.649 334.638C577.68 325.598 579.455 316.107 584.588 308.359C589.689 300.643 597.695 295.285 606.832 293.541ZM500.006 224.512C519.021 224.512 534.454 239.912 534.454 258.927V396.682C534.454 405.819 530.805 414.568 524.348 421.025C517.891 427.481 509.142 431.13 500.006 431.13C480.99 431.129 465.559 415.698 465.559 396.682V258.927C465.559 239.912 480.99 224.512 500.006 224.512Z" fill="#DFFF03"/>
</g>
<defs>
<clipPath id="clip0_344_608">
<rect width="1000" height="1000.01" fill="white" transform="translate(0 -0.00585938)"/>
</clipPath>
</defs>
</svg>
