<svg width="1000" height="950" viewBox="0 0 1000 950" fill="none" xmlns="http://www.w3.org/2000/svg">
<g clip-path="url(#clip0_347_260)">
<path d="M507.995 51.1079C562.38 5.55499 636.856 -11.1932 707.004 9.83841L708.66 10.3423L709.942 10.7466C710.369 10.8836 710.795 11.0228 711.221 11.1646C769.401 30.5581 816.114 73.351 840.138 128.919C925.894 141.035 989.568 212.652 994.708 297.372L994.828 299.572L994.89 301.015C994.942 302.459 994.968 303.904 994.969 305.349L995 388.871C995 388.885 995 388.9 995 388.915C995 439.936 974.104 484.343 941.424 516.116V770.19C941.424 870.56 859.907 949.274 762.341 949.274H237.659C137.289 949.274 58.5762 867.756 58.5762 770.19V516.116C25.8959 484.343 5.00003 439.936 5 388.915V306.197C5.0001 214.902 72.4436 141.526 158.062 129.003C182.034 72.8469 229.214 28.9736 289.732 10.3335C289.757 10.326 289.781 10.3176 289.806 10.3101C360.406 -11.4297 435.583 5.19915 490.394 51.105C490.678 51.3432 490.961 51.5829 491.243 51.8238L499.196 58.6118L507.149 51.8238L507.995 51.1079Z" fill="#000813"/>
<path d="M814.309 247.107H730.788C737.866 228.981 739.466 209.287 734.727 190.393C726.849 159.681 704.016 135.248 673.273 125C642.562 115.522 609.481 122.631 585.049 143.095L499.196 216.365L413.344 143.095C388.91 122.63 355.829 115.522 325.088 125C294.377 134.447 271.512 158.881 263.634 190.393C258.895 209.287 260.496 228.981 267.573 247.107H184.084C151.772 247.107 125 273.11 125 306.191V388.908C125 419.619 148.634 444.053 178.576 447.192V770.184C178.576 802.495 204.579 829.267 237.66 829.267H762.34C794.652 829.267 821.424 803.264 821.424 770.184V447.192C851.366 444.053 875 419.619 875 388.908L874.969 305.387C873.4 273.075 847.39 247.107 814.309 247.107ZM815.109 388.908H587.423V305.387H814.313L815.109 388.908ZM469.256 388.908V305.387H528.339V388.105H469.256V388.908ZM529.14 447.192V770.184H470.056V447.192H529.14ZM623.674 188.026C632.352 180.148 644.169 177.778 655.986 181.718C667.002 185.656 675.681 194.335 678.819 205.351C681.189 215.599 679.619 225.846 672.511 234.493C666.202 242.371 656.755 247.879 645.739 247.879H554.34L623.674 188.026ZM326.687 233.693C320.378 225.015 318.009 214.799 320.378 204.551C323.517 192.735 331.395 184.056 343.212 180.918C346.35 180.118 350.289 179.348 353.459 179.348C361.337 179.348 368.414 182.487 374.723 187.226L444.054 246.31H352.656C342.439 247.11 332.965 242.371 326.687 233.693ZM184.082 305.394H410.972V388.112H184.082V305.394ZM236.857 447.196H410.974V770.188H236.857V447.196ZM587.422 770.188V447.196H761.538V770.188H587.422Z" fill="#DFFF03"/>
</g>
<defs>
<clipPath id="clip0_347_260">
<rect width="1000" height="948.42" fill="white" transform="translate(0 0.853516)"/>
</clipPath>
</defs>
</svg>
