<svg width="1000" height="991" viewBox="0 0 1000 991" fill="none" xmlns="http://www.w3.org/2000/svg">
<g clip-path="url(#clip0_347_240)">
<path d="M794.643 0.546875C847.763 0.546924 898.744 21.6602 936.315 59.2324L936.314 59.2334C973.867 96.7858 995 147.724 995 200.904V790.193C995 900.799 905.347 990.551 794.643 990.551H392.854C282.15 990.551 192.497 900.799 192.497 790.193L192.499 641.954C143.962 638.832 98.2072 618.124 63.7803 583.743C26.0835 546.13 5.00006 495.082 5 441.978V241.079C5 108.273 112.736 0.546875 245.532 0.546875L247.981 0.560547C249.689 0.578968 251.366 0.617229 253.012 0.670898C254.943 0.591475 256.914 0.546879 258.925 0.546875H794.643Z" fill="#000813"/>
<path fill-rule="evenodd" clip-rule="evenodd" d="M312.501 522.368H205.358C184.029 522.368 163.605 513.864 148.538 498.797C133.471 483.763 125 463.306 125 441.977V241.079C125 174.55 179.007 120.547 245.532 120.547C248.613 120.547 251.626 120.681 254.639 120.915C256.046 120.681 257.485 120.547 258.925 120.547H794.642C815.937 120.547 836.395 129.018 851.462 144.085C866.529 159.152 875 179.576 875 200.904V790.194C875 834.558 839.04 870.551 794.642 870.551H392.854C348.457 870.551 312.497 834.558 312.497 790.194L312.501 522.368ZM345.749 174.152C358.573 193.271 366.073 216.307 366.073 241.083V790.189C366.073 804.989 378.059 816.975 392.859 816.975H794.647C809.446 816.975 821.433 804.989 821.433 790.189V200.9C821.433 193.802 818.62 187.005 813.598 181.983C808.575 176.961 801.745 174.148 794.647 174.148L345.749 174.152ZM446.43 495.548C431.63 495.548 419.644 483.562 419.644 468.762C419.644 453.996 431.63 441.976 446.43 441.976H741.074C755.874 441.976 767.86 453.996 767.86 468.762C767.86 483.562 755.874 495.548 741.074 495.548H446.43ZM486.206 705.447C460.559 679.196 449.142 641.998 460.425 605.297C466.351 586.045 479.611 566.424 499.298 558.657C512.859 553.333 527.691 553.902 541.486 557.217C575.203 565.386 601.554 591.369 608.82 625.688C613.072 645.812 608.686 666.47 600.382 684.919C615.315 682.24 631.554 679.227 646.487 681.403C660.316 683.412 672.804 689.606 685.728 694.562C700.528 700.254 715.26 705.21 731.097 701.861C745.562 698.848 759.792 708.156 762.805 722.587C765.852 737.051 756.577 751.282 742.079 754.328C715.795 759.819 691.052 754.027 666.476 744.585C657.268 741.036 648.597 735.846 638.752 734.406C627.569 732.766 615.448 736.717 604.5 738.592C590.705 740.969 576.409 741.839 562.48 740.868C558.395 740.601 554.377 740.132 550.46 739.429C519.924 756.103 482.391 760.791 447.405 763.469C432.673 764.574 419.782 753.491 418.677 738.793C417.539 724.027 428.622 711.169 443.354 710.065C457.349 708.993 471.976 707.924 486.206 705.447ZM540.816 680.067C543.629 676.886 546.173 673.304 548.383 669.253C553.774 659.409 558.796 648.091 556.385 636.808C553.472 622.913 542.557 612.6 528.93 609.319C525.649 608.516 522.2 607.21 518.985 608.482C514.231 610.357 513.059 616.451 511.653 621.072C505.023 642.534 515.972 663.796 534.253 676.117C536.396 677.557 538.573 678.895 540.816 680.067ZM446.427 281.262C431.627 281.262 419.641 269.276 419.641 254.476C419.641 239.677 431.627 227.69 446.427 227.69H553.57C568.337 227.69 580.356 239.677 580.356 254.476C580.356 269.276 568.337 281.262 553.57 281.262H446.427ZM446.427 388.44C431.627 388.44 419.641 376.42 419.641 361.621C419.641 346.854 431.627 334.835 446.427 334.835H741.072C755.871 334.835 767.857 346.854 767.857 361.621C767.857 376.42 755.871 388.44 741.072 388.44H446.427ZM312.498 468.764V241.088C312.498 204.157 282.497 174.157 245.533 174.157C208.568 174.157 178.568 204.157 178.568 241.088V441.987C178.568 449.085 181.381 455.915 186.403 460.937C191.426 465.96 198.256 468.772 205.354 468.772L312.498 468.764Z" fill="#DFFF03"/>
</g>
<defs>
<clipPath id="clip0_347_240">
<rect width="1000" height="990" fill="white" transform="translate(0 0.546875)"/>
</clipPath>
</defs>
</svg>
