<svg width="1000" height="957" viewBox="0 0 1000 957" fill="none" xmlns="http://www.w3.org/2000/svg">
<g clip-path="url(#clip0_278_482)">
<path d="M538.564 66.3048C590.715 -5.05964 689.479 -20.1096 760.383 29.6815L762.052 30.8697L762.055 30.8718C811.682 66.6624 833.995 124.446 827.375 179.93H839.564C926.112 179.93 996.635 248.462 999.883 334.247L999.947 336.277L999.977 337.819L999.989 338.677C999.996 339.24 1000 339.802 1000 340.364V796.625C999.999 884.909 928.574 957.176 839.564 957.176H160.433C73.1961 957.174 2.25543 887.55 0.0527848 800.827C0.0397344 800.314 0.0295895 799.799 0.0227699 799.285L0.0113849 798.427C0.00392515 797.865 0 797.303 0 796.74V340.362L0.0134549 338.289C1.12517 250.654 72.5364 179.931 160.433 179.93H284.012C291.955 146.947 310.331 116.275 338.332 93.3275C338.634 93.078 338.938 92.83 339.243 92.5833C339.304 92.5344 339.364 92.4842 339.425 92.4353L339.489 92.3846L340.972 91.2058C396.206 48.0044 470.849 46.6288 526.726 82.5397L538.348 66.6019C538.37 66.5708 538.392 66.539 538.415 66.5077L538.564 66.3048ZM534.09 72.845C534.07 72.8762 534.054 72.9015 534.044 72.9164C534.038 72.9263 534.031 72.9355 534.03 72.9381C534.03 72.9381 534.032 72.9346 534.035 72.9309C534.038 72.9263 534.043 72.9189 534.048 72.9102C534.059 72.893 534.076 72.8652 534.098 72.8315C534.138 72.7695 534.201 72.6713 534.279 72.55L534.09 72.845ZM534.599 72.0553C534.565 72.1067 534.533 72.1569 534.503 72.2043C534.541 72.1454 534.581 72.0832 534.624 72.018C534.746 71.8295 534.89 71.608 535.053 71.3608L534.599 72.0553ZM536.435 69.3094C536.437 69.3067 536.438 69.3038 536.44 69.3011C536.703 68.9184 536.991 68.5035 537.303 68.0612C537.297 68.07 537.291 68.0793 537.285 68.0881C536.978 68.5233 536.694 68.9319 536.435 69.3094ZM535.647 70.4676C535.624 70.502 535.602 70.5363 535.579 70.57C535.606 70.5294 535.634 70.4884 535.662 70.4469C535.657 70.4538 535.652 70.4607 535.647 70.4676ZM535.662 70.4469C535.671 70.4329 535.68 70.4185 535.69 70.4044C535.787 70.2601 535.891 70.1104 535.997 69.9532C535.88 70.1256 535.767 70.2898 535.662 70.4469ZM536.388 69.3756C536.251 69.5756 536.122 69.7693 535.997 69.9532C536.136 69.749 536.281 69.5335 536.435 69.3094C536.42 69.3317 536.404 69.3536 536.388 69.3756Z" fill="#000813"/>
<path d="M641.248 141.348C652.141 126.441 672.799 123.31 687.662 134.029C702.631 144.825 705.719 165.627 695.016 180.468C695.009 180.478 694.999 180.487 694.992 180.497L694.993 180.498L602.592 307.115H839.564C857.629 307.115 872.352 321.555 872.808 339.511L872.82 340.369V796.628C872.819 815.073 857.935 830 839.564 830H160.435C142.37 830 127.648 815.558 127.192 797.603L127.18 796.745V340.369C127.18 322.018 142.084 307.115 160.435 307.115H468.44L413.859 238.151C413.855 238.145 413.85 238.14 413.846 238.134C402.524 223.802 404.959 202.956 419.185 191.501L419.198 191.491L419.326 191.388C433.78 180.083 454.55 182.518 465.999 196.829H465.998C466.006 196.838 466.014 196.847 466.021 196.857L536.161 285.462L641.24 141.36C641.242 141.356 641.245 141.352 641.248 141.348ZM193.69 763.49H620.628V373.624H538.026C538.012 373.625 537.995 373.626 537.972 373.626C537.917 373.628 537.826 373.631 537.725 373.633L537.724 373.632C537.697 373.632 537.67 373.634 537.643 373.634H534.247C534.16 373.634 534.073 373.629 533.986 373.624H193.69V763.49ZM687.137 763.49H806.31V373.624H687.137V763.49ZM761.313 535.24C779.378 535.24 794.1 549.681 794.556 567.636L794.568 568.494C794.568 586.559 780.127 601.282 762.171 601.738L761.313 601.75H732.825C714.474 601.75 699.571 586.845 699.571 568.494C699.571 550.143 714.474 535.24 732.825 535.24H761.313ZM761.313 415.917C779.378 415.918 794.1 430.358 794.556 448.314L794.568 449.172C794.568 467.236 780.127 481.96 762.171 482.416L761.313 482.427H732.825C714.474 482.427 699.571 467.523 699.571 449.172C699.571 430.821 714.474 415.918 732.825 415.917H761.313ZM418.802 233.572L419.113 233.972C419.008 233.84 418.905 233.706 418.804 233.572L418.501 233.168C418.6 233.304 418.701 233.438 418.802 233.572Z" fill="#DFFF03"/>
</g>
<defs>
<clipPath id="clip0_278_482">
<rect width="1000" height="956" fill="white" transform="translate(0 0.503906)"/>
</clipPath>
</defs>
</svg>
