<svg width="1000" height="1000" viewBox="0 0 1000 1000" fill="none" xmlns="http://www.w3.org/2000/svg">
<path d="M998.416 689.796C998.416 807.552 902.982 902.986 785.226 902.987H665.653V998.062H334.347V985.956L334.314 902.391L300.354 902.987H214.774C97.0182 902.986 1.58398 807.552 1.58398 689.796V297.612C1.58398 186.992 85.8008 96.0721 193.626 85.4573C203.273 71.9614 214.598 59.6392 227.388 48.8235C227.388 48.8235 255.543 28.6757 269.292 21.0207C283.041 13.3657 327.674 1.74258 328.888 3.26975C386.675 -4.98236 446.33 12.1895 491.291 52.2658L491.292 52.2639L535.331 91.4104C554.721 86.8269 574.694 84.452 594.876 84.4211H785.226C841.342 84.4212 895.162 106.563 935.027 145.936L935.967 146.868L936.9 147.808C976.275 187.674 998.416 241.495 998.416 297.612V689.796Z" fill="#000813"/>
<path d="M785.225 214.513H595.075C564.714 214.56 535.282 225.191 511.884 244.595L404.925 149.52C383.988 130.765 353.952 126.076 328.28 137.543C302.607 149.009 286.081 174.496 286.081 202.629V214.513H214.775C168.815 214.513 131.584 251.745 131.584 297.704V689.889C131.584 735.848 168.815 773.079 214.775 773.079H404.925C420.662 773.079 435.797 779.347 446.939 790.488C458.08 801.629 464.347 816.763 464.347 832.501V868.155H535.653V832.501C535.653 799.68 562.254 773.079 595.075 773.079H785.225C831.185 773.079 868.416 735.848 868.416 689.889V297.704C868.416 275.652 859.642 254.484 844.044 238.886C828.445 223.287 807.276 214.513 785.225 214.513ZM357.387 202.629L464.347 297.704V689.889L357.387 594.814V202.629ZM202.89 689.889V297.704C202.89 291.158 208.229 285.82 214.775 285.82H286.081V594.814C286.035 615.147 294.716 634.505 309.85 648.062L370.339 701.773H214.772C208.227 701.773 202.89 696.434 202.89 689.889ZM797.11 689.889C797.11 693.045 795.856 696.063 793.628 698.291C791.4 700.52 788.382 701.773 785.225 701.773H595.075C571.817 701.773 549.023 707.994 529.015 719.831C533.378 710.454 535.653 700.241 535.653 689.889V345.241C535.653 312.42 562.254 285.82 595.075 285.82H630.728V535.392H702.035V285.82H785.225C788.382 285.82 791.4 287.073 793.628 289.301C795.856 291.53 797.11 294.547 797.11 297.704L797.11 689.889Z" fill="#DFFF03"/>
</svg>
