<svg width="1000" height="1001" viewBox="0 0 1000 1001" fill="none" xmlns="http://www.w3.org/2000/svg">
<g clip-path="url(#clip0_344_552)">
<path d="M757.032 0.894531C806.317 0.894531 850.465 22.9523 880.145 57.7285C914.608 64.4164 944.807 83.0373 966.271 109.119H969.565L968.393 111.756C988.191 136.959 999.998 168.737 999.998 203.276V446.782C999.998 504.522 966.999 554.547 918.831 579.032V639.204C967 663.69 1000 713.716 1000 771.458V852.626C1000 934.518 933.624 1000.89 851.731 1000.89H148.269C66.3763 1000.89 0 934.518 0 852.626V771.458C0 713.716 32.9996 663.69 81.1691 639.204V579.033C62.8267 569.709 46.6834 556.684 33.7249 540.938H30.4382L31.6081 538.305C11.8085 513.101 5.09346e-05 481.322 0 446.782V203.276C0 131.102 51.5564 70.9822 119.853 57.7285C149.533 22.9524 193.681 0.894531 242.966 0.894531L245.056 0.907355C292.203 1.50494 334.5 22.2884 363.703 55.0069H636.294C665.928 21.8053 709.046 0.894547 757.032 0.894531Z" fill="#000813"/>
<path d="M851.73 473.839C866.679 473.839 878.786 461.732 878.786 446.783V203.276C878.786 188.327 866.679 176.22 851.73 176.22H797.617V162.692C797.617 140.303 779.422 122.107 757.033 122.107C734.644 122.107 716.449 140.303 716.449 162.692V176.22H500.57H500.435H392.348H392.213H284.092H283.956H283.551V162.692C283.551 140.303 265.355 122.107 242.966 122.107C220.577 122.107 202.382 140.303 202.382 162.692V176.22H148.269C133.32 176.22 121.213 188.327 121.213 203.276V446.783C121.213 461.732 133.32 473.839 148.269 473.839H175.258H175.326H175.393H202.382V744.402H148.269C133.32 744.402 121.213 756.509 121.213 771.458V852.627C121.213 867.576 133.32 879.683 148.269 879.683H851.732C866.681 879.683 878.789 867.576 878.789 852.627V771.458C878.789 756.509 866.681 744.402 851.732 744.402H797.62V473.839H851.73ZM770.561 419.726H758.082L824.674 269.9V419.726H770.561ZM649.86 419.726L734.039 230.332H783.045L698.866 419.726H649.86ZM541.635 419.726L625.814 230.332H674.82L590.641 419.726H541.635ZM433.41 419.726L517.589 230.332H566.595L482.416 419.726H433.41ZM325.185 419.726L409.364 230.332H458.37L374.191 419.726H325.185ZM256.496 419.726H216.96L301.139 230.332H350.145L265.966 419.726H256.496ZM229.439 230.332H241.919L175.327 380.194V230.332H229.439ZM824.677 825.57H175.327V798.514H824.677V825.57ZM283.552 744.402V473.839H283.619H391.671H391.739H391.84H499.892H499.96H500.061H608.113H608.181H608.282H716.334H716.402H716.436V744.402H283.552Z" fill="#DFFF03"/>
</g>
<defs>
<clipPath id="clip0_344_552">
<rect width="1000" height="1000" fill="white" transform="translate(0 0.894531)"/>
</clipPath>
</defs>
</svg>
