<svg width="1000" height="1001" viewBox="0 0 1000 1001" fill="none" xmlns="http://www.w3.org/2000/svg">
<g clip-path="url(#clip0_344_528)">
<path d="M402.044 10.3069L423.117 6.74897L444.738 3.73842L465.961 2.01196C477.209 1.25269 488.557 0.864754 499.994 0.864746C511.434 0.864746 522.785 1.25329 534.036 2.01295L550.929 3.19105L576.108 6.47528L599.371 10.8542L619.302 15.2439C802.193 60.1684 945.836 205.967 987.63 390.057L991.803 410.398C997.185 439.744 1000 469.978 1000 500.859C1000 531.742 997.186 561.975 991.806 591.316L987.673 611.491C945.963 795.518 802.472 941.174 619.738 986.207L605.299 988.712L589.2 991.395L572.207 994.525L552.977 997.209L534.396 999.518C529.071 999.882 523.724 1000.16 518.355 1000.36C509.925 1000.91 502.705 1000.86 500 1000.86C498.614 1000.86 490.65 1000.98 481.403 1000.35C476.12 1000.15 470.857 999.876 465.616 999.518L446.99 998.997L429.997 996.762L413.45 994.525L380.221 986.196C197.507 941.149 54.0325 795.504 12.3264 611.488L8.19425 591.316C2.81349 561.975 0 531.742 0 500.859C2.03661e-05 469.978 2.81471 439.744 8.19721 410.398L12.3698 390.056C54.1616 205.972 197.791 60.1736 380.676 15.2459L402.044 10.3069Z" fill="#000813"/>
<path d="M499.995 122.082C291.197 122.082 121.213 292.066 121.213 500.864C121.213 705.707 284.802 873.029 488.164 879.301C492.08 879.693 495.954 879.649 500.001 879.649C504.048 879.649 507.921 879.649 511.838 879.301C715.199 873.034 878.789 705.707 878.789 500.864C878.789 292.066 708.793 122.082 499.995 122.082ZM466.573 200.762V289.191H404.255C406.779 283.055 409.172 276.702 411.914 271.088C428.755 236.23 447.948 213.383 466.573 200.762ZM533.417 200.762C552.043 213.383 571.234 236.23 588.076 271.088C590.817 276.702 593.211 283.055 595.735 289.191H533.416L533.417 200.762ZM362.831 220.606C358.915 227.482 355.216 234.532 351.691 241.842C344.554 256.595 337.982 272.523 332.195 289.19H270.921C296.944 261.078 328.017 237.621 362.831 220.606ZM637.17 220.606C671.985 237.621 703.057 261.078 729.081 289.19H667.807C662.019 272.523 655.447 256.595 648.311 241.842C644.786 234.531 641.087 227.481 637.17 220.606ZM223.573 356.032H314.091C306.736 390.977 302.211 428.229 300.513 467.439H190.151C194.416 427.62 205.817 389.89 223.573 356.032ZM382.673 356.032H466.575V467.439H367.006C369.008 427.533 374.579 389.976 382.673 356.032ZM533.417 356.032H617.32C625.414 389.976 630.985 427.533 632.986 467.439H533.416L533.417 356.032ZM685.911 356.032H776.428C794.184 389.89 805.586 427.62 809.85 467.439H699.489C697.792 428.229 693.266 390.977 685.911 356.032ZM189.806 534.282H300.516C302.213 573.405 306.391 610.831 313.746 645.689H223.575C205.819 611.745 194.027 574.188 189.806 534.282ZM367.009 534.282H466.579V645.689H382.676C374.582 611.788 368.967 574.188 367.009 534.282ZM533.428 534.282H632.998C631.04 574.188 625.426 611.788 617.332 645.689H533.429L533.428 534.282ZM699.491 534.282H810.201C805.98 574.188 794.187 611.745 776.432 645.689H686.261C693.616 610.831 697.794 573.405 699.491 534.282ZM270.576 712.533H332.197C337.985 729.157 344.556 744.78 351.693 759.533C355.305 767.018 359.178 774.459 363.181 781.467C328.106 764.408 296.731 740.864 270.576 712.533ZM404.264 712.533H466.582V800.962C447.956 788.255 428.765 765.102 411.924 730.288C409.226 724.674 406.788 718.626 404.264 712.533ZM533.428 712.533H595.747C593.223 718.626 590.786 724.674 588.088 730.289C571.246 765.104 552.054 788.255 533.429 800.963L533.428 712.533ZM667.807 712.533H729.428C703.273 740.864 671.897 764.406 636.821 781.466C640.825 774.459 644.698 767.018 648.31 759.532C655.447 744.78 662.019 729.157 667.807 712.533Z" fill="#DFFF03"/>
</g>
<defs>
<clipPath id="clip0_344_528">
<rect width="1000" height="1000" fill="white" transform="translate(0 0.864746)"/>
</clipPath>
</defs>
</svg>
