<svg width="1000" height="937" viewBox="0 0 1000 937" fill="none" xmlns="http://www.w3.org/2000/svg">
<g clip-path="url(#clip0_344_504)">
<path d="M297.513 72.9626C394.133 -23.613 550.287 -23.7774 647.226 71.8864L648.363 73.0159L693.316 118.027L694.448 119.166C772.319 197.982 786.664 315.756 737.615 408.951C764.648 414.893 790.31 428.124 811.321 448.508L812.717 449.88L813.073 450.235L826.55 463.76C866.366 462.515 906.968 476.652 938.513 508.234L955.383 525.101L955.38 525.103C1017.06 586.642 1012.77 684.049 955 741.736L955.002 741.738L805.086 891.654L805.084 891.653C748.015 948.75 650.503 954.488 588.272 892.186L588.271 892.188L571.402 875.319L571.403 875.317C557.975 861.904 547.737 846.917 540.487 831.09C524.564 823.774 509.649 813.587 496.536 800.509L479.668 783.702L479.592 783.626L479.516 783.551C460.513 764.548 447.634 741.823 440.75 717.762C343.555 789.953 205.785 781.755 117.742 693.767L72.7614 648.816L72.7476 648.801L72.7328 648.786C-24.1078 551.944 -24.3514 394.91 72.645 297.914L297.513 72.9626Z" fill="#000813"/>
<path d="M869.674 610.815L852.806 593.947C840.496 581.578 820.106 582.051 807.737 594.48L732.216 670.03L702.416 640.171L744.2 598.387C756.57 586.076 756.482 565.066 744.082 552.725L727.214 535.798C714.844 523.488 693.922 523.429 681.612 535.798L639.827 577.583L526.547 464.333L607.691 383.19C657.259 333.562 657.259 253.364 607.632 203.766L562.68 158.755C513.083 109.187 432.794 109.128 383.203 158.696L158.356 383.627C108.788 433.195 108.847 513.483 158.444 563.081L203.425 608.033C253.023 657.601 333.281 657.66 382.849 608.033L463.963 526.889L577.242 640.169L565.376 652.036C553.006 664.346 552.829 685.446 565.228 697.845L582.096 714.654C594.466 727.024 615.566 726.965 627.935 714.595L639.743 702.729L669.602 732.588L657.735 744.395C645.366 756.765 644.744 777.303 657.114 789.613L673.982 806.481C686.292 818.851 707.008 818.348 719.377 805.949L869.293 656.032C881.693 643.722 882.074 623.096 869.674 610.815ZM338.221 537.84C316.205 559.856 282.114 561.632 262.138 541.716L225.769 505.376C205.912 485.431 207.569 451.37 229.704 429.324L429.901 229.097C451.948 207.08 486.008 205.305 505.984 225.161L542.294 261.501C562.269 281.447 560.553 315.508 538.359 337.645L338.221 537.84Z" fill="#DFFF03"/>
</g>
<defs>
<clipPath id="clip0_344_504">
<rect width="1000" height="936.39" fill="white" transform="translate(0 0.333984)"/>
</clipPath>
</defs>
</svg>
