<svg width="1000" height="1001" viewBox="0 0 1000 1001" fill="none" xmlns="http://www.w3.org/2000/svg">
<g clip-path="url(#clip0_278_466)">
<path d="M886.135 682.971C949.614 686.506 1000 739.099 1000 803.462V879.304C1000 945.955 945.969 999.986 879.318 999.986H120.682C54.0311 999.986 0 945.955 0 879.304V803.462C0 739.165 50.2813 686.615 113.668 682.982V234.738C113.668 105.051 219.006 0.191592 348.215 0.191406H651.589L653.108 0.196317C782.095 1.01543 886.135 106.035 886.135 234.738V682.971Z" fill="#000813"/>
<path d="M651.589 120.875C714.487 120.875 765.453 172.043 765.453 234.74V803.463H879.318V879.306H120.682V803.463H234.35V234.74C234.35 171.842 285.518 120.875 348.215 120.875H651.589ZM348.421 196.717C327.387 196.717 310.399 213.909 310.399 234.74V803.463H689.818V234.74C689.818 213.706 672.626 196.717 651.794 196.717H348.421ZM424.058 575.933H348.215V500.09H424.058V575.933ZM613.761 348.402H386.228V272.558H613.761V348.402Z" fill="#DFFF03"/>
</g>
<defs>
<clipPath id="clip0_278_466">
<rect width="1000" height="1000" fill="white" transform="translate(0 0.191406)"/>
</clipPath>
</defs>
</svg>
