<svg width="1000" height="779" viewBox="0 0 1000 779" fill="none" xmlns="http://www.w3.org/2000/svg">
<g clip-path="url(#clip0_320_865)">
<path d="M999.986 243.111C999.561 276.685 989.155 307.856 971.601 333.795C989.528 360.285 1000 392.232 1000 426.623C1000 461.039 989.526 492.968 971.612 519.432C989.532 545.919 1000 577.86 1000 612.245C999.999 703.836 925.731 778.097 834.147 778.097H425.756C399.06 778.097 373.837 771.785 351.495 760.576C329.153 771.785 303.93 778.097 277.234 778.097H165.008L162.418 778.063L161.63 778.043C71.9637 775.768 0.000615019 702.426 0 612.246C0 569.377 16.2705 530.303 42.9716 500.864L42.611 500.463L42.5878 500.438L42.5646 500.412C-9.48522 442.552 -13.2535 358.243 28.3841 296.648C-17.3228 229.136 -7.30279 136.665 54.8084 80.6633L54.8625 80.614L54.9176 80.5656C88.3667 50.4757 130.749 36.4771 172.484 38.1422C239.018 -16.1846 337.135 -10.8079 397.281 52.3033L397.28 52.3043C404.224 59.5904 410.374 67.3417 415.732 75.4517C419.049 75.2538 422.391 75.15 425.756 75.15H834.147C925.573 75.15 1000 149.218 1000 240.967L999.986 243.111Z" fill="#000813"/>
<path d="M277.234 574.713C297.736 574.713 314.374 591.351 314.374 611.852C314.374 632.354 297.736 648.992 277.234 648.992H165.852L164.894 648.979C144.835 648.47 128.713 632.033 128.713 611.852C128.713 591.351 145.351 574.713 165.852 574.713H277.234ZM834.147 574.713C854.648 574.713 871.287 591.351 871.287 611.852C871.287 632.354 854.648 648.992 834.147 648.992H425.756C405.255 648.992 388.617 632.354 388.617 611.852C388.617 591.351 405.255 574.713 425.756 574.713H834.147ZM251.622 325.075C266.485 310.943 289.981 311.501 304.112 326.364C318.278 341.192 317.686 364.721 302.859 378.852L224.891 453.095C217.616 460.022 207.87 463.712 197.846 463.329C187.821 462.911 178.389 458.49 171.671 451.042L138.256 413.937C124.542 398.692 125.796 375.196 141.006 361.483C156.251 347.769 179.747 349.023 193.46 364.233L201.327 373.004L251.622 325.075ZM834.147 389.091C854.648 389.091 871.287 405.729 871.287 426.23C871.287 446.732 854.648 463.335 834.147 463.335H425.756L424.798 463.322C404.739 462.814 388.617 446.411 388.617 426.23C388.617 405.729 405.255 389.091 425.756 389.091H834.147ZM834.147 203.47C854.648 203.47 871.287 220.073 871.287 240.575C871.287 261.076 854.648 277.714 834.147 277.714H425.756L424.798 277.702C404.739 277.193 388.617 260.756 388.617 240.575C388.617 220.073 405.255 203.47 425.756 203.47H834.147ZM251.616 139.457C266.478 125.29 289.973 125.881 304.104 140.709C318.271 155.571 317.68 179.068 302.851 193.199L224.885 267.478C217.61 274.369 207.863 278.058 197.839 277.676C187.815 277.292 178.382 272.873 171.664 265.424L138.249 228.285C124.535 213.04 125.789 189.579 140.999 175.865C156.244 162.15 179.739 163.369 193.453 178.614L201.32 187.351L251.616 139.457Z" fill="#DFFF03"/>
</g>
<defs>
<clipPath id="clip0_320_865">
<rect width="1000" height="778" fill="white" transform="translate(0 0.488281)"/>
</clipPath>
</defs>
</svg>
