<svg width="1000" height="835" viewBox="0 0 1000 835" fill="none" xmlns="http://www.w3.org/2000/svg">
<g clip-path="url(#clip0_463_562)">
<path d="M677.952 0C810.485 0.000411926 917.925 107.442 917.925 239.974L917.918 241.675C917.804 258.011 916.047 274 912.797 289.468L964.909 341.58C968.15 344.82 971.062 348.327 973.626 352.047C989.525 372.959 999.274 398.986 999.961 427.151L999.989 428.636L999.993 429.116L999.998 429.838C999.999 430.003 1000 430.169 1000 430.335C999.999 501.813 942.044 559.722 870.598 559.723H870.596C857.134 559.722 844.146 557.655 831.939 553.833V597.83C831.938 654.311 786.142 700.118 729.65 700.119H677.711C680.731 709.251 682.465 718.81 682.82 728.518L682.858 729.712L682.874 730.637L682.883 731.321C682.887 731.636 682.889 731.951 682.889 732.265C682.888 759.523 672.011 785.906 652.225 805.288C652.002 805.507 651.776 805.724 651.55 805.94C632.473 824.315 606.935 834.637 580.278 834.552L580.279 834.553H252.872C197.756 835.855 151.191 793.067 148.311 737.571V737.568C147.633 724.488 149.446 711.851 153.332 700.118H103.248C101.198 700.157 99.1225 700.143 97.0012 700.064C96.9095 700.061 96.8176 700.057 96.7259 700.053L96.5618 700.046C94.9429 699.981 93.3261 699.862 91.7149 699.691L91.6641 699.685C91.6514 699.684 91.6387 699.683 91.626 699.681L91.5528 699.674C39.3466 694.169 -0.0724424 650.104 0.000976418 597.804L0 209.459H0.00195284C-0.0291097 155.942 41.2749 111.247 94.9068 107.377C95.1781 107.357 95.4497 107.34 95.7211 107.323L95.768 107.32L95.8598 107.314L95.9076 107.311L96.4583 107.28C98.8536 107.154 101.182 107.123 103.456 107.171H478.073C521.033 42.629 594.45 0.000271932 677.952 0Z" fill="#000813"/>
<path fill-rule="evenodd" clip-rule="evenodd" d="M191.905 473.436C211.12 473.436 226.675 488.989 226.675 508.205C226.675 527.42 211.12 542.974 191.905 542.974C172.69 542.974 157.137 527.42 157.137 508.205C157.137 488.989 172.69 473.436 191.905 473.436Z" fill="#DFFF03"/>
<path fill-rule="evenodd" clip-rule="evenodd" d="M264.077 480.908C264.94 480.876 265.776 480.875 266.636 480.904H356.897C363.944 480.996 370.675 483.816 375.685 488.751L376.169 489.237C381.102 494.32 383.835 501.121 383.835 508.205C383.835 515.511 380.926 522.517 375.696 527.647L375.697 527.648C370.524 532.75 363.513 535.591 356.214 535.504L266.674 535.505C251.681 536.191 238.909 524.639 238.13 509.624C237.349 494.558 248.934 481.693 264.005 480.911L264.041 480.909L264.077 480.908Z" fill="#DFFF03"/>
<path fill-rule="evenodd" clip-rule="evenodd" d="M420.917 480.908C421.78 480.876 422.617 480.875 423.477 480.904H655.641C662.688 480.996 669.419 483.816 674.429 488.751L674.913 489.237C679.846 494.32 682.579 501.121 682.579 508.205C682.579 515.511 679.67 522.517 674.44 527.647L674.441 527.648C669.268 532.75 662.258 535.591 654.959 535.504L423.515 535.505C408.522 536.191 395.75 524.639 394.971 509.624C394.19 494.558 405.774 481.693 420.844 480.911L420.881 480.909L420.917 480.908Z" fill="#DFFF03"/>
<path d="M191.909 368.875C211.124 368.875 226.679 384.429 226.679 403.644C226.678 422.86 211.124 438.413 191.909 438.413C172.694 438.413 157.141 422.859 157.14 403.644C157.14 384.429 172.693 368.875 191.909 368.875Z" fill="#DFFF03"/>
<path d="M264.08 376.347C264.947 376.315 265.784 376.315 266.64 376.344H356.901C363.947 376.436 370.679 379.254 375.689 384.19L376.173 384.675C381.106 389.759 383.839 396.561 383.839 403.644C383.839 410.95 380.93 417.956 375.699 423.085L375.7 423.086C370.528 428.188 363.518 431.031 356.218 430.944L266.678 430.945C251.685 431.63 238.913 420.078 238.134 405.064C237.353 389.998 248.936 377.132 264.007 376.35L264.044 376.348L264.08 376.347Z" fill="#DFFF03"/>
<path fill-rule="evenodd" clip-rule="evenodd" d="M192.81 264.325C211.611 264.801 226.681 280.168 226.681 299.083C226.681 317.998 211.61 333.365 192.81 333.84L191.913 333.852C172.698 333.852 157.144 318.299 157.143 299.083C157.143 279.867 172.697 264.314 191.913 264.313L192.81 264.325Z" fill="#DFFF03"/>
<path d="M264.084 271.787C264.947 271.755 265.784 271.754 266.644 271.783H356.904C363.95 271.875 370.682 274.693 375.693 279.629L376.176 280.114C381.11 285.198 383.843 292 383.843 299.083C383.842 306.389 380.934 313.395 375.703 318.525L375.704 318.526C370.531 323.628 363.52 326.47 356.221 326.383L266.681 326.383C251.688 327.069 238.917 315.517 238.138 300.503C237.357 285.436 248.94 272.572 264.011 271.789L264.048 271.787L264.084 271.787Z" fill="#DFFF03"/>
<path fill-rule="evenodd" clip-rule="evenodd" d="M677.951 74.9888C769.069 74.9891 842.935 148.856 842.935 239.974C842.935 265.027 837.347 288.788 827.346 310.068L911.884 394.605L911.745 394.74C919.859 404.108 924.832 416.284 925.006 429.612L925.011 430.334C925.01 460.379 900.647 484.734 870.597 484.734C854.115 484.734 839.342 477.399 829.372 465.836L756.949 393.412V597.828C756.949 612.901 744.721 625.13 729.649 625.13H517.583L553.342 704.963H580.961C588.008 705.055 594.739 707.875 599.749 712.81L600.233 713.296C605.006 718.215 607.721 724.743 607.891 731.579L607.9 732.264C607.9 739.576 604.987 746.588 599.749 751.719L599.748 751.718C594.577 756.812 587.572 759.651 580.278 759.564L251.743 759.565C236.75 760.25 223.978 748.699 223.199 733.684C222.417 718.618 234.002 705.752 249.073 704.97L249.109 704.968L249.145 704.967C250.008 704.935 250.845 704.934 251.706 704.963H278.597L314.355 625.129H102.363C101.493 625.159 100.647 625.158 99.7748 625.126L99.6103 625.119L99.4478 625.102C85.4751 623.644 74.9178 611.838 74.9886 597.804V209.459C74.9587 195.143 86.0083 183.203 100.303 182.171L100.35 182.168L100.398 182.166C101.066 182.13 101.708 182.129 102.372 182.159H523.385C546.811 119.558 607.175 74.989 677.951 74.9888ZM338.528 704.963H493.399L458.056 625.129H373.872L338.528 704.963ZM129.59 570.528H702.352V403.163C695.866 404.125 689.258 404.708 682.552 404.892C682.241 411.744 679.375 418.248 674.444 423.085L674.445 423.086C669.272 428.188 662.262 431.031 654.962 430.944L423.518 430.945C408.526 431.63 395.753 420.079 394.974 405.064C394.193 389.997 405.777 377.132 420.848 376.35L420.885 376.348L420.921 376.347C421.788 376.315 422.624 376.315 423.481 376.344H585.071C565.877 363.247 549.591 346.206 537.381 326.383H423.522C408.53 327.069 395.757 315.518 394.978 300.503C394.197 285.436 405.781 272.572 420.852 271.789L420.888 271.787L420.925 271.787C421.788 271.755 422.625 271.754 423.485 271.783H516.035C514.023 261.487 512.967 250.852 512.967 239.974L512.981 237.841C512.985 237.48 512.994 237.12 513.001 236.76H129.59V570.528ZM797.847 352.608C796.24 354.283 794.598 355.918 792.928 357.517L868.981 433.572L869.114 433.696C870.51 434.938 872.635 434.885 873.947 433.574L874.066 433.448C875.256 432.127 875.233 429.996 873.922 428.685L797.847 352.608ZM567.312 273.137C582.346 319.931 626.257 353.864 677.948 353.864C729.639 353.863 773.547 319.93 788.583 273.138C752.133 292.911 715.003 303.086 677.948 303.086C640.894 303.086 603.762 292.91 567.312 273.137ZM643.656 224.896C632.954 228.027 619.62 232.918 608.601 237.678C619.678 242.663 633.035 247.981 643.707 251.275C643.571 250.47 643.447 249.666 643.337 248.877C642.772 244.851 642.466 240.683 642.466 237.627L642.48 236.438C642.547 233.577 642.845 230.147 643.343 226.821C643.439 226.185 643.542 225.541 643.656 224.896ZM712.239 224.895C712.353 225.54 712.458 226.185 712.554 226.821C713.123 230.622 713.431 234.559 713.431 237.627L713.417 238.823C713.35 241.723 713.055 245.354 712.56 248.877C712.45 249.666 712.325 250.469 712.188 251.274C722.859 247.98 736.21 242.659 747.294 237.674C736.283 232.914 722.944 228.025 712.239 224.895ZM677.948 121.39C626.254 121.39 582.342 155.327 567.309 202.124C640.385 162.57 715.507 162.571 788.588 202.125C773.557 155.326 729.643 121.39 677.948 121.39Z" fill="#DFFF03"/>
</g>
<defs>
<clipPath id="clip0_463_562">
<rect width="1000" height="834.58" fill="white"/>
</clipPath>
</defs>
</svg>
