<svg width="1000" height="1243" viewBox="0 0 1000 1243" fill="none" xmlns="http://www.w3.org/2000/svg">
<g clip-path="url(#clip0_278_486)">
<path d="M277.8 15.3737C355.648 -21.2362 448.45 9.65236 488.567 85.9196L489.509 87.739L490.473 89.6589C494.974 98.7685 498.512 108.036 501.144 117.365C505.41 117.379 509.657 117.468 513.886 117.633C517.101 107.824 521.328 98.1489 526.625 88.7331L526.625 88.7312C568.172 14.8731 660.937 -15.2156 738.622 23.8767L740.454 24.8122L741.72 25.4792L742.651 25.9763L743.965 26.6892C744.091 26.7582 744.215 26.8296 744.34 26.8991L744.342 26.8972C905.178 116.137 1005.34 285.275 1005.34 469.377V508.092C1005.34 594.217 937.236 664.613 852.013 668.309V699.354C852.013 798.284 811.165 887.304 745.684 951.049C798.646 988.183 827.303 1055.76 808.797 1124.06L808.338 1125.74C788.57 1196.84 724.24 1243.02 654.074 1243.02H654.071C634.932 1243.02 618.279 1238.81 617.249 1238.58C617.164 1238.57 617.08 1238.55 616.996 1238.53L616.948 1238.52C615.244 1238.13 613.548 1237.71 611.862 1237.26L611.815 1237.24C611.734 1237.22 611.652 1237.2 611.571 1237.18C537.144 1216.85 462.805 1216.89 388.918 1237.15L388.917 1237.14C388.55 1237.24 388.182 1237.34 387.813 1237.44L387.814 1237.44C304.027 1259.57 216.889 1211.16 192.401 1127.01L192.4 1127.01L192.395 1126.99C192.35 1126.84 192.307 1126.69 192.263 1126.54C192.197 1126.31 192.129 1126.08 192.064 1125.85C192.029 1125.73 191.995 1125.6 191.96 1125.48C191.942 1125.41 191.925 1125.35 191.907 1125.29L191.902 1125.27C191.764 1124.77 191.629 1124.28 191.498 1123.78C173.965 1057.4 200.705 988.922 254.412 951.153C188.868 887.4 147.976 798.336 147.976 699.354V668.318C62.7559 664.616 -5.34313 594.219 -5.34326 508.097V469.386C-5.34326 276.52 102.599 102.966 274.756 16.8454C275.374 16.5357 275.995 16.2324 276.619 15.9333V15.9314C276.831 15.8294 277.045 15.7305 277.257 15.6296C277.434 15.5463 277.609 15.461 277.786 15.3786L277.8 15.3718V15.3737Z" fill="#000813"/>
<path d="M499.998 237.354C627.998 237.354 732.013 341.373 732.013 469.375V699.347C732.013 813.612 648.966 908.338 540.37 927.594V1022.46C580.346 1025.15 620.663 1031.69 660.652 1042.42L664.583 1043.48L664.589 1043.48L664.597 1043.49C685.949 1049.53 698.895 1071.7 692.848 1093.13L692.849 1093.13C688.005 1111.3 671.842 1123.02 654.073 1123.02C650.36 1123.02 646.688 1122.19 643.28 1121.43L643.232 1121.42L643.185 1121.41C548.103 1095.44 451.887 1095.44 357.187 1121.41L357.178 1121.41L357.169 1121.41C335.782 1127.06 313.585 1114.56 307.529 1093.16L307.524 1093.14L307.519 1093.13C301.87 1071.74 314.376 1049.54 335.773 1043.49L335.787 1043.48C377.065 1032.12 418.343 1025.24 459.62 1022.46V927.594C351.023 908.339 267.976 813.609 267.976 699.347V469.375C267.976 341.375 371.995 237.354 499.998 237.354ZM580.957 1106.07C581.705 1106.19 582.454 1106.3 583.203 1106.42L580.958 1106.07C580.209 1105.96 579.46 1105.84 578.712 1105.73L580.957 1106.07ZM560.74 1103.37L558.493 1103.11C558.204 1103.08 557.916 1103.05 557.628 1103.02C558.665 1103.13 559.703 1103.25 560.74 1103.37ZM446.127 1102.64C445.385 1102.71 444.643 1102.79 443.901 1102.87C445.391 1102.71 446.881 1102.56 448.371 1102.41L446.127 1102.64ZM452.86 1101.99C452.215 1102.05 451.57 1102.11 450.924 1102.17C452.318 1102.04 453.711 1101.91 455.105 1101.8L452.86 1101.99ZM660.121 1044.39C661.427 1044.75 662.733 1045.1 664.039 1045.46V1045.46C661.428 1044.74 658.815 1044.04 656.201 1043.36L660.121 1044.39ZM547.762 924.068C544.637 924.734 541.489 925.336 538.32 925.873V1024.38H538.321V925.873C541.49 925.336 544.638 924.734 547.762 924.068ZM499.998 318.109C416.424 318.109 348.731 385.801 348.731 469.375V699.347C348.731 782.921 416.423 850.613 499.998 850.613C583.572 850.612 651.263 782.921 651.263 699.347V469.375C651.263 385.802 583.572 318.109 499.998 318.109ZM653.152 706.378C653.11 707.32 653.06 708.259 653.001 709.197L653.002 709.198C653.061 708.26 653.11 707.32 653.152 706.378ZM653.222 704.619C653.237 704.184 653.249 703.747 653.26 703.311C653.249 703.747 653.237 704.184 653.222 704.619ZM538.706 620.634C560.919 620.634 579.084 638.799 579.084 661.012C579.083 683.225 560.918 701.389 538.706 701.389H461.666C439.453 701.389 421.288 683.225 421.288 661.012C421.288 638.799 439.453 620.634 461.666 620.634H538.706ZM653.3 701.149C653.307 700.549 653.312 699.948 653.312 699.347C653.312 699.948 653.307 700.549 653.3 701.149ZM328.547 124.107C348.71 114.428 372.529 122.494 382.619 142.27C392.741 162.108 384.216 186.316 364.477 196.387L364.47 196.391L364.463 196.394C260.134 248.555 195.412 353.256 195.412 469.379V508.09C195.412 530.303 177.248 548.468 155.035 548.468C132.822 548.468 114.657 530.303 114.657 508.09V469.379C114.657 322.177 196.736 190.009 328.517 124.121L328.532 124.114L328.547 124.107ZM631.214 147.557C641.934 128.5 665.578 121.147 685.186 131.321L686.117 131.818L686.122 131.821C809.035 200.019 885.343 329.105 885.343 469.369V508.081C885.343 530.294 867.178 548.458 844.965 548.458C822.753 548.458 804.588 530.294 804.588 508.081V469.369C804.587 358.574 744.426 256.164 646.962 202.483L646.953 202.479L646.945 202.474C627.59 191.586 620.294 166.971 631.214 147.557ZM177.184 539.324H177.185C177.436 539.145 177.684 538.963 177.93 538.779H177.929C177.683 538.963 177.435 539.145 177.184 539.324ZM883.096 511.972C883.126 511.685 883.15 511.397 883.172 511.108C883.15 511.397 883.126 511.685 883.096 511.972ZM883.191 510.867C883.21 510.611 883.226 510.355 883.24 510.098C883.226 510.355 883.21 510.611 883.191 510.867ZM806.678 509.849C806.683 509.942 806.687 510.035 806.692 510.127C806.687 510.035 806.683 509.942 806.678 509.849ZM883.28 466.11C883.289 467.196 883.294 468.282 883.294 469.369V508.08C883.294 508.727 883.277 509.369 883.245 510.008C883.261 509.695 883.274 509.382 883.282 509.067C883.29 508.739 883.295 508.411 883.295 508.081V469.369C883.295 468.282 883.289 467.196 883.28 466.11ZM806.649 509.067C806.651 509.127 806.654 509.187 806.656 509.247C806.653 509.154 806.649 509.061 806.647 508.968L806.649 509.067ZM806.592 464.147C806.578 463.298 806.559 462.45 806.538 461.603C806.559 462.45 806.578 463.298 806.592 464.147ZM806.523 461.098C806.506 460.472 806.488 459.846 806.467 459.22C806.488 459.846 806.506 460.472 806.523 461.098ZM806.435 458.309C806.416 457.784 806.396 457.26 806.375 456.736C806.396 457.26 806.416 457.784 806.435 458.309ZM806.337 455.837C806.313 455.307 806.288 454.777 806.262 454.247C806.288 454.777 806.313 455.307 806.337 455.837ZM806.216 453.344C806.189 452.826 806.16 452.307 806.13 451.789C806.16 452.307 806.189 452.826 806.216 453.344ZM806.077 450.844C806.048 450.364 806.016 449.884 805.985 449.404C806.016 449.884 806.048 450.364 806.077 450.844ZM796.951 392.857C797.163 393.68 797.372 394.504 797.577 395.329C797.987 396.98 798.384 398.634 798.767 400.293H798.768C798.193 397.805 797.587 395.326 796.951 392.857ZM780.283 344.944H780.284C779.948 344.186 779.607 343.43 779.264 342.675C779.607 343.43 779.947 344.186 780.283 344.944ZM779.185 342.499C778.877 341.82 778.565 341.141 778.252 340.464C778.565 341.142 778.877 341.82 779.185 342.499ZM778.102 340.143C777.776 339.441 777.45 338.74 777.119 338.041C777.45 338.74 777.777 339.441 778.102 340.143ZM774.915 333.486V333.485C774.591 332.829 774.264 332.176 773.935 331.523C774.264 332.176 774.591 332.83 774.915 333.486ZM773.556 330.772C773.31 330.284 773.061 329.798 772.812 329.312C773.062 329.798 773.31 330.284 773.556 330.772ZM772.533 328.767C772.181 328.084 771.827 327.403 771.47 326.723C771.827 327.403 772.181 328.084 772.533 328.767ZM494.068 316.173C493.464 316.196 492.861 316.223 492.258 316.253C492.861 316.223 493.465 316.196 494.069 316.173H494.068ZM758.807 304.839C758.383 304.171 757.955 303.506 757.526 302.841C757.955 303.506 758.383 304.171 758.807 304.839ZM754.659 298.484C755.577 299.854 756.485 301.232 757.381 302.617C756.044 300.551 754.682 298.501 753.296 296.467C753.753 297.138 754.207 297.81 754.659 298.484ZM697.272 234.506L697.072 234.336C696.924 234.212 696.774 234.088 696.626 233.964C696.841 234.145 697.057 234.325 697.272 234.506ZM695.755 233.24C695.481 233.012 695.207 232.785 694.931 232.558C695.207 232.785 695.481 233.012 695.755 233.24ZM694.07 231.852C693.833 231.659 693.597 231.465 693.36 231.273C693.597 231.465 693.833 231.659 694.07 231.852ZM692.668 230.714C692.248 230.375 691.827 230.037 691.405 229.7C691.827 230.037 692.248 230.375 692.668 230.714ZM690.736 229.166C690.289 228.811 689.84 228.457 689.39 228.104C689.84 228.457 690.289 228.811 690.736 229.166ZM688.838 227.671C688.425 227.349 688.011 227.027 687.596 226.706C688.011 227.027 688.425 227.349 688.838 227.671ZM686.792 226.084C686.208 225.636 685.621 225.19 685.034 224.745C685.621 225.19 686.208 225.636 686.792 226.084ZM658.372 206.698C658.205 206.597 658.038 206.498 657.872 206.398C658.038 206.498 658.205 206.597 658.372 206.698ZM656.761 205.734C656.583 205.628 656.405 205.522 656.226 205.416C656.405 205.522 656.583 205.628 656.761 205.734ZM349.041 202.293C348.422 202.644 347.805 202.996 347.189 203.351C347.805 202.996 348.422 202.644 349.041 202.293ZM651.669 202.771C651.337 202.582 651.004 202.394 650.672 202.206C651.004 202.394 651.337 202.582 651.669 202.771ZM350.326 201.569C349.897 201.809 349.468 202.051 349.041 202.293C349.468 202.051 349.897 201.809 350.326 201.569ZM647.95 200.689C648.666 201.083 649.38 201.481 650.092 201.88C649.38 201.48 648.666 201.082 647.95 200.688V200.689ZM357.202 197.825C356.181 198.364 355.163 198.908 354.15 199.458C354.705 199.157 355.262 198.857 355.82 198.559L357.202 197.825ZM358.653 197.062C358.472 197.156 358.292 197.251 358.112 197.346C358.396 197.197 358.68 197.049 358.964 196.901L358.653 197.062ZM363.547 194.562L364.406 194.11C364.408 194.109 364.409 194.108 364.411 194.107C364.125 194.261 363.837 194.414 363.547 194.562ZM638.851 193.612C639.068 193.84 639.288 194.065 639.511 194.288C639.065 193.842 638.631 193.385 638.21 192.919L638.851 193.612ZM628.492 162.086C628.411 162.703 628.346 163.321 628.297 163.939L628.383 163.012C628.416 162.703 628.452 162.395 628.492 162.086ZM320.638 130.491C321.532 130.016 322.427 129.543 323.325 129.075L323.348 129.062C322.442 129.534 321.539 130.012 320.638 130.491Z" fill="#DFFF03"/>
</g>
<defs>
<clipPath id="clip0_278_486">
<rect width="1000" height="1243" fill="white" transform="translate(0 0.0078125)"/>
</clipPath>
</defs>
</svg>
