<svg width="1000" height="726" viewBox="0 0 1000 726" fill="none" xmlns="http://www.w3.org/2000/svg">
<g clip-path="url(#clip0_320_849)">
<path d="M843.796 1.01367C930.067 1.01381 1000 70.9573 1000 157.218V569.76C1000 656.121 929.967 725.964 843.764 725.964H156.204C69.9384 725.964 0 656.026 0 569.76V157.218C5.45588e-05 70.9523 69.9385 1.01372 156.204 1.01367H843.796Z" fill="#000813"/>
<path d="M843.796 129.699H156.205C141.025 129.699 128.713 142.011 128.713 157.191V569.733C128.713 584.913 141.025 597.225 156.205 597.225H843.763C858.976 597.225 871.287 584.913 871.287 569.733V157.191C871.287 142.011 858.976 129.699 843.796 129.699ZM183.729 184.684H262.628C252.637 223.263 222.309 253.591 183.729 263.582V184.684ZM183.729 542.242V463.343C222.277 473.334 252.637 503.663 262.628 542.242H183.729ZM816.271 542.242H737.373C747.364 503.695 777.692 473.334 816.271 463.343V542.242ZM816.271 407.2C747.331 418.836 692.897 473.271 681.263 542.242H318.738C307.103 473.302 252.667 418.867 183.696 407.2V319.725C252.636 308.09 307.071 253.654 318.738 184.684H681.263C692.898 253.623 747.334 308.058 816.271 319.692V407.2ZM816.271 263.586C777.692 253.595 747.364 223.267 737.373 184.688H816.271V263.586ZM506.156 336.78C468.93 328.401 465.642 324.468 465.642 315.347C465.642 305.614 480.339 294.72 500 294.72C517.694 294.72 530.521 303.326 533.615 311.415C546.862 346.029 598.236 326.369 584.99 291.755C575.998 268.259 554.307 250.597 527.491 243.313L527.524 239.703C527.524 224.524 515.212 212.212 500.032 212.212C484.819 212.212 472.508 224.524 472.508 239.703V243.41C436.636 253.24 410.627 281.763 410.627 315.347C410.627 371.62 462.839 383.384 494.067 390.443C531.1 398.79 534.419 402.658 534.419 411.586C534.419 421.319 519.722 432.213 500.029 432.213C482.335 432.213 469.508 423.607 466.414 415.518C453.103 380.743 401.729 400.37 415.039 435.178C424.031 458.674 445.722 476.336 472.57 483.588L472.505 487.23C472.505 502.41 484.817 514.721 500.029 514.721C515.209 514.721 527.521 502.41 527.521 487.23V483.523C563.393 473.693 589.37 445.17 589.37 411.586C589.37 355.57 537.29 343.807 506.156 336.78Z" fill="#DFFF03"/>
</g>
<defs>
<clipPath id="clip0_320_849">
<rect width="1000" height="725" fill="white" transform="translate(0 0.988281)"/>
</clipPath>
</defs>
</svg>
