<svg width="1000" height="1001" viewBox="0 0 1000 1001" fill="none" xmlns="http://www.w3.org/2000/svg">
<g clip-path="url(#clip0_320_845)">
<path d="M770.024 0.914062C897.058 0.914062 1000 103.856 1000 230.89V770.936L999.995 772.424C999.195 898.771 896.562 1000.91 770.024 1000.91H449.751C419.621 1000.91 391.375 992.698 367.156 978.378C342.941 992.7 314.69 1000.92 284.531 1000.92C171.963 1000.92 78.239 920.031 58.4188 813.145C22.695 783.314 0 738.438 0 688.349L0.0135498 686.248C0.445729 652.146 11.3838 620.58 29.7388 594.634C11.0011 568.133 0.000320678 535.788 0 500.917C0 466.045 11.0007 433.699 29.7388 407.197C11.0075 380.719 0 348.388 0 313.482L0.0135498 311.386C0.636921 262.142 23.1938 218.1 58.4188 188.685C78.2394 81.7993 171.964 0.914354 284.531 0.914062H770.024ZM283.288 933.41C283.687 933.416 284.086 933.418 284.486 933.418C284.087 933.418 283.687 933.413 283.288 933.41Z" fill="#000813"/>
<path d="M770.024 129.629C825.972 129.629 871.287 174.944 871.287 230.892V770.938C871.287 826.885 825.971 872.2 770.024 872.2H449.751C431.113 872.2 415.986 857.105 415.986 838.466C415.986 819.828 431.113 804.701 449.751 804.701H770.024C778.979 804.701 787.587 801.156 793.916 794.828C800.245 788.499 803.789 779.892 803.789 770.937V230.891C803.789 221.936 800.245 213.328 793.916 206.999C787.588 200.669 778.98 197.126 770.024 197.126H284.531C265.892 197.126 250.798 212.252 250.798 230.891V279.718H271.62C290.258 279.718 305.385 294.844 305.385 313.483C305.385 332.121 290.258 347.217 271.62 347.217H250.798V467.152H271.62C290.258 467.152 305.385 482.278 305.385 500.917C305.385 519.556 290.258 534.682 271.62 534.682H250.798V654.617H271.62C290.258 654.617 305.384 669.712 305.385 688.35C305.385 706.989 290.258 722.116 271.62 722.116H250.798V770.943C250.798 789.582 265.892 804.708 284.531 804.708C303.201 804.708 318.296 819.834 318.296 838.473C318.296 857.112 303.201 872.206 284.531 872.206C228.615 872.206 183.268 826.89 183.268 770.943V722.116H162.446C143.807 722.116 128.713 706.99 128.713 688.351C128.713 669.713 143.807 654.619 162.446 654.618H183.268V534.683H162.446C143.807 534.683 128.713 519.556 128.713 500.918C128.713 482.279 143.807 467.153 162.446 467.153H183.268V347.217H162.446C143.807 347.216 128.713 332.122 128.713 313.484C128.713 294.845 143.807 279.719 162.446 279.719H183.268V230.892C183.268 174.945 228.615 129.629 284.531 129.629H770.024ZM550.222 314.746C588.293 314.747 622.374 338.354 635.728 374.017C649.114 409.68 638.956 449.9 610.255 474.931C641.203 484.424 668.291 503.57 687.594 529.55C706.865 555.564 717.34 587.05 717.435 619.422C717.403 656.479 687.404 686.509 650.349 686.572H558.896C540.258 686.572 525.163 671.446 525.163 652.807C525.163 634.169 540.258 619.042 558.896 619.042H650.349C649.75 572.463 611.804 535.027 565.224 535.027H534.845C488.296 535.157 450.575 572.874 450.449 619.423C459.53 619.202 468.327 622.65 474.814 629.011C481.302 635.372 484.94 644.106 484.909 653.188C484.845 662.27 481.112 670.942 474.562 677.239C467.98 683.536 459.151 686.89 450.069 686.573C413.012 686.51 382.982 656.447 382.951 619.391C383.046 587.018 393.514 555.53 412.817 529.55C432.12 503.537 459.209 484.393 490.189 474.931C461.488 449.9 451.33 409.68 464.683 374.017C478.04 338.354 512.123 314.746 550.222 314.746ZM550.196 382.785C537.127 382.88 526.558 393.512 526.558 406.613C526.558 416.265 532.412 424.967 541.336 428.638C550.259 432.309 560.513 430.252 567.316 423.385C574.119 416.518 576.113 406.235 572.348 397.342C568.613 388.45 559.848 382.69 550.196 382.785Z" fill="#DFFF03"/>
</g>
<defs>
<clipPath id="clip0_320_845">
<rect width="1000" height="1000" fill="white" transform="translate(0 0.916016)"/>
</clipPath>
</defs>
</svg>
