<svg width="1000" height="934" viewBox="0 0 1000 934" fill="none" xmlns="http://www.w3.org/2000/svg">
<g clip-path="url(#clip0_320_790)">
<path d="M348.403 -0.70752C392.07 -0.707483 433.833 16.6588 464.603 47.4288L509.75 92.5751H651.575C707.109 92.5752 760.371 114.488 799.822 153.452L800.752 154.375L801.675 155.305C829.549 183.526 848.694 218.813 857.337 256.943C900.623 262.029 940.513 284.169 967.748 319.052L967.982 319.352L968.213 319.652C998.905 359.441 1009.93 411.344 997.47 460.524L997.275 461.295L919.41 753.573L919.381 753.681L919.352 753.787C890.796 860.243 794.357 934.206 684.21 934.303H244.486C179.612 935.164 117.148 910.145 70.7972 864.853L70.6991 864.758L70.6009 864.661C24.0346 818.965 -2.3989 756.428 -2.49612 690.995L-2.50098 -0.70752H348.403Z" fill="#000813"/>
<path d="M124.361 689.846C124.406 720.499 136.795 749.878 158.704 771.377C180.658 792.83 210.265 804.582 240.964 803.99H681.596C733.294 803.944 778.523 769.236 791.914 719.316L869.574 427.808C872.216 417.377 869.893 406.263 863.288 397.701C856.638 389.183 846.435 384.219 835.64 384.219H730.697V302.596C730.697 280.961 722.089 260.191 706.784 244.887C691.48 229.583 670.71 220.974 649.075 220.974H453.624L370.59 137.94H370.636C364.077 131.381 355.195 127.691 345.903 127.691H124.356L124.361 689.846ZM194.323 197.651H331.471L414.506 280.686H414.46C421.019 287.245 429.901 290.934 439.193 290.934H649.079C652.176 290.934 655.137 292.164 657.323 294.35C659.51 296.536 660.74 299.497 660.74 302.594V384.217H392.552C376.701 384.217 362.809 394.875 358.755 410.225L281.095 701.733C275.128 722.959 254.496 736.578 232.633 733.617C210.769 730.702 194.464 712.118 194.326 690.073L194.323 197.651ZM724.18 701.273C718.987 720.539 701.542 733.976 681.593 734.022H343.443C345.447 729.239 347.133 724.32 348.453 719.31L419.372 454.177H790.182L724.18 701.273Z" fill="#DFFF03"/>
</g>
<defs>
<clipPath id="clip0_320_790">
<rect width="1000" height="933" fill="white" transform="translate(0 0.308594)"/>
</clipPath>
</defs>
</svg>
