<svg width="1000" height="1000" viewBox="0 0 1000 1000" fill="none" xmlns="http://www.w3.org/2000/svg">
<g clip-path="url(#clip0_278_478)">
<path d="M503.152 0.00984584C587.125 0.531866 667.871 21.9427 739.217 60.8538C759.686 48.5969 782.914 40.4565 807.752 37.5717L808.812 37.4536L808.853 37.4492L810.695 37.2621C812.207 37.1197 813.722 37.0075 815.237 36.9164V36.9131L819.035 36.6845C819.062 36.6828 819.089 36.6807 819.116 36.679L819.476 36.6571C822.189 36.4923 824.907 36.4088 827.626 36.4088H827.671C915.706 36.4088 988.091 102.298 998.669 187.448C998.715 187.811 998.759 188.175 998.802 188.538C998.813 188.631 998.825 188.725 998.836 188.818C999.126 191.307 999.346 193.804 999.497 196.305L999.753 200.543C999.787 201.113 999.819 201.684 999.846 202.254L999.848 202.3C999.949 204.43 1000 206.562 1000 208.695V390.779C1000 424.619 990.263 456.148 973.439 482.742C991.557 516.605 998.521 556.712 990.477 597.364L990.479 597.365C984.108 629.612 974.563 661.125 961.982 691.433L961.983 691.434C936.793 752.179 899.872 807.225 853.549 853.549C761.252 945.845 636.249 999.16 503.145 999.988L499.999 999.998C223.866 999.998 0 776.132 0 499.999L0.00984584 496.765C1.74971 222.117 224.955 0 500.005 0L503.152 0.00984584Z" fill="#000813"/>
<path d="M500.005 134.428C598.255 134.428 690.417 173.413 758.5 241.503C769.73 252.733 780.192 264.657 789.849 277.205L789.77 208.74V208.738C789.77 189.311 804.398 173.293 823.261 171.102L823.301 171.098L823.343 171.096L827.581 170.84L827.626 170.837H827.671C847.097 170.837 863.115 185.465 865.306 204.328L865.311 204.369L865.313 204.41L865.569 208.648L865.572 208.694V390.777C865.571 410.203 850.943 426.222 832.08 428.412L832.04 428.417L831.998 428.419L827.76 428.675L827.715 428.678H645.632C624.698 428.678 607.731 411.71 607.731 390.776C607.731 371.35 622.36 355.332 641.222 353.141L641.263 353.137L641.304 353.134L645.542 352.878L645.587 352.875H749.688C737.284 331.865 722.229 312.451 704.902 295.096L703.632 293.834C649.74 240.595 577.324 210.231 499.999 210.231C339.975 210.231 210.232 339.974 210.232 499.998C210.232 660.022 339.975 789.766 499.999 789.767C577.933 789.767 650.88 758.924 704.902 704.901C731.814 677.989 753.235 646.039 767.808 610.892L768.482 609.253C775.395 592.297 780.684 574.683 784.247 556.592L784.449 555.634C788.928 535.63 808.583 522.75 828.784 526.773H828.783C849.331 530.831 862.686 550.759 858.6 571.308C853.944 594.871 846.976 617.862 837.807 639.94C819.414 684.295 792.425 724.562 758.494 758.493C690.407 826.579 598.241 865.568 499.999 865.569C298.109 865.569 134.428 701.888 134.428 499.998C134.429 298.108 298.116 134.428 500.005 134.428ZM580.612 779.966C580.865 779.893 581.117 779.82 581.369 779.747C581.117 779.82 580.865 779.893 580.612 779.966ZM585.908 778.39C586.055 778.345 586.202 778.3 586.349 778.255C586.202 778.3 586.055 778.345 585.908 778.39ZM590.968 776.782C591.135 776.727 591.302 776.672 591.469 776.617C591.302 776.672 591.135 776.727 590.968 776.782ZM593.733 775.86C593.928 775.794 594.123 775.726 594.318 775.66C594.123 775.726 593.928 775.794 593.733 775.86ZM595.838 775.136C596.096 775.046 596.354 774.956 596.612 774.865C596.354 774.956 596.096 775.046 595.838 775.136ZM741.56 772.397C741.685 772.287 741.809 772.176 741.934 772.065C741.809 772.176 741.685 772.287 741.56 772.397ZM743.472 770.688C743.769 770.421 744.064 770.152 744.359 769.885C744.064 770.152 743.769 770.421 743.472 770.688ZM745.438 768.904C745.712 768.654 745.985 768.403 746.259 768.152C745.985 768.403 745.712 768.654 745.438 768.904ZM747.42 767.08C747.7 766.821 747.979 766.562 748.257 766.302C747.979 766.562 747.7 766.821 747.42 767.08ZM749.299 765.325C749.635 765.009 749.971 764.693 750.306 764.375C749.971 764.693 749.635 765.009 749.299 765.325ZM751.292 763.438C751.563 763.179 751.834 762.921 752.104 762.662C751.834 762.921 751.563 763.179 751.292 763.438ZM753.231 761.575C753.53 761.284 753.83 760.994 754.129 760.703C753.83 760.994 753.53 761.284 753.231 761.575ZM778.604 734.377C778.17 734.893 777.734 735.407 777.297 735.921C778.217 734.841 779.131 733.756 780.037 732.665L778.604 734.377ZM754.357 642.031L755.225 640.47C755.328 640.282 755.429 640.094 755.532 639.906C755.143 640.616 754.753 641.325 754.357 642.031ZM818.452 527.649V527.65C818.75 527.626 819.049 527.605 819.349 527.588V527.587C819.049 527.604 818.75 527.624 818.452 527.649ZM210.852 464.728C210.778 465.337 210.707 465.946 210.637 466.555L210.853 464.728C210.926 464.12 211.001 463.512 211.078 462.905L210.852 464.728ZM221.306 415.102C220.784 416.816 220.279 418.538 219.789 420.265L220.284 418.54C220.618 417.391 220.959 416.245 221.307 415.102H221.306ZM863.908 394.303C863.914 394.24 863.919 394.178 863.925 394.115C863.919 394.178 863.914 394.24 863.908 394.303ZM863.978 393.486C863.983 393.417 863.987 393.349 863.992 393.28C863.987 393.349 863.983 393.417 863.978 393.486ZM791.279 207.675C791.277 207.77 791.273 207.864 791.272 207.959C791.273 207.864 791.276 207.77 791.279 207.675ZM791.303 206.998C791.301 207.055 791.299 207.111 791.297 207.168C791.301 207.078 791.304 206.988 791.309 206.899C791.307 206.932 791.305 206.965 791.303 206.998ZM791.355 206.135C791.35 206.202 791.346 206.27 791.342 206.337C791.346 206.27 791.35 206.202 791.355 206.135ZM791.425 205.279C791.422 205.305 791.42 205.33 791.418 205.355C791.425 205.282 791.433 205.21 791.44 205.137C791.435 205.185 791.429 205.232 791.425 205.279ZM791.523 204.369C791.517 204.42 791.51 204.471 791.505 204.522C791.51 204.471 791.517 204.42 791.523 204.369Z" fill="#DFFF03"/>
</g>
<defs>
<clipPath id="clip0_278_478">
<rect width="1000" height="1000" fill="white"/>
</clipPath>
</defs>
</svg>
