<svg width="1000" height="1000" viewBox="0 0 1000 1000" fill="none" xmlns="http://www.w3.org/2000/svg">
<g clip-path="url(#clip0_320_806)">
<path d="M1000 500C1000 223.981 776.019 0 500 0C225.059 1.30081e-05 1.75111 222.234 0.0106358 496.768L0 500C0 776.019 223.981 1000 500 1000C776.019 1000 1000 776.019 1000 500Z" fill="#000813"/>
<path d="M500 128.713C704.933 128.713 871.287 295.067 871.287 500C871.287 704.933 704.933 871.287 500 871.287C295.067 871.287 128.713 704.933 128.713 500C128.713 295.067 295.067 128.713 500 128.713ZM500 191.474C329.865 191.474 191.482 329.858 191.482 499.992C191.482 670.127 329.865 808.512 500 808.512C670.135 808.512 808.518 670.127 808.518 499.992C808.518 329.858 670.135 191.474 500 191.474ZM434.987 371.441C444.793 366.892 455.397 366.892 464.465 372.947L617.231 474.234C625.531 479.552 630.079 488.619 630.079 497.687C630.079 506.785 625.53 515.853 617.969 521.14L465.233 625.497C460.684 629.278 454.629 630.784 449.342 630.784C444.793 630.784 440.273 630.045 435.725 627.771L435.726 627.763C425.89 623.245 420.602 613.409 419.864 602.066V396.4C419.864 385.796 425.919 376.728 434.987 371.441Z" fill="#DFFF03"/>
</g>
<defs>
<clipPath id="clip0_320_806">
<rect width="1000" height="1000" fill="white"/>
</clipPath>
</defs>
</svg>
