<svg width="1000" height="927" viewBox="0 0 1000 927" fill="none" xmlns="http://www.w3.org/2000/svg">
<g clip-path="url(#clip0_344_616)">
<path d="M1000 658.85C1000 806.697 880.007 926.69 732.16 926.69H267.84C119.993 926.69 0 806.697 0 658.85V267.843C8.55031e-05 119.997 119.993 0.00399173 267.84 0.00390625H732.16C880.007 0.00399488 1000 119.997 1000 267.843V658.85Z" fill="#000813"/>
<path d="M878.789 267.846C878.789 186.943 813.064 121.219 732.161 121.219H267.84C186.937 121.219 121.213 186.943 121.213 267.846V658.853C121.213 739.756 186.937 805.481 267.84 805.481H732.161C813.064 805.481 878.789 739.756 878.789 658.853V267.846ZM538.613 194.533L591.021 316.722H462.869C448.216 316.722 434.995 308.035 429.123 294.48L386.214 194.533H538.613ZM805.475 658.853C805.475 699.281 772.589 732.167 732.161 732.167H267.84C227.413 732.167 194.527 699.281 194.527 658.853V267.846C194.527 227.419 227.413 194.533 267.84 194.533H306.455L361.678 323.308C379.053 363.736 418.764 390.035 462.723 390.035H683.141C683.141 390.035 684.239 390.035 684.859 389.796L687.914 389.414H688.869C689.966 389.414 691.064 389.653 692.067 389.796C693.021 389.796 693.88 390.035 694.883 390.035H805.331V658.852L805.475 658.853ZM805.475 316.722H695.026C680.373 316.722 667.152 308.035 661.281 294.48L618.372 194.533H732.113C772.541 194.533 805.427 227.419 805.427 267.846V316.722H805.475Z" fill="#DFFF03"/>
</g>
<defs>
<clipPath id="clip0_344_616">
<rect width="1000" height="926.69" fill="white" transform="translate(0 0.00390625)"/>
</clipPath>
</defs>
</svg>
