<svg width="1000" height="955" viewBox="0 0 1000 955" fill="none" xmlns="http://www.w3.org/2000/svg">
<g clip-path="url(#clip0_320_815)">
<path d="M502.277 0.975498C586.249 1.67748 663.713 46.5436 706.076 119.142L707.078 120.875L707.113 120.935L966.843 575.274C1011.72 653.742 1011.3 750.077 966.023 828.113C920.721 906.194 837.228 954.3 746.912 954.255L253.568 954.256C141.081 954.18 45.7052 880.733 12.7343 779.191L6.02078 760.004C-2.21071 729.773 -0.361331 718.294 0.761202 696.358C0.85289 652.427 43.4321 555.159 65.3185 516.879L293.427 120.961L293.451 120.918L293.476 120.875C335.945 46.679 414.87 0.966797 500.277 0.966797L502.277 0.975498Z" fill="#000813"/>
<path d="M500.035 129.305C539.32 129.305 575.615 150.33 595.144 184.449L854.874 638.789C876.941 677.353 876.76 724.749 854.466 763.173C832.173 801.597 791.075 825.251 746.67 825.206H253.413C184.678 825.159 128.9 769.385 128.854 700.647L128.841 700.639C128.886 678.934 134.55 657.638 145.335 638.789L404.926 184.449C424.455 150.33 460.75 129.305 500.035 129.305ZM500.048 198.728C485.639 198.728 472.363 206.477 465.249 218.983L205.657 673.368C195.915 690.406 196.012 711.295 205.845 728.241C215.723 745.188 233.848 755.61 253.422 755.61H746.679C766.254 755.61 784.379 745.187 794.257 728.241C804.09 711.294 804.181 690.406 794.439 673.368L534.848 218.983C527.734 206.477 514.458 198.728 500.048 198.728ZM465.245 651.21C465.245 604.811 534.844 604.811 534.844 651.21C534.844 697.609 465.245 697.609 465.245 651.21ZM534.844 558.411H465.245V372.815H534.844V558.411Z" fill="#DFFF03"/>
</g>
<defs>
<clipPath id="clip0_320_815">
<rect width="1000" height="954" fill="white" transform="translate(0 0.611328)"/>
</clipPath>
</defs>
</svg>
