<svg width="1000" height="936" viewBox="0 0 1000 936" fill="none" xmlns="http://www.w3.org/2000/svg">
<g clip-path="url(#clip0_262_482)">
<path d="M351.274 0.654297C402.002 0.654297 453.106 11.7561 500.316 34.0456C631.603 -27.783 793.753 -2.99381 900.255 108.479L906.394 115.064C1033.21 254.566 1031.17 470.873 900.255 607.899L900.231 607.923C816.309 695.724 733.295 782.822 649.215 870.826L649.072 870.977L648.921 871.128C610.063 911.591 556.311 934.662 499.894 934.662C443.592 934.662 389.622 911.694 350.581 870.834L350.525 870.77L350.47 870.714L99.43 607.446L99.4379 607.438C-33.5856 467.948 -32.851 247.069 99.8758 108.145L106.365 101.529C174.087 34.2607 262.887 0.654377 351.274 0.654297Z" fill="#000813"/>
<path d="M351.277 163.709C302.615 163.709 254.166 182.69 217.779 220.779C144.999 296.956 144.743 418.695 217.439 494.918L468.479 758.187C476.674 766.764 488.012 771.605 499.901 771.605C511.747 771.605 523.085 766.764 531.322 758.187C615.015 670.587 698.628 582.859 782.362 495.255C855.142 419.078 855.142 297.295 782.362 221.116C709.582 144.939 587.805 144.939 515.017 221.116L500.07 236.402L485.123 220.776C448.733 182.687 399.934 163.709 351.277 163.709ZM351.277 248.974C376.585 248.974 401.978 259.675 422.274 280.906L468.812 329.483C477.007 338.061 488.345 342.902 500.234 342.902C512.08 342.902 523.418 338.061 531.656 329.483L577.855 281.246C618.449 238.784 678.915 238.784 719.506 281.246C760.1 323.708 760.1 392.667 719.506 435.127C646.301 511.729 573.267 588.496 500.055 665.1L280.605 435.127C240.011 392.579 240.011 323.369 280.605 280.898C300.902 259.667 325.955 248.967 351.262 248.967L351.277 248.974Z" fill="#DFFF03"/>
</g>
<defs>
<clipPath id="clip0_262_482">
<rect width="1000" height="935" fill="white" transform="translate(0 0.654297)"/>
</clipPath>
</defs>
</svg>
