<svg width="1000" height="1255" viewBox="0 0 1000 1255" fill="none" xmlns="http://www.w3.org/2000/svg">
<g clip-path="url(#clip0_347_219)">
<path d="M995 1037.98C995 1157.25 897.545 1254.82 778.158 1254.82H221.842C102.569 1254.82 5.00006 1157.36 5 1037.98V276.084C5 156.825 102.432 59.2664 221.799 59.2432L281.719 59.2217C316.65 23.3094 365.442 0.727647 419.757 0.727539H580.197C634.504 0.727565 683.325 23.299 718.273 59.2422H778.158C897.431 59.2422 995 156.698 995 276.084V1037.98Z" fill="#000813"/>
<path d="M419.757 127.773C384.818 127.773 355.136 153.176 348.274 186.243L221.842 186.288C168.764 186.288 125 230.095 125 283.129V1045.02C125 1098.1 168.808 1141.86 221.842 1141.86H778.159C831.236 1141.86 875 1098.06 875 1045.02V283.129C875 230.052 831.192 186.288 778.159 186.288H651.68V186.243C644.817 153.131 615.137 127.773 580.197 127.773H419.757ZM418.643 191.235C419 191.19 419.401 191.235 419.757 191.235H580.188C586.026 191.235 589.77 194.844 589.77 200.772V227.466C589.77 233.393 586.026 237.315 580.188 237.315L419.757 237.27C413.919 237.27 410.176 233.349 410.176 227.421V200.727C410.176 195.156 413.429 191.636 418.643 191.19L418.643 191.235ZM221.841 249.66H350.281C359.818 278.984 387.583 300.644 419.804 300.644H580.235C612.456 300.644 640.221 278.985 649.758 249.66H778.199C797.184 249.66 811.623 264.055 811.623 283.129V1045.02C811.623 1064.14 797.184 1078.45 778.199 1078.45H221.836C202.851 1078.45 188.412 1064.14 188.412 1045.02V283.129C188.412 264.01 202.855 249.66 221.841 249.66ZM682.871 410.582C682.426 410.582 681.98 410.582 681.49 410.626L596.815 415.261C588.436 415.707 580.504 419.495 574.888 425.779C569.273 432.062 566.376 440.351 566.866 448.774C567.312 457.153 571.1 465.041 577.384 470.656C583.623 476.272 591.912 479.168 600.291 478.723L602.073 478.589L523.593 557.247L469.579 503.233C463.652 497.261 455.541 493.875 447.117 493.875C438.695 493.875 430.584 497.262 424.656 503.233L311.682 616.52V616.475C305.755 622.447 302.368 630.513 302.368 638.937C302.368 647.36 305.755 655.426 311.682 661.353C317.654 667.325 325.721 670.667 334.144 670.667C342.567 670.667 350.633 667.325 356.56 661.353L447.117 570.349L501.131 624.63V624.675C507.103 630.646 515.17 633.989 523.638 633.989C532.06 633.989 540.127 630.646 546.099 624.675L647.041 523.599L646.907 525.248C646.462 533.671 649.314 541.915 654.929 548.155C660.545 554.439 668.388 558.227 676.811 558.672C694.236 559.697 709.21 546.417 710.28 528.991L714.737 447.035L714.781 446.767H714.826C716.252 436.829 712.954 426.802 705.824 419.716C704.041 417.978 701.991 416.463 699.852 415.215C699.451 414.992 699.05 414.725 698.648 414.546C698.247 414.279 697.846 414.056 697.401 413.833C697.267 413.744 697.089 413.655 696.91 413.61C696.688 413.477 696.42 413.388 696.197 413.298C695.351 412.897 694.504 412.585 693.657 412.273C693.434 412.184 693.211 412.095 692.944 412.051C689.691 410.981 686.304 410.491 682.872 410.535L682.871 410.582ZM345.604 775.31C337.181 775.31 329.159 778.697 323.188 784.669C317.26 790.641 313.963 798.708 314.007 807.131C314.052 824.556 328.179 838.639 345.604 838.683H678.913C696.337 838.639 710.465 824.556 710.554 807.131C710.554 798.708 707.256 790.642 701.329 784.669C695.402 778.697 687.335 775.31 678.913 775.31H345.604ZM345.604 922.245C337.181 922.245 329.159 925.632 323.188 931.603C317.26 937.575 313.963 945.642 314.007 954.065C314.052 971.49 328.179 985.573 345.604 985.617H678.913C696.337 985.573 710.465 971.49 710.554 954.065C710.554 945.642 707.256 937.576 701.329 931.603C695.402 925.632 687.335 922.245 678.913 922.245H345.604Z" fill="#DFFF03"/>
</g>
<defs>
<clipPath id="clip0_347_219">
<rect width="1000" height="1254.09" fill="white" transform="translate(0 0.727539)"/>
</clipPath>
</defs>
</svg>
