<svg width="1000" height="1020" viewBox="0 0 1000 1020" fill="none" xmlns="http://www.w3.org/2000/svg">
<g clip-path="url(#clip0_360_504)">
<path d="M501.15 0.235352C501.667 -0.199937 502.457 -0.00841584 502.718 0.614258L613.801 266.421C613.9 266.657 614.087 266.847 614.321 266.95L785.374 342.109C786.357 342.542 786.06 344.009 784.985 344.024L605.901 346.602C605.258 346.611 604.791 347.217 604.945 347.842L620.984 412.476C621.097 412.93 621.51 413.245 621.979 413.234L703.511 411.313C704.256 411.296 704.758 412.07 704.438 412.743L651.259 524.335C651.043 524.787 651.196 525.329 651.615 525.603L733.447 578.99C733.798 579.219 734.255 579.205 734.591 578.955L822.642 513.349C823.13 512.985 823.827 513.139 824.118 513.673L839.379 541.72C839.768 542.434 840.801 542.41 841.156 541.678L856.89 509.258C857.088 508.848 856.983 508.355 856.64 508.057C827.514 482.778 817.699 440.218 835.34 403.865C856.423 360.42 908.735 342.29 952.181 363.372C995.627 384.455 1013.76 436.767 992.674 480.214C975.033 516.567 935.528 535.194 897.646 527.956C897.199 527.871 896.748 528.094 896.549 528.503L866.432 590.564C866.291 590.855 866.299 591.195 866.453 591.479L888.103 631.267C888.343 631.708 888.217 632.26 887.81 632.555L743.279 737.034C742.989 737.244 742.609 737.282 742.282 737.135L690.354 713.684C689.578 713.333 688.747 714.052 688.98 714.87L741.847 899.716C742.029 900.355 741.549 900.99 740.885 900.99H551.321C550.77 900.991 550.322 901.438 550.321 901.99V935.799C550.321 936.069 550.431 936.327 550.624 936.516L634.248 1017.85C634.891 1018.48 634.448 1019.57 633.551 1019.57H448.141C447.589 1019.57 447.141 1019.12 447.141 1018.57V901.99C447.14 901.438 446.693 900.99 446.141 900.99H339.651C339.1 900.991 338.652 901.438 338.651 901.99V935.799C338.651 936.069 338.761 936.327 338.954 936.516L422.578 1017.85C423.222 1018.48 422.778 1019.57 421.881 1019.57H236.471C235.919 1019.57 235.471 1019.12 235.471 1018.57V901.99C235.47 901.438 235.023 900.99 234.471 900.99H43.542C42.9014 900.99 42.426 900.397 42.5664 899.771L58.4844 828.925C58.5422 828.667 58.4953 828.396 58.3545 828.173L23.7695 773.254C23.5837 772.958 23.5658 772.587 23.7217 772.274L120.757 577.857C120.79 577.791 120.816 577.72 120.834 577.647L133.537 525.47C133.591 525.247 133.567 525.011 133.469 524.804L80.0664 412.743C79.7462 412.071 80.2474 411.296 80.9922 411.313L162.525 413.234C162.994 413.245 163.407 412.93 163.52 412.476L179.559 347.842C179.713 347.217 179.246 346.611 178.603 346.602L-0.482422 344.024C-1.55633 344.009 -1.85346 342.542 -0.870117 342.109L170.182 266.95C170.417 266.847 170.603 266.658 170.702 266.421L281.785 0.614258C282.046 -0.00851164 282.836 -0.19948 283.353 0.235352L391.606 91.5352C391.979 91.8491 392.523 91.8489 392.896 91.5352L501.15 0.235352ZM935.343 398.069C911.059 386.286 881.82 396.42 870.036 420.703C858.253 444.987 868.386 474.224 892.669 486.009C916.953 497.793 946.192 487.66 957.977 463.377C969.76 439.093 959.627 409.853 935.343 398.069ZM302.382 345.89C302.404 345.995 312.751 393.792 368.475 393.792C424.179 393.792 432.724 346.633 432.749 346.496L418.515 346.43C418.227 363.305 404.459 376.896 387.515 376.896C370.474 376.896 356.646 363.15 356.511 346.141L302.382 345.89ZM447.144 345.89C447.166 345.995 457.513 393.792 513.236 393.792C568.941 393.792 577.486 346.633 577.511 346.496L563.272 346.43C562.984 363.305 549.217 376.896 532.272 376.896C515.232 376.896 501.403 363.15 501.269 346.141L447.144 345.89Z" fill="#DFFF03"/>
</g>
<defs>
<clipPath id="clip0_360_504">
<rect width="1000" height="1019.57" fill="white"/>
</clipPath>
</defs>
</svg>
