<svg width="1000" height="1020" viewBox="0 0 1000 1020" fill="none" xmlns="http://www.w3.org/2000/svg">
<g clip-path="url(#clip0_360_582)">
<path d="M501.151 0.236328C501.668 -0.198858 502.458 -0.00759623 502.719 0.615234L613.802 266.421C613.901 266.658 614.087 266.848 614.321 266.951L785.375 342.109C786.358 342.542 786.061 344.01 784.987 344.025L605.901 346.603C605.258 346.612 604.791 347.218 604.945 347.843L620.984 412.477C621.097 412.931 621.511 413.246 621.979 413.235L703.511 411.313C704.256 411.296 704.758 412.071 704.438 412.744L651.259 524.335C651.043 524.787 651.196 525.33 651.615 525.604L733.447 578.99C733.798 579.219 734.255 579.204 734.591 578.954L822.643 513.349C823.13 512.985 823.827 513.138 824.118 513.672L839.379 541.719C839.768 542.433 840.802 542.41 841.157 541.678L856.89 509.259C857.088 508.849 856.984 508.355 856.64 508.057C827.514 482.778 817.699 440.219 835.34 403.866C856.423 360.42 908.734 342.291 952.181 363.373C995.627 384.456 1013.76 436.767 992.674 480.214C975.033 516.567 935.528 535.194 897.646 527.956C897.199 527.871 896.748 528.094 896.549 528.504L866.432 590.564C866.291 590.855 866.299 591.196 866.453 591.479L888.103 631.267C888.343 631.708 888.217 632.26 887.81 632.555L743.279 737.035C742.989 737.245 742.609 737.283 742.282 737.136L690.354 713.684C689.578 713.334 688.747 714.052 688.98 714.87L741.847 899.716C742.029 900.355 741.55 900.991 740.886 900.991H551.322C550.77 900.992 550.322 901.439 550.322 901.991V935.799C550.322 936.069 550.433 936.327 550.626 936.516L634.249 1017.85C634.892 1018.48 634.449 1019.57 633.552 1019.57H448.142C447.59 1019.57 447.142 1019.12 447.142 1018.57V901.991C447.141 901.439 446.694 900.991 446.142 900.991H339.651C339.1 900.992 338.652 901.439 338.651 901.991V935.8C338.651 936.07 338.762 936.328 338.955 936.517L422.578 1017.85C423.222 1018.48 422.778 1019.57 421.881 1019.57H236.471C235.919 1019.57 235.471 1019.12 235.471 1018.57V901.991C235.47 901.439 235.023 900.991 234.471 900.991H43.543C42.9025 900.991 42.4272 900.397 42.5674 899.772L58.4844 828.925C58.5421 828.667 58.4952 828.396 58.3545 828.173L23.7705 773.255C23.5846 772.959 23.5668 772.588 23.7227 772.275L120.757 577.857C120.79 577.791 120.816 577.72 120.834 577.647L133.537 525.471C133.591 525.247 133.568 525.011 133.469 524.804L80.0674 412.744C79.7472 412.072 80.2485 411.296 80.9932 411.313L162.525 413.235C162.993 413.246 163.407 412.931 163.52 412.477L179.56 347.843C179.714 347.218 179.247 346.612 178.604 346.603L-0.482422 344.025C-1.55623 344.009 -1.8535 342.542 -0.870117 342.109L170.183 266.951C170.418 266.848 170.603 266.658 170.702 266.421L281.785 0.615234C282.046 -0.00762392 282.836 -0.198614 283.353 0.236328L391.607 91.5352C391.98 91.8492 392.525 91.8492 392.897 91.5352L501.151 0.236328ZM935.344 398.069C911.06 386.286 881.821 396.42 870.037 420.703C858.254 444.987 868.387 474.225 892.67 486.01C916.954 497.794 946.193 487.661 957.978 463.377C969.761 439.093 959.628 409.853 935.344 398.069ZM302.383 345.89C302.398 345.962 312.733 393.792 368.476 393.792C424.202 393.792 432.732 346.596 432.75 346.496L418.515 346.43C418.227 363.305 404.46 376.897 387.516 376.897C370.475 376.897 356.646 363.15 356.512 346.141L302.383 345.89ZM447.145 345.89C447.16 345.962 457.495 393.792 513.237 393.792C568.963 393.792 577.494 346.596 577.512 346.496L563.272 346.43C562.985 363.305 549.218 376.897 532.273 376.897C515.232 376.897 501.404 363.15 501.27 346.141L447.145 345.89Z" fill="white"/>
</g>
<defs>
<clipPath id="clip0_360_582">
<rect width="1000" height="1019.57" fill="white"/>
</clipPath>
</defs>
</svg>
