<svg width="1000" height="1020" viewBox="0 0 1000 1020" fill="none" xmlns="http://www.w3.org/2000/svg">
<g clip-path="url(#clip0_360_426)">
<path d="M501.151 0.236816C501.668 -0.198124 502.458 -0.00789568 502.719 0.614746L613.802 266.42C613.901 266.657 614.086 266.847 614.321 266.951L785.375 342.109C786.358 342.541 786.061 344.008 784.987 344.024L605.901 346.601C605.258 346.611 604.791 347.218 604.945 347.842L620.984 412.475C621.097 412.93 621.51 413.245 621.979 413.234L703.511 411.313C704.256 411.296 704.758 412.07 704.438 412.743L651.259 524.334C651.043 524.787 651.196 525.328 651.615 525.602L733.447 578.99C733.798 579.219 734.255 579.205 734.591 578.955L822.643 513.348C823.131 512.985 823.827 513.138 824.118 513.672L839.379 541.719C839.768 542.434 840.802 542.41 841.157 541.678L856.89 509.258C857.088 508.849 856.983 508.355 856.64 508.057C827.514 482.779 817.7 440.22 835.34 403.867C856.423 360.421 908.734 342.29 952.181 363.373C995.627 384.455 1013.76 436.768 992.674 480.214C975.033 516.567 935.528 535.193 897.646 527.956C897.2 527.87 896.748 528.093 896.549 528.502L866.432 590.564C866.291 590.854 866.299 591.195 866.453 591.478L888.103 631.266C888.343 631.708 888.217 632.26 887.81 632.555L743.279 737.034C742.989 737.244 742.609 737.283 742.282 737.135L690.354 713.683C689.578 713.333 688.747 714.051 688.98 714.87L741.847 899.715C742.029 900.354 741.55 900.99 740.886 900.991H551.322C550.77 900.991 550.323 901.439 550.322 901.991V935.798C550.322 936.068 550.432 936.327 550.626 936.515L634.249 1017.85C634.892 1018.48 634.449 1019.57 633.552 1019.57H448.142C447.59 1019.57 447.142 1019.12 447.142 1018.57V901.991C447.141 901.439 446.694 900.991 446.142 900.991H339.652C339.1 900.991 338.652 901.439 338.651 901.991V935.798C338.651 936.068 338.762 936.327 338.955 936.515L422.578 1017.85C423.221 1018.48 422.778 1019.57 421.881 1019.57H236.471C235.919 1019.57 235.471 1019.12 235.471 1018.57V901.991C235.47 901.439 235.023 900.991 234.471 900.991H43.543C42.9023 900.991 42.4269 900.396 42.5674 899.771L58.4844 828.924C58.5421 828.667 58.4953 828.396 58.3545 828.172L23.7695 773.253C23.5837 772.958 23.5658 772.586 23.7217 772.274L120.757 577.857C120.79 577.79 120.816 577.719 120.834 577.647L133.537 525.47C133.591 525.247 133.568 525.011 133.469 524.803L80.0674 412.743C79.7472 412.07 80.2484 411.296 80.9932 411.313L162.525 413.234C162.993 413.245 163.407 412.93 163.52 412.475L179.559 347.842C179.713 347.218 179.246 346.611 178.603 346.601L-0.482422 344.024C-1.55639 344.008 -1.85351 342.541 -0.870117 342.109L170.183 266.951C170.417 266.847 170.603 266.657 170.702 266.42L281.785 0.614746C282.046 -0.00788204 282.836 -0.198401 283.353 0.236816L391.607 91.5347C391.98 91.8488 392.525 91.8488 392.897 91.5347L501.151 0.236816ZM935.344 398.07C911.06 386.286 881.821 396.42 870.037 420.704C858.254 444.987 868.387 474.225 892.67 486.009C916.954 497.793 946.192 487.661 957.977 463.377C969.76 439.094 959.628 409.854 935.344 398.07ZM302.383 345.889C302.398 345.961 312.733 393.791 368.476 393.792C424.201 393.791 432.732 346.596 432.75 346.496L418.515 346.429C418.227 363.305 404.459 376.897 387.515 376.897C370.474 376.897 356.645 363.149 356.511 346.14L302.383 345.889ZM447.145 345.889C447.16 345.961 457.494 393.791 513.237 393.792C568.963 393.791 577.494 346.596 577.512 346.496L563.272 346.429C562.985 363.305 549.217 376.897 532.272 376.897C515.231 376.897 501.403 363.149 501.269 346.14L447.145 345.889Z" fill="#986DF8"/>
</g>
<defs>
<clipPath id="clip0_360_426">
<rect width="1000" height="1019.57" fill="white"/>
</clipPath>
</defs>
</svg>
