<svg width="1000" height="229" viewBox="0 0 1000 229" fill="none" xmlns="http://www.w3.org/2000/svg">
<g clip-path="url(#clip0_255_81)">
<path d="M942.546 190.587C930.059 190.587 918.839 187.76 908.883 182.108C898.928 176.455 891.04 168.567 885.218 158.443C879.481 148.319 876.613 136.592 876.613 123.262C876.613 109.763 879.481 97.867 885.218 87.5741C890.955 77.2813 898.801 69.2243 908.757 63.4029C918.712 57.5816 929.975 54.6709 942.546 54.6709C954.863 54.6709 965.241 57.2863 973.677 62.5171C982.198 67.7478 988.653 74.6238 993.04 83.1449C997.511 91.666 999.831 100.82 1000 110.606H960.136C959.799 108.16 959.082 105.418 957.985 102.381C956.888 99.3434 955.159 96.728 952.797 94.5345C950.434 92.2565 947.144 91.1176 942.926 91.1176C936.598 91.1176 931.494 93.7752 927.613 99.0903C923.816 104.321 921.918 112.209 921.918 122.755C921.918 133.47 923.985 141.822 928.119 147.812C932.253 153.718 937.526 156.671 943.938 156.671C948.072 156.671 951.278 155.448 953.556 153.001C955.918 150.47 957.605 147.686 958.618 144.649C959.715 141.611 960.39 139.207 960.643 137.435H999.367C999.367 146.716 997.089 155.405 992.534 163.505C988.062 171.604 981.608 178.142 973.171 183.12C964.735 188.098 954.526 190.587 942.546 190.587Z" fill="#000813"/>
<path d="M817.094 188.057V57.2029H863.918V188.057H817.094ZM817.094 46.5726V5.0639H863.918V46.5726H817.094Z" fill="#000813"/>
<path d="M786.429 190.839C774.365 190.839 764.915 189.573 758.082 187.042C751.332 184.427 746.439 181.052 743.402 176.918C740.364 172.784 738.466 168.228 737.707 163.251C737.032 158.273 736.695 153.38 736.695 148.571V0H784.91V141.99C784.91 145.112 785.712 148.065 787.315 150.849C788.918 153.633 793.052 155.489 799.717 156.417L805.032 156.923V186.789C802.079 187.886 799.042 188.814 795.92 189.573C792.799 190.417 789.635 190.839 786.429 190.839Z" fill="#000813"/>
<path d="M667.815 190.586C662.5 190.586 657.733 189.911 653.515 188.561C649.296 187.211 645.542 185.271 642.252 182.74C639.046 180.209 636.261 177.129 633.899 173.501C631.621 169.874 629.723 165.782 628.204 161.226L622.383 188.055H587.582V0H636.936V72.1341C638.961 68.7594 641.366 65.9753 644.15 63.7817C646.934 61.5038 649.929 59.7321 653.135 58.4666C656.425 57.1167 659.758 56.1465 663.132 55.5559C666.507 54.9653 669.84 54.67 673.13 54.67C689.244 54.67 701.731 60.7023 710.589 72.7668C719.532 84.747 724.004 101.072 724.004 121.742C724.004 135.663 721.81 147.769 717.423 158.062C713.12 168.355 706.793 176.37 698.44 182.107C690.088 187.76 679.879 190.586 667.815 190.586ZM656.172 156.164C661.74 156.164 666.507 153.675 670.472 148.697C674.438 143.635 676.42 134.65 676.42 121.742C676.42 109.593 674.438 101.156 670.472 96.4319C666.507 91.7073 661.74 89.345 656.172 89.345C652.376 89.345 649.001 90.4418 646.048 92.6353C643.18 94.7445 640.944 98.2036 639.341 103.013C637.738 107.737 636.936 113.98 636.936 121.742C636.936 134.65 638.708 143.635 642.252 148.697C645.795 153.675 650.435 156.164 656.172 156.164Z" fill="#000813"/>
<path d="M489.404 190.586C484.089 190.586 478.562 189.7 472.826 187.928C467.089 186.072 461.731 183.373 456.754 179.829C451.776 176.286 447.726 171.983 444.605 166.921C441.483 161.775 439.922 155.911 439.922 149.33V57.2013H489.277V142.497C489.277 146.293 490.669 149.499 493.453 152.115C496.237 154.646 500.118 155.911 505.096 155.911C510.074 155.911 513.955 154.646 516.739 152.115C519.607 149.499 521.041 146.293 521.041 142.497V57.2013H569.89V188.055H533.443L527.622 161.226C526.019 169.916 522.982 176.37 518.51 180.589C514.039 184.723 509.103 187.422 503.704 188.688C498.389 189.953 493.622 190.586 489.404 190.586Z" fill="#000813"/>
<path d="M293.806 228.805V57.2019H343.288V72.388C345.734 69.0133 348.518 66.187 351.64 63.9091C354.846 61.6312 358.179 59.8173 361.638 58.4674C365.097 57.1175 368.556 56.1473 372.015 55.5568C375.474 54.9662 378.722 54.6709 381.759 54.6709C390.871 54.6709 399.055 57.0754 406.31 61.8843C413.566 66.6932 419.303 74.1176 423.521 84.1573C427.739 94.1126 429.849 106.81 429.849 122.249C429.849 138.869 427.318 152.2 422.256 162.239C417.278 172.195 410.697 179.408 402.514 183.879C394.414 188.351 385.724 190.587 376.444 190.587C373.744 190.587 370.876 190.249 367.839 189.574C364.886 188.899 361.891 187.845 358.853 186.41C355.901 184.892 353.074 182.994 350.375 180.716C347.675 178.353 345.228 175.485 343.035 172.11V228.805H293.806ZM363.536 155.405C369.02 155.405 373.829 152.832 377.963 147.686C382.181 142.455 384.29 133.976 384.29 122.249C384.29 111.619 382.181 103.477 377.963 97.8248C373.829 92.1722 369.02 89.3459 363.536 89.3459C356.365 89.3459 351.134 92.6362 347.844 99.2168C344.638 105.713 343.035 113.391 343.035 122.249C343.035 127.564 343.752 132.795 345.186 137.941C346.62 143.003 348.814 147.18 351.767 150.47C354.804 153.76 358.727 155.405 363.536 155.405Z" fill="#000813"/>
<path d="M147.659 188.058V57.2039H196.381V75.3007C198.238 72.5166 200.6 69.6903 203.468 66.8218C206.337 63.9533 210.049 61.5488 214.605 59.6084C219.161 57.6679 224.855 56.6977 231.689 56.6977C239.367 56.6977 246.664 58.1741 253.582 61.127C260.585 64.0798 266.28 68.8044 270.667 75.3007C275.138 81.797 277.374 90.3603 277.374 100.991V188.058H228.019V107.698C228.019 103.395 226.416 100.105 223.21 97.8268C220.004 95.5489 216.545 94.4099 212.833 94.4099C210.471 94.4099 208.024 94.9161 205.493 95.9285C203.046 96.9409 200.979 98.4595 199.292 100.484C197.689 102.425 196.888 104.829 196.888 107.698V188.058H147.659Z" fill="#000813"/>
<path d="M49.4814 190.586C44.1663 190.586 38.6402 189.7 32.9033 187.928C27.1663 186.072 21.809 183.373 16.8313 179.829C11.8536 176.286 7.80398 171.983 4.68239 166.921C1.56079 161.775 0 155.911 0 149.33V57.2013H49.3549V142.497C49.3549 146.293 50.7469 149.499 53.5311 152.115C56.3152 154.646 60.1961 155.911 65.1738 155.911C70.1514 155.911 74.0323 154.646 76.8165 152.115C79.6849 149.499 81.1192 146.293 81.1192 142.497V57.2013H129.968V188.055H93.5212L87.6998 161.226C86.0969 169.916 83.0596 176.37 78.5882 180.589C74.1167 184.723 69.1812 187.422 63.7817 188.688C58.4666 189.953 53.6998 190.586 49.4814 190.586Z" fill="#000813"/>
</g>
<defs>
<clipPath id="clip0_255_81">
<rect width="1000" height="229" fill="white"/>
</clipPath>
</defs>
</svg>
