<svg width="1000" height="1306" viewBox="0 0 1000 1306" fill="none" xmlns="http://www.w3.org/2000/svg">
<g clip-path="url(#clip0_360_399)">
<path d="M639.624 0.695801C640.14 0.260594 640.931 0.451632 641.191 1.07471L783.51 341.623C783.609 341.859 783.795 342.049 784.03 342.152L1004.17 438.878C1005.15 439.311 1004.85 440.778 1003.78 440.793L773.006 444.114C772.363 444.123 771.895 444.729 772.05 445.354L792.711 528.611C792.824 529.065 793.237 529.381 793.705 529.37L898.702 526.895C899.447 526.878 899.949 527.652 899.628 528.325L831.063 672.205C830.965 672.412 830.941 672.647 830.995 672.871L847.279 739.757C847.297 739.83 847.323 739.901 847.356 739.967L971.595 988.888C971.751 989.201 971.733 989.572 971.547 989.868L927.151 1060.37C927.011 1060.59 926.964 1060.86 927.021 1061.12L947.489 1152.22C947.63 1152.84 947.154 1153.44 946.514 1153.44H703.248C702.696 1153.44 702.248 1153.89 702.248 1154.44V1198.09C702.248 1198.36 702.357 1198.62 702.551 1198.81L810.122 1303.43C810.766 1304.06 810.322 1305.15 809.425 1305.15H571.23C570.678 1305.15 570.231 1304.7 570.23 1304.15V1154.44C570.23 1153.89 569.782 1153.44 569.23 1153.44H432.42C431.868 1153.44 431.42 1153.89 431.42 1154.44V1198.09C431.42 1198.36 431.529 1198.62 431.723 1198.81L539.295 1303.43C539.938 1304.06 539.495 1305.15 538.598 1305.15H300.402C299.85 1305.15 299.402 1304.7 299.402 1304.15V1154.44C299.402 1153.89 298.954 1153.44 298.402 1153.44H53.4834C52.8431 1153.44 52.3676 1152.84 52.5078 1152.22L72.9766 1061.12C73.0345 1060.86 72.9875 1060.59 72.8467 1060.37L28.4512 989.868C28.2651 989.572 28.2465 989.201 28.4023 988.888L152.642 739.967C152.675 739.901 152.701 739.83 152.719 739.757L169.003 672.871C169.057 672.647 169.033 672.412 168.935 672.205L100.369 528.325C100.049 527.652 100.551 526.878 101.296 526.895L206.293 529.37C206.761 529.381 207.174 529.065 207.287 528.611L227.947 445.354C228.102 444.729 227.635 444.123 226.991 444.114L-3.7793 440.793C-4.8532 440.778 -5.15075 439.311 -4.16797 438.878L215.969 342.152C216.203 342.049 216.39 341.859 216.489 341.623L358.808 1.07471C359.068 0.451759 359.859 0.260441 360.375 0.695801L499.354 117.909C499.726 118.223 500.271 118.223 500.644 117.909L639.624 0.695801ZM385.011 443.199C385.038 443.324 398.274 504.489 469.576 504.489C540.814 504.489 551.771 444.209 551.813 443.975L533.604 443.89C533.235 465.481 515.621 482.871 493.941 482.872C472.139 482.871 454.447 465.283 454.273 443.521L385.011 443.199ZM570.229 443.199C570.256 443.324 583.492 504.489 654.795 504.489C726.032 504.489 736.99 444.209 737.032 443.975L718.815 443.89C718.446 465.481 700.832 482.871 679.152 482.872C657.35 482.871 639.658 465.283 639.484 443.521L570.229 443.199Z" fill="#986DF8"/>
</g>
<defs>
<clipPath id="clip0_360_399">
<rect width="1000" height="1304.69" fill="white" transform="translate(0 0.460205)"/>
</clipPath>
</defs>
</svg>
