<svg width="1000" height="1306" viewBox="0 0 1000 1306" fill="none" xmlns="http://www.w3.org/2000/svg">
<g clip-path="url(#clip0_360_9)">
<path d="M639.625 0.695801C640.141 0.260896 640.932 0.452003 641.192 1.07471L783.51 341.622C783.609 341.858 783.795 342.049 784.03 342.152L1004.17 438.877C1005.15 439.31 1004.85 440.778 1003.78 440.793L773.007 444.114C772.363 444.123 771.896 444.73 772.051 445.355L792.711 528.611C792.824 529.065 793.237 529.381 793.705 529.37L898.702 526.895C899.447 526.877 899.95 527.653 899.629 528.326L831.064 672.204C830.966 672.411 830.942 672.647 830.996 672.871L847.28 739.756C847.298 739.829 847.324 739.9 847.357 739.966L971.596 988.889C971.751 989.202 971.733 989.573 971.547 989.869L927.152 1060.37C927.012 1060.59 926.965 1060.86 927.022 1061.12L947.49 1152.22C947.63 1152.84 947.155 1153.44 946.515 1153.44H703.247C702.695 1153.44 702.247 1153.88 702.247 1154.44V1198.09C702.247 1198.36 702.356 1198.62 702.55 1198.81L810.123 1303.43C810.766 1304.06 810.323 1305.15 809.426 1305.15H571.23C570.679 1305.15 570.231 1304.7 570.23 1304.15V1154.44C570.23 1153.88 569.783 1153.44 569.23 1153.44H432.42C431.868 1153.44 431.42 1153.88 431.42 1154.44V1198.09C431.42 1198.36 431.529 1198.62 431.723 1198.81L539.296 1303.43C539.939 1304.06 539.496 1305.15 538.599 1305.15H300.402C299.85 1305.15 299.403 1304.7 299.402 1304.15V1154.44C299.402 1153.88 298.955 1153.44 298.402 1153.44H53.4844C52.844 1153.44 52.3689 1152.84 52.5088 1152.22L72.9766 1061.12C73.0343 1060.86 72.9873 1060.59 72.8467 1060.37L28.4512 989.869C28.2651 989.573 28.2476 989.202 28.4033 988.889L152.642 739.966C152.675 739.9 152.701 739.829 152.719 739.756L169.004 672.871C169.058 672.647 169.034 672.411 168.936 672.204L100.37 528.326C100.05 527.653 100.551 526.878 101.296 526.895L206.294 529.37C206.762 529.381 207.175 529.065 207.288 528.611L227.948 445.355C228.103 444.73 227.636 444.123 226.992 444.114L-3.7793 440.793C-4.85338 440.778 -5.1504 439.31 -4.16699 438.877L215.969 342.152C216.204 342.049 216.39 341.858 216.489 341.622L358.807 1.07471C359.067 0.451946 359.858 0.260747 360.374 0.695801L499.354 117.907C499.727 118.221 500.272 118.221 500.645 117.907L639.625 0.695801ZM385.011 443.199C385.053 443.393 398.314 504.489 469.576 504.489C540.796 504.489 551.766 444.238 551.813 443.975L533.605 443.89C533.236 465.481 515.621 482.872 493.941 482.872C472.139 482.871 454.447 465.283 454.273 443.521L385.011 443.199ZM570.229 443.199C570.272 443.393 583.533 504.489 654.795 504.489C726.015 504.489 736.985 444.238 737.032 443.975L718.816 443.89C718.447 465.481 700.832 482.872 679.152 482.872C657.35 482.871 639.658 465.283 639.484 443.521L570.229 443.199Z" fill="#000813"/>
</g>
<defs>
<clipPath id="clip0_360_9">
<rect width="1000" height="1304.69" fill="white" transform="translate(0 0.460205)"/>
</clipPath>
</defs>
</svg>
