<svg width="1000" height="1306" viewBox="0 0 1000 1306" fill="none" xmlns="http://www.w3.org/2000/svg">
<g clip-path="url(#clip0_360_477)">
<path d="M639.625 0.696289C640.141 0.260964 640.932 0.45204 641.192 1.0752L783.51 341.621C783.609 341.858 783.794 342.048 784.029 342.151L1004.17 438.878C1005.15 439.31 1004.85 440.778 1003.78 440.794L773.007 444.113C772.363 444.123 771.896 444.73 772.051 445.354L792.711 528.61C792.824 529.064 793.237 529.38 793.705 529.369L898.702 526.895C899.447 526.877 899.95 527.652 899.629 528.325L831.063 672.203C830.965 672.411 830.941 672.647 830.995 672.87L847.28 739.757C847.298 739.829 847.324 739.9 847.357 739.967L971.596 988.889C971.751 989.201 971.733 989.573 971.547 989.868L927.152 1060.37C927.012 1060.59 926.965 1060.86 927.022 1061.12L947.49 1152.22C947.63 1152.84 947.155 1153.44 946.515 1153.44H703.247C702.695 1153.44 702.247 1153.89 702.247 1154.44V1198.09C702.247 1198.36 702.357 1198.62 702.551 1198.81L810.123 1303.43C810.766 1304.06 810.323 1305.15 809.426 1305.15H571.229C570.678 1305.15 570.23 1304.7 570.229 1304.15V1154.44C570.229 1153.89 569.782 1153.44 569.229 1153.44H432.42C431.868 1153.44 431.42 1153.89 431.42 1154.44V1198.09C431.42 1198.36 431.53 1198.62 431.724 1198.81L539.296 1303.43C539.939 1304.06 539.496 1305.15 538.599 1305.15H300.402C299.85 1305.15 299.403 1304.7 299.402 1304.15V1154.44C299.402 1153.89 298.955 1153.44 298.402 1153.44H53.4844C52.844 1153.44 52.3689 1152.84 52.5088 1152.22L72.9766 1061.12C73.0343 1060.86 72.9874 1060.59 72.8467 1060.37L28.4512 989.868C28.2651 989.573 28.2476 989.201 28.4033 988.889L152.642 739.967C152.675 739.9 152.701 739.829 152.719 739.757L169.003 672.87C169.057 672.647 169.033 672.411 168.935 672.203L100.37 528.325C100.05 527.652 100.551 526.877 101.296 526.895L206.294 529.369C206.762 529.38 207.175 529.065 207.288 528.61L227.948 445.354C228.103 444.73 227.636 444.123 226.992 444.113L-3.7793 440.794C-4.85321 440.778 -5.15028 439.31 -4.16699 438.878L215.969 342.151C216.204 342.048 216.389 341.858 216.488 341.621L358.807 1.0752C359.067 0.452024 359.858 0.260918 360.374 0.696289L499.354 117.907C499.727 118.221 500.272 118.221 500.645 117.907L639.625 0.696289ZM385.011 443.199C385.055 443.405 398.321 504.489 469.576 504.489C540.779 504.489 551.761 444.267 551.813 443.976L533.605 443.891C533.236 465.482 515.621 482.871 493.941 482.871C472.139 482.871 454.447 465.283 454.273 443.521L385.011 443.199ZM570.229 443.199C570.274 443.405 583.539 504.489 654.795 504.489C725.998 504.489 736.98 444.267 737.032 443.976L718.816 443.891C718.447 465.482 700.832 482.871 679.152 482.871C657.35 482.871 639.658 465.283 639.484 443.521L570.229 443.199Z" fill="#DFFF03"/>
</g>
<defs>
<clipPath id="clip0_360_477">
<rect width="1000" height="1304.69" fill="white" transform="translate(0 0.460205)"/>
</clipPath>
</defs>
</svg>
