<svg width="1000" height="1306" viewBox="0 0 1000 1306" fill="none" xmlns="http://www.w3.org/2000/svg">
<g clip-path="url(#clip0_360_555)">
<path d="M639.624 0.696777C640.14 0.261437 640.931 0.451895 641.191 1.07471L783.51 341.622C783.609 341.858 783.795 342.049 784.03 342.152L1004.17 438.877C1005.15 439.31 1004.85 440.777 1003.78 440.792L773.007 444.114C772.363 444.123 771.896 444.73 772.051 445.355L792.712 528.61C792.825 529.064 793.238 529.38 793.706 529.369L898.702 526.895C899.447 526.877 899.949 527.652 899.629 528.325L831.064 672.204C830.966 672.411 830.941 672.647 830.995 672.871L847.28 739.756C847.298 739.829 847.324 739.9 847.357 739.966L971.596 988.888C971.752 989.201 971.733 989.572 971.547 989.868L927.151 1060.37C927.011 1060.59 926.965 1060.86 927.022 1061.12L947.49 1152.22C947.631 1152.84 947.155 1153.44 946.515 1153.44H703.248C702.696 1153.44 702.248 1153.88 702.248 1154.44V1198.09C702.248 1198.36 702.357 1198.62 702.551 1198.81L810.124 1303.43C810.767 1304.06 810.324 1305.15 809.427 1305.15H571.23C570.678 1305.15 570.231 1304.7 570.23 1304.15V1154.44C570.23 1153.88 569.783 1153.44 569.23 1153.44H432.42C431.868 1153.44 431.42 1153.88 431.42 1154.44V1198.09C431.42 1198.36 431.529 1198.62 431.723 1198.81L539.296 1303.43C539.939 1304.06 539.496 1305.15 538.599 1305.15H300.403C299.851 1305.15 299.404 1304.7 299.403 1304.15V1154.44C299.403 1153.88 298.956 1153.44 298.403 1153.44H53.4854C52.8448 1153.44 52.3695 1152.84 52.5098 1152.22L72.9775 1061.12C73.0354 1060.86 72.9884 1060.59 72.8477 1060.37L28.4521 989.868C28.2662 989.572 28.2475 989.201 28.4033 988.888L152.643 739.966C152.676 739.9 152.701 739.829 152.719 739.756L169.004 672.871C169.058 672.647 169.034 672.411 168.936 672.204L100.371 528.325C100.051 527.652 100.552 526.878 101.297 526.895L206.294 529.369C206.762 529.38 207.175 529.064 207.288 528.61L227.949 445.355C228.104 444.73 227.636 444.123 226.992 444.114L-3.7793 440.792C-4.85344 440.777 -5.15046 439.31 -4.16699 438.877L215.969 342.152C216.204 342.049 216.39 341.858 216.489 341.622L358.808 1.07471C359.068 0.451787 359.859 0.261403 360.375 0.696777L499.354 117.909C499.727 118.223 500.271 118.222 500.644 117.909L639.624 0.696777ZM385.012 443.199C385.037 443.315 398.269 504.489 469.577 504.489C540.824 504.488 551.775 444.192 551.814 443.975L533.605 443.89C533.236 465.482 515.621 482.872 493.941 482.872C472.139 482.871 454.447 465.283 454.273 443.521L385.012 443.199ZM570.23 443.199C570.255 443.315 583.488 504.489 654.796 504.489C726.043 504.488 736.994 444.192 737.033 443.975L718.816 443.89C718.447 465.482 700.832 482.872 679.152 482.872C657.35 482.871 639.658 465.283 639.484 443.521L570.23 443.199Z" fill="white"/>
</g>
<defs>
<clipPath id="clip0_360_555">
<rect width="1000" height="1304.69" fill="white" transform="translate(0 0.460205)"/>
</clipPath>
</defs>
</svg>
