<svg width="1000" height="996" viewBox="0 0 1000 996" fill="none" xmlns="http://www.w3.org/2000/svg">
<g clip-path="url(#clip0_255_141)">
<path d="M141.217 880.834C141.814 880.843 142.271 881.371 142.194 881.963L127.398 996.102H0.999939C0.447676 996.102 -6.10352e-05 995.654 -6.10352e-05 995.102V878.802L141.217 880.834ZM439.127 881.018C439.353 909.595 462.589 932.691 491.219 932.691C519.687 932.691 542.82 909.855 543.304 881.502L567.221 881.615C567.209 881.677 557.308 936.661 499.999 955.115V996.102H499.998V955.116C488.441 958.838 474.956 961.077 459.234 961.077C365.579 961.077 348.217 880.713 348.191 880.596L439.127 881.018ZM1000 995.102C1000 995.654 999.552 996.102 999 996.102H872.601L857.804 881.963C857.727 881.371 858.184 880.843 858.781 880.834L1000 878.802V995.102ZM682.334 881.019C682.561 909.595 705.796 932.691 734.426 932.691C762.893 932.69 786.027 909.856 786.511 881.503L810.428 881.615C810.414 881.69 796.12 961.077 702.44 961.077C608.785 961.077 591.423 880.713 591.397 880.596L682.334 881.019ZM999 1.02075C999.552 1.02075 1000 1.46847 1000 2.02075V802.396L873.673 746.89C873.438 746.787 873.251 746.596 873.152 746.36L686.06 298.676C685.8 298.053 685.01 297.862 684.494 298.297L500.354 453.594C500.129 453.784 499.999 454.064 499.999 454.359V880.596H499.998V454.359C499.998 454.064 499.869 453.784 499.643 453.594L315.504 298.296C314.988 297.861 314.197 298.052 313.936 298.675L126.845 746.36C126.746 746.596 126.559 746.787 126.324 746.89L-6.10352e-05 802.395V2.02075C-6.10352e-05 1.46849 0.447682 1.02078 0.999939 1.02075H999Z" fill="white"/>
</g>
<defs>
<clipPath id="clip0_255_141">
<rect width="1000" height="995" fill="white" transform="translate(0 0.979004)"/>
</clipPath>
</defs>
</svg>
