<svg width="2880" height="472" viewBox="0 0 2880 472" fill="none" xmlns="http://www.w3.org/2000/svg">
<rect width="2879.89" height="471.394" rx="100" fill="#DFFF03"/>
<path d="M181.36 323.195H105.76V138.395H217.84C228.08 138.395 237.44 140.395 245.92 144.395C254.56 148.235 261.44 155.035 266.56 164.795C271.68 174.395 274.24 187.755 274.24 204.875C274.24 221.675 271.6 235.035 266.32 244.955C261.04 254.715 254.08 261.755 245.44 266.075C236.96 270.235 227.76 272.315 217.84 272.315H181.36V323.195ZM200.08 199.115H177.04V212.075H200.8C202.08 212.075 203.44 211.675 204.88 210.875C206.48 210.075 207.28 208.395 207.28 205.835C207.28 203.115 206.4 201.355 204.64 200.555C202.88 199.595 201.36 199.115 200.08 199.115ZM359.016 323.195H283.416V138.395H393.336C403.576 138.395 412.936 140.235 421.416 143.915C430.056 147.595 436.936 153.515 442.056 161.675C447.176 169.835 449.736 180.715 449.736 194.315C449.736 198.155 449.416 202.315 448.776 206.795C448.296 211.275 447.096 215.755 445.176 220.235C443.256 224.555 440.296 228.475 436.296 231.995C432.456 235.355 427.176 237.995 420.456 239.915L458.376 323.195H374.136L361.176 273.755H359.016V323.195ZM375.576 197.435H352.536V210.395H376.296C377.576 210.395 378.936 209.995 380.376 209.195C381.976 208.395 382.776 206.715 382.776 204.155C382.776 201.435 381.896 199.675 380.136 198.875C378.376 197.915 376.856 197.435 375.576 197.435ZM630.374 273.275C627.814 290.075 618.934 303.275 603.734 312.875C588.534 322.315 568.614 327.035 543.974 327.035C519.334 327.035 499.414 322.315 484.214 312.875C469.174 303.435 460.294 290.395 457.574 273.755C456.934 269.275 456.374 263.275 455.894 255.755C455.574 248.075 455.414 239.835 455.414 231.035C455.414 222.555 455.574 214.715 455.894 207.515C456.374 200.155 456.934 194.395 457.574 190.235C460.294 172.635 469.254 158.955 484.454 149.195C499.654 139.435 519.494 134.555 543.974 134.555C568.614 134.555 588.534 139.435 603.734 149.195C618.934 158.795 627.814 172.155 630.374 189.275C631.014 193.435 631.494 199.195 631.814 206.555C632.294 213.755 632.534 221.675 632.534 230.315C632.534 239.435 632.294 247.755 631.814 255.275C631.494 262.795 631.014 268.795 630.374 273.275ZM550.454 262.235V199.355C550.454 195.035 548.294 192.875 543.974 192.875C539.654 192.875 537.494 195.035 537.494 199.355V262.235C537.494 266.555 539.654 268.715 543.974 268.715C548.294 268.715 550.454 266.555 550.454 262.235ZM813.593 138.395V209.675H767.273V323.195H687.353V209.675H640.793V138.395H813.593ZM898.782 250.715V260.555H972.222V323.195H823.182V138.395H967.902V192.395H898.782V202.235H961.422V250.715H898.782ZM1078.11 233.435L1156.59 237.995V271.115C1156.59 288.395 1148.75 301.915 1133.07 311.675C1117.55 321.435 1095.87 326.315 1068.03 326.315C1051.87 326.315 1037.55 324.155 1025.07 319.835C1012.59 315.515 1002.59 309.275 995.065 301.115C987.545 292.795 983.065 282.795 981.625 271.115C981.145 266.795 980.745 261.115 980.425 254.075C980.105 246.875 979.945 239.035 979.945 230.555C979.945 222.075 980.105 214.315 980.425 207.275C980.745 200.235 981.145 194.555 981.625 190.235C983.065 178.395 987.545 168.395 995.065 160.235C1002.59 151.915 1012.59 145.595 1025.07 141.275C1037.55 136.795 1051.87 134.555 1068.03 134.555C1086.27 134.555 1101.95 136.795 1115.07 141.275C1128.35 145.755 1138.59 152.155 1145.79 160.475C1152.99 168.635 1156.59 178.555 1156.59 190.235V212.075L1078.11 220.475V201.035C1078.11 196.715 1075.95 194.555 1071.63 194.555C1067.31 194.555 1065.15 196.715 1065.15 201.035V259.355C1065.15 263.675 1067.31 265.835 1071.63 265.835C1075.95 265.835 1078.11 263.675 1078.11 259.355V233.435ZM1337.66 138.395V209.675H1291.34V323.195H1211.42V209.675H1164.86V138.395H1337.66ZM1422.84 323.435L1347.24 323.195V138.395H1422.84V323.435ZM1608.19 273.275C1605.63 290.075 1596.75 303.275 1581.55 312.875C1566.35 322.315 1546.43 327.035 1521.79 327.035C1497.15 327.035 1477.23 322.315 1462.03 312.875C1446.99 303.435 1438.11 290.395 1435.39 273.755C1434.75 269.275 1434.19 263.275 1433.71 255.755C1433.39 248.075 1433.23 239.835 1433.23 231.035C1433.23 222.555 1433.39 214.715 1433.71 207.515C1434.19 200.155 1434.75 194.395 1435.39 190.235C1438.11 172.635 1447.07 158.955 1462.27 149.195C1477.47 139.435 1497.31 134.555 1521.79 134.555C1546.43 134.555 1566.35 139.435 1581.55 149.195C1596.75 158.795 1605.63 172.155 1608.19 189.275C1608.83 193.435 1609.31 199.195 1609.63 206.555C1610.11 213.755 1610.35 221.675 1610.35 230.315C1610.35 239.435 1610.11 247.755 1609.63 255.275C1609.31 262.795 1608.83 268.795 1608.19 273.275ZM1528.27 262.235V199.355C1528.27 195.035 1526.11 192.875 1521.79 192.875C1517.47 192.875 1515.31 195.035 1515.31 199.355V262.235C1515.31 266.555 1517.47 268.715 1521.79 268.715C1526.11 268.715 1528.27 266.555 1528.27 262.235ZM1691.57 323.195H1620.29V138.395H1704.53L1720.61 205.595H1722.77L1721.81 138.395H1793.09V323.195H1715.33L1692.53 236.795H1690.37L1691.57 323.195Z" fill="#000813"/>
<path d="M1965.85 89.7002C2001.68 83.2014 2038.4 83.4491 2074.12 90.3981L2074.96 90.5634L2075.02 90.5751C2092.56 94.0733 2106.54 106.701 2112.07 123.19C2132.04 128.073 2147.62 145.161 2149.47 166.539L2149.51 167.086L2149.51 167.125C2150.84 185.058 2151.67 200.4 2151.91 212.544C2151.91 212.656 2151.92 212.768 2151.92 212.881C2152.2 230.981 2151.22 249.094 2148.97 267.064C2148.96 267.164 2148.95 267.265 2148.93 267.365C2148.69 269.693 2148.26 271.804 2147.77 273.647C2147.67 274.021 2147.56 274.393 2147.45 274.763C2143.33 288.84 2135.73 301.629 2126.06 313.603C2126.06 313.608 2126.06 313.614 2126.05 313.619C2116.65 325.25 2104.77 336.868 2091.13 348.251C2072.67 363.776 2053.75 375.558 2045.26 380.016C2045.04 380.135 2044.83 380.251 2044.61 380.365C2037.18 384.286 2028.86 386.384 2020.34 386.394L2020.34 386.394C2020.33 386.394 2020.31 386.394 2020.3 386.394L2020.28 386.394H2020.25C2012.31 386.403 2004.5 384.592 1997.39 381.123C1997.14 381.005 1996.89 380.884 1996.64 380.76C1988.85 376.897 1968.77 364.643 1949.26 348.201C1935.67 336.87 1923.84 325.271 1914.5 313.702C1914.48 313.684 1914.47 313.666 1914.45 313.648C1905.34 302.329 1898.09 290.339 1893.83 277.177C1893.78 277.011 1893.73 276.845 1893.68 276.678C1893.11 274.825 1892.69 272.969 1892.39 271.136C1888.29 249.423 1887.82 226.308 1888.05 211.382C1888.05 211.182 1888.05 210.982 1888.06 210.783C1888.4 197.466 1889.36 182.443 1890.87 166.182L1908.41 167.818C1908.41 167.818 1908.41 167.817 1908.41 167.816L1890.87 166.178C1892.84 145.096 1908.16 128.281 1927.74 123.26C1933.15 106.136 1947.64 93.0273 1965.81 89.7078L1965.85 89.7002ZM1892.14 269.41C1892.15 269.45 1892.15 269.489 1892.16 269.528C1892.15 269.488 1892.15 269.449 1892.14 269.41ZM1892.08 268.857C1892.09 268.975 1892.11 269.089 1892.12 269.201C1892.11 269.087 1892.09 268.972 1892.08 268.857Z" fill="#000813"/>
<path d="M1971.56 121.183C2003.72 115.349 2036.7 115.618 2068.76 121.953C2076.11 123.418 2081.66 129.447 2082.52 136.886V136.895C2082.72 138.797 2082.97 140.596 2083.28 142.432C2084.04 146.569 2088.41 151.114 2092.69 152.134C2095.88 152.858 2099.18 153.451 2102.76 153.943C2110.76 155.056 2117.01 161.604 2117.6 169.488C2118.91 187.147 2119.7 201.848 2119.92 213.173V213.211C2120.19 229.879 2119.29 246.555 2117.22 263.093L2117.21 263.102C2117.19 263.343 2117.14 263.547 2117.14 263.696C2117.1 264.271 2117 264.847 2116.85 265.404L2116.84 265.423C2114.28 274.41 2109.16 283.602 2101.17 293.508C2093.42 303.089 2083.16 313.236 2070.63 323.68C2052.88 338.631 2034.94 349.427 2029.69 352.043V352.061C2026.79 353.592 2023.56 354.398 2020.28 354.398H2020.25C2016.98 354.408 2013.75 353.61 2010.86 352.08V352.098C2005.59 349.484 1987.63 338.696 1969.88 323.735C1957.38 313.329 1947.12 303.163 1939.38 293.592C1931.93 284.334 1927 275.755 1924.28 267.342C1924.11 266.795 1923.99 266.229 1923.92 265.663V265.673C1923.91 265.58 1923.88 265.469 1923.85 265.339C1920.31 246.64 1919.82 225.863 1920.04 211.709V211.616C1920.37 199.16 1921.27 184.866 1922.73 169.154C1923.45 161.409 1929.68 155 1937.52 153.887C1940.98 153.405 1944.18 152.821 1947.31 152.116C1951.59 151.086 1955.96 146.578 1956.72 142.404C1957.08 140.401 1957.34 138.398 1957.54 136.302C1958.34 128.705 1964.04 122.556 1971.56 121.183ZM2064.97 139.206C2035.28 133.381 2004.77 133.149 1975 138.501L1975.01 138.51C1974.77 140.875 1974.46 143.129 1974.08 145.411V145.494C1972.1 156.642 1962.52 166.669 1951.32 169.312H1951.25C1947.69 170.11 1944.08 170.778 1940.22 171.316C1938.83 186.408 1937.97 200.098 1937.68 212.026C1937.47 225.363 1937.94 244.841 1941.18 262.056L1941.27 262.575C1943.37 268.696 1947.25 275.245 1953.11 282.517C1960.12 291.189 1969.58 300.502 1981.21 310.241C1998.79 325.053 2015.76 334.866 2018.51 336.258C2018.69 336.332 2018.85 336.415 2019.02 336.499C2019.4 336.712 2019.83 336.823 2020.26 336.833C2020.7 336.833 2021.12 336.712 2021.51 336.499H2021.5C2021.67 336.415 2021.84 336.332 2022.01 336.258C2024.75 334.866 2041.72 325.025 2059.29 310.222C2070.97 300.481 2080.43 291.151 2087.45 282.469C2093.71 274.715 2097.73 267.786 2099.69 261.294C2099.71 261.127 2099.75 260.978 2099.75 260.83L2099.75 260.831C2101.72 245.136 2102.57 229.323 2102.29 213.508C2102.07 202.619 2101.32 188.447 2100.05 171.362C2096.04 170.805 2092.33 170.128 2088.69 169.284H2088.62C2077.43 166.632 2067.86 156.634 2065.82 145.485V145.402C2065.49 143.343 2065.2 141.311 2064.97 139.206ZM2017.83 152.182C2028.57 152.191 2039.3 152.849 2049.96 154.148C2052.65 160.882 2056.65 167.022 2061.72 172.198C2067.95 178.579 2075.64 183.365 2084.12 186.147C2084.76 196.722 2085.15 205.866 2085.31 213.471C2085.57 229.11 2084.78 244.757 2082.94 260.293L2082.93 260.284C2081.48 264.198 2078.64 268.78 2074.46 273.937C2068.19 281.655 2059.35 290.253 2048.18 299.389L2048.11 299.444C2039.28 306.679 2029.98 313.311 2020.26 319.303C2010.56 313.329 2001.26 306.707 1992.44 299.491L1992.37 299.435C1981.19 290.308 1972.36 281.7 1966.09 273.984C1962.1 269.04 1959.31 264.625 1957.81 260.794C1955.49 247.725 1954.37 230.464 1954.64 211.914C1954.84 204.012 1955.27 195.386 1955.92 186.11C1964.38 183.337 1972.03 178.56 1978.24 172.197C1983.45 166.892 1987.53 160.576 1990.22 153.647C1999.13 152.701 2008.08 152.219 2017.04 152.191V152.182H2017.83ZM2028.8 292.189C2031.42 290.241 2034.14 288.117 2036.93 285.826L2036.98 285.78L2037.03 285.743C2047.05 277.562 2055.26 269.641 2060.79 262.833C2062.68 260.608 2064.33 258.196 2065.75 255.636C2067.27 241.741 2067.92 227.755 2067.69 213.768H2067.7C2067.6 209.149 2067.41 203.872 2067.14 198.001C2060.47 194.448 2054.39 189.894 2049.12 184.496C2045.04 180.322 2041.48 175.684 2038.51 170.666H2038.5C2035.28 170.397 2032.05 170.194 2028.8 170.045V292.189ZM2011.17 169.905C2008.01 169.988 2004.84 170.127 2001.66 170.34C1994.81 182.047 1984.83 191.619 1972.85 197.991H1972.85C1972.59 203 1972.38 207.776 1972.27 212.275C1972.05 228.647 1972.95 243.922 1974.83 255.637C1976.25 258.206 1977.92 260.636 1979.82 262.89L1979.81 262.881C1985.34 269.689 1993.54 277.6 2003.54 285.781L2003.67 285.893C2006.24 288.007 2008.75 289.974 2011.17 291.792L2011.17 169.905ZM2117.14 262.407C2117.16 262.719 2117.16 263.04 2117.14 263.362H2117.16C2117.18 263.047 2117.17 262.722 2117.14 262.407ZM1927.73 257.342C1926.34 258.27 1925.24 259.587 1924.6 261.127C1925.25 259.596 1926.34 258.279 1927.73 257.342ZM2114.86 257.101C2115.08 257.338 2115.29 257.59 2115.48 257.854C2115.29 257.591 2115.09 257.337 2114.87 257.101V257.092L2114.86 257.101Z" fill="#DFFF03"/>
<path d="M2279.81 89.7002C2315.64 83.2014 2352.36 83.4491 2388.08 90.3981L2388.93 90.5634L2388.99 90.5751C2406.52 94.0733 2420.51 106.701 2426.04 123.19C2446.01 128.073 2461.58 145.161 2463.43 166.539L2463.47 167.086L2463.48 167.125C2464.81 185.058 2465.64 200.4 2465.88 212.544C2465.88 212.656 2465.88 212.768 2465.88 212.881C2466.17 230.981 2465.18 249.094 2462.94 267.064C2462.92 267.164 2462.91 267.265 2462.9 267.365C2462.65 269.693 2462.22 271.804 2461.73 273.647C2461.63 274.021 2461.53 274.393 2461.41 274.763C2457.3 288.84 2449.69 301.629 2440.03 313.603C2440.03 313.608 2440.02 313.614 2440.02 313.619C2430.62 325.25 2418.74 336.868 2405.09 348.251C2386.64 363.776 2367.72 375.558 2359.22 380.016C2359.01 380.135 2358.8 380.251 2358.58 380.365C2351.14 384.286 2342.82 386.384 2334.31 386.394L2334.31 386.394C2334.29 386.394 2334.28 386.394 2334.26 386.394L2334.24 386.394H2334.22C2326.28 386.403 2318.46 384.592 2311.36 381.123C2311.1 381.005 2310.85 380.884 2310.6 380.76C2302.82 376.897 2282.73 364.643 2263.22 348.201C2249.63 336.87 2237.81 325.271 2228.46 313.702C2228.45 313.684 2228.43 313.666 2228.42 313.648C2219.31 302.329 2212.05 290.339 2207.8 277.177C2207.75 277.011 2207.69 276.845 2207.64 276.678C2207.08 274.825 2206.65 272.969 2206.35 271.136C2202.26 249.423 2201.78 226.308 2202.01 211.382C2202.01 211.182 2202.02 210.982 2202.02 210.783C2202.37 197.466 2203.32 182.443 2204.84 166.182L2222.38 167.818C2222.38 167.818 2222.38 167.817 2222.38 167.816L2204.84 166.178C2206.81 145.096 2222.13 128.281 2241.7 123.26C2247.11 106.136 2261.6 93.0273 2279.77 89.7078L2279.81 89.7002ZM2206.11 269.41C2206.11 269.45 2206.12 269.489 2206.12 269.528C2206.12 269.488 2206.11 269.449 2206.11 269.41ZM2206.05 268.857C2206.06 268.975 2206.07 269.089 2206.08 269.201C2206.07 269.087 2206.06 268.972 2206.05 268.857Z" fill="#000813"/>
<path d="M2285.52 121.183C2317.69 115.349 2350.66 115.618 2382.73 121.953C2390.07 123.418 2395.63 129.447 2396.48 136.886V136.895C2396.68 138.797 2396.94 140.596 2397.24 142.432C2398 146.569 2402.38 151.114 2406.66 152.134C2409.85 152.858 2413.15 153.451 2416.73 153.943C2424.72 155.056 2430.98 161.604 2431.57 169.488C2432.88 187.147 2433.67 201.848 2433.89 213.173V213.211C2434.16 229.879 2433.26 246.555 2431.19 263.093L2431.18 263.102C2431.15 263.343 2431.11 263.547 2431.11 263.696C2431.07 264.271 2430.96 264.847 2430.82 265.404L2430.81 265.423C2428.25 274.41 2423.13 283.602 2415.13 293.508C2407.39 303.089 2397.12 313.236 2384.6 323.68C2366.85 338.631 2348.91 349.427 2343.66 352.043V352.061C2340.76 353.592 2337.53 354.398 2334.24 354.398H2334.22C2330.94 354.408 2327.71 353.61 2324.82 352.08V352.098C2319.55 349.484 2301.6 338.696 2283.84 323.735C2271.35 313.329 2261.08 303.163 2253.35 293.592C2245.9 284.334 2240.96 275.755 2238.24 267.342C2238.08 266.795 2237.96 266.229 2237.88 265.663V265.673C2237.87 265.58 2237.85 265.469 2237.82 265.339C2234.27 246.64 2233.78 225.863 2234.01 211.709V211.616C2234.33 199.16 2235.23 184.866 2236.7 169.154C2237.42 161.409 2243.64 155 2251.49 153.887C2254.95 153.405 2258.15 152.821 2261.28 152.116C2265.55 151.086 2269.93 146.578 2270.69 142.404C2271.04 140.401 2271.3 138.398 2271.51 136.302C2272.3 128.705 2278.01 122.556 2285.52 121.183ZM2378.93 139.206C2349.24 133.381 2318.74 133.149 2288.96 138.501L2288.97 138.51C2288.73 140.875 2288.43 143.129 2288.05 145.411V145.494C2286.06 156.642 2276.49 166.669 2265.28 169.312H2265.21C2261.66 170.11 2258.05 170.778 2254.18 171.316C2252.79 186.408 2251.94 200.098 2251.64 212.026C2251.44 225.363 2251.9 244.841 2255.15 262.056L2255.24 262.575C2257.34 268.696 2261.21 275.245 2267.07 282.517C2274.09 291.189 2283.55 300.502 2295.18 310.241C2312.75 325.053 2329.73 334.866 2332.47 336.258C2332.65 336.332 2332.82 336.415 2332.98 336.499C2333.36 336.712 2333.79 336.823 2334.23 336.833C2334.66 336.833 2335.09 336.712 2335.47 336.499H2335.46C2335.64 336.415 2335.8 336.332 2335.97 336.258C2338.72 334.866 2355.69 325.025 2373.26 310.222C2384.93 300.481 2394.39 291.151 2401.42 282.469C2407.68 274.715 2411.69 267.786 2413.66 261.294C2413.68 261.127 2413.71 260.978 2413.71 260.83L2413.72 260.831C2415.68 245.136 2416.54 229.323 2416.26 213.508C2416.04 202.619 2415.28 188.447 2414.01 171.362C2410.01 170.805 2406.3 170.128 2402.65 169.284H2402.59C2391.4 166.632 2381.83 156.634 2379.79 145.485V145.402C2379.45 143.343 2379.17 141.311 2378.93 139.206ZM2331.8 152.182C2342.54 152.191 2353.27 152.849 2363.93 154.148C2366.62 160.882 2370.61 167.022 2375.69 172.198C2381.92 178.579 2389.61 183.365 2398.09 186.147C2398.73 196.722 2399.11 205.866 2399.27 213.471C2399.53 229.11 2398.74 244.757 2396.91 260.293L2396.9 260.284C2395.44 264.198 2392.6 268.78 2388.43 273.937C2382.16 281.655 2373.31 290.253 2362.14 299.389L2362.08 299.444C2353.25 306.679 2343.95 313.311 2334.23 319.303C2324.52 313.329 2315.22 306.707 2306.4 299.491L2306.33 299.435C2295.16 290.308 2286.33 281.7 2280.06 273.984C2276.06 269.04 2273.28 264.625 2271.78 260.794C2269.46 247.725 2268.34 230.464 2268.6 211.914C2268.81 204.012 2269.24 195.386 2269.88 186.11C2278.34 183.337 2286 178.56 2292.21 172.197C2297.41 166.892 2301.49 160.576 2304.18 153.647C2313.1 152.701 2322.05 152.219 2331.01 152.191V152.182H2331.8ZM2342.77 292.189C2345.38 290.241 2348.11 288.117 2350.89 285.826L2350.95 285.78L2350.99 285.743C2361.01 277.562 2369.23 269.641 2374.76 262.833C2376.64 260.608 2378.29 258.196 2379.71 255.636C2381.23 241.741 2381.88 227.755 2381.66 213.768H2381.67C2381.56 209.149 2381.38 203.872 2381.1 198.001C2374.43 194.448 2368.36 189.894 2363.09 184.496C2359.01 180.322 2355.45 175.684 2352.48 170.666H2352.47C2349.24 170.397 2346.01 170.194 2342.77 170.045V292.189ZM2325.14 169.905C2321.97 169.988 2318.8 170.127 2315.63 170.34C2308.77 182.047 2298.79 191.619 2286.82 197.991H2286.81C2286.55 203 2286.35 207.776 2286.24 212.275C2286.01 228.647 2286.91 243.922 2288.8 255.637C2290.21 258.206 2291.88 260.636 2293.79 262.89L2293.78 262.881C2299.3 269.689 2307.5 277.6 2317.5 285.781L2317.63 285.893C2320.2 288.007 2322.72 289.974 2325.14 291.792L2325.14 169.905ZM2431.11 262.407C2431.12 262.719 2431.12 263.04 2431.11 263.362H2431.12C2431.14 263.047 2431.13 262.722 2431.11 262.407ZM2241.7 257.342C2240.3 258.27 2239.21 259.587 2238.56 261.127C2239.22 259.596 2240.3 258.279 2241.7 257.342ZM2428.82 257.101C2429.04 257.338 2429.25 257.59 2429.45 257.854C2429.26 257.591 2429.05 257.337 2428.83 257.101V257.092L2428.82 257.101Z" fill="#DFFF03"/>
<path d="M2518.8 166.182C2517.29 182.443 2516.33 197.466 2515.99 210.783C2515.98 210.982 2515.98 211.182 2515.98 211.382C2515.75 226.308 2516.22 249.423 2520.32 271.137C2520.62 272.969 2521.04 274.825 2521.61 276.678C2521.66 276.845 2521.71 277.011 2521.76 277.177C2526.02 290.339 2533.27 302.329 2542.38 313.648C2542.4 313.666 2542.41 313.684 2542.42 313.702C2551.77 325.271 2563.6 336.87 2577.19 348.201C2596.7 364.643 2616.78 376.897 2624.56 380.76C2624.82 380.884 2625.07 381.005 2625.32 381.123C2632.43 384.592 2640.24 386.403 2648.18 386.394H2648.21L2648.22 386.394C2648.24 386.394 2648.26 386.394 2648.27 386.394C2656.78 386.384 2665.11 384.286 2672.54 380.365C2672.76 380.251 2672.97 380.135 2673.19 380.016C2681.68 375.558 2700.6 363.776 2719.06 348.251C2732.7 336.868 2744.58 325.25 2753.98 313.619C2753.99 313.614 2753.99 313.608 2753.99 313.603C2763.66 301.629 2771.26 288.84 2775.38 274.763C2775.49 274.393 2775.6 274.021 2775.7 273.647C2776.19 271.804 2776.62 269.693 2776.86 267.365C2776.88 267.265 2776.89 267.164 2776.9 267.064C2779.15 249.094 2780.13 230.981 2779.85 212.881C2779.85 212.768 2779.84 212.656 2779.84 212.544C2779.6 200.4 2778.77 185.058 2777.44 167.125L2777.44 167.086L2777.4 166.539C2775.55 145.161 2759.97 128.073 2740 123.19C2734.47 106.701 2720.49 94.0733 2702.95 90.5751L2702.89 90.5634L2702.05 90.3981C2666.33 83.4491 2629.61 83.2014 2593.78 89.7002L2593.73 89.7078C2575.57 93.0273 2561.08 106.136 2555.67 123.26C2536.09 128.281 2520.77 145.096 2518.8 166.178M2520.07 269.41C2520.08 269.45 2520.08 269.489 2520.09 269.528M2520.01 268.857C2520.02 268.975 2520.04 269.089 2520.05 269.201C2520.04 269.087 2520.02 268.972 2520.01 268.857Z" stroke="#000813" stroke-width="10" stroke-linejoin="round"/>
</svg>
