<svg width="1000" height="533" viewBox="0 0 1000 533" fill="none" xmlns="http://www.w3.org/2000/svg">
<g clip-path="url(#clip0_255_300)">
<path d="M357.66 2.4032C358.264 0.959192 360.097 0.516269 361.293 1.52527L498.506 117.244C499.369 117.971 500.631 117.971 501.493 117.244L638.7 1.52527C639.897 0.516744 641.729 0.959403 642.332 2.4032L783.58 340.381C783.81 340.929 784.242 341.369 784.786 341.608L998.614 435.56C1000.89 436.562 1000.2 439.963 997.715 439.999L774.632 443.214C773.248 443.234 772.19 444.455 772.367 445.828L783.375 530.746C783.555 532.132 782.475 533.361 781.077 533.361H218.915C217.518 533.361 216.438 532.132 216.617 530.746L227.625 445.828C227.803 444.455 226.745 443.234 225.361 443.214L2.28442 439.999C-0.204696 439.963 -0.893233 436.562 1.38599 435.56L215.213 341.608C215.758 341.369 216.19 340.93 216.419 340.381L357.66 2.4032ZM384.53 443.062C384.569 443.246 397.809 504.275 468.989 504.275C540.183 504.275 551.095 443.991 551.123 443.837L532.934 443.752C532.565 465.316 514.973 482.684 493.321 482.684C471.545 482.684 453.875 465.118 453.701 443.384L384.53 443.062ZM569.512 443.062C569.554 443.257 582.798 504.275 653.971 504.275C725.166 504.275 736.077 443.991 736.105 443.837L717.914 443.752C717.546 465.316 699.953 482.684 678.301 482.684C656.526 482.684 638.855 465.118 638.682 443.384L569.512 443.062Z" fill="#986DF8"/>
</g>
<defs>
<clipPath id="clip0_255_300">
<rect width="1000" height="532" fill="white" transform="translate(0 0.979004)"/>
</clipPath>
</defs>
</svg>
