<svg width="1000" height="915" viewBox="0 0 1000 915" fill="none" xmlns="http://www.w3.org/2000/svg">
<g clip-path="url(#clip0_348_500)">
<path d="M110.927 13.3675C189.548 -16.8395 256.649 9.77794 310.127 39.8833L312.415 41.1784C360.24 68.369 393.859 96.0294 439.281 141.315L439.283 141.317C458.202 160.179 478.92 183.034 499.285 207.353C559.477 135.583 629.73 72.0988 696.18 36.051L696.186 36.0481C748.302 7.77916 812.688 -15.1224 887.484 12.8615L887.495 12.8654C910.946 21.6418 937.933 37.0013 959.848 65.1946C979.426 90.3798 987.947 117.095 992.542 134.836L992.891 136.201C1000.11 164.869 1000.77 192.906 999.45 222.893C998.118 253.054 994.235 293.774 988.099 350.702L988.098 350.704C981.519 411.732 976.23 450.342 947.447 498.166C938.013 513.842 926.816 527.947 914.65 540.505C916.992 546.113 919.087 551.936 920.891 557.977L921.245 559.178L921.246 559.182C948.678 653.543 901.168 734.811 854.289 790.331C830.475 818.534 802.024 843.489 772.995 862.96C745.51 881.396 709.448 900.339 669.919 907.645L669.918 907.644C638.99 913.36 603.582 913.932 567.121 902.283C539.264 893.382 515.614 878.885 495.838 861.288C481.4 874.42 464.941 886.201 446.207 895.374L446.205 895.375C390.022 922.882 326.104 919.719 274.543 896.34L274.539 896.339C216.056 869.821 157.193 813.632 120.631 761.808C92.7978 722.358 65.1552 671.294 63.0887 612.861C62.0448 583.342 67.5669 556.427 77.9125 532.48C57.9036 509.398 41.7427 482.466 30.0212 451.742L30.0182 451.734C21.3553 429.022 17.5147 406.603 14.3372 381.065C11.1354 355.332 7.6764 317.623 2.75775 260.193L2.75873 260.192C-0.772228 218.979 -2.50497 173.471 7.62964 132.983C13.2235 110.635 23.4507 85.2861 42.6344 62.0913C62.4708 38.1075 86.7202 22.668 110.922 13.3685L110.927 13.3675Z" fill="#986DF8"/>
<path d="M154.398 126.476C181.666 115.999 207.297 121.055 250.667 145.47C287.305 166.095 312.612 186.149 353.703 227.116C405.358 278.617 469.512 361.584 492.462 406.574C499.224 419.827 495.96 422.779 524.365 377.75C587.702 277.347 680.249 182.553 753.978 142.556C793.832 120.939 818.71 116.509 845.011 126.349C861.709 132.598 869.287 142.345 875.205 165.194C881.428 189.22 879.928 223.177 867.587 337.675C861.115 397.705 857.476 412.563 843.595 435.626C822.144 471.269 771.845 501.44 725.742 506.32C684.257 510.711 680.509 512.594 702.67 517.911C752.749 529.924 795.694 561.475 804.855 592.981C814.801 627.193 800.835 665.72 761.678 712.094C729.308 750.43 682.104 782.092 647.892 788.415C583.139 800.382 545.287 757.935 511.366 635.305C501.324 599.008 499.407 598.076 491.133 625.475C465.346 710.868 430.425 768.103 392.905 786.474C372.829 796.304 347.05 796.091 324.595 785.91C291.349 770.834 247.898 731.902 219.672 691.893C174.05 627.231 172.441 581.729 214.638 549.548C229.019 538.579 268.364 522.732 293.724 517.691C302.974 515.854 310.544 513.489 310.545 512.44C310.545 511.389 305.145 509.888 298.542 509.099C260.598 504.571 247.622 501.898 230.676 495.113C187.526 477.834 158.898 449.466 143.269 408.499C136.603 391.023 133.452 365.705 123.526 249.813C116.658 169.651 124.601 137.926 154.398 126.476ZM183.046 182.058C181.567 192.069 181.092 209.942 183.607 240.994L183.91 244.639V244.641C188.895 302.846 192.07 336.945 194.762 358.58C197.464 380.295 199.224 385.142 199.893 386.897C209.097 411.021 224.699 427.435 253.206 438.851C262.043 442.389 268.218 444.366 302.334 448.513L305.724 448.921L305.727 448.922C311.193 449.575 317.361 450.642 323.264 452.284C325.818 452.995 330.865 454.496 336.426 457.242C338.946 458.486 344.656 461.461 350.639 466.796C354.964 470.653 371.15 486.042 371.15 512.44C371.15 530.887 362.993 543.727 358.579 549.493C353.892 555.616 349.069 559.5 346.539 561.395C341.394 565.25 336.7 567.501 334.807 568.383C330.363 570.453 326.172 571.838 323.666 572.62C318.041 574.377 311.658 575.917 305.539 577.132L305.54 577.133C297.778 578.676 285.387 582.505 272.707 587.613C266.617 590.066 261.214 592.512 256.976 594.669C252.785 596.801 251.155 597.931 251.268 597.833C246.431 601.543 245.193 603.816 245.036 604.118C244.94 604.305 244.915 604.391 244.889 604.51C244.859 604.65 244.748 605.219 244.79 606.398C245.002 612.403 248.892 628.183 269.192 656.955L269.194 656.956C293.251 691.056 328.993 721.359 349.622 730.713L350.359 731.036C357.935 734.217 364.293 733.003 366.255 732.043L366.655 731.839C370.985 729.542 381.351 721.394 394.683 699.543C407.876 677.919 421.213 647.369 433.116 607.955C434.968 601.818 437.817 592.47 441.502 584.613C442.925 581.578 447.631 571.552 457.222 562.621C462.612 557.601 472.125 550.497 485.953 547.312C501.007 543.845 515.451 546.347 527.071 551.992C545.74 561.063 554.083 576.658 555.699 579.565C558.78 585.105 560.861 590.493 562.13 594.008C564.429 600.368 566.686 608.072 568.854 615.823L569.777 619.144L569.778 619.147C586.378 679.156 601.407 708.66 613.301 721.999C618.181 727.472 621.183 728.648 622.457 729.055C624.003 729.549 628.059 730.448 636.877 728.819H636.879C642.773 727.729 655.273 722.957 671.715 711.928C687.386 701.417 703.001 687.644 715.371 672.994C749.666 632.379 747.989 615.032 746.763 610.284C746.823 610.722 744.45 605.224 733.225 596.978C721.897 588.655 706.105 581.059 688.533 576.844H688.532C684.08 575.776 674.018 573.406 665.359 569.345C662.784 568.138 657.883 565.678 652.593 561.556C648.331 558.235 636.57 548.345 631.214 530.379C624.409 507.551 632.05 487.083 642.216 474.436C650.343 464.326 659.592 459.391 663.131 457.614C670.924 453.698 678.317 452.008 681.043 451.393C684.927 450.518 688.916 449.844 692.515 449.303C699.758 448.215 708.896 447.16 719.361 446.052H719.362C732.338 444.678 748.069 439.337 762.738 430.537C777.676 421.577 787.345 411.561 791.669 404.375C796.112 396.994 797.774 393.157 799.503 386.096C801.863 376.462 804.053 361.576 807.33 331.178C813.518 273.769 816.768 238.459 817.811 214.832C818.706 194.574 817.77 186.2 816.923 182.069C816.391 182.127 815.822 182.212 815.2 182.323C809.931 183.261 800.327 186.362 782.876 195.828C721.28 229.242 635.593 315.018 575.623 410.082L575.623 410.083C568.934 420.689 563.257 429.83 559.191 436.097C556.67 439.982 549.812 450.96 540.926 458.988C536.845 462.675 520.636 476.828 495.33 475.695C467.51 474.451 452.28 456.244 447.999 450.593C443.374 444.489 440.507 438.313 440.108 437.494C438.736 434.673 439.024 435.189 438.478 434.117L438.476 434.113C419.7 397.306 361.727 321.276 313.215 272.344L310.913 270.034C272.35 231.587 251.37 215.414 220.937 198.283L220.936 198.282C201.357 187.26 190.68 183.515 184.763 182.347C184.138 182.224 183.571 182.129 183.046 182.058ZM287.541 456.919C287.687 456.873 287.669 456.875 287.511 456.927C287.522 456.924 287.532 456.922 287.541 456.919ZM549.111 384.482C549.416 385.109 549.365 384.946 549.003 384.257C549.035 384.323 549.069 384.396 549.111 384.482ZM454.747 374.246C454.514 374.546 454.492 374.596 454.696 374.317C454.712 374.296 454.728 374.272 454.747 374.246Z" fill="#000813"/>
</g>
<defs>
<clipPath id="clip0_348_500">
<rect width="1000" height="914.88" fill="white" transform="translate(0 0.0683594)"/>
</clipPath>
</defs>
</svg>
