<svg width="1000" height="862" viewBox="0 0 1000 862" fill="none" xmlns="http://www.w3.org/2000/svg">
<g clip-path="url(#clip0_463_453)">
<path d="M1000 619.14C1000 752.617 891.472 861.085 758.055 861.085H241.946C108.523 861.085 0.000220635 752.571 0 619.14V241.946C0.000220684 108.523 108.514 0.000220635 241.946 0H758.012C891.461 0 1000 108.499 1000 241.946V619.14Z" fill="#986DF8"/>
<path d="M476.727 278.608V582.479C476.727 610.676 453.452 633.951 425.255 633.951C396.366 633.951 373.091 610.676 373.091 582.479V278.608C373.091 249.718 396.366 226.444 425.255 226.444C453.452 226.444 476.727 249.718 476.727 278.608ZM575.44 226.444C547.243 226.444 523.968 249.718 523.968 278.608V582.479C523.968 610.676 547.243 633.951 575.44 633.951C604.33 633.951 626.913 610.676 626.913 582.479V278.608C626.913 249.718 604.33 226.444 575.44 226.444ZM916.665 241.947V619.14C916.665 706.581 845.459 777.752 758.053 777.752H241.945C154.544 777.752 83.332 706.546 83.332 619.14V241.947C83.332 154.546 154.538 83.334 241.945 83.334H758.011C845.453 83.334 916.665 154.54 916.665 241.947ZM846.151 241.947C846.151 193.282 806.681 153.813 758.017 153.813H241.951C193.286 153.813 153.818 193.283 153.818 241.947V619.14C153.818 667.805 193.287 707.273 241.951 707.273H758.017C806.682 707.273 846.151 667.804 846.151 619.14V241.947Z" fill="#000813"/>
</g>
<defs>
<clipPath id="clip0_463_453">
<rect width="1000" height="861.09" fill="white"/>
</clipPath>
</defs>
</svg>
