<svg width="1000" height="781" viewBox="0 0 1000 781" fill="none" xmlns="http://www.w3.org/2000/svg">
<g clip-path="url(#clip0_344_418)">
<path d="M560.949 0.142505C707.756 0.184085 832.367 98.9311 870.612 233.993C948.891 288.182 1000 378.668 1000 480.91L999.994 482.846C998.953 647.284 865.324 780.994 700.235 780.994H239.639C108.621 780.994 0 674.95 0 542.112L0.0135365 539.573C0.754607 468.56 32.5418 405.674 81.7305 362.687C93.6728 233.447 192.921 129.713 319.119 109.541C363.675 58.8909 423.413 23.171 489.87 8.12324C503.283 2.93388 517.774 0.130662 532.75 0.13477L560.949 0.142505ZM200.711 767.781C200.773 767.791 200.81 767.797 200.785 767.793C200.77 767.791 200.761 767.789 200.724 767.783C200.72 767.782 200.715 767.781 200.711 767.781ZM175.327 761.925C175.323 761.924 175.319 761.922 175.314 761.921C175.31 761.92 175.305 761.919 175.301 761.917L175.327 761.925ZM157.204 755.81C157.21 755.813 157.216 755.815 157.221 755.817C157.218 755.816 157.213 755.814 157.204 755.81ZM95.209 720.047C95.232 720.065 95.2527 720.082 95.269 720.095C95.2595 720.088 95.249 720.079 95.2381 720.07C95.23 720.064 95.2209 720.055 95.21 720.046L95.209 720.047ZM16.9052 598.214C16.9085 598.227 16.9127 598.244 16.9177 598.264C16.9136 598.247 16.9103 598.231 16.9061 598.215L16.9052 598.214ZM550.612 10.5173C550.608 10.5176 550.603 10.5182 550.603 10.5182C550.603 10.5182 550.61 10.5179 550.617 10.5173H550.612Z" fill="#986DF8"/>
<path d="M560.917 118.955C669.258 118.986 758.285 204.279 763.624 311.091C832.426 336.805 881.189 403.252 881.189 480.911C881.189 580.859 800.112 662.183 700.236 662.183H239.639C173.301 662.183 118.812 608.398 118.812 542.113C118.813 488.182 154.909 442.618 204.014 427.468C200.955 414.925 199.334 401.998 199.334 388.93C199.334 298.458 273.422 224.827 363.984 224.796H364.017C370.064 224.796 376.09 225.161 382.05 225.838C412.913 168.357 469.952 129.08 534.866 120.669L532.717 118.947L560.917 118.955ZM704.637 652.226C703.174 652.263 701.707 652.282 700.236 652.282C701.707 652.282 703.174 652.263 704.637 652.226ZM705.283 652.205C705.794 652.191 706.305 652.176 706.815 652.156C706.305 652.176 705.794 652.191 705.283 652.205ZM232.564 652.058C233.18 652.096 233.797 652.129 234.416 652.158C233.797 652.129 233.18 652.096 232.564 652.058ZM707.451 652.128C707.977 652.106 708.502 652.085 709.027 652.059C708.502 652.085 707.977 652.106 707.451 652.128ZM231.197 651.963C231.268 651.968 231.338 651.972 231.408 651.977C231.338 651.972 231.268 651.968 231.197 651.963ZM712.571 651.838C712.826 651.82 713.081 651.803 713.336 651.784C713.081 651.803 712.826 651.82 712.571 651.838ZM228.389 651.714C228.506 651.726 228.625 651.737 228.743 651.748C228.625 651.737 228.506 651.726 228.389 651.714ZM714.232 651.71C714.655 651.676 715.077 651.643 715.498 651.606C715.077 651.643 714.655 651.676 714.232 651.71ZM227.021 651.567C227.199 651.587 227.376 651.606 227.553 651.625C227.376 651.606 227.199 651.587 227.021 651.567ZM716.593 651.502C716.94 651.469 717.286 651.437 717.633 651.402C717.286 651.437 716.94 651.469 716.593 651.502ZM718.62 651.297C719.013 651.254 719.406 651.214 719.799 651.169C719.406 651.214 719.013 651.254 718.62 651.297ZM222.841 651.012C223.079 651.049 223.319 651.082 223.558 651.117C223.319 651.082 223.079 651.049 222.841 651.012ZM720.74 651.055C721.134 651.008 721.528 650.962 721.922 650.912C721.528 650.962 721.134 651.008 720.74 651.055ZM221.494 650.799C221.838 650.855 222.182 650.909 222.527 650.963C222.182 650.909 221.838 650.855 221.494 650.799ZM722.723 650.805C723.18 650.745 723.638 650.686 724.095 650.622C723.638 650.686 723.18 650.745 722.723 650.805ZM220.185 650.574C220.39 650.611 220.595 650.645 220.8 650.68C220.595 650.645 220.39 650.611 220.185 650.574ZM724.598 650.548C725.136 650.471 725.674 650.393 726.21 650.311C725.674 650.393 725.136 650.471 724.598 650.548ZM218.834 650.326C218.946 650.347 219.059 650.368 219.171 650.389C219.059 650.368 218.946 650.347 218.834 650.326ZM726.847 650.21C727.33 650.134 727.812 650.059 728.293 649.98C727.812 650.059 727.33 650.134 726.847 650.21ZM216.172 649.785C216.222 649.796 216.273 649.806 216.324 649.817C216.273 649.806 216.222 649.796 216.172 649.785ZM729.457 649.78C729.75 649.729 730.044 649.679 730.337 649.627C730.044 649.679 729.75 649.729 729.457 649.78ZM731.484 649.416C731.816 649.354 732.149 649.294 732.481 649.23C732.149 649.294 731.816 649.354 731.484 649.416ZM733.594 649.011C733.903 648.95 734.212 648.889 734.521 648.826C734.212 648.889 733.903 648.95 733.594 649.011ZM212.116 648.83C212.288 648.874 212.461 648.916 212.633 648.96C212.461 648.916 212.288 648.874 212.116 648.83ZM210.824 648.491C211.026 648.545 211.229 648.598 211.431 648.651C211.229 648.598 211.026 648.545 210.824 648.491ZM735.507 648.619C735.9 648.536 736.294 648.454 736.687 648.369C736.294 648.454 735.9 648.536 735.507 648.619ZM209.562 648.145C209.659 648.172 209.757 648.198 209.854 648.225C209.757 648.198 209.659 648.172 209.562 648.145ZM737.506 648.186C737.891 648.1 738.275 648.015 738.659 647.927C738.275 648.015 737.891 648.1 737.506 648.186ZM208.24 647.763C208.343 647.793 208.448 647.823 208.552 647.854C208.448 647.823 208.343 647.793 208.24 647.763ZM739.917 647.629C740.185 647.565 740.453 647.503 740.72 647.438C740.453 647.503 740.185 647.565 739.917 647.629ZM206.951 647.374C207.052 647.405 207.154 647.436 207.255 647.467C207.154 647.436 207.052 647.405 206.951 647.374ZM741.898 647.144C742.187 647.071 742.476 647 742.764 646.926C742.476 647 742.187 647.071 741.898 647.144ZM205.584 646.944C205.778 647.006 205.973 647.067 206.167 647.128C205.973 647.067 205.778 647.006 205.584 646.944ZM204.331 646.532C204.541 646.602 204.751 646.67 204.961 646.739C204.751 646.67 204.541 646.602 204.331 646.532ZM744.05 646.588C744.295 646.523 744.539 646.459 744.783 646.393C744.539 646.459 744.295 646.523 744.05 646.588ZM203.045 646.091C203.217 646.151 203.389 646.21 203.561 646.269C203.389 646.21 203.217 646.151 203.045 646.091ZM745.834 646.103C746.189 646.005 746.544 645.908 746.898 645.808C746.544 645.908 746.189 646.005 745.834 646.103ZM201.845 645.663C201.94 645.698 202.036 645.731 202.131 645.765C202.036 645.731 201.94 645.698 201.845 645.663ZM747.682 645.58C748.097 645.46 748.512 645.341 748.925 645.218C748.512 645.341 748.097 645.46 747.682 645.58ZM200.488 645.162C200.672 645.231 200.856 645.298 201.04 645.367C200.856 645.298 200.672 645.231 200.488 645.162ZM749.698 644.983C750.097 644.862 750.496 644.743 750.893 644.619C750.496 644.743 750.097 644.862 749.698 644.983ZM199.27 644.694C199.459 644.768 199.65 644.84 199.84 644.913C199.65 644.84 199.459 644.768 199.27 644.694ZM198.01 644.192C198.179 644.26 198.349 644.328 198.518 644.396C198.349 644.328 198.179 644.26 198.01 644.192ZM751.875 644.308C752.208 644.202 752.54 644.097 752.871 643.99C752.54 644.097 752.208 644.202 751.875 644.308ZM196.811 643.699C196.949 643.757 197.089 643.813 197.228 643.871C197.089 643.813 196.949 643.757 196.811 643.699ZM753.787 643.688C754.164 643.563 754.542 643.439 754.918 643.312C754.542 643.439 754.164 643.563 753.787 643.688ZM195.551 643.162C195.667 643.212 195.784 643.262 195.9 643.312C195.784 643.262 195.667 643.212 195.551 643.162ZM755.748 643.026C756.112 642.901 756.475 642.775 756.838 642.648C756.475 642.775 756.112 642.901 755.748 643.026ZM194.368 642.641C194.473 642.688 194.578 642.734 194.684 642.78C194.578 642.734 194.473 642.688 194.368 642.641ZM757.765 642.317C758.118 642.19 758.472 642.064 758.824 641.935C758.472 642.064 758.118 642.19 757.765 642.317ZM193.074 642.052C193.241 642.129 193.408 642.206 193.576 642.282C193.408 642.206 193.241 642.129 193.074 642.052ZM191.909 641.505C192.024 641.56 192.14 641.615 192.256 641.669C192.14 641.615 192.024 641.56 191.909 641.505ZM759.694 641.613C760.05 641.481 760.406 641.348 760.761 641.213C760.406 641.348 760.05 641.481 759.694 641.613ZM190.676 640.908C190.83 640.984 190.984 641.059 191.138 641.134C190.984 641.059 190.83 640.984 190.676 640.908ZM761.697 640.853C762.039 640.721 762.382 640.588 762.723 640.454C762.382 640.588 762.039 640.721 761.697 640.853ZM189.513 640.327C189.652 640.398 189.791 640.467 189.93 640.537C189.791 640.467 189.652 640.398 189.513 640.327ZM763.565 640.117C763.929 639.972 764.292 639.826 764.654 639.678C764.292 639.826 763.929 639.972 763.565 640.117ZM188.333 639.721C188.451 639.783 188.57 639.843 188.689 639.905C188.57 639.843 188.451 639.783 188.333 639.721ZM187.099 639.067C187.269 639.159 187.44 639.249 187.61 639.339C187.44 639.249 187.269 639.159 187.099 639.067ZM765.514 639.322C765.859 639.179 766.204 639.036 766.547 638.891C766.204 639.036 765.859 639.179 765.514 639.322ZM185.899 638.413C186.096 638.522 186.294 638.629 186.491 638.737C186.294 638.629 186.096 638.522 185.899 638.413ZM767.507 638.48C767.811 638.35 768.116 638.219 768.419 638.087C768.116 638.219 767.811 638.35 767.507 638.48ZM184.8 637.796C184.973 637.894 185.147 637.991 185.321 638.089C185.147 637.991 184.973 637.894 184.8 637.796ZM769.481 637.618C769.759 637.494 770.038 637.371 770.315 637.246C770.038 637.371 769.759 637.494 769.481 637.618ZM183.649 637.132C183.773 637.204 183.898 637.276 184.022 637.348C183.897 637.276 183.773 637.204 183.649 637.132ZM771.325 636.784C771.62 636.648 771.915 636.513 772.208 636.376C771.915 636.513 771.62 636.648 771.325 636.784ZM182.53 636.468C182.647 636.539 182.765 636.609 182.883 636.679C182.765 636.609 182.647 636.539 182.53 636.468ZM181.364 635.759C181.507 635.847 181.65 635.935 181.794 636.023C181.65 635.935 181.507 635.847 181.364 635.759ZM773.218 635.901C773.513 635.761 773.807 635.621 774.101 635.479C773.807 635.621 773.513 635.761 773.218 635.901ZM180.283 635.084C180.39 635.152 180.499 635.219 180.607 635.287C180.499 635.219 180.39 635.152 180.283 635.084ZM774.987 635.048C775.314 634.888 775.641 634.728 775.968 634.566C775.641 634.728 775.314 634.888 774.987 635.048ZM179.155 634.36C179.254 634.425 179.354 634.489 179.453 634.553C179.354 634.489 179.254 634.425 179.155 634.36ZM776.784 634.157C777.134 633.981 777.485 633.805 777.835 633.626C777.485 633.805 777.134 633.981 776.784 634.157ZM177.987 633.591C178.144 633.696 178.302 633.799 178.459 633.903C178.302 633.799 178.144 633.696 177.987 633.591ZM778.716 633.169C779.009 633.017 779.302 632.866 779.593 632.713C779.302 632.866 779.009 633.017 778.716 633.169ZM176.915 632.866C177.056 632.962 177.198 633.059 177.34 633.155C177.198 633.059 177.056 632.962 176.915 632.866ZM175.763 632.067C175.919 632.176 176.075 632.284 176.231 632.393C176.075 632.284 175.919 632.176 175.763 632.067ZM780.566 632.196C780.859 632.039 781.153 631.881 781.445 631.723C781.153 631.881 780.859 632.039 780.566 632.196ZM174.755 631.349C174.901 631.454 175.048 631.558 175.195 631.663C175.048 631.558 174.901 631.454 174.755 631.349ZM782.389 631.206C782.667 631.052 782.946 630.899 783.223 630.744C782.946 630.899 782.667 631.052 782.389 631.206ZM173.638 630.534C173.789 630.646 173.94 630.757 174.092 630.868C173.94 630.757 173.789 630.646 173.638 630.534ZM784.229 630.178C784.488 630.03 784.748 629.883 785.007 629.735C784.748 629.883 784.488 630.03 784.229 630.178ZM172.619 629.773C172.753 629.874 172.887 629.974 173.02 630.074C172.887 629.974 172.753 629.874 172.619 629.773ZM171.54 628.946C171.688 629.06 171.836 629.174 171.984 629.288C171.836 629.174 171.688 629.06 171.54 628.946ZM785.937 629.197C786.24 629.021 786.542 628.845 786.843 628.667C786.542 628.845 786.24 629.021 785.937 629.197ZM170.542 628.163C170.66 628.256 170.777 628.348 170.895 628.441C170.777 628.348 170.66 628.256 170.542 628.163ZM787.694 628.16C787.994 627.98 788.294 627.801 788.593 627.619C788.294 627.801 787.994 627.98 787.694 628.16ZM169.522 627.344C169.628 627.43 169.735 627.515 169.841 627.601C169.735 627.515 169.628 627.43 169.522 627.344ZM789.461 627.088C789.757 626.906 790.052 626.724 790.346 626.541C790.052 626.724 789.757 626.906 789.461 627.088ZM168.495 626.498C168.599 626.584 168.702 626.669 168.806 626.755C168.702 626.669 168.599 626.584 168.495 626.498ZM791.242 625.979C791.518 625.805 791.794 625.629 792.07 625.452C791.794 625.629 791.518 625.805 791.242 625.979ZM167.487 625.647C167.582 625.728 167.677 625.809 167.772 625.89C167.677 625.809 167.582 625.728 167.487 625.647ZM166.404 624.711C166.552 624.841 166.701 624.97 166.85 625.099C166.701 624.97 166.552 624.841 166.404 624.711ZM792.936 624.895C793.22 624.71 793.504 624.526 793.787 624.341C793.504 624.526 793.22 624.71 792.936 624.895ZM165.429 623.847C165.583 623.985 165.737 624.122 165.892 624.259C165.737 624.122 165.583 623.985 165.429 623.847ZM794.719 623.723C794.984 623.546 795.249 623.37 795.512 623.192C795.249 623.37 794.984 623.546 794.719 623.723ZM164.403 622.915C164.577 623.075 164.752 623.234 164.927 623.393C164.752 623.234 164.577 623.075 164.403 622.915ZM796.327 622.639C796.626 622.435 796.924 622.231 797.222 622.025C796.924 622.231 796.626 622.435 796.327 622.639ZM163.502 622.078C163.647 622.214 163.792 622.35 163.937 622.485C163.792 622.35 163.647 622.214 163.502 622.078ZM162.541 621.164C162.671 621.29 162.802 621.415 162.933 621.539C162.802 621.415 162.671 621.29 162.541 621.164ZM797.994 621.486C798.32 621.258 798.646 621.03 798.97 620.8C798.646 621.03 798.32 621.258 797.994 621.486ZM161.628 620.275C161.738 620.383 161.848 620.492 161.959 620.6C161.848 620.492 161.738 620.383 161.628 620.275ZM799.592 620.355C799.949 620.099 800.306 619.842 800.661 619.583C800.306 619.842 799.949 620.099 799.592 620.355ZM160.6 619.25C160.755 619.407 160.91 619.564 161.067 619.72C160.91 619.564 160.755 619.407 160.6 619.25ZM801.253 619.148C801.599 618.894 801.944 618.639 802.288 618.382C801.944 618.639 801.599 618.894 801.253 619.148ZM159.717 618.349C159.866 618.503 160.016 618.657 160.166 618.81C160.016 618.657 159.866 618.503 159.717 618.349ZM802.927 617.901C803.251 617.657 803.574 617.413 803.895 617.167C803.574 617.413 803.251 617.657 802.927 617.901ZM158.754 617.341C158.905 617.502 159.057 617.661 159.209 617.821C159.057 617.661 158.905 617.502 158.754 617.341ZM157.855 616.377C158.027 616.564 158.199 616.75 158.373 616.936C158.199 616.75 158.027 616.564 157.855 616.377ZM804.619 616.608C804.901 616.39 805.183 616.172 805.464 615.952C805.183 616.172 804.901 616.39 804.619 616.608ZM156.974 615.41C157.129 615.583 157.285 615.755 157.441 615.927C157.285 615.755 157.129 615.583 156.974 615.41ZM806.215 615.36C806.532 615.108 806.849 614.855 807.164 614.601C806.849 614.855 806.532 615.108 806.215 615.36ZM156.078 614.403C156.235 614.582 156.392 614.76 156.55 614.938C156.392 614.76 156.235 614.582 156.078 614.403ZM807.725 614.149C808.067 613.871 808.408 613.592 808.748 613.312C808.408 613.592 808.067 613.871 807.725 614.149ZM155.313 613.523C155.417 613.644 155.521 613.765 155.626 613.886C155.521 613.765 155.417 613.644 155.313 613.523ZM154.377 612.421C154.515 612.585 154.653 612.75 154.792 612.914C154.653 612.75 154.515 612.585 154.377 612.421ZM809.392 612.779C809.695 612.527 809.997 612.273 810.299 612.018C809.997 612.273 809.695 612.527 809.392 612.779ZM153.628 611.519C153.726 611.637 153.823 611.756 153.92 611.874C153.823 611.756 153.726 611.637 153.628 611.519ZM810.922 611.491C811.228 611.23 811.533 610.968 811.837 610.705C811.533 610.968 811.228 611.23 810.922 611.491ZM152.74 610.422C152.849 610.559 152.959 610.695 153.069 610.831C152.959 610.695 152.849 610.559 152.74 610.422ZM812.551 610.086C812.809 609.86 813.067 609.633 813.323 609.406C813.067 609.633 812.809 609.86 812.551 610.086ZM151.949 609.421C152.058 609.561 152.167 609.701 152.277 609.84C152.167 609.701 152.058 609.561 151.949 609.421ZM151.115 608.34C151.22 608.477 151.323 608.614 151.428 608.75C151.323 608.614 151.22 608.477 151.115 608.34ZM814.117 608.699C814.366 608.477 814.615 608.254 814.862 608.03C814.615 608.254 814.366 608.477 814.117 608.699ZM150.246 607.183C150.396 607.385 150.545 607.586 150.696 607.786C150.545 607.586 150.396 607.385 150.246 607.183ZM815.616 607.342C815.875 607.104 816.134 606.866 816.392 606.626C816.134 606.866 815.875 607.104 815.616 607.342ZM149.51 606.178C149.642 606.36 149.773 606.541 149.906 606.722C149.773 606.541 149.642 606.36 149.51 606.178ZM817.083 605.981C817.379 605.704 817.674 605.425 817.967 605.146C817.674 605.425 817.379 605.704 817.083 605.981ZM559.774 185.185C502.65 185.686 451.99 221.337 432.467 274.719L432.468 274.72C426.466 291.154 408.741 300.053 391.986 295.088V295.087C382.87 292.392 373.461 290.999 363.996 290.999C309.231 291.028 265.553 334.676 265.553 388.92V388.949C265.553 405.788 269.903 422.324 278.217 436.984L279.034 438.396L279.037 438.404L279.042 438.411C285.046 448.637 285.118 461.289 279.258 471.606L279.235 471.647C273.316 481.953 262.359 488.265 250.524 488.306L246.403 488.321L246.359 488.277H239.612C208.757 488.277 185.002 512.075 185.002 542.104C185.002 572.139 208.763 595.96 239.612 595.96H700.208C764.159 595.96 814.949 545.101 814.949 480.901C814.949 424.77 775.808 378.903 723.491 368.226L723.485 368.224L723.478 368.223C706.966 364.829 695.632 349.562 697.163 332.767L697.363 330.566C697.592 327.405 697.737 324.264 697.759 321.177C697.706 245.897 636.865 185.219 560.969 185.192L559.795 185.191L559.774 185.185ZM237.727 605.834C238.072 605.844 238.418 605.852 238.764 605.856C238.418 605.852 238.072 605.844 237.727 605.834ZM704.509 605.787C703.62 605.816 702.728 605.84 701.834 605.851C702.728 605.84 703.62 605.816 704.509 605.787ZM708.007 605.625C707.024 605.685 706.037 605.734 705.047 605.77C706.037 605.734 707.024 605.685 708.007 605.625ZM148.764 605.134C148.872 605.288 148.981 605.441 149.09 605.593C148.981 605.441 148.872 605.288 148.764 605.134ZM712.723 605.253C711.741 605.349 710.755 605.434 709.765 605.507C710.755 605.434 711.741 605.349 712.723 605.253ZM818.558 604.581C818.83 604.32 819.1 604.058 819.37 603.795C819.1 604.058 818.83 604.32 818.558 604.581ZM147.925 603.929C148.066 604.136 148.208 604.342 148.351 604.547C148.208 604.342 148.066 604.136 147.925 603.929ZM147.247 602.932C147.356 603.095 147.466 603.257 147.577 603.42C147.466 603.257 147.356 603.095 147.247 602.932ZM820.07 603.11C820.345 602.84 820.619 602.569 820.891 602.296C820.619 602.569 820.345 602.84 820.07 603.11ZM146.524 601.838C146.633 602.005 146.742 602.172 146.852 602.339C146.742 602.172 146.633 602.005 146.524 601.838ZM821.439 601.747C821.731 601.453 822.022 601.158 822.312 600.861C822.022 601.158 821.731 601.453 821.439 601.747ZM145.775 600.677C145.883 600.847 145.991 601.017 146.1 601.186C145.991 601.017 145.883 600.847 145.775 600.677ZM822.877 600.281C823.147 600.004 823.415 599.725 823.683 599.445C823.415 599.725 823.147 600.004 822.877 600.281ZM145.16 599.699C145.231 599.814 145.303 599.928 145.374 600.042C145.303 599.928 145.231 599.814 145.16 599.699ZM144.422 598.493C144.514 598.646 144.606 598.798 144.699 598.951C144.606 598.798 144.514 598.646 144.422 598.493ZM824.366 598.727C824.604 598.475 824.842 598.223 825.079 597.97C824.842 598.223 824.604 598.475 824.366 598.727ZM143.755 597.375C143.843 597.523 143.93 597.671 144.017 597.819C143.93 597.671 143.843 597.523 143.755 597.375ZM825.727 597.273C826.004 596.974 826.279 596.673 826.553 596.371C826.279 596.673 826.004 596.974 825.727 597.273ZM143.125 596.288C143.193 596.408 143.261 596.528 143.33 596.647C143.261 596.528 143.193 596.408 143.125 596.288ZM827.069 595.805C827.353 595.49 827.636 595.174 827.918 594.857C827.636 595.174 827.353 595.49 827.069 595.805ZM142.425 595.047C142.501 595.184 142.577 595.321 142.654 595.458C142.577 595.321 142.501 595.184 142.425 595.047ZM141.662 593.649C141.777 593.864 141.892 594.078 142.008 594.291C141.892 594.078 141.777 593.864 141.662 593.649ZM828.496 594.204C828.744 593.923 828.991 593.64 829.238 593.356C828.991 593.64 828.744 593.923 828.496 594.204ZM141.093 592.574C141.211 592.801 141.33 593.027 141.449 593.252C141.33 593.027 141.211 592.801 141.093 592.574ZM829.805 592.699C830.071 592.39 830.337 592.079 830.601 591.768C830.337 592.079 830.071 592.39 829.805 592.699ZM140.532 591.486C140.619 591.658 140.706 591.829 140.794 592C140.706 591.829 140.619 591.658 140.532 591.486ZM831.123 591.151C831.366 590.861 831.609 590.57 831.85 590.279C831.609 590.57 831.366 590.861 831.123 591.151ZM139.873 590.168C139.986 590.397 140.098 590.627 140.213 590.855C140.098 590.627 139.986 590.397 139.873 590.168ZM139.267 588.916C139.386 589.166 139.506 589.417 139.627 589.667C139.506 589.417 139.386 589.166 139.267 588.916ZM832.55 589.431C832.737 589.203 832.922 588.974 833.108 588.744C832.922 588.974 832.737 589.203 832.55 589.431ZM138.774 587.865C138.862 588.054 138.948 588.243 139.037 588.432C138.948 588.243 138.862 588.054 138.774 587.865ZM833.748 587.951C833.998 587.638 834.247 587.325 834.495 587.011C834.247 587.325 833.998 587.638 833.748 587.951ZM138.143 586.475C138.258 586.734 138.373 586.993 138.491 587.251C138.373 586.993 138.258 586.734 138.143 586.475ZM835.027 586.332C835.264 586.028 835.5 585.724 835.735 585.418C835.5 585.724 835.264 586.028 835.027 586.332ZM137.625 585.297C137.735 585.552 137.845 585.806 137.957 586.059C137.845 585.806 137.735 585.552 137.625 585.297ZM137.143 584.163C137.226 584.363 137.31 584.562 137.394 584.761C137.31 584.562 137.226 584.363 137.143 584.163ZM836.33 584.643C836.532 584.377 836.733 584.109 836.934 583.842C836.733 584.109 836.532 584.377 836.33 584.643ZM136.552 582.724C136.665 583.005 136.778 583.286 136.893 583.566C136.778 583.286 136.665 583.005 136.552 582.724ZM837.577 582.983C837.792 582.692 838.006 582.401 838.22 582.11C838.006 582.401 837.792 582.692 837.577 582.983ZM136.1 581.578C136.203 581.844 136.306 582.11 136.412 582.374C136.306 582.11 136.203 581.844 136.1 581.578ZM838.708 581.44C838.931 581.132 839.153 580.823 839.373 580.514C839.153 580.823 838.931 581.132 838.708 581.44ZM135.61 580.296C135.701 580.539 135.792 580.782 135.885 581.024C135.792 580.782 135.701 580.539 135.61 580.296ZM135.198 579.177C135.275 579.389 135.351 579.602 135.43 579.813C135.351 579.602 135.275 579.389 135.198 579.177ZM839.939 579.72C840.131 579.449 840.321 579.177 840.511 578.905C840.321 579.177 840.131 579.449 839.939 579.72ZM134.685 577.728C134.773 577.982 134.861 578.237 134.951 578.491C134.861 578.237 134.773 577.982 134.685 577.728ZM841.142 577.996C841.316 577.744 841.488 577.491 841.66 577.237C841.488 577.491 841.316 577.744 841.142 577.996ZM134.233 576.394C134.332 576.69 134.43 576.985 134.53 577.28C134.43 576.985 134.332 576.69 134.233 576.394ZM842.265 576.344C842.464 576.048 842.661 575.75 842.858 575.453C842.661 575.75 842.464 576.048 842.265 576.344ZM133.885 575.327C133.955 575.546 134.026 575.764 134.097 575.982C134.026 575.764 133.955 575.546 133.885 575.327ZM787.182 570.865C785.604 572.396 783.987 573.887 782.33 575.333C783.987 573.887 785.604 572.396 787.182 570.865ZM133.444 573.915C133.522 574.168 133.599 574.421 133.678 574.673C133.599 574.421 133.522 574.168 133.444 573.915ZM843.392 574.643C843.589 574.341 843.785 574.038 843.981 573.735C843.785 574.038 843.589 574.341 843.392 574.643ZM133.07 572.663C133.147 572.927 133.224 573.191 133.303 573.454C133.224 573.191 133.147 572.927 133.07 572.663ZM844.483 572.954C844.733 572.562 844.982 572.168 845.229 571.773C844.982 572.168 844.733 572.562 844.483 572.954ZM132.729 571.468C132.785 571.667 132.839 571.867 132.896 572.065C132.839 571.867 132.785 571.667 132.729 571.468ZM845.565 571.234C845.768 570.908 845.968 570.58 846.169 570.253C845.968 570.58 845.768 570.908 845.565 571.234ZM132.372 570.16C132.426 570.362 132.479 570.564 132.534 570.766C132.479 570.564 132.426 570.362 132.372 570.16ZM790.409 567.612C789.671 568.384 788.923 569.145 788.166 569.898C788.923 569.145 789.671 568.384 790.409 567.612ZM132.074 569.017C132.112 569.166 132.149 569.315 132.188 569.464C132.149 569.315 132.112 569.166 132.074 569.017ZM846.698 569.385C846.874 569.093 847.05 568.799 847.225 568.505C847.05 568.799 846.874 569.093 846.698 569.385ZM131.674 567.393C131.736 567.651 131.797 567.909 131.86 568.166C131.797 567.909 131.736 567.651 131.674 567.393ZM847.719 567.672C847.924 567.324 848.127 566.974 848.329 566.625C848.127 566.974 847.924 567.324 847.719 567.672ZM131.27 565.639C131.359 566.044 131.451 566.448 131.545 566.852C131.451 566.448 131.359 566.044 131.27 565.639ZM848.73 565.929C848.955 565.535 849.179 565.141 849.401 564.745C849.179 565.141 848.955 565.535 848.73 565.929ZM131.069 564.704C131.131 564.997 131.193 565.291 131.257 565.584C131.193 565.291 131.131 564.997 131.069 564.704ZM130.73 563.04C130.807 563.431 130.884 563.821 130.964 564.21C130.884 563.821 130.807 563.431 130.73 563.04ZM849.753 564.118C849.952 563.76 850.149 563.4 850.346 563.04C850.149 563.4 849.952 563.76 849.753 564.118ZM178.375 562.532C178.432 562.702 178.49 562.871 178.548 563.04C178.49 562.871 178.432 562.702 178.375 562.532ZM130.587 562.287C130.625 562.486 130.661 562.685 130.699 562.883C130.661 562.685 130.625 562.486 130.587 562.287ZM850.753 562.293C850.949 561.931 851.143 561.568 851.336 561.204C851.143 561.568 850.949 561.931 850.753 562.293ZM177.279 558.867C177.521 559.775 177.782 560.674 178.063 561.565C177.782 560.674 177.521 559.775 177.279 558.867ZM851.735 560.451C851.914 560.111 852.091 559.769 852.267 559.427C852.091 559.769 851.914 560.111 851.735 560.451ZM130.01 558.931C130.074 559.341 130.139 559.751 130.207 560.159C130.139 559.751 130.074 559.341 130.01 558.931ZM129.677 556.621C129.777 557.364 129.881 558.105 129.996 558.843C129.881 558.105 129.777 557.364 129.677 556.621ZM852.683 558.618C852.857 558.276 853.029 557.934 853.201 557.591C853.029 557.934 852.857 558.276 852.683 558.618ZM853.618 556.756C853.785 556.418 853.95 556.079 854.115 555.74C853.95 556.079 853.785 556.418 853.618 556.756ZM176.361 554.933C176.375 555.003 176.39 555.074 176.405 555.144C176.39 555.074 176.375 555.003 176.361 554.933ZM854.547 554.846C854.687 554.553 854.825 554.26 854.964 553.966C854.825 554.26 854.687 554.553 854.547 554.846ZM129.327 553.701C129.364 554.042 129.399 554.382 129.439 554.722C129.399 554.382 129.364 554.042 129.327 553.701ZM175.927 552.523C175.994 552.943 176.067 553.363 176.143 553.781C176.067 553.363 175.994 552.943 175.927 552.523ZM855.395 553.05C855.594 552.622 855.79 552.194 855.985 551.765C855.79 552.194 855.594 552.622 855.395 553.05ZM128.982 549.783C129.03 550.466 129.083 551.147 129.143 551.826C129.083 551.147 129.03 550.466 128.982 549.783ZM856.219 551.249C856.422 550.797 856.623 550.344 856.823 549.89C856.623 550.344 856.422 550.797 856.219 551.249ZM857.077 549.314C857.249 548.922 857.417 548.527 857.585 548.133C857.417 548.527 857.249 548.922 857.077 549.314ZM857.936 547.31C858.09 546.944 858.242 546.576 858.393 546.208C858.242 546.576 858.09 546.944 857.936 547.31ZM128.727 543.767C128.742 544.766 128.771 545.761 128.813 546.752C128.771 545.761 128.742 544.766 128.727 543.767ZM175.14 544.368C175.154 544.789 175.173 545.208 175.195 545.627C175.173 545.208 175.154 544.789 175.14 544.368ZM858.729 545.393C858.89 544.995 859.049 544.596 859.207 544.197C859.049 544.596 858.89 544.995 858.729 545.393ZM175.106 542.937C175.109 543.188 175.114 543.438 175.12 543.688C175.114 543.436 175.109 543.184 175.106 542.931V542.937ZM859.476 543.524C859.66 543.055 859.841 542.584 860.021 542.113C859.841 542.584 859.66 543.055 859.476 543.524ZM175.228 537.988C175.144 539.348 175.101 540.721 175.101 542.104C175.101 540.721 175.144 539.348 175.228 537.988ZM860.233 541.56C860.381 541.171 860.525 540.78 860.669 540.39C860.525 540.78 860.381 541.171 860.233 541.56ZM860.957 539.615C861.153 539.078 861.345 538.54 861.536 538.001C861.345 538.54 861.153 539.078 860.957 539.615ZM861.642 537.699C861.801 537.246 861.958 536.791 862.114 536.336C861.958 536.791 861.801 537.246 861.642 537.699ZM862.339 535.674C862.487 535.235 862.632 534.795 862.776 534.354C862.632 534.795 862.487 535.235 862.339 535.674ZM862.994 533.694C863.165 533.166 863.332 532.636 863.498 532.105C863.332 532.636 863.165 533.166 862.994 533.694ZM863.615 531.732C863.756 531.28 863.893 530.827 864.029 530.374C863.893 530.827 863.756 531.28 863.615 531.732ZM176.371 529.228C176.213 530.011 176.071 530.8 175.942 531.593C176.071 530.8 176.213 530.011 176.371 529.228ZM864.245 529.658C864.377 529.214 864.505 528.769 864.634 528.323C864.505 528.769 864.377 529.214 864.245 529.658ZM864.828 527.646C864.941 527.247 865.05 526.848 865.161 526.447C865.05 526.848 864.941 527.247 864.828 527.646ZM865.406 525.554C865.509 525.171 865.608 524.787 865.709 524.403C865.608 524.787 865.509 525.171 865.406 525.554ZM178.054 522.676C177.779 523.55 177.521 524.432 177.283 525.323C177.521 524.432 177.779 523.55 178.054 522.676ZM865.937 523.533C866.064 523.039 866.187 522.543 866.309 522.046C866.187 522.543 866.064 523.039 865.937 523.533ZM866.442 521.512C866.561 521.021 866.677 520.528 866.793 520.035C866.677 520.528 866.561 521.021 866.442 521.512ZM866.926 519.467C867.039 518.977 867.147 518.486 867.256 517.994C867.147 518.486 867.039 518.977 866.926 519.467ZM867.818 515.361C867.921 514.855 868.02 514.348 868.119 513.841C868.02 514.348 867.921 514.855 867.818 515.361ZM868.248 513.183C868.331 512.748 868.41 512.312 868.49 511.876C868.41 512.312 868.331 512.748 868.248 513.183ZM868.985 509.042C869.069 508.53 869.15 508.017 869.23 507.503C869.15 508.017 869.069 508.53 868.985 509.042ZM869.633 504.791C869.715 504.205 869.793 503.619 869.868 503.031C869.793 503.619 869.715 504.205 869.633 504.791ZM870.345 498.946C870.215 500.186 870.074 501.423 869.918 502.655C870.074 501.423 870.215 500.186 870.345 498.946ZM870.79 494.059C871.065 490.443 871.228 486.796 871.274 483.122L871.232 485.327C871.157 488.257 871.01 491.168 870.79 494.059ZM824.789 484.803C824.795 484.587 824.805 484.371 824.81 484.155V484.129C824.805 484.354 824.796 484.579 824.789 484.803ZM217.387 482.13C217.214 482.191 217.042 482.253 216.87 482.316C217.042 482.253 217.214 482.191 217.387 482.13ZM219.529 481.416C219.071 481.56 218.616 481.709 218.163 481.862C218.616 481.709 219.071 481.56 219.529 481.416ZM824.819 478.054C824.839 479 824.85 479.949 824.85 480.901L824.842 479.475C824.837 479 824.829 478.527 824.819 478.053V478.054ZM223.572 480.29C223.35 480.344 223.129 480.399 222.908 480.455C223.129 480.399 223.35 480.344 223.572 480.29ZM225.726 479.801C225.293 479.891 224.863 479.986 224.434 480.085C224.863 479.986 225.293 479.891 225.726 479.801ZM228.835 479.226C228.139 479.338 227.448 479.461 226.76 479.594C227.448 479.461 228.139 479.338 228.835 479.226ZM235.781 478.483C234.659 478.545 233.545 478.635 232.44 478.751C233.545 478.635 234.659 478.545 235.781 478.483ZM237.92 478.398C237.423 478.41 236.927 478.427 236.432 478.45C237.206 478.414 237.983 478.392 238.764 478.382L237.92 478.398ZM250.49 478.405C250.747 478.405 251.003 478.399 251.259 478.39C251.003 478.399 250.747 478.405 250.49 478.405ZM251.582 478.373C251.723 478.365 251.864 478.36 252.005 478.35C251.864 478.36 251.723 478.365 251.582 478.373ZM252.515 478.308C252.596 478.3 252.677 478.295 252.758 478.286C252.677 478.295 252.596 478.3 252.515 478.308ZM253.359 478.217C253.403 478.211 253.448 478.207 253.493 478.201C253.448 478.207 253.403 478.211 253.359 478.217ZM253.99 478.128C254.08 478.114 254.171 478.101 254.261 478.086C254.171 478.101 254.08 478.114 253.99 478.128ZM254.735 478C254.819 477.984 254.903 477.97 254.987 477.953C254.903 477.97 254.819 477.984 254.735 478ZM255.42 477.861C255.527 477.838 255.633 477.815 255.739 477.79C255.633 477.815 255.527 477.838 255.42 477.861ZM256.11 477.7C256.233 477.669 256.355 477.638 256.477 477.606C256.355 477.638 256.233 477.669 256.11 477.7ZM256.814 477.511C256.944 477.474 257.073 477.437 257.202 477.398C257.073 477.437 256.944 477.474 256.814 477.511ZM257.527 477.295C257.65 477.256 257.773 477.218 257.895 477.176C257.773 477.218 257.65 477.256 257.527 477.295ZM258.282 477.041C258.386 477.004 258.49 476.967 258.593 476.928C258.49 476.967 258.386 477.004 258.282 477.041ZM258.999 476.771C259.085 476.737 259.172 476.703 259.259 476.668C259.172 476.703 259.085 476.737 258.999 476.771ZM259.683 476.489C259.775 476.449 259.867 476.41 259.958 476.369C259.867 476.41 259.775 476.449 259.683 476.489ZM260.353 476.187C260.449 476.142 260.546 476.097 260.641 476.05C260.546 476.097 260.449 476.142 260.353 476.187ZM260.966 475.889C261.096 475.823 261.226 475.756 261.355 475.687C261.226 475.756 261.096 475.823 260.966 475.889ZM261.605 475.553C261.733 475.484 261.86 475.413 261.986 475.341C261.86 475.413 261.733 475.484 261.605 475.553ZM262.297 475.161C262.396 475.103 262.494 475.044 262.592 474.984C262.494 475.044 262.396 475.103 262.297 475.161ZM262.917 474.782C263.036 474.707 263.153 474.63 263.27 474.553C263.153 474.63 263.036 474.707 262.917 474.782ZM263.522 474.386C263.636 474.309 263.749 474.23 263.862 474.15C263.749 474.23 263.636 474.309 263.522 474.386ZM264.145 473.949C264.254 473.87 264.361 473.791 264.468 473.71C264.361 473.791 264.254 473.87 264.145 473.949ZM264.735 473.507C264.84 473.426 264.944 473.343 265.047 473.26C264.944 473.343 264.84 473.426 264.735 473.507ZM265.332 473.029C265.418 472.957 265.503 472.884 265.588 472.811C265.503 472.884 265.418 472.957 265.332 473.029ZM265.914 472.53C265.988 472.464 266.061 472.397 266.134 472.33C266.061 472.397 265.988 472.464 265.914 472.53ZM266.446 472.043C266.529 471.965 266.611 471.884 266.693 471.804C266.611 471.884 266.529 471.965 266.446 472.043ZM266.998 471.505C267.062 471.44 267.125 471.374 267.188 471.308C267.125 471.374 267.062 471.44 266.998 471.505ZM267.507 470.975C267.585 470.891 267.661 470.806 267.737 470.721C267.661 470.806 267.585 470.891 267.507 470.975ZM268.001 470.427C268.105 470.308 268.207 470.188 268.308 470.067C268.207 470.188 268.105 470.308 268.001 470.427ZM268.485 469.855C268.579 469.74 268.671 469.622 268.763 469.505C268.671 469.622 268.579 469.74 268.485 469.855ZM268.953 469.264C269.041 469.149 269.126 469.03 269.213 468.912C269.126 469.03 269.041 469.149 268.953 469.264ZM822.911 458.63H822.912H822.911ZM215.607 432.448C215.761 432.97 215.918 433.491 216.077 434.011C215.918 433.491 215.761 432.97 215.607 432.448ZM214.625 428.979C214.661 429.113 214.698 429.248 214.735 429.382C214.698 429.248 214.661 429.113 214.625 428.979ZM214.272 427.652C214.329 427.87 214.387 428.087 214.445 428.304C214.387 428.087 214.329 427.87 214.272 427.652ZM213.913 426.257C213.985 426.542 214.059 426.826 214.133 427.111C214.059 426.826 213.985 426.542 213.913 426.257ZM213.579 424.899C213.639 425.149 213.702 425.399 213.763 425.649C213.702 425.399 213.639 425.149 213.579 424.899ZM213.251 423.521C213.304 423.749 213.359 423.976 213.413 424.204C213.359 423.976 213.304 423.749 213.251 423.521ZM212.923 422.083C212.985 422.359 213.048 422.634 213.111 422.91C213.048 422.634 212.985 422.359 212.923 422.083ZM212.638 420.775C212.673 420.938 212.709 421.102 212.744 421.265C212.709 421.102 212.673 420.938 212.638 420.775ZM212.347 419.39C212.393 419.616 212.441 419.842 212.488 420.068C212.441 419.842 212.393 419.616 212.347 419.39ZM212.089 418.096C212.113 418.221 212.138 418.346 212.163 418.472C212.138 418.346 212.113 418.221 212.089 418.096ZM211.81 416.635C211.838 416.787 211.867 416.938 211.895 417.09C211.867 416.938 211.838 416.787 211.81 416.635ZM211.528 415.076C211.576 415.352 211.626 415.627 211.676 415.902C211.626 415.627 211.576 415.352 211.528 415.076ZM211.306 413.775C211.341 413.986 211.377 414.196 211.413 414.407C211.377 414.196 211.341 413.986 211.306 413.775ZM211.063 412.267C211.105 412.534 211.146 412.802 211.19 413.069C211.146 412.802 211.105 412.534 211.063 412.267ZM803.533 410.661C804.022 411.386 804.505 412.116 804.979 412.852C804.504 412.116 804.022 411.386 803.533 410.661ZM210.857 410.915C210.897 411.185 210.938 411.454 210.979 411.724C210.938 411.454 210.897 411.185 210.857 410.915ZM210.66 409.534C210.697 409.801 210.734 410.067 210.772 410.334C210.734 410.067 210.697 409.801 210.66 409.534ZM210.486 408.228C210.511 408.424 210.536 408.62 210.562 408.815C210.536 408.62 210.511 408.424 210.486 408.228ZM210.3 406.736C210.328 406.97 210.355 407.203 210.384 407.436C210.355 407.203 210.328 406.97 210.3 406.736ZM210.139 405.33C210.163 405.547 210.186 405.764 210.211 405.98C210.186 405.764 210.163 405.547 210.139 405.33ZM209.986 403.87C210.01 404.113 210.035 404.356 210.06 404.599C210.035 404.356 210.01 404.113 209.986 403.87ZM209.841 402.347C209.866 402.626 209.891 402.906 209.918 403.186C209.891 402.906 209.866 402.626 209.841 402.347ZM209.73 401.058C209.75 401.296 209.768 401.534 209.788 401.772C209.768 401.534 209.75 401.296 209.73 401.058ZM209.613 399.503C209.633 399.788 209.653 400.074 209.674 400.359C209.653 400.074 209.633 399.788 209.613 399.503ZM209.506 397.89C209.528 398.246 209.549 398.603 209.573 398.959C209.549 398.603 209.528 398.246 209.506 397.89ZM209.45 396.889C209.46 397.083 209.469 397.277 209.48 397.472C209.469 397.277 209.46 397.083 209.45 396.889ZM209.362 395.045C209.377 395.395 209.391 395.746 209.408 396.097C209.391 395.746 209.376 395.395 209.362 395.045ZM209.277 392.411C209.273 392.22 209.267 392.029 209.263 391.837L209.262 391.792C209.266 391.998 209.272 392.205 209.277 392.411ZM255.686 391.651C255.685 391.605 255.684 391.56 255.683 391.515C255.684 391.56 255.685 391.605 255.686 391.651ZM813.905 352.825C814.228 353.113 814.549 353.403 814.87 353.694C814.142 353.035 813.409 352.381 812.67 351.735L813.905 352.825ZM801.094 342.467V342.466V342.467ZM795.691 338.669C796.605 339.285 797.511 339.91 798.412 340.543L797.056 339.599C796.603 339.287 796.148 338.977 795.691 338.669ZM788.727 334.215C788.881 334.308 789.035 334.404 789.19 334.498C788.564 334.116 787.937 333.737 787.306 333.363L788.727 334.215ZM781.537 330.092C782.51 330.618 783.477 331.155 784.438 331.7C783.477 331.155 782.51 330.618 781.537 330.092ZM773.11 325.83C773.789 326.15 774.466 326.474 775.14 326.803C774.466 326.474 773.789 326.15 773.11 325.83ZM761.865 321.014C762.835 321.388 763.799 321.772 764.76 322.163C763.799 321.772 762.835 321.388 761.865 321.014ZM296.955 304.045H296.956H296.955ZM300.065 301.703C299.715 301.957 299.366 302.213 299.019 302.471L300.066 301.703C300.417 301.449 300.769 301.197 301.122 300.947L300.065 301.703ZM304.348 298.753C304.249 298.817 304.151 298.884 304.052 298.949C304.513 298.645 304.976 298.344 305.442 298.047L304.348 298.753ZM309.908 295.352C309.815 295.405 309.723 295.46 309.63 295.514C310.1 295.243 310.572 294.975 311.047 294.711L309.908 295.352ZM314.516 292.869C313.737 293.265 312.963 293.67 312.195 294.084L313.351 293.47C313.738 293.267 314.126 293.067 314.516 292.869ZM334.208 285.184H334.209H334.208ZM389.135 284.081C389.686 284.213 390.237 284.35 390.786 284.49C390.237 284.35 389.686 284.213 389.135 284.081ZM344.723 282.784C344.277 282.862 343.832 282.944 343.388 283.028C344.277 282.86 345.169 282.702 346.065 282.555L344.723 282.784ZM351.621 281.79C351.539 281.799 351.457 281.808 351.376 281.818C351.457 281.808 351.539 281.799 351.621 281.79ZM355.612 281.415C355.575 281.418 355.538 281.421 355.5 281.424C355.999 281.386 356.498 281.351 356.998 281.32L355.612 281.415ZM257.346 277.375C256.493 278.185 255.651 279.005 254.817 279.834C255.651 279.005 256.493 278.185 257.346 277.375ZM273.037 264.311C272.034 265.04 271.04 265.781 270.056 266.534C271.04 265.781 272.034 265.04 273.037 264.311ZM686.891 246.137C687.665 247.422 688.421 248.718 689.155 250.028C688.421 248.718 687.665 247.422 686.891 246.137ZM298.737 249.151V249.152V249.151ZM733.498 235.151C734.049 236.244 734.593 237.341 735.124 238.445C734.593 237.341 734.049 236.244 733.498 235.151ZM679.703 235.314C680.374 236.233 681.035 237.16 681.686 238.095L680.674 236.658C680.353 236.208 680.029 235.76 679.703 235.314ZM384.775 236.159C385.737 236.292 386.698 236.433 387.657 236.582C386.698 236.433 385.737 236.292 384.775 236.159ZM384.525 236.125C384.113 236.069 383.699 236.014 383.286 235.961C383.699 236.014 384.113 236.069 384.525 236.125ZM383.094 235.937C382.717 235.888 382.339 235.841 381.961 235.795C382.339 235.841 382.717 235.888 383.094 235.937ZM381.44 235.734C381.101 235.695 380.761 235.656 380.421 235.618C380.761 235.656 381.101 235.695 381.44 235.734ZM380.06 235.579C379.723 235.542 379.386 235.508 379.049 235.473C379.386 235.508 379.723 235.542 380.06 235.579ZM378.51 235.419C378.214 235.39 377.917 235.362 377.62 235.334C377.917 235.362 378.214 235.39 378.51 235.419ZM377.107 235.288C376.774 235.258 376.44 235.23 376.106 235.203C376.44 235.23 376.774 235.258 377.107 235.288ZM375.67 235.167C375.301 235.138 374.933 235.109 374.565 235.083C374.933 235.109 375.301 235.138 375.67 235.167ZM374.305 235.064C373.922 235.037 373.539 235.012 373.156 234.988C373.539 235.012 373.922 235.037 374.305 235.064ZM372.778 234.964C372.395 234.941 372.012 234.92 371.629 234.9C372.012 234.92 372.395 234.941 372.778 234.964ZM358.028 234.812V234.813V234.812ZM371.368 234.886C370.976 234.866 370.584 234.848 370.192 234.831C370.584 234.848 370.976 234.866 371.368 234.886ZM369.872 234.817C369.525 234.803 369.179 234.791 368.832 234.779C369.179 234.791 369.525 234.803 369.872 234.817ZM368.399 234.765C368.049 234.754 367.7 234.745 367.351 234.737C367.7 234.745 368.049 234.754 368.399 234.765ZM674.256 228.316C675.002 229.217 675.737 230.126 676.461 231.044C675.737 230.126 675.002 229.217 674.256 228.316ZM724.966 220C725.778 221.301 726.576 222.612 727.358 223.934C726.576 222.612 725.778 221.301 724.966 220ZM658.412 211.969C658.643 212.173 658.872 212.38 659.102 212.585C658.436 211.99 657.767 211.399 657.09 210.816L658.412 211.969ZM650.817 205.709C651.255 206.046 651.692 206.386 652.127 206.729C651.692 206.386 651.255 206.046 650.817 205.709ZM708.761 197.747C710.731 200.084 712.647 202.469 714.506 204.898L713.101 203.084C711.686 201.279 710.238 199.5 708.761 197.747ZM412.388 198.496V198.496V198.496ZM629.465 192.042C630.512 192.59 631.551 193.15 632.582 193.723C631.551 193.15 630.512 192.59 629.465 192.042ZM623.094 188.899V188.9V188.899ZM504.584 186.477C503.893 186.763 503.206 187.057 502.52 187.353C503.206 187.057 503.893 186.763 504.584 186.477ZM594.199 179.026C596.57 179.568 598.918 180.167 601.242 180.822C598.918 180.167 596.57 179.568 594.199 179.026ZM583.386 176.974C579.734 176.422 576.037 176.002 572.3 175.719C573.546 175.813 574.787 175.923 576.024 176.047C577.26 176.172 578.492 176.311 579.719 176.466C580.946 176.62 582.168 176.79 583.386 176.974ZM538.145 177.049C538.07 177.061 537.995 177.073 537.92 177.085C538.461 176.999 539.002 176.916 539.544 176.837L538.145 177.049ZM560.846 128.888L560.84 128.889C560.875 128.886 560.909 128.883 560.944 128.88L560.846 128.888ZM181.295 569.775C181.375 569.943 181.457 570.111 181.539 570.279C181.457 570.111 181.375 569.943 181.295 569.775ZM792.623 565.235C792.906 564.924 793.186 564.61 793.465 564.296C793.186 564.61 792.906 564.924 792.623 565.235ZM793.629 564.113C793.911 563.793 794.192 563.472 794.471 563.15C794.192 563.472 793.911 563.793 793.629 564.113ZM176.891 557.337C176.932 557.509 176.975 557.682 177.018 557.854C176.975 557.682 176.932 557.509 176.891 557.337ZM176.226 554.235C176.27 554.468 176.315 554.701 176.361 554.933C176.315 554.701 176.27 554.468 176.226 554.235ZM175.276 537.286C175.259 537.52 175.242 537.754 175.228 537.988C175.242 537.754 175.259 537.52 175.276 537.286ZM176.516 528.533C176.467 528.764 176.417 528.996 176.371 529.228C176.417 528.996 176.467 528.764 176.516 528.533ZM867.389 517.395C867.529 516.749 867.665 516.102 867.798 515.453C867.665 516.102 867.529 516.749 867.389 517.395ZM868.624 511.142C868.742 510.48 868.856 509.816 868.966 509.152C868.856 509.816 868.742 510.48 868.624 511.142ZM869.325 506.905C869.428 506.226 869.527 505.546 869.623 504.864C869.527 505.546 869.428 506.226 869.325 506.905ZM870.405 498.393C870.452 497.931 870.494 497.468 870.537 497.006C870.494 497.468 870.452 497.931 870.405 498.393ZM824.75 485.989C824.753 485.909 824.757 485.83 824.76 485.75C824.757 485.83 824.753 485.909 824.75 485.989ZM218.065 481.895C217.839 481.972 217.613 482.05 217.387 482.13C217.613 482.05 217.839 481.972 218.065 481.895ZM255.746 393.429C255.769 393.974 255.795 394.519 255.826 395.063C255.795 394.519 255.769 393.974 255.746 393.429ZM209.277 392.411C209.284 392.698 209.29 392.985 209.298 393.271C209.29 392.985 209.284 392.698 209.277 392.411ZM255.656 389.847L255.668 390.743C255.672 391 255.677 391.257 255.683 391.515C255.67 390.959 255.661 390.403 255.656 389.847Z" fill="#000813"/>
</g>
<defs>
<clipPath id="clip0_344_418">
<rect width="1000" height="780.86" fill="white" transform="translate(0 0.134766)"/>
</clipPath>
</defs>
</svg>
