<svg width="1000" height="977" viewBox="0 0 1000 977" fill="none" xmlns="http://www.w3.org/2000/svg">
<g clip-path="url(#clip0_463_439)">
<path d="M501.088 0.0043403C546.796 0.413344 587.725 26.5891 607.885 66.6789L700.064 248.544L898.976 281.811C899.703 281.933 900.426 282.064 901.146 282.204C945.409 290.446 980.962 322.552 994.314 364.902H994.312C1007.81 407.556 996.945 454.503 965.366 486.827L822.998 632.807L853.418 833.385C853.63 834.527 853.821 835.678 853.988 836.838C860.277 880.71 842.345 925.45 805.642 952.381L805.643 952.382C805.61 952.406 805.576 952.429 805.543 952.454C805.529 952.464 805.516 952.475 805.502 952.485L805.501 952.484C768.871 979.318 720.199 983.384 679.53 962.608L500.004 870.971L320.897 962.395C299.285 973.682 274.476 978.291 249.778 975.062C249.583 975.037 249.387 975.011 249.192 974.984C216.687 970.5 187.744 953.001 168.557 926.992L168.556 926.993C168.501 926.919 168.447 926.845 168.393 926.771C168.337 926.694 168.28 926.619 168.224 926.542L168.225 926.541C149.028 900.381 141.314 867.863 146.089 836.331L176.542 632.806L34.5012 486.742C33.6101 485.825 32.7461 484.889 31.9036 483.94C2.43823 451.748 -7.4109 406.304 5.68709 364.905C5.70463 364.85 5.72156 364.794 5.73918 364.738C5.74905 364.707 5.75857 364.676 5.76847 364.645C19.4083 321.711 55.8824 289.356 101.087 281.809L299.525 248.545L392.063 66.7853C412.361 26.3223 453.81 0 500 0L501.088 0.0043403Z" fill="#986DF8"/>
<path d="M260.575 892.432C250.558 891.05 241.528 885.622 235.508 877.382C229.439 869.191 226.922 858.828 228.501 848.664L265.065 604.308L94.2403 428.645H94.2897C84.3221 418.48 80.8188 403.578 85.1609 389.959C89.4538 376.34 100.902 366.323 114.817 364.004L354.727 323.788L466.443 104.355C472.809 91.4767 485.786 83.334 499.997 83.334C514.208 83.334 527.185 91.4758 533.55 104.355L644.772 323.788L885.225 364.004H885.176C899.092 366.323 910.539 376.34 914.833 389.959C919.175 403.578 915.671 418.48 905.704 428.645L734.387 604.308L771.444 848.664H771.494C773.517 862.777 767.694 876.889 756.296 885.228C744.947 893.567 729.947 894.8 717.413 888.386L500.001 777.41L282.589 888.386C275.829 891.988 268.125 893.419 260.575 892.432ZM313.669 787.032L482.965 700.481V700.531C493.673 695.004 506.306 695.004 517.013 700.531L685.816 787.081L657.246 596.664C655.519 584.723 659.417 572.634 667.806 564.097L801.037 427.165L614.22 396.127L614.171 396.078C602.427 394.252 592.212 386.9 586.636 376.193L499.988 205.115L413.339 376.193C407.763 386.9 397.549 394.253 385.804 396.078L198.988 427.115L332.219 564.048L332.169 564.097C340.558 572.634 344.456 584.723 342.729 596.664L313.665 787.081L313.669 787.032Z" fill="#000813"/>
</g>
<defs>
<clipPath id="clip0_463_439">
<rect width="1000" height="976.07" fill="white"/>
</clipPath>
</defs>
</svg>
