<svg width="1000" height="1001" viewBox="0 0 1000 1001" fill="none" xmlns="http://www.w3.org/2000/svg">
<g clip-path="url(#clip0_278_294)">
<path d="M699.953 113.132C748.281 113.132 787.431 152.283 787.431 200.611V712.987H887.407V787.969H587.486V850.466C587.486 871.164 570.685 887.952 549.988 887.952C545.253 887.952 540.518 887.073 536.125 885.316L292.803 787.969H112.592V712.987H212.569V200.611C212.569 152.283 251.72 113.132 300.048 113.132H699.953ZM287.551 705.105L512.499 795.104V325.591L287.551 235.947V705.105ZM564.005 265.743C578.21 271.455 587.535 285.27 587.486 300.599V712.987H712.449V200.611C712.449 197.291 711.131 194.118 708.788 191.774C706.445 189.431 703.272 188.113 699.953 188.113H369.797L564.005 265.743Z" fill="#000813"/>
<path d="M787.431 200.611C787.431 152.282 748.281 113.132 699.953 113.132H300.048C251.72 113.132 212.569 152.282 212.569 200.611V712.987H112.592V787.969H292.803L536.125 885.316C540.518 887.073 545.253 887.952 549.988 887.952C570.685 887.952 587.486 871.164 587.486 850.466V787.969H887.407V712.987H787.431V200.611ZM512.499 325.591V795.104L287.551 705.105V235.947L512.499 325.591ZM699.953 188.113C703.272 188.113 706.445 189.431 708.788 191.774C711.131 194.117 712.449 197.291 712.449 200.611V712.987H587.486V300.598C587.535 285.269 578.21 271.454 564.005 265.743L369.797 188.113H699.953ZM900.023 601.093C956.268 607.364 1000 655.068 1000 712.987V787.969C1000 850.152 949.591 900.561 887.407 900.561H691.512C670.879 958.834 615.27 1000.54 549.988 1000.54H549.987C531.467 1000.54 512.494 997.129 494.312 989.857L494.302 989.853L271.113 900.561H112.592C50.4092 900.561 0 850.152 0 787.969V712.987C0 655.068 43.7318 607.364 99.9768 601.093V200.611C99.9768 90.0989 189.537 0.539062 300.048 0.539062H699.954C810.465 0.539858 900.023 90.1003 900.023 200.611V601.093Z" fill="#986DF8"/>
</g>
<defs>
<clipPath id="clip0_278_294">
<rect width="1000" height="1000" fill="white" transform="translate(0 0.539062)"/>
</clipPath>
</defs>
</svg>
