<svg width="1000" height="1000" viewBox="0 0 1000 1000" fill="none" xmlns="http://www.w3.org/2000/svg">
<g clip-path="url(#clip0_463_469)">
<path d="M930.598 222.201C930.598 232.29 929.304 242.242 926.813 251.841C969.323 269.312 999.374 310.871 999.99 359.543L1000 361.069C1000 410.394 969.771 452.637 926.823 470.293C936.933 509.399 926.678 552.672 896.06 583.321L896.061 583.322C896.037 583.347 896.011 583.37 895.986 583.395C895.962 583.419 895.938 583.445 895.913 583.47L895.912 583.469C849.804 629.536 775.124 629.51 729.047 583.398L715.454 569.807C719.863 592.194 722.189 615.169 722.277 638.468C722.278 638.572 722.278 638.677 722.278 638.781C722.278 734.553 684.238 826.356 616.56 894.079C616.547 894.092 616.535 894.105 616.522 894.118C548.799 961.796 456.999 999.834 361.225 999.834H356.546C355.789 999.834 355.031 999.823 354.274 999.803C262.413 997.297 174.86 960.161 109.225 895.845C43.5534 831.524 4.66547 744.762 0.271007 653.008C0.254757 652.668 0.240787 652.328 0.22869 651.989C-2.10805 586.422 13.502 521.472 45.2548 464.133L45.2928 464.063C68.9324 421.469 100.87 384.225 139.036 354.459V326.352C139.036 256.142 186.407 196.993 250.93 179.12C261.586 138.251 282.964 100.542 313.389 70.152C357.928 25.6004 418.166 0.462636 481.036 0.0173611C481.596 0.00612705 482.157 0 482.72 0C546.203 0 607.128 25.1859 652.069 70.1444C677.516 95.5652 696.634 126.105 708.444 159.332L729.046 138.731C751.187 116.556 781.2 104.119 812.516 104.119C843.757 104.12 873.702 116.499 895.83 138.579L895.832 138.578C895.878 138.624 895.924 138.671 895.97 138.717C896.026 138.773 896.083 138.828 896.139 138.885C918.22 161.012 930.597 190.96 930.598 222.201Z" fill="#986DF8"/>
<path d="M482.724 83.332C524.155 83.3322 563.886 99.7744 593.177 129.099C622.501 158.393 638.943 198.126 638.943 239.553V256.91C638.943 295.253 670.031 326.34 708.373 326.34C727.561 326.34 743.088 341.867 743.088 361.055C743.088 380.242 727.561 395.77 708.373 395.77C671.561 395.77 636.235 381.12 610.199 355.088C584.163 329.056 569.519 293.732 569.519 256.915V239.558C569.519 191.622 530.667 152.77 482.731 152.77C434.795 152.77 395.943 191.622 395.943 239.558V256.915H430.658C449.066 256.915 466.729 264.238 479.747 277.256C492.766 290.274 500.089 307.936 500.089 326.345V398.554C585.723 448.326 638.575 539.756 638.948 638.78C638.948 712.445 609.691 783.065 557.619 835.171C505.512 887.243 434.896 916.5 361.229 916.5H356.55C285.697 914.567 218.168 885.921 167.554 836.324C116.906 786.725 86.9018 719.805 83.5117 649.02C81.7153 598.614 93.7166 548.641 118.159 504.502C142.637 460.397 178.674 423.749 222.373 398.561V326.352C222.373 288.009 253.46 256.922 291.803 256.922H326.518V239.564C326.518 198.133 342.96 158.401 372.284 129.11C401.578 99.7858 441.311 83.3438 482.738 83.3438L482.724 83.332ZM291.813 419.469C291.78 432.894 284.016 445.099 271.846 450.794C235.093 468.22 204.208 496.053 183.088 530.835C161.968 565.617 151.492 605.824 152.95 646.505C155.458 699.601 177.969 749.771 215.938 786.961C253.908 824.185 304.556 845.645 357.679 847.068C413.544 848.018 467.414 826.49 507.282 787.334C547.117 748.176 569.525 694.649 569.525 638.78C569.356 599.418 558.066 560.906 537.014 527.649C515.961 494.426 485.958 467.779 450.464 450.795C438.362 445.031 430.666 432.862 430.666 419.471V326.348L291.813 326.346V419.469ZM753.26 440.668C766.819 427.074 788.788 427.074 802.349 440.668L837.063 475.383C850.658 488.942 850.658 510.911 837.063 524.472C823.504 538.066 801.535 538.066 787.975 524.472L753.26 489.757C739.665 476.197 739.665 454.228 753.26 440.668ZM881.955 326.354C901.143 326.354 916.67 341.881 916.67 361.068C916.67 380.256 901.143 395.783 881.955 395.783H847.24C828.053 395.783 812.525 380.256 812.525 361.068C812.525 341.881 828.053 326.354 847.24 326.354H881.955ZM812.519 187.451C821.74 187.451 830.554 191.113 837.063 197.656C843.606 204.165 847.268 212.979 847.268 222.2C847.268 231.421 843.606 240.235 837.063 246.744L802.349 281.459C788.789 295.053 766.82 295.053 753.26 281.459C739.666 267.899 739.666 245.932 753.26 232.371L787.975 197.656C794.484 191.113 803.298 187.451 812.519 187.451Z" fill="#000813"/>
</g>
<defs>
<clipPath id="clip0_463_469">
<rect width="1000" height="999.83" fill="white"/>
</clipPath>
</defs>
</svg>
