<svg width="1000" height="641" viewBox="0 0 1000 641" fill="none" xmlns="http://www.w3.org/2000/svg">
<g clip-path="url(#clip0_344_357)">
<path d="M815.18 0.0761719L816.456 0.08003C924.768 0.792022 998.861 92.0959 999.986 187.481L999.989 187.807L999.992 188.132L999.998 189.051L1000 189.424V410.388C1000 506.685 925.659 599.383 816.467 600.106L815.18 600.11H184.419L183.302 600.102H183.249C182.917 600.1 182.655 600.096 182.577 600.096C182.516 600.095 182.461 600.093 182.415 600.093C182.37 600.092 182.325 600.091 182.281 600.091C182.193 600.089 182.089 600.089 181.98 600.087C121.157 599.123 67.724 571.591 39.276 527.105C10.8279 482.62 -0.965057 443.933 0.0613973 343.074C1.08785 242.215 0.0624471 343.074 0.0624471 343.074V189.796L0.0759504 187.531C1.23619 91.6729 75.8479 0.0761719 184.882 0.0761719H815.18Z" fill="#986DF8"/>
<path d="M819.789 117.062C856.119 117.062 885.624 148.444 886.083 187.343L886.088 188.263V408.853C886.088 448.177 856.405 480.055 819.789 480.055H189.425L188.706 480.05C188.686 480.05 188.64 480.049 188.636 480.049C152.412 479.556 123.191 447.87 123.191 408.853V188.263C123.192 148.94 152.875 117.062 189.491 117.062H819.789ZM171.778 465.489C171.992 465.566 172.207 465.641 172.422 465.716L171.779 465.489C171.565 465.412 171.351 465.333 171.139 465.254L171.778 465.489ZM160.843 460.06C161.224 460.306 161.607 460.547 161.993 460.783H161.994C161.608 460.547 161.225 460.306 160.844 460.06H160.843ZM820.692 418.282C820.988 418.25 821.281 418.202 821.568 418.139C821.281 418.202 820.988 418.25 820.692 418.282ZM189.491 179.828C185.288 179.828 181.857 183.373 181.646 187.83L181.636 188.263V408.853C181.636 413.512 185.153 417.289 189.491 417.289H819.789C824.127 417.289 827.643 413.512 827.643 408.853V188.263C827.643 183.604 824.127 179.828 819.789 179.828H189.491ZM186.866 417.906C187.557 418.137 188.284 418.279 189.036 418.32V418.319C188.886 418.311 188.736 418.299 188.588 418.282C188.291 418.25 187.999 418.202 187.712 418.139C187.425 418.076 187.143 417.998 186.866 417.905V417.906ZM240.265 240.083C244.471 240.03 248.556 240.03 252.516 240.083C256.468 240.084 259.617 240.137 261.956 240.244C274.945 240.726 285.631 243.453 293.958 248.493C302.314 253.521 308.484 260.329 312.431 268.915C316.36 277.463 318.311 287.255 318.311 298.264C318.311 309.594 316.285 319.728 312.209 328.645L312.208 328.647C308.117 337.543 301.877 344.54 293.515 349.625C285.127 354.726 274.525 357.241 261.766 357.241H222.411V240.083H240.265ZM413.619 267.793H363.682V284.806H405.474V311.88H363.46V329.371H413.921V357.241H332.693V240.083H413.778L413.619 267.793ZM459.413 329.689H502.242V357.241H428.645V240.083H459.413V329.689ZM595.25 267.793H545.312V284.806H587.103V311.88H545.089V329.371H595.552V357.241H514.323V240.083H595.409L595.25 267.793ZM698.736 269.386H668.06V357.241H637.218V269.386H606.838V240.083H698.736V269.386ZM789.905 267.793H739.968V284.806H781.76V311.88H739.746V329.371H790.207V357.241H708.979V240.083H790.065L789.905 267.793ZM286.468 351.99H286.469H286.468ZM262.655 331.847V331.846V331.847ZM253.178 330.803H262.655C266.125 330.803 269.673 329.772 273.309 327.666C276.916 325.552 279.98 322.106 282.479 317.256L282.483 317.248L282.714 316.796C285.07 312.067 286.284 305.755 286.284 297.786C286.284 290.833 285.261 285.079 283.263 280.481L283.257 280.469C281.301 275.806 278.558 272.344 275.041 270.027C271.728 267.845 267.902 266.673 263.536 266.534L262.655 266.52H253.178V330.803ZM362.489 330.415V330.414V330.415ZM544.118 330.415V330.414V330.415ZM738.775 330.415V330.414V330.415ZM586.132 310.837L586.133 285.85H586.132V310.837ZM316.965 306.431H316.964H316.965ZM299.884 253.974V253.973V253.974ZM288.645 246.862V246.861V246.862ZM285.144 245.43V245.429V245.43ZM257.82 241.166C258.996 241.185 260.058 241.213 261.005 241.248C260.058 241.213 258.996 241.185 257.82 241.166ZM249.517 241.097V241.096V241.097ZM243.402 241.096V241.097V241.096ZM830.52 172.027C830.642 172.119 830.762 172.214 830.881 172.309L830.521 172.027C830.4 171.934 830.277 171.843 830.154 171.754L830.52 172.027ZM826.163 169.563C826.305 169.618 826.447 169.676 826.587 169.735L826.164 169.563C826.022 169.507 825.879 169.453 825.735 169.4L826.163 169.563ZM165.537 122.97V122.971V122.97Z" fill="#000813"/>
</g>
<defs>
<clipPath id="clip0_344_357">
<rect width="1000" height="640" fill="white" transform="translate(0 0.0761719)"/>
</clipPath>
</defs>
</svg>
