<svg width="1000" height="881" viewBox="0 0 1000 881" fill="none" xmlns="http://www.w3.org/2000/svg">
<g clip-path="url(#clip0_463_820)">
<path d="M1000 762.309C1000 697.889 947.794 645.682 883.374 645.682H882.106C925.248 603.682 929.668 534.767 890.342 487.523L890.315 487.49L688.596 245.426C667.801 220.414 637.381 205.088 604.633 203.479C603.032 203.401 601.429 203.373 599.826 203.395C569.059 203.824 539.496 216.394 517.832 238.71L457.5 299.042L375.084 174.918C370.602 168.169 365.142 162.275 358.962 157.37C343.27 140.844 322.937 129.119 300.362 123.95L298.815 123.608C276.755 118.879 254.003 120.686 233.253 128.508V116.626C233.253 52.2062 181.046 0.000124139 116.626 0C52.2063 0 0 52.2063 0 116.626V762.31C0.00071578 826.729 52.206 878.935 116.626 878.935H883.374C947.794 878.935 999.999 826.728 1000 762.309Z" fill="#986DF8"/>
<path d="M116.628 76.2715C138.925 76.2715 156.983 94.3294 156.983 116.626V721.953H883.376C905.673 721.953 923.731 740.012 923.731 762.309C923.731 784.605 905.673 802.664 883.376 802.664H116.628C94.3314 802.664 76.2735 784.605 76.2734 762.309V116.626C76.2736 94.3296 94.3315 76.2717 116.628 76.2715ZM251.964 204.098C261.145 197.944 272.494 195.825 283.34 198.297C294.135 200.769 303.467 207.579 309.117 217.112L311.546 217.109L445.524 418.885L572.24 292.17C579.706 284.301 590.046 279.811 600.893 279.659C612.192 280.214 622.735 285.511 629.948 294.188L831.724 536.318C846 553.469 843.629 578.944 826.478 593.219C809.327 607.493 783.853 605.123 769.578 587.972L596.044 379.739L465.693 510.09C457.168 518.665 445.214 522.953 433.208 521.793C421.152 520.582 410.257 514.075 403.547 504.037L242.126 261.906C235.468 253.028 232.744 241.829 234.61 230.884C236.426 219.937 242.732 210.251 251.964 204.098Z" fill="#000813"/>
</g>
<defs>
<clipPath id="clip0_463_820">
<rect width="1000" height="880.95" fill="white"/>
</clipPath>
</defs>
</svg>
