<svg width="1000" height="1000" viewBox="0 0 1000 1000" fill="none" xmlns="http://www.w3.org/2000/svg">
<g clip-path="url(#clip0_463_429)">
<path d="M969.292 545.516C988.945 565.169 1000 591.82 1000 619.649H999.999C999.998 647.347 989.033 674.092 969.29 693.836L693.833 969.292C674.082 989.043 647.335 1000 619.644 999.999V999.998C591.818 999.997 565.169 988.945 545.516 969.292L399.32 823.096C338.366 761.963 307.454 678.336 312.371 594.02C304.462 587.956 297.597 581.941 291.894 576.725C282.155 567.817 273.151 558.669 265.722 551.037C257.694 542.79 252.171 537.022 247.098 532.172L246.461 531.564L245.839 530.94C218.606 503.627 205.518 466.748 207.696 430.214L30.7077 253.225C11.0549 233.572 -0.000932257 206.922 5.89595e-08 179.093C0.000467537 151.405 10.957 124.659 30.7077 104.909L104.909 30.707C124.659 10.9573 151.405 -0.00029712 179.095 6.04307e-09L180.399 0.00811353C207.753 0.347573 233.879 11.3604 253.226 30.707L430.214 207.695C466.749 205.517 503.627 218.607 530.94 245.839L531.56 246.458L532.165 247.09C537.046 252.193 542.828 257.729 551.067 265.744C558.696 273.166 567.838 282.158 576.738 291.886C581.967 297.602 587.977 304.464 594.03 312.362C678.371 307.439 761.978 338.386 823.095 399.319L969.292 545.516Z" fill="#986DF8"/>
<path d="M917.357 641.91L641.9 917.367C636.009 923.258 627.978 926.566 619.641 926.565C611.304 926.565 603.328 923.258 597.437 917.367L451.317 771.247C394.765 714.528 372.451 632.132 392.546 554.625C357.308 545.621 323.099 503.241 297.836 479.091C278.967 460.166 275.466 430.82 289.304 407.976L82.628 201.3C76.7365 195.409 73.4294 187.433 73.4297 179.096C73.4297 170.759 76.7366 162.728 82.6279 156.836L156.83 82.6348C162.721 76.7433 170.752 73.4362 179.089 73.4365C187.426 73.4365 195.402 76.7435 201.293 82.6348L407.969 289.311C430.813 275.472 460.159 278.973 479.084 297.843C503.373 323.243 545.53 357.175 554.618 392.553C632.153 372.433 714.526 394.78 771.24 451.324L917.36 597.444C923.252 603.335 926.559 611.311 926.558 619.648C926.558 627.985 923.249 636.019 917.357 641.91ZM803.279 667.06L850.661 619.678L726.774 495.79C685.477 454.716 625.422 438.736 569.179 453.858C512.937 468.98 468.971 512.938 453.85 569.188C438.729 625.437 454.712 685.489 495.782 726.782L619.67 850.669L667.052 803.287L623.672 759.907C611.388 747.623 611.388 727.726 623.672 715.442C635.955 703.159 655.852 703.159 668.136 715.442L711.072 758.378L758.342 711.052L715.435 668.145C703.151 655.861 703.151 635.964 715.435 623.681C727.718 611.397 747.615 611.397 759.899 623.681L803.279 667.06ZM451.321 451.329C464.743 437.851 479.833 426.207 496.23 416.591C492.367 392.72 453.128 362.817 438.065 345.81L345.8 438.131C362.974 453.304 392.543 492.266 416.554 496.268L416.526 496.24C426.141 479.844 437.842 464.752 451.321 451.329ZM332.602 362.345L362.365 332.637L179.059 149.331L149.324 179.067L332.602 362.345Z" fill="#000813"/>
</g>
<defs>
<clipPath id="clip0_463_429">
<rect width="1000" height="1000" fill="white"/>
</clipPath>
</defs>
</svg>
