<svg width="1000" height="971" viewBox="0 0 1000 971" fill="none" xmlns="http://www.w3.org/2000/svg">
<g clip-path="url(#clip0_347_117)">
<path d="M326.531 340.434C326.577 340.424 326.704 340.397 326.716 340.395C326.826 340.371 327.025 340.328 327.254 340.28C327.633 340.201 327.97 340.131 328.258 340.073H328.261C329.215 339.881 330.005 339.732 330.351 339.667C330.389 339.66 330.418 339.655 330.456 339.647C330.469 339.645 330.582 339.624 330.692 339.604C330.829 339.578 331.06 339.535 331.344 339.483C331.637 339.43 331.881 339.386 332.05 339.356C332.353 339.303 332.659 339.251 332.97 339.198C333.259 339.149 333.495 339.11 333.63 339.088C333.748 339.069 333.865 339.049 333.887 339.046C333.93 339.039 333.954 339.035 333.982 339.03C333.989 339.029 333.996 339.028 334.013 339.025C334.039 339.021 334.024 339.024 334.068 339.017C334.093 339.013 334.144 339.005 334.201 338.995C334.313 338.977 334.549 338.938 334.842 338.892C335.164 338.84 335.491 338.79 335.825 338.739L335.829 338.738C336.045 338.706 336.334 338.663 336.675 338.613C336.982 338.569 337.227 338.535 337.289 338.526C337.3 338.525 337.311 338.523 337.319 338.521C337.456 338.502 338.493 338.354 339.685 338.204C339.788 338.191 340.004 338.164 340.274 338.131C340.491 338.105 340.766 338.074 341.084 338.037C341.14 338.03 341.48 337.99 341.897 337.942C342.32 337.894 342.722 337.851 343.106 337.812V157.731H463.106V337.806V517.88C463.106 521.871 460.733 525.48 457.068 527.062C453.404 528.643 449.15 527.893 446.246 525.155L385.227 467.617C385.012 467.445 384.803 467.263 384.601 467.071C383.717 466.231 382.794 465.438 381.839 464.695C381.594 464.505 381.354 464.322 381.117 464.147C380.389 463.61 379.642 463.101 378.876 462.619C377.857 461.978 376.808 461.389 375.734 460.853C374.929 460.45 374.109 460.077 373.276 459.735C373.002 459.623 372.723 459.512 372.439 459.403C371.317 458.974 370.175 458.6 369.018 458.283C368.437 458.124 367.854 457.98 367.268 457.85C366.683 457.72 366.091 457.603 365.494 457.501C365.204 457.451 364.906 457.405 364.601 457.36C364.004 457.273 363.404 457.2 362.801 457.143C362.49 457.113 362.188 457.087 361.895 457.066C360.988 457.002 360.076 456.971 359.16 456.975C358.856 456.976 358.551 456.981 358.244 456.989C357.921 456.998 357.586 457.013 357.235 457.032C356.969 457.047 356.709 457.064 356.457 457.083L356.455 457.084C356.445 457.085 356.412 457.088 356.382 457.091C356.349 457.094 356.302 457.097 356.249 457.102C355.942 457.127 355.72 457.147 355.521 457.167C355.398 457.18 355.362 457.185 355.025 457.225C354.681 457.265 354.779 457.251 354.671 457.265C354.528 457.283 354.379 457.303 354.114 457.341C353.858 457.377 353.851 457.377 353.763 457.391C353.657 457.407 353.592 457.418 353.329 457.461C353.056 457.506 352.984 457.517 352.874 457.536C352.775 457.554 352.75 457.559 352.475 457.61C352.253 457.652 352.112 457.679 351.982 457.705C351.891 457.723 351.879 457.727 351.619 457.782C351.358 457.838 351.244 457.862 351.12 457.89C351.025 457.911 350.967 457.926 350.73 457.982C350.48 458.042 350.369 458.068 350.25 458.098C350.137 458.126 350.016 458.158 349.817 458.211C349.653 458.255 349.53 458.288 349.419 458.318C349.291 458.354 349.149 458.395 348.949 458.453C348.791 458.499 348.661 458.537 348.545 458.572C348.438 458.605 348.32 458.642 348.149 458.696C347.942 458.762 347.802 458.807 347.676 458.849C347.585 458.879 347.496 458.909 347.314 458.972C347.14 459.032 346.995 459.081 346.864 459.128C346.724 459.178 346.577 459.232 346.421 459.29C346.251 459.353 346.137 459.396 346.033 459.436C345.93 459.475 345.824 459.518 345.63 459.595C345.448 459.667 345.317 459.72 345.199 459.769C345.075 459.82 344.941 459.876 344.793 459.939C344.65 460 344.516 460.059 344.388 460.115C344.25 460.176 344.116 460.236 343.986 460.295C343.86 460.352 343.728 460.414 343.587 460.48C343.446 460.547 343.309 460.612 343.176 460.677L342.785 460.869C342.642 460.941 342.514 461.006 342.395 461.067C342.277 461.128 342.149 461.195 341.998 461.275L341.588 461.495C341.505 461.541 341.428 461.585 341.254 461.683C341.066 461.788 340.931 461.863 340.81 461.934C340.722 461.984 340.627 462.04 340.487 462.123C340.321 462.222 340.178 462.308 340.048 462.388C339.962 462.44 339.874 462.495 339.71 462.598C339.51 462.723 339.42 462.78 339.325 462.841C339.214 462.912 339.092 462.992 338.938 463.095C338.801 463.185 338.682 463.265 338.572 463.34C338.483 463.4 338.389 463.466 338.232 463.575C338.056 463.698 337.938 463.78 337.831 463.856C337.75 463.915 337.674 463.971 337.506 464.095C337.313 464.236 337.227 464.299 337.136 464.367C337.042 464.438 336.963 464.5 336.758 464.659C336.564 464.809 336.514 464.846 336.438 464.907C336.359 464.969 336.314 465.007 336.115 465.168C335.884 465.356 335.816 465.409 335.722 465.487C335.722 465.487 335.721 465.489 335.718 465.491L335.649 465.55C335.637 465.561 335.623 465.571 335.607 465.585C335.593 465.598 335.576 465.614 335.558 465.629C335.522 465.66 335.476 465.698 335.428 465.739C335.193 465.94 335.146 465.979 335.057 466.057C334.977 466.126 334.975 466.129 334.743 466.337C334.467 466.584 334.47 466.58 334.378 466.664C334.294 466.741 334.262 466.774 334.037 466.986C333.82 467.192 333.812 467.196 333.738 467.268C333.651 467.352 333.609 467.396 333.384 467.62C333.052 467.95 332.75 468.258 332.472 468.555C332.467 468.56 332.461 468.566 332.456 468.571C332.009 469.046 331.565 469.546 331.122 470.071C330.939 470.288 330.796 470.458 330.669 470.614C330.604 470.695 330.624 470.672 330.429 470.918C330.228 471.17 330.196 471.208 330.123 471.303C330.04 471.411 329.962 471.514 329.794 471.738C329.757 471.788 329.722 471.834 329.694 471.87C329.681 471.888 329.667 471.906 329.656 471.921C329.644 471.937 329.634 471.95 329.625 471.962C329.592 472.006 329.581 472.021 329.58 472.022C329.515 472.111 329.515 472.114 329.327 472.375L329.326 472.374C329.172 472.589 329.111 472.675 329.042 472.773C329.04 472.776 329.031 472.789 329.006 472.827C328.998 472.838 328.991 472.849 328.981 472.863C328.973 472.876 328.961 472.892 328.95 472.908C328.928 472.941 328.9 472.981 328.87 473.025L328.537 473.516C328.537 473.516 328.534 473.521 328.526 473.532C328.518 473.545 328.507 473.563 328.49 473.589C328.482 473.602 328.473 473.616 328.463 473.632C328.453 473.647 328.441 473.665 328.429 473.684L328.343 473.818L328.064 474.251L327.841 474.613C327.734 474.787 327.666 474.9 327.604 475.005C327.549 475.096 327.496 475.187 327.392 475.367C327.272 475.573 327.209 475.681 327.148 475.789C327.096 475.882 327.043 475.981 326.947 476.154L326.946 476.153L326.732 476.549C326.672 476.662 326.607 476.786 326.528 476.938C326.443 477.102 326.375 477.235 326.314 477.355C326.263 477.458 326.207 477.573 326.132 477.728C326.049 477.897 325.986 478.028 325.931 478.146L325.745 478.545C325.676 478.697 325.617 478.828 325.564 478.948L325.394 479.34C325.314 479.524 325.255 479.664 325.202 479.791C325.166 479.879 325.129 479.97 325.061 480.141C324.989 480.319 324.928 480.472 324.874 480.612C324.833 480.719 324.789 480.837 324.736 480.978L324.564 481.447C324.514 481.586 324.471 481.706 324.433 481.816C324.389 481.942 324.343 482.08 324.289 482.24L324.133 482.721L324.032 483.044C323.977 483.222 323.927 483.392 323.879 483.556C323.842 483.682 323.804 483.813 323.767 483.947C323.724 484.098 323.688 484.231 323.655 484.354C323.617 484.496 323.577 484.653 323.522 484.871C323.468 485.084 323.456 485.131 323.436 485.215C323.407 485.335 323.377 485.464 323.328 485.677L323.229 486.116C323.206 486.222 323.185 486.33 323.143 486.536C323.105 486.72 323.079 486.846 323.058 486.96C323.033 487.091 323.007 487.236 322.971 487.44L322.899 487.845C322.883 487.946 322.873 488.019 322.835 488.263C322.8 488.488 322.779 488.627 322.761 488.756C322.749 488.839 322.747 488.862 322.717 489.095C322.682 489.363 322.665 489.49 322.649 489.622C322.638 489.718 322.64 489.716 322.61 490C322.582 490.273 322.568 490.393 322.557 490.521C322.547 490.633 322.556 490.556 322.527 490.91C322.502 491.222 322.497 491.265 322.489 491.38C322.482 491.491 322.478 491.581 322.464 491.838L322.439 492.302C322.44 492.278 322.441 492.267 322.439 492.304C322.439 492.315 322.438 492.348 322.438 492.374C322.437 492.404 322.435 492.444 322.434 492.489C322.414 493.029 322.406 493.551 322.409 494.059C322.411 494.36 322.416 494.661 322.426 494.963L322.467 495.89L322.505 496.459C322.52 496.657 322.537 496.864 322.557 497.082C322.583 497.378 322.596 497.535 322.612 497.688C322.624 497.795 322.618 497.728 322.657 498.062C322.692 498.365 322.7 498.441 322.716 498.562L322.722 498.602C322.724 498.618 322.731 498.672 322.736 498.708C322.743 498.752 322.751 498.808 322.76 498.87C322.797 499.137 322.821 499.31 322.846 499.468C322.86 499.561 322.852 499.505 322.9 499.798C322.949 500.092 322.969 500.214 322.993 500.351C323.01 500.445 323 500.385 323.057 500.682C323.101 500.916 323.134 501.088 323.166 501.243L323.178 501.3C323.181 501.312 323.184 501.325 323.188 501.342C323.191 501.357 323.195 501.375 323.199 501.395C323.208 501.433 323.218 501.481 323.23 501.534C323.29 501.815 323.32 501.957 323.353 502.1C323.376 502.203 323.362 502.132 323.439 502.455C323.499 502.701 323.53 502.832 323.563 502.96C323.588 503.058 323.616 503.162 323.662 503.335C323.71 503.513 323.75 503.663 323.788 503.799C323.814 503.889 323.833 503.951 323.897 504.172L324.042 504.661C324.075 504.767 324.102 504.851 324.18 505.093C324.243 505.289 324.279 505.403 324.315 505.511C324.348 505.608 324.384 505.714 324.441 505.879C324.516 506.095 324.566 506.238 324.613 506.368C324.642 506.447 324.668 506.516 324.732 506.688C324.805 506.884 324.864 507.04 324.919 507.181C324.958 507.281 325 507.386 325.073 507.568L325.259 508.021L325.408 508.376C325.466 508.511 325.53 508.657 325.603 508.819C325.657 508.941 325.717 509.073 325.787 509.226C325.851 509.364 325.912 509.494 325.97 509.616C326.042 509.768 326.098 509.886 326.149 509.992C326.228 510.152 326.306 510.308 326.383 510.461C326.43 510.553 326.481 510.654 326.54 510.769L326.794 511.249C326.861 511.373 326.914 511.474 326.964 511.564L327.219 512.021C327.272 512.113 327.33 512.216 327.4 512.337C327.491 512.493 327.579 512.641 327.664 512.783C327.747 512.922 327.807 513.021 327.861 513.109C327.924 513.211 327.993 513.321 328.1 513.49C328.204 513.656 328.272 513.763 328.335 513.86L328.647 514.331C328.796 514.554 328.767 514.513 328.815 514.584C328.892 514.696 328.975 514.816 329.112 515.011C329.242 515.195 329.289 515.263 329.348 515.345C329.427 515.455 329.511 515.569 329.662 515.772C329.813 515.976 329.811 515.974 329.862 516.043C329.955 516.165 330.058 516.298 330.209 516.492L330.419 516.763C330.486 516.847 330.54 516.913 330.698 517.106C330.874 517.322 330.933 517.396 331.011 517.488C331.013 517.49 331.023 517.503 331.051 517.535C331.059 517.545 331.067 517.555 331.078 517.567C331.088 517.579 331.101 517.593 331.113 517.607C331.138 517.637 331.17 517.674 331.204 517.714C331.379 517.919 331.483 518.042 331.583 518.156C331.65 518.232 331.642 518.221 331.844 518.445C332.04 518.664 332.098 518.731 332.182 518.821L332.197 518.838C332.208 518.85 332.222 518.866 332.244 518.889C332.255 518.9 332.267 518.912 332.28 518.926C332.293 518.939 332.309 518.955 332.324 518.972C332.355 519.004 332.394 519.046 332.436 519.09C332.845 519.525 333.255 519.942 333.667 520.342L334.102 520.757L473.733 652.425L474.158 652.831C475.737 654.031 477.455 655.118 479.246 656.047C479.795 656.331 480.316 656.666 480.803 657.047C481.042 657.234 481.285 657.42 481.532 657.604C482.018 657.966 482.513 658.316 483.015 658.652C483.394 658.907 483.769 659.15 484.143 659.381C484.901 659.849 485.67 660.282 486.447 660.679C486.48 660.695 486.513 660.711 486.547 660.729L487.155 660.976C487.401 661.072 487.66 661.17 487.936 661.271C488.035 661.307 488.043 661.309 488.34 661.413C488.65 661.522 488.63 661.516 488.73 661.55C488.837 661.586 488.91 661.609 489.179 661.696C489.41 661.771 489.465 661.789 489.555 661.817C489.653 661.848 489.751 661.877 489.948 661.936C490.138 661.992 490.27 662.031 490.39 662.065C490.472 662.089 490.516 662.1 490.736 662.16C490.966 662.223 491.099 662.259 491.224 662.291C491.316 662.315 491.371 662.328 491.613 662.388C491.815 662.437 491.911 662.461 492.009 662.483C492.134 662.513 492.274 662.544 492.47 662.587C492.661 662.629 492.753 662.649 492.847 662.668C492.978 662.695 493.119 662.724 493.274 662.754C493.427 662.784 493.578 662.812 493.727 662.839C493.836 662.859 493.954 662.879 494.082 662.901L494.529 662.975C494.728 663.006 494.858 663.026 494.977 663.043C495.068 663.056 495.145 663.066 495.357 663.095C495.565 663.122 495.673 663.137 495.779 663.149C495.906 663.165 496.044 663.18 496.271 663.204C496.543 663.233 496.52 663.232 496.606 663.24C496.732 663.252 496.867 663.264 497.093 663.282C497.294 663.299 497.386 663.307 497.482 663.313C497.593 663.321 497.692 663.327 497.936 663.342C498.28 663.362 498.201 663.359 498.307 663.364C498.417 663.37 498.507 663.372 498.768 663.381C499.023 663.39 499.081 663.393 499.18 663.396C499.418 663.401 499.666 663.404 499.927 663.404C499.963 663.404 499.994 663.404 500.02 663.404C500.281 663.404 500.549 663.402 500.823 663.396C500.921 663.393 500.979 663.39 501.235 663.381C501.494 663.372 501.585 663.37 501.695 663.364C501.801 663.359 501.722 663.362 502.066 663.342C502.31 663.327 502.409 663.321 502.52 663.313C502.615 663.307 502.708 663.299 502.909 663.282C503.134 663.264 503.27 663.252 503.396 663.24C503.482 663.232 503.459 663.233 503.731 663.204C503.958 663.18 504.095 663.165 504.223 663.149C504.328 663.137 504.436 663.122 504.645 663.095C504.857 663.066 504.935 663.056 505.026 663.043C505.145 663.026 505.274 663.006 505.473 662.975C505.641 662.948 505.786 662.924 505.92 662.901C506.048 662.88 506.165 662.859 506.275 662.839C506.424 662.812 506.575 662.784 506.728 662.754C506.883 662.724 507.025 662.695 507.156 662.668C507.249 662.649 507.341 662.629 507.532 662.587C507.728 662.544 507.868 662.513 507.993 662.483C508.091 662.461 508.187 662.436 508.389 662.387C508.596 662.336 508.683 662.315 508.777 662.291C508.933 662.251 509.1 662.206 509.285 662.155C509.444 662.112 509.523 662.091 509.602 662.068C509.725 662.033 509.861 661.993 510.065 661.932C510.323 661.855 510.355 661.847 510.446 661.818C510.544 661.788 510.599 661.768 510.855 661.686C511.086 661.61 511.164 661.586 511.262 661.553C511.372 661.516 511.471 661.48 511.711 661.396C511.985 661.299 511.977 661.303 512.066 661.271C512.349 661.167 512.607 661.07 512.848 660.976L513.439 660.734C514.126 660.388 514.807 660.014 515.48 659.611C515.737 659.457 515.989 659.302 516.236 659.145C516.486 658.986 516.737 658.822 516.988 658.652C517.35 658.409 517.733 658.138 518.158 657.828L518.315 657.715C518.35 657.69 518.403 657.652 518.42 657.64C518.447 657.62 518.462 657.609 518.47 657.604C518.708 657.426 518.951 657.241 519.199 657.047L519.586 656.759C519.979 656.481 520.392 656.231 520.821 656.013C521.019 655.912 521.233 655.8 521.471 655.672C521.463 655.676 521.465 655.675 521.495 655.658C521.502 655.654 521.509 655.65 521.519 655.645C521.527 655.64 521.539 655.634 521.55 655.628C521.572 655.615 521.602 655.599 521.634 655.581C521.798 655.491 521.946 655.409 522.081 655.332L522.356 655.172C522.509 655.083 522.602 655.029 522.686 654.979L522.687 654.978C522.775 654.924 522.875 654.863 523.011 654.779C523.111 654.718 523.198 654.664 523.277 654.614L523.278 654.613C523.428 654.519 523.523 654.459 523.608 654.404L523.917 654.201L523.918 654.2C524.069 654.101 524.14 654.054 524.211 654.006L524.526 653.789L524.806 653.595C525.01 653.45 525.205 653.31 525.392 653.172L525.639 652.985L526.226 652.425L653.394 532.541L665.896 520.756L665.917 520.735C666.122 520.543 666.335 520.338 666.56 520.117C666.878 519.804 667.208 519.465 667.561 519.09C667.755 518.883 667.75 518.89 667.815 518.82C667.882 518.748 667.928 518.694 668.087 518.519C668.279 518.305 668.346 518.233 668.428 518.14C668.494 518.064 668.496 518.06 668.686 517.839C668.861 517.634 668.923 517.562 668.999 517.472C669.073 517.383 669.128 517.315 669.3 517.104C669.443 516.928 669.499 516.86 669.563 516.78C669.633 516.692 669.697 516.609 669.841 516.423L670.12 516.061C670.175 515.989 670.208 515.942 670.342 515.762C670.503 515.545 670.58 515.44 670.658 515.331C670.718 515.248 670.772 515.17 670.896 514.994C671.002 514.842 671.089 514.718 671.167 514.604C671.221 514.525 671.247 514.483 671.384 514.278C671.526 514.065 671.582 513.984 671.645 513.887C671.718 513.774 671.795 513.652 671.916 513.459C671.992 513.338 672.056 513.237 672.112 513.145C672.184 513.028 672.261 512.9 672.351 512.751C672.445 512.593 672.52 512.467 672.586 512.353C672.639 512.262 672.697 512.16 672.777 512.018C672.876 511.843 672.962 511.691 673.039 511.551L673.199 511.253C673.302 511.061 673.379 510.918 673.446 510.788C673.496 510.692 673.55 510.584 673.623 510.439C673.703 510.281 673.776 510.135 673.843 509.998C673.892 509.897 673.945 509.786 674.025 509.616C674.089 509.483 674.151 509.35 674.211 509.22C674.285 509.058 674.34 508.939 674.388 508.831C674.446 508.7 674.508 508.557 674.581 508.388C674.646 508.238 674.701 508.107 674.751 507.987C674.794 507.884 674.841 507.77 674.903 507.614L675.087 507.152C675.124 507.056 675.165 506.949 675.225 506.79C675.285 506.629 675.342 506.476 675.396 506.328C675.441 506.202 675.488 506.07 675.536 505.931C675.599 505.751 675.643 505.621 675.683 505.503C675.717 505.401 675.747 505.305 675.815 505.093C675.893 504.851 675.921 504.767 675.953 504.661C675.995 504.527 676.039 504.377 676.099 504.172C676.163 503.951 676.183 503.89 676.208 503.8C676.242 503.681 676.274 503.556 676.333 503.335C676.379 503.162 676.408 503.058 676.433 502.96C676.469 502.818 676.508 502.659 676.557 502.455C676.607 502.246 676.623 502.186 676.643 502.099C676.674 501.964 676.702 501.833 676.761 501.559C676.773 501.503 676.784 501.452 676.793 501.411C676.798 501.391 676.802 501.37 676.806 501.354C676.81 501.336 676.812 501.321 676.815 501.308C676.827 501.254 676.831 501.236 676.831 501.236C676.86 501.097 676.887 500.95 676.937 500.691C676.948 500.634 676.958 500.581 676.966 500.538C676.97 500.517 676.974 500.496 676.978 500.479C676.981 500.46 676.985 500.445 676.987 500.431C676.993 500.402 676.996 500.382 676.999 500.368C677.001 500.358 677.002 500.351 677.002 500.351C677.027 500.215 677.046 500.092 677.095 499.798C677.105 499.735 677.115 499.678 677.122 499.634C677.126 499.612 677.13 499.59 677.133 499.572C677.136 499.553 677.138 499.539 677.141 499.524C677.146 499.492 677.149 499.475 677.15 499.468C677.175 499.31 677.199 499.137 677.236 498.87C677.267 498.649 677.269 498.636 677.279 498.559C677.294 498.444 677.303 498.364 677.335 498.088C677.374 497.755 677.371 497.796 677.383 497.688C677.399 497.534 677.413 497.378 677.44 497.082C677.469 496.754 677.492 496.45 677.511 496.162C677.514 496.104 677.518 496.052 677.521 496.013C677.523 495.979 677.526 495.933 677.527 495.918C677.528 495.906 677.529 495.896 677.529 495.89L677.57 494.943C677.608 493.731 677.587 492.525 677.505 491.329C677.485 491.041 677.46 490.741 677.431 490.426C677.29 488.92 677.058 487.43 676.735 485.964C676.671 485.672 676.603 485.38 676.531 485.088L676.305 484.213C676.145 483.627 675.974 483.051 675.79 482.486C675.14 480.489 674.319 478.547 673.336 476.683C672.855 475.77 672.323 474.861 671.742 473.957C670.513 472.043 669.11 470.238 667.54 468.571C662.093 462.787 654.928 458.938 647.186 457.55C645.4 457.23 643.584 457.041 641.753 456.989C641.446 456.981 641.141 456.976 640.837 456.975C638.397 456.966 635.978 457.201 633.613 457.665C632.723 457.84 631.844 458.046 630.979 458.283C630.408 458.44 629.833 458.613 629.254 458.803C628.395 459.084 627.55 459.395 626.721 459.735C625.886 460.078 625.066 460.451 624.262 460.853C623.993 460.987 623.725 461.124 623.461 461.265C623.199 461.404 622.936 461.547 622.671 461.696C622.147 461.991 621.629 462.299 621.12 462.619C620.357 463.1 619.609 463.609 618.88 464.147L618.157 464.695C617.678 465.068 617.209 465.451 616.75 465.846C616.292 466.24 615.84 466.649 615.396 467.071C615.384 467.082 615.373 467.093 615.361 467.104L553.747 525.158C550.843 527.895 546.589 528.642 542.926 527.061C539.262 525.479 536.89 521.87 536.89 517.88V157.731C536.89 153.898 536.307 150.22 535.232 146.77C534.866 145.594 534.441 144.441 533.96 143.312C533.616 142.507 533.249 141.722 532.859 140.962C532.687 140.626 532.492 140.264 532.261 139.85C531.48 138.447 530.612 137.104 529.665 135.827C529.436 135.519 529.227 135.242 529.026 134.987C522.255 126.382 511.77 120.884 499.998 120.884C498.72 120.884 497.458 120.949 496.215 121.075C494.972 121.201 493.751 121.388 492.555 121.633C484.772 123.224 477.862 127.272 472.688 132.958C472.489 133.176 472.293 133.397 472.1 133.62C471.519 134.289 470.962 134.981 470.431 135.69C470.256 135.923 470.082 136.162 469.907 136.407C469.129 137.5 468.404 138.65 467.735 139.85C467.359 140.524 467.007 141.203 466.68 141.887L466.361 142.571C466.233 142.854 466.113 143.126 466.001 143.391C465.769 143.939 465.549 144.497 465.342 145.062C465.237 145.347 465.137 145.63 465.042 145.91C464.951 146.179 464.862 146.455 464.773 146.738L464.497 147.663C463.65 150.651 463.169 153.803 463.112 157.074L463.106 157.731H343.106C343.106 157.375 343.108 157.019 343.111 156.662L343.117 156.005L343.131 154.986C343.37 141.258 345.397 127.807 349.049 114.927L349.522 113.304L349.798 112.379L350.23 110.965C350.526 110.014 350.917 108.795 351.389 107.401C351.839 106.073 352.273 104.853 352.674 103.759C353.543 101.389 354.484 98.9975 355.502 96.5947C356.111 95.1563 356.653 93.9406 357.041 93.083C357.209 92.7111 357.38 92.3399 357.552 91.9697L357.87 91.2852C358.064 90.8681 358.26 90.4519 358.459 90.0371C359.897 87.0348 361.388 84.1712 362.906 81.4463L362.907 81.4453C365.67 76.4863 368.748 71.5903 372.155 66.8047L372.156 66.8027C372.893 65.7682 373.634 64.7544 374.377 63.7617C376.608 60.783 378.964 57.8557 381.447 54.9932L381.448 54.9922C382.214 54.1096 383.045 53.1713 383.938 52.1904L384.966 51.0713C406.683 27.668 435.653 10.7821 468.524 4.06348C473.655 3.01482 478.855 2.22091 484.103 1.68848L484.103 1.6875C489.324 1.15792 494.629 0.883802 499.998 0.883789C549.66 0.883789 594.045 24.0847 622.658 59.9326L623.332 60.7812C624.487 62.249 625.432 63.5105 626.045 64.3369L626.046 64.3379C629.848 69.4633 633.326 74.8072 636.466 80.3369L637.089 81.4453C637.575 82.3178 638.202 83.4599 638.907 84.7988L639.636 86.2002L640.275 87.4619C641.54 89.984 642.716 92.5011 643.809 95.0049L644.349 96.2559L644.35 96.2568C646.133 100.44 647.756 104.751 649.198 109.183L649.806 111.089C654.435 125.954 656.89 141.657 656.89 157.73V337.812C660.737 338.211 664.562 338.752 668.355 339.432H668.357C700.768 345.241 730.747 361.157 753.806 385.151L754.898 386.3L754.9 386.303C761.632 393.451 767.577 401.111 772.725 409.13L773.592 410.497C775.322 413.254 777.021 416.145 778.661 419.173L779.477 420.698L779.48 420.704C783.638 428.59 787.131 436.84 789.905 445.369C790.509 447.224 791.071 449.068 791.592 450.898L792.1 452.724L792.474 454.134L792.7 455.009L793.055 456.414C793.361 457.658 793.656 458.92 793.937 460.197C794.862 464.405 795.61 468.646 796.185 472.908C796.335 472.877 796.485 472.844 796.636 472.813C797.765 472.582 799.063 472.329 800.498 472.072L800.5 472.071C801.875 471.826 803.174 471.613 804.383 471.428C807.646 470.929 810.925 470.533 814.213 470.241C815.308 470.144 816.653 470.035 818.178 469.938L819.311 469.87C820.402 469.809 821.366 469.767 822.158 469.737C824.073 469.664 826.037 469.624 828.044 469.623C828.286 469.623 828.529 469.624 828.772 469.625L829.316 469.628L830.338 469.638C831.352 469.652 832.188 469.674 832.519 469.684H832.521C833.323 469.706 833.994 469.732 834.409 469.748H834.411C835.39 469.787 836.472 469.839 837.64 469.909C837.697 469.913 838.01 469.932 838.371 469.955H838.375C839.05 469.999 839.677 470.045 840.245 470.089L841.757 470.213L842.011 470.234C842.061 470.239 842.103 470.242 842.133 470.245L842.135 470.246C842.766 470.302 843.344 470.358 843.834 470.407L845.013 470.53L845.014 470.531C845.776 470.613 846.432 470.689 846.936 470.75C847.561 470.825 848.241 470.911 848.968 471.008H848.97C849.399 471.065 850.072 471.157 850.883 471.275C851.499 471.365 852.103 471.458 852.692 471.551C853.637 471.7 854.429 471.834 854.974 471.929C854.974 471.929 855.184 471.966 855.374 471.999C855.591 472.037 855.996 472.108 856.494 472.199C857.206 472.33 857.943 472.47 858.706 472.621L860.48 472.984L862.602 473.445C863.264 473.594 863.814 473.723 864.143 473.801C864.516 473.889 864.891 473.978 865.267 474.069L866.397 474.35L868.005 474.762C868.992 475.021 869.811 475.248 870.103 475.329C870.483 475.435 871.076 475.6 871.778 475.804C872.578 476.035 873.259 476.24 873.735 476.385L875.535 476.942L875.538 476.943C876.322 477.192 876.99 477.411 877.494 477.578C877.827 477.688 878.42 477.886 879.141 478.134H879.143L880.995 478.784L882.874 479.47L882.877 479.471C883.551 479.722 884.165 479.956 884.716 480.169L886.307 480.795L886.309 480.796C886.607 480.915 886.936 481.047 887.292 481.192L888.443 481.666L889.806 482.241L889.808 482.242C890.705 482.626 891.445 482.954 891.833 483.126C891.875 483.145 891.917 483.163 891.959 483.182L892.32 483.343L893.379 483.821C894.015 484.113 894.53 484.355 894.825 484.494C895.07 484.609 895.333 484.734 895.36 484.747L896.797 485.438L896.799 485.438C897.566 485.812 898.236 486.147 898.766 486.414L898.958 486.511C899.156 486.611 899.592 486.831 900.14 487.114C900.468 487.284 900.796 487.455 901.122 487.628L901.58 487.87L902.098 488.146C902.11 488.152 902.123 488.158 902.143 488.169C902.16 488.178 902.186 488.192 902.213 488.207C902.264 488.234 902.359 488.286 902.469 488.345L903.621 488.97L903.625 488.973C904.218 489.298 904.691 489.564 904.953 489.712C905.068 489.776 905.17 489.834 905.21 489.856C905.27 489.89 905.286 489.899 905.32 489.919C905.359 489.941 905.377 489.952 905.432 489.982C905.468 490.003 905.564 490.057 905.671 490.118C905.788 490.185 905.97 490.288 906.189 490.413C906.42 490.546 906.647 490.676 906.87 490.806L906.872 490.807L908.621 491.84L909.065 492.105C909.29 492.241 909.664 492.467 910.116 492.744L910.118 492.745C910.745 493.13 911.321 493.489 911.839 493.816L913.294 494.746L913.297 494.747C913.89 495.131 914.365 495.445 914.615 495.611C914.737 495.692 914.842 495.761 914.894 495.796C915.004 495.87 914.941 495.827 915.019 495.879L916.427 496.827L916.428 496.828L918.051 497.95L919.604 499.05L919.605 499.051C920.204 499.482 920.69 499.837 920.921 500.007L922.565 501.23L922.567 501.231C923.339 501.813 923.972 502.304 924.282 502.545C924.297 502.556 924.312 502.568 924.326 502.579L924.598 502.79L925.431 503.443C926.23 504.076 926.9 504.622 927.074 504.764C927.099 504.784 927.163 504.835 927.205 504.869C927.252 504.907 927.339 504.978 927.44 505.061C927.686 505.262 928.015 505.531 928.408 505.858L928.409 505.859C929.001 506.351 929.466 506.747 929.698 506.945C929.792 507.026 929.885 507.105 929.902 507.12C929.937 507.15 929.951 507.161 929.966 507.174C929.949 507.16 929.843 507.069 930 507.203L931.266 508.294C931.737 508.706 932.117 509.043 932.326 509.229C932.488 509.374 932.681 509.546 932.69 509.555L934.048 510.783L934.05 510.784C934.662 511.344 935.168 511.819 935.532 512.161C935.643 512.265 936.142 512.732 936.737 513.304L936.738 513.305L938.137 514.665L938.192 514.72C938.215 514.742 938.295 514.821 938.381 514.905L939.479 515.998L939.479 516C939.772 516.295 940.045 516.572 940.298 516.832C940.517 517.057 940.694 517.24 940.734 517.282C940.751 517.299 940.775 517.324 940.8 517.35C940.845 517.397 940.931 517.485 941.03 517.588L942.06 518.663L942.062 518.666L943.224 519.907L944.621 521.437L944.622 521.438C944.783 521.616 944.98 521.835 945.205 522.088C945.405 522.313 945.565 522.493 945.604 522.537C945.607 522.541 945.609 522.545 945.612 522.548L945.706 522.654C945.748 522.701 945.835 522.799 945.935 522.912L947.028 524.168L947.03 524.17C947.454 524.662 947.798 525.07 948.008 525.318C948.193 525.539 948.372 525.753 948.414 525.803L948.729 526.178L949.365 526.947L949.368 526.951L949.359 526.957L949.356 526.954C949.303 526.89 949.253 526.83 949.208 526.776C949.22 526.79 949.232 526.805 949.244 526.819C949.28 526.862 949.319 526.908 949.359 526.957L949.357 526.959L949.354 526.955L949.354 526.956C949.493 527.124 949.633 527.291 949.772 527.46C949.677 527.344 949.532 527.168 949.364 526.967C949.362 526.964 949.36 526.962 949.357 526.959L949.359 526.957L949.362 526.961C949.369 526.969 949.377 526.979 949.384 526.987C949.375 526.977 949.368 526.967 949.359 526.957L949.368 526.951C949.86 527.551 950.259 528.045 950.493 528.338C950.59 528.459 950.685 528.579 950.764 528.678C950.741 528.649 950.697 528.594 950.639 528.521C950.625 528.504 950.609 528.484 950.591 528.462L950.704 528.604L950.764 528.678C950.773 528.689 950.781 528.7 950.79 528.711C950.802 528.726 950.814 528.742 950.825 528.756C950.866 528.807 950.906 528.857 950.944 528.905L950.945 528.906C951.153 529.166 951.359 529.427 951.564 529.688C951.556 529.678 951.547 529.666 951.538 529.654C951.48 529.58 951.405 529.486 951.318 529.376C951.353 529.42 951.386 529.461 951.417 529.5C951.505 529.612 951.579 529.706 951.632 529.773C951.658 529.807 951.685 529.841 951.712 529.875C952.234 530.543 952.644 531.08 952.827 531.32C952.873 531.381 952.917 531.439 952.951 531.484C952.964 531.502 952.978 531.521 952.993 531.54C953.064 531.632 953.17 531.772 953.299 531.941C953.588 532.322 953.838 532.657 954.043 532.933L954.047 532.938C954.547 533.611 954.941 534.154 955.104 534.38C955.187 534.494 955.262 534.598 955.284 534.629C955.297 534.647 955.305 534.659 955.312 534.668C955.215 534.535 955.133 534.421 955.119 534.402C955.132 534.419 955.623 535.091 956.205 535.914L956.206 535.916C956.492 536.321 956.753 536.693 956.986 537.03C957.116 537.218 957.23 537.385 957.303 537.49C957.308 537.498 957.312 537.505 957.324 537.522C957.349 537.559 957.328 537.527 957.35 537.559C957.364 537.579 957.374 537.594 957.38 537.603C957.376 537.596 957.371 537.59 957.366 537.583C957.383 537.608 957.412 537.65 957.445 537.697C957.516 537.8 957.663 538.014 957.845 538.279C958.043 538.57 958.242 538.864 958.443 539.164C958.471 539.205 958.498 539.247 958.525 539.288C958.674 539.51 958.812 539.718 958.938 539.91C959.013 540.024 959.089 540.136 959.163 540.25C959.224 540.344 959.283 540.432 959.337 540.516C959.307 540.47 959.279 540.427 959.252 540.386C959.234 540.359 959.217 540.332 959.2 540.307L959.337 540.516L959.391 540.598C959.445 540.68 959.505 540.772 959.564 540.862L960.472 542.268C960.626 542.51 960.883 542.916 961.196 543.42C961.223 543.463 961.249 543.505 961.273 543.545L962.401 545.38L962.404 545.385C962.772 545.993 963.098 546.545 963.315 546.915C963.267 546.834 963.224 546.761 963.188 546.701C963.187 546.698 963.184 546.695 963.183 546.692C963.187 546.7 963.209 546.736 963.235 546.781C963.28 546.856 963.357 546.986 963.454 547.15C963.483 547.199 963.508 547.242 963.528 547.276C963.534 547.286 963.539 547.295 963.545 547.305L964.295 548.596L964.296 548.599C964.683 549.275 964.985 549.817 965.101 550.024C965.155 550.121 965.21 550.221 965.217 550.234C965.233 550.263 965.236 550.269 965.236 550.269L965.249 550.292C965.261 550.313 965.286 550.358 965.314 550.409C965.429 550.615 965.771 551.229 966.193 552.011L966.195 552.014C966.375 552.347 966.574 552.719 966.79 553.129C966.977 553.483 967.125 553.769 967.156 553.828C967.181 553.875 967.207 553.923 967.232 553.972C967.423 554.335 967.579 554.638 967.687 554.847L967.896 555.256L967.898 555.26C968.113 555.681 968.337 556.127 968.571 556.6C968.621 556.7 968.668 556.797 968.711 556.885C968.726 556.915 968.744 556.952 968.764 556.991C968.817 557.099 968.899 557.265 968.999 557.467C969.225 557.924 969.436 558.361 969.636 558.777L969.638 558.78C969.955 559.443 970.202 559.974 970.328 560.246C970.358 560.31 970.386 560.371 970.408 560.419C970.453 560.514 970.505 560.625 970.561 560.747L971.185 562.111C971.528 562.872 971.8 563.497 971.955 563.854C972.029 564.024 972.104 564.198 972.159 564.326C972.151 564.308 972.144 564.291 972.137 564.275C972.328 564.715 972.511 565.139 972.683 565.547C972.695 565.578 972.708 565.609 972.721 565.639C972.718 565.631 972.714 565.624 972.711 565.616C973.038 566.393 973.29 567.012 973.419 567.331C973.455 567.421 973.492 567.511 973.513 567.562C973.507 567.547 973.5 567.531 973.493 567.515C973.516 567.572 973.538 567.628 973.56 567.684L974.186 569.242L974.188 569.247C974.391 569.763 974.614 570.342 974.853 570.981C974.906 571.123 974.954 571.251 974.994 571.359C975.091 571.616 975.18 571.849 975.256 572.054L975.522 572.777L975.523 572.779C975.82 573.594 976.047 574.242 976.136 574.496C976.149 574.533 976.16 574.568 976.17 574.596C976.209 574.707 976.261 574.853 976.32 575.021L976.807 576.443L976.809 576.447C976.923 576.786 977.035 577.123 977.146 577.462C977.249 577.776 977.331 578.032 977.376 578.171C977.414 578.29 977.455 578.418 977.459 578.43C977.467 578.453 977.472 578.47 977.477 578.485C977.515 578.605 977.56 578.739 977.606 578.885C977.805 579.505 977.959 580.004 977.983 580.082L977.984 580.085C978.238 580.904 978.437 581.574 978.548 581.951C978.568 582.019 978.587 582.088 978.606 582.153L978.607 582.157C978.612 582.173 978.617 582.191 978.623 582.211C978.626 582.22 978.629 582.229 978.632 582.238L978.738 582.602C978.85 582.981 978.961 583.362 979.068 583.743C979.342 584.709 979.579 585.598 979.701 586.057C979.812 586.468 979.924 586.89 980.035 587.321C980.077 587.485 980.117 587.647 980.157 587.806C980.215 588.032 980.269 588.25 980.319 588.453C980.329 588.492 980.34 588.531 980.35 588.57C980.401 588.78 980.447 588.965 980.48 589.104C980.473 589.073 980.465 589.039 980.456 589.003C980.433 588.909 980.396 588.759 980.35 588.57C980.452 588.983 980.536 589.327 980.59 589.551C980.574 589.485 980.557 589.419 980.541 589.354C980.561 589.433 980.584 589.528 980.61 589.638C980.623 589.69 980.634 589.732 980.642 589.764C980.641 589.761 980.64 589.758 980.64 589.756C980.639 589.754 980.638 589.751 980.638 589.749C980.668 589.872 980.702 590.009 980.737 590.157C980.817 590.488 980.881 590.764 980.925 590.953L981.011 591.322V591.325C981.173 592.033 981.301 592.613 981.381 592.983C981.409 593.112 981.437 593.245 981.461 593.356C981.465 593.377 981.472 593.409 981.48 593.449C981.495 593.517 981.507 593.571 981.514 593.602C981.51 593.584 981.505 593.557 981.497 593.521C981.526 593.656 981.567 593.845 981.615 594.071L981.838 595.139C982.524 598.504 983.065 601.743 983.494 604.823C983.516 604.978 983.548 605.202 983.582 605.449L983.754 606.755V606.758C983.871 607.681 983.955 608.427 984 608.833C984.021 609.025 984.04 609.192 984.049 609.274C984.071 609.473 984.055 609.331 984.071 609.48L984.277 611.497C984.443 613.218 984.59 615.038 984.706 616.947L984.773 618.104C984.791 618.44 984.804 618.72 984.813 618.909C984.821 619.094 984.829 619.243 984.831 619.3C984.832 619.316 984.833 619.331 984.833 619.34C984.833 619.347 984.833 619.358 984.833 619.358C984.833 619.355 984.833 619.346 984.832 619.336C984.83 619.298 984.826 619.203 984.82 619.079C984.848 619.661 984.901 620.815 984.939 622.208V622.21C984.975 623.553 984.998 624.991 984.998 626.513V720.4C984.995 722.806 984.958 725.204 984.887 727.595L984.805 729.983C984.786 730.464 984.765 730.972 984.741 731.505L984.661 733.171C984.385 738.511 983.941 743.788 983.341 748.992C983.288 749.45 983.23 749.944 983.167 750.469L982.96 752.129C981.891 760.482 980.409 768.721 978.533 776.82C978.062 778.854 977.568 780.87 977.053 782.869C975.496 788.903 973.724 794.836 971.75 800.659C970.1 805.525 968.307 810.323 966.375 815.045L966.374 815.046C965.615 816.902 964.821 818.781 963.99 820.677C958.055 834.227 950.969 847.135 942.862 859.275L942.075 860.448C941.513 861.279 940.941 862.115 940.359 862.953C940.222 863.151 940.084 863.349 939.945 863.547L939.04 864.835C938.908 865.022 938.775 865.21 938.643 865.396C936.891 867.858 935.105 870.276 933.285 872.648L933.284 872.649C932.684 873.432 932.071 874.223 931.442 875.022L931.441 875.021C928.354 878.95 925.147 882.789 921.825 886.532C920.491 888.035 919.147 889.514 917.794 890.968C872.198 939.945 806.859 970.8 734.494 970.884H265.506C264.425 970.883 263.355 970.874 262.298 970.859C260.695 970.837 259.095 970.8 257.498 970.748L255.902 970.69C244.197 970.233 232.646 968.968 221.315 966.935C213.07 965.455 204.965 963.573 197.026 961.313C195.564 960.897 194.085 960.462 192.592 960.007L191.095 959.546C189.595 959.079 188.12 958.602 186.668 958.12L185.225 957.636C183.784 957.147 182.335 956.642 180.879 956.118L179.42 955.588C176.553 954.536 173.691 953.428 170.839 952.262C167.04 950.708 163.31 949.071 159.648 947.359C158.278 946.719 156.906 946.063 155.535 945.392L154.164 944.715C153.406 944.338 152.478 943.873 151.451 943.347C150.281 942.747 149.248 942.203 148.481 941.797C104.848 918.687 68.9353 883.143 45.373 839.8C44.9257 838.977 44.4449 838.082 43.9404 837.127C42.0348 833.518 40.2302 829.885 38.5244 826.235C37.8858 824.869 37.254 823.485 36.6299 822.084L36.0088 820.677C33.5596 815.085 31.3052 809.38 29.2559 803.571C28.7306 802.082 28.2284 800.614 27.749 799.169L27.2773 797.732C26.9989 796.876 26.6796 795.882 26.3398 794.792C25.7097 792.77 25.1219 790.789 24.5723 788.858C23.9473 786.663 23.3418 784.426 22.7607 782.146L22.1875 779.854C21.4327 776.77 20.7475 773.708 20.125 770.675C19.7121 768.663 19.3194 766.627 18.9502 764.569C18.4007 761.507 17.902 758.402 17.459 755.256C17.1262 752.893 16.829 750.537 16.5664 748.19L16.3154 745.847C15.8864 741.661 15.5584 737.435 15.3379 733.174C15.2838 732.129 15.2356 731.066 15.1934 729.986C15.0987 727.566 15.04 725.167 15.0146 722.791C15.0127 722.611 15.0109 722.43 15.0098 722.25L15.002 720.981C15.0004 720.735 15 720.489 15 720.242V626.515C15 626.134 15.0022 625.753 15.0059 625.373L15.0127 624.654C15.0163 624.277 15.0212 623.899 15.0283 623.521C15.1608 616.532 15.7572 609.605 16.7988 602.78C16.8784 602.259 16.9615 601.739 17.0479 601.219L17.2021 600.29L17.4717 598.731C18.1915 594.726 19.0547 590.821 20.041 587.024L20.3477 585.861C23.5634 573.862 28.1608 562.411 33.9668 551.71L33.9688 551.708C36.9709 546.175 40.3058 540.821 43.958 535.679L43.959 535.678C45.4152 533.627 46.9153 531.62 48.456 529.657C49.2973 528.585 50.0893 527.605 50.8115 526.729C52.3513 524.86 53.9848 522.966 55.7158 521.059L55.7168 521.058C56.5474 520.143 57.3976 519.227 58.2685 518.312L59.2471 517.294C61.5391 514.93 63.8938 512.65 66.3047 510.456L66.3057 510.455C67.4055 509.454 68.3701 508.607 69.1094 507.966C70.8582 506.449 72.7889 504.84 74.8975 503.181L74.8984 503.18C77.9209 500.801 80.9671 498.586 84.0146 496.524L84.0166 496.523C86.0588 495.142 88.1782 493.779 90.3759 492.441L90.3779 492.44C94.7001 489.811 99.1569 487.385 103.734 485.177C105.927 484.119 108.253 483.059 110.709 482.019H110.711C112.042 481.455 113.244 480.968 114.269 480.563L115.392 480.125C121.014 477.955 126.791 476.099 132.695 474.578L132.697 474.577C141.507 472.308 150.602 470.785 159.889 470.077L161.39 469.97C164.889 469.737 168.377 469.623 171.847 469.623C173.886 469.623 175.886 469.663 177.841 469.737C180.682 469.845 183.573 470.032 186.506 470.306L187.766 470.429L189.247 470.587C192.7 470.971 196.119 471.467 199.5 472.071C200.021 472.164 200.541 472.261 201.061 472.361L201.964 472.535L203.512 472.844C203.612 472.864 203.712 472.886 203.812 472.907C203.848 472.643 203.882 472.387 203.917 472.139V472.136C204.014 471.44 204.099 470.877 204.146 470.57C204.183 470.322 204.227 470.034 204.229 470.025C204.231 470.008 204.235 469.985 204.239 469.957C204.271 469.75 204.372 469.084 204.512 468.241L204.723 467.007L204.794 466.603L204.81 466.511C204.819 466.456 204.867 466.189 204.917 465.912C204.972 465.607 205.066 465.089 205.187 464.458L205.188 464.453C205.308 463.824 205.409 463.317 205.459 463.067C205.485 462.937 205.509 462.825 205.521 462.767C205.527 462.736 205.533 462.705 205.536 462.688C205.54 462.668 205.543 462.655 205.545 462.645C205.546 462.641 205.547 462.634 205.549 462.624C205.55 462.616 205.573 462.507 205.594 462.405C205.637 462.193 205.758 461.598 205.918 460.854L206.197 459.589L206.297 459.149L206.337 458.974C206.386 458.76 206.568 457.957 206.798 457.007L206.8 457C206.84 456.836 206.886 456.644 206.939 456.429C206.991 456.222 207.034 456.048 207.064 455.925C207.092 455.814 207.117 455.716 207.128 455.672C207.134 455.649 207.161 455.544 207.163 455.534C207.312 454.942 207.503 454.195 207.734 453.331L207.736 453.325C207.888 452.759 208.044 452.185 208.209 451.598L208.687 449.928L208.688 449.924C208.876 449.281 209.094 448.55 209.342 447.745L209.451 447.389L209.552 447.065C209.703 446.579 209.858 446.094 210.016 445.609L210.172 445.129L210.437 444.326C210.585 443.882 210.795 443.254 211.049 442.521L211.05 442.518C211.321 441.735 211.561 441.068 211.604 440.946C211.717 440.632 211.831 440.319 211.946 440.006L212.119 439.536C212.191 439.34 212.264 439.144 212.337 438.948C212.341 438.938 212.345 438.929 212.353 438.908C212.359 438.891 212.369 438.863 212.38 438.833C212.402 438.775 212.439 438.675 212.483 438.558C212.567 438.337 212.725 437.915 212.925 437.398L213.716 435.392L213.718 435.389C213.74 435.334 213.818 435.139 213.898 434.939C213.995 434.7 214.141 434.341 214.32 433.908L214.321 433.906C214.71 432.967 215.052 432.173 215.131 431.988L215.48 431.182L215.855 430.325C216.077 429.825 216.334 429.253 216.627 428.612L216.915 427.988L217.101 427.589L217.416 426.915C217.763 426.18 218.063 425.561 218.269 425.139L218.271 425.136C218.275 425.126 218.281 425.115 218.29 425.096C218.298 425.079 218.311 425.052 218.325 425.023C218.352 424.969 218.4 424.871 218.456 424.756C218.562 424.539 218.777 424.101 219.047 423.562L219.048 423.562C219.464 422.731 219.82 422.043 219.953 421.786L219.954 421.783C220.286 421.142 220.576 420.592 220.82 420.134L221.177 419.471L221.391 419.075L221.73 418.456C221.736 418.447 221.738 418.439 221.763 418.395C221.778 418.366 221.828 418.274 221.884 418.173C221.994 417.973 222.255 417.498 222.587 416.909C222.906 416.343 223.169 415.884 223.33 415.605C223.457 415.386 223.596 415.146 223.612 415.118L223.613 415.117C223.666 415.026 224.056 414.351 224.516 413.58C224.913 412.913 225.256 412.351 225.521 411.919L225.604 411.783L225.826 411.421L226.531 410.289L227.248 409.165L227.438 408.871C227.466 408.826 227.498 408.776 227.532 408.723C227.57 408.664 227.613 408.597 227.661 408.522C227.655 408.532 227.649 408.543 227.642 408.554C227.635 408.564 227.627 408.577 227.617 408.592C227.613 408.598 227.605 408.611 227.595 408.626C227.591 408.632 227.579 408.651 227.563 408.675C227.558 408.683 227.536 408.717 227.509 408.76C227.509 408.76 227.507 408.763 227.505 408.766C227.498 408.776 227.492 408.786 227.485 408.796C227.473 408.815 227.457 408.841 227.438 408.871C227.46 408.836 227.483 408.801 227.505 408.766C227.581 408.647 227.654 408.534 227.724 408.427C227.768 408.359 227.81 408.292 227.852 408.229C227.853 408.226 227.855 408.224 227.856 408.222C227.897 408.159 227.937 408.098 227.975 408.04C227.991 408.014 228.008 407.989 228.024 407.964C228.434 407.335 228.85 406.709 229.272 406.087L229.605 405.597C229.641 405.545 229.677 405.493 229.712 405.441C229.734 405.409 229.756 405.376 229.777 405.345C229.795 405.319 229.813 405.293 229.831 405.266C229.937 405.11 230.092 404.885 230.278 404.614L230.624 404.116C230.692 404.019 230.76 403.925 230.824 403.833C230.827 403.829 230.83 403.825 230.832 403.821C230.834 403.819 230.835 403.816 230.836 403.814C230.833 403.819 230.829 403.826 230.824 403.833C231.307 403.145 231.694 402.604 231.826 402.419L231.994 402.188C232.042 402.121 232.096 402.046 232.154 401.965C232.267 401.807 232.386 401.644 232.51 401.475C232.645 401.289 232.764 401.124 232.866 400.984C233.087 400.684 233.296 400.402 233.492 400.14C233.5 400.129 233.512 400.113 233.525 400.095C233.539 400.076 233.557 400.053 233.576 400.027C233.586 400.014 233.596 400 233.607 399.985L233.604 399.99C233.682 399.887 233.756 399.787 233.829 399.69L233.83 399.689C233.888 399.613 233.953 399.526 234.025 399.431C234.077 399.362 234.131 399.288 234.185 399.218C234.412 398.916 234.768 398.448 235.208 397.879L235.212 397.874C235.461 397.552 235.717 397.222 235.985 396.883C236.22 396.585 236.41 396.348 236.466 396.278C236.471 396.272 236.476 396.265 236.48 396.26C236.495 396.241 236.511 396.222 236.526 396.202C236.935 395.686 237.278 395.259 237.522 394.959L237.523 394.958C238.496 393.761 239.389 392.709 239.438 392.65C241.052 390.74 242.895 388.645 244.967 386.44C245.009 386.395 245.052 386.35 245.094 386.306L245.097 386.302C246.564 384.742 247.858 383.434 248.825 382.474C248.928 382.37 249.083 382.217 249.258 382.044C249.6 381.705 249.966 381.346 250.356 380.969L251.453 379.922C251.521 379.858 251.583 379.799 251.64 379.746C251.74 379.651 251.901 379.5 252.082 379.329C252.418 379.013 252.756 378.697 253.101 378.38L253.104 378.377C253.344 378.157 253.676 377.851 254.078 377.489C254.328 377.264 254.547 377.069 254.664 376.965C254.763 376.876 254.602 377.021 254.812 376.833C254.898 376.755 255.107 376.567 255.372 376.332C255.649 376.087 255.874 375.889 256.014 375.767C256.242 375.567 256.49 375.351 256.758 375.12C257.007 374.905 257.21 374.732 257.322 374.637C257.417 374.556 257.517 374.471 257.526 374.463C257.558 374.436 257.577 374.419 257.602 374.398C257.545 374.447 257.481 374.503 257.41 374.563L257.413 374.561C257.451 374.528 257.49 374.496 257.528 374.463C257.553 374.442 257.577 374.419 257.602 374.398H257.604C257.61 374.393 257.616 374.387 257.623 374.381C257.685 374.328 257.74 374.281 257.786 374.242C257.816 374.216 257.847 374.191 257.877 374.165C257.86 374.18 257.839 374.196 257.817 374.214L257.911 374.136C258.034 374.031 258.156 373.926 258.279 373.822C258.175 373.91 258.063 374.007 257.94 374.111L257.951 374.103C257.949 374.104 257.929 374.121 257.896 374.148C257.81 374.222 257.718 374.3 257.623 374.381L257.624 374.382C258.023 374.041 258.363 373.752 258.627 373.531C258.551 373.595 258.467 373.665 258.377 373.74C258.542 373.601 258.706 373.461 258.872 373.323L258.873 373.324C258.871 373.326 258.87 373.328 258.868 373.329C258.835 373.357 258.798 373.387 258.759 373.42C258.879 373.32 258.98 373.236 259.057 373.173C259.075 373.158 259.092 373.143 259.107 373.13C259.092 373.142 259.077 373.156 259.06 373.17C259.009 373.212 258.945 373.264 258.873 373.324L258.872 373.323C259.663 372.664 260.293 372.156 260.491 371.996C260.517 371.976 260.537 371.959 260.553 371.946C260.553 371.946 260.553 371.946 260.559 371.941C260.566 371.936 260.569 371.933 260.59 371.916C260.604 371.904 260.64 371.876 260.681 371.843C260.758 371.78 260.94 371.632 261.168 371.448C261.421 371.245 261.677 371.04 261.938 370.833L261.94 370.832C262.247 370.589 262.533 370.364 262.799 370.157C263.034 369.974 263.225 369.828 263.285 369.781L263.281 369.785C263.289 369.779 263.29 369.777 263.316 369.757C263.335 369.743 263.376 369.711 263.424 369.674C263.604 369.534 264.189 369.08 264.936 368.518L266.292 367.51C266.37 367.453 266.451 367.393 266.478 367.374C266.483 367.37 266.485 367.369 266.507 367.353C266.523 367.341 266.558 367.314 266.599 367.284C266.738 367.182 267.258 366.8 267.916 366.328L267.917 366.327C268.539 365.881 269.043 365.528 269.271 365.368C269.392 365.284 269.496 365.212 269.542 365.18C269.611 365.132 269.609 365.134 269.633 365.117C269.663 365.096 269.853 364.963 270.039 364.834C270.258 364.682 270.63 364.425 271.088 364.113L271.092 364.111C271.58 363.779 272.099 363.43 272.654 363.062C273.101 362.765 273.665 362.395 274.314 361.977L274.317 361.975C275.136 361.447 275.844 361.004 275.959 360.933L277.405 360.036L277.406 360.035C277.988 359.679 278.612 359.303 279.286 358.903C279.547 358.749 280.051 358.449 280.663 358.095L280.665 358.094C281.327 357.71 281.865 357.406 282.124 357.261C282.261 357.184 282.379 357.118 282.439 357.084C282.563 357.014 282.487 357.057 282.56 357.017C282.785 356.89 283.335 356.58 283.99 356.222L284.921 355.718L285.74 355.279C286.068 355.105 286.686 354.778 287.435 354.393C287.973 354.115 288.526 353.835 289.102 353.547L289.767 353.217L290.157 353.024L290.769 352.726C291.406 352.416 291.995 352.136 292.522 351.888L292.524 351.887C292.796 351.759 293.441 351.456 294.227 351.098C294.916 350.783 295.508 350.521 295.936 350.332L295.939 350.331C296.56 350.057 297.138 349.806 297.664 349.581C298.159 349.37 298.743 349.123 299.396 348.854L299.398 348.853C300.215 348.515 300.895 348.244 301.23 348.111L301.748 347.905C302.024 347.796 302.441 347.632 302.948 347.437L302.952 347.436C303.451 347.244 303.862 347.089 304.11 346.996C304.334 346.912 304.547 346.833 304.6 346.813L306.487 346.125L306.489 346.124C307.065 345.918 307.541 345.753 307.826 345.654C308.096 345.561 308.344 345.476 308.402 345.456L308.506 345.42C308.547 345.406 308.641 345.374 308.747 345.338C308.974 345.26 309.405 345.114 309.942 344.936C310.849 344.635 311.602 344.396 311.956 344.284L311.998 344.271C312.015 344.266 312.044 344.257 312.072 344.248C312.127 344.231 312.232 344.197 312.354 344.159C312.586 344.086 313.057 343.938 313.641 343.761L313.643 343.76C314.216 343.585 314.683 343.448 314.928 343.376C315.057 343.338 315.167 343.306 315.231 343.287C315.265 343.277 315.296 343.268 315.315 343.263C315.339 343.256 315.349 343.253 315.361 343.25L317.359 342.681L317.36 342.68C318.127 342.467 318.765 342.298 319.055 342.221C319.106 342.207 319.345 342.144 319.587 342.08C319.868 342.006 320.33 341.886 320.895 341.743C321.725 341.534 322.387 341.376 322.648 341.313C322.762 341.286 322.884 341.258 322.896 341.255C322.906 341.252 322.914 341.25 322.92 341.249C322.988 341.233 323.22 341.177 323.508 341.109C323.84 341.031 324.201 340.948 324.591 340.859L324.596 340.857C325.275 340.703 325.829 340.584 326.173 340.511C326.327 340.478 326.461 340.449 326.531 340.434ZM500.083 663.405C500.091 663.405 500.098 663.406 500.101 663.406C500.097 663.406 500.091 663.405 500.085 663.405H500.083ZM983.494 604.823C983.492 604.809 983.486 604.761 983.476 604.691C983.471 604.659 983.466 604.626 983.463 604.606C983.464 604.61 983.476 604.692 983.494 604.823ZM981.466 593.382C981.474 593.419 981.483 593.457 981.491 593.493C981.493 593.503 981.495 593.513 981.497 593.521C981.495 593.514 981.494 593.507 981.492 593.5C981.488 593.482 981.484 593.465 981.48 593.449C981.476 593.428 981.471 593.406 981.466 593.382ZM980.607 589.623C980.621 589.677 980.631 589.72 980.638 589.749C980.628 589.71 980.619 589.673 980.61 589.638C980.604 589.611 980.597 589.582 980.59 589.551C980.596 589.575 980.602 589.599 980.607 589.623ZM980.101 587.581C980.108 587.608 980.115 587.635 980.122 587.661C980.184 587.905 980.238 588.117 980.279 588.284C980.305 588.387 980.328 588.483 980.35 588.57C980.34 588.531 980.329 588.492 980.319 588.453C980.267 588.243 980.213 588.027 980.157 587.806C980.138 587.732 980.12 587.657 980.101 587.581ZM979.677 585.968C979.643 585.844 979.612 585.726 979.582 585.616C979.572 585.579 979.562 585.543 979.552 585.507C979.553 585.512 979.555 585.517 979.557 585.522C979.593 585.657 979.633 585.806 979.677 585.968ZM979.444 585.117C979.444 585.117 979.445 585.121 979.446 585.124C979.448 585.13 979.452 585.143 979.456 585.159C979.465 585.191 979.481 585.251 979.502 585.325C979.514 585.371 979.53 585.426 979.547 585.488C979.535 585.445 979.524 585.404 979.514 585.367C979.503 585.33 979.495 585.296 979.486 585.267C979.473 585.217 979.459 585.17 979.446 585.124C979.449 585.134 979.452 585.145 979.455 585.155C979.465 585.191 979.476 585.228 979.486 585.267L979.445 585.118L979.444 585.117C979.434 585.079 979.424 585.042 979.414 585.007C979.402 584.965 979.391 584.924 979.38 584.886C979.399 584.956 979.421 585.033 979.444 585.117ZM979.225 584.333C979.222 584.325 979.22 584.319 979.219 584.313L979.215 584.299L979.225 584.333ZM978.976 583.418L979.003 583.514C978.998 583.496 978.986 583.456 978.971 583.401C978.972 583.407 978.974 583.413 978.976 583.418ZM978.852 582.988C978.882 583.093 978.908 583.182 978.928 583.251C978.944 583.308 978.959 583.359 978.971 583.401C978.936 583.28 978.888 583.113 978.83 582.915C978.818 582.874 978.805 582.832 978.793 582.789L978.738 582.602L978.852 582.988ZM978.537 581.921C978.538 581.924 978.539 581.928 978.54 581.932C978.549 581.961 978.56 581.996 978.571 582.035C978.57 582.03 978.569 582.026 978.567 582.021C978.563 582.008 978.56 581.996 978.557 581.986C978.551 581.967 978.546 581.951 978.543 581.94C978.54 581.93 978.538 581.924 978.537 581.921ZM978.48 581.734C978.48 581.734 978.482 581.74 978.483 581.743C978.485 581.748 978.487 581.756 978.49 581.766C978.484 581.745 978.48 581.73 978.48 581.73C978.48 581.73 978.48 581.732 978.48 581.734ZM977.321 578.009C977.313 577.982 977.304 577.956 977.296 577.931C977.293 577.923 977.292 577.917 977.292 577.917L977.293 577.922C977.294 577.924 977.295 577.929 977.297 577.935C977.3 577.945 977.309 577.972 977.321 578.009ZM976.211 574.714L976.212 574.716C976.218 574.733 976.221 574.741 976.221 574.741L976.211 574.714ZM976.115 574.441C976.106 574.416 976.098 574.392 976.09 574.369C976.08 574.34 976.071 574.316 976.068 574.309C976.069 574.311 976.076 574.334 976.085 574.357C976.092 574.377 976.102 574.406 976.115 574.441ZM975.085 571.604C975.087 571.608 975.088 571.613 975.09 571.617C975.114 571.682 975.133 571.736 975.143 571.764C975.146 571.771 975.149 571.778 975.151 571.783C975.144 571.764 975.134 571.736 975.122 571.703C975.11 571.671 975.098 571.638 975.085 571.604ZM974.85 570.977C974.884 571.066 974.917 571.155 974.949 571.24L974.932 571.195L974.85 570.977ZM973.562 567.684C973.554 567.663 973.546 567.644 973.528 567.6C973.526 567.594 973.52 567.581 973.513 567.562C973.536 567.618 973.553 567.66 973.562 567.684ZM973.311 567.068C973.313 567.073 973.315 567.076 973.316 567.078C973.317 567.08 973.317 567.083 973.317 567.083L973.311 567.068ZM973.097 566.556L973.098 566.557C973.098 566.557 973.099 566.56 973.1 566.562C973.101 566.565 973.103 566.572 973.106 566.579C973.113 566.594 973.123 566.62 973.137 566.651C973.171 566.733 973.231 566.879 973.31 567.068C973.247 566.918 973.185 566.767 973.124 566.62C973.11 566.587 973.099 566.561 973.097 566.556ZM972.75 565.708C972.871 565.995 972.971 566.235 973.042 566.408C973.114 566.582 973.172 566.725 973.211 566.819C973.249 566.914 973.28 566.989 973.295 567.025C973.301 567.042 973.307 567.057 973.311 567.068C973.308 567.06 973.302 567.046 973.296 567.03C973.269 566.965 973.222 566.846 973.161 566.698C973.043 566.411 972.895 566.052 972.721 565.639C972.731 565.662 972.74 565.685 972.75 565.708ZM972.078 564.14L972.079 564.141C972.066 564.111 972.056 564.089 972.053 564.08L972.051 564.077L972.078 564.14ZM971.897 563.728C971.902 563.739 971.908 563.752 971.914 563.766C971.901 563.737 971.89 563.71 971.88 563.688C971.885 563.7 971.891 563.713 971.897 563.728ZM970.446 560.502C970.469 560.551 970.478 560.57 970.489 560.594L970.411 560.426C970.428 560.461 970.44 560.489 970.446 560.502ZM966.723 553.012C966.734 553.032 966.751 553.065 966.772 553.104C966.804 553.164 966.843 553.237 966.888 553.321C966.84 553.231 966.787 553.13 966.729 553.022C966.718 553.001 966.707 552.981 966.703 552.974C966.704 552.976 966.712 552.992 966.723 553.012ZM963.451 547.146C963.469 547.177 963.486 547.205 963.501 547.23C963.485 547.203 963.469 547.176 963.454 547.15L963.451 547.146ZM961.366 543.694C961.447 543.825 961.519 543.941 961.571 544.026C961.565 544.016 961.542 543.98 961.514 543.934C961.463 543.852 961.379 543.716 961.273 543.545L961.366 543.694ZM959.622 540.953L959.623 540.955C959.626 540.959 959.623 540.955 959.625 540.958C959.625 540.958 959.624 540.955 959.622 540.953ZM959.366 540.561C959.374 540.573 959.382 540.585 959.391 540.598C959.373 540.571 959.355 540.543 959.337 540.516C959.347 540.53 959.356 540.545 959.366 540.561ZM959.235 540.361C959.247 540.379 959.26 540.399 959.274 540.421C959.253 540.389 959.232 540.356 959.209 540.321C959.218 540.335 959.227 540.348 959.235 540.361ZM959.157 540.24C959.171 540.261 959.185 540.284 959.2 540.307C959.187 540.287 959.175 540.268 959.163 540.25C959.161 540.247 959.159 540.243 959.157 540.24ZM959.072 540.11C959.09 540.138 959.109 540.167 959.129 540.197C959.094 540.144 959.062 540.096 959.034 540.054C959.025 540.04 959.016 540.027 959.008 540.014C959.027 540.043 959.049 540.076 959.072 540.11ZM958.958 539.938C958.973 539.961 958.99 539.986 959.008 540.014C959.004 540.007 958.999 540.001 958.995 539.995L958.958 539.938ZM958.843 539.765C958.845 539.767 958.851 539.776 958.857 539.786C958.865 539.797 958.875 539.813 958.888 539.832C958.9 539.851 958.916 539.875 958.934 539.901C958.935 539.904 958.937 539.907 958.938 539.91C958.924 539.889 958.912 539.87 958.901 539.854C958.886 539.83 958.873 539.811 958.864 539.797L958.843 539.765ZM957.352 537.561L957.35 537.559C957.337 537.54 957.321 537.517 957.303 537.49L957.352 537.561ZM950.871 528.813C950.904 528.854 950.929 528.887 950.944 528.905C950.92 528.875 950.895 528.844 950.871 528.813C951.004 528.98 951.124 529.13 951.226 529.258C951.258 529.299 951.289 529.338 951.318 529.376C951.211 529.24 951.086 529.082 950.945 528.906L950.944 528.905C950.928 528.884 950.884 528.83 950.825 528.756C950.843 528.778 950.858 528.797 950.871 528.813ZM950.948 528.91L950.962 528.928L950.945 528.906L950.948 528.91ZM950.637 528.521C950.522 528.378 950.412 528.242 950.309 528.114C950.293 528.095 950.277 528.076 950.262 528.058C950.238 528.029 950.196 527.976 950.146 527.914C950.133 527.898 950.082 527.837 950.011 527.75C950.22 528.006 950.429 528.263 950.637 528.521ZM949.822 527.518C949.862 527.566 949.902 527.616 949.944 527.667C949.893 527.604 949.843 527.543 949.795 527.484C949.804 527.495 949.813 527.506 949.822 527.518ZM949.047 526.583C949.039 526.573 949.031 526.564 949.023 526.555C949.012 526.541 949 526.527 948.989 526.515L949.047 526.583ZM948.872 526.376C948.876 526.38 948.881 526.386 948.887 526.393C948.879 526.383 948.872 526.375 948.868 526.37L948.872 526.376ZM795.933 472.96C795.901 472.967 795.863 472.975 795.819 472.984C795.861 472.976 795.903 472.966 795.944 472.957C795.941 472.958 795.937 472.959 795.933 472.96ZM796.193 472.905C796.191 472.906 796.188 472.906 796.185 472.906C796.199 472.903 796.21 472.902 796.216 472.9L796.193 472.905ZM227.505 408.766C227.482 408.802 227.459 408.837 227.438 408.871C227.47 408.82 227.495 408.782 227.505 408.766ZM227.774 408.349C227.73 408.417 227.684 408.489 227.636 408.563C227.708 408.452 227.779 408.34 227.852 408.229C227.826 408.267 227.801 408.308 227.774 408.349ZM227.852 408.229C227.782 408.335 227.718 408.434 227.661 408.522C227.667 408.513 227.673 408.504 227.679 408.495C227.702 408.459 227.724 408.425 227.744 408.394L227.852 408.229ZM228.598 407.097L228.52 407.214C228.562 407.15 228.6 407.094 228.63 407.049L228.598 407.097ZM228.731 406.896C228.727 406.902 228.721 406.911 228.714 406.922C228.706 406.933 228.697 406.948 228.687 406.964L228.702 406.94C228.711 406.927 228.719 406.916 228.725 406.907C228.73 406.899 228.734 406.892 228.736 406.889L228.731 406.896ZM232.061 402.093C232.004 402.172 231.951 402.246 231.933 402.272C231.939 402.264 231.964 402.23 231.994 402.188L232.061 402.093ZM232.154 401.965C232.182 401.926 232.21 401.886 232.239 401.846C232.271 401.802 232.302 401.759 232.332 401.717C232.256 401.823 232.195 401.908 232.154 401.965ZM232.51 401.475C232.453 401.552 232.393 401.632 232.332 401.717C232.384 401.645 232.443 401.563 232.508 401.475C232.563 401.399 232.629 401.308 232.704 401.205C232.638 401.296 232.574 401.387 232.51 401.475ZM232.823 401.043C232.781 401.1 232.742 401.154 232.704 401.205C232.724 401.177 232.745 401.149 232.766 401.121L232.823 401.043ZM233.729 399.824C233.698 399.865 233.67 399.904 233.645 399.938C233.632 399.955 233.619 399.97 233.607 399.985C233.631 399.954 233.658 399.917 233.688 399.877C233.71 399.848 233.734 399.816 233.76 399.781C233.749 399.796 233.739 399.811 233.729 399.824ZM234.243 399.145C234.237 399.153 234.226 399.167 234.213 399.185C234.222 399.172 234.231 399.162 234.236 399.154C234.241 399.148 234.245 399.143 234.247 399.14L234.243 399.145ZM245.097 386.302C245.038 386.364 244.98 386.426 244.921 386.488C245.017 386.385 245.092 386.306 245.116 386.28L245.097 386.302ZM251.937 379.468C251.902 379.5 251.863 379.537 251.821 379.576C251.785 379.611 251.752 379.642 251.723 379.669C251.775 379.62 251.82 379.578 251.855 379.545C251.898 379.505 251.932 379.473 251.952 379.454C251.962 379.444 251.971 379.436 251.977 379.431L251.937 379.468ZM255.656 376.098L255.653 376.101C255.653 376.101 255.658 376.096 255.663 376.092L255.656 376.098ZM255.948 375.839C255.964 375.825 255.98 375.811 255.996 375.797C256.004 375.79 256.012 375.782 256.021 375.774C255.995 375.797 255.971 375.819 255.948 375.839ZM256.609 375.256C256.51 375.343 256.419 375.424 256.335 375.497L256.221 375.598C256.306 375.523 256.403 375.437 256.511 375.343C256.589 375.274 256.674 375.2 256.766 375.12C256.712 375.167 256.659 375.212 256.609 375.256ZM257.436 374.542C257.447 374.532 257.458 374.522 257.469 374.513C257.517 374.472 257.561 374.433 257.602 374.398C257.663 374.346 257.725 374.294 257.786 374.242C257.746 374.276 257.706 374.31 257.666 374.345C257.646 374.362 257.625 374.38 257.604 374.398H257.602C257.586 374.412 257.571 374.426 257.555 374.439C257.515 374.473 257.476 374.507 257.436 374.542ZM257.602 374.398L257.603 374.399C257.61 374.393 257.617 374.388 257.624 374.382L257.623 374.381C257.616 374.387 257.609 374.392 257.602 374.398ZM259.218 373.039C259.228 373.031 259.236 373.025 259.241 373.021L259.244 373.018L259.218 373.039ZM342.431 337.89C342.363 337.897 342.297 337.904 342.233 337.911C342.342 337.9 342.429 337.89 342.49 337.884C342.519 337.881 342.556 337.877 342.575 337.875C342.556 337.877 342.501 337.882 342.431 337.89ZM346.914 337.465C346.905 337.466 346.765 337.476 346.584 337.491C346.56 337.493 346.533 337.496 346.503 337.498C346.634 337.487 346.741 337.479 346.811 337.474C346.818 337.473 346.825 337.472 346.832 337.472C346.86 337.469 346.889 337.467 346.917 337.465H346.914ZM957.352 537.561C957.354 537.564 957.357 537.569 957.361 537.575C957.363 537.578 957.364 537.58 957.366 537.583C957.361 537.576 957.357 537.568 957.352 537.561ZM963.539 547.295C963.528 547.277 963.515 547.255 963.501 547.23C963.51 547.246 963.519 547.261 963.528 547.276C963.532 547.283 963.536 547.289 963.539 547.295ZM972.649 565.473C972.668 565.517 972.688 565.562 972.707 565.606C972.708 565.61 972.71 565.613 972.711 565.616C972.692 565.57 972.671 565.523 972.649 565.473ZM230.844 403.806L230.84 403.811C230.84 403.811 230.837 403.813 230.836 403.814C230.839 403.81 230.842 403.808 230.844 403.806ZM233.798 399.732C233.785 399.749 233.772 399.765 233.76 399.781C233.78 399.754 233.802 399.725 233.824 399.695C233.815 399.708 233.807 399.721 233.798 399.732ZM322.936 341.246C322.93 341.247 322.924 341.249 322.918 341.25L322.92 341.249C322.93 341.247 322.936 341.246 322.936 341.246ZM326.675 340.402C326.667 340.404 326.658 340.406 326.647 340.408C326.647 340.408 326.651 340.407 326.653 340.406C326.661 340.405 326.668 340.404 326.675 340.402ZM981.461 593.356C981.462 593.361 981.463 593.366 981.464 593.371C981.465 593.375 981.465 593.378 981.466 593.382C981.464 593.374 981.463 593.365 981.461 593.356ZM979.567 585.565C979.573 585.584 979.578 585.604 979.584 585.624C979.594 585.662 979.605 585.702 979.616 585.744C979.599 585.681 979.583 585.621 979.567 585.565ZM977.438 578.363C977.435 578.354 977.432 578.345 977.429 578.335C977.408 578.27 977.386 578.205 977.365 578.143C977.386 578.207 977.411 578.281 977.438 578.363ZM977.349 578.091C977.354 578.107 977.359 578.125 977.365 578.143C977.35 578.097 977.335 578.052 977.321 578.009C977.329 578.033 977.339 578.06 977.349 578.091ZM976.187 574.646L976.202 574.688C976.206 574.7 976.208 574.707 976.211 574.714L976.187 574.646ZM963.315 546.915C963.346 546.967 963.38 547.024 963.414 547.082C963.427 547.105 963.439 547.126 963.451 547.146C963.413 547.081 963.367 547.003 963.315 546.915ZM959.129 540.197L959.132 540.202C959.14 540.215 959.149 540.227 959.157 540.24C959.148 540.226 959.138 540.211 959.129 540.197ZM842.161 470.248C842.157 470.248 842.151 470.247 842.148 470.247C842.145 470.247 842.141 470.245 842.137 470.245C842.149 470.246 842.158 470.248 842.161 470.248ZM232.154 401.965C232.129 402.001 232.102 402.036 232.077 402.071C232.072 402.079 232.066 402.085 232.061 402.093L232.154 401.965ZM257.555 374.439C257.532 374.459 257.509 374.478 257.486 374.497C257.482 374.501 257.476 374.505 257.472 374.509C257.499 374.485 257.528 374.463 257.555 374.439Z" fill="#986DF8"/>
<path d="M828.671 589.626C828.841 589.628 829.016 589.633 829.196 589.638C829.336 589.642 829.485 589.647 829.646 589.653C829.899 589.663 830.155 589.676 830.413 589.691C830.489 589.696 830.54 589.699 830.587 589.702C830.851 589.719 831.118 589.74 831.387 589.764C831.448 589.769 831.454 589.77 831.476 589.771C831.665 589.788 831.874 589.81 832.154 589.84C832.311 589.857 832.461 589.874 832.606 589.892C832.76 589.91 832.919 589.93 833.084 589.952C833.227 589.971 833.377 589.992 833.533 590.015C833.678 590.036 833.82 590.057 833.957 590.079C834.144 590.109 834.321 590.139 834.491 590.168C834.637 590.193 834.747 590.212 834.847 590.23C835.01 590.26 835.181 590.293 835.363 590.329C835.514 590.359 835.65 590.387 835.777 590.414C835.931 590.446 836.095 590.482 836.272 590.521C836.391 590.548 836.511 590.576 836.632 590.604C836.8 590.644 836.975 590.687 837.157 590.732C837.309 590.771 837.427 590.8 837.532 590.828C837.677 590.866 837.835 590.909 838.021 590.961C838.161 591 838.29 591.036 838.411 591.071C838.549 591.111 838.698 591.156 838.867 591.207C839.033 591.257 839.166 591.299 839.286 591.337C839.412 591.377 839.551 591.422 839.742 591.485C839.92 591.544 840.026 591.58 840.126 591.614C840.267 591.663 840.41 591.713 840.558 591.766C840.733 591.828 840.872 591.878 840.996 591.925C841.119 591.971 841.255 592.022 841.425 592.088C841.558 592.139 841.681 592.188 841.796 592.234C841.945 592.294 842.107 592.36 842.294 592.438C842.463 592.508 842.534 592.538 842.612 592.571C842.751 592.631 842.902 592.697 843.085 592.778L843.446 592.939C843.567 592.994 843.694 593.055 843.909 593.157C844.045 593.222 844.151 593.272 844.245 593.318C844.388 593.388 844.54 593.463 844.705 593.547C844.887 593.639 844.949 593.67 845.027 593.71L845.485 593.952C845.646 594.038 845.749 594.093 845.843 594.145C845.941 594.199 846.028 594.248 846.24 594.368C846.454 594.489 846.517 594.524 846.604 594.575C846.718 594.641 846.844 594.716 847.015 594.818C847.146 594.897 847.261 594.966 847.366 595.03C847.489 595.106 847.621 595.188 847.771 595.282C847.965 595.405 848.03 595.446 848.113 595.5C848.217 595.567 848.321 595.637 848.518 595.768C848.66 595.863 848.76 595.929 848.85 595.99C848.964 596.068 849.087 596.154 849.231 596.255C849.368 596.35 849.488 596.435 849.598 596.514C849.677 596.571 849.758 596.63 849.907 596.739C850.085 596.87 850.195 596.951 850.296 597.027C850.409 597.113 850.533 597.208 850.7 597.338L850.972 597.549C851.077 597.632 851.192 597.725 851.359 597.861C851.537 598.006 851.598 598.055 851.675 598.119C851.766 598.195 851.84 598.259 852.041 598.431C852.219 598.583 852.275 598.629 852.35 598.694C852.437 598.771 852.529 598.853 852.686 598.993C852.825 599.118 852.92 599.204 853.007 599.283C853.1 599.368 853.2 599.461 853.357 599.609C853.524 599.766 853.574 599.813 853.643 599.879C853.728 599.961 853.817 600.048 853.973 600.201C854.133 600.359 854.212 600.436 854.291 600.516C854.361 600.586 854.4 600.628 854.576 600.81C854.735 600.973 854.819 601.06 854.901 601.146C854.972 601.221 855.045 601.299 855.176 601.44C855.337 601.614 855.423 601.709 855.507 601.802C855.566 601.867 855.574 601.877 855.74 602.065C855.897 602.243 855.99 602.347 856.076 602.447C856.164 602.549 856.257 602.661 856.402 602.834C856.55 603.01 856.574 603.038 856.629 603.104C856.73 603.227 856.838 603.363 857 603.567C857.032 603.607 857.061 603.644 857.084 603.673C857.096 603.687 857.108 603.701 857.117 603.713C857.127 603.725 857.135 603.735 857.143 603.745C857.174 603.784 857.183 603.795 857.183 603.795C857.263 603.898 857.338 603.998 857.5 604.211C857.674 604.44 857.675 604.439 857.733 604.518C857.812 604.624 857.893 604.736 858.035 604.934C858.156 605.101 858.193 605.15 858.243 605.221C858.307 605.311 858.343 605.366 858.5 605.594C858.664 605.832 858.706 605.891 858.771 605.987C858.771 605.987 858.779 605.999 858.811 606.047C858.818 606.058 858.826 606.071 858.835 606.085C858.844 606.099 858.855 606.114 858.865 606.131C858.887 606.164 858.914 606.206 858.943 606.251C859.098 606.486 859.173 606.6 859.248 606.718C859.297 606.795 859.276 606.764 859.426 607.004C859.544 607.193 859.628 607.328 859.702 607.451C859.777 607.576 859.859 607.714 859.975 607.912C860.116 608.155 860.102 608.126 860.147 608.206C860.204 608.304 860.257 608.402 860.367 608.6C860.492 608.825 860.539 608.907 860.594 609.008C860.649 609.111 860.661 609.136 860.813 609.428C860.986 609.758 860.94 609.665 860.993 609.77C861.048 609.877 861.059 609.904 861.209 610.208C861.343 610.48 861.354 610.498 861.4 610.595C861.45 610.699 861.492 610.79 861.599 611.021C861.734 611.312 861.721 611.28 861.764 611.375C861.831 611.525 861.902 611.69 862.01 611.94C862.03 611.989 862.05 612.032 862.064 612.066C862.075 612.092 862.097 612.139 862.102 612.15C862.112 612.174 862.117 612.187 862.119 612.192C862.169 612.31 862.205 612.403 862.317 612.68C862.446 612.999 862.426 612.941 862.466 613.043C862.511 613.158 862.509 613.161 862.637 613.5C862.764 613.837 862.738 613.762 862.777 613.869C862.818 613.981 862.851 614.078 862.938 614.328C863.041 614.622 863.044 614.625 863.078 614.726C863.117 614.842 863.141 614.918 863.234 615.209C863.344 615.552 863.319 615.467 863.353 615.575C863.403 615.737 863.455 615.916 863.531 616.18C863.546 616.229 863.559 616.273 863.569 616.308C863.577 616.335 863.591 616.38 863.595 616.393C863.6 616.412 863.604 616.423 863.605 616.43C863.651 616.592 863.699 616.769 863.771 617.045C863.784 617.094 863.796 617.139 863.806 617.174C863.81 617.191 863.815 617.208 863.819 617.223C863.823 617.238 863.827 617.25 863.83 617.262C863.839 617.296 863.843 617.311 863.844 617.315C863.878 617.448 863.909 617.578 863.974 617.846C864.055 618.184 864.035 618.095 864.06 618.201C864.09 618.335 864.119 618.468 864.177 618.739C864.241 619.038 864.233 618.997 864.253 619.094C864.402 619.825 864.531 620.583 864.64 621.366C864.688 621.712 864.688 621.703 864.703 621.82C864.724 621.982 864.74 622.142 864.775 622.463C864.851 623.153 864.907 623.833 864.943 624.505C864.947 624.574 864.95 624.649 864.954 624.737C864.967 625.006 864.977 625.252 864.983 625.483C864.993 625.838 864.998 626.181 864.998 626.515V720.254C864.996 721.943 864.962 723.625 864.896 725.299C864.874 725.865 864.85 726.423 864.821 726.973C864.677 729.757 864.445 732.518 864.13 735.254C864.066 735.807 864.001 736.352 863.932 736.892C863.374 741.249 862.602 745.538 861.627 749.748C861.384 750.798 861.127 751.846 860.857 752.892C860.051 756.019 859.13 759.101 858.103 762.133C857.246 764.66 856.314 767.153 855.31 769.607C854.907 770.591 854.494 771.567 854.07 772.535C850.885 779.809 847.055 786.739 842.653 793.252C842.361 793.685 842.065 794.117 841.767 794.547L840.861 795.835C839.95 797.116 839.017 798.379 838.062 799.623C837.746 800.036 837.425 800.449 837.1 800.863C835.483 802.92 833.806 804.927 832.072 806.881C831.378 807.664 830.675 808.437 829.964 809.2C806.108 834.824 772.118 850.84 734.355 850.884H265.642C265.078 850.883 264.514 850.879 263.95 850.871C262.826 850.856 261.705 850.826 260.586 850.782C254.437 850.542 248.402 849.879 242.509 848.821C238.223 848.052 234.01 847.074 229.881 845.898C228.849 845.605 227.821 845.299 226.8 844.98C225.779 844.662 224.762 844.331 223.751 843.988C222.738 843.645 221.733 843.291 220.735 842.925C219.234 842.374 217.747 841.798 216.276 841.196C214.314 840.394 212.375 839.543 210.458 838.647C209.499 838.199 208.548 837.741 207.604 837.271C207.13 837.035 206.659 836.799 206.192 836.56C205.686 836.3 205.173 836.031 204.646 835.752C181.88 823.694 163.098 805.106 150.802 782.486C150.553 782.028 150.304 781.565 150.056 781.095C149.072 779.232 148.133 777.342 147.237 775.426C146.79 774.468 146.353 773.504 145.929 772.535C144.654 769.625 143.482 766.66 142.419 763.646C142.066 762.645 141.724 761.634 141.392 760.612C141.225 760.1 141.062 759.592 140.904 759.085C140.586 758.065 140.281 757.037 139.986 756.003C139.545 754.454 139.131 752.894 138.747 751.324C138.361 749.747 138.004 748.156 137.675 746.552C137.458 745.495 137.254 744.436 137.063 743.374C136.775 741.764 136.515 740.147 136.286 738.521C136.057 736.895 135.858 735.258 135.689 733.609C135.464 731.414 135.293 729.201 135.178 726.973C135.149 726.412 135.123 725.854 135.102 725.299C135.052 724.041 135.021 722.778 135.008 721.511L135 720.242V626.515L135.007 625.796C135.039 624.124 135.181 622.486 135.425 620.886L135.579 619.957C135.746 619.03 135.948 618.11 136.186 617.197C136.941 614.288 138.042 611.519 139.442 608.938C140.152 607.629 140.938 606.369 141.793 605.165C142.132 604.687 142.486 604.213 142.854 603.744C143.038 603.51 143.224 603.28 143.411 603.053C143.787 602.597 144.173 602.149 144.57 601.712C144.775 601.487 144.976 601.27 145.174 601.062C145.782 600.424 146.416 599.804 147.074 599.205C147.293 599.006 147.514 598.811 147.737 598.617C148.187 598.227 148.642 597.85 149.104 597.486C149.8 596.938 150.518 596.415 151.253 595.918C151.738 595.59 152.237 595.269 152.748 594.958C153.764 594.34 154.808 593.772 155.878 593.256C156.415 592.997 156.958 592.75 157.507 592.518C157.781 592.401 158.058 592.289 158.337 592.179C159.726 591.63 161.16 591.163 162.631 590.784C164.687 590.254 166.816 589.897 169.002 589.73C169.939 589.659 170.888 589.623 171.848 589.623C172.33 589.623 172.807 589.632 173.279 589.65C174.069 589.68 174.853 589.735 175.629 589.813C176.56 589.908 177.479 590.037 178.385 590.199L179.288 590.373C179.295 590.375 179.303 590.376 179.311 590.378C179.344 590.385 179.393 590.397 179.448 590.408C180.896 590.711 182.307 591.096 183.675 591.56C184.245 591.753 184.809 591.959 185.366 592.179C186.203 592.509 187.025 592.869 187.829 593.257C188.098 593.386 188.365 593.519 188.629 593.654C191.092 594.916 193.402 596.456 195.521 598.231C197.087 599.545 198.542 600.984 199.87 602.533C200.543 603.318 201.184 604.134 201.793 604.978C203.346 607.131 204.671 609.455 205.733 611.915C206.026 612.592 206.295 613.266 206.539 613.938C207.96 617.853 208.739 622.084 208.739 626.516V720.271C208.741 721.304 208.771 722.325 208.826 723.329C208.874 724.212 208.943 725.095 209.032 725.978C209.132 726.957 209.256 727.933 209.405 728.905C209.508 729.573 209.622 730.205 209.729 730.778C214.489 756.045 235.892 775.408 262.145 777.033C263.036 777.088 263.95 777.126 264.882 777.14C265.125 777.143 265.37 777.145 265.615 777.146H734.386C765.78 777.092 791.207 751.665 791.261 720.271V626.516C791.261 622.084 792.04 617.853 793.461 613.938C793.707 613.261 793.976 612.586 794.266 611.915L794.677 610.999C795.663 608.877 796.847 606.862 798.206 604.978C798.812 604.137 799.455 603.321 800.13 602.533C801.458 600.984 802.913 599.544 804.479 598.23C806.598 596.455 808.908 594.916 811.371 593.654C811.635 593.519 811.902 593.386 812.171 593.257C812.975 592.869 813.797 592.509 814.634 592.179C815.191 591.959 815.755 591.753 816.325 591.56C817.694 591.096 819.105 590.71 820.552 590.407C820.602 590.397 820.646 590.388 820.678 590.381C820.689 590.378 820.701 590.375 820.712 590.373C821.014 590.311 821.315 590.253 821.615 590.199C821.907 590.147 822.21 590.097 822.525 590.049C823.292 589.932 824.063 589.838 824.838 589.77C825.152 589.742 825.465 589.717 825.775 589.697C826.085 589.678 826.401 589.663 826.721 589.65C827.184 589.633 827.653 589.623 828.126 589.623L828.671 589.626ZM500.085 663.405C500.091 663.405 500.097 663.406 500.101 663.406C500.098 663.406 500.091 663.405 500.083 663.405H500.085ZM499.998 120.884C511.77 120.884 522.255 126.382 529.026 134.987C529.227 135.242 529.436 135.519 529.665 135.827C530.612 137.104 531.48 138.447 532.261 139.85C532.492 140.264 532.687 140.626 532.859 140.962C533.249 141.722 533.616 142.507 533.96 143.312C534.441 144.441 534.866 145.594 535.232 146.77C536.307 150.22 536.89 153.898 536.89 157.731V517.88C536.89 521.87 539.262 525.479 542.926 527.061C546.589 528.642 550.843 527.895 553.747 525.158L615.361 467.104C615.373 467.093 615.384 467.082 615.396 467.071C615.84 466.649 616.292 466.24 616.75 465.846C617.209 465.451 617.678 465.068 618.157 464.695L618.88 464.147C619.609 463.609 620.357 463.1 621.12 462.619C621.629 462.299 622.147 461.991 622.671 461.696C622.936 461.547 623.199 461.404 623.461 461.265C623.725 461.124 623.993 460.987 624.262 460.853C625.066 460.451 625.886 460.078 626.721 459.735C627.55 459.395 628.395 459.084 629.254 458.803C629.833 458.613 630.407 458.44 630.979 458.283C631.844 458.046 632.723 457.84 633.613 457.665C635.978 457.201 638.397 456.966 640.837 456.975C641.141 456.976 641.446 456.981 641.753 456.989C643.584 457.041 645.4 457.23 647.186 457.55C654.928 458.938 662.093 462.787 667.54 468.571C669.11 470.238 670.513 472.043 671.742 473.957C672.323 474.861 672.855 475.77 673.336 476.683C674.319 478.547 675.14 480.489 675.79 482.486C675.974 483.051 676.145 483.627 676.305 484.213L676.531 485.088C676.603 485.38 676.671 485.672 676.735 485.964C677.058 487.43 677.29 488.92 677.431 490.426C677.46 490.741 677.485 491.041 677.505 491.329C677.587 492.525 677.608 493.731 677.57 494.943L677.529 495.89C677.529 495.896 677.528 495.906 677.527 495.918C677.526 495.933 677.523 495.979 677.521 496.013C677.518 496.052 677.514 496.104 677.511 496.162C677.492 496.45 677.469 496.754 677.439 497.082C677.413 497.378 677.399 497.534 677.383 497.688C677.371 497.796 677.374 497.755 677.335 498.088C677.303 498.364 677.294 498.444 677.279 498.559C677.269 498.636 677.267 498.649 677.236 498.87C677.199 499.137 677.175 499.31 677.15 499.468C677.149 499.475 677.146 499.492 677.141 499.524C677.138 499.539 677.136 499.553 677.133 499.572C677.13 499.59 677.126 499.612 677.122 499.634C677.114 499.678 677.105 499.735 677.095 499.798C677.046 500.092 677.026 500.215 677.002 500.351C677.002 500.352 677.001 500.358 676.999 500.368C676.996 500.382 676.993 500.402 676.987 500.431C676.984 500.445 676.981 500.46 676.978 500.479C676.974 500.496 676.97 500.517 676.966 500.538C676.958 500.581 676.947 500.634 676.937 500.691C676.887 500.95 676.86 501.097 676.831 501.236C676.831 501.238 676.827 501.254 676.815 501.308C676.812 501.321 676.81 501.336 676.806 501.354C676.802 501.37 676.797 501.391 676.793 501.411C676.784 501.452 676.773 501.503 676.761 501.559C676.702 501.833 676.674 501.964 676.643 502.099C676.623 502.186 676.607 502.246 676.557 502.455C676.507 502.659 676.469 502.818 676.433 502.96C676.408 503.058 676.379 503.162 676.333 503.335C676.274 503.556 676.241 503.681 676.208 503.8C676.182 503.89 676.163 503.951 676.099 504.172C676.038 504.377 675.995 504.527 675.953 504.661C675.921 504.767 675.893 504.851 675.815 505.093C675.747 505.305 675.717 505.401 675.683 505.503C675.643 505.621 675.599 505.751 675.536 505.931C675.488 506.07 675.441 506.202 675.396 506.328C675.342 506.476 675.285 506.629 675.225 506.79C675.165 506.949 675.124 507.056 675.087 507.152L674.903 507.614C674.84 507.77 674.794 507.884 674.751 507.987C674.701 508.107 674.646 508.238 674.581 508.388C674.508 508.557 674.446 508.7 674.388 508.831C674.34 508.939 674.285 509.058 674.211 509.22C674.151 509.35 674.089 509.483 674.025 509.616C673.945 509.786 673.892 509.897 673.843 509.998C673.776 510.135 673.703 510.281 673.623 510.439C673.55 510.584 673.496 510.692 673.446 510.788C673.379 510.918 673.302 511.061 673.199 511.253L673.039 511.551C672.962 511.691 672.876 511.843 672.777 512.018C672.697 512.16 672.639 512.262 672.586 512.353C672.519 512.467 672.445 512.593 672.351 512.751C672.261 512.9 672.184 513.028 672.112 513.145C672.056 513.237 671.992 513.338 671.916 513.459C671.795 513.652 671.717 513.774 671.645 513.887C671.582 513.984 671.526 514.065 671.384 514.278C671.247 514.483 671.221 514.525 671.167 514.604C671.089 514.718 671.002 514.842 670.896 514.994C670.772 515.17 670.718 515.248 670.658 515.331C670.58 515.44 670.503 515.545 670.342 515.762C670.208 515.942 670.175 515.989 670.12 516.061L669.841 516.423C669.697 516.609 669.633 516.692 669.562 516.78C669.499 516.86 669.443 516.928 669.3 517.104C669.128 517.315 669.073 517.383 668.999 517.472C668.923 517.562 668.861 517.634 668.686 517.839C668.496 518.06 668.494 518.064 668.428 518.14C668.346 518.233 668.279 518.305 668.087 518.519C667.928 518.694 667.882 518.748 667.814 518.82C667.75 518.89 667.755 518.883 667.561 519.09C667.207 519.465 666.878 519.804 666.56 520.117C666.335 520.338 666.122 520.543 665.917 520.735L665.896 520.756L526.226 652.425L525.639 652.985L525.392 653.172C525.205 653.31 525.01 653.45 524.806 653.595L524.526 653.789L524.211 654.006C524.14 654.054 524.069 654.101 523.918 654.2L523.917 654.201L523.608 654.404C523.523 654.459 523.428 654.519 523.278 654.613L523.277 654.614C523.198 654.664 523.111 654.718 523.011 654.779C522.875 654.863 522.775 654.924 522.687 654.978L522.686 654.979C522.602 655.029 522.509 655.083 522.356 655.172L522.081 655.332C521.946 655.409 521.798 655.491 521.634 655.581C521.602 655.599 521.572 655.615 521.55 655.628C521.539 655.634 521.527 655.64 521.519 655.645C521.509 655.65 521.502 655.654 521.495 655.658C521.465 655.675 521.463 655.676 521.471 655.672C521.233 655.8 521.019 655.912 520.821 656.013C520.392 656.231 519.979 656.481 519.586 656.759L519.199 657.047C518.951 657.241 518.708 657.426 518.47 657.604C518.462 657.609 518.447 657.62 518.42 657.64C518.403 657.652 518.35 657.69 518.315 657.715L518.158 657.828C517.733 658.138 517.35 658.409 516.988 658.652C516.736 658.822 516.486 658.986 516.236 659.145C515.989 659.302 515.737 659.457 515.479 659.611C514.807 660.014 514.126 660.388 513.439 660.734L512.848 660.976C512.607 661.07 512.349 661.167 512.066 661.271C511.977 661.303 511.985 661.299 511.711 661.396C511.471 661.48 511.372 661.516 511.262 661.553C511.164 661.586 511.086 661.61 510.854 661.686C510.599 661.768 510.544 661.788 510.446 661.818C510.355 661.847 510.323 661.855 510.065 661.932C509.861 661.993 509.725 662.033 509.602 662.068C509.523 662.091 509.444 662.112 509.285 662.155C509.1 662.206 508.933 662.251 508.777 662.291C508.683 662.315 508.596 662.336 508.389 662.387C508.187 662.436 508.091 662.461 507.993 662.483C507.868 662.513 507.728 662.544 507.532 662.587C507.341 662.629 507.249 662.649 507.156 662.668C507.025 662.695 506.883 662.724 506.728 662.754C506.575 662.784 506.424 662.812 506.275 662.839C506.165 662.859 506.048 662.88 505.92 662.901C505.786 662.924 505.641 662.948 505.473 662.975C505.274 663.006 505.145 663.026 505.026 663.043C504.935 663.056 504.857 663.066 504.645 663.095C504.436 663.122 504.328 663.137 504.223 663.149C504.095 663.165 503.958 663.18 503.731 663.204C503.459 663.233 503.482 663.232 503.396 663.24C503.27 663.252 503.134 663.264 502.909 663.282C502.708 663.299 502.615 663.307 502.52 663.313C502.409 663.321 502.309 663.327 502.066 663.342C501.722 663.362 501.801 663.359 501.695 663.364C501.585 663.37 501.494 663.372 501.235 663.381C500.979 663.39 500.921 663.393 500.823 663.396C500.549 663.402 500.281 663.404 500.02 663.404C499.994 663.404 499.963 663.404 499.927 663.404C499.666 663.404 499.418 663.401 499.18 663.396C499.081 663.393 499.023 663.39 498.768 663.381C498.507 663.372 498.417 663.37 498.307 663.364C498.201 663.359 498.28 663.362 497.937 663.342C497.692 663.327 497.593 663.321 497.482 663.313C497.386 663.307 497.294 663.299 497.093 663.282C496.867 663.264 496.732 663.252 496.606 663.24C496.52 663.232 496.543 663.233 496.271 663.204C496.044 663.18 495.906 663.165 495.779 663.149C495.673 663.137 495.565 663.122 495.357 663.095C495.145 663.066 495.068 663.056 494.977 663.043C494.858 663.026 494.728 663.006 494.529 662.975L494.082 662.901C493.954 662.879 493.836 662.859 493.727 662.839C493.578 662.812 493.427 662.784 493.274 662.754C493.118 662.724 492.978 662.695 492.847 662.668C492.753 662.649 492.661 662.629 492.47 662.587C492.274 662.544 492.134 662.513 492.009 662.483C491.911 662.461 491.815 662.437 491.613 662.388C491.371 662.328 491.316 662.315 491.224 662.291C491.099 662.259 490.966 662.223 490.736 662.16C490.516 662.1 490.472 662.089 490.39 662.065C490.27 662.031 490.137 661.992 489.948 661.936C489.751 661.877 489.653 661.848 489.555 661.817C489.465 661.789 489.41 661.771 489.179 661.696C488.91 661.609 488.837 661.586 488.73 661.55C488.63 661.516 488.65 661.522 488.34 661.413C488.043 661.309 488.035 661.307 487.936 661.271C487.66 661.17 487.401 661.072 487.155 660.976L486.547 660.729C486.513 660.711 486.479 660.695 486.447 660.679C485.67 660.282 484.901 659.849 484.143 659.381C483.769 659.15 483.394 658.907 483.015 658.652C482.513 658.316 482.018 657.966 481.532 657.604C481.285 657.42 481.042 657.234 480.803 657.047C480.316 656.666 479.795 656.331 479.246 656.047C477.455 655.118 475.737 654.031 474.158 652.831L473.733 652.425L334.102 520.757L333.667 520.342C333.255 519.942 332.845 519.525 332.436 519.09C332.394 519.046 332.355 519.004 332.324 518.972C332.309 518.955 332.293 518.939 332.28 518.926C332.267 518.912 332.255 518.9 332.244 518.889C332.222 518.866 332.208 518.85 332.197 518.838L332.182 518.821C332.098 518.731 332.04 518.664 331.844 518.445C331.642 518.221 331.65 518.232 331.583 518.156C331.483 518.042 331.379 517.919 331.204 517.714C331.17 517.674 331.138 517.637 331.113 517.607C331.101 517.593 331.088 517.579 331.078 517.567C331.067 517.555 331.059 517.545 331.051 517.535C331.023 517.503 331.013 517.49 331.011 517.488C330.933 517.396 330.874 517.322 330.698 517.106C330.54 516.913 330.486 516.847 330.419 516.763L330.209 516.492C330.058 516.298 329.955 516.165 329.862 516.043C329.811 515.974 329.813 515.976 329.662 515.772C329.511 515.569 329.427 515.455 329.348 515.345C329.289 515.263 329.242 515.195 329.112 515.011C328.975 514.816 328.892 514.696 328.815 514.584C328.767 514.513 328.796 514.554 328.646 514.331L328.335 513.86C328.272 513.763 328.204 513.656 328.1 513.49C327.993 513.321 327.924 513.211 327.861 513.109C327.807 513.021 327.747 512.922 327.664 512.783C327.579 512.641 327.491 512.493 327.4 512.337C327.33 512.216 327.272 512.113 327.219 512.021L326.964 511.564C326.914 511.474 326.861 511.373 326.794 511.249L326.54 510.769C326.481 510.654 326.43 510.553 326.383 510.461C326.306 510.308 326.227 510.152 326.149 509.992C326.098 509.886 326.042 509.768 325.97 509.616C325.912 509.494 325.851 509.364 325.787 509.226C325.717 509.073 325.657 508.941 325.603 508.819C325.53 508.657 325.466 508.511 325.408 508.376L325.259 508.021L325.073 507.568C325 507.386 324.958 507.281 324.919 507.181C324.864 507.04 324.805 506.884 324.732 506.688C324.668 506.516 324.642 506.447 324.613 506.368C324.566 506.238 324.516 506.095 324.441 505.879C324.384 505.714 324.348 505.608 324.315 505.511C324.279 505.403 324.243 505.289 324.18 505.093C324.102 504.851 324.075 504.767 324.042 504.661L323.897 504.172C323.833 503.951 323.814 503.889 323.788 503.799C323.75 503.663 323.71 503.513 323.662 503.335C323.616 503.162 323.588 503.058 323.562 502.96C323.53 502.832 323.499 502.701 323.439 502.455C323.362 502.132 323.376 502.203 323.353 502.1C323.32 501.957 323.29 501.815 323.229 501.534C323.218 501.481 323.208 501.433 323.199 501.395C323.195 501.375 323.191 501.357 323.188 501.342C323.184 501.325 323.181 501.312 323.178 501.3L323.166 501.243C323.134 501.088 323.101 500.916 323.057 500.682C323 500.385 323.01 500.445 322.993 500.351C322.969 500.214 322.949 500.092 322.9 499.798C322.852 499.505 322.86 499.561 322.846 499.468C322.821 499.31 322.797 499.137 322.76 498.87C322.751 498.808 322.743 498.752 322.736 498.708C322.731 498.672 322.724 498.618 322.722 498.602L322.716 498.562C322.7 498.441 322.692 498.365 322.657 498.062C322.618 497.728 322.624 497.795 322.612 497.688C322.596 497.535 322.583 497.378 322.557 497.082C322.537 496.864 322.52 496.657 322.505 496.459L322.467 495.89L322.426 494.963C322.416 494.661 322.411 494.36 322.409 494.059C322.406 493.551 322.414 493.029 322.434 492.489C322.435 492.444 322.437 492.404 322.438 492.374C322.438 492.348 322.439 492.315 322.439 492.304C322.441 492.267 322.44 492.278 322.439 492.302L322.464 491.838C322.478 491.581 322.482 491.491 322.489 491.38C322.497 491.265 322.502 491.222 322.527 490.91C322.556 490.556 322.547 490.633 322.557 490.521C322.568 490.393 322.582 490.273 322.61 490C322.64 489.716 322.638 489.718 322.649 489.622C322.665 489.49 322.682 489.363 322.717 489.095C322.747 488.862 322.749 488.839 322.761 488.756C322.779 488.627 322.8 488.488 322.835 488.263C322.873 488.019 322.883 487.946 322.899 487.845L322.971 487.44C323.007 487.236 323.033 487.091 323.058 486.96C323.079 486.846 323.105 486.72 323.143 486.536C323.185 486.33 323.206 486.222 323.229 486.116L323.328 485.677C323.377 485.464 323.406 485.335 323.436 485.215C323.456 485.131 323.468 485.084 323.521 484.871C323.576 484.653 323.617 484.496 323.655 484.354C323.688 484.231 323.724 484.098 323.767 483.947C323.804 483.813 323.842 483.682 323.879 483.556C323.927 483.392 323.977 483.222 324.032 483.044L324.133 482.721L324.289 482.24C324.343 482.08 324.389 481.942 324.433 481.816C324.471 481.706 324.514 481.586 324.563 481.447L324.736 480.978C324.789 480.837 324.833 480.719 324.874 480.612C324.928 480.472 324.989 480.319 325.061 480.141C325.129 479.97 325.166 479.879 325.202 479.791C325.255 479.664 325.314 479.524 325.394 479.34L325.563 478.948C325.617 478.828 325.676 478.697 325.745 478.545L325.931 478.146C325.986 478.028 326.049 477.897 326.132 477.728C326.207 477.573 326.263 477.458 326.314 477.355C326.375 477.235 326.443 477.102 326.528 476.938C326.607 476.786 326.672 476.662 326.732 476.549L326.946 476.153L326.947 476.154C327.042 475.981 327.096 475.882 327.148 475.789C327.209 475.681 327.272 475.573 327.392 475.367C327.496 475.187 327.549 475.096 327.604 475.005C327.666 474.9 327.734 474.787 327.841 474.613L328.063 474.251L328.343 473.818L328.429 473.684C328.441 473.665 328.453 473.647 328.463 473.632C328.473 473.616 328.482 473.602 328.49 473.589C328.507 473.563 328.518 473.545 328.526 473.532C328.534 473.521 328.537 473.516 328.537 473.516L328.87 473.025C328.9 472.981 328.928 472.941 328.95 472.908C328.961 472.892 328.973 472.876 328.981 472.863C328.991 472.849 328.998 472.838 329.006 472.827C329.031 472.789 329.04 472.776 329.042 472.773C329.111 472.675 329.172 472.589 329.326 472.374L329.327 472.375C329.515 472.114 329.515 472.111 329.58 472.022C329.581 472.021 329.592 472.006 329.625 471.962C329.634 471.95 329.644 471.937 329.656 471.921C329.667 471.906 329.681 471.888 329.694 471.87C329.722 471.834 329.757 471.788 329.794 471.738C329.962 471.514 330.04 471.411 330.123 471.303C330.196 471.208 330.228 471.17 330.429 470.918C330.624 470.672 330.604 470.695 330.669 470.614C330.796 470.458 330.939 470.288 331.122 470.071C331.565 469.546 332.009 469.046 332.456 468.571C332.461 468.566 332.466 468.56 332.472 468.555C332.75 468.258 333.052 467.95 333.384 467.62C333.609 467.396 333.651 467.352 333.738 467.268C333.812 467.196 333.82 467.192 334.037 466.986C334.262 466.774 334.294 466.741 334.378 466.664C334.47 466.58 334.467 466.584 334.743 466.337C334.975 466.129 334.977 466.126 335.057 466.057C335.146 465.979 335.193 465.94 335.428 465.739C335.476 465.698 335.522 465.66 335.558 465.629C335.575 465.614 335.593 465.598 335.607 465.585C335.623 465.571 335.637 465.561 335.649 465.55L335.718 465.491C335.721 465.489 335.722 465.487 335.722 465.487C335.816 465.409 335.884 465.356 336.115 465.168C336.314 465.007 336.359 464.969 336.438 464.907C336.514 464.846 336.564 464.809 336.758 464.659C336.963 464.5 337.042 464.438 337.136 464.367C337.227 464.299 337.313 464.236 337.506 464.095C337.674 463.971 337.75 463.915 337.831 463.856C337.938 463.78 338.056 463.698 338.232 463.575C338.389 463.466 338.483 463.4 338.572 463.34C338.682 463.265 338.801 463.185 338.938 463.095C339.092 462.992 339.214 462.912 339.325 462.841C339.42 462.78 339.51 462.723 339.71 462.598C339.874 462.495 339.962 462.44 340.048 462.388C340.178 462.308 340.321 462.222 340.487 462.123C340.627 462.04 340.722 461.984 340.81 461.934C340.931 461.863 341.066 461.788 341.254 461.683C341.428 461.585 341.505 461.541 341.588 461.495L341.998 461.275C342.149 461.195 342.277 461.128 342.395 461.067C342.514 461.006 342.642 460.941 342.785 460.869L343.176 460.677C343.309 460.612 343.446 460.547 343.587 460.48C343.728 460.414 343.86 460.352 343.986 460.295C344.116 460.236 344.25 460.176 344.388 460.115C344.516 460.059 344.65 460 344.793 459.939C344.941 459.876 345.075 459.82 345.199 459.769C345.317 459.72 345.448 459.667 345.63 459.595C345.824 459.518 345.93 459.475 346.033 459.436C346.137 459.396 346.251 459.353 346.421 459.29C346.577 459.232 346.724 459.178 346.864 459.128C346.995 459.081 347.14 459.032 347.314 458.972C347.496 458.909 347.585 458.879 347.676 458.849C347.802 458.807 347.942 458.762 348.149 458.696C348.32 458.642 348.438 458.605 348.545 458.572C348.661 458.537 348.791 458.499 348.949 458.453C349.149 458.395 349.291 458.354 349.419 458.318C349.53 458.288 349.653 458.255 349.817 458.211C350.016 458.158 350.137 458.126 350.25 458.098C350.369 458.068 350.48 458.042 350.73 457.982C350.967 457.926 351.025 457.911 351.12 457.89C351.244 457.862 351.358 457.838 351.619 457.782C351.879 457.727 351.891 457.723 351.982 457.705C352.112 457.679 352.253 457.652 352.475 457.61C352.75 457.559 352.775 457.554 352.874 457.536C352.984 457.517 353.056 457.506 353.329 457.461C353.592 457.418 353.657 457.407 353.763 457.391C353.851 457.377 353.858 457.377 354.114 457.341C354.379 457.303 354.528 457.283 354.671 457.265C354.779 457.251 354.681 457.265 355.025 457.225C355.362 457.185 355.398 457.18 355.521 457.167C355.72 457.147 355.942 457.127 356.249 457.102C356.302 457.097 356.349 457.094 356.382 457.091C356.412 457.088 356.445 457.085 356.455 457.084L356.457 457.083C356.709 457.064 356.969 457.047 357.235 457.032C357.586 457.013 357.921 456.998 358.244 456.989C358.551 456.981 358.856 456.976 359.16 456.975C360.076 456.971 360.988 457.002 361.895 457.066C362.188 457.087 362.49 457.113 362.801 457.143C363.404 457.2 364.004 457.273 364.601 457.36C364.906 457.405 365.204 457.451 365.494 457.501C366.091 457.603 366.683 457.72 367.268 457.85C367.854 457.98 368.437 458.124 369.018 458.283C370.175 458.6 371.317 458.974 372.439 459.403C372.723 459.512 373.002 459.623 373.276 459.735C374.109 460.077 374.929 460.45 375.734 460.853C376.808 461.389 377.857 461.978 378.876 462.619C379.642 463.101 380.389 463.61 381.117 464.147C381.354 464.322 381.594 464.505 381.839 464.695C382.794 465.438 383.717 466.231 384.601 467.071C384.803 467.263 385.012 467.445 385.227 467.617L446.246 525.155C449.15 527.893 453.404 528.643 457.068 527.062C460.733 525.48 463.106 521.871 463.106 517.88V157.731L463.112 157.074C463.169 153.803 463.65 150.651 464.497 147.663L464.773 146.738C464.862 146.455 464.951 146.179 465.042 145.91C465.137 145.63 465.237 145.347 465.342 145.062C465.549 144.497 465.769 143.939 466.001 143.391C466.113 143.126 466.233 142.854 466.361 142.571L466.68 141.887C467.007 141.203 467.359 140.524 467.735 139.85C468.404 138.65 469.129 137.5 469.907 136.407C470.082 136.162 470.256 135.923 470.431 135.69C470.962 134.981 471.519 134.289 472.1 133.62C472.293 133.397 472.489 133.176 472.688 132.958C477.862 127.272 484.772 123.224 492.555 121.633C493.751 121.388 494.972 121.201 496.215 121.075C497.458 120.949 498.72 120.884 499.998 120.884Z" fill="#000813"/>
</g>
<defs>
<clipPath id="clip0_347_117">
<rect width="1000" height="970" fill="white" transform="translate(0 0.883789)"/>
</clipPath>
</defs>
</svg>
