<svg width="1000" height="768" viewBox="0 0 1000 768" fill="none" xmlns="http://www.w3.org/2000/svg">
<g clip-path="url(#clip0_320_608)">
<path d="M1000 192.707C1000 86.8962 913.449 0.344727 807.638 0.344727H192.363C86.5515 0.344727 0 86.8962 0 192.707V574.602C0 680.413 86.5515 766.965 192.363 766.965H807.638C913.449 766.965 1000 680.413 1000 574.602V192.707Z" fill="#986DF8"/>
<path d="M192.362 128.867C157.637 128.867 128.713 157.792 128.713 192.516V574.412C128.713 609.137 157.637 638.061 192.362 638.061H807.638C842.363 638.061 871.287 609.137 871.287 574.412V192.516C871.287 157.792 842.363 128.867 807.638 128.867H192.362ZM192.362 192.516H807.638V574.412H192.362V192.516ZM721.775 234.286C714.233 234.659 707.065 237.726 701.554 242.905L514.255 410.642C509.78 414.662 489.848 414.62 485.414 410.642L298.444 242.905C292.146 237.145 283.775 234.162 275.239 234.618C262.352 235.322 251.163 243.776 246.936 256C242.709 268.223 246.314 281.774 256.011 290.311L364.087 387.111L257.008 475.291C243.375 486.48 241.344 506.577 252.533 520.211C263.721 533.844 283.819 535.875 297.452 524.686L412.148 430.207L442.978 458.054C475.88 487.6 523.782 487.516 556.687 458.054L587.849 430.207L702.544 524.686C716.178 535.875 736.275 533.844 747.464 520.211C758.652 506.578 756.622 486.48 742.988 475.291L635.909 387.111L743.986 290.311C754.345 281.484 757.95 267.023 752.936 254.343C747.922 241.663 735.367 233.623 721.775 234.286Z" fill="#000813"/>
</g>
<defs>
<clipPath id="clip0_320_608">
<rect width="1000" height="767" fill="white" transform="translate(0 0.154297)"/>
</clipPath>
</defs>
</svg>
