<svg width="1000" height="976" viewBox="0 0 1000 976" fill="none" xmlns="http://www.w3.org/2000/svg">
<g clip-path="url(#clip0_344_382)">
<path d="M662.381 0.884766L705.729 130.09L837.976 102.626L907.057 223.81L931.139 265.92L1000 384.397L910.63 486.262V488.921L999.739 590.489L931.436 710.307L931.396 710.378L931.355 710.45L907.056 752.939L906.96 753.108L906.862 753.276L837.276 874.039L705.501 846.669L662.763 975.865H337.358L294.009 846.657L161.764 874.126L92.6821 752.939L68.3831 710.45L68.2522 710.222L68.1232 709.993L0.416071 590.378L88.8715 489.559V487.556L0 386.263L68.3026 266.443L68.3841 266.3L92.6831 223.81L92.877 223.472L162.462 102.713L294.238 130.078L336.976 0.884766H662.381Z" fill="#986DF8"/>
<path d="M576.79 120.062L593.684 170.417L595.013 174.446C601.894 197.274 617.034 216.6 637.393 228.59H637.441C642.756 231.419 648.119 234.584 653.34 237.798C667.576 246.43 683.949 250.891 700.607 250.699C707.725 250.699 714.844 249.931 721.868 248.492L725.997 247.629L777.489 236.935L803.733 282.974L828.032 325.464L854.038 370.207L819.157 409.965L816.594 412.89C799.604 433.464 790.682 459.696 791.584 486.552V488.375C790.683 515.183 799.605 541.416 816.594 562.038L819.395 565.49L854.276 605.248L828.031 651.286L803.732 693.776L777.204 739.815L725.712 729.121L721.583 728.258C714.607 726.819 707.488 726.051 700.322 726.051C683.711 725.86 667.339 730.32 653.102 738.952H653.054C647.834 742.165 642.518 745.235 637.155 748.16C616.796 760.15 601.657 779.477 594.775 802.305L593.447 806.334L576.789 856.689H423.21L406.316 806.334L404.988 802.305C398.106 779.477 382.967 760.15 362.607 748.16H362.56C357.245 745.331 351.881 742.165 346.661 738.952C332.425 730.32 316.051 725.859 299.394 726.051C292.275 726.051 285.156 726.819 278.132 728.258L274.004 729.121L222.512 739.815L196.267 693.776L171.968 651.286L145.962 605.343L180.843 565.586L183.169 563.381C200.159 542.759 209.081 516.574 208.179 489.718V487.895C209.08 461.039 200.158 434.855 183.169 414.233V414.185L180.606 411.26L145.725 371.503L171.969 325.464L196.268 282.974L222.797 236.935L274.289 247.629L278.417 248.492C285.394 249.931 292.513 250.699 299.679 250.699C316.289 250.89 332.661 246.43 346.899 237.798H346.946C352.166 234.584 357.482 231.515 362.845 228.59C383.204 216.6 398.344 197.274 405.225 174.446L406.554 170.417L423.211 120.062H576.79ZM475.699 193.725L474.607 197.513C461.888 238.229 434.316 272.471 397.441 293.284V293.332C393.217 295.442 389.183 297.744 385.292 300.19C359.711 315.92 330.241 324.216 300.247 324.12C288.003 324.12 275.806 322.922 263.8 320.428L259.671 319.565L235.372 362.055L237.935 364.98C266.884 399.077 282.356 442.814 281.312 487.751V488.374L281.074 488.759C282.117 533.695 266.647 577.384 237.698 611.529L235.135 614.455L259.433 656.945L263.562 656.081C275.569 653.588 287.766 652.34 300.01 652.388C330.003 652.292 359.474 660.589 385.054 676.319V676.367C389.088 678.717 393.17 681.019 397.203 683.225C434.079 704.038 461.652 738.28 474.371 778.996L475.699 783.024H524.296L525.625 779.571C538.344 738.903 565.917 704.661 602.792 683.848V683.8C607.016 681.69 611.049 679.388 614.941 676.942C640.521 661.164 669.991 652.916 699.985 653.012C712.229 652.964 724.427 654.21 736.434 656.704V656.656L740.562 657.52L764.86 615.03L762.298 612.105C733.349 578.008 717.878 534.27 718.922 489.334V487.99C717.878 443.054 733.349 399.365 762.298 365.22L764.86 362.294L740.562 319.804L736.434 320.668C724.427 323.161 712.229 324.409 699.985 324.361C669.991 324.457 640.521 316.16 614.941 300.43V300.382C610.907 298.032 606.826 295.73 602.792 293.524C565.917 272.711 538.344 238.469 525.625 197.753L524.296 193.725H475.699ZM453.506 374.961C498.917 355.97 551.169 366.472 585.909 401.578C620.648 436.676 631.042 489.478 612.248 535.373C593.455 581.221 549.129 611.147 500.01 611.147C467.787 611.147 436.896 598.203 414.116 575.183C391.336 552.164 378.523 520.943 378.523 488.38C378.523 438.744 408.136 393.952 453.506 374.961ZM500.01 439.267C473.149 439.267 451.412 461.233 451.412 488.376C451.412 508.231 463.23 526.166 481.406 533.744C499.582 541.369 520.464 537.15 534.369 523.098C548.274 509.045 552.451 487.944 544.905 469.577C537.406 451.208 519.658 439.267 500.01 439.267Z" fill="#000813"/>
</g>
<defs>
<clipPath id="clip0_344_382">
<rect width="1000" height="974.98" fill="white" transform="translate(0 0.884766)"/>
</clipPath>
</defs>
</svg>
