<svg width="1000" height="937" viewBox="0 0 1000 937" fill="none" xmlns="http://www.w3.org/2000/svg">
<g clip-path="url(#clip0_278_322)">
<path d="M869.64 181.525C781.699 68.2152 646.665 1.55957 503.388 0.524439L500 0.511719C355.514 0.511758 219.084 67.2806 130.45 181.41C130.377 181.503 130.303 181.595 130.231 181.689C102.241 217.817 90.0143 263.806 96.5711 309.229C96.6281 309.634 96.6872 310.039 96.7482 310.444C96.7549 310.488 96.7621 310.532 96.7688 310.576C96.7784 310.639 96.7874 310.703 96.7972 310.766L96.7991 310.765C99.2661 326.898 104.013 342.404 110.77 356.884C103.712 381.029 98.9182 405.815 96.4762 430.924C80.0086 443.622 65.1073 458.418 52.1912 475.031C18.547 518.296 0.242514 571.443 0.0009785 626.119C0.000196815 626.296 0 626.473 0 626.65V689.715C0.000401844 755.447 26.1405 818.47 72.5881 864.91L73.6801 865.994C120.002 911.737 182.541 937.484 247.77 937.484H310.836H689.174H752.23L753.77 937.479C818.946 937.074 881.35 910.981 927.428 864.895C973.85 818.465 1000 755.454 1000 689.715V626.65C1000 626.473 1000 626.295 999.999 626.118C999.757 571.443 981.454 518.296 947.808 475.03C947.751 474.956 947.693 474.884 947.635 474.811C934.76 458.288 919.919 443.567 903.524 430.925C901.082 405.816 896.288 381.029 889.23 356.883C895.987 342.402 900.733 326.897 903.2 310.766L903.202 310.767C903.212 310.703 903.221 310.639 903.23 310.576C903.237 310.531 903.245 310.486 903.252 310.441L903.25 310.44C910.201 264.631 898.012 218.143 869.769 181.689C869.727 181.634 869.683 181.579 869.64 181.525Z" fill="#986DF8"/>
<path d="M500 142.018C607.431 142.018 708.868 191.697 774.718 276.595L774.719 276.596C782.9 287.155 786.389 300.569 784.36 313.763C782.331 327.204 774.882 339.187 763.758 346.984L763.753 346.987L750.762 356.019C773.199 397.229 785.024 443.36 785.177 490.279L785.178 490.283V525.21C812.048 532.383 835.835 548.167 852.891 570.109H852.892C870.204 592.371 879.637 619.74 879.762 647.918V710.981C879.762 744.792 866.308 777.237 842.399 801.149C818.49 825.062 786.045 838.513 752.23 838.513H689.175C680.422 838.513 672.055 835.037 665.877 828.859C659.699 822.681 656.224 814.314 656.224 805.561V553.336C656.224 535.124 670.962 520.385 689.175 520.385H719.279V490.281C719.249 456.76 711.435 423.715 696.536 393.734L686.225 401.244L686.209 401.256C665.49 415.914 636.909 411.73 621.228 391.787L620.53 390.936C590.875 355.058 546.749 334.272 500.159 334.272C453.232 334.272 408.747 355.387 379.09 391.787C369.924 403.139 356.16 409.765 341.575 409.892H341.563C331.853 409.892 322.365 406.878 314.43 401.264L303.491 393.698C288.581 423.692 280.76 456.75 280.73 490.281V520.385H310.836C319.588 520.385 327.956 523.861 334.134 530.039C340.311 536.217 343.787 544.584 343.787 553.336V805.561C343.787 814.314 340.311 822.681 334.134 828.859C327.956 835.037 319.588 838.513 310.836 838.513H247.77C213.959 838.513 181.515 825.057 157.602 801.149C133.69 777.24 120.239 744.796 120.238 710.981V647.918C120.363 619.741 129.797 592.372 147.109 570.109C164.165 548.167 187.953 532.383 214.823 525.21V490.279C214.977 443.357 226.8 397.231 249.238 356.019L236.247 346.987L236.244 346.984C225.119 339.187 217.668 327.205 215.639 313.764V313.763C213.611 300.569 217.101 287.155 225.281 276.596L225.282 276.595C291.131 191.699 392.57 142.018 500 142.018ZM333.127 827.852C332.942 828.037 332.756 828.22 332.567 828.399L333.127 827.853C333.218 827.762 333.306 827.668 333.396 827.576C333.306 827.668 333.218 827.761 333.127 827.852ZM156.436 797.916C157.15 798.666 157.874 799.409 158.608 800.143C159.521 801.055 160.446 801.952 161.383 802.833L159.986 801.499C159.524 801.051 159.065 800.598 158.608 800.142C157.874 799.408 157.15 798.666 156.436 797.916ZM842.475 799.046C842.117 799.414 841.756 799.779 841.392 800.142C840.796 800.738 840.193 801.326 839.586 801.909C839.816 801.688 840.049 801.468 840.278 801.244L841.392 800.143C841.756 799.78 842.117 799.414 842.475 799.046ZM247.779 586.287C213.742 586.287 186.146 613.884 186.146 647.921V710.977C186.147 745.014 213.742 772.61 247.779 772.61H277.885V586.287H247.779ZM722.126 772.61H752.23C768.57 772.61 784.25 766.109 795.807 754.553C807.363 742.997 813.864 727.318 813.864 710.977V647.921C813.864 631.581 807.363 615.901 795.807 604.344C784.25 592.788 768.571 586.287 752.23 586.287H722.126V772.61ZM795.71 756.635C795.228 757.094 794.738 757.544 794.243 757.987C794.732 757.55 795.216 757.106 795.692 756.653L795.71 756.635ZM878.3 714.103C878.313 713.584 878.323 713.066 878.33 712.547V712.543C878.323 713.063 878.313 713.583 878.3 714.103ZM184.723 647.921V710.976L184.724 710.977V647.921C184.724 647.484 184.728 647.049 184.737 646.615L184.723 647.921ZM813.741 634.055C813.854 634.556 813.962 635.059 814.063 635.564L813.907 634.808C813.854 634.556 813.797 634.305 813.741 634.055ZM810.434 623.679C810.377 623.542 810.319 623.404 810.26 623.267C810.319 623.404 810.377 623.542 810.434 623.679ZM810.088 622.866C810.023 622.717 809.958 622.567 809.892 622.417C809.958 622.567 810.023 622.716 810.088 622.866ZM809.561 621.679C809.487 621.519 809.412 621.36 809.337 621.201C809.412 621.36 809.487 621.519 809.561 621.679ZM809.177 620.86C809.11 620.719 809.043 620.578 808.974 620.438C809.043 620.578 809.11 620.719 809.177 620.86ZM808.564 619.605C808.446 619.37 808.326 619.136 808.204 618.902C808.325 619.134 808.444 619.366 808.562 619.599C808.562 619.601 808.563 619.603 808.564 619.605ZM808.195 618.883C808.129 618.757 808.063 618.632 807.997 618.507C808.063 618.632 808.129 618.757 808.195 618.883ZM807.721 617.989C807.666 617.887 807.612 617.785 807.557 617.684C807.612 617.785 807.666 617.887 807.721 617.989ZM804.983 613.393C805.167 613.673 805.349 613.953 805.528 614.236L805.112 613.586C805.07 613.521 805.026 613.457 804.983 613.393ZM804.549 612.737C804.503 612.668 804.456 612.6 804.41 612.531C804.456 612.6 804.503 612.668 804.549 612.737ZM801.489 608.567C801.812 608.971 802.13 609.379 802.443 609.791L801.97 609.175C801.653 608.767 801.329 608.363 801.001 607.963C801.165 608.163 801.327 608.364 801.489 608.567ZM341.563 408.468C341.432 408.468 341.301 408.465 341.169 408.464C341.301 408.465 341.432 408.469 341.563 408.469C341.895 408.466 342.227 408.46 342.558 408.45L341.563 408.468ZM340.681 408.46C340.74 408.461 340.8 408.46 340.859 408.461C340.692 408.459 340.525 408.455 340.358 408.451C340.466 408.453 340.573 408.458 340.681 408.46ZM339.649 408.426C339.817 408.433 339.986 408.439 340.154 408.445C339.986 408.439 339.817 408.433 339.649 408.426ZM346.586 408.158C346.71 408.144 346.833 408.127 346.956 408.112C346.833 408.127 346.71 408.144 346.586 408.158ZM347.669 408.019C347.791 408.002 347.912 407.985 348.033 407.967C347.912 407.985 347.791 408.002 347.669 408.019ZM348.743 407.858C348.877 407.836 349.011 407.813 349.145 407.79C349.011 407.813 348.877 407.836 348.743 407.858ZM683.686 401.239C683.938 401.077 684.19 400.915 684.439 400.748L684.541 400.677C684.257 400.868 683.972 401.055 683.686 401.239ZM685.387 400.094L697.057 391.597C697.298 392.074 697.539 392.552 697.777 393.031C697.539 392.552 697.298 392.073 697.057 391.596L685.387 400.094ZM436.478 346.288H436.479H436.478ZM661.492 339.815V339.814C661.167 339.464 660.841 339.116 660.513 338.769C660.411 338.66 660.308 338.553 660.206 338.445C660.637 338.899 661.065 339.356 661.492 339.815ZM660.057 338.288C659.66 337.87 659.262 337.453 658.862 337.038C659.262 337.453 659.66 337.87 660.057 338.288ZM500.004 207.949C419.23 208.255 342.442 242.942 288.754 303.235L311.644 319.34L338.771 337.95C380.67 293.449 439.085 268.161 500.25 268.161C561.381 268.161 619.818 293.446 661.689 337.942L688.358 319.342L711.251 303.235C657.566 242.94 580.779 208.255 500.004 207.949ZM658.668 336.837C658.315 336.471 657.961 336.107 657.605 335.744C657.961 336.107 658.315 336.471 658.668 336.837ZM657.12 335.251C656.885 335.013 656.65 334.775 656.414 334.538C656.65 334.775 656.885 335.013 657.12 335.251ZM655.842 333.964C655.571 333.694 655.299 333.425 655.027 333.156C655.299 333.425 655.571 333.694 655.842 333.964ZM654.546 332.679C654.238 332.378 653.93 332.078 653.621 331.778C653.93 332.078 654.238 332.378 654.546 332.679ZM653.198 331.369C652.905 331.086 652.611 330.806 652.317 330.525C652.611 330.806 652.905 331.086 653.198 331.369ZM651.821 330.05C651.377 329.629 650.932 329.21 650.485 328.793C650.932 329.21 651.378 329.629 651.821 330.05ZM370.862 311.598C370.481 311.874 370.101 312.151 369.722 312.43L370.863 311.598C371.244 311.321 371.625 311.046 372.008 310.772L370.862 311.598ZM216.636 310.002C216.639 310.036 216.642 310.069 216.645 310.103C216.641 310.051 216.636 309.998 216.632 309.946L216.636 310.002ZM480.293 270.489L480.292 270.49C480.764 270.447 481.237 270.405 481.709 270.366V270.365C481.237 270.404 480.765 270.446 480.293 270.489ZM247.453 252.805C247.248 253.025 247.044 253.246 246.839 253.466C247.173 253.108 247.507 252.75 247.842 252.393L247.453 252.805ZM622.173 234.495C622.736 234.764 623.299 235.035 623.861 235.309C622.738 234.762 621.611 234.223 620.481 233.691L622.173 234.495ZM289.494 214.771V214.772C290.143 214.274 290.795 213.779 291.449 213.287V213.286C290.795 213.778 290.143 214.273 289.494 214.771ZM465.182 208.789C464.985 208.814 464.788 208.839 464.59 208.865C464.788 208.839 464.985 208.814 465.182 208.789ZM470.874 208.127C470.655 208.15 470.436 208.174 470.217 208.197C470.436 208.174 470.655 208.15 470.874 208.127ZM673.883 190.266C674.588 190.676 675.291 191.087 675.993 191.501C674.589 190.673 673.179 189.854 671.763 189.045L673.883 190.266ZM808.693 619.863C808.65 619.777 808.608 619.691 808.564 619.605C808.608 619.691 808.65 619.777 808.693 619.863Z" fill="#000813"/>
</g>
<defs>
<clipPath id="clip0_278_322">
<rect width="1000" height="936" fill="white" transform="translate(0 0.511719)"/>
</clipPath>
</defs>
</svg>
