<svg width="1000" height="1011" viewBox="0 0 1000 1011" fill="none" xmlns="http://www.w3.org/2000/svg">
<g clip-path="url(#clip0_320_658)">
<path d="M281.243 0.154297L283.316 0.166992C347.151 0.974034 402.451 38.9559 427.779 93.9043H572.25C597.727 38.6389 653.562 0.154365 718.761 0.154297C786.792 0.154297 845.274 42.3248 868.863 102.329C947.636 126.452 1005 199.683 1005 286.541V817.518L1005 818.765C1004.33 924.211 918.978 1009.48 813.58 1010.15L812.334 1010.15H187.666C81.3595 1010.15 -4.99982 924.091 -5 817.518V286.541C-5 199.773 52.3397 126.458 131.166 102.323C154.661 42.6151 212.757 0.154297 281.241 0.154297H281.243Z" fill="#986DF8"/>
<path d="M718.761 130.154C736.017 130.154 749.991 144.012 749.991 161.385L749.99 223.904H812.334C846.963 223.904 875 251.883 875 286.541V817.518C875 852.117 846.963 880.154 812.334 880.154H187.666C153.037 880.154 125 852.176 125 817.518V286.541C125 251.941 153.037 223.904 187.666 223.904H250.01V161.385C250.01 144.129 263.868 130.154 281.241 130.154C298.497 130.155 312.501 144.012 312.501 161.385V223.904H687.501V161.385C687.501 144.129 701.359 130.154 718.761 130.154ZM640.626 817.633C737.89 817.662 812.162 817.662 812.338 817.662C812.396 817.662 812.421 749.167 812.421 661.394H640.626V817.633ZM421.865 661.394V817.603C472.959 817.632 527.037 817.632 578.135 817.632V661.393L421.865 661.394ZM187.52 661.394C187.52 748.998 187.49 817.345 187.49 817.513C187.49 817.542 261.905 817.571 359.376 817.601V661.392L187.52 661.394ZM187.579 442.664C187.55 491.589 187.55 546.494 187.521 598.903H359.376V442.664H187.579ZM421.866 598.903H578.136V442.664H421.866V598.903ZM640.626 598.903H812.45C812.45 546.491 812.479 491.564 812.479 442.664H640.626V598.903ZM187.669 286.397C187.64 286.459 187.609 324.496 187.58 380.144H812.48C812.51 324.509 812.51 286.544 812.51 286.544C812.5 286.456 187.669 286.397 187.669 286.397Z" fill="#000813"/>
</g>
<defs>
<clipPath id="clip0_320_658">
<rect width="1000" height="1010" fill="white" transform="translate(0 0.154297)"/>
</clipPath>
</defs>
</svg>
