<svg width="1000" height="850" viewBox="0 0 1000 850" fill="none" xmlns="http://www.w3.org/2000/svg">
<g clip-path="url(#clip0_320_649)">
<path d="M449.429 6.59424C510.393 -9.60666 577.543 4.02648 628.096 47.4979L628.131 47.5281L628.167 47.5582L1000.81 368.464L887.864 499.166V532.737H926.123V849.312H73.8456V532.737H112.115V499.156L-0.8125 368.458L179.076 213.544V6.59424H449.429Z" fill="#986DF8"/>
<path d="M455.577 145.911C480.65 124.35 517.719 124.35 542.793 145.911L817.072 382.108L779.549 425.529L757.463 406.476V662.482H795.722V719.878H202.624V662.482H240.893V406.469L218.814 425.529L181.297 382.108L307.854 273.122V136.34H365.25V223.695L455.577 145.911ZM505.308 188.96C501.721 185.896 496.451 185.896 492.864 188.96L298.29 356.922V662.482H393.946V509.425C393.946 483.006 415.358 461.594 441.777 461.594H556.57C569.238 461.594 581.42 466.638 590.388 475.606C599.356 484.574 604.4 496.756 604.4 509.425V662.482H700.066V356.964L505.308 188.96ZM451.343 662.482H547.004V518.99H451.343V662.482ZM470.48 337.23C470.48 298.965 527.877 298.965 527.877 337.23C527.877 375.494 470.48 375.494 470.48 337.23Z" fill="#000813"/>
</g>
<defs>
<clipPath id="clip0_320_649">
<rect width="1000" height="849" fill="white" transform="translate(0 0.154297)"/>
</clipPath>
</defs>
</svg>
