<svg width="1000" height="1026" viewBox="0 0 1000 1026" fill="none" xmlns="http://www.w3.org/2000/svg">
<g clip-path="url(#clip0_344_390)">
<path d="M999.987 868.34C998.883 955.562 927.873 1025.9 840.379 1025.9H487.416C399.235 1025.9 327.796 954.451 327.796 866.276V866.274L327.808 864.21C327.882 858.437 328.264 852.737 328.934 847.127L272.513 903.536L272.511 903.534C242.577 933.502 202.012 950.313 159.677 950.313H159.675C117.422 950.313 76.9289 933.567 47.0096 903.704L47.0077 903.706C46.9478 903.646 46.8893 903.585 46.8295 903.526L46.8285 903.527L46.7896 903.488L46.7906 903.487C46.7777 903.474 46.7654 903.461 46.7526 903.448C46.7053 903.4 46.6568 903.354 46.6095 903.307L46.6114 903.305C16.7666 873.404 0.000473127 832.922 0 790.645V790.641L0.0126553 788.653C0.530865 747.04 17.2795 707.267 46.7886 677.797L46.7867 677.796L48.8076 675.775L48.8193 675.764L200.926 523.657L187.511 510.242L186.179 508.896L185.895 508.605C105.666 426.411 106.358 294.861 187.739 213.481L339.012 62.2076C419.384 -18.15 548.589 -19.7009 630.952 57.3383L631.918 58.2485L633.098 59.366L665.257 91.5261C717.804 78.4863 775.69 92.4973 816.758 133.563L816.76 133.565C857.878 174.684 871.874 232.663 858.751 285.261L887.92 314.43L888.879 315.394C970.037 397.494 969.659 529.768 887.964 611.463L792.77 706.654H840.379C928.559 706.654 999.999 778.098 1000 866.274V866.276L999.987 868.34Z" fill="#986DF8"/>
<path d="M840.377 826.276C862.491 826.276 880.377 844.163 880.377 866.276C880.377 888.39 862.491 906.278 840.377 906.278H487.417C465.303 906.277 447.417 888.39 447.417 866.276C447.417 844.163 465.304 826.276 487.417 826.276H840.377ZM423.59 146.801C458.289 112.108 514.22 111.535 549.661 145.101L649.137 244.576L675.562 218.151C691.188 202.525 716.547 202.525 732.174 218.151C747.8 233.778 747.8 259.136 732.174 274.762L705.592 301.276L803.382 399.064C838.697 434.339 838.702 491.553 803.378 526.878L652.11 678.143C617.412 712.835 561.483 713.41 526.041 679.846L426.564 580.37L187.936 818.942C180.439 826.478 170.296 830.691 159.675 830.692C149.054 830.691 138.911 826.478 131.413 818.942L131.374 818.903C123.836 811.403 119.621 801.262 119.621 790.644C119.621 780.024 123.834 769.879 131.371 762.382L131.38 762.373L131.391 762.364L370.098 523.658L272.319 425.88L271.497 425.05C237.006 389.713 237.274 333.116 272.323 298.068L423.59 146.801ZM321.415 362.057L588.267 628.905L754.272 462.9L487.421 196.052L321.415 362.057Z" fill="#000813"/>
</g>
<defs>
<clipPath id="clip0_344_390">
<rect width="1000" height="1025.17" fill="white" transform="translate(0 0.724609)"/>
</clipPath>
</defs>
</svg>
