<svg width="1000" height="870" viewBox="0 0 1000 870" fill="none" xmlns="http://www.w3.org/2000/svg">
<g clip-path="url(#clip0_262_406)">
<path d="M844.259 0.886719C930.252 0.886719 1000 70.6343 1000 156.628V569.503C1000 655.524 930.226 725.229 844.265 725.233L411.74 725.269L244.863 841.724L244.815 841.753C218.147 860.344 186.939 869.736 155.735 869.736C137.934 869.734 120.163 866.649 103.247 860.592L79.358 850.212L65.5757 840.967C24.8779 812.073 6.10352e-05 764.992 6.10352e-05 714V156.616L0.0540921 152.594C2.19267 68.4647 71.0873 0.891792 155.729 0.886719H844.259Z" fill="#986DF8"/>
<path d="M844.259 132.413C862.349 132.413 877.05 147.114 877.05 165.204V578.079C877.05 596.169 862.349 610.864 844.259 610.864L373.084 610.9L174.502 749.471C168.899 753.378 162.331 755.361 155.735 755.361C150.549 755.36 145.332 754.115 140.595 751.651C129.741 745.983 122.951 734.807 122.951 722.576V165.198C122.952 147.109 137.647 132.414 155.735 132.413H844.259ZM188.526 659.72L344.039 551.183C349.546 547.374 356.077 545.289 362.8 545.288H811.474V197.983H188.526V659.72ZM342.022 332.784C407.596 332.784 407.596 431.145 342.022 431.145C276.451 431.143 276.451 332.786 342.022 332.784ZM499.997 332.784C565.571 332.784 565.571 431.145 499.997 431.145C434.425 431.143 434.425 332.786 499.997 332.784ZM657.978 332.784C723.547 332.787 723.547 431.142 657.978 431.145C592.404 431.145 592.404 332.784 657.978 332.784Z" fill="#000813"/>
</g>
<defs>
<clipPath id="clip0_262_406">
<rect width="1000" height="869" fill="white" transform="translate(0 0.886719)"/>
</clipPath>
</defs>
</svg>
