<svg width="1000" height="1001" viewBox="0 0 1000 1001" fill="none" xmlns="http://www.w3.org/2000/svg">
<g clip-path="url(#clip0_344_410)">
<path d="M360.703 0.314453C360.931 0.314644 449.728 0.388857 538.729 0.524526C583.221 0.592347 627.816 0.675773 661.435 0.773063C678.227 0.821657 692.378 0.873683 702.435 0.929878C707.432 0.957796 711.598 0.987871 714.63 1.02061C716.091 1.03639 717.617 1.05631 718.95 1.08373C719.536 1.0958 720.643 1.12018 721.894 1.16757C722.307 1.1832 723.2 1.21859 724.355 1.28394C982.485 13.2022 1087.93 321.921 915.203 494.417L915.202 494.416L848.767 560.778C849.853 560.771 850.549 560.765 850.794 560.765H850.798C932.975 560.765 1000.04 627.348 999.999 709.966L1000 780.518C999.999 827.175 978.152 871.377 940.577 899.672L940.578 899.673C853.436 965.309 749.096 1000.13 639.97 1000.13H639.758C639.518 1000.13 550.265 999.976 460.703 999.705C415.939 999.569 371 999.404 337.038 999.215C320.089 999.121 305.697 999.02 295.378 998.912C290.274 998.858 285.843 998.8 282.493 998.733C280.908 998.701 278.999 998.657 277.182 998.589C276.391 998.56 274.72 998.494 272.749 998.363C272.424 998.342 271.94 998.306 271.332 998.259C23.723 982.642 -91.3849 681.893 85.3689 505.369L183.538 407.309C139.808 390.736 98.3369 367.914 60.1581 339.181L60.1572 339.182C28.2145 315.207 9.13607 281.661 2.8595 246.236L1.14034 218.297L2.86345 193.642C9.14406 158.207 28.2122 124.666 60.022 100.72L60.025 100.717C147.154 35.1356 251.479 0.314453 360.602 0.314453H360.703Z" fill="#986DF8"/>
<path d="M360.456 121.506C360.9 121.506 715.506 121.802 717.511 122.295C867.027 128.405 930.872 307.345 829.417 408.665L555.436 682.351L653.86 682.877C691.206 682.877 691.206 738.896 653.86 738.896H636.832C662.802 767.825 709.945 749.021 709.945 710.887C709.945 695.403 722.504 682.877 737.987 682.877C737.987 682.877 848.177 681.957 850.651 681.957C866.135 681.957 878.695 694.515 878.662 709.966V780.516C878.662 789.292 874.553 797.576 867.518 802.869C801.436 852.642 722.702 878.942 639.824 878.942C639.367 878.941 283.067 878.317 280.27 877.397C135.292 869.343 67.9608 693.888 170.862 591.121L444.187 318.098C444.021 318.098 362.176 318.328 360.456 318.328C277.542 318.328 198.84 292.028 132.761 242.255C117.869 231.078 117.869 208.755 132.761 197.545C198.843 147.805 277.578 121.506 360.456 121.506ZM499.353 738.371L414.697 822.926H639.824C705.805 822.926 768.729 803.332 822.61 766.183L822.643 738.896H761.956C734.503 830.719 601.626 833.74 573.683 738.371H499.353ZM789.78 369.052C896.982 261.98 735.992 105.86 631.121 210.597L210.518 630.738C173.665 667.591 168.011 723.805 193.324 766.773L232.413 727.718C258.219 701.912 297.898 741.525 272.059 767.331L232.971 806.387C272.854 829.826 329.989 828.346 369.175 789.193L789.78 369.052ZM725.333 235.358C751.862 208.794 791.575 248.409 764.979 274.972L750.088 289.831L764.947 304.69C792.2 331.91 749.825 368.796 725.3 344.304L710.441 329.445L695.581 344.304C670.991 368.828 629.011 331.615 655.902 304.69L670.794 289.831L655.968 274.972C630.029 249.066 669.677 209.452 695.615 235.358L710.474 250.216L725.333 235.358ZM360.456 177.528C303.514 177.528 248.908 192.092 200.385 219.937C248.911 247.782 303.517 262.345 360.456 262.345L500.304 262.083L584.961 177.528H360.456Z" fill="#000813"/>
</g>
<defs>
<clipPath id="clip0_344_410">
<rect width="1000" height="999.82" fill="white" transform="translate(0 0.314453)"/>
</clipPath>
</defs>
</svg>
