<svg width="1000" height="998" viewBox="0 0 1000 998" fill="none" xmlns="http://www.w3.org/2000/svg">
<g clip-path="url(#clip0_278_330)">
<path d="M39.1189 145.884C119.654 6.40995 298.168 -41.4119 437.661 39.0954L437.662 39.0944C520.36 86.8119 570.837 168.989 581.468 257.052L772.839 171.079C853.32 134.839 947.902 170.191 984.969 250.063L985.834 251.958L986.389 253.214L986.809 254.179C987.011 254.645 987.211 255.111 987.408 255.579C1020.99 335.517 985.183 427.843 906.343 464.18C905.877 464.397 905.41 464.613 904.941 464.824L828.744 499.058L904.839 533.247C904.854 533.253 904.868 533.26 904.883 533.266C985.584 569.475 1021.83 663.943 986.453 744.72C986.251 745.186 986.046 745.653 985.838 746.118C949.61 826.861 855.133 863.035 774.41 827.732C773.914 827.517 773.418 827.299 772.925 827.077L581.47 741.048C570.977 827.945 521.678 909.102 440.895 957.096C440.676 957.226 440.457 957.356 440.237 957.485L438.326 958.604C438.111 958.73 437.895 958.855 437.678 958.98C298.213 1039.48 119.678 991.742 39.1179 852.198L38.1822 850.564C-28.3898 733.568 -5.13934 589.656 86.3804 499.047C-5.58182 408.013 -28.5899 263.144 39.1189 145.884ZM14.6649 792.586L14.6639 792.582C14.6633 792.58 14.6611 792.575 14.659 792.569C14.662 792.578 14.6642 792.584 14.6649 792.586ZM212.811 12.5565C212.787 12.5633 212.769 12.5686 212.763 12.5702C212.763 12.5702 212.768 12.5692 212.771 12.5683C212.788 12.5635 212.86 12.5431 212.947 12.5183C212.982 12.5085 213.023 12.4971 213.069 12.4841C212.95 12.5175 212.858 12.5433 212.811 12.5565ZM214.034 12.2139C214.056 12.2079 214.08 12.2013 214.088 12.1992C214.095 12.1972 214.1 12.1953 214.1 12.1953C214.098 12.1961 214.073 12.2031 214.034 12.2139ZM215.905 11.701C215.892 11.7046 215.862 11.7132 215.928 11.6951C215.943 11.6909 215.968 11.6841 215.999 11.6756C215.999 11.6756 216.006 11.674 216.018 11.6707C216.023 11.6693 216.032 11.6669 216.043 11.6638L216.04 11.6648C215.974 11.6827 215.926 11.6954 215.905 11.701ZM216.531 11.5307C216.529 11.5312 216.525 11.5327 216.525 11.5327C216.562 11.5226 216.601 11.5121 216.641 11.5013C216.591 11.515 216.552 11.5251 216.531 11.5307ZM263.921 2.92782C263.868 2.93307 263.827 2.93738 263.805 2.93956L263.802 2.94054C263.808 2.93996 263.815 2.93937 263.823 2.93858C263.817 2.93919 263.811 2.93912 263.807 2.93956C263.805 2.93978 263.802 2.94033 263.8 2.94054C263.793 2.94125 263.787 2.94208 263.783 2.9425C263.787 2.94205 263.81 2.93957 263.839 2.93663C263.845 2.93606 263.851 2.93528 263.857 2.93467C263.891 2.93121 263.941 2.92692 264.001 2.92096C263.991 2.92194 263.981 2.92202 263.972 2.92292C263.988 2.92137 264.004 2.91973 264.021 2.91803C264.069 2.91326 264.127 2.90783 264.193 2.90139C264.077 2.91263 263.984 2.92149 263.921 2.92782ZM263.899 2.93075C263.883 2.93241 263.868 2.9334 263.855 2.93467C263.85 2.93521 263.844 2.93612 263.839 2.93663C263.833 2.93722 263.828 2.93806 263.823 2.93858C263.841 2.93669 263.868 2.93389 263.899 2.93075ZM267.111 2.63711C267.061 2.64156 267.023 2.64444 267.007 2.64592L267.004 2.64689C267.021 2.64531 267.149 2.63394 267.301 2.62047L267.111 2.63711ZM268.646 2.5079C268.689 2.50449 268.731 2.50246 268.774 2.49909C268.78 2.49858 268.786 2.49754 268.791 2.49713C268.815 2.49531 268.828 2.49377 268.835 2.49322C268.815 2.4948 268.744 2.50003 268.646 2.5079ZM270.394 2.3738C270.392 2.37396 270.389 2.37478 270.389 2.37478C270.402 2.37372 270.418 2.37225 270.436 2.37087C270.42 2.37206 270.406 2.37289 270.394 2.3738ZM263.921 2.92782C263.936 2.92629 263.954 2.92477 263.972 2.92292C263.945 2.92564 263.921 2.92859 263.899 2.93075C263.906 2.93003 263.913 2.92858 263.921 2.92782ZM267.538 2.60089C267.567 2.59842 267.596 2.59453 267.625 2.59208C267.501 2.60251 267.392 2.61259 267.301 2.62047C267.367 2.61465 267.447 2.60879 267.538 2.60089Z" fill="#986DF8"/>
<path d="M142.737 206.031C190.056 124.082 295.027 95.953 377.008 143.276C458.957 190.561 487.086 295.564 439.764 377.512C426.511 400.458 408.723 419.209 388.201 433.234L435.253 454.356L821.681 280.754C842.199 271.515 866.349 280.685 875.557 301.203L875.977 302.168C884.507 322.474 875.303 346.017 855.107 355.112L855.106 355.113L534.717 499.061L855.104 643.007H855.105C875.624 652.214 884.794 676.364 875.557 696.882L875.558 696.883C866.351 717.403 842.199 726.573 821.682 717.368H821.681L435.253 543.73L388.199 564.854C408.721 578.905 426.51 597.627 439.764 620.575L439.765 620.576C486.716 701.917 459.392 805.883 378.919 853.693L377.008 854.812C295.026 902.134 190.061 874.038 142.737 792.056C95.5169 710.276 123.406 605.624 204.972 558.13C205.275 557.93 205.616 557.725 205.968 557.545C215.504 552.088 225.306 547.646 235.307 544.187L335.796 499.06L235.297 453.896C225.3 450.438 215.468 445.998 205.965 440.54C205.61 440.358 205.267 440.153 204.962 439.951C123.404 392.487 95.5204 287.803 142.737 206.031ZM255.202 872.35C256.531 872.639 257.863 872.912 259.199 873.169H259.2C257.864 872.912 256.531 872.639 255.202 872.35ZM348.864 866.205C347.532 866.686 346.196 867.15 344.857 867.596L346.862 866.914C347.531 866.683 348.198 866.446 348.864 866.205ZM209.442 855.266C209.514 855.305 209.585 855.343 209.657 855.382C209.489 855.29 209.321 855.198 209.154 855.106C209.25 855.159 209.346 855.214 209.442 855.266ZM207.459 854.162C207.617 854.252 207.776 854.34 207.934 854.429C207.776 854.34 207.617 854.252 207.459 854.162ZM167.028 822.329C167.1 822.406 167.174 822.483 167.246 822.56C167.07 822.372 166.895 822.183 166.72 821.994C166.823 822.105 166.924 822.218 167.028 822.329ZM165.463 820.626C165.589 820.765 165.716 820.904 165.843 821.043C165.716 820.904 165.589 820.765 165.463 820.626ZM156.231 809.535C156.512 809.903 156.794 810.27 157.078 810.636C156.794 810.27 156.512 809.903 156.231 809.535ZM154.987 807.885C155.238 808.221 155.49 808.557 155.743 808.892C155.49 808.557 155.238 808.221 154.987 807.885ZM153.822 806.298C154.059 806.625 154.298 806.951 154.538 807.277C154.298 806.951 154.059 806.625 153.822 806.298ZM152.593 804.581C152.819 804.9 153.044 805.219 153.272 805.536C153.044 805.219 152.819 804.9 152.593 804.581ZM151.279 802.696C151.566 803.114 151.854 803.532 152.145 803.948C151.854 803.532 151.566 803.114 151.279 802.696ZM149.83 800.558C150.212 801.133 150.598 801.705 150.987 802.274C150.598 801.705 150.213 801.133 149.83 800.558ZM369.141 661.339C347.792 624.295 303.959 608.224 264.754 620.35L244.67 629.355C202.901 654.624 188.832 708.847 213.362 751.292L213.949 752.294C239.05 794.507 293.562 808.862 336.244 784.222L337.246 783.635C379.458 758.533 393.782 703.99 369.142 661.34L369.141 661.339ZM146.317 795.052H146.318C145.938 794.431 145.561 793.806 145.187 793.178L145.186 793.177C145.56 793.805 145.937 794.43 146.317 795.052ZM133.647 769.935C133.914 770.595 134.186 771.253 134.461 771.91C135.013 773.224 135.582 774.534 136.17 775.84H136.171C135.29 773.881 134.448 771.913 133.647 769.935ZM129.185 757.544C129.251 757.754 129.319 757.965 129.386 758.175C129.319 757.965 129.251 757.754 129.185 757.544ZM128.691 755.966C128.738 756.118 128.787 756.269 128.834 756.421C128.76 756.18 128.685 755.939 128.611 755.698C128.638 755.787 128.664 755.876 128.691 755.966ZM127.512 751.933C127.531 752.002 127.551 752.071 127.571 752.14C127.522 751.967 127.474 751.795 127.427 751.623C127.455 751.726 127.483 751.83 127.512 751.933ZM126.896 749.661C126.949 749.861 127.002 750.061 127.056 750.261C127.002 750.061 126.949 749.861 126.896 749.661ZM124.596 739.752C124.732 740.431 124.873 741.111 125.018 741.789L124.597 739.752C124.461 739.072 124.328 738.392 124.2 737.712L124.596 739.752ZM123.167 731.58C123.371 732.945 123.592 734.308 123.83 735.67L123.486 733.625C123.375 732.943 123.269 732.261 123.167 731.579V731.58ZM835.594 719.301C835.882 719.321 836.169 719.338 836.456 719.352C836.169 719.338 835.882 719.321 835.594 719.301ZM834.717 719.229C834.998 719.255 835.279 719.278 835.56 719.298C835.279 719.278 834.998 719.255 834.717 719.229ZM833.734 719.125C834.016 719.158 834.298 719.189 834.579 719.216C834.298 719.189 834.016 719.158 833.734 719.125ZM832.712 718.991C833.001 719.033 833.289 719.07 833.578 719.105C833.289 719.07 833.001 719.033 832.712 718.991ZM121.312 704.932C121.299 706.296 121.303 707.662 121.323 709.028L121.324 709.027C121.304 707.661 121.3 706.296 121.313 704.932H121.312ZM353.22 638.963C353.695 639.401 354.167 639.843 354.634 640.292L353.93 639.623C353.695 639.401 353.458 639.182 353.22 638.963ZM406.803 581.684C407.076 581.937 407.348 582.191 407.62 582.447C407.053 581.914 406.483 581.386 405.91 580.862L406.803 581.684ZM389.084 567.352C389.052 567.329 389.019 567.306 388.987 567.284C388.66 567.054 388.332 566.825 388.003 566.598H388.002C388.364 566.848 388.724 567.099 389.084 567.352ZM206.003 559.306C205.926 559.355 205.85 559.403 205.777 559.452L206.239 559.162L206.003 559.306ZM406.803 416.419H406.804H406.803ZM336.242 213.87C293.227 189.069 238.192 203.815 213.359 246.801C188.829 289.278 202.901 343.468 244.67 368.739L264.754 377.744C303.958 389.87 347.792 373.797 369.138 336.754L369.139 336.752C393.973 293.77 379.228 238.703 336.242 213.869V213.87ZM876.484 308.622C876.623 309.188 876.751 309.755 876.863 310.324L876.662 309.369C876.606 309.12 876.545 308.871 876.484 308.622ZM865.086 289.188C865.319 289.404 865.55 289.623 865.778 289.846C865.322 289.401 864.855 288.967 864.379 288.547L865.086 289.188ZM848.733 280.101C848.447 280.022 848.161 279.947 847.873 279.876C848.161 279.947 848.447 280.022 848.733 280.101ZM847.735 279.842C847.494 279.783 847.252 279.726 847.009 279.671C847.252 279.726 847.494 279.783 847.735 279.842ZM170.328 172.331C170.197 172.463 170.067 172.594 169.937 172.727C169.847 172.818 169.758 172.91 169.669 173.002C169.888 172.777 170.107 172.554 170.328 172.331ZM173.011 169.676C172.712 169.965 172.414 170.254 172.118 170.546C172.414 170.254 172.712 169.965 173.011 169.676ZM174.164 168.568C173.961 168.76 173.759 168.953 173.557 169.147C173.759 168.953 173.961 168.76 174.164 168.568ZM175.634 167.187C175.334 167.465 175.036 167.745 174.738 168.025C175.036 167.745 175.334 167.465 175.634 167.187ZM176.845 166.075C176.637 166.264 176.43 166.453 176.223 166.643C176.43 166.453 176.637 166.264 176.845 166.075ZM178.265 164.798C178.105 164.94 177.946 165.082 177.787 165.224C177.946 165.082 178.105 164.94 178.265 164.798ZM179.428 163.772C179.263 163.916 179.099 164.061 178.935 164.205C179.099 164.061 179.263 163.916 179.428 163.772ZM180.627 162.736C180.586 162.77 180.546 162.806 180.505 162.84C180.616 162.746 180.726 162.651 180.837 162.557L180.627 162.736ZM214.271 140.294C213.83 140.518 213.391 140.744 212.951 140.972C213.391 140.744 213.83 140.518 214.271 140.294ZM216.114 139.374C215.671 139.592 215.229 139.813 214.788 140.035C215.229 139.813 215.671 139.592 216.114 139.374ZM218.073 138.428C217.601 138.652 217.131 138.878 216.661 139.107C217.131 138.878 217.601 138.652 218.073 138.428ZM220.03 137.51C219.486 137.761 218.944 138.015 218.402 138.271C218.944 138.015 219.486 137.761 220.03 137.51ZM221.965 136.633C221.401 136.885 220.838 137.139 220.276 137.397C220.838 137.139 221.401 136.885 221.965 136.633ZM224.155 135.675C223.495 135.958 222.838 136.245 222.182 136.537C223.461 135.969 224.746 135.418 226.038 134.882H226.037C225.408 135.143 224.781 135.407 224.155 135.675ZM243.521 128.724C243.387 128.763 243.252 128.802 243.118 128.842C243.252 128.802 243.387 128.763 243.521 128.724ZM245.307 128.211C245.255 128.225 245.202 128.241 245.149 128.256C245.328 128.205 245.506 128.156 245.685 128.106C245.559 128.141 245.433 128.175 245.307 128.211ZM247.274 127.671C247.162 127.701 247.051 127.732 246.939 127.762C247.093 127.721 247.247 127.678 247.401 127.637C247.359 127.648 247.316 127.66 247.274 127.671ZM249.247 127.155C249.164 127.177 249.08 127.199 248.997 127.22C249.185 127.172 249.374 127.124 249.562 127.076L249.247 127.155ZM256.455 125.482C256.215 125.532 255.975 125.584 255.735 125.635C255.975 125.584 256.215 125.532 256.455 125.482ZM257.878 125.19C257.676 125.231 257.474 125.272 257.272 125.313C257.474 125.272 257.676 125.231 257.878 125.19ZM259.198 124.93C259.05 124.958 258.902 124.988 258.755 125.017C258.969 124.975 259.183 124.933 259.398 124.891L259.198 124.93ZM271.545 123.017C271.413 123.032 271.282 123.048 271.15 123.064C271.282 123.048 271.413 123.032 271.545 123.017ZM273.329 122.815C273.23 122.826 273.132 122.838 273.033 122.849C273.194 122.831 273.356 122.813 273.517 122.796C273.455 122.802 273.392 122.809 273.329 122.815ZM275.422 122.604C275.382 122.608 275.343 122.612 275.303 122.616C275.343 122.612 275.382 122.608 275.422 122.604ZM277.4 122.429C277.326 122.435 277.252 122.442 277.178 122.448C277.376 122.432 277.573 122.415 277.771 122.399C277.647 122.409 277.524 122.418 277.4 122.429ZM279.44 122.272C279.316 122.281 279.193 122.291 279.069 122.301C279.266 122.286 279.464 122.271 279.661 122.257L279.44 122.272ZM171.6 171.057C171.394 171.26 171.189 171.464 170.984 171.669C171.189 171.464 171.394 171.261 171.6 171.057Z" fill="#000813"/>
</g>
<defs>
<clipPath id="clip0_278_330">
<rect width="1000" height="998" fill="white"/>
</clipPath>
</defs>
</svg>
