<svg width="1000" height="796" viewBox="0 0 1000 796" fill="none" xmlns="http://www.w3.org/2000/svg">
<g clip-path="url(#clip0_463_457)">
<path d="M743.712 0C818.295 2.60103e-05 886.164 42.9023 918.243 110.071L918.995 111.662L919.008 111.691C938.15 152.76 941.898 198.27 931.276 240.549C943.478 253.652 954.316 268.042 963.586 283.507L964.677 285.343L964.714 285.406L964.749 285.468C987.739 324.712 1000 369.425 1000 415.129C1000 426.701 997.92 476.285 958.729 523.998C924.187 566.052 870.335 595.376 794.391 604.276C791.498 627.332 781.774 666.805 749.655 705.079C703.707 759.833 625.986 795.789 507.858 795.789C389.729 795.789 312.009 759.831 266.061 705.077C234.647 667.642 224.655 629.061 221.525 605.816C137.127 599.335 78.1696 568.933 41.2619 523.994C2.07228 476.276 0 426.689 0 415.129C8.49005e-05 369.425 12.2606 324.713 35.2507 285.469L35.2865 285.406L35.3234 285.344C44.8299 269.181 56.0413 254.171 68.724 240.551C58.1019 198.273 61.8506 152.763 80.9918 111.693L80.9983 111.678L81.0048 111.663C112.767 43.582 181.118 0.00111128 256.288 0.00108507C330.871 0.00108507 398.741 42.9031 430.82 110.072L431.571 111.663L431.584 111.692C433.379 115.543 435.037 119.434 436.563 123.357C454.96 116.679 474.529 112.51 494.838 111.243L497.127 111.113C520.631 109.893 543.589 112.635 565.269 118.814C566.268 116.426 567.316 114.051 568.416 111.692L568.422 111.676L568.429 111.662C600.191 43.5809 668.542 0 743.712 0Z" fill="#986DF8"/>
<path d="M916.665 415.129C916.665 384.351 908.411 354.163 892.845 327.591C877.239 301.058 854.874 279.163 827.987 264.187C855.503 231.444 861.555 185.689 843.474 146.895C825.393 108.137 786.478 83.334 743.711 83.334C700.944 83.334 662.029 108.137 643.947 146.895C625.865 185.692 631.919 231.446 659.434 264.187C648.547 270.319 638.365 277.63 629.089 286.042C613.248 229.361 560.182 191.271 501.412 194.337C442.647 197.364 393.861 240.76 383.959 298.779C371.419 285.021 356.797 273.347 340.563 264.188C368.079 231.445 374.131 185.69 356.051 146.896C337.969 108.138 299.054 83.335 256.287 83.335C213.52 83.335 174.605 108.138 156.523 146.896C138.441 185.693 144.495 231.447 172.011 264.188C145.124 279.164 122.758 301.059 107.153 327.592C91.5866 354.164 83.332 384.352 83.332 415.13C83.332 419.533 85.2188 523.779 256.292 523.779C276.063 523.896 295.796 522.206 315.254 518.747C307.471 540.563 303.5 563.519 303.461 586.671C303.461 591.86 305.82 712.456 507.857 712.456C709.895 712.456 712.253 591.864 712.253 586.671C712.214 564.463 708.558 542.45 701.404 521.42C715.437 522.992 729.588 523.778 743.7 523.778C914.768 523.778 916.665 419.537 916.665 415.129ZM743.706 146.422C762.77 146.422 779.987 157.899 787.298 175.549C794.57 193.159 790.56 213.441 777.078 226.964C763.556 240.446 743.273 244.456 725.663 237.183C708.014 229.872 696.536 212.655 696.536 193.591C696.536 167.531 717.645 146.422 743.706 146.422ZM507.853 256.489C533.285 256.489 556.241 271.819 565.95 295.325C575.698 318.831 570.313 345.875 552.31 363.839C534.346 381.842 507.302 387.227 483.796 377.479C460.29 367.77 444.96 344.814 444.96 319.383C444.96 284.635 473.105 256.489 507.853 256.489ZM256.283 146.422C275.347 146.422 292.564 157.899 299.875 175.549C307.147 193.159 303.137 213.441 289.655 226.964C276.133 240.446 255.85 244.456 238.24 237.183C220.591 229.872 209.113 212.655 209.113 193.591C209.113 167.531 230.222 146.422 256.283 146.422ZM146.216 415.129C145.823 354.359 194.8 304.75 255.568 304.358C316.339 303.965 365.947 352.942 366.34 413.71C366.34 418.113 358.164 460.88 256.273 460.88C151.086 460.88 146.206 415.911 146.206 415.125L146.216 415.129ZM507.853 649.563C371.693 649.563 366.35 588.4 366.35 586.67C366.35 508.526 429.714 445.167 507.853 445.167C585.992 445.167 649.357 508.531 649.357 586.67C649.357 586.67 645.426 649.563 507.853 649.563ZM743.706 460.885C638.519 460.885 633.638 415.916 633.638 415.13C633.245 354.36 682.223 304.751 742.991 304.359C803.761 303.966 853.37 352.943 853.763 413.711C853.763 418.743 845.587 460.881 743.696 460.881L743.706 460.885Z" fill="#000813"/>
</g>
<defs>
<clipPath id="clip0_463_457">
<rect width="1000" height="795.79" fill="white"/>
</clipPath>
</defs>
</svg>
