<svg width="1000" height="1225" viewBox="0 0 1000 1225" fill="none" xmlns="http://www.w3.org/2000/svg">
<g clip-path="url(#clip0_463_461)">
<path d="M981.09 107.745C949.287 41.4904 883.299 0.000127654 809.815 0H427.233C358.382 0 294.643 37.2999 261.184 97.7172L24.0909 524.422C-8.79928 583.562 -7.98735 654.54 26.376 712.962L26.3749 712.963C60.6849 771.432 122.468 806.694 190.137 806.694H200.769L138.072 963.435C104.218 1047.67 133.938 1142.48 209.504 1192.52C209.54 1192.54 209.577 1192.56 209.614 1192.59L209.8 1192.71C241.734 1213.89 278.247 1224.43 314.597 1224.43C316.031 1224.43 317.461 1224.39 318.885 1224.31C366.741 1223.24 413.305 1203.95 448.845 1168.41L927.205 690.054C981.563 635.696 997.936 554.164 968.314 482.906C952.09 443.803 923.9 412.267 889.017 391.803L955.843 311.597L955.842 311.596C1003.45 254.51 1013.27 176.43 981.858 109.362L981.836 109.316L981.09 107.745Z" fill="#986DF8"/>
<path d="M314.597 1141.09C294.311 1141.09 273.795 1135.21 255.681 1123.15C212.879 1094.92 196.307 1042 215.394 994.514L323.856 723.362H190.136C151.963 723.362 117.562 703.703 98.2475 670.788C78.8185 637.815 78.3606 598.271 96.9332 564.897L334.028 138.193C352.714 104.363 388.488 83.334 427.232 83.334H809.814C851.588 83.334 888.617 106.821 906.39 144.708C924.162 182.653 918.619 226.14 891.818 258.255L732.843 449.063H792.846C836.105 449.063 874.793 474.893 891.365 514.895C907.994 554.897 898.851 600.556 868.278 631.128L389.919 1109.49C369.061 1130.35 342.032 1141.03 314.659 1141.03L314.597 1141.09ZM427.23 174.82C421.687 174.82 416.658 177.792 413.972 182.592L176.819 609.355C173.161 615.983 175.39 621.698 177.047 624.499C178.647 627.299 182.59 631.985 190.133 631.985H391.343C406.544 631.985 420.716 639.471 429.173 652.043C437.687 664.615 439.402 680.615 433.744 694.674L300.253 1028.51C297.167 1036.17 299.11 1042.4 305.968 1046.91C312.882 1051.37 319.282 1050.8 325.168 1044.97L803.528 566.61C809.757 560.381 808.271 553.523 806.785 549.981C805.356 546.495 801.585 540.552 792.727 540.552H635.127C617.413 540.552 601.24 530.323 593.697 514.265C586.211 498.206 588.611 479.178 599.983 465.577L821.484 199.853C826.855 193.395 825.027 186.938 823.541 183.623C821.998 180.366 818.112 174.88 809.712 174.88H427.13L427.23 174.82Z" fill="#000813"/>
</g>
<defs>
<clipPath id="clip0_463_461">
<rect width="1000" height="1224.43" fill="white"/>
</clipPath>
</defs>
</svg>
