<svg width="1000" height="1126" viewBox="0 0 1000 1126" fill="none" xmlns="http://www.w3.org/2000/svg">
<g clip-path="url(#clip0_463_413)">
<path d="M876.895 0.333984C944.88 0.333984 1000 55.4451 1000 123.438V563.147C1000 595.802 987.026 627.114 963.943 650.196L681.272 932.868C658.187 955.952 626.876 968.923 594.225 968.923H519.587L398.603 1089.91C363.397 1125.11 310.448 1135.65 264.445 1116.59C218.44 1097.53 188.451 1052.64 188.451 1002.86V968.923H123.108C55.1151 968.923 0.00390625 913.802 0.00390625 845.817L0.00390625 280.476C0.00432567 247.828 12.9732 216.516 36.0601 193.429L193.099 36.3902L193.891 35.6071L194.472 35.0407L195.284 34.2576C218.144 12.5042 248.518 0.334386 280.146 0.333984L876.895 0.333984ZM246.213 722.713H249.857C248.629 722 247.414 721.267 246.213 720.513V722.713Z" fill="#986DF8"/>
<path d="M876.896 92.1475C894.936 92.1475 909.56 106.94 909.56 125.187V569.963C909.56 578.726 906.118 587.131 899.992 593.327L617.322 879.255C611.197 885.451 602.889 888.932 594.226 888.932H482.125L334.652 1038.1C325.31 1047.55 311.261 1050.38 299.055 1045.27C286.85 1040.15 278.892 1028.1 278.892 1014.74V888.932H123.109C105.069 888.932 90.4453 874.139 90.4453 855.891L90.4453 284.036C90.4454 275.273 93.8867 266.869 100.012 260.673L257.051 101.825L257.631 101.252C263.696 95.4141 271.755 92.1476 280.147 92.1475L876.896 92.1475ZM155.772 297.722V822.851H311.556C329.595 822.851 344.219 837.643 344.219 855.891V934.974L445.498 832.528L446.078 831.955C452.143 826.118 460.202 822.851 468.594 822.851H580.696L844.232 556.278V158.227H293.678L155.772 297.722ZM773.878 194.318C791.918 194.318 806.543 209.111 806.543 227.359V538.194C806.543 547.025 803.047 555.488 796.838 561.695L711.409 647.093C705.295 653.204 697.045 656.632 688.449 656.632H576.348L460.284 774.034C450.942 783.483 436.892 786.309 424.687 781.195C412.481 776.081 404.522 764.034 404.522 750.67V656.632H311.556C293.516 656.632 278.892 641.838 278.892 623.591V227.359C278.892 209.111 293.516 194.318 311.556 194.318H773.878ZM344.219 590.551H437.187C455.227 590.551 469.85 605.343 469.851 623.591V670.903L539.721 600.228L540.301 599.655C546.366 593.817 554.425 590.551 562.817 590.551H675.031L741.214 524.392V260.399H344.219V590.551ZM561.813 292.931C579.853 292.932 594.476 307.725 594.476 325.973V496.257C594.476 514.505 579.853 529.299 561.813 529.299H560.306C542.266 529.299 527.641 514.505 527.641 496.257V325.973C527.641 307.725 542.266 292.931 560.306 292.931H561.813ZM669.605 292.931C687.644 292.932 702.268 307.725 702.268 325.973V496.257C702.268 514.505 687.644 529.298 669.605 529.299H667.092C649.052 529.299 634.427 514.505 634.427 496.257V325.973C634.427 307.725 649.052 292.931 667.092 292.931H669.605Z" fill="#000813"/>
</g>
<defs>
<clipPath id="clip0_463_413">
<rect width="1000" height="1125.63" fill="white"/>
</clipPath>
</defs>
</svg>
