<svg width="1000" height="1001" viewBox="0 0 1000 1001" fill="none" xmlns="http://www.w3.org/2000/svg">
<g clip-path="url(#clip0_320_646)">
<path d="M386.477 28.3781C420.884 4.03845 463.108 -4.7779 503.633 2.76118L505.688 3.15761L506.553 3.33068L853.95 77.7728L854.136 77.8124L854.323 77.853C924.905 93.1973 975.247 155.731 975.247 227.886V763.142C990.9 787.191 1000 815.89 1000 846.698C999.999 931.396 931.236 1000.16 846.535 1000.16H153.465C68.7638 1000.16 0.00086877 931.397 0 846.699C0 815.891 9.09956 787.191 24.7525 763.142V484.707C9.10024 460.658 0.000315993 431.961 0 401.154V302.143C0 217.443 68.765 148.678 153.465 148.678H321.862C323.213 106.823 341.629 68.081 371.287 40.676L378.508 33.5209L386.477 28.3781Z" fill="#986DF8"/>
<path d="M459.653 134.331C465.594 129.628 473.02 127.895 480.446 129.38L826.98 203.638C838.367 206.113 846.535 216.261 846.535 227.895V821.955C860.149 821.955 871.287 833.093 871.287 846.707C871.287 860.321 860.149 871.46 846.535 871.46H153.465C139.851 871.46 128.713 860.321 128.713 846.707C128.713 833.093 139.851 821.955 153.465 821.955V425.915C139.851 425.915 128.713 414.777 128.713 401.163V302.153C128.713 288.538 139.851 277.4 153.465 277.4H450.495V153.638C450.495 146.212 453.96 139.034 459.653 134.331ZM500 277.401H648.515C662.129 277.401 673.267 288.54 673.267 302.154V401.164C673.267 414.778 662.129 425.916 648.515 425.916V821.956H797.03V247.944L500 184.331V277.401ZM202.97 821.955H277.228V673.44C263.614 673.44 252.475 662.302 252.475 648.687C252.475 635.073 263.613 623.935 277.228 623.935H524.752C538.367 623.935 549.505 635.073 549.505 648.687C549.505 662.302 538.367 673.44 524.752 673.44V821.955H599.01V425.915H202.97V821.955ZM326.733 821.955H376.238V673.44H326.733V821.955ZM425.743 821.955H475.248V673.44H425.743V821.955ZM722.766 722.946C736.381 722.946 747.519 734.084 747.519 747.698C747.519 761.312 736.381 772.451 722.766 772.451H710.39C696.776 772.451 685.638 761.312 685.638 747.698C685.638 734.084 696.776 722.946 710.39 722.946H722.766ZM722.766 623.94C736.381 623.94 747.519 635.078 747.519 648.692C747.519 662.306 736.381 673.445 722.766 673.445H710.39C696.776 673.445 685.638 662.306 685.638 648.692C685.638 635.078 696.776 623.94 710.39 623.94H722.766ZM722.766 524.922C736.381 524.922 747.519 536.06 747.519 549.675C747.519 563.289 736.381 574.427 722.766 574.427H710.39C696.776 574.427 685.638 563.289 685.638 549.675C685.638 536.06 696.776 524.922 710.39 524.922H722.766ZM289.61 500.174C303.224 500.174 314.362 511.312 314.362 524.926C314.362 538.54 303.224 549.678 289.61 549.678H264.857C251.243 549.678 240.105 538.54 240.105 524.926C240.105 511.312 251.243 500.174 264.857 500.174H289.61ZM413.37 500.174C426.984 500.174 438.123 511.312 438.123 524.926C438.123 538.54 426.984 549.678 413.37 549.678H388.618C375.004 549.678 363.865 538.54 363.865 524.926C363.865 511.312 375.003 500.174 388.618 500.174H413.37ZM537.125 500.174C550.739 500.174 561.877 511.312 561.877 524.926C561.877 538.54 550.739 549.678 537.125 549.678H512.372C498.758 549.678 487.62 538.54 487.62 524.926C487.62 511.312 498.758 500.174 512.372 500.174H537.125ZM178.218 376.41H623.762V326.905H178.218V376.41Z" fill="#000813"/>
</g>
<defs>
<clipPath id="clip0_320_646">
<rect width="1000" height="1000" fill="white" transform="translate(0 0.154297)"/>
</clipPath>
</defs>
</svg>
