<svg width="1000" height="1001" viewBox="0 0 1000 1001" fill="none" xmlns="http://www.w3.org/2000/svg">
<g clip-path="url(#clip0_463_477)">
<path d="M597.709 123.215C621.435 34.6344 712.807 -18.0147 801.181 5.67449L801.182 5.67341L876.807 25.942C876.82 25.9456 876.834 25.9492 876.848 25.9528C964.923 49.6057 1018.08 140.79 994.338 229.403L847.974 775.853C847.969 775.869 847.964 775.886 847.96 775.903C839.038 809.128 823.751 837.266 800.816 862.827C800.798 862.846 800.781 862.866 800.764 862.885L720.153 952.551L720.152 952.55C708.501 965.526 676.325 998.487 626.522 998.634C626.516 998.634 626.511 998.634 626.505 998.634L123.657 1000C122.469 1000.05 121.277 1000.08 120.081 1000.08C54.2225 1000.08 0.839959 947.112 0.00976537 881.517L0 879.966L0.00976537 878.415C0.839225 812.905 54.1709 759.849 120.081 759.849H447.133C442.015 729.714 443.436 699.328 451.378 669.673L597.708 123.219L597.709 123.215Z" fill="#986DF8"/>
<path fill-rule="evenodd" clip-rule="evenodd" d="M696.575 735.398L807.499 321.238L713.761 296.089L602.873 710.177C600.327 719.727 600.15 726.448 602.166 736.069L621.62 827.823L684.298 758.107C690.417 751.316 694.238 744.242 696.607 735.399L696.575 735.398ZM120.095 916.743C99.7913 916.743 83.3438 900.295 83.3438 879.957C83.3438 859.654 99.7913 843.171 120.095 843.171H549.784L530.33 751.28C526.05 731.118 526.58 711.028 531.886 691.22L678.216 144.766C690.03 100.658 735.694 74.3776 779.623 86.1555L855.247 106.423C899.108 118.202 925.636 163.867 913.858 207.831L767.492 754.285C761.974 774.835 753.025 791.318 738.806 807.164L658.195 896.83C649.246 906.805 638.316 915.259 626.29 915.294L120.059 916.674L120.095 916.743ZM826.497 250.31L842.944 188.941C844.288 183.883 841.529 178.825 836.33 177.446L760.706 157.178C755.612 155.834 750.519 158.876 749.21 163.792L732.763 225.196L826.501 250.345L826.497 250.31Z" fill="#000813"/>
</g>
<defs>
<clipPath id="clip0_463_477">
<rect width="1000" height="1000.08" fill="white"/>
</clipPath>
</defs>
</svg>
