<svg width="1000" height="1000" viewBox="0 0 1000 1000" fill="none" xmlns="http://www.w3.org/2000/svg">
<g clip-path="url(#clip0_344_422)">
<path d="M501.975 0.00696417C561.211 0.757168 612.315 35.2107 637 85.0754C655.805 91.2819 674.039 98.7296 691.605 107.314C746.85 83.3289 813.363 93.526 859.026 137.907L860.43 139.289L860.568 139.427L860.704 139.564C906.253 185.259 916.911 252.573 892.68 308.387C901.265 325.953 908.712 344.188 914.919 362.993C965.337 387.951 1000 439.92 1000 499.994C1000 560.068 965.337 612.036 914.919 636.994C908.712 655.799 901.265 674.033 892.68 691.6C916.912 747.413 906.254 814.729 860.704 860.425L860.568 860.562L860.43 860.698C814.735 906.248 747.419 916.907 691.605 892.675C674.039 901.26 655.805 908.706 637 914.913C612.042 965.331 560.073 999.994 500 999.994C439.926 999.994 387.957 965.331 362.999 914.913C344.194 908.706 325.96 901.259 308.393 892.674C252.58 916.906 185.265 906.248 139.57 860.698L139.432 860.562L139.296 860.425C93.7462 814.729 83.0869 747.413 107.319 691.6C98.7345 674.033 91.2876 655.799 85.0813 636.994C35.2166 612.31 0.763041 561.205 0.0128235 501.969L0 499.994L0.0128235 498.019C0.762989 438.783 35.2164 387.678 85.0813 362.993C91.2878 344.188 98.7354 325.954 107.32 308.388C83.0881 252.574 93.7463 185.259 139.296 139.564L139.432 139.427L139.57 139.289C185.265 93.7398 252.579 83.0827 308.393 107.314C325.959 98.7294 344.194 91.2819 362.999 85.0754C387.957 34.6572 439.926 -0.00585938 500 -0.00585938L501.975 0.00696417Z" fill="#986DF8"/>
<path fill-rule="evenodd" clip-rule="evenodd" d="M500.001 878.783C482.56 878.783 468.435 864.657 468.435 847.217V814.073C404.947 807.799 346.989 782.664 300.231 744.391L269.809 774.852C257.459 787.163 237.494 787.163 225.143 774.852C212.832 762.502 212.832 742.537 225.143 730.186L255.604 699.765C217.33 653.008 192.196 595.046 185.923 531.561H152.779C135.338 531.561 121.213 517.435 121.213 499.995C121.213 482.554 135.338 468.429 152.779 468.429H185.923C192.196 404.941 217.331 346.983 255.604 300.225L225.143 269.804C212.832 257.453 212.832 237.488 225.143 225.137C237.494 212.826 257.459 212.826 269.809 225.137L300.231 255.598C346.988 217.324 404.949 192.191 468.435 185.917V152.773C468.435 135.332 482.56 121.207 500.001 121.207C517.441 121.207 531.567 135.332 531.567 152.773V185.917C595.054 192.19 653.012 217.325 699.77 255.598L730.192 225.137C742.543 212.826 762.508 212.826 774.858 225.137C787.169 237.488 787.169 257.453 774.858 269.804L744.397 300.225C782.671 346.982 807.805 404.943 814.079 468.429H847.223C864.663 468.429 878.789 482.554 878.789 499.995C878.789 517.435 864.663 531.561 847.223 531.561H814.079C807.805 595.048 782.67 653.006 744.397 699.765L774.858 730.186C787.169 742.537 787.169 762.502 774.858 774.852C762.508 787.163 742.543 787.163 730.192 774.852L699.77 744.391C653.013 782.665 595.052 807.799 531.567 814.073V847.217C531.567 864.657 517.441 878.783 500.001 878.783ZM500.001 247.463C639.487 247.463 752.529 360.504 752.529 499.991C752.529 639.477 639.487 752.519 500.001 752.519C360.514 752.519 247.473 639.477 247.473 499.991C247.473 360.504 360.514 247.463 500.001 247.463ZM436.869 405.293C419.428 405.293 405.303 419.418 405.303 436.859C405.303 454.299 419.428 468.425 436.869 468.425C454.309 468.425 468.435 454.299 468.435 436.859C468.435 419.418 454.309 405.293 436.869 405.293ZM436.869 342.161C384.548 342.161 342.171 384.538 342.171 436.859C342.171 489.18 384.548 531.557 436.869 531.557C489.189 531.557 531.567 489.18 531.567 436.859C531.567 384.538 489.189 342.161 436.869 342.161ZM531.567 594.689C531.567 559.809 559.819 531.557 594.699 531.557C629.579 531.557 657.831 559.809 657.831 594.689C657.831 629.569 629.579 657.821 594.699 657.821C559.819 657.821 531.567 629.569 531.567 594.689ZM373.737 626.255C373.737 608.814 387.862 594.689 405.303 594.689C422.743 594.689 436.869 608.814 436.869 626.255C436.869 643.695 422.743 657.821 405.303 657.821C387.862 657.821 373.737 643.695 373.737 626.255ZM594.699 310.595C577.258 310.595 563.133 324.72 563.133 342.161C563.133 359.601 577.258 373.727 594.699 373.727C612.139 373.727 626.265 359.601 626.265 342.161C626.265 324.72 612.139 310.595 594.699 310.595Z" fill="#000813"/>
</g>
<defs>
<clipPath id="clip0_344_422">
<rect width="1000" height="1000" fill="white" transform="translate(0 -0.00585938)"/>
</clipPath>
</defs>
</svg>
