<svg width="1000" height="1001" viewBox="0 0 1000 1001" fill="none" xmlns="http://www.w3.org/2000/svg">
<g clip-path="url(#clip0_344_446)">
<path d="M500.01 0.0136719C727.1 0.0136719 914.74 175.016 935.074 396.932C974.912 440.377 1000 498.429 1000 563.216V594.759C1000 688.157 948.136 767.967 873.367 809.979C847.838 851.555 811.848 893.09 761.835 926.953C693.461 973.248 606.378 1000.11 499.991 1000.11C427.634 1000.11 369.164 968.49 331.551 920.935C312.05 896.279 299.353 869.006 292.048 842.243H247.475C111.047 842.242 0 731.13 0 594.767V563.224C9.82764e-05 498.427 25.1045 440.374 64.9444 396.941C85.2754 175.029 272.915 0.013747 500.01 0.0136719Z" fill="#986DF8"/>
<path fill-rule="evenodd" clip-rule="evenodd" d="M815.699 594.77C815.699 624.994 794.159 650.369 765.653 656.506C762.615 656.352 759.7 656.69 756.755 657.488C755.313 657.58 754.024 657.887 752.551 657.887H720.978V500.078H752.551C787.316 500.078 815.699 528.461 815.699 563.226L815.699 594.77ZM500.018 815.757C474.734 815.757 468.414 796.794 468.414 784.153C468.414 771.572 474.735 752.61 500.018 752.61C525.301 752.61 531.622 771.573 531.622 784.153C531.622 796.795 525.301 815.757 500.018 815.757ZM279.062 657.885H247.489C212.723 657.885 184.341 629.472 184.341 594.768V563.225C184.341 528.46 212.723 500.077 247.489 500.077H279.062V657.885ZM815.385 454.391C815.599 448.868 815.691 443.253 815.691 436.962C815.691 263.349 673.624 121.227 500.011 121.227C326.397 121.227 184.33 263.357 184.33 436.962C184.33 443.16 184.453 448.867 184.852 454.298C147.049 476.145 121.213 516.618 121.213 563.225V594.768C121.213 664.205 178.009 721.031 247.476 721.031H310.593C329.556 721.031 342.136 708.389 342.136 689.488V468.469C342.136 449.537 329.555 436.957 310.593 436.957H247.476C247.476 298.047 361.1 184.4 500.001 184.4C638.903 184.4 752.527 298.055 752.527 436.957H689.41C670.447 436.957 657.867 449.537 657.867 468.469V689.488C657.867 708.389 670.448 721.031 689.41 721.031H710.121C682.936 760.736 643.414 788.965 591.525 803.109C594.685 796.788 594.685 790.467 594.685 784.146C594.685 746.282 569.464 689.484 499.992 689.484C430.555 689.484 405.331 746.28 405.331 784.146C405.331 822.071 430.552 878.894 499.992 878.894C670.684 878.894 750.837 793.776 786.46 715.775C839.451 700.77 878.789 652.382 878.789 594.759V563.216C878.789 516.699 853.076 476.292 815.365 454.384L815.385 454.391Z" fill="#000813"/>
</g>
<defs>
<clipPath id="clip0_344_446">
<rect width="1000" height="1000.09" fill="white" transform="translate(0 0.0136719)"/>
</clipPath>
</defs>
</svg>
