<svg width="1000" height="1001" viewBox="0 0 1000 1001" fill="none" xmlns="http://www.w3.org/2000/svg">
<g clip-path="url(#clip0_262_372)">
<path d="M682.494 32.5108C735.498 52.506 784.146 81.3774 826.526 117.257C847.177 133.807 861.034 154.414 869.394 175.527C889.529 186.681 906.989 202.668 919.891 222.432L919.908 222.426C969.951 298.559 999.286 389.747 1000 486.986V493.079C999.912 523.01 998.476 552.661 995.768 581.983L994.948 590.992L993.838 600.927C990.649 629.436 986.243 657.618 980.639 685.422L980.645 685.428C980.633 685.489 980.617 685.55 980.605 685.611C980.584 685.717 980.564 685.824 980.542 685.93L980.537 685.925C967.197 752.208 908.765 798.471 844.328 800.631C834.102 827.938 822.565 854.884 809.525 881.289C791.425 919.389 759.413 942.97 728.702 954.042C704.408 962.8 674.591 966.015 644.332 958.285C620.318 982.701 590.634 994.698 565.462 998.902C538.655 1003.38 504.925 1001.09 473.257 983.968C425.045 1002.36 368.125 994.357 327.117 958.348L327.106 958.337C325.521 956.945 323.981 955.518 322.474 954.071C288.873 954.222 249.531 942.461 219.075 911.066L219.001 910.992L218.927 910.912C211.296 903.018 204.915 894.604 199.663 885.892C175.553 878.448 153.151 864.62 135.362 844.51C121.083 828.366 111.198 809.772 105.556 790.232C96.6737 784.58 88.1286 777.744 80.1936 769.563L80.0508 769.42C51.3056 739.684 38.3464 700.285 40.5931 661.761C22.139 642.69 10.5597 619.882 4.8247 598.22C-3.39721 567.162 -2.36612 528.052 17.8174 491.966C17.9014 491.758 17.9535 491.602 17.983 491.492C17.9901 491.465 17.993 491.436 18.0001 491.406C18.0046 489.975 18.0336 488.543 18.0858 487.111C18.3546 449.481 22.8202 412.468 31.3297 376.682L58.522 299.499L83.2547 249.977C86.5691 241.71 90.7129 233.653 95.7162 225.916C95.7952 225.794 95.8714 225.673 95.9504 225.55C96.0005 225.473 96.0486 225.393 96.0989 225.316C183.439 90.3687 336.151 0.963634 509.014 0.962891C577.055 5.45226 615.071 12.0866 682.494 32.5108ZM929.126 675.822L929.103 675.948C929.113 675.897 929.121 675.844 929.131 675.793L929.126 675.822Z" fill="#986DF8"/>
<path d="M657.726 463.927C671.633 463.757 684.354 476.575 684.082 490.449C684.082 632.789 639.505 764.762 563.402 873.308C555.581 884.563 537.524 887.112 526.914 879.87C515.591 872.151 512.561 854.707 520.449 843.519C590.671 743.374 631.889 621.971 631.889 490.444C631.583 476.74 643.96 464.052 657.697 463.916L657.726 463.927ZM479.723 743.369C489.245 742.656 499.008 747.618 503.973 755.745C508.903 763.872 508.868 774.791 503.87 782.884C485.712 813.147 464.661 841.608 441.368 867.893C432.392 878.298 414.641 879.524 404.303 870.446C393.966 861.367 392.981 843.646 402.23 833.479C423.414 809.608 442.49 783.832 459.015 756.322C463.198 749.012 471.223 743.982 479.655 743.335L479.723 743.369ZM710.919 718.441C719.624 717.897 728.468 721.978 733.637 728.949C738.806 735.919 740.13 745.545 737.035 753.638C727.413 779.956 716.5 805.629 704.157 830.52C698.478 843.272 681.336 849.462 668.754 843.273C656.207 837.083 650.696 819.74 657.429 807.499C668.922 784.308 679.16 760.302 688.137 735.751C691.469 726.23 700.854 719.087 710.953 718.406L710.919 718.441ZM452.208 535.127C467.884 534.243 482.209 550.329 479.387 565.733C462.855 668.463 412.797 759.967 341.047 829.167C331.424 839.571 312.896 839.778 303.035 829.612C293.207 819.445 294.089 800.981 304.902 791.799C368.795 730.21 413.034 648.736 427.759 557.332C429.459 545.566 440.272 535.74 452.208 535.127ZM308.711 642.341C318.267 641.661 328.024 646.727 332.955 654.922C337.885 663.117 337.752 674.066 332.652 682.158C312.998 714.735 288.442 743.979 260.082 769.075C249.846 778.289 232.096 777.305 222.983 767.002C213.869 756.698 215.131 739.011 225.57 730.068C249.985 708.442 271.172 683.348 288.072 655.328C292.255 648.017 300.245 642.987 308.711 642.341ZM508.993 414.949C549.526 414.949 583.191 447.49 584.824 487.514V492.414C584.585 562.195 571.698 629.047 548.405 690.868C543.609 703.584 527.661 710.791 514.875 706.065C502.09 701.304 494.746 685.457 499.472 672.706C520.521 616.836 532.319 556.411 532.625 493.196C532.523 492.279 532.523 491.395 532.625 490.478C532.625 477.182 522.322 466.908 508.993 466.908C495.664 466.909 485.36 477.183 485.36 490.478C485.563 504.215 473.049 516.829 459.278 516.829C445.507 516.828 433.027 504.215 433.195 490.478C433.195 449.06 467.474 414.915 509.027 414.915L508.993 414.949ZM508.993 216.701C659.428 216.701 782.021 338.234 783.518 487.719V492.345C783.382 556.817 775.354 619.289 760.154 679.171C756.787 692.364 741.655 701.338 728.395 698.006C715.133 694.708 706.085 679.68 709.348 666.453C723.426 610.958 731.115 553.049 731.353 493.168C731.251 492.25 731.251 491.362 731.353 490.444C731.352 367.787 632.162 268.695 509.027 268.695C495.221 268.898 482.539 256.452 482.539 242.715C482.54 228.977 495.222 216.532 509.027 216.735L508.993 216.701ZM415.514 234.897C427.653 234.829 439.157 244.314 441.334 256.216C443.544 268.117 436.163 281.04 424.772 285.257C344.484 318.006 287.459 396.214 286.438 488.062V492.414C285.928 569.029 253.723 638.3 202.172 687.641C192.582 698.078 174.02 698.281 164.159 688.115C154.297 677.913 155.213 659.449 166.026 650.268C207.579 610.52 233.49 555.09 234.239 493.236C234.137 492.318 234.137 491.43 234.239 490.512C234.137 489.492 234.137 488.505 234.239 487.52C235.458 374.622 305.617 277.572 404.909 237.072C407.085 236.121 409.364 235.471 411.71 235.165C412.967 234.995 414.258 234.897 415.514 234.897ZM800.183 274.486C808.921 274.52 817.523 279.278 822.182 286.656C860.199 344.494 882.506 413.765 883.05 487.828V492.722C882.879 550.9 877.03 607.727 865.911 662.746C863.258 676.178 848.503 685.97 835.037 683.283C821.537 680.563 811.781 665.875 814.534 652.444C824.974 600.961 830.687 547.774 830.857 493.231C830.755 492.313 830.755 491.43 830.857 490.512V488.879C830.517 424.643 811.232 364.999 778.383 315.046C773.045 307.259 772.467 296.478 776.921 288.181C781.377 279.85 790.661 274.304 800.114 274.406L800.183 274.486ZM509.027 315.828C570.61 315.828 625.156 347.586 656.338 395.703C663.887 407.197 660.212 424.475 648.651 431.922C637.123 439.368 619.781 435.659 612.334 424.133C590.438 390.331 552.655 367.821 509.061 367.821C441.626 367.823 387.257 421.215 385.931 488.034V492.385C385.726 527.953 380.523 562.398 370.968 595.007C367.703 608.711 351.754 617.894 338.221 613.951C324.686 609.972 316.286 593.649 320.945 580.387C329.072 552.704 333.494 523.495 333.732 493.196C333.63 492.279 333.63 491.395 333.732 490.478C333.63 489.56 333.63 488.672 333.732 487.754C335.195 392.915 413.505 315.829 509.027 315.828ZM174.964 364.515C191.49 364.073 205.503 382.642 200.504 398.353C191.969 426.747 187.413 456.807 187.174 487.988V492.34C186.868 521.142 179.321 548.315 166.535 572.22C160.788 585.278 143.033 591.398 130.384 584.699C117.77 577.999 112.975 559.877 120.623 547.84C129.396 531.45 134.602 513.015 135.044 493.156C134.942 492.239 134.942 491.355 135.044 490.438V488.536C135.247 452.121 140.553 416.822 150.549 383.498C153.542 372.889 163.947 364.827 174.998 364.555L174.964 364.515ZM509.021 117.923C601.922 117.923 687.105 151.822 752.529 207.826C764.091 216.294 766.198 234.928 756.847 245.742C747.496 256.555 728.66 257.205 718.56 247.072C662.255 198.854 589.243 169.917 509.027 169.916C395.075 169.916 295.267 228.711 238.037 317.461C230.657 329.021 213.349 332.863 201.789 325.451C190.228 318.039 186.49 300.799 194.005 289.306C260.521 186.199 377.056 117.912 509.027 117.911L509.021 117.923Z" fill="#000813"/>
</g>
<defs>
<clipPath id="clip0_262_372">
<rect width="1000" height="1000" fill="white" transform="translate(0 0.962891)"/>
</clipPath>
</defs>
</svg>
