<svg width="1000" height="682" viewBox="0 0 1000 682" fill="none" xmlns="http://www.w3.org/2000/svg">
<g clip-path="url(#clip0_347_101)">
<path d="M658.425 0.707031L655.576 0.695312H344.424C223.761 0.695312 112.14 64.5533 51.0222 168.485L50.7536 168.944L49.8259 170.538L49.615 170.903C-11.2046 276.234 -11.2057 406.009 49.6159 511.34C49.695 511.477 49.7746 511.613 49.8542 511.75L50.7829 513.344L50.9226 513.584C50.957 513.643 50.9915 513.702 51.0261 513.761C112.145 617.683 223.755 681.546 344.424 681.546H655.576L658.425 681.534C778.941 680.53 890.091 615.853 950.408 511.297L950.506 511.127C950.548 511.055 950.589 510.983 950.631 510.911L951.547 509.31C951.616 509.189 951.684 509.068 951.753 508.947L951.797 508.869C1010.73 404.806 1010.74 277.433 951.797 173.37L951.531 172.903L950.615 171.303L950.406 170.939L948.971 168.478C888.336 65.3761 777.998 1.70334 658.425 0.707031Z" fill="#986DF8"/>
<path d="M655.576 120.696C734.338 120.696 807.117 162.708 846.465 230.909L847.381 232.509C885.54 299.884 885.54 382.356 847.381 449.732L846.465 451.333C807.121 519.534 734.337 561.546 655.576 561.546H344.424C266.277 561.546 194.021 520.188 154.464 452.927L153.535 451.333C114.155 383.135 114.155 299.109 153.535 230.909L154.463 229.315C194.016 162.054 266.278 120.696 344.424 120.696H655.576ZM338.203 560.457C339.662 560.498 341.123 560.526 342.587 560.539L344.424 560.546H655.576C656.152 560.546 656.727 560.543 657.302 560.539C656.727 560.543 656.152 560.545 655.576 560.545H344.424C342.346 560.545 340.272 560.515 338.203 560.457ZM336.543 560.403C336.946 560.417 337.35 560.431 337.754 560.443C337.35 560.431 336.946 560.417 336.543 560.403ZM334.945 560.34C335.406 560.36 335.868 560.378 336.329 560.395C335.868 560.378 335.406 560.36 334.945 560.34ZM333.551 560.276C333.964 560.296 334.377 560.315 334.79 560.333C334.377 560.315 333.964 560.296 333.551 560.276ZM331.668 560.175C332.162 560.204 332.657 560.231 333.151 560.256C332.657 560.231 332.162 560.204 331.668 560.175ZM344.424 197.217C292.999 197.217 245.492 224.65 219.795 269.169C194.098 313.689 194.098 368.552 219.795 413.073C245.492 457.593 292.998 485.024 344.424 485.024H655.576C707.001 485.024 754.508 457.592 780.205 413.073C805.902 368.553 805.902 313.69 780.205 269.169C754.508 224.649 707.002 197.217 655.576 197.217H344.424ZM272.979 467.192C274.123 467.84 275.277 468.472 276.438 469.089C275.855 468.779 275.274 468.466 274.694 468.148L272.979 467.192ZM655.565 215.001C689.018 215.002 721.1 228.271 744.737 251.94C768.408 275.581 781.678 307.66 781.678 341.114C781.678 374.567 768.407 406.647 744.737 430.285L744.738 430.286C721.098 453.956 689.016 467.225 655.565 467.225H655.564C622.145 467.193 590.094 453.89 566.457 430.253V430.252C542.788 406.613 529.486 374.532 529.453 341.115V341.114C529.453 307.66 542.755 275.578 566.392 251.941C590.032 228.27 622.115 215.001 655.565 215.001ZM742.067 431.499C741.428 432.111 740.783 432.716 740.132 433.314C740.694 432.797 741.255 432.277 741.809 431.75C741.896 431.667 741.981 431.582 742.067 431.499ZM569.379 431.707C569.006 431.352 568.635 430.994 568.266 430.634L568.252 430.622C568.625 430.986 569.001 431.347 569.379 431.707ZM749.53 423.719C749.777 423.439 750.023 423.16 750.267 422.878L750.36 422.769C750.086 423.087 749.808 423.403 749.53 423.719ZM555.552 416.174C556.003 416.775 556.458 417.373 556.921 417.966L555.982 416.747C555.838 416.557 555.695 416.365 555.552 416.174ZM555.06 415.518C555.096 415.568 555.134 415.617 555.171 415.667C555.041 415.491 554.912 415.315 554.782 415.139C554.875 415.265 554.966 415.392 555.06 415.518ZM553.743 413.706C553.298 413.081 552.857 412.454 552.424 411.822C552.857 412.454 553.298 413.081 553.743 413.706ZM548.934 406.447C548.518 405.769 548.109 405.088 547.707 404.404C548.109 405.088 548.518 405.769 548.934 406.447ZM656.565 283.252L655.566 283.253C623.644 283.285 597.73 309.167 597.698 341.122C597.731 364.522 611.847 385.601 633.467 394.536L634.484 394.944C655.895 403.31 680.243 398.219 696.518 381.944C713.051 365.378 717.979 340.483 709.044 318.862V318.861C700.206 297.55 679.566 283.561 656.565 283.167V283.252ZM596.796 344.452C596.817 344.82 596.842 345.187 596.87 345.554L596.797 344.452C596.776 344.084 596.758 343.715 596.743 343.345L596.796 344.452ZM780.668 339.559L780.64 338.006C780.638 337.93 780.634 337.854 780.632 337.778C780.648 338.371 780.661 338.965 780.668 339.559ZM780.551 335.51C780.542 335.31 780.534 335.109 780.524 334.909C780.51 334.625 780.493 334.341 780.477 334.057C780.504 334.541 780.529 335.025 780.551 335.51ZM779.548 324.333C779.967 327.433 780.271 330.557 780.457 333.699C780.42 333.072 780.379 332.446 780.333 331.821C780.147 329.312 779.883 326.815 779.548 324.333ZM777.271 312.099L776.908 310.613C776.888 310.531 776.866 310.45 776.846 310.369C776.992 310.944 777.134 311.521 777.271 312.099ZM776.712 309.851C776.65 309.611 776.59 309.372 776.526 309.132C776.483 308.967 776.436 308.802 776.392 308.637C776.5 309.041 776.607 309.446 776.712 309.851ZM776.267 308.174C776.22 308.002 776.175 307.829 776.127 307.657C776.045 307.363 775.96 307.069 775.876 306.776C776.009 307.241 776.139 307.707 776.267 308.174ZM775.783 306.448C775.617 305.871 775.448 305.295 775.273 304.721C775.448 305.295 775.617 305.871 775.783 306.448ZM769.958 290.425C770.37 291.355 770.771 292.29 771.16 293.23L770.568 291.824C770.368 291.356 770.164 290.89 769.958 290.425ZM632.014 287.177C631.795 287.273 631.577 287.37 631.36 287.468L632.015 287.177C632.233 287.082 632.452 286.987 632.672 286.894L632.014 287.177ZM639.465 284.499C639.368 284.526 639.272 284.555 639.175 284.583C639.504 284.488 639.834 284.394 640.165 284.304L639.465 284.499ZM742.932 251.561C743.3 251.921 743.666 252.283 744.03 252.648C744.397 253.014 744.762 253.383 745.124 253.753L744.031 252.648C743.303 251.918 742.566 251.199 741.821 250.49L742.932 251.561ZM147.041 245.277C146.83 245.712 146.621 246.148 146.413 246.584C146.621 246.148 146.83 245.712 147.041 245.277ZM147.993 243.341C147.803 243.724 147.615 244.107 147.427 244.49C147.615 244.107 147.803 243.724 147.993 243.341ZM149.015 241.316C148.811 241.715 148.609 242.115 148.408 242.515C148.609 242.115 148.811 241.715 149.015 241.316ZM150.024 239.366C149.797 239.8 149.571 240.236 149.347 240.671C149.571 240.236 149.797 239.8 150.024 239.366ZM151.095 237.348C150.856 237.793 150.618 238.238 150.383 238.684C150.618 238.238 150.856 237.793 151.095 237.348ZM152.048 235.59C151.841 235.967 151.636 236.344 151.432 236.721C151.636 236.344 151.841 235.967 152.048 235.59ZM152.599 234.589C152.56 234.66 152.521 234.73 152.482 234.8C152.815 234.2 153.151 233.6 153.489 233.002L152.599 234.589ZM674.774 197.492H674.775H674.774ZM724.783 445.339C725.199 445.063 725.614 444.786 726.026 444.505C725.614 444.786 725.199 445.063 724.783 445.339ZM742.25 431.322C742.519 431.063 742.788 430.804 743.055 430.542C742.788 430.804 742.519 431.063 742.25 431.322ZM554.152 414.278C554.215 414.365 554.279 414.451 554.342 414.538C554.16 414.288 553.98 414.038 553.801 413.787C553.918 413.95 554.034 414.115 554.152 414.278ZM550.371 408.734C550.559 409.026 550.748 409.317 550.938 409.607C550.748 409.317 550.559 409.026 550.371 408.734Z" fill="#000813"/>
</g>
<defs>
<clipPath id="clip0_347_101">
<rect width="1000" height="680.85" fill="white" transform="translate(0 0.695312)"/>
</clipPath>
</defs>
</svg>
