<svg width="1000" height="991" viewBox="0 0 1000 991" fill="none" xmlns="http://www.w3.org/2000/svg">
<g clip-path="url(#clip0_347_150)">
<path d="M562.502 0.455078C642.185 0.455157 711.674 44.0431 748.434 108.679C810.791 115.42 869.301 143.246 914.032 187.957L915.244 189.176C966.372 240.889 995 310.652 995 383.331V682.957C995 773.46 938.771 850.813 859.339 881.996C834.986 918.386 801.007 948.013 760.455 967.128L760.454 967.127C694.471 998.245 617.985 998.239 552.007 967.11C533.145 958.216 515.707 947.047 499.998 933.982C484.279 947.056 466.829 958.231 447.955 967.128L447.954 967.127C381.971 998.244 305.485 998.239 239.507 967.11C198.969 947.995 165.003 918.374 140.659 881.996C61.2276 850.813 5 773.459 5 682.957V214.205C5.0002 96.1427 100.688 0.455279 218.75 0.455078H562.502Z" fill="#986DF8"/>
<path d="M718.752 227.082H656.252V214.204C656.252 162.415 614.29 120.453 562.502 120.453H218.75C166.962 120.453 125 162.415 125 214.204V682.955C125 734.744 166.962 776.706 218.75 776.706H223.206C232.361 812.717 257.111 842.746 290.711 858.581C324.281 874.419 363.221 874.419 396.789 858.581C430.39 842.743 455.14 812.713 464.294 776.706H535.706C544.861 812.717 569.61 842.746 603.211 858.581C636.78 874.419 675.72 874.419 709.289 858.581C742.889 842.743 767.639 812.713 776.794 776.706H781.25C833.038 776.706 875 734.744 875 682.955V383.329C875 341.886 858.551 302.149 829.223 272.852C799.926 243.555 760.193 227.075 718.746 227.075L718.752 227.082ZM718.752 289.582C770.541 289.582 812.503 331.574 812.503 383.332V495.458H656.252V289.582H718.752ZM187.5 214.204C187.5 196.931 201.478 182.953 218.75 182.953H562.502C570.803 182.953 578.737 186.249 584.596 192.109C590.456 197.968 593.752 205.903 593.752 214.204V495.455H187.5V214.204ZM343.751 807.956C318.482 807.956 295.686 792.728 286.012 769.382C276.337 746.005 281.678 719.149 299.562 701.266C317.445 683.382 344.301 678.041 367.678 687.716C391.024 697.39 406.252 720.186 406.252 745.455C406.252 762.026 399.66 777.925 387.941 789.644C376.222 801.363 360.321 807.956 343.751 807.956ZM656.252 807.956C630.983 807.956 608.187 792.728 598.513 769.382C588.839 746.005 594.179 719.149 612.063 701.266C629.946 683.382 656.802 678.041 680.179 687.716C703.525 697.39 718.753 720.186 718.753 745.455C718.753 762.026 712.161 777.925 700.442 789.644C688.723 801.363 672.823 807.956 656.252 807.956ZM812.503 682.955C812.503 691.256 809.207 699.191 803.347 705.05C797.488 710.909 789.553 714.206 781.253 714.206H776.797C767.641 678.194 742.892 648.165 709.292 632.33C675.722 616.492 636.782 616.492 603.214 632.33C569.613 648.169 544.863 678.198 535.709 714.206H464.297C455.142 678.194 430.393 648.165 396.792 632.33C363.223 616.492 324.283 616.492 290.714 632.33C257.114 648.169 232.364 678.198 223.209 714.206H218.753C201.481 714.206 187.503 700.228 187.503 682.955V557.955H812.506L812.503 682.955Z" fill="#000813"/>
</g>
<defs>
<clipPath id="clip0_347_150">
<rect width="1000" height="990.01" fill="white" transform="translate(0 0.455078)"/>
</clipPath>
</defs>
</svg>
