<svg width="1000" height="887" viewBox="0 0 1000 887" fill="none" xmlns="http://www.w3.org/2000/svg">
<g clip-path="url(#clip0_347_122)">
<path d="M237.157 146.744C261.222 36.1036 384.129 -41.8595 501.763 24.5676L503.469 25.5412L503.531 25.5783L606.173 84.8674L606.172 84.8684C694.788 135.996 714.527 234.276 680.656 312.179L889.492 424.697C890.951 425.461 892.396 426.256 893.824 427.081L893.975 427.168C994.806 485.355 1022.3 609.376 970.086 702.443C969.968 702.652 969.85 702.862 969.731 703.071L969.22 703.971C969.085 704.208 968.948 704.445 968.812 704.681C912.674 801.801 788.775 834.476 692.231 779.143V779.145L692.218 779.137C691.089 778.492 689.971 777.828 688.863 777.147L688.851 777.139C688.804 777.11 688.757 777.081 688.71 777.052L567.228 702.062C567.381 705.287 567.46 708.533 567.46 711.796V738.581L567.448 740.491C566.425 821.221 500.656 886.366 419.677 886.367H151.817C70.2033 886.367 4.03134 820.195 4.03125 738.581V711.796C4.03125 651.924 30.2015 598.132 71.7197 561.239C39.7799 490.406 61.6688 404.52 118.915 351.737C123.15 331.45 130.635 312.166 140.826 294.498L140.846 294.464L199.027 193.68C199.146 193.475 199.266 193.27 199.386 193.066C199.417 193.013 199.447 192.96 199.479 192.907C209.923 175.055 222.727 159.653 237.157 146.744ZM619.755 94.7492C619.796 94.7786 619.839 94.8067 619.881 94.8362C619.777 94.7624 619.679 94.6946 619.592 94.633C619.643 94.6688 619.697 94.7083 619.755 94.7492ZM619.163 94.3322C619.196 94.3555 619.239 94.3848 619.288 94.4192C619.259 94.3985 619.232 94.3797 619.209 94.3635C619.162 94.3304 619.121 94.3028 619.092 94.2824C619.111 94.2959 619.136 94.3134 619.163 94.3322ZM619.067 94.2658L619.065 94.2649C619.063 94.2629 619.06 94.2607 619.058 94.259L619.067 94.2658ZM617.955 93.4904C617.98 93.5077 617.974 93.5029 617.982 93.509C617.978 93.5061 617.957 93.4919 617.927 93.4709C617.938 93.4787 617.948 93.4855 617.955 93.4904ZM617.914 93.4631C617.918 93.4661 617.923 93.4682 617.927 93.4709L617.891 93.4465C617.899 93.4522 617.907 93.4579 617.914 93.4631ZM615.847 92.0627C615.857 92.0694 615.867 92.0765 615.877 92.0832C615.891 92.0924 615.904 92.1014 615.918 92.1106C615.875 92.0816 615.8 92.0305 615.705 91.967C615.691 91.9576 615.676 91.9482 615.66 91.9377C615.736 91.9888 615.8 92.0311 615.847 92.0627ZM614.967 91.4768C615.014 91.5078 615.059 91.5376 615.103 91.5666L614.749 91.3313C614.822 91.3793 614.894 91.4286 614.967 91.4768ZM613.32 90.4026C613.342 90.4165 613.437 90.4775 613.563 90.5588C613.504 90.5205 613.455 90.4884 613.419 90.4651C613.368 90.4326 613.33 90.408 613.315 90.3987L613.309 90.3947C613.311 90.3964 613.316 90.3995 613.32 90.4026ZM461.712 8.98946C461.715 8.99042 461.719 8.99046 461.723 8.99142C461.746 8.99786 461.768 9.00547 461.791 9.01192C461.878 9.03664 461.957 9.05805 462.024 9.07735C461.934 9.05168 461.829 9.0212 461.713 8.98849L461.712 8.98946Z" fill="#986DF8"/>
<path d="M366.071 629.791C410.952 629.791 447.429 666.267 447.429 711.148V737.934C447.429 753.273 434.983 765.719 419.644 765.72H151.786C136.446 765.72 124 753.273 124 737.934V711.148C124 666.267 160.477 629.791 205.357 629.791H366.071ZM178.607 709.769C178.596 709.998 178.586 710.227 178.58 710.457L178.571 711.148L178.58 710.468C178.586 710.234 178.596 710.001 178.607 709.769ZM205.357 685.362C191.49 685.362 180.12 696.377 179.593 710.148H391.836C391.309 696.377 379.939 685.362 366.071 685.362H205.357ZM354.635 200.311C341.692 144.054 397.725 102.447 443.477 128.839L443.478 128.84L546.118 188.13H546.119C591.187 214.09 584.812 283.461 528.721 300.791L528.719 300.792C524.356 302.129 521.845 302.954 519.826 304.318C517.915 305.611 516.384 307.435 514.218 310.876C519.522 326.04 520.099 342.734 514.822 358.509L833.722 530.326L833.748 530.331L833.898 530.418C875.538 554.404 886.81 604.918 865.399 643.082L864.888 643.981C841.971 683.628 791.241 697.042 751.737 674.308L751.724 674.3L751.711 674.292L442.416 483.368C431.344 496.331 416.65 504.725 400.525 507.825C398.586 511.495 397.736 513.761 397.551 516.081C397.38 518.217 397.765 520.467 398.559 523.986L398.924 525.576V525.578C411.903 582.051 355.724 623.37 310.082 597.051H310.081L207.438 537.76C161.038 511.007 170.365 441.855 224.804 425.099L224.807 425.098C229.185 423.761 231.706 422.927 233.729 421.559C235.645 420.262 237.174 418.436 239.341 415.011C231.421 392.401 234.591 371.405 244.74 353.811L302.846 253.159L302.847 253.158C314.043 233.82 332.759 221.768 353.137 217.923C355.037 214.312 355.855 212.065 356.021 209.76C356.195 207.327 355.655 204.744 354.635 200.311ZM752.235 673.441C754.231 674.59 756.257 675.644 758.306 676.607C756.257 675.644 754.231 674.589 752.235 673.44V673.441ZM857.829 652.702C857.939 652.561 858.047 652.418 858.155 652.275C858.047 652.418 857.939 652.561 857.829 652.702ZM858.632 651.647C858.751 651.488 858.869 651.327 858.987 651.166C858.869 651.327 858.751 651.488 858.632 651.647ZM859.435 650.557C859.553 650.393 859.669 650.229 859.786 650.064C859.669 650.229 859.553 650.393 859.435 650.557ZM860.237 649.426C860.355 649.257 860.472 649.086 860.589 648.916C860.472 649.086 860.355 649.257 860.237 649.426ZM860.989 648.328C861.115 648.142 861.24 647.956 861.364 647.768C861.24 647.956 861.115 648.142 860.989 648.328ZM861.764 647.159C861.893 646.96 862.022 646.76 862.15 646.56C862.022 646.76 861.893 646.96 861.764 647.159ZM862.453 646.079C862.59 645.861 862.727 645.642 862.862 645.422C862.727 645.642 862.59 645.861 862.453 646.079ZM864.684 642.31C864.741 642.207 864.797 642.104 864.854 642.002C864.797 642.104 864.741 642.207 864.684 642.31ZM471.766 436.183L780.221 626.549C792.493 633.58 809.215 629.161 816.757 616.165C824.326 603.009 819.747 586.393 806.797 578.926V578.925L488.408 407.382L471.766 436.183ZM781.533 628.36C781.598 628.391 781.663 628.418 781.728 628.448C781.602 628.39 781.477 628.331 781.353 628.271L781.533 628.36ZM812.82 622.808C812.654 622.969 812.486 623.128 812.315 623.285L812.821 622.808C812.988 622.646 813.152 622.482 813.315 622.316L812.82 622.808ZM814.169 621.407L814.273 621.294C814.357 621.2 814.437 621.104 814.52 621.009C814.403 621.143 814.287 621.275 814.169 621.407ZM819.191 613.504L819.232 613.411C819.298 613.254 819.36 613.096 819.423 612.938C819.348 613.127 819.27 613.316 819.191 613.504ZM339.449 550.446C339.596 550.457 339.743 550.461 339.89 550.458V550.457C339.743 550.46 339.596 550.456 339.449 550.445V550.446ZM276.74 457.54C268.76 466.425 258.668 472.861 241.149 478.22C236.709 479.578 234.396 482.081 233.615 484.354C232.83 486.642 233.554 488.682 235.181 489.615L235.184 489.617L337.826 548.908L337.837 548.914C339.507 549.904 341.658 549.549 343.24 547.767C344.82 545.986 345.84 542.71 344.759 538.001L344.378 536.309C340.673 519.407 341.283 507.856 344.843 496.87L276.74 457.54ZM205.986 535.72C206.232 535.873 206.479 536.025 206.728 536.176C206.479 536.025 206.232 535.873 205.986 535.72ZM204.85 534.995C205.158 535.197 205.47 535.396 205.784 535.594C205.47 535.396 205.158 535.197 204.85 534.995ZM398.5 528.402C398.551 528.667 398.6 528.931 398.648 529.195C398.644 529.169 398.64 529.143 398.635 529.117L398.5 528.402ZM233.785 489.815C233.838 489.866 233.893 489.915 233.949 489.963C233.837 489.866 233.731 489.766 233.63 489.66L233.785 489.815ZM232.338 486.829C232.362 487.035 232.397 487.238 232.443 487.436C232.397 487.238 232.362 487.035 232.338 486.829ZM232.302 485.981C232.293 486.248 232.304 486.509 232.331 486.766C232.32 486.662 232.312 486.557 232.307 486.451C232.299 486.296 232.298 486.14 232.303 485.981H232.302ZM384.402 454.926C384.713 454.964 385.023 454.994 385.334 455.018H385.335C385.024 454.995 384.714 454.964 384.403 454.926H384.402ZM375.886 274.271C367.163 269.216 355.983 272.287 350.955 280.953L292.886 381.576C287.859 390.307 290.838 401.484 299.563 406.508H299.564L377.655 451.604L377.659 451.606C386.381 456.694 397.558 453.625 402.587 444.925L460.656 344.301C465.683 335.57 462.704 324.393 453.979 319.369H453.978L375.888 274.272L375.886 274.271ZM240.017 415.814C239.877 416.034 239.738 416.247 239.603 416.454L239.604 416.455C239.875 416.04 240.154 415.601 240.444 415.137C240.299 415.369 240.157 415.595 240.017 415.814ZM238.766 409.895C238.963 410.59 239.171 411.286 239.39 411.984L239.07 410.938C238.966 410.59 238.864 410.243 238.766 409.895ZM462.418 343.046C462.508 342.845 462.592 342.642 462.675 342.439C462.592 342.642 462.508 342.845 462.418 343.046ZM462.946 341.737C463.006 341.573 463.064 341.409 463.119 341.244C463.069 341.396 463.016 341.548 462.962 341.699C462.957 341.712 462.951 341.724 462.946 341.737ZM463.879 338.082C463.835 338.37 463.786 338.659 463.729 338.946L463.815 338.482C463.839 338.349 463.859 338.215 463.879 338.082ZM464.074 336.155C464.059 336.466 464.036 336.776 464.005 337.087L464.046 336.621C464.057 336.466 464.066 336.31 464.074 336.155ZM464.013 333.37C464.027 333.524 464.04 333.677 464.051 333.831C464.04 333.677 464.027 333.523 464.013 333.369V333.37ZM461.942 326.311C462.226 326.861 462.483 327.423 462.712 327.995H462.713C462.403 327.221 462.041 326.466 461.632 325.735C461.738 325.926 461.842 326.118 461.942 326.311ZM513.877 309.552L513.905 309.508C513.908 309.503 513.91 309.499 513.913 309.494C513.901 309.513 513.889 309.533 513.877 309.552ZM352.051 277.668C351.844 277.912 351.643 278.163 351.447 278.419V278.42C351.643 278.164 351.844 277.913 352.051 277.669V277.668ZM415.679 176.958C414.076 176.02 411.894 176.315 410.292 178.032C408.702 179.737 407.634 182.948 408.751 187.799L409.132 189.493C412.836 206.427 412.226 218.009 408.666 228.997L476.769 268.328C484.749 259.443 494.841 253.007 512.36 247.648L512.775 247.517C516.998 246.115 519.18 243.697 519.919 241.506C520.663 239.3 519.991 237.317 518.475 236.343L518.326 236.252L415.684 176.961L415.679 176.958ZM409.109 194.48C409.026 194.021 408.939 193.558 408.85 193.09C408.939 193.558 409.026 194.021 409.109 194.48ZM551.612 192.929C551.548 192.881 551.484 192.834 551.42 192.786C551.484 192.834 551.548 192.881 551.612 192.929ZM408.755 192.606C408.692 192.283 408.627 191.958 408.561 191.631C408.627 191.958 408.692 192.283 408.755 192.606ZM550.608 192.196C550.566 192.166 550.524 192.137 550.481 192.107C550.524 192.137 550.566 192.166 550.608 192.196ZM549.808 191.637C549.718 191.575 549.628 191.513 549.538 191.451C549.628 191.513 549.718 191.575 549.808 191.637ZM548.753 190.927C548.718 190.904 548.684 190.88 548.649 190.857C548.596 190.822 548.541 190.788 548.487 190.753C548.576 190.811 548.665 190.869 548.753 190.927ZM387.439 128.139C387.398 128.16 387.357 128.181 387.315 128.202C387.423 128.147 387.532 128.093 387.64 128.038C387.573 128.072 387.506 128.105 387.439 128.139ZM388.537 127.593C388.408 127.655 388.279 127.72 388.15 127.783C388.279 127.72 388.408 127.655 388.537 127.593ZM437.671 126.971L436.601 126.495C436.572 126.483 436.544 126.471 436.516 126.459C436.901 126.625 437.286 126.795 437.671 126.971ZM436.328 126.379C436.014 126.245 435.699 126.114 435.384 125.986C435.699 126.114 436.014 126.245 436.328 126.379ZM435.191 125.907C434.819 125.757 434.446 125.611 434.073 125.47C434.446 125.611 434.819 125.757 435.191 125.907ZM433.988 125.438C433.652 125.312 433.316 125.188 432.979 125.068C433.316 125.188 433.652 125.312 433.988 125.438ZM432.729 124.979C432.365 124.851 432 124.726 431.635 124.605C432 124.726 432.365 124.851 432.729 124.979ZM431.593 124.592C431.21 124.466 430.826 124.344 430.442 124.227C430.826 124.344 431.21 124.466 431.593 124.592ZM430.385 124.209C430.302 124.184 430.22 124.158 430.137 124.133C429.838 124.043 429.538 123.958 429.239 123.873C429.621 123.981 430.003 124.093 430.385 124.209ZM427.971 123.529C428.373 123.633 428.775 123.741 429.177 123.854C429.136 123.843 429.095 123.831 429.054 123.819C428.332 123.618 427.609 123.431 426.887 123.26L427.971 123.529ZM462.727 342.313C462.803 342.122 462.876 341.93 462.946 341.737C462.876 341.93 462.803 342.122 462.727 342.313Z" fill="#000813"/>
</g>
<defs>
<clipPath id="clip0_347_122">
<rect width="1000" height="886.3" fill="white" transform="translate(0 0.0654297)"/>
</clipPath>
</defs>
</svg>
