<svg width="1000" height="872" viewBox="0 0 1000 872" fill="none" xmlns="http://www.w3.org/2000/svg">
<g clip-path="url(#clip0_463_465)">
<path d="M672.628 0C749.66 0.000211014 815.948 44.9328 847.525 109.135C903.191 153.512 937.647 220.146 949.864 294.147L987.397 494.929C996.164 521.038 1003.18 554.311 998.507 591.601C995.137 746.1 869.142 871.468 712.359 871.468C627.878 871.468 551.755 834.561 499.288 776.042C446.821 834.56 370.7 871.468 286.22 871.468C128.554 871.468 0.000276474 742.92 0 585.248C0 552.701 5.98287 522.174 15.1921 494.837L52.7193 293.13C65.0013 218.812 99.6344 153.241 154.826 109.287C186.566 43.8 253.475 0.000122994 329.951 0C403.639 0 468.156 41.4836 501.289 102.239C534.422 41.4833 598.939 0 672.628 0Z" fill="#986DF8"/>
<path d="M906.615 516.303L867.781 308.562C857.086 242.537 825.079 191.07 779.419 162.935C765.842 117.313 723.102 83.334 672.626 83.334C611.455 83.334 560.979 133.81 560.979 194.981V198.849C544.483 217.28 531.854 239.617 525.066 263.888C509.517 260.968 494.006 260.968 477.51 263.888C470.722 239.617 458.093 217.28 441.596 198.849V194.981C441.596 133.81 391.12 83.334 329.949 83.334C279.473 83.334 236.733 116.327 223.157 162.935C177.535 191.074 145.489 241.589 134.794 307.572L95.9608 516.303C88.1864 537.654 83.332 560.977 83.332 585.248C83.332 696.895 174.576 788.135 286.219 788.135C397.862 788.135 489.106 696.891 489.106 585.248V584.262L486.186 465.829C494.908 462.909 504.616 462.909 512.391 465.829L509.47 584.262V585.248C509.47 696.895 600.714 788.135 712.357 788.135C824.994 788.135 915.244 696.891 915.244 585.248C919.226 560.939 914.372 537.655 906.597 516.303H906.615ZM201.763 318.231C210.486 263.849 242.531 205.594 309.546 205.594C368.783 205.594 417.329 254.136 417.329 313.377L420.249 430.869C384.336 399.809 338.714 381.34 288.195 381.34C251.295 381.34 216.368 392.035 186.257 409.479L201.763 318.231ZM287.205 721.131C213.406 721.131 153.219 661.894 151.287 588.136L160.996 533.753C181.399 484.224 229.941 449.297 286.215 449.297C360.962 449.297 422.133 510.468 422.133 584.225V585.211C423.119 659.958 361.948 721.131 287.205 721.131ZM486.228 397.831L485.242 331.806C496.884 327.938 508.527 327.938 517.288 331.806L516.302 396.844C506.631 396.882 496.923 396.883 486.228 397.831ZM585.244 313.375C585.244 254.138 633.787 205.592 693.027 205.592C760 205.592 792.044 263.843 800.81 319.171L817.307 409.467C787.195 391.984 752.268 381.328 715.368 381.328C664.892 381.328 618.284 399.759 583.314 430.857L585.244 313.375ZM715.357 721.129C640.61 721.129 579.439 659.958 579.439 585.211V584.225C579.439 509.478 640.61 449.298 715.357 449.298C771.673 449.298 820.217 484.263 840.576 533.753L850.284 588.136C849.336 661.936 789.114 721.129 715.357 721.129Z" fill="#000813"/>
</g>
<defs>
<clipPath id="clip0_463_465">
<rect width="1000" height="871.47" fill="white"/>
</clipPath>
</defs>
</svg>
