<svg width="1000" height="1173" viewBox="0 0 1000 1173" fill="none" xmlns="http://www.w3.org/2000/svg">
<g clip-path="url(#clip0_344_365)">
<path d="M499.996 0.333984C704.725 0.333984 870.684 166.326 870.684 371.06V412.043C949.249 471.841 999.999 566.293 1000 672.767V845.203C999.999 1026.06 853.387 1172.81 672.433 1172.81H327.567C146.611 1172.81 0.00143911 1026.06 0 845.203V672.767C0.000656858 566.289 50.7487 471.833 129.316 412.036V371.06C129.316 166.349 295.206 0.335696 499.996 0.333984Z" fill="#986DF8"/>
<path d="M499.999 155.51C619.008 155.51 715.508 252.009 715.508 371.06V500.373C715.508 502.151 715.508 503.97 715.468 505.788C789.864 524.906 844.82 592.433 844.82 672.769V845.2C844.82 940.408 767.636 1017.63 672.43 1017.63H327.566C232.36 1017.63 155.176 940.407 155.176 845.2V672.769C155.176 592.429 210.135 524.903 284.53 505.788C284.49 503.97 284.49 502.151 284.49 500.373V371.06C284.49 252.01 380.948 155.51 499.999 155.51ZM327.567 586.568C279.964 586.568 241.372 625.161 241.372 672.764V845.195C241.372 892.799 279.964 931.391 327.567 931.391H672.431C720.035 931.391 758.626 892.798 758.626 845.195V672.764C758.626 625.16 720.034 586.568 672.431 586.568H327.567ZM499.998 831.017C507.859 831.017 516.047 833.625 522.4 839.271C528.938 845.081 532.921 853.58 532.921 863.934C532.921 874.287 528.938 882.787 522.4 888.597C516.047 894.243 507.859 896.852 499.998 896.852C492.137 896.851 483.949 894.243 477.596 888.597C471.058 882.787 467.075 874.287 467.075 863.934C467.075 853.581 471.059 845.081 477.596 839.271C483.949 833.626 492.137 831.017 499.998 831.017ZM461.136 638.911C485.418 625.132 515.137 625.268 539.265 639.14L540.41 639.812L540.412 639.812C564.766 654.372 579.412 680.885 578.745 709.229C578.105 737.427 562.431 763.079 537.716 776.573C534.558 778.703 532.716 782.369 532.911 786.234L532.924 786.486V787.657C532.924 805.85 518.194 820.58 500.001 820.58C481.808 820.58 467.077 805.85 467.077 787.657V786.739C466.585 758.725 481.517 732.695 505.929 718.947L506.021 718.896L506.115 718.845C510.206 716.655 512.813 712.414 512.927 707.762L512.93 707.326C512.889 702.833 510.518 698.685 506.654 696.381L506.639 696.371L506.622 696.362C502.643 693.97 497.699 693.905 493.65 696.2L493.641 696.205L493.631 696.211C489.584 698.493 487.078 702.778 487.078 707.425C487.078 716.171 483.603 724.533 477.434 730.702C471.264 736.872 462.902 740.348 454.155 740.348C445.415 740.348 437.051 736.882 430.877 730.708C424.707 724.538 421.232 716.176 421.232 707.43C421.233 679.074 436.461 652.89 461.136 638.911ZM522.799 709.873C522.811 709.763 522.825 709.653 522.835 709.542L522.837 709.518C522.826 709.636 522.811 709.755 522.799 709.873ZM465.062 648.191C464.878 648.3 464.695 648.411 464.513 648.521C464.754 648.375 464.996 648.231 465.239 648.088L465.062 648.191ZM499.999 241.746C428.594 241.746 370.686 299.615 370.686 371.06V500.373H629.312V371.06C629.312 299.615 571.404 241.746 499.999 241.746Z" fill="#000813"/>
</g>
<defs>
<clipPath id="clip0_344_365">
<rect width="1000" height="1172" fill="white" transform="translate(0 0.333984)"/>
</clipPath>
</defs>
</svg>
