<svg width="1000" height="693" viewBox="0 0 1000 693" fill="none" xmlns="http://www.w3.org/2000/svg">
<g clip-path="url(#clip0_347_113)">
<path d="M462.489 0.722168L464.536 0.734863C508.144 1.28794 547.526 19.4795 575.869 48.4985C599.427 41.8001 624.286 38.2134 649.972 38.2134L651.723 38.2192C800.42 39.1635 920.967 160.288 920.967 309.208C920.967 324.063 919.713 338.491 917.394 352.423L949.602 384.578L950.028 385.006C1010.95 446.546 1011.33 545.29 951.119 607.287C950.617 607.807 950.11 608.324 949.599 608.835C913.27 645.163 867.529 653.796 836.988 653.685C806.617 653.574 761.363 644.717 725.481 608.836L725.48 608.834L693.264 576.618C680.061 578.82 666.413 580.065 652.377 580.193L649.972 580.204C638.077 580.204 626.359 579.433 614.866 577.942C595.87 644.186 534.816 692.705 462.489 692.706H199.997C91.8335 692.706 4 604.872 4 496.708V196.719C4 88.5557 91.8335 0.722168 199.997 0.722168H462.489ZM947.85 609.153C947.839 609.163 947.829 609.173 947.819 609.183C947.868 609.135 947.92 609.087 947.972 609.036L947.971 609.035C947.93 609.074 947.89 609.113 947.85 609.153Z" fill="#986DF8"/>
<path d="M462.488 120.722C483.708 120.722 500.986 137.999 500.986 159.22C500.986 180.44 483.709 197.718 462.488 197.718H200.997V495.708H462.488C483.708 495.709 500.986 512.987 500.986 534.208C500.986 555.428 483.709 572.705 462.488 572.706H199.997C158.108 572.706 124 538.598 124 496.708V196.719C124 154.83 158.108 120.722 199.997 120.722H462.488ZM649.972 158.213C733.2 158.213 800.967 225.979 800.967 309.208C800.967 336.888 792.949 362.513 779.961 384.785L864.744 469.425L864.749 469.43C879.75 484.583 879.751 508.826 864.75 523.978L864.747 523.982C858.151 530.578 847.707 533.723 837.426 533.686C827.146 533.648 816.779 530.427 810.333 523.982L725.548 439.197C703.273 452.185 677.649 460.204 649.972 460.204C566.744 460.204 498.977 392.436 498.977 309.208C498.977 225.981 566.744 158.213 649.972 158.213ZM863.543 523.754C862.954 524.311 862.334 524.842 861.688 525.346C862.294 524.874 862.878 524.38 863.434 523.861L863.543 523.754ZM724.662 438.556C725.012 438.353 725.362 438.15 725.71 437.945L811.04 523.275C811.239 523.473 811.441 523.669 811.647 523.861C811.441 523.668 811.239 523.472 811.04 523.274L725.71 437.944C725.362 438.149 725.012 438.353 724.662 438.556ZM864.704 522.584C864.486 522.816 864.264 523.046 864.039 523.274C863.988 523.325 863.935 523.374 863.883 523.425L864.039 523.275C864.265 523.047 864.486 522.817 864.704 522.584ZM466.049 496.877C465.797 496.854 465.544 496.832 465.291 496.813C465.544 496.832 465.797 496.854 466.049 496.877ZM465.098 496.8C464.917 496.788 464.736 496.776 464.555 496.766C464.736 496.776 464.917 496.788 465.098 496.8ZM649.972 459.204C650.405 459.204 650.839 459.201 651.271 459.197C650.839 459.201 650.405 459.203 649.972 459.203C649.426 459.203 648.881 459.199 648.336 459.193L649.972 459.204ZM644.726 459.109C645.827 459.148 646.93 459.177 648.037 459.191H648.162C647.013 459.177 645.868 459.149 644.726 459.109ZM666.617 458.224C665.778 458.323 664.937 458.415 664.093 458.5L665.357 458.368C665.778 458.322 666.198 458.274 666.618 458.224H666.617ZM675.701 456.852C675.171 456.949 674.641 457.046 674.109 457.137L675.346 456.919C675.464 456.898 675.583 456.874 675.701 456.852ZM649.975 235.219C609.19 235.219 575.978 268.432 575.978 309.216C575.978 350.001 609.19 383.212 649.975 383.212C670.066 383.212 688.271 375.062 701.677 361.951C701.661 361.967 701.662 361.968 701.686 361.936C701.708 361.905 701.733 361.867 701.772 361.808C701.807 361.756 701.856 361.684 701.907 361.614C701.957 361.545 702.029 361.451 702.119 361.361C702.209 361.271 702.303 361.198 702.372 361.148C702.442 361.097 702.516 361.049 702.567 361.014C702.626 360.975 702.664 360.95 702.695 360.927C702.728 360.904 702.726 360.901 702.71 360.917C715.82 347.511 723.971 329.308 723.972 309.216C723.972 268.432 690.759 235.219 649.975 235.219ZM597.615 362.848C598.186 363.406 598.766 363.953 599.354 364.493C599.059 364.222 598.765 363.948 598.474 363.672L597.615 362.848ZM575.002 311.147C575.024 312.025 575.064 312.9 575.116 313.771C575.09 313.333 575.067 312.894 575.048 312.455L575.002 311.147Z" fill="#000813"/>
</g>
<defs>
<clipPath id="clip0_347_113">
<rect width="1000" height="691.98" fill="white" transform="translate(0 0.722168)"/>
</clipPath>
</defs>
</svg>
