<svg width="1000" height="1004" viewBox="0 0 1000 1004" fill="none" xmlns="http://www.w3.org/2000/svg">
<g clip-path="url(#clip0_262_380)">
<path d="M1000 335.187C999.996 416.52 942.568 484.404 866.093 500.611C942.585 516.819 1000 584.734 1000 666.054V757.974L999.922 764.237C996.652 893.264 892.632 997.264 763.619 1000.53L757.357 1000.61H683.809C590.287 1000.61 514.719 924.759 514.715 831.497C514.715 826.537 514.942 821.622 515.361 816.769H503.044C503.462 821.621 503.69 826.53 503.69 831.49C503.686 923.418 430.309 998.241 338.932 1000.56L334.563 1000.62H242.643C110.74 1000.62 3.4 895.337 0.0775484 764.237L0 757.974V666.054C0 584.746 57.4 516.836 133.881 500.617C57.3993 484.398 0.00358404 416.488 0 335.187V243.26C0 109.264 108.647 0.617188 242.643 0.617188H334.57L338.938 0.675349C418.32 2.69238 484.076 59.4165 499.993 134.517C516.205 58.0266 584.122 0.617188 665.437 0.617188H757.357L763.619 0.694736C894.72 4.01719 1000 111.357 1000 243.26V335.187Z" fill="#986DF8"/>
<path d="M169.127 629.276C189.427 629.277 205.904 645.753 205.904 666.054V757.974C205.905 778.274 222.342 794.713 242.643 794.713H334.563C354.864 794.713 371.341 811.19 371.341 831.49C371.34 851.79 354.863 868.267 334.563 868.268H242.643C181.742 868.268 132.35 818.875 132.349 757.974V666.054C132.349 645.753 148.826 629.276 169.127 629.276ZM830.873 629.276C851.174 629.277 867.651 645.753 867.651 666.054V757.974C867.65 818.874 818.258 868.261 757.357 868.261H683.809C663.509 868.261 647.065 851.79 647.064 831.49C647.064 811.19 663.508 794.713 683.809 794.713H757.357C777.657 794.713 794.095 778.274 794.096 757.974V666.054C794.096 645.753 810.573 629.276 830.873 629.276ZM500 316.808C560.901 316.808 610.293 366.166 610.293 427.101C610.293 446.747 605.157 465.186 596.128 481.178C626.767 500.788 647.071 535.083 647.071 574.133V647.681C647.07 667.982 630.594 684.42 610.293 684.42H389.713C369.413 684.42 352.936 667.982 352.936 647.681V574.133C352.936 535.085 373.238 500.79 403.879 481.178C394.848 465.186 389.713 446.747 389.713 427.101C389.713 366.167 439.1 316.809 500 316.808ZM463.223 537.388C442.922 537.388 426.484 553.832 426.484 574.133V610.91H573.516V574.133C573.516 553.832 557.071 537.388 536.771 537.388H463.223ZM500 390.324C479.699 390.324 463.223 406.8 463.223 427.101C463.223 447.401 479.7 463.84 500 463.84C520.3 463.839 536.777 447.401 536.777 427.101C536.777 406.801 520.3 390.324 500 390.324ZM334.563 132.966C354.863 132.967 371.334 149.444 371.334 169.744C371.334 190.043 354.863 206.52 334.563 206.521L242.643 206.515C222.342 206.515 205.898 222.959 205.898 243.26V335.18C205.897 355.48 189.426 371.957 169.127 371.958C148.826 371.958 132.35 355.48 132.349 335.18V243.26C132.349 182.359 181.742 132.966 242.643 132.966H334.563ZM757.357 132.966C818.258 132.967 867.651 182.359 867.651 243.26V335.18C867.65 355.48 851.173 371.951 830.873 371.951C810.573 371.951 794.097 355.48 794.096 335.18V243.26C794.096 222.959 777.657 206.515 757.357 206.515H665.437C645.137 206.515 628.66 190.043 628.659 169.744C628.659 149.443 645.136 132.966 665.437 132.966H757.357Z" fill="#000813"/>
</g>
<defs>
<clipPath id="clip0_262_380">
<rect width="1000" height="1003" fill="white" transform="translate(0 0.617188)"/>
</clipPath>
</defs>
</svg>
