<svg width="1000" height="1001" viewBox="0 0 1000 1001" fill="none" xmlns="http://www.w3.org/2000/svg">
<g clip-path="url(#clip0_320_679)">
<path d="M802.891 3.44305C850.39 12.7279 891.421 43.1547 913.94 86.538C956.837 108.849 987.651 149.588 997.03 197.581L997.808 202.143L998.724 208.104C1004.9 256.725 988.349 305.44 954.068 340.238L953.224 341.088L913.151 381.158C929.579 429.413 938.127 480.234 938.127 531.465C938.127 611.391 917.987 686.748 882.634 752.642C924.326 815.376 916.762 900.774 860.995 955.143L860.997 955.145C860.956 955.185 860.914 955.224 860.873 955.264C860.846 955.291 860.82 955.317 860.793 955.344L860.792 955.343C829.662 985.613 789.216 1000.5 749.555 1000.5C713.72 1000.5 677.892 988.366 648.807 964.699C593.414 987.744 532.67 1000.5 469.094 1000.5H465.709L465.341 1000.48C395.634 999.936 329.436 984.073 270.051 956.162C239.037 985.881 198.967 1000.5 159.666 1000.5C118.145 1000.5 76.4876 984.183 45.3971 952.349L45.3352 952.285L45.2733 952.223C-15.0064 890.332 -14.8408 792.177 44.3403 730.451C15.9364 670.018 0.00488281 602.53 0.00488281 531.462L0.0145264 528.432C1.64898 271.096 211.324 62.4274 469.039 62.4274L471.44 62.4332C522.435 62.689 572.346 71.0922 619.578 87.0544L659.386 47.2467C694.579 11.9962 743.647 -4.4145 792.363 1.75104L797.737 2.35423L802.891 3.44305ZM572.807 137.514C572.837 137.47 572.871 137.421 572.908 137.367C572.921 137.348 572.936 137.327 572.951 137.306L572.956 137.296L572.807 137.514Z" fill="#986DF8"/>
<path d="M750.4 138.267C757.391 131.219 767.195 127.999 777.231 129.594C787.035 131.19 795.505 137.397 799.943 146.302L818.014 182.472L854.184 200.543C863.06 205.009 869.296 213.45 870.891 223.254C872.487 233.058 869.238 243.065 862.219 250.085L794.141 318.161C788.311 323.933 780.479 327.24 772.271 327.24V327.27H716.955L710.816 333.409C710.457 333.806 710.086 334.197 709.703 334.581C709.32 334.963 708.929 335.334 708.532 335.692L645.102 399.122C644.766 399.494 644.42 399.86 644.062 400.219C643.692 400.588 643.315 400.945 642.932 401.292L579.117 465.109C578.889 465.352 578.658 465.593 578.421 465.83C578.18 466.071 577.935 466.305 577.689 466.536L522.844 521.38C523.456 524.651 523.777 528.024 523.777 531.47C523.777 561.665 499.238 586.233 469.043 586.233C438.848 586.233 414.309 561.665 414.309 531.47C414.309 501.275 438.848 476.736 469.043 476.736C472.473 476.736 475.829 477.053 479.084 477.659L509.072 447.67C496.737 441.769 483.137 438.652 469.069 438.652C417.903 438.652 376.251 480.304 376.251 531.47C376.251 582.636 417.903 624.289 469.069 624.289C520.235 624.289 561.888 582.636 561.888 531.47C561.888 514.386 575.724 500.521 592.837 500.521C609.951 500.521 623.787 514.386 623.787 531.47C623.787 616.774 554.375 686.159 469.098 686.159H469.043C383.739 686.159 314.355 616.747 314.355 531.47C314.355 446.166 383.767 376.782 469.043 376.782C499.834 376.782 529.269 385.731 554.358 402.385L576.615 380.127C545.396 357.835 508.139 345.833 469.039 345.833C366.648 345.833 283.401 429.08 283.401 531.47C283.401 633.86 366.648 717.108 469.039 717.108C571.429 717.108 654.676 633.86 654.676 531.47C654.676 508.295 650.093 485.148 641.043 462.697C634.662 446.861 642.349 428.819 658.186 422.437C674.081 416.027 692.065 423.684 698.476 439.551C710.484 469.398 716.575 500.318 716.575 531.471C716.575 667.944 605.542 778.978 469.069 778.978L469.043 778.977C332.57 778.977 221.536 667.943 221.536 531.47C221.537 394.997 332.57 283.963 469.043 283.963C524.698 283.963 577.578 302.217 620.827 335.916L642.867 313.876C593.687 274.44 533.019 253.019 469.069 253.019C315.539 253.019 190.612 377.946 190.612 531.475C190.613 685.034 315.539 809.931 469.069 809.931C622.628 809.931 747.524 685.034 747.525 531.475C747.525 484.311 735.197 437.379 711.876 395.841C703.494 380.961 708.802 362.078 723.74 353.724C738.562 345.342 757.503 350.62 765.856 365.588C794.34 416.348 809.423 473.718 809.423 531.473C809.423 621.148 774.55 702.837 717.656 763.694L771.719 819.296C783.641 831.536 783.351 851.145 771.11 863.037C765.106 868.896 757.303 871.797 749.559 871.797C741.496 871.797 733.432 868.635 727.369 862.428L671.464 804.93C614.861 846.929 544.827 871.799 469.098 871.799L469.043 871.796C386.806 871.796 311.283 842.468 252.385 793.724C251.998 794.144 251.598 794.557 251.183 794.96L181.221 863.037C175.217 868.896 167.414 871.797 159.67 871.797C151.636 871.797 143.543 868.635 137.48 862.428C125.559 850.188 125.849 830.579 138.09 818.687L208.052 750.61C208.201 750.465 208.351 750.322 208.502 750.18C158.733 690.99 128.718 614.666 128.718 531.47C128.718 343.828 281.401 191.145 469.043 191.145C543.677 191.145 614.656 214.998 673.245 259.127V228.243C673.245 223.324 674.393 218.673 676.435 214.542C676.449 214.514 676.462 214.486 676.476 214.459C676.68 214.049 676.892 213.644 677.114 213.245C677.147 213.186 677.181 213.127 677.214 213.067C677.311 212.895 677.41 212.724 677.51 212.554C677.535 212.511 677.56 212.469 677.586 212.426C677.691 212.249 677.798 212.073 677.907 211.898C677.925 211.869 677.943 211.84 677.961 211.81C678.078 211.623 678.198 211.438 678.32 211.253C678.349 211.209 678.379 211.165 678.409 211.12C678.518 210.956 678.628 210.793 678.74 210.631C678.765 210.594 678.79 210.558 678.816 210.522C679.899 208.972 681.122 207.526 682.465 206.202L750.4 138.267ZM735.143 241.006V265.371H759.45L788.108 236.713L781.117 233.203C775.142 230.216 770.269 225.343 767.281 219.367L763.772 212.377L735.143 241.006Z" fill="#000813"/>
</g>
<defs>
<clipPath id="clip0_320_679">
<rect width="1000" height="1000" fill="white" transform="translate(0 0.488281)"/>
</clipPath>
</defs>
</svg>
