<svg width="1000" height="1238" viewBox="0 0 1000 1238" fill="none" xmlns="http://www.w3.org/2000/svg">
<g clip-path="url(#clip0_344_361)">
<path d="M999.995 521.65C999.14 747.117 889.459 921.674 792.705 1032.47L792.688 1032.49L792.671 1032.51C743.338 1088.95 694.317 1132.48 657.411 1162.09C638.948 1176.95 623.184 1188.56 611.375 1196.85C608.162 1199.13 605.193 1201.19 602.505 1203.03L597.148 1208.39L583.268 1215.33C530.025 1245.64 464.71 1244.43 412.711 1212.99L412.229 1212.7L411.749 1212.4L411.541 1212.27L410.491 1211.67L409.514 1211.02L398.988 1204.52L397.494 1203.03C394.885 1201.25 392.009 1199.25 388.901 1197.05L386.633 1195.45C375.063 1187.27 360.027 1176.13 342.584 1162.09C305.664 1132.48 256.646 1088.94 207.323 1032.5L207.308 1032.49L207.293 1032.47C110.546 921.674 0.860636 747.119 0.00493213 521.651L0 518.996C0 241.6 215.181 0.574228 500 0.574219C784.818 0.574219 1000 241.6 1000 518.996L999.995 521.65Z" fill="#986DF8"/>
<path d="M500.001 112.389C711.566 112.389 878.789 292.658 878.789 509.598C878.789 695.73 788.279 843.863 701.406 943.343C657.721 993.324 614.13 1032.03 581.414 1058.27C565.033 1071.45 551.316 1081.53 541.506 1088.41C536.623 1091.87 532.717 1094.53 529.964 1096.35C528.589 1097.29 527.479 1098 526.68 1098.48L525.747 1099.11L525.437 1099.28L525.348 1099.37L525.259 1099.42C510.097 1109.03 490.761 1109.14 475.425 1099.87L474.698 1099.42L474.565 1099.28L474.254 1099.11L473.322 1098.48C472.523 1098 471.413 1097.29 470.037 1096.35C467.285 1094.53 463.379 1091.87 458.496 1088.41C448.685 1081.53 434.968 1071.45 418.588 1058.27C385.867 1032.04 342.276 993.326 298.595 943.343C211.726 843.862 121.213 695.73 121.213 509.598C121.213 292.658 288.435 112.389 500.001 112.389ZM500.006 207.075C345.477 207.075 215.904 340.069 215.904 509.598C215.904 663.99 291.098 790.777 369.936 881.068C409.133 925.904 448.421 960.795 477.852 984.455C486.107 991.069 493.566 996.795 500.003 1001.59C506.439 996.795 513.897 991.069 522.153 984.455C551.585 960.794 590.871 925.902 630.068 881.068C708.91 790.769 784.108 663.99 784.108 509.598C784.108 340.069 654.534 207.075 500.006 207.075ZM500.001 396.491C552.293 396.491 594.687 438.886 594.687 491.178C594.687 543.469 552.294 585.863 500.001 585.863C447.709 585.862 405.316 543.469 405.316 491.178C405.316 438.886 447.709 396.492 500.001 396.491Z" fill="#000813"/>
</g>
<defs>
<clipPath id="clip0_344_361">
<rect width="1000" height="1236.76" fill="white" transform="translate(0 0.574219)"/>
</clipPath>
</defs>
</svg>
