<svg xmlns="http://www.w3.org/2000/svg" xmlns:xlink="http://www.w3.org/1999/xlink" width="1000" zoomAndPan="magnify" viewBox="0 0 750 974.999993" height="1300" preserveAspectRatio="xMidYMid meet" version="1.0"><defs><g/><clipPath id="5cec6d01da"><path d="M 0 0 L 749.019531 0 L 749.019531 965 L 0 965 Z M 0 0 " clip-rule="nonzero"/></clipPath><clipPath id="b3e249bd09"><path d="M 67.5 0 L 681.519531 0 C 718.796875 0 749.019531 30.222656 749.019531 67.5 L 749.019531 897.0625 C 749.019531 934.339844 718.796875 964.5625 681.519531 964.5625 L 67.5 964.5625 C 30.222656 964.5625 0 934.339844 0 897.0625 L 0 67.5 C 0 30.222656 30.222656 0 67.5 0 Z M 67.5 0 " clip-rule="nonzero"/></clipPath><clipPath id="ab4293a134"><path d="M 0 0 L 749.019531 0 L 749.019531 964.800781 L 0 964.800781 Z M 0 0 " clip-rule="nonzero"/></clipPath><clipPath id="880c915417"><path d="M 67.5 0 L 681.519531 0 C 718.796875 0 749.019531 30.222656 749.019531 67.5 L 749.019531 897.0625 C 749.019531 934.339844 718.796875 964.5625 681.519531 964.5625 L 67.5 964.5625 C 30.222656 964.5625 0 934.339844 0 897.0625 L 0 67.5 C 0 30.222656 30.222656 0 67.5 0 Z M 67.5 0 " clip-rule="nonzero"/></clipPath><clipPath id="30d1514ebe"><rect x="0" width="750" y="0" height="965"/></clipPath><clipPath id="7a32309ef7"><path d="M 0.980469 780.449219 L 750 780.449219 L 750 836.746094 L 0.980469 836.746094 Z M 0.980469 780.449219 " clip-rule="nonzero"/></clipPath><clipPath id="a65d4de227"><path d="M 0.980469 0.449219 L 750 0.449219 L 750 56.746094 L 0.980469 56.746094 Z M 0.980469 0.449219 " clip-rule="nonzero"/></clipPath><clipPath id="94ed58e257"><rect x="0" width="750" y="0" height="57"/></clipPath><clipPath id="5b24dab79b"><path d="M 55.71875 75.085938 L 693.214844 75.085938 L 693.214844 712.699219 L 55.71875 712.699219 Z M 55.71875 75.085938 " clip-rule="nonzero"/></clipPath></defs><rect x="-75" width="900" fill="#ffffff" y="-97.499999" height="1169.999992" fill-opacity="1"/><rect x="-75" width="900" fill="#ffffff" y="-97.499999" height="1169.999992" fill-opacity="1"/><g clip-path="url(#5cec6d01da)"><g clip-path="url(#b3e249bd09)"><g transform="matrix(1, 0, 0, 1, 0, 0.000000000000064448)"><g clip-path="url(#30d1514ebe)"><g clip-path="url(#ab4293a134)"><g clip-path="url(#880c915417)"><path fill="#000813" d="M 0 0 L 749.019531 0 L 749.019531 965.53125 L 0 965.53125 Z M 0 0 " fill-opacity="1" fill-rule="nonzero"/></g></g></g></g></g></g><g clip-path="url(#7a32309ef7)"><g transform="matrix(1, 0, 0, 1, 0, 780)"><g clip-path="url(#94ed58e257)"><g clip-path="url(#a65d4de227)"><path fill="#986df8" d="M 0.980469 0.449219 L 750.007812 0.449219 L 750.007812 56.746094 L 0.980469 56.746094 Z M 0.980469 0.449219 " fill-opacity="1" fill-rule="nonzero"/></g></g></g></g><g clip-path="url(#5b24dab79b)"><path fill="#dfff03" d="M 374.472656 75.085938 C 429.835938 75.085938 484.480469 89.5 532.515625 116.984375 C 579.445312 143.796875 618.9375 182.335938 646.964844 228.40625 C 649.78125 232.972656 652.394531 237.53125 654.8125 242.003906 C 655.015625 242.382812 655.214844 242.761719 655.414062 243.144531 C 680.164062 289.367188 693.214844 341.378906 693.214844 393.894531 L 693.214844 394.777344 C 693.214844 394.875 693.214844 394.972656 693.214844 395.070312 C 692.789062 507.609375 632.261719 612.449219 535.199219 669.242188 C 535.191406 669.246094 535.183594 669.25 535.175781 669.253906 C 486.503906 697.710938 430.914062 712.703125 374.464844 712.703125 C 318.003906 712.703125 262.414062 697.726562 213.761719 669.257812 C 116.679688 612.511719 56.148438 507.707031 55.71875 395.164062 C 55.71875 395.0625 55.71875 394.964844 55.71875 394.867188 L 55.71875 393.890625 C 55.71875 340.941406 68.984375 288.484375 94.160156 241.992188 C 94.277344 241.777344 94.398438 241.558594 94.515625 241.34375 C 96.816406 237.195312 99.265625 232.929688 101.863281 228.636719 L 101.917969 228.546875 C 129.960938 182.378906 169.472656 143.8125 216.425781 116.984375 C 264.460938 89.503906 319.101562 75.085938 374.472656 75.085938 Z M 374.472656 75.085938 " fill-opacity="1" fill-rule="nonzero"/></g><path fill="#000813" d="M 525.402344 302.355469 C 509.847656 276.761719 487.882812 255.398438 461.96875 240.578125 C 457.695312 238.117188 452.636719 237.46875 447.851562 238.765625 C 443.070312 240.066406 439.03125 243.226562 436.613281 247.5 L 389.109375 330.730469 C 379.496094 328.59375 369.417969 328.546875 359.804688 330.683594 L 312.347656 247.5 C 309.886719 243.226562 305.847656 240.070312 301.109375 238.769531 C 296.328125 237.46875 291.265625 238.117188 286.992188 240.582031 C 261.082031 255.398438 239.117188 276.761719 223.464844 302.492188 C 222.023438 304.90625 220.628906 307.277344 219.238281 309.785156 C 205.351562 335.5625 198.015625 364.636719 198.015625 393.894531 L 198.015625 394.5 C 198.015625 399.421875 199.964844 404.160156 203.496094 407.644531 C 206.976562 411.128906 211.714844 413.078125 216.589844 413.078125 L 216.636719 413.078125 L 312.300781 412.707031 C 315.226562 422.226562 320.242188 431.007812 327.066406 438.296875 L 278.910156 520.921875 C 273.757812 529.75 276.726562 541.128906 285.550781 546.328125 C 312.390625 562.074219 343.179688 570.386719 374.480469 570.386719 C 405.730469 570.386719 436.523438 562.074219 463.410156 546.328125 C 472.277344 541.171875 475.25 529.792969 470.09375 520.921875 L 421.894531 438.296875 C 428.671875 431.007812 433.734375 422.273438 436.613281 412.707031 L 532.277344 413.078125 L 532.324219 413.078125 C 537.246094 413.078125 541.9375 411.128906 545.417969 407.644531 C 548.902344 404.160156 550.898438 399.421875 550.898438 394.5 L 550.898438 393.894531 C 550.898438 364.636719 543.5625 335.558594 529.582031 309.738281 C 528.328125 307.277344 526.890625 304.910156 525.402344 302.355469 Z M 388.277344 369.652344 C 396.960938 374.621094 402.347656 383.867188 402.347656 394.039062 C 402.253906 403.882812 397.003906 413.035156 388.460938 418.003906 C 380.011719 422.972656 368.957031 423.019531 360.414062 418.003906 C 351.867188 412.941406 346.667969 403.976562 346.621094 393.898438 C 346.621094 384.144531 351.730469 375.085938 360.042969 370.070312 C 360.089844 370.023438 360.132812 370.023438 360.179688 369.976562 C 360.367188 369.886719 360.550781 369.792969 360.738281 369.652344 C 369.144531 364.871094 379.871094 364.914062 388.277344 369.652344 Z M 251.933594 327.480469 C 253.046875 325.484375 254.207031 323.484375 255.273438 321.675781 C 264.332031 306.765625 276.125 293.667969 289.917969 283.125 L 327.484375 348.984375 C 327.347656 349.121094 327.253906 349.308594 327.113281 349.449219 C 325.535156 351.121094 324.050781 352.886719 322.703125 354.695312 C 322.515625 354.929688 322.378906 355.160156 322.238281 355.347656 C 320.84375 357.25 319.5 359.25 318.335938 361.292969 C 318.289062 361.386719 318.246094 361.429688 318.246094 361.523438 C 317.082031 363.523438 316.0625 365.566406 315.132812 367.703125 C 314.992188 367.980469 314.855469 368.257812 314.761719 368.585938 C 313.878906 370.628906 313.136719 372.71875 312.488281 374.855469 C 312.394531 375.085938 312.300781 375.320312 312.207031 375.597656 L 236.375 375.875 C 238.464844 358.96875 243.710938 342.714844 251.933594 327.480469 Z M 320.9375 522.550781 L 359.109375 457.105469 C 359.339844 457.152344 359.617188 457.199219 359.851562 457.246094 C 362.035156 457.757812 364.214844 458.128906 366.398438 458.40625 C 366.675781 458.453125 366.957031 458.453125 367.234375 458.5 C 369.648438 458.730469 372.0625 458.917969 374.480469 458.917969 C 376.894531 458.917969 379.261719 458.730469 381.628906 458.5 C 381.957031 458.453125 382.234375 458.453125 382.558594 458.40625 C 384.789062 458.128906 386.972656 457.710938 389.152344 457.246094 C 389.386719 457.199219 389.617188 457.152344 389.851562 457.105469 L 428.023438 522.550781 C 394.214844 536.625 354.652344 536.578125 320.9375 522.550781 Z M 436.84375 375.546875 C 436.796875 375.359375 436.703125 375.222656 436.660156 375.035156 C 435.960938 372.757812 435.171875 370.574219 434.289062 368.394531 C 434.242188 368.253906 434.152344 368.066406 434.058594 367.929688 C 433.082031 365.699219 432.015625 363.515625 430.808594 361.378906 L 430.761719 361.332031 C 429.554688 359.242188 428.207031 357.246094 426.8125 355.296875 C 426.675781 355.109375 426.535156 354.878906 426.347656 354.691406 C 424.957031 352.832031 423.46875 351.117188 421.890625 349.398438 C 421.753906 349.257812 421.660156 349.117188 421.519531 348.980469 L 459.042969 283.167969 C 472.785156 293.710938 484.582031 306.761719 493.589844 321.578125 C 494.75 323.527344 495.957031 325.523438 497.027344 327.476562 C 505.292969 342.757812 510.539062 358.964844 512.675781 375.871094 Z M 586.835938 278.753906 C 584.976562 275.316406 583.027344 271.925781 580.984375 268.628906 C 559.714844 233.65625 529.71875 204.390625 494.191406 184.09375 C 457.921875 163.332031 416.5 152.371094 374.472656 152.371094 C 332.441406 152.371094 291.023438 163.335938 254.753906 184.09375 C 219.226562 204.394531 189.234375 233.652344 167.957031 268.675781 C 165.960938 271.972656 164.011719 275.363281 162.109375 278.800781 C 143.070312 313.960938 132.992188 353.761719 132.992188 393.894531 L 132.992188 394.867188 C 133.316406 480 179.242188 559.566406 252.75 602.53125 C 289.484375 624.035156 331.605469 635.414062 374.46875 635.414062 C 417.28125 635.414062 459.402344 624.035156 496.183594 602.53125 C 569.691406 559.519531 615.621094 479.914062 615.941406 394.777344 L 615.941406 393.894531 C 615.941406 353.765625 605.867188 313.964844 586.828125 278.757812 Z M 578.800781 394.683594 C 578.523438 466.671875 539.65625 534.023438 477.425781 570.433594 C 446.3125 588.640625 410.742188 598.253906 374.476562 598.253906 C 338.210938 598.253906 302.589844 588.640625 271.527344 570.433594 C 209.296875 534.066406 170.429688 466.71875 170.152344 394.773438 L 170.152344 393.890625 C 170.152344 359.9375 178.648438 326.214844 194.761719 296.492188 C 196.339844 293.566406 198.011719 290.730469 199.730469 287.898438 C 217.75 258.265625 243.152344 233.511719 273.242188 216.277344 C 303.890625 198.816406 338.90625 189.527344 374.472656 189.527344 C 410.042969 189.527344 445.058594 198.816406 475.707031 216.324219 C 505.796875 233.554688 531.199219 258.3125 549.214844 287.898438 C 550.933594 290.730469 552.558594 293.5625 554.136719 296.445312 C 570.296875 326.261719 578.796875 359.9375 578.796875 393.890625 Z M 578.800781 394.683594 " fill-opacity="1" fill-rule="nonzero"/><g fill="#ffffff" fill-opacity="1"><g transform="translate(27.161184, 906.387408)"><g><path d="M 22.3125 -21.84375 C 22.28125 -19.738281 22.601562 -18.019531 23.28125 -16.6875 C 23.957031 -15.363281 24.882812 -14.394531 26.0625 -13.78125 C 27.238281 -13.164062 28.539062 -12.859375 29.96875 -12.859375 C 31.769531 -12.859375 33.394531 -13.195312 34.84375 -13.875 C 36.289062 -14.5625 37.421875 -15.925781 38.234375 -17.96875 L 55.796875 -17.96875 C 55.253906 -14.050781 53.707031 -10.671875 51.15625 -7.828125 C 48.601562 -4.992188 45.492188 -2.8125 41.828125 -1.28125 C 38.171875 0.25 34.390625 1.015625 30.484375 1.015625 C 25.003906 1.015625 20.175781 -0.0976562 16 -2.328125 C 11.832031 -4.554688 8.59375 -7.675781 6.28125 -11.6875 C 3.96875 -15.707031 2.8125 -20.390625 2.8125 -25.734375 C 2.8125 -30.765625 3.875 -35.40625 6 -39.65625 C 8.125 -43.914062 11.1875 -47.335938 15.1875 -49.921875 C 19.1875 -52.515625 24.007812 -53.8125 29.65625 -53.8125 C 35.414062 -53.8125 40.21875 -52.617188 44.0625 -50.234375 C 47.90625 -47.847656 50.785156 -44.585938 52.703125 -40.453125 C 54.628906 -36.316406 55.59375 -31.648438 55.59375 -26.453125 L 55.59375 -21.84375 Z M 22.203125 -32.984375 L 37.265625 -32.984375 C 37.265625 -34.304688 36.972656 -35.535156 36.390625 -36.671875 C 35.816406 -37.816406 34.96875 -38.726562 33.84375 -39.40625 C 32.726562 -40.09375 31.332031 -40.4375 29.65625 -40.4375 C 28.300781 -40.4375 27.0625 -40.09375 25.9375 -39.40625 C 24.8125 -38.726562 23.90625 -37.816406 23.21875 -36.671875 C 22.539062 -35.535156 22.203125 -34.304688 22.203125 -32.984375 Z M 22.203125 -32.984375 "/></g></g></g><g fill="#ffffff" fill-opacity="1"><g transform="translate(78.111308, 906.387408)"><g><path d="M 61.671875 0 L 41.25 0 L 31.140625 -13.984375 L 20.9375 0 L 0.515625 0 L 20.734375 -27.5625 L 2.34375 -52.796875 L 22.765625 -52.796875 L 31.25 -41.359375 L 39.625 -52.796875 L 60.046875 -52.796875 L 41.453125 -27.5625 Z M 61.671875 0 "/></g></g></g><g fill="#ffffff" fill-opacity="1"><g transform="translate(137.23019, 906.387408)"><g><path d="M 5.109375 16.4375 L 5.109375 -52.796875 L 25.0625 -52.796875 L 25.0625 -46.65625 C 26.050781 -48.019531 27.179688 -49.160156 28.453125 -50.078125 C 29.734375 -51.003906 31.070312 -51.738281 32.46875 -52.28125 C 33.863281 -52.820312 35.257812 -53.210938 36.65625 -53.453125 C 38.050781 -53.691406 39.363281 -53.8125 40.59375 -53.8125 C 44.269531 -53.8125 47.570312 -52.835938 50.5 -50.890625 C 53.425781 -48.953125 55.738281 -45.96875 57.4375 -41.9375 C 59.132812 -37.90625 59.984375 -32.773438 59.984375 -26.546875 C 59.984375 -19.835938 58.96875 -14.46875 56.9375 -10.4375 C 54.914062 -6.40625 52.265625 -3.488281 48.984375 -1.6875 C 45.703125 0.113281 42.1875 1.015625 38.4375 1.015625 C 37.351562 1.015625 36.207031 0.878906 35 0.609375 C 33.789062 0.335938 32.582031 -0.09375 31.375 -0.6875 C 30.164062 -1.28125 29.015625 -2.046875 27.921875 -2.984375 C 26.835938 -3.921875 25.851562 -5.070312 24.96875 -6.4375 L 24.96875 16.4375 Z M 33.234375 -13.171875 C 35.453125 -13.171875 37.398438 -14.21875 39.078125 -16.3125 C 40.765625 -18.40625 41.609375 -21.816406 41.609375 -26.546875 C 41.609375 -30.835938 40.765625 -34.125 39.078125 -36.40625 C 37.398438 -38.6875 35.453125 -39.828125 33.234375 -39.828125 C 30.335938 -39.828125 28.234375 -38.503906 26.921875 -35.859375 C 25.617188 -33.222656 24.96875 -30.117188 24.96875 -26.546875 C 24.96875 -24.398438 25.253906 -22.296875 25.828125 -20.234375 C 26.410156 -18.179688 27.304688 -16.488281 28.515625 -15.15625 C 29.722656 -13.832031 31.296875 -13.171875 33.234375 -13.171875 Z M 33.234375 -13.171875 "/></g></g></g><g fill="#ffffff" fill-opacity="1"><g transform="translate(196.706448, 906.387408)"><g><path d="M 29.3125 1.015625 C 23.863281 1.015625 19.140625 -0.140625 15.140625 -2.453125 C 11.140625 -4.765625 8.039062 -7.953125 5.84375 -12.015625 C 3.644531 -16.085938 2.546875 -20.757812 2.546875 -26.03125 C 2.546875 -31.582031 3.691406 -36.441406 5.984375 -40.609375 C 8.285156 -44.785156 11.453125 -48.03125 15.484375 -50.34375 C 19.523438 -52.65625 24.164062 -53.8125 29.40625 -53.8125 C 34.914062 -53.8125 39.671875 -52.609375 43.671875 -50.203125 C 47.671875 -47.804688 50.75 -44.515625 52.90625 -40.328125 C 55.070312 -36.140625 56.15625 -31.375 56.15625 -26.03125 C 56.15625 -20.789062 55.054688 -16.132812 52.859375 -12.0625 C 50.671875 -8 47.566406 -4.800781 43.546875 -2.46875 C 39.535156 -0.144531 34.789062 1.015625 29.3125 1.015625 Z M 29.40625 -13.375 C 31.519531 -13.375 33.113281 -14.097656 34.1875 -15.546875 C 35.257812 -16.992188 35.972656 -18.753906 36.328125 -20.828125 C 36.679688 -22.898438 36.859375 -24.875 36.859375 -26.75 C 36.859375 -28.65625 36.679688 -30.601562 36.328125 -32.59375 C 35.972656 -34.582031 35.257812 -36.25 34.1875 -37.59375 C 33.113281 -38.945312 31.519531 -39.625 29.40625 -39.625 C 27.257812 -39.625 25.648438 -38.945312 24.578125 -37.59375 C 23.503906 -36.25 22.78125 -34.582031 22.40625 -32.59375 C 22.03125 -30.601562 21.84375 -28.65625 21.84375 -26.75 C 21.84375 -24.875 22.03125 -22.898438 22.40625 -20.828125 C 22.78125 -18.753906 23.503906 -16.992188 24.578125 -15.546875 C 25.648438 -14.097656 27.257812 -13.375 29.40625 -13.375 Z M 29.40625 -13.375 "/></g></g></g><g fill="#ffffff" fill-opacity="1"><g transform="translate(252.353754, 906.387408)"><g><path d="M 27.875 1.015625 C 24.195312 1.015625 20.550781 0.390625 16.9375 -0.859375 C 13.332031 -2.117188 10.21875 -4.128906 7.59375 -6.890625 C 4.976562 -9.648438 3.296875 -13.273438 2.546875 -17.765625 L 19.40625 -17.765625 C 19.84375 -16.066406 20.625 -14.804688 21.75 -13.984375 C 22.875 -13.171875 24.015625 -12.644531 25.171875 -12.40625 C 26.328125 -12.164062 27.195312 -12.046875 27.78125 -12.046875 C 29.988281 -12.046875 31.769531 -12.304688 33.125 -12.828125 C 34.488281 -13.359375 35.171875 -14.15625 35.171875 -15.21875 C 35.171875 -16.195312 34.710938 -16.96875 33.796875 -17.53125 C 32.878906 -18.09375 31.226562 -18.546875 28.84375 -18.890625 L 21.03125 -20.109375 C 16 -21.035156 11.929688 -22.773438 8.828125 -25.328125 C 5.734375 -27.878906 4.148438 -31.519531 4.078125 -36.25 C 4.046875 -39.519531 4.957031 -42.476562 6.8125 -45.125 C 8.664062 -47.78125 11.390625 -49.890625 14.984375 -51.453125 C 18.578125 -53.023438 22.941406 -53.8125 28.078125 -53.8125 C 35.296875 -53.8125 41.015625 -52.242188 45.234375 -49.109375 C 49.453125 -45.984375 51.5625 -41.726562 51.5625 -36.34375 L 35.375 -36.34375 C 35 -37.945312 34.097656 -39.128906 32.671875 -39.890625 C 31.242188 -40.660156 29.628906 -41.046875 27.828125 -41.046875 C 25.984375 -41.046875 24.421875 -40.773438 23.140625 -40.234375 C 21.867188 -39.691406 21.234375 -38.90625 21.234375 -37.875 C 21.234375 -36.957031 21.847656 -36.21875 23.078125 -35.65625 C 24.304688 -35.09375 26.332031 -34.578125 29.15625 -34.109375 L 35.9375 -32.875 C 39.34375 -32.0625 42.09375 -30.957031 44.1875 -29.5625 C 46.28125 -28.164062 47.878906 -26.660156 48.984375 -25.046875 C 50.085938 -23.429688 50.84375 -21.847656 51.25 -20.296875 C 51.664062 -18.742188 51.875 -17.425781 51.875 -16.34375 C 51.875 -12.5625 50.804688 -9.382812 48.671875 -6.8125 C 46.546875 -4.25 43.671875 -2.300781 40.046875 -0.96875 C 36.421875 0.351562 32.363281 1.015625 27.875 1.015625 Z M 27.875 1.015625 "/></g></g></g><g fill="#ffffff" fill-opacity="1"><g transform="translate(303.967864, 906.387408)"><g><path d="M 24.5625 1.015625 C 22.414062 1.015625 20.179688 0.648438 17.859375 -0.078125 C 15.546875 -0.804688 13.382812 -1.882812 11.375 -3.3125 C 9.375 -4.75 7.742188 -6.492188 6.484375 -8.546875 C 5.222656 -10.609375 4.59375 -12.96875 4.59375 -15.625 L 4.59375 -52.796875 L 24.5 -52.796875 L 24.5 -18.375 C 24.5 -16.84375 25.0625 -15.554688 26.1875 -14.515625 C 27.3125 -13.484375 28.878906 -12.96875 30.890625 -12.96875 C 32.898438 -12.96875 34.472656 -13.484375 35.609375 -14.515625 C 36.753906 -15.554688 37.328125 -16.84375 37.328125 -18.375 L 37.328125 -52.796875 L 57.03125 -52.796875 L 57.03125 0 L 42.328125 0 L 39.96875 -10.828125 C 39.320312 -7.316406 38.097656 -4.71875 36.296875 -3.03125 C 34.492188 -1.351562 32.507812 -0.257812 30.34375 0.25 C 28.1875 0.757812 26.257812 1.015625 24.5625 1.015625 Z M 24.5625 1.015625 "/></g></g></g><g fill="#ffffff" fill-opacity="1"><g transform="translate(362.52515, 906.387408)"><g><path d="M 5.109375 0 L 5.109375 -52.796875 L 24.296875 -52.796875 L 24.296875 -38.1875 C 25.117188 -41.007812 26.285156 -43.601562 27.796875 -45.96875 C 29.316406 -48.332031 31.25 -50.226562 33.59375 -51.65625 C 35.9375 -53.09375 38.742188 -53.8125 42.015625 -53.8125 C 42.253906 -53.8125 42.441406 -53.8125 42.578125 -53.8125 C 42.710938 -53.8125 42.78125 -53.8125 42.78125 -53.8125 L 42.78125 -35.03125 C 42.675781 -35.0625 42.582031 -35.078125 42.5 -35.078125 C 42.414062 -35.078125 42.289062 -35.09375 42.125 -35.125 C 38.414062 -35.5 35.425781 -35.460938 33.15625 -35.015625 C 30.894531 -34.578125 29.164062 -33.851562 27.96875 -32.84375 C 26.78125 -31.84375 25.984375 -30.6875 25.578125 -29.375 C 25.171875 -28.070312 24.96875 -26.722656 24.96875 -25.328125 L 24.96875 0 Z M 5.109375 0 "/></g></g></g><g fill="#ffffff" fill-opacity="1"><g transform="translate(403.265062, 906.387408)"><g><path d="M 22.3125 -21.84375 C 22.28125 -19.738281 22.601562 -18.019531 23.28125 -16.6875 C 23.957031 -15.363281 24.882812 -14.394531 26.0625 -13.78125 C 27.238281 -13.164062 28.539062 -12.859375 29.96875 -12.859375 C 31.769531 -12.859375 33.394531 -13.195312 34.84375 -13.875 C 36.289062 -14.5625 37.421875 -15.925781 38.234375 -17.96875 L 55.796875 -17.96875 C 55.253906 -14.050781 53.707031 -10.671875 51.15625 -7.828125 C 48.601562 -4.992188 45.492188 -2.8125 41.828125 -1.28125 C 38.171875 0.25 34.390625 1.015625 30.484375 1.015625 C 25.003906 1.015625 20.175781 -0.0976562 16 -2.328125 C 11.832031 -4.554688 8.59375 -7.675781 6.28125 -11.6875 C 3.96875 -15.707031 2.8125 -20.390625 2.8125 -25.734375 C 2.8125 -30.765625 3.875 -35.40625 6 -39.65625 C 8.125 -43.914062 11.1875 -47.335938 15.1875 -49.921875 C 19.1875 -52.515625 24.007812 -53.8125 29.65625 -53.8125 C 35.414062 -53.8125 40.21875 -52.617188 44.0625 -50.234375 C 47.90625 -47.847656 50.785156 -44.585938 52.703125 -40.453125 C 54.628906 -36.316406 55.59375 -31.648438 55.59375 -26.453125 L 55.59375 -21.84375 Z M 22.203125 -32.984375 L 37.265625 -32.984375 C 37.265625 -34.304688 36.972656 -35.535156 36.390625 -36.671875 C 35.816406 -37.816406 34.96875 -38.726562 33.84375 -39.40625 C 32.726562 -40.09375 31.332031 -40.4375 29.65625 -40.4375 C 28.300781 -40.4375 27.0625 -40.09375 25.9375 -39.40625 C 24.8125 -38.726562 23.90625 -37.816406 23.21875 -36.671875 C 22.539062 -35.535156 22.203125 -34.304688 22.203125 -32.984375 Z M 22.203125 -32.984375 "/></g></g></g><g fill="#ffffff" fill-opacity="1"><g transform="translate(458.810241, 906.387408)"><g/></g></g><g fill="#ffffff" fill-opacity="1"><g transform="translate(475.708494, 906.387408)"><g><path d="M 21.03125 1.015625 C 17.726562 1.015625 14.691406 0.367188 11.921875 -0.921875 C 9.148438 -2.210938 6.9375 -4.109375 5.28125 -6.609375 C 3.632812 -9.109375 2.8125 -12.179688 2.8125 -15.828125 C 2.8125 -21.546875 5.082031 -25.988281 9.625 -29.15625 C 14.164062 -32.320312 21.238281 -33.90625 30.84375 -33.90625 L 34.921875 -33.90625 L 34.921875 -36.140625 C 34.921875 -37.847656 34.453125 -39.09375 33.515625 -39.875 C 32.578125 -40.65625 31.101562 -41.015625 29.09375 -40.953125 C 27.738281 -40.910156 26.242188 -40.582031 24.609375 -39.96875 C 22.972656 -39.363281 21.75 -38.15625 20.9375 -36.34375 L 4.84375 -36.34375 C 5.050781 -40.5 6.296875 -43.859375 8.578125 -46.421875 C 10.859375 -48.992188 13.867188 -50.867188 17.609375 -52.046875 C 21.359375 -53.222656 25.492188 -53.8125 30.015625 -53.8125 C 36.140625 -53.8125 40.9375 -53.113281 44.40625 -51.71875 C 47.882812 -50.320312 50.335938 -48.390625 51.765625 -45.921875 C 53.191406 -43.453125 53.90625 -40.601562 53.90625 -37.375 L 53.90625 0 L 37.46875 0 L 35.734375 -8.375 C 34.171875 -4.800781 32.234375 -2.34375 29.921875 -1 C 27.609375 0.34375 24.644531 1.015625 21.03125 1.015625 Z M 28.03125 -11.53125 C 28.976562 -11.53125 29.867188 -11.703125 30.703125 -12.046875 C 31.535156 -12.390625 32.257812 -12.859375 32.875 -13.453125 C 33.488281 -14.046875 33.972656 -14.71875 34.328125 -15.46875 C 34.691406 -16.21875 34.890625 -17.019531 34.921875 -17.875 L 34.921875 -24.5 L 31.75 -24.5 C 30.695312 -24.5 29.351562 -24.300781 27.71875 -23.90625 C 26.082031 -23.519531 24.625 -22.847656 23.34375 -21.890625 C 22.070312 -20.941406 21.4375 -19.601562 21.4375 -17.875 C 21.4375 -15.894531 22.109375 -14.34375 23.453125 -13.21875 C 24.796875 -12.09375 26.320312 -11.53125 28.03125 -11.53125 Z M 28.03125 -11.53125 "/></g></g></g><g fill="#ffffff" fill-opacity="1"><g transform="translate(531.559963, 906.387408)"><g><path d="M 24.5625 1.015625 C 22.414062 1.015625 20.179688 0.648438 17.859375 -0.078125 C 15.546875 -0.804688 13.382812 -1.882812 11.375 -3.3125 C 9.375 -4.75 7.742188 -6.492188 6.484375 -8.546875 C 5.222656 -10.609375 4.59375 -12.96875 4.59375 -15.625 L 4.59375 -52.796875 L 24.5 -52.796875 L 24.5 -18.375 C 24.5 -16.84375 25.0625 -15.554688 26.1875 -14.515625 C 27.3125 -13.484375 28.878906 -12.96875 30.890625 -12.96875 C 32.898438 -12.96875 34.472656 -13.484375 35.609375 -14.515625 C 36.753906 -15.554688 37.328125 -16.84375 37.328125 -18.375 L 37.328125 -52.796875 L 57.03125 -52.796875 L 57.03125 0 L 42.328125 0 L 39.96875 -10.828125 C 39.320312 -7.316406 38.097656 -4.71875 36.296875 -3.03125 C 34.492188 -1.351562 32.507812 -0.257812 30.34375 0.25 C 28.1875 0.757812 26.257812 1.015625 24.5625 1.015625 Z M 24.5625 1.015625 "/></g></g></g><g fill="#ffffff" fill-opacity="1"><g transform="translate(590.117226, 906.387408)"><g><path d="M 25.21875 1.015625 C 17.9375 1.015625 12.335938 -1.507812 8.421875 -6.5625 C 4.503906 -11.613281 2.546875 -18.34375 2.546875 -26.75 C 2.546875 -32.300781 3.351562 -37.097656 4.96875 -41.140625 C 6.59375 -45.191406 8.9375 -48.316406 12 -50.515625 C 15.0625 -52.710938 18.753906 -53.8125 23.078125 -53.8125 C 24.398438 -53.8125 25.742188 -53.691406 27.109375 -53.453125 C 28.472656 -53.210938 29.804688 -52.828125 31.109375 -52.296875 C 32.421875 -51.773438 33.640625 -51.0625 34.765625 -50.15625 C 35.890625 -49.257812 36.859375 -48.128906 37.671875 -46.765625 L 37.671875 -75.875 L 57.59375 -75.875 L 57.59375 0 L 43.546875 0 L 41.203125 -10.828125 C 40.585938 -8.984375 39.8125 -7.328125 38.875 -5.859375 C 37.9375 -4.398438 36.8125 -3.160156 35.5 -2.140625 C 34.195312 -1.117188 32.691406 -0.335938 30.984375 0.203125 C 29.285156 0.742188 27.363281 1.015625 25.21875 1.015625 Z M 29.921875 -12.859375 C 32.234375 -12.859375 34.101562 -13.867188 35.53125 -15.890625 C 36.957031 -17.921875 37.671875 -21.539062 37.671875 -26.75 C 37.671875 -29.882812 37.347656 -32.410156 36.703125 -34.328125 C 36.054688 -36.253906 35.15625 -37.648438 34 -38.515625 C 32.84375 -39.390625 31.484375 -39.828125 29.921875 -39.828125 C 27.671875 -39.828125 25.742188 -38.875 24.140625 -36.96875 C 22.546875 -35.0625 21.75 -31.65625 21.75 -26.75 C 21.75 -21.539062 22.546875 -17.921875 24.140625 -15.890625 C 25.742188 -13.867188 27.671875 -12.859375 29.921875 -12.859375 Z M 29.921875 -12.859375 "/></g></g></g><g fill="#ffffff" fill-opacity="1"><g transform="translate(649.746663, 906.387408)"><g><path d="M 24.5 -52.796875 L 24.5 0 L 5.609375 0 L 5.609375 -52.796875 Z M 24.5 -73.828125 L 24.5 -57.078125 L 5.609375 -57.078125 L 5.609375 -73.828125 Z M 24.5 -73.828125 "/></g></g></g><g fill="#ffffff" fill-opacity="1"><g transform="translate(676.804385, 906.387408)"><g><path d="M 41.453125 -39.3125 L 29.921875 -39.3125 L 30.015625 -15.421875 C 30.015625 -14.640625 30.160156 -14.039062 30.453125 -13.625 C 30.742188 -13.21875 31.125 -12.9375 31.59375 -12.78125 C 32.070312 -12.632812 32.601562 -12.5625 33.1875 -12.5625 L 41.453125 -12.5625 L 41.453125 -0.8125 C 40.742188 -0.476562 39.601562 -0.125 38.03125 0.25 C 36.46875 0.625 34.101562 0.8125 30.9375 0.8125 C 25.394531 0.8125 21.113281 0.125 18.09375 -1.25 C 15.082031 -2.625 13 -4.46875 11.84375 -6.78125 C 10.6875 -9.101562 10.109375 -11.675781 10.109375 -14.5 L 10.109375 -39.3125 L 1.53125 -39.3125 L 1.53125 -52.796875 L 10.828125 -52.796875 L 15.921875 -69.234375 L 29.921875 -69.234375 L 29.921875 -52.890625 L 41.453125 -52.890625 Z M 41.453125 -39.3125 "/></g></g></g></svg>