<svg xmlns="http://www.w3.org/2000/svg" xmlns:xlink="http://www.w3.org/1999/xlink" width="1000" zoomAndPan="magnify" viewBox="0 0 750 974.999993" height="1300" preserveAspectRatio="xMidYMid meet" version="1.0"><defs><g/><clipPath id="d85ace9757"><path d="M 0 0 L 749.019531 0 L 749.019531 965 L 0 965 Z M 0 0 " clip-rule="nonzero"/></clipPath><clipPath id="5da8d38c2d"><path d="M 67.5 0 L 681.519531 0 C 718.796875 0 749.019531 30.222656 749.019531 67.5 L 749.019531 897.0625 C 749.019531 934.339844 718.796875 964.5625 681.519531 964.5625 L 67.5 964.5625 C 30.222656 964.5625 0 934.339844 0 897.0625 L 0 67.5 C 0 30.222656 30.222656 0 67.5 0 Z M 67.5 0 " clip-rule="nonzero"/></clipPath><clipPath id="7aa8891e3a"><path d="M 0 0 L 749.019531 0 L 749.019531 964.800781 L 0 964.800781 Z M 0 0 " clip-rule="nonzero"/></clipPath><clipPath id="1bb35b92ce"><path d="M 67.5 0 L 681.519531 0 C 718.796875 0 749.019531 30.222656 749.019531 67.5 L 749.019531 897.0625 C 749.019531 934.339844 718.796875 964.5625 681.519531 964.5625 L 67.5 964.5625 C 30.222656 964.5625 0 934.339844 0 897.0625 L 0 67.5 C 0 30.222656 30.222656 0 67.5 0 Z M 67.5 0 " clip-rule="nonzero"/></clipPath><clipPath id="105bd1dc45"><rect x="0" width="750" y="0" height="965"/></clipPath><clipPath id="dc6b3bc7d1"><path d="M 55.675781 75.085938 L 693.171875 75.085938 L 693.171875 712.699219 L 55.675781 712.699219 Z M 55.675781 75.085938 " clip-rule="nonzero"/></clipPath></defs><rect x="-75" width="900" fill="#ffffff" y="-97.499999" height="1169.999992" fill-opacity="1"/><rect x="-75" width="900" fill="#ffffff" y="-97.499999" height="1169.999992" fill-opacity="1"/><g clip-path="url(#d85ace9757)"><g clip-path="url(#5da8d38c2d)"><g transform="matrix(1, 0, 0, 1, 0, 0.000000000000064448)"><g clip-path="url(#105bd1dc45)"><g clip-path="url(#7aa8891e3a)"><g clip-path="url(#1bb35b92ce)"><path fill="#000813" d="M 0 0 L 749.019531 0 L 749.019531 965.53125 L 0 965.53125 Z M 0 0 " fill-opacity="1" fill-rule="nonzero"/></g></g></g></g></g></g><g clip-path="url(#dc6b3bc7d1)"><path fill="#ffffff" d="M 374.425781 75.085938 C 429.789062 75.085938 484.4375 89.5 532.472656 116.984375 C 579.402344 143.796875 618.890625 182.335938 646.921875 228.40625 C 649.738281 232.972656 652.351562 237.53125 654.765625 242.003906 C 654.972656 242.382812 655.171875 242.761719 655.371094 243.144531 C 680.121094 289.367188 693.171875 341.378906 693.171875 393.894531 L 693.171875 394.777344 C 693.171875 394.875 693.171875 394.972656 693.167969 395.070312 C 692.746094 507.609375 632.21875 612.449219 535.15625 669.242188 C 535.148438 669.246094 535.140625 669.25 535.132812 669.253906 C 486.460938 697.710938 430.871094 712.703125 374.421875 712.703125 C 317.960938 712.703125 262.371094 697.726562 213.71875 669.257812 C 116.636719 612.511719 56.105469 507.707031 55.675781 395.164062 C 55.675781 395.0625 55.675781 394.964844 55.675781 394.867188 L 55.675781 393.890625 C 55.675781 340.941406 68.941406 288.484375 94.117188 241.992188 C 94.234375 241.777344 94.351562 241.558594 94.472656 241.34375 C 96.769531 237.195312 99.222656 232.929688 101.820312 228.636719 L 101.875 228.546875 C 129.917969 182.378906 169.425781 143.8125 216.378906 116.984375 C 264.417969 89.503906 319.058594 75.085938 374.425781 75.085938 Z M 374.425781 75.085938 " fill-opacity="1" fill-rule="nonzero"/></g><path fill="#000813" d="M 525.359375 302.355469 C 509.804688 276.761719 487.839844 255.398438 461.925781 240.578125 C 457.652344 238.117188 452.589844 237.46875 447.808594 238.765625 C 443.023438 240.066406 438.984375 243.226562 436.570312 247.5 L 389.066406 330.730469 C 379.453125 328.59375 369.375 328.546875 359.761719 330.683594 L 312.304688 247.5 C 309.84375 243.226562 305.800781 240.070312 301.066406 238.769531 C 296.28125 237.46875 291.222656 238.117188 286.949219 240.582031 C 261.035156 255.398438 239.070312 276.761719 223.417969 302.492188 C 221.980469 304.90625 220.585938 307.277344 219.191406 309.785156 C 205.308594 335.5625 197.972656 364.636719 197.972656 393.894531 L 197.972656 394.5 C 197.972656 399.421875 199.921875 404.160156 203.453125 407.644531 C 206.933594 411.128906 211.671875 413.078125 216.546875 413.078125 L 216.59375 413.078125 L 312.257812 412.707031 C 315.179688 422.226562 320.195312 431.007812 327.023438 438.296875 L 278.867188 520.921875 C 273.710938 529.75 276.683594 541.128906 285.507812 546.328125 C 312.347656 562.074219 343.136719 570.386719 374.4375 570.386719 C 405.6875 570.386719 436.480469 562.074219 463.363281 546.328125 C 472.234375 541.171875 475.207031 529.792969 470.050781 520.921875 L 421.847656 438.296875 C 428.628906 431.007812 433.691406 422.273438 436.570312 412.707031 L 532.234375 413.078125 L 532.277344 413.078125 C 537.203125 413.078125 541.890625 411.128906 545.375 407.644531 C 548.855469 404.160156 550.855469 399.421875 550.855469 394.5 L 550.855469 393.894531 C 550.855469 364.636719 543.515625 335.558594 529.539062 309.738281 C 528.285156 307.277344 526.847656 304.910156 525.359375 302.355469 Z M 388.230469 369.652344 C 396.914062 374.621094 402.304688 383.867188 402.304688 394.039062 C 402.210938 403.882812 396.960938 413.035156 388.417969 418.003906 C 379.964844 422.972656 368.914062 423.019531 360.367188 418.003906 C 351.824219 412.941406 346.625 403.976562 346.578125 393.898438 C 346.578125 384.144531 351.6875 375.085938 359.996094 370.070312 C 360.042969 370.023438 360.089844 370.023438 360.136719 369.976562 C 360.324219 369.886719 360.507812 369.792969 360.695312 369.652344 C 369.097656 364.871094 379.828125 364.914062 388.230469 369.652344 Z M 251.886719 327.480469 C 253.003906 325.484375 254.164062 323.484375 255.230469 321.675781 C 264.285156 306.765625 276.082031 293.667969 289.875 283.125 L 327.441406 348.984375 C 327.304688 349.121094 327.210938 349.308594 327.070312 349.449219 C 325.492188 351.121094 324.003906 352.886719 322.660156 354.695312 C 322.472656 354.929688 322.332031 355.160156 322.195312 355.347656 C 320.800781 357.25 319.453125 359.25 318.292969 361.292969 C 318.246094 361.386719 318.199219 361.429688 318.199219 361.523438 C 317.039062 363.523438 316.019531 365.566406 315.089844 367.703125 C 314.949219 367.980469 314.8125 368.257812 314.71875 368.585938 C 313.835938 370.628906 313.09375 372.71875 312.441406 374.855469 C 312.351562 375.085938 312.257812 375.320312 312.164062 375.597656 L 236.332031 375.875 C 238.421875 358.96875 243.667969 342.714844 251.886719 327.480469 Z M 320.890625 522.550781 L 359.0625 457.105469 C 359.296875 457.152344 359.574219 457.199219 359.808594 457.246094 C 361.988281 457.757812 364.171875 458.128906 366.355469 458.40625 C 366.632812 458.453125 366.914062 458.453125 367.191406 458.5 C 369.605469 458.730469 372.019531 458.917969 374.433594 458.917969 C 376.851562 458.917969 379.21875 458.730469 381.585938 458.5 C 381.910156 458.453125 382.191406 458.453125 382.515625 458.40625 C 384.746094 458.128906 386.925781 457.710938 389.109375 457.246094 C 389.34375 457.199219 389.574219 457.152344 389.804688 457.105469 L 427.976562 522.550781 C 394.171875 536.625 354.605469 536.578125 320.890625 522.550781 Z M 436.800781 375.546875 C 436.753906 375.359375 436.660156 375.222656 436.613281 375.035156 C 435.917969 372.757812 435.128906 370.574219 434.246094 368.394531 C 434.199219 368.253906 434.105469 368.066406 434.015625 367.929688 C 433.039062 365.699219 431.96875 363.515625 430.761719 361.378906 L 430.71875 361.332031 C 429.511719 359.242188 428.164062 357.246094 426.769531 355.296875 C 426.628906 355.109375 426.492188 354.878906 426.304688 354.691406 C 424.914062 352.832031 423.425781 351.117188 421.847656 349.398438 C 421.707031 349.257812 421.613281 349.117188 421.476562 348.980469 L 458.996094 283.167969 C 472.742188 293.710938 484.539062 306.761719 493.546875 321.578125 C 494.707031 323.527344 495.914062 325.523438 496.984375 327.476562 C 505.25 342.757812 510.496094 358.964844 512.632812 375.871094 Z M 586.792969 278.753906 C 584.933594 275.316406 582.984375 271.925781 580.941406 268.628906 C 559.671875 233.65625 529.671875 204.390625 494.144531 184.09375 C 457.878906 163.332031 416.457031 152.371094 374.425781 152.371094 C 332.398438 152.371094 290.980469 163.335938 254.710938 184.09375 C 219.183594 204.394531 189.1875 233.652344 167.914062 268.675781 C 165.917969 271.972656 163.96875 275.363281 162.0625 278.800781 C 143.023438 313.960938 132.949219 353.761719 132.949219 393.894531 L 132.949219 394.867188 C 133.273438 480 179.199219 559.566406 252.707031 602.53125 C 289.441406 624.035156 331.5625 635.414062 374.421875 635.414062 C 417.238281 635.414062 459.355469 624.035156 496.140625 602.53125 C 569.648438 559.519531 615.578125 479.914062 615.898438 394.777344 L 615.898438 393.894531 C 615.898438 353.765625 605.820312 313.964844 586.78125 278.757812 Z M 578.757812 394.683594 C 578.480469 466.671875 539.609375 534.023438 477.382812 570.433594 C 446.269531 588.640625 410.695312 598.253906 374.433594 598.253906 C 338.167969 598.253906 302.546875 588.640625 271.480469 570.433594 C 209.253906 534.066406 170.386719 466.71875 170.105469 394.773438 L 170.105469 393.890625 C 170.105469 359.9375 178.605469 326.214844 194.71875 296.492188 C 196.296875 293.566406 197.96875 290.730469 199.6875 287.898438 C 217.707031 258.265625 243.105469 233.511719 273.195312 216.277344 C 303.84375 198.816406 338.859375 189.527344 374.429688 189.527344 C 410 189.527344 445.015625 198.816406 475.660156 216.324219 C 505.753906 233.554688 531.15625 258.3125 549.171875 287.898438 C 550.890625 290.730469 552.515625 293.5625 554.09375 296.445312 C 570.253906 326.261719 578.75 359.9375 578.75 393.890625 Z M 578.757812 394.683594 " fill-opacity="1" fill-rule="nonzero"/><g fill="#ffffff" fill-opacity="1"><g transform="translate(27.652207, 863.507546)"><g><path d="M 22.3125 -21.84375 C 22.28125 -19.738281 22.601562 -18.019531 23.28125 -16.6875 C 23.957031 -15.363281 24.882812 -14.394531 26.0625 -13.78125 C 27.238281 -13.164062 28.539062 -12.859375 29.96875 -12.859375 C 31.769531 -12.859375 33.394531 -13.195312 34.84375 -13.875 C 36.289062 -14.5625 37.421875 -15.925781 38.234375 -17.96875 L 55.796875 -17.96875 C 55.253906 -14.050781 53.707031 -10.671875 51.15625 -7.828125 C 48.601562 -4.992188 45.492188 -2.8125 41.828125 -1.28125 C 38.171875 0.25 34.390625 1.015625 30.484375 1.015625 C 25.003906 1.015625 20.175781 -0.0976562 16 -2.328125 C 11.832031 -4.554688 8.59375 -7.675781 6.28125 -11.6875 C 3.96875 -15.707031 2.8125 -20.390625 2.8125 -25.734375 C 2.8125 -30.765625 3.875 -35.40625 6 -39.65625 C 8.125 -43.914062 11.1875 -47.335938 15.1875 -49.921875 C 19.1875 -52.515625 24.007812 -53.8125 29.65625 -53.8125 C 35.414062 -53.8125 40.21875 -52.617188 44.0625 -50.234375 C 47.90625 -47.847656 50.785156 -44.585938 52.703125 -40.453125 C 54.628906 -36.316406 55.59375 -31.648438 55.59375 -26.453125 L 55.59375 -21.84375 Z M 22.203125 -32.984375 L 37.265625 -32.984375 C 37.265625 -34.304688 36.972656 -35.535156 36.390625 -36.671875 C 35.816406 -37.816406 34.96875 -38.726562 33.84375 -39.40625 C 32.726562 -40.09375 31.332031 -40.4375 29.65625 -40.4375 C 28.300781 -40.4375 27.0625 -40.09375 25.9375 -39.40625 C 24.8125 -38.726562 23.90625 -37.816406 23.21875 -36.671875 C 22.539062 -35.535156 22.203125 -34.304688 22.203125 -32.984375 Z M 22.203125 -32.984375 "/></g></g></g><g fill="#ffffff" fill-opacity="1"><g transform="translate(78.602331, 863.507546)"><g><path d="M 61.671875 0 L 41.25 0 L 31.140625 -13.984375 L 20.9375 0 L 0.515625 0 L 20.734375 -27.5625 L 2.34375 -52.796875 L 22.765625 -52.796875 L 31.25 -41.359375 L 39.625 -52.796875 L 60.046875 -52.796875 L 41.453125 -27.5625 Z M 61.671875 0 "/></g></g></g><g fill="#ffffff" fill-opacity="1"><g transform="translate(137.721213, 863.507546)"><g><path d="M 5.109375 16.4375 L 5.109375 -52.796875 L 25.0625 -52.796875 L 25.0625 -46.65625 C 26.050781 -48.019531 27.179688 -49.160156 28.453125 -50.078125 C 29.734375 -51.003906 31.070312 -51.738281 32.46875 -52.28125 C 33.863281 -52.820312 35.257812 -53.210938 36.65625 -53.453125 C 38.050781 -53.691406 39.363281 -53.8125 40.59375 -53.8125 C 44.269531 -53.8125 47.570312 -52.835938 50.5 -50.890625 C 53.425781 -48.953125 55.738281 -45.96875 57.4375 -41.9375 C 59.132812 -37.90625 59.984375 -32.773438 59.984375 -26.546875 C 59.984375 -19.835938 58.96875 -14.46875 56.9375 -10.4375 C 54.914062 -6.40625 52.265625 -3.488281 48.984375 -1.6875 C 45.703125 0.113281 42.1875 1.015625 38.4375 1.015625 C 37.351562 1.015625 36.207031 0.878906 35 0.609375 C 33.789062 0.335938 32.582031 -0.09375 31.375 -0.6875 C 30.164062 -1.28125 29.015625 -2.046875 27.921875 -2.984375 C 26.835938 -3.921875 25.851562 -5.070312 24.96875 -6.4375 L 24.96875 16.4375 Z M 33.234375 -13.171875 C 35.453125 -13.171875 37.398438 -14.21875 39.078125 -16.3125 C 40.765625 -18.40625 41.609375 -21.816406 41.609375 -26.546875 C 41.609375 -30.835938 40.765625 -34.125 39.078125 -36.40625 C 37.398438 -38.6875 35.453125 -39.828125 33.234375 -39.828125 C 30.335938 -39.828125 28.234375 -38.503906 26.921875 -35.859375 C 25.617188 -33.222656 24.96875 -30.117188 24.96875 -26.546875 C 24.96875 -24.398438 25.253906 -22.296875 25.828125 -20.234375 C 26.410156 -18.179688 27.304688 -16.488281 28.515625 -15.15625 C 29.722656 -13.832031 31.296875 -13.171875 33.234375 -13.171875 Z M 33.234375 -13.171875 "/></g></g></g><g fill="#ffffff" fill-opacity="1"><g transform="translate(197.197471, 863.507546)"><g><path d="M 29.3125 1.015625 C 23.863281 1.015625 19.140625 -0.140625 15.140625 -2.453125 C 11.140625 -4.765625 8.039062 -7.953125 5.84375 -12.015625 C 3.644531 -16.085938 2.546875 -20.757812 2.546875 -26.03125 C 2.546875 -31.582031 3.691406 -36.441406 5.984375 -40.609375 C 8.285156 -44.785156 11.453125 -48.03125 15.484375 -50.34375 C 19.523438 -52.65625 24.164062 -53.8125 29.40625 -53.8125 C 34.914062 -53.8125 39.671875 -52.609375 43.671875 -50.203125 C 47.671875 -47.804688 50.75 -44.515625 52.90625 -40.328125 C 55.070312 -36.140625 56.15625 -31.375 56.15625 -26.03125 C 56.15625 -20.789062 55.054688 -16.132812 52.859375 -12.0625 C 50.671875 -8 47.566406 -4.800781 43.546875 -2.46875 C 39.535156 -0.144531 34.789062 1.015625 29.3125 1.015625 Z M 29.40625 -13.375 C 31.519531 -13.375 33.113281 -14.097656 34.1875 -15.546875 C 35.257812 -16.992188 35.972656 -18.753906 36.328125 -20.828125 C 36.679688 -22.898438 36.859375 -24.875 36.859375 -26.75 C 36.859375 -28.65625 36.679688 -30.601562 36.328125 -32.59375 C 35.972656 -34.582031 35.257812 -36.25 34.1875 -37.59375 C 33.113281 -38.945312 31.519531 -39.625 29.40625 -39.625 C 27.257812 -39.625 25.648438 -38.945312 24.578125 -37.59375 C 23.503906 -36.25 22.78125 -34.582031 22.40625 -32.59375 C 22.03125 -30.601562 21.84375 -28.65625 21.84375 -26.75 C 21.84375 -24.875 22.03125 -22.898438 22.40625 -20.828125 C 22.78125 -18.753906 23.503906 -16.992188 24.578125 -15.546875 C 25.648438 -14.097656 27.257812 -13.375 29.40625 -13.375 Z M 29.40625 -13.375 "/></g></g></g><g fill="#ffffff" fill-opacity="1"><g transform="translate(252.844777, 863.507546)"><g><path d="M 27.875 1.015625 C 24.195312 1.015625 20.550781 0.390625 16.9375 -0.859375 C 13.332031 -2.117188 10.21875 -4.128906 7.59375 -6.890625 C 4.976562 -9.648438 3.296875 -13.273438 2.546875 -17.765625 L 19.40625 -17.765625 C 19.84375 -16.066406 20.625 -14.804688 21.75 -13.984375 C 22.875 -13.171875 24.015625 -12.644531 25.171875 -12.40625 C 26.328125 -12.164062 27.195312 -12.046875 27.78125 -12.046875 C 29.988281 -12.046875 31.769531 -12.304688 33.125 -12.828125 C 34.488281 -13.359375 35.171875 -14.15625 35.171875 -15.21875 C 35.171875 -16.195312 34.710938 -16.96875 33.796875 -17.53125 C 32.878906 -18.09375 31.226562 -18.546875 28.84375 -18.890625 L 21.03125 -20.109375 C 16 -21.035156 11.929688 -22.773438 8.828125 -25.328125 C 5.734375 -27.878906 4.148438 -31.519531 4.078125 -36.25 C 4.046875 -39.519531 4.957031 -42.476562 6.8125 -45.125 C 8.664062 -47.78125 11.390625 -49.890625 14.984375 -51.453125 C 18.578125 -53.023438 22.941406 -53.8125 28.078125 -53.8125 C 35.296875 -53.8125 41.015625 -52.242188 45.234375 -49.109375 C 49.453125 -45.984375 51.5625 -41.726562 51.5625 -36.34375 L 35.375 -36.34375 C 35 -37.945312 34.097656 -39.128906 32.671875 -39.890625 C 31.242188 -40.660156 29.628906 -41.046875 27.828125 -41.046875 C 25.984375 -41.046875 24.421875 -40.773438 23.140625 -40.234375 C 21.867188 -39.691406 21.234375 -38.90625 21.234375 -37.875 C 21.234375 -36.957031 21.847656 -36.21875 23.078125 -35.65625 C 24.304688 -35.09375 26.332031 -34.578125 29.15625 -34.109375 L 35.9375 -32.875 C 39.34375 -32.0625 42.09375 -30.957031 44.1875 -29.5625 C 46.28125 -28.164062 47.878906 -26.660156 48.984375 -25.046875 C 50.085938 -23.429688 50.84375 -21.847656 51.25 -20.296875 C 51.664062 -18.742188 51.875 -17.425781 51.875 -16.34375 C 51.875 -12.5625 50.804688 -9.382812 48.671875 -6.8125 C 46.546875 -4.25 43.671875 -2.300781 40.046875 -0.96875 C 36.421875 0.351562 32.363281 1.015625 27.875 1.015625 Z M 27.875 1.015625 "/></g></g></g><g fill="#ffffff" fill-opacity="1"><g transform="translate(304.458887, 863.507546)"><g><path d="M 24.5625 1.015625 C 22.414062 1.015625 20.179688 0.648438 17.859375 -0.078125 C 15.546875 -0.804688 13.382812 -1.882812 11.375 -3.3125 C 9.375 -4.75 7.742188 -6.492188 6.484375 -8.546875 C 5.222656 -10.609375 4.59375 -12.96875 4.59375 -15.625 L 4.59375 -52.796875 L 24.5 -52.796875 L 24.5 -18.375 C 24.5 -16.84375 25.0625 -15.554688 26.1875 -14.515625 C 27.3125 -13.484375 28.878906 -12.96875 30.890625 -12.96875 C 32.898438 -12.96875 34.472656 -13.484375 35.609375 -14.515625 C 36.753906 -15.554688 37.328125 -16.84375 37.328125 -18.375 L 37.328125 -52.796875 L 57.03125 -52.796875 L 57.03125 0 L 42.328125 0 L 39.96875 -10.828125 C 39.320312 -7.316406 38.097656 -4.71875 36.296875 -3.03125 C 34.492188 -1.351562 32.507812 -0.257812 30.34375 0.25 C 28.1875 0.757812 26.257812 1.015625 24.5625 1.015625 Z M 24.5625 1.015625 "/></g></g></g><g fill="#ffffff" fill-opacity="1"><g transform="translate(363.016173, 863.507546)"><g><path d="M 5.109375 0 L 5.109375 -52.796875 L 24.296875 -52.796875 L 24.296875 -38.1875 C 25.117188 -41.007812 26.285156 -43.601562 27.796875 -45.96875 C 29.316406 -48.332031 31.25 -50.226562 33.59375 -51.65625 C 35.9375 -53.09375 38.742188 -53.8125 42.015625 -53.8125 C 42.253906 -53.8125 42.441406 -53.8125 42.578125 -53.8125 C 42.710938 -53.8125 42.78125 -53.8125 42.78125 -53.8125 L 42.78125 -35.03125 C 42.675781 -35.0625 42.582031 -35.078125 42.5 -35.078125 C 42.414062 -35.078125 42.289062 -35.09375 42.125 -35.125 C 38.414062 -35.5 35.425781 -35.460938 33.15625 -35.015625 C 30.894531 -34.578125 29.164062 -33.851562 27.96875 -32.84375 C 26.78125 -31.84375 25.984375 -30.6875 25.578125 -29.375 C 25.171875 -28.070312 24.96875 -26.722656 24.96875 -25.328125 L 24.96875 0 Z M 5.109375 0 "/></g></g></g><g fill="#ffffff" fill-opacity="1"><g transform="translate(403.756085, 863.507546)"><g><path d="M 22.3125 -21.84375 C 22.28125 -19.738281 22.601562 -18.019531 23.28125 -16.6875 C 23.957031 -15.363281 24.882812 -14.394531 26.0625 -13.78125 C 27.238281 -13.164062 28.539062 -12.859375 29.96875 -12.859375 C 31.769531 -12.859375 33.394531 -13.195312 34.84375 -13.875 C 36.289062 -14.5625 37.421875 -15.925781 38.234375 -17.96875 L 55.796875 -17.96875 C 55.253906 -14.050781 53.707031 -10.671875 51.15625 -7.828125 C 48.601562 -4.992188 45.492188 -2.8125 41.828125 -1.28125 C 38.171875 0.25 34.390625 1.015625 30.484375 1.015625 C 25.003906 1.015625 20.175781 -0.0976562 16 -2.328125 C 11.832031 -4.554688 8.59375 -7.675781 6.28125 -11.6875 C 3.96875 -15.707031 2.8125 -20.390625 2.8125 -25.734375 C 2.8125 -30.765625 3.875 -35.40625 6 -39.65625 C 8.125 -43.914062 11.1875 -47.335938 15.1875 -49.921875 C 19.1875 -52.515625 24.007812 -53.8125 29.65625 -53.8125 C 35.414062 -53.8125 40.21875 -52.617188 44.0625 -50.234375 C 47.90625 -47.847656 50.785156 -44.585938 52.703125 -40.453125 C 54.628906 -36.316406 55.59375 -31.648438 55.59375 -26.453125 L 55.59375 -21.84375 Z M 22.203125 -32.984375 L 37.265625 -32.984375 C 37.265625 -34.304688 36.972656 -35.535156 36.390625 -36.671875 C 35.816406 -37.816406 34.96875 -38.726562 33.84375 -39.40625 C 32.726562 -40.09375 31.332031 -40.4375 29.65625 -40.4375 C 28.300781 -40.4375 27.0625 -40.09375 25.9375 -39.40625 C 24.8125 -38.726562 23.90625 -37.816406 23.21875 -36.671875 C 22.539062 -35.535156 22.203125 -34.304688 22.203125 -32.984375 Z M 22.203125 -32.984375 "/></g></g></g><g fill="#ffffff" fill-opacity="1"><g transform="translate(459.301264, 863.507546)"><g/></g></g><g fill="#ffffff" fill-opacity="1"><g transform="translate(476.199517, 863.507546)"><g><path d="M 21.03125 1.015625 C 17.726562 1.015625 14.691406 0.367188 11.921875 -0.921875 C 9.148438 -2.210938 6.9375 -4.109375 5.28125 -6.609375 C 3.632812 -9.109375 2.8125 -12.179688 2.8125 -15.828125 C 2.8125 -21.546875 5.082031 -25.988281 9.625 -29.15625 C 14.164062 -32.320312 21.238281 -33.90625 30.84375 -33.90625 L 34.921875 -33.90625 L 34.921875 -36.140625 C 34.921875 -37.847656 34.453125 -39.09375 33.515625 -39.875 C 32.578125 -40.65625 31.101562 -41.015625 29.09375 -40.953125 C 27.738281 -40.910156 26.242188 -40.582031 24.609375 -39.96875 C 22.972656 -39.363281 21.75 -38.15625 20.9375 -36.34375 L 4.84375 -36.34375 C 5.050781 -40.5 6.296875 -43.859375 8.578125 -46.421875 C 10.859375 -48.992188 13.867188 -50.867188 17.609375 -52.046875 C 21.359375 -53.222656 25.492188 -53.8125 30.015625 -53.8125 C 36.140625 -53.8125 40.9375 -53.113281 44.40625 -51.71875 C 47.882812 -50.320312 50.335938 -48.390625 51.765625 -45.921875 C 53.191406 -43.453125 53.90625 -40.601562 53.90625 -37.375 L 53.90625 0 L 37.46875 0 L 35.734375 -8.375 C 34.171875 -4.800781 32.234375 -2.34375 29.921875 -1 C 27.609375 0.34375 24.644531 1.015625 21.03125 1.015625 Z M 28.03125 -11.53125 C 28.976562 -11.53125 29.867188 -11.703125 30.703125 -12.046875 C 31.535156 -12.390625 32.257812 -12.859375 32.875 -13.453125 C 33.488281 -14.046875 33.972656 -14.71875 34.328125 -15.46875 C 34.691406 -16.21875 34.890625 -17.019531 34.921875 -17.875 L 34.921875 -24.5 L 31.75 -24.5 C 30.695312 -24.5 29.351562 -24.300781 27.71875 -23.90625 C 26.082031 -23.519531 24.625 -22.847656 23.34375 -21.890625 C 22.070312 -20.941406 21.4375 -19.601562 21.4375 -17.875 C 21.4375 -15.894531 22.109375 -14.34375 23.453125 -13.21875 C 24.796875 -12.09375 26.320312 -11.53125 28.03125 -11.53125 Z M 28.03125 -11.53125 "/></g></g></g><g fill="#ffffff" fill-opacity="1"><g transform="translate(532.050986, 863.507546)"><g><path d="M 24.5625 1.015625 C 22.414062 1.015625 20.179688 0.648438 17.859375 -0.078125 C 15.546875 -0.804688 13.382812 -1.882812 11.375 -3.3125 C 9.375 -4.75 7.742188 -6.492188 6.484375 -8.546875 C 5.222656 -10.609375 4.59375 -12.96875 4.59375 -15.625 L 4.59375 -52.796875 L 24.5 -52.796875 L 24.5 -18.375 C 24.5 -16.84375 25.0625 -15.554688 26.1875 -14.515625 C 27.3125 -13.484375 28.878906 -12.96875 30.890625 -12.96875 C 32.898438 -12.96875 34.472656 -13.484375 35.609375 -14.515625 C 36.753906 -15.554688 37.328125 -16.84375 37.328125 -18.375 L 37.328125 -52.796875 L 57.03125 -52.796875 L 57.03125 0 L 42.328125 0 L 39.96875 -10.828125 C 39.320312 -7.316406 38.097656 -4.71875 36.296875 -3.03125 C 34.492188 -1.351562 32.507812 -0.257812 30.34375 0.25 C 28.1875 0.757812 26.257812 1.015625 24.5625 1.015625 Z M 24.5625 1.015625 "/></g></g></g><g fill="#ffffff" fill-opacity="1"><g transform="translate(590.608249, 863.507546)"><g><path d="M 25.21875 1.015625 C 17.9375 1.015625 12.335938 -1.507812 8.421875 -6.5625 C 4.503906 -11.613281 2.546875 -18.34375 2.546875 -26.75 C 2.546875 -32.300781 3.351562 -37.097656 4.96875 -41.140625 C 6.59375 -45.191406 8.9375 -48.316406 12 -50.515625 C 15.0625 -52.710938 18.753906 -53.8125 23.078125 -53.8125 C 24.398438 -53.8125 25.742188 -53.691406 27.109375 -53.453125 C 28.472656 -53.210938 29.804688 -52.828125 31.109375 -52.296875 C 32.421875 -51.773438 33.640625 -51.0625 34.765625 -50.15625 C 35.890625 -49.257812 36.859375 -48.128906 37.671875 -46.765625 L 37.671875 -75.875 L 57.59375 -75.875 L 57.59375 0 L 43.546875 0 L 41.203125 -10.828125 C 40.585938 -8.984375 39.8125 -7.328125 38.875 -5.859375 C 37.9375 -4.398438 36.8125 -3.160156 35.5 -2.140625 C 34.195312 -1.117188 32.691406 -0.335938 30.984375 0.203125 C 29.285156 0.742188 27.363281 1.015625 25.21875 1.015625 Z M 29.921875 -12.859375 C 32.234375 -12.859375 34.101562 -13.867188 35.53125 -15.890625 C 36.957031 -17.921875 37.671875 -21.539062 37.671875 -26.75 C 37.671875 -29.882812 37.347656 -32.410156 36.703125 -34.328125 C 36.054688 -36.253906 35.15625 -37.648438 34 -38.515625 C 32.84375 -39.390625 31.484375 -39.828125 29.921875 -39.828125 C 27.671875 -39.828125 25.742188 -38.875 24.140625 -36.96875 C 22.546875 -35.0625 21.75 -31.65625 21.75 -26.75 C 21.75 -21.539062 22.546875 -17.921875 24.140625 -15.890625 C 25.742188 -13.867188 27.671875 -12.859375 29.921875 -12.859375 Z M 29.921875 -12.859375 "/></g></g></g><g fill="#ffffff" fill-opacity="1"><g transform="translate(650.237686, 863.507546)"><g><path d="M 24.5 -52.796875 L 24.5 0 L 5.609375 0 L 5.609375 -52.796875 Z M 24.5 -73.828125 L 24.5 -57.078125 L 5.609375 -57.078125 L 5.609375 -73.828125 Z M 24.5 -73.828125 "/></g></g></g><g fill="#ffffff" fill-opacity="1"><g transform="translate(677.295408, 863.507546)"><g><path d="M 41.453125 -39.3125 L 29.921875 -39.3125 L 30.015625 -15.421875 C 30.015625 -14.640625 30.160156 -14.039062 30.453125 -13.625 C 30.742188 -13.21875 31.125 -12.9375 31.59375 -12.78125 C 32.070312 -12.632812 32.601562 -12.5625 33.1875 -12.5625 L 41.453125 -12.5625 L 41.453125 -0.8125 C 40.742188 -0.476562 39.601562 -0.125 38.03125 0.25 C 36.46875 0.625 34.101562 0.8125 30.9375 0.8125 C 25.394531 0.8125 21.113281 0.125 18.09375 -1.25 C 15.082031 -2.625 13 -4.46875 11.84375 -6.78125 C 10.6875 -9.101562 10.109375 -11.675781 10.109375 -14.5 L 10.109375 -39.3125 L 1.53125 -39.3125 L 1.53125 -52.796875 L 10.828125 -52.796875 L 15.921875 -69.234375 L 29.921875 -69.234375 L 29.921875 -52.890625 L 41.453125 -52.890625 Z M 41.453125 -39.3125 "/></g></g></g></svg>