<svg width="1000" height="996" viewBox="0 0 1000 996" fill="none" xmlns="http://www.w3.org/2000/svg">
<g clip-path="url(#clip0_255_247)">
<path d="M141.217 880.835C141.814 880.844 142.271 881.371 142.194 881.963L127.398 996.102H1C0.447737 996.102 0 995.654 0 995.102V878.803L141.217 880.835ZM439.127 881.018C439.353 909.594 462.589 932.691 491.219 932.692C519.687 932.691 542.82 909.855 543.304 881.502L567.221 881.615C567.19 881.786 557.251 936.679 499.999 955.115V996.102H499.998V955.116C488.441 958.838 474.956 961.077 459.234 961.077C365.652 961.077 348.244 880.838 348.191 880.596L439.127 881.018ZM1000 995.102C1000 995.654 999.552 996.102 999 996.102H872.6L857.804 881.963C857.728 881.371 858.184 880.844 858.781 880.835L1000 878.803V995.102ZM682.334 881.019C682.561 909.595 705.796 932.691 734.426 932.692C762.893 932.691 786.027 909.855 786.511 881.503L810.428 881.615C810.391 881.821 796.042 961.077 702.44 961.077C608.858 961.077 591.45 880.838 591.397 880.596L682.334 881.019ZM999 1.02075C999.552 1.02075 1000 1.46847 1000 2.02075V802.396L873.674 746.889C873.439 746.786 873.252 746.596 873.153 746.36L686.061 298.675C685.8 298.052 685.009 297.861 684.493 298.296L500.354 453.595C500.13 453.785 499.999 454.064 499.999 454.359L499.998 880.597V454.359C499.998 454.064 499.867 453.785 499.643 453.595L315.504 298.296C314.988 297.861 314.197 298.052 313.937 298.675L126.845 746.36C126.746 746.596 126.559 746.786 126.324 746.889L0 802.395V2.02075C0 1.46849 0.447743 1.02078 1 1.02075H999Z" fill="#986DF8"/>
</g>
<defs>
<clipPath id="clip0_255_247">
<rect width="1000" height="995" fill="white" transform="translate(0 0.979004)"/>
</clipPath>
</defs>
</svg>
