<svg width="1000" height="690" viewBox="0 0 1000 690" fill="none" xmlns="http://www.w3.org/2000/svg">
<g clip-path="url(#clip0_255_270)">
<path d="M435.334 590.573C440.5 590.573 445.14 591.936 449.254 594.663C453.368 597.389 456.62 601.599 459.012 607.291C461.404 612.935 462.6 620.135 462.6 628.888C462.6 638.312 461.164 645.87 458.294 651.562C455.472 657.207 451.741 661.297 447.101 663.832C442.509 666.367 437.582 667.634 432.32 667.634C430.79 667.634 429.163 667.443 427.441 667.06C425.767 666.678 424.069 666.079 422.347 665.266C420.673 664.405 419.07 663.329 417.539 662.038C416.009 660.699 414.622 659.072 413.378 657.159V689.303H385.466V592.008H413.522V600.618C414.909 598.705 416.487 597.102 418.257 595.81C420.075 594.519 421.964 593.491 423.925 592.725C425.886 591.96 427.848 591.41 429.809 591.075C431.77 590.74 433.612 590.573 435.334 590.573ZM663.913 640.081C663.913 641.851 664.368 643.526 665.276 645.104C666.186 646.682 668.529 647.734 672.308 648.26L675.321 648.548V665.481C673.647 666.103 671.925 666.63 670.155 667.06C668.386 667.539 666.591 667.777 664.774 667.777C657.933 667.777 652.576 667.06 648.701 665.625C644.875 664.142 642.1 662.228 640.378 659.884C638.656 657.541 637.58 654.958 637.15 652.135C636.767 649.313 636.575 646.539 636.575 643.812V559.576H663.913V640.081ZM246.867 640.368C246.867 642.52 247.657 644.338 249.235 645.821C250.814 647.256 253.015 647.974 255.837 647.974C258.659 647.974 260.859 647.256 262.438 645.821C264.064 644.338 264.877 642.52 264.877 640.368V592.008H292.573V666.199H271.909L268.609 650.988C267.7 655.915 265.978 659.574 263.443 661.966C260.907 664.309 258.108 665.84 255.047 666.557C252.034 667.275 249.331 667.634 246.94 667.634C243.926 667.634 240.793 667.132 237.54 666.128C234.287 665.075 231.25 663.544 228.428 661.535C225.606 659.526 223.309 657.087 221.539 654.217C219.769 651.299 218.885 647.974 218.885 644.243V592.008H246.867V640.368ZM496.295 640.368C496.295 642.52 497.084 644.338 498.662 645.821C500.241 647.256 502.442 647.974 505.264 647.974C508.086 647.974 510.286 647.256 511.864 645.821C513.491 644.338 514.305 642.52 514.305 640.368V592.008H542.001V666.199H521.336L518.035 650.988C517.126 655.915 515.404 659.574 512.869 661.966C510.334 664.309 507.536 665.84 504.475 666.557C501.461 667.275 498.758 667.634 496.366 667.634C493.353 667.634 490.22 667.132 486.967 666.128C483.714 665.075 480.677 663.544 477.855 661.535C475.032 659.526 472.736 657.087 470.966 654.217C469.196 651.299 468.312 647.974 468.312 644.243V592.008H496.295V640.368ZM753.289 590.573C760.273 590.573 766.156 592.056 770.94 595.021C775.771 597.987 779.431 601.886 781.918 606.717C784.453 611.549 785.769 616.738 785.864 622.287H763.263C763.071 620.9 762.665 619.345 762.043 617.624C761.421 615.902 760.44 614.418 759.101 613.175C757.761 611.883 755.896 611.237 753.504 611.237C749.917 611.237 747.023 612.744 744.822 615.758C742.67 618.723 741.594 623.196 741.594 629.175C741.594 635.25 742.766 639.986 745.109 643.383C747.453 646.731 750.443 648.405 754.078 648.405C756.422 648.405 758.24 647.711 759.531 646.324C760.871 644.889 761.827 643.311 762.401 641.589C763.023 639.867 763.406 638.503 763.55 637.499H785.506C785.506 642.76 784.214 647.687 781.631 652.279C779.096 656.871 775.436 660.579 770.652 663.401C765.869 666.223 760.081 667.634 753.289 667.634C746.21 667.634 739.848 666.032 734.203 662.827C728.559 659.622 724.086 655.15 720.785 649.41C717.533 643.67 715.906 637.02 715.906 629.463C715.906 621.809 717.533 615.064 720.785 609.228C724.038 603.393 728.487 598.825 734.131 595.524C739.775 592.224 746.162 590.573 753.289 590.573ZM580.015 600.474C581.163 598.561 582.526 596.983 584.105 595.739C585.683 594.448 587.381 593.443 589.198 592.725C591.064 591.96 592.954 591.41 594.867 591.075C596.781 590.74 598.67 590.572 600.535 590.572C609.672 590.572 616.752 593.992 621.775 600.833C626.845 607.625 629.38 616.882 629.38 628.601C629.38 636.494 628.136 643.358 625.649 649.194C623.209 655.03 619.621 659.574 614.886 662.827C610.15 666.032 604.362 667.633 597.522 667.633C594.508 667.633 591.806 667.251 589.414 666.486C587.023 665.721 584.894 664.62 583.028 663.185C581.211 661.75 579.631 660.004 578.292 657.947C577.001 655.89 575.925 653.57 575.064 650.987L571.763 666.199H552.031V559.576H580.015V600.474ZM350.247 591.722C354.6 591.722 358.738 592.559 362.66 594.233C366.63 595.907 369.859 598.586 372.347 602.269C374.882 605.953 376.15 610.808 376.15 616.836V666.201H348.167V620.638C348.167 618.199 347.258 616.333 345.441 615.042C343.623 613.75 341.661 613.104 339.557 613.104C338.217 613.104 336.83 613.392 335.395 613.966C334.008 614.54 332.836 615.401 331.879 616.549C330.97 617.649 330.516 619.012 330.516 620.638V666.201H302.605V592.009H330.229V602.269C331.281 600.691 332.621 599.089 334.247 597.463C335.873 595.836 337.978 594.473 340.561 593.373C343.144 592.273 346.373 591.722 350.247 591.722ZM708.708 666.2H682.16V592.008H708.708V666.2ZM590.921 610.232C588.768 610.232 586.855 610.855 585.181 612.098C583.555 613.294 582.287 615.255 581.378 617.981C580.469 620.66 580.015 624.2 580.015 628.601C580.015 635.92 581.019 641.014 583.028 643.884C585.037 646.706 587.668 648.117 590.921 648.117C594.078 648.117 596.78 646.706 599.028 643.884C601.277 641.014 602.401 635.92 602.401 628.601C602.401 621.713 601.277 616.929 599.028 614.251C596.78 611.572 594.078 610.232 590.921 610.232ZM425.001 610.233C420.935 610.233 417.97 612.099 416.105 615.83C414.287 619.513 413.378 623.866 413.378 628.888C413.378 631.902 413.785 634.868 414.598 637.786C415.411 640.656 416.654 643.024 418.328 644.889C420.05 646.755 422.275 647.687 425.001 647.687C428.11 647.687 430.837 646.228 433.181 643.31C435.573 640.345 436.769 635.537 436.769 628.888C436.769 622.861 435.572 618.246 433.181 615.041C430.837 611.836 428.11 610.233 425.001 610.233ZM708.708 585.981H682.16V562.447H708.708V585.981ZM357.659 1.44405C358.263 0.000725472 360.096 -0.44238 361.292 0.566116L498.505 116.285C499.368 117.012 500.629 117.012 501.492 116.285L638.699 0.567093C639.896 -0.441338 641.727 0.00077279 642.331 1.44405L783.58 339.422C783.81 339.97 784.242 340.411 784.786 340.65L998.612 434.601C1000.89 435.603 1000.2 439.004 997.714 439.04L774.631 442.255C773.247 442.275 772.189 443.497 772.366 444.87L783.374 529.787C783.554 531.173 782.474 532.402 781.076 532.402H218.914C217.516 532.402 216.437 531.173 216.616 529.787L227.624 444.87C227.802 443.497 226.744 442.275 225.359 442.255L2.28333 439.04C-0.205744 439.003 -0.894405 435.603 1.38489 434.601L215.212 340.65C215.757 340.411 216.189 339.97 216.418 339.422L357.659 1.44405ZM384.528 442.101C384.528 442.101 397.701 503.315 468.987 503.315C540.218 503.315 551.105 442.971 551.122 442.877L532.932 442.792C532.563 464.356 514.972 481.724 493.319 481.724C471.544 481.724 453.873 464.158 453.7 442.423L384.528 442.101ZM569.511 442.101C569.511 442.101 582.684 503.315 653.97 503.315C725.21 503.315 736.091 442.954 736.105 442.877L717.912 442.792C717.544 464.356 699.952 481.724 678.3 481.724C656.524 481.724 638.854 464.158 638.681 442.423L569.511 442.101Z" fill="#986DF8"/>
</g>
<defs>
<clipPath id="clip0_255_270">
<rect width="1000" height="689" fill="white" transform="translate(0 0.0207214)"/>
</clipPath>
</defs>
</svg>
