<svg width="1000" height="690" viewBox="0 0 1000 690" fill="none" xmlns="http://www.w3.org/2000/svg">
<g clip-path="url(#clip0_255_80)">
<path d="M435.333 590.573C440.499 590.573 445.14 591.936 449.253 594.663C453.367 597.389 456.62 601.598 459.012 607.291C461.404 612.935 462.6 620.135 462.6 628.888C462.6 638.312 461.164 645.87 458.294 651.562C455.472 657.207 451.741 661.296 447.101 663.832C442.509 666.367 437.582 667.634 432.321 667.634C430.79 667.634 429.163 667.443 427.441 667.06C425.767 666.678 424.069 666.079 422.347 665.266C420.673 664.405 419.07 663.329 417.539 662.038C416.009 660.698 414.621 659.072 413.377 657.159V689.303H385.466V592.007H413.521V600.618C414.908 598.704 416.487 597.103 418.257 595.811C420.075 594.52 421.964 593.491 423.925 592.725C425.886 591.96 427.848 591.41 429.809 591.075C431.77 590.74 433.611 590.573 435.333 590.573ZM663.912 640.081C663.912 641.851 664.367 643.526 665.276 645.104C666.185 646.683 668.529 647.734 672.308 648.26L675.322 648.547V665.481C673.647 666.103 671.925 666.63 670.156 667.06C668.386 667.539 666.591 667.777 664.774 667.777C657.933 667.777 652.576 667.06 648.701 665.625C644.875 664.142 642.1 662.228 640.378 659.884C638.656 657.541 637.58 654.958 637.15 652.135C636.767 649.313 636.576 646.539 636.576 643.812V559.576H663.912V640.081ZM246.868 640.369C246.868 642.521 247.657 644.339 249.236 645.822C250.814 647.257 253.014 647.974 255.836 647.974C258.658 647.974 260.859 647.257 262.438 645.822C264.064 644.339 264.877 642.521 264.877 640.369V592.007H292.574V666.199H271.909L268.609 650.988C267.7 655.915 265.978 659.574 263.443 661.965C260.907 664.309 258.109 665.84 255.047 666.557C252.034 667.275 249.331 667.634 246.94 667.634C243.926 667.634 240.793 667.132 237.54 666.128C234.288 665.075 231.249 663.544 228.427 661.535C225.605 659.526 223.309 657.086 221.539 654.216C219.77 651.299 218.884 647.974 218.884 644.243V592.007H246.868V640.369ZM496.294 640.369C496.294 642.521 497.084 644.339 498.662 645.822C500.241 647.257 502.442 647.974 505.264 647.974C508.086 647.974 510.286 647.257 511.865 645.822C513.491 644.339 514.304 642.521 514.304 640.369V592.007H542V666.199H521.336L518.035 650.988C517.127 655.915 515.405 659.574 512.869 661.965C510.334 664.309 507.536 665.84 504.475 666.557C501.461 667.275 498.758 667.634 496.367 667.634C493.353 667.634 490.22 667.132 486.967 666.128C483.714 665.075 480.677 663.544 477.855 661.535C475.033 659.526 472.736 657.087 470.966 654.216C469.196 651.299 468.312 647.974 468.312 644.243V592.007H496.294V640.369ZM753.289 590.573C760.273 590.573 766.156 592.056 770.94 595.021C775.771 597.987 779.431 601.886 781.918 606.717C784.453 611.548 785.769 616.738 785.865 622.287H763.262C763.071 620.9 762.664 619.345 762.042 617.624C761.42 615.902 760.44 614.418 759.101 613.174C757.762 611.883 755.896 611.237 753.504 611.237C749.917 611.237 747.023 612.744 744.823 615.757C742.67 618.723 741.593 623.196 741.593 629.175C741.593 635.25 742.766 639.986 745.11 643.382C747.454 646.731 750.443 648.405 754.078 648.405C756.422 648.405 758.24 647.711 759.532 646.324C760.871 644.889 761.828 643.31 762.402 641.589C763.024 639.867 763.406 638.503 763.549 637.499H785.505C785.505 642.76 784.214 647.688 781.631 652.28C779.096 656.872 775.436 660.579 770.653 663.401C765.869 666.223 760.082 667.634 753.289 667.634C746.21 667.634 739.848 666.032 734.203 662.827C728.559 659.622 724.086 655.15 720.785 649.41C717.533 643.67 715.907 637.02 715.907 629.463C715.907 621.809 717.533 615.064 720.785 609.228C724.038 603.392 728.487 598.825 734.131 595.524C739.776 592.223 746.162 590.573 753.289 590.573ZM580.015 600.474C581.163 598.561 582.526 596.983 584.105 595.739C585.683 594.447 587.381 593.443 589.199 592.725C591.064 591.96 592.954 591.41 594.868 591.075C596.781 590.74 598.67 590.572 600.535 590.572C609.672 590.572 616.751 593.993 621.774 600.833C626.844 607.625 629.38 616.882 629.38 628.601C629.38 636.494 628.136 643.358 625.649 649.194C623.209 655.03 619.622 659.574 614.886 662.827C610.15 666.032 604.362 667.633 597.522 667.633C594.508 667.633 591.806 667.251 589.414 666.486C587.023 665.721 584.894 664.62 583.029 663.185C581.211 661.75 579.632 660.004 578.292 657.947C577.001 655.89 575.925 653.57 575.064 650.987L571.763 666.199H552.032V559.576H580.015V600.474ZM350.247 591.722C354.6 591.722 358.738 592.559 362.66 594.233C366.631 595.907 369.86 598.586 372.347 602.269C374.882 605.952 376.15 610.808 376.15 616.836V666.201H348.166V620.638C348.166 618.199 347.257 616.333 345.44 615.042C343.622 613.75 341.661 613.104 339.557 613.104C338.218 613.104 336.83 613.391 335.395 613.965C334.008 614.539 332.836 615.4 331.879 616.548C330.97 617.649 330.516 619.012 330.516 620.638V666.201H302.604V592.009H330.229V602.269C331.281 600.691 332.62 599.089 334.246 597.463C335.873 595.836 337.978 594.473 340.561 593.373C343.144 592.273 346.373 591.722 350.247 591.722ZM708.708 666.2H682.16V592.008H708.708V666.2ZM590.921 610.232C588.769 610.232 586.855 610.855 585.181 612.098C583.555 613.294 582.287 615.255 581.378 617.982C580.469 620.661 580.015 624.201 580.015 628.601C580.015 635.92 581.02 641.014 583.029 643.884C585.038 646.706 587.669 648.118 590.921 648.118C594.078 648.118 596.781 646.706 599.029 643.884C601.277 641.014 602.401 635.92 602.401 628.601C602.401 621.713 601.277 616.929 599.029 614.251C596.78 611.572 594.078 610.232 590.921 610.232ZM425.001 610.233C420.935 610.233 417.969 612.099 416.104 615.83C414.286 619.513 413.377 623.866 413.377 628.888C413.377 631.902 413.785 634.868 414.598 637.786C415.411 640.656 416.654 643.024 418.328 644.889C420.05 646.755 422.275 647.687 425.001 647.687C428.111 647.687 430.837 646.228 433.181 643.31C435.573 640.344 436.769 635.537 436.769 628.888C436.769 622.861 435.573 618.246 433.181 615.041C430.837 611.836 428.111 610.233 425.001 610.233ZM708.708 585.981H682.16V562.447H708.708V585.981ZM638.699 0.567021C639.895 -0.441645 641.728 0.00126513 642.331 1.44495L783.579 339.422C783.809 339.97 784.241 340.411 784.785 340.65L998.613 434.602C1000.89 435.604 1000.2 439.004 997.714 439.041L774.631 442.255C773.247 442.275 772.189 443.497 772.367 444.87L783.374 529.788C783.554 531.174 782.474 532.403 781.076 532.403H218.914C217.517 532.403 216.437 531.174 216.617 529.788L227.624 444.87C227.802 443.497 226.744 442.275 225.36 442.255L2.28352 439.041C-0.205647 439.004 -0.894094 435.604 1.38508 434.602L215.212 340.65C215.757 340.411 216.189 339.97 216.418 339.422L357.659 1.44495C358.263 0.00130858 360.095 -0.441562 361.291 0.567021L498.505 116.285C499.368 117.013 500.63 117.013 501.493 116.285L638.699 0.567021ZM384.529 442.102C384.56 442.248 397.786 503.316 468.988 503.316C540.187 503.316 551.096 443.025 551.122 442.878L532.932 442.793C532.563 464.357 514.972 481.724 493.32 481.724C471.544 481.724 453.874 464.158 453.701 442.423L384.529 442.102ZM569.511 442.102C569.542 442.248 582.769 503.316 653.97 503.316C725.175 503.316 736.08 443.014 736.105 442.878L717.912 442.793C717.544 464.357 699.952 481.724 678.3 481.724C656.525 481.724 638.854 464.158 638.681 442.423L569.511 442.102Z" fill="#000813"/>
</g>
<defs>
<clipPath id="clip0_255_80">
<rect width="1000" height="689" fill="white" transform="translate(0 0.0207214)"/>
</clipPath>
</defs>
</svg>
